<svg width="42" height="24" viewBox="0 0 42 24" fill="none" xmlns="http://www.w3.org/2000/svg">
<path d="M20.3192 17.1135C19.7476 17.7302 19.4877 18.4497 19.4877 19.3233L19.5397 23.6403C19.5397 23.8458 19.6956 24 19.9035 24H22.9695C23.0735 24 23.1774 23.9486 23.2294 23.8972C23.3333 23.8458 23.3853 23.743 23.3853 23.6403L23.2813 19.4261C23.2813 18.5011 23.5932 17.6274 24.2687 16.9079C24.5805 16.5482 24.9443 16.2912 25.36 16.1371H22.6577C21.6704 16.1371 20.9428 16.4454 20.3192 17.1135Z" fill="#27AAE1"/>
<path d="M40.7944 0H37.7283C37.5204 0 37.3645 0.154176 37.3645 0.359743V3.95717C37.3645 7.65739 36.3771 10.5867 34.2985 12.6424C32.8434 14.0814 31.0245 15.0578 28.7899 15.469H29.7773C33.415 15.469 36.2732 14.4411 38.248 12.4882C40.2227 10.5353 41.2101 7.70878 41.1581 4.11135V0.411135C41.1581 0.154176 41.0022 0 40.7944 0Z" fill="#27AAE1"/>
<path d="M15.4863 17.1135C14.8627 17.7302 14.6028 18.4497 14.6028 19.3233L14.6548 23.6403C14.6548 23.8458 14.8107 24 15.0186 24H18.0847C18.1886 24 18.2925 23.9486 18.3445 23.8972C18.4484 23.8458 18.5004 23.743 18.5004 23.6403L18.4484 19.4261C18.4484 18.5011 18.7602 17.6274 19.4358 16.9079C19.7476 16.5482 20.1114 16.2912 20.5271 16.1371H17.8248C16.8374 16.1371 16.0579 16.4454 15.4863 17.1135Z" fill="#F291C6"/>
<path d="M35.9094 0H32.8434C32.6355 0 32.4796 0.154176 32.4796 0.359743V3.95717C32.4796 7.65739 31.4922 10.5867 29.4135 12.6424C28.0104 14.0814 26.1396 15.0578 23.905 15.469H24.8923C28.5301 15.469 31.3883 14.4411 33.363 12.4882C35.3378 10.5353 36.3252 7.70878 36.3252 4.11135V0.411135C36.3252 0.154176 36.1693 0 35.9094 0Z" fill="#F291C6"/>
<path d="M10.6013 17.1135C10.0297 17.7302 9.7179 18.4497 9.7179 19.3233L9.82183 23.6403C9.82183 23.8458 9.97773 24 10.1856 24H13.2517C13.3556 24 13.4595 23.9486 13.5115 23.8972C13.6154 23.8458 13.6154 23.743 13.6154 23.6403L13.5635 19.4261C13.5635 18.5011 13.8753 17.6274 14.5509 16.9079C14.8627 16.5482 15.2264 16.2912 15.6422 16.1371H12.9399C11.9525 16.1371 11.173 16.4454 10.6013 17.1135Z" fill="#F15A29"/>
<path d="M31.0765 0H28.0104C27.8025 0 27.5947 0.154176 27.5947 0.359743V3.95717C27.5947 7.65739 26.6073 10.5867 24.5286 12.6424C23.1255 14.0814 21.3066 15.0578 19.072 15.469H20.0594C23.6971 15.469 26.5553 14.4411 28.5301 12.4882C30.5048 10.5353 31.4922 7.70878 31.4402 4.11135V0.411135C31.4402 0.154176 31.2843 0 31.0765 0Z" fill="#F15A29"/>
<path d="M5.76839 17.1135C5.14479 17.7302 4.88495 18.4497 4.88495 19.3233L4.93692 23.6403C4.93692 23.8458 5.09282 24 5.30069 24H8.36676C8.47069 24 8.57463 23.9486 8.6266 23.8972C8.73053 23.8458 8.7825 23.743 8.7825 23.6403L8.73053 19.4261C8.73053 18.5011 9.04234 17.6274 9.71791 16.9079C10.0297 16.5482 10.3935 16.2912 10.7573 16.1371H8.05496C7.06758 16.1371 6.34003 16.4454 5.76839 17.1135Z" fill="#FBC340"/>
<path d="M26.1915 0H23.1255C22.9176 0 22.7617 0.154176 22.7617 0.359743V3.95717C22.7617 7.65739 21.7743 10.5867 19.6956 12.6424C18.2405 14.0814 16.4217 15.0578 14.1871 15.469H15.1745C18.8122 15.469 21.6704 14.4411 23.6451 12.4882C25.6199 10.5353 26.6073 7.70878 26.5553 4.11135V0.411135C26.5553 0.154176 26.3994 0 26.1915 0Z" fill="#FBC340"/>
<path d="M0.883445 17.1135C0.259837 17.7302 0 18.4497 0 19.3233L0.0519673 23.6403C0.0519673 23.8458 0.207869 24 0.415739 24H3.48181C3.58575 24 3.68968 23.9486 3.74165 23.8972C3.84558 23.8458 3.89755 23.743 3.89755 23.6403L3.84558 19.4261C3.84558 18.5011 4.15739 17.6274 4.83296 16.9079C5.14477 16.5482 5.50854 16.2912 5.92428 16.1371H3.22197C2.2346 16.1371 1.45509 16.4454 0.883445 17.1135Z" fill="white"/>
<path d="M21.3585 0H18.2405C18.0326 0 17.8767 0.154176 17.8767 0.359743V3.95717C17.8767 7.65739 16.8894 10.5867 14.8107 12.6424C13.4075 14.0814 11.5367 15.0578 9.30212 15.469H10.2895C13.9272 15.469 16.7854 14.4411 18.7602 12.4882C20.7349 10.5353 21.7223 7.70878 21.7223 4.11135V0.411135C21.7223 0.154176 21.5664 0 21.3585 0Z" fill="white"/>
</svg>
