<?xml version="1.0" encoding="iso-8859-1"?>
<!-- Generator: Adobe Illustrator 17.0.0, SVG Export Plug-In . SVG Version: 6.00 Build 0)  -->
<!DOCTYPE svg PUBLIC "-//W3C//DTD SVG 1.1//EN" "http://www.w3.org/Graphics/SVG/1.1/DTD/svg11.dtd">
<svg version="1.1" id="Layer_1" xmlns="http://www.w3.org/2000/svg" xmlns:xlink="http://www.w3.org/1999/xlink" x="0px" y="0px"
	 width="512px" height="512px" viewBox="0 0 512 512" style="enable-background:new 0 0 512 512;" xml:space="preserve">
<path id="bg_47_" style="fill:#334D5C;" d="M512,256.001C512,397.381,397.387,512,256.005,512C114.614,512,0,397.381,0,256.001
	C0,114.621,114.614,0,256.005,0C397.387,0,512,114.621,512,256.001z"/>
<path style="fill:#769EB2;" d="M256.553,0.015v27.479h6.199V0.172C260.689,0.121,258.631,0.02,256.553,0.015z"/>
<rect x="256.553" y="44.15" style="fill:#769EB2;" width="6.199" height="44.847"/>
<rect x="256.553" y="105.652" style="fill:#769EB2;" width="6.199" height="44.851"/>
<rect x="256.553" y="167.156" style="fill:#FFFFFF;" width="6.199" height="44.85"/>
<rect x="256.553" y="228.659" style="fill:#FFFFFF;" width="6.199" height="44.85"/>
<rect x="256.553" y="290.162" style="fill:#FFFFFF;" width="6.199" height="44.85"/>
<rect x="256.553" y="351.668" style="fill:#FFFFFF;" width="6.199" height="44.847"/>
<rect x="256.553" y="413.171" style="fill:#769EB2;" width="6.199" height="44.847"/>
<path style="fill:#769EB2;" d="M256.553,511.988c2.078-0.007,4.136-0.102,6.199-0.155v-37.159h-6.199V511.988z"/>
<path style="fill:#1E3138;" d="M405.027,204.663h-59.846c-0.679-1.566-1.426-2.944-2.23-4.118h21.23c0,0-10.434-5.048-22.162-1.224
	c-1.682-2.012-3.552-3.165-5.541-3.165c-0.387,0-0.769,0.054-1.144,0.142c-1.575,0.35-3.063,1.422-4.428,3.062
	c-4.502-1.385-13.188-2.983-22.152,1.185h21.253c-0.801,1.173-1.548,2.552-2.229,4.118h-52.833l2.013-30.444
	c0.185-1.787,0.286-3.606,0.286-5.458c0-17.261-8.27-31.925-19.831-37.54c-0.265-2.01-0.869-3.862-1.763-5.449h42.764
	c0,0-20.873-10.12-43.704-1.453c-1.864-2.482-4.476-4.042-7.385-4.042c-0.602,0-1.188,0.095-1.766,0.226
	c-0.176,0.042-0.35,0.075-0.524,0.128c-0.068,0.021-0.133,0.026-0.196,0.044c0.013,0.01,0.021,0.016,0.036,0.022
	c-2.039,0.639-3.82,2.056-5.178,3.997c-6.667-2.519-25.282-7.913-44.624,1.078h43.93c-0.852,1.507-1.456,3.246-1.738,5.143
	c-11.893,5.377-20.459,20.273-20.459,37.847c0,1.082,0.045,2.146,0.107,3.204h-0.099l2.189,32.698H165
	c-0.682-1.566-1.426-2.944-2.23-4.118h21.227c0,0-10.43-5.048-22.158-1.224c-1.677-2.012-3.553-3.165-5.538-3.165
	c-0.391,0-0.771,0.054-1.149,0.146c-1.575,0.345-3.064,1.417-4.428,3.052c-4.499-1.379-13.182-2.977-22.146,1.191h21.247
	c-0.804,1.173-1.548,2.552-2.233,4.118h-64.15c-12.223,0-22.129,9.9-22.129,22.123v36.136c0,12.225,9.906,22.131,22.129,22.131
	h140.95l8.189,122.256h-19.724c-7.923,0-14.346,6.421-14.346,14.341c0,7.92,6.423,14.343,14.346,14.343h21.646
	c0.774,4.883,4.303,8.796,8.954,10.168c-0.03,0.006-0.054,0.019-0.084,0.024c0.215,0.069,0.438,0.095,0.655,0.149
	c0.244,0.059,0.488,0.119,0.738,0.167c0.735,0.13,1.485,0.225,2.257,0.225c6.351,0,11.538-4.657,12.5-10.734h21.441
	c7.923,0,14.34-6.423,14.34-14.343c0-7.92-6.417-14.341-14.34-14.341H261.54l8.087-122.256h135.4
	c12.22,0,22.129-9.906,22.129-22.131v-36.136C427.156,214.564,417.247,204.663,405.027,204.663z"/>
<path style="fill:#E45136;" d="M252.982,424.488h-27.685c-7.921,0-14.343-6.423-14.343-14.349c0-7.914,6.422-14.337,14.343-14.337
	h27.685V424.488z"/>
<path style="fill:#E45136;" d="M265.724,424.488h27.685c7.921,0,14.34-6.423,14.34-14.349c0-7.914-6.419-14.337-14.34-14.337
	h-27.685V424.488z"/>
<path style="fill:#E45136;" d="M376.627,189.035c0,0-12.38-6.024-25.338,0H376.627z"/>
<path style="fill:#FFFFFF;" d="M348.922,184.643c7.119,0,12.887,14.422,12.887,32.21s-5.768,32.205-12.887,32.205
	c-7.11,0-12.881-14.417-12.881-32.205S341.812,184.643,348.922,184.643z"/>
<path style="fill:#ADADAD;" d="M357.381,216.853c0-15.9-4.615-29.072-10.672-31.694c0.724-0.323,1.459-0.516,2.213-0.516
	c7.119,0,12.887,14.422,12.887,32.21s-5.768,32.205-12.887,32.205c-0.754,0-1.489-0.193-2.213-0.506
	C352.766,245.928,357.381,232.75,357.381,216.853z"/>
<path style="fill:#E45136;" d="M346.537,189.035c0,0-12.381-6.024-25.34,0H346.537z"/>
<path style="fill:#E45136;" d="M310.859,114.261c0,0-23.078-11.234-47.244,0H310.859z"/>
<path style="fill:#FFFFFF;" d="M259.772,108.764c5.663,0,10.255,5.863,10.255,13.099c0,7.227-4.592,13.089-10.255,13.089
	c-5.663,0-10.258-5.862-10.258-13.089C249.514,114.627,254.108,108.764,259.772,108.764z"/>
<path style="fill:#ADADAD;" d="M265.057,121.862c0-6.143-3.31-11.272-7.774-12.693c0.801-0.259,1.632-0.406,2.489-0.406
	c5.663,0,10.255,5.863,10.255,13.099c0,7.227-4.592,13.089-10.255,13.089c-0.857,0-1.688-0.145-2.489-0.404
	C261.746,133.132,265.057,127.997,265.057,121.862z"/>
<path style="fill:#E45136;" d="M254.754,114.261c0,0-23.078-11.234-47.238,0H254.754z"/>
<path style="fill:#FFFFFF;" d="M259.468,435.223c-7.024,0-12.72-5.705-12.72-12.725c0-0.179,0.018-0.347,0.026-0.519L229.258,160.46
	h0.102c-0.062-1.066-0.107-2.131-0.107-3.204c0-22.105,13.527-40.023,30.216-40.023c16.689,0,30.219,17.918,30.219,40.023
	c0,1.846-0.099,3.666-0.282,5.449l-17.24,260.61h-0.009C271.73,429.964,266.224,435.223,259.468,435.223z"/>
<path style="fill:#ADADAD;" d="M265.029,423.315h0.004l17.245-260.61c0.182-1.783,0.283-3.604,0.283-5.449
	c0-20.506-11.646-37.386-26.651-39.726c1.167-0.179,2.352-0.298,3.558-0.298c16.689,0,30.219,17.918,30.219,40.023
	c0,1.846-0.099,3.666-0.282,5.449l-17.24,260.61h-0.009c-0.426,6.648-5.932,11.907-12.688,11.907c-1.266,0-2.495-0.194-3.65-0.543
	C260.889,433.236,264.682,428.767,265.029,423.315z"/>
<path style="fill:#4C0404;" d="M259.468,257.767c9.694,0,17.553-7.854,17.553-17.54v-39.473c0-9.689-7.858-17.543-17.553-17.543l0,0
	c-9.683,0-17.534,7.854-17.534,17.543v39.473C241.934,249.913,249.785,257.767,259.468,257.767L259.468,257.767z"/>
<path style="fill:#E45136;" d="M196.442,189.035c0,0-12.374-6.024-25.329,0H196.442z"/>
<ellipse style="fill:#FFFFFF;" cx="168.742" cy="216.851" rx="12.881" ry="32.207"/>
<path style="fill:#ADADAD;" d="M177.202,216.853c0-15.9-4.609-29.072-10.675-31.694c0.721-0.323,1.456-0.516,2.215-0.516
	c7.113,0,12.881,14.422,12.881,32.21s-5.768,32.205-12.881,32.205c-0.759,0-1.494-0.193-2.215-0.506
	C172.593,245.928,177.202,232.75,177.202,216.853z"/>
<path style="fill:#E45136;" d="M417.473,273.547c12.217,0,22.127-9.905,22.127-22.131v-36.14c0-12.217-9.91-22.124-22.127-22.124
	H95.886c-12.223,0-22.129,9.907-22.129,22.124v36.14c0,12.226,9.906,22.131,22.129,22.131H417.473z"/>
<path style="fill:#E45136;" d="M166.355,189.035c0,0-12.378-6.024-25.335,0H166.355z"/>
<path style="fill:#E45136;" d="M258.461,424.875c0.837,0,1.513-0.679,1.513-1.519v-28.474c0-0.839-0.676-1.519-1.513-1.519l0,0
	c-0.839,0-1.522,0.679-1.522,1.519v28.474C256.939,424.196,257.622,424.875,258.461,424.875L258.461,424.875z"/>
<g>
</g>
<g>
</g>
<g>
</g>
<g>
</g>
<g>
</g>
<g>
</g>
<g>
</g>
<g>
</g>
<g>
</g>
<g>
</g>
<g>
</g>
<g>
</g>
<g>
</g>
<g>
</g>
<g>
</g>
</svg>
