<?xml version="1.0" encoding="iso-8859-1"?>
<!-- Generator: Adobe Illustrator 17.0.0, SVG Export Plug-In . SVG Version: 6.00 Build 0)  -->
<!DOCTYPE svg PUBLIC "-//W3C//DTD SVG 1.1//EN" "http://www.w3.org/Graphics/SVG/1.1/DTD/svg11.dtd">
<svg version="1.1" id="Layer_1" xmlns="http://www.w3.org/2000/svg" xmlns:xlink="http://www.w3.org/1999/xlink" x="0px" y="0px"
	 width="512px" height="512px" viewBox="0 0 512 512" style="enable-background:new 0 0 512 512;" xml:space="preserve">
<path id="bg_19_" style="fill:#334D5C;" d="M512,256c0,141.384-114.613,256-255.995,256C114.614,512,0,397.384,0,256
	S114.614,0,256.005,0C397.387,0,512,114.616,512,256z"/>
<path style="fill:#45B39C;" d="M385.545,165.531l-0.062,0.029c-10.88-61.652-64.681-108.506-129.46-108.506
	c-64.782,0-118.592,46.86-129.463,108.53l-0.104-0.054c-3.314,18.449-24.175,102.027,15.09,171.094
	c1.203,2.107,2.394,4.185,3.591,6.252c0.429,0.757,0.86,1.489,1.295,2.228c0.754,1.297,1.507,2.596,2.26,3.876
	c0.555,0.946,1.114,1.876,1.668,2.812c0.628,1.047,1.254,2.107,1.879,3.155c0.61,1.019,1.224,2.024,1.84,3.031
	c0.562,0.929,1.129,1.87,1.688,2.787c0.658,1.065,1.31,2.12,1.965,3.174c0.518,0.827,1.033,1.673,1.549,2.501
	c0.685,1.09,1.369,2.162,2.054,3.24c0.482,0.762,0.968,1.523,1.456,2.28c0.712,1.114,1.424,2.21,2.145,3.311
	c0.443,0.678,0.89,1.363,1.337,2.036c0.75,1.143,1.494,2.257,2.238,3.37c0.411,0.613,0.822,1.227,1.236,1.834
	c0.768,1.145,1.539,2.27,2.313,3.383c0.384,0.56,0.769,1.113,1.152,1.668c0.798,1.142,1.596,2.274,2.396,3.389
	c0.349,0.488,0.697,0.982,1.055,1.471c0.827,1.154,1.655,2.292,2.486,3.418c0.312,0.422,0.631,0.846,0.943,1.273
	c0.866,1.162,1.73,2.305,2.594,3.431c0.271,0.357,0.548,0.715,0.821,1.065c0.899,1.174,1.802,2.323,2.701,3.461
	c0.228,0.285,0.467,0.577,0.696,0.863c0.947,1.179,1.891,2.334,2.832,3.471c0.176,0.221,0.354,0.43,0.532,0.638
	c0.998,1.203,1.998,2.376,2.999,3.532c0.104,0.119,0.208,0.237,0.315,0.363c1.072,1.221,2.141,2.429,3.213,3.607
	c0.009,0.013,0.02,0.018,0.029,0.036c20.144,22.104,40.507,34.939,62.034,34.939v-0.34c38.868-4.109,74.155-49.713,111.595-115.557
	C409.717,267.559,388.855,183.98,385.545,165.531z"/>
<path style="fill:#22725F;" d="M218.657,417.583c-0.009-0.018-0.021-0.023-0.029-0.036c-1.072-1.179-2.141-2.387-3.213-3.607
	c-0.107-0.126-0.211-0.244-0.316-0.363c-1.001-1.156-2.001-2.329-2.998-3.532c-0.179-0.208-0.357-0.417-0.53-0.638
	c-0.944-1.137-1.888-2.292-2.835-3.471c-0.23-0.286-0.467-0.578-0.696-0.863c-0.899-1.138-1.802-2.287-2.701-3.461
	c-0.273-0.351-0.551-0.708-0.821-1.065c-0.863-1.126-1.727-2.269-2.594-3.431c-0.312-0.428-0.631-0.852-0.941-1.273
	c-0.831-1.126-1.662-2.264-2.489-3.418c-0.357-0.488-0.706-0.982-1.055-1.471c-0.801-1.114-1.599-2.246-2.396-3.389
	c-0.384-0.555-0.769-1.108-1.152-1.668c-0.775-1.113-1.545-2.238-2.311-3.383c-0.417-0.607-0.828-1.221-1.235-1.834
	c-0.748-1.113-1.492-2.227-2.242-3.37c-0.447-0.673-0.894-1.358-1.337-2.036c-0.718-1.102-1.43-2.197-2.144-3.311
	c-0.488-0.757-0.974-1.519-1.456-2.28c-0.683-1.078-1.37-2.15-2.052-3.24c-0.519-0.828-1.033-1.674-1.552-2.501
	c-0.654-1.054-1.304-2.108-1.965-3.174c-0.56-0.917-1.126-1.858-1.688-2.787c-0.616-1.007-1.229-2.013-1.84-3.031
	c-0.625-1.048-1.251-2.108-1.876-3.155c-0.554-0.936-1.113-1.865-1.667-2.812c-0.757-1.28-1.51-2.579-2.264-3.876
	c-0.435-0.739-0.866-1.472-1.295-2.228c-1.197-2.067-2.388-4.145-3.591-6.252c-39.265-69.066-18.404-152.645-15.09-171.094
	l0.105,0.054c10.254-58.163,58.71-103.141,118.547-108.066c-3.6-0.292-7.238-0.465-10.916-0.465
	c-64.782,0-118.592,46.86-129.463,108.53l-0.104-0.054c-3.314,18.449-24.175,102.027,15.09,171.094
	c1.203,2.107,2.394,4.185,3.591,6.252c0.429,0.757,0.86,1.489,1.295,2.228c0.754,1.297,1.507,2.596,2.26,3.876
	c0.555,0.946,1.114,1.876,1.668,2.812c0.628,1.047,1.254,2.107,1.879,3.155c0.61,1.019,1.224,2.024,1.84,3.031
	c0.562,0.929,1.129,1.87,1.688,2.787c0.658,1.065,1.31,2.12,1.965,3.174c0.518,0.827,1.033,1.673,1.549,2.501
	c0.685,1.09,1.369,2.162,2.054,3.24c0.482,0.762,0.968,1.523,1.456,2.28c0.712,1.114,1.424,2.21,2.145,3.311
	c0.443,0.678,0.89,1.363,1.337,2.036c0.75,1.143,1.494,2.257,2.238,3.37c0.411,0.613,0.822,1.227,1.236,1.834
	c0.768,1.145,1.539,2.27,2.313,3.383c0.384,0.56,0.769,1.113,1.152,1.668c0.798,1.142,1.596,2.274,2.396,3.389
	c0.349,0.488,0.697,0.982,1.055,1.471c0.827,1.154,1.655,2.292,2.486,3.418c0.312,0.422,0.631,0.846,0.943,1.273
	c0.866,1.162,1.73,2.305,2.594,3.431c0.271,0.357,0.548,0.715,0.821,1.065c0.899,1.174,1.802,2.323,2.701,3.461
	c0.228,0.285,0.467,0.577,0.696,0.863c0.947,1.179,1.891,2.334,2.832,3.471c0.176,0.221,0.354,0.43,0.532,0.638
	c0.998,1.203,1.998,2.376,2.999,3.532c0.104,0.119,0.208,0.237,0.315,0.363c1.072,1.221,2.141,2.429,3.213,3.607
	c0.009,0.013,0.02,0.018,0.029,0.036c20.144,22.104,40.507,34.939,62.034,34.939v-0.34c2.688-0.285,5.365-0.785,8.021-1.465
	C250.371,446.501,234.444,434.906,218.657,417.583z"/>
<path style="fill:#2893C0;" d="M135.564,284.18c0,0,81.745-12.828,110.061,72.656C207.155,378.209,138.229,353.096,135.564,284.18z"
	/>
<path style="fill:#2893C0;" d="M376.181,284.18c0,0-81.745-12.828-110.059,72.656C304.589,378.209,373.51,353.096,376.181,284.18z"
	/>
<path style="fill:#0D495E;" d="M136.857,284.006c-0.837,0.102-1.293,0.174-1.293,0.174c2.665,68.916,71.592,94.029,110.061,72.656
	c-1.25-3.775-2.611-7.348-4.061-10.754C205.08,362.5,146.516,341.156,136.857,284.006z"/>
<path style="fill:#0D495E;" d="M270.178,346.082c-1.45,3.406-2.808,6.978-4.056,10.754c38.467,21.373,107.388-3.74,110.059-72.656
	c0,0-0.453-0.072-1.292-0.174C365.235,341.156,306.664,362.5,270.178,346.082z"/>
<g>
</g>
<g>
</g>
<g>
</g>
<g>
</g>
<g>
</g>
<g>
</g>
<g>
</g>
<g>
</g>
<g>
</g>
<g>
</g>
<g>
</g>
<g>
</g>
<g>
</g>
<g>
</g>
<g>
</g>
</svg>
