<?xml version="1.0" encoding="iso-8859-1"?>
<!-- Generator: Adobe Illustrator 17.0.0, SVG Export Plug-In . SVG Version: 6.00 Build 0)  -->
<!DOCTYPE svg PUBLIC "-//W3C//DTD SVG 1.1//EN" "http://www.w3.org/Graphics/SVG/1.1/DTD/svg11.dtd">
<svg version="1.1" id="Layer_1" xmlns="http://www.w3.org/2000/svg" xmlns:xlink="http://www.w3.org/1999/xlink" x="0px" y="0px"
	 width="512px" height="512px" viewBox="0 0 512 512" style="enable-background:new 0 0 512 512;" xml:space="preserve">
<circle id="background_12_" style="fill:#45B39C;" cx="256" cy="256" r="256"/>
<path style="fill:#F3C42C;" d="M190.551,110.594c-8.34-3.403-17.27-5.7-26.111-7.311c-16.598-3.026-34.8-3.563-50.112,4.552
	c-20.032,10.617-25.273,34.582-23.899,55.502c0.703,10.69,3.362,21.8,9.943,30.47c5.616,7.396,13.141,12.417,21.962,15.25
	c14.583,4.685,30.927,2.83,45.577-0.518c8.242-1.885,16.232-4.446,24.001-7.793c1.986-0.856,2.993-3.467,2.993-5.497
	c0-25.586,0-51.048,0-76.557c0.03-0.09,0.066-0.178,0.091-0.269C195.999,114.777,193.76,111.903,190.551,110.594z M160.592,197.106
	c-1.812,0.365-3.625,0.682-5.452,0.969c-0.454,0.07-0.903,0.135-1.356,0.2c-0.064,0.008-0.138,0.017-0.231,0.03
	c-1.111,0.14-2.223,0.256-3.337,0.361c-4.023,0.378-8.069,0.486-12.105,0.293c-0.965-0.047-1.928-0.123-2.891-0.21
	c-0.479-0.045-0.958-0.099-1.436-0.151c-0.048-0.007-0.079-0.01-0.12-0.014c-0.032-0.005-0.054-0.008-0.091-0.014
	c-2.039-0.296-4.057-0.728-6.048-1.258c-1.651-0.441-3.27-0.997-4.859-1.625c0.329,0.109-1.562-0.736-1.915-0.915
	c-0.972-0.493-1.912-1.045-2.835-1.623c-0.672-0.419-1.319-0.875-1.958-1.342c0.369,0.247-1.324-1.115-1.626-1.388
	c-0.718-0.648-1.394-1.343-2.053-2.052c-0.335-0.359-0.655-0.734-0.974-1.108c-0.171-0.2-0.283-0.331-0.362-0.42
	c-0.013-0.025-0.063-0.1-0.186-0.267c-1.252-1.698-2.312-3.531-3.262-5.412c-0.251-0.497-0.48-1.003-0.71-1.508
	c-0.022-0.049-0.039-0.083-0.058-0.125c-0.034-0.094-0.092-0.243-0.178-0.465c-0.513-1.302-0.939-2.633-1.337-3.974
	c-3.101-10.465-3.078-23.251-0.644-33.71c0.555-2.385,1.303-4.72,2.192-7c0.022-0.059,0.039-0.1,0.058-0.149
	c0.043-0.087,0.106-0.224,0.199-0.431c0.228-0.508,0.477-1.005,0.725-1.503c0.559-1.122,1.192-2.205,1.855-3.268
	c0.483-0.776,1.011-1.52,1.552-2.255c-0.249,0.375,1.183-1.378,1.462-1.687c0.658-0.72,1.359-1.398,2.074-2.061
	c0.352-0.329,0.719-0.641,1.085-0.954c0.179-0.152,0.304-0.259,0.391-0.336c0.041-0.029,0.102-0.072,0.197-0.142
	c1.516-1.129,3.141-2.103,4.808-2.989c0.714-0.378,1.447-0.721,2.184-1.053c-0.459,0.227,1.89-0.72,2.366-0.883
	c1.8-0.619,3.645-1.1,5.503-1.51c0.938-0.206,1.881-0.376,2.827-0.536c0.24-0.04,0.48-0.074,0.721-0.108
	c0.025,0.003,1.169-0.146,1.413-0.17c6.084-0.645,12.247-0.424,18.319,0.234c0.603,0.064,1.205,0.139,1.807,0.214
	c0.383,0.053,0.766,0.11,1.148,0.166c1.498,0.224,2.991,0.484,4.481,0.761c2.777,0.515,5.536,1.132,8.277,1.813
	c4.01,0.995,8.031,2.124,11.962,3.473c0,23.33,0,46.629,0,70.021c-0.946,0.347-1.895,0.682-2.857,1.01
	C173.189,194.127,166.942,195.827,160.592,197.106z M185.485,189.759c0.001-0.002,0.002-0.004,0.002-0.006
	C187.93,188.702,186.536,189.321,185.485,189.759z"/>
<path style="fill:#F3C42C;" d="M421.571,149.686c-0.701-10.689-3.36-21.8-9.943-30.47c-5.615-7.396-13.141-12.417-21.961-15.25
	c-14.584-4.684-30.928-2.83-45.578,0.519c-8.24,1.884-16.549,4.445-24.318,7.793c-1.985,0.856-3.31,3.467-3.31,5.495
	c0,26.173,0,52.628,0,78.721c0,3.787,2.666,5.835,5.559,6.155c8.178,3.28,16.9,5.515,25.541,7.091
	c16.599,3.025,34.801,3.562,50.113-4.553C417.705,194.571,422.946,170.606,421.571,149.686z M407.432,171.644
	c-0.554,2.385-1.302,4.719-2.192,6.998c-0.022,0.061-0.039,0.102-0.058,0.15c-0.042,0.088-0.107,0.225-0.199,0.432
	c-0.228,0.506-0.476,1.005-0.724,1.503c-0.56,1.122-1.193,2.205-1.856,3.269c-0.483,0.775-1.012,1.519-1.552,2.253
	c0.25-0.373-1.184,1.38-1.463,1.687c-0.656,0.723-1.359,1.4-2.074,2.063c-0.352,0.33-0.719,0.641-1.085,0.954
	c-0.178,0.151-0.302,0.258-0.39,0.334c-0.041,0.029-0.102,0.072-0.197,0.145c-1.517,1.128-3.141,2.103-4.809,2.988
	c-0.714,0.378-1.446,0.72-2.184,1.051c0.457-0.225-1.891,0.721-2.366,0.884c-1.8,0.62-3.646,1.102-5.503,1.512
	c-0.938,0.206-1.882,0.376-2.828,0.535c-0.238,0.041-0.479,0.073-0.719,0.109c-0.027-0.005-1.17,0.146-1.414,0.171
	c-6.085,0.645-12.247,0.423-18.319-0.234c-0.603-0.064-1.204-0.14-1.806-0.215c-0.383-0.053-0.767-0.109-1.149-0.166
	c-1.498-0.224-2.991-0.483-4.482-0.76c-2.777-0.518-5.536-1.133-8.277-1.814c-4.227-1.048-8.467-2.241-12.598-3.689
	c0-23.107,0-46.447,0-69.611c1.137-0.413,2.278-0.818,3.413-1.203c6.13-2.091,12.417-3.791,18.767-5.07
	c1.812-0.365,3.645-0.683,5.472-0.969c0.445-0.068,0.895-0.133,1.341-0.196c0.069-0.008,0.153-0.021,0.262-0.033
	c1.11-0.141,2.225-0.256,3.34-0.362c4.023-0.378,8.07-0.486,12.105-0.293c0.967,0.047,1.93,0.123,2.893,0.21
	c0.478,0.043,0.958,0.098,1.436,0.151c0.049,0.007,0.081,0.009,0.121,0.014c0.032,0.005,0.054,0.008,0.09,0.014
	c2.039,0.296,4.058,0.729,6.049,1.258c1.652,0.44,3.269,0.995,4.859,1.625c-0.33-0.111,1.56,0.736,1.914,0.915
	c0.972,0.493,1.912,1.045,2.835,1.622c0.672,0.42,1.319,0.875,1.958,1.343c-0.369-0.246,1.324,1.113,1.627,1.389
	c0.717,0.648,1.393,1.343,2.051,2.051c0.336,0.359,0.655,0.734,0.975,1.108c0.172,0.2,0.283,0.33,0.362,0.42
	c0.013,0.024,0.063,0.102,0.186,0.267c1.251,1.698,2.312,3.531,3.262,5.412c0.25,0.496,0.48,1.001,0.71,1.508
	c0.022,0.049,0.04,0.083,0.058,0.125c0.035,0.093,0.092,0.243,0.18,0.462c0.512,1.302,0.939,2.636,1.336,3.976
	C409.888,148.398,409.865,161.185,407.432,171.644z"/>
<g>
	<path style="fill:#D8A202;" d="M191.912,200.745c1.986-0.856,2.993-3.467,2.993-5.497c0-25.586,0-51.048,0-76.557
		c0.03-0.09,0.066-0.178,0.091-0.269c1.003-3.645-1.236-6.519-4.445-7.828c-7.367-3.007-15.193-5.147-23.012-6.717v13.017
		c0.894,0.205,1.785,0.416,2.675,0.638c4.01,0.995,8.031,2.124,11.962,3.473c0,23.33,0,46.629,0,70.021
		c-0.946,0.347-1.895,0.682-2.857,1.01c-3.886,1.326-7.817,2.49-11.793,3.496c-0.033,1.914,0.01,6.64,0.915,12.878
		C176.496,206.538,184.31,204.02,191.912,200.745z M185.487,189.753c2.443-1.051,1.048-0.432-0.002,0.006
		C185.486,189.757,185.487,189.755,185.487,189.753z"/>
</g>
<path style="fill:#E6B92A;" d="M329.188,191.802c0-23.107,0-46.447,0-69.611c1.137-0.413,2.278-0.818,3.413-1.203
	c3.898-1.329,7.86-2.499,11.86-3.506v-13.08c-0.123,0.029-0.248,0.055-0.373,0.084c-8.24,1.884-16.549,4.445-24.318,7.793
	c-1.985,0.856-3.31,3.467-3.31,5.495c0,26.173,0,52.628,0,78.721c0,3.787,2.666,5.835,5.559,6.155
	c6.891,2.763,14.169,4.78,21.458,6.29c0.897-5.919,1.015-10.539,1.003-12.806c-0.898-0.208-1.797-0.42-2.693-0.644
	C337.56,194.443,333.319,193.25,329.188,191.802z"/>
<path style="fill:#FFCE2E;" d="M301.36,252.151c31.526-17.708,29.768-56.848,29.768-56.848l0.152-105.035l-75.279-0.055h-75.733
	v105.034c0,0-1.826,39.139,29.675,56.892c44.28,24.955,17.632,62.422,17.632,62.422s-45.314,4.762-45.314,27.674h73.741
	l72.901,0.052c0.034-22.912-45.269-27.739-45.269-27.739S257.045,277.042,301.36,252.151z"/>
<path style="fill:#E8BB2A;" d="M340.644,348.599c0,3.5-2.863,6.365-6.363,6.365H177.085c-3.5,0-6.364-2.865-6.364-6.365l0,0
	c0-3.5,2.864-6.363,6.364-6.363H334.28C337.78,342.235,340.644,345.099,340.644,348.599L340.644,348.599z"/>
<path style="fill:#F3C42C;" d="M358.464,363.873c0,3.5-2.863,6.364-6.365,6.364H159.902c-3.5,0-6.364-2.864-6.364-6.364v-2.546
	c0-3.5,2.864-6.363,6.364-6.363h192.197c3.502,0,6.365,2.863,6.365,6.363V363.873z"/>
<path style="fill:#FFD345;" d="M338.735,83.851c0,3.5-2.865,6.364-6.365,6.364H178.994c-3.5,0-6.364-2.864-6.364-6.364v-3.184
	c0-3.5,2.864-6.363,6.364-6.363H332.37c3.5,0,6.365,2.863,6.365,6.363V83.851z"/>
<path style="fill:#F3C42C;" d="M283.01,313.595c-3.036-4.848-15.46-27.363,1.276-47.729h-57.3
	c16.706,20.373,4.281,42.857,1.223,47.729H283.01z"/>
<path style="fill:#804712;" d="M364.827,431.333c0,3.5-2.863,6.363-6.363,6.363H152.901c-3.5,0-6.364-2.863-6.364-6.363v-54.732
	c0-3.5,2.864-6.363,6.364-6.363h205.563c3.5,0,6.363,2.863,6.363,6.363V431.333z"/>
<path style="fill:#703E0F;" d="M308.187,380.738c-22.063,0-44.125,0-66.188,0c-4.104,0-4.104,6.363,0,6.363
	c22.063,0,44.125,0,66.188,0C312.291,387.102,312.291,380.738,308.187,380.738L308.187,380.738z"/>
<path style="fill:#703E0F;" d="M306.277,405.559c-31.267,0-62.533,0-93.801,0c-11.796,0-23.594,0-35.392,0
	c-4.104,0-4.104,6.363,0,6.363c31.267,0,62.533,0,93.801,0c11.797,0,23.594,0,35.392,0
	C310.382,411.922,310.382,405.559,306.277,405.559L306.277,405.559z"/>
<path style="fill:#703E0F;" d="M269.365,426.56c24.608,0,49.216,0,73.825,0c4.104,0,4.104-6.364,0-6.364
	c-24.609,0-49.217,0-73.825,0C265.262,420.195,265.262,426.56,269.365,426.56L269.365,426.56z"/>
<path style="fill:#703E0F;" d="M312.005,399.193c10.819,0,21.639,0,32.457,0c4.105,0,4.105-6.363,0-6.363
	c-10.818,0-21.638,0-32.457,0C307.901,392.83,307.901,399.193,312.005,399.193L312.005,399.193z"/>
<path style="fill:#703E0F;" d="M167.539,390.283c16.547,0,33.093,0,49.64,0c4.104,0,4.104-6.363,0-6.363c-16.547,0-33.093,0-49.64,0
	C163.435,383.92,163.435,390.283,167.539,390.283L167.539,390.283z"/>
<path style="fill:#703E0F;" d="M181.54,426.56c8.91,0,17.82,0,26.729,0c4.105,0,4.105-6.364,0-6.364c-8.909,0-17.819,0-26.729,0
	C177.436,420.195,177.436,426.56,181.54,426.56L181.54,426.56z"/>
<path style="opacity:0.3;fill:#5D5D5D;" d="M178.994,74.304c-3.5,0-6.364,2.863-6.364,6.363v3.184c0,3.5,2.864,6.364,6.364,6.364
	h1.273v16.798c-0.053-0.016-0.107-0.032-0.161-0.047c-0.557-0.165-1.115-0.326-1.674-0.483c-0.491-0.138-0.982-0.274-1.474-0.404
	c-0.534-0.144-1.07-0.283-1.606-0.419c-0.514-0.132-1.027-0.262-1.542-0.388c-0.509-0.125-1.02-0.242-1.53-0.36
	c-0.538-0.127-1.077-0.253-1.616-0.372c-0.462-0.102-0.925-0.198-1.388-0.295c-1.613-0.342-3.227-0.666-4.837-0.961
	c-16.598-3.026-34.8-3.563-50.112,4.552c-20.032,10.617-25.273,34.582-23.899,55.502c0.703,10.69,3.362,21.8,9.943,30.47
	c5.616,7.396,13.141,12.417,21.962,15.25c14.583,4.685,30.927,2.83,45.577-0.518c0.179-0.04,0.355-0.086,0.532-0.128
	c0.02-0.003,0.039-0.01,0.059-0.014c2.997-0.698,5.961-1.485,8.893-2.368c0.038-0.012,0.077-0.025,0.116-0.037
	c0.941-0.283,1.879-0.576,2.813-0.879c0.123-0.041,0.244-0.084,0.365-0.124c0.042-0.013,0.085-0.028,0.128-0.043
	c1.59,12.767,7.514,35.013,29.127,47.194c8.233,4.641,14.01,9.712,17.967,14.896c0.085,0.111,0.169,0.224,0.251,0.337
	c0.224,0.3,0.443,0.6,0.655,0.901c0.072,0.102,0.146,0.205,0.218,0.309c0.271,0.392,0.533,0.783,0.784,1.175
	c0.037,0.057,0.07,0.113,0.106,0.17c0.215,0.34,0.422,0.678,0.623,1.02c0.068,0.115,0.135,0.23,0.202,0.348
	c0.18,0.311,0.354,0.625,0.522,0.938c0.048,0.087,0.097,0.174,0.143,0.26c0.208,0.394,0.406,0.787,0.596,1.179
	c0.041,0.087,0.08,0.172,0.12,0.257c0.149,0.316,0.294,0.632,0.432,0.948c0.05,0.112,0.099,0.227,0.147,0.34
	c0.145,0.341,0.285,0.681,0.417,1.021c0.021,0.055,0.045,0.109,0.066,0.165c0.151,0.394,0.293,0.786,0.427,1.178
	c0.034,0.101,0.066,0.198,0.099,0.297c0.102,0.306,0.199,0.612,0.291,0.915c0.033,0.107,0.065,0.215,0.097,0.322
	c0.23,0.783,0.427,1.561,0.597,2.336c0.022,0.105,0.044,0.212,0.066,0.315c0.063,0.302,0.123,0.603,0.177,0.903
	c0.018,0.097,0.036,0.193,0.052,0.288c0.067,0.385,0.128,0.768,0.181,1.151c0.006,0.045,0.011,0.09,0.017,0.135
	c0.047,0.339,0.086,0.678,0.122,1.014c0.011,0.103,0.021,0.207,0.032,0.311c0.03,0.309,0.056,0.615,0.078,0.921
	c0.005,0.076,0.013,0.151,0.017,0.227c0.025,0.376,0.044,0.751,0.058,1.125c0.002,0.069,0.06,0.14,0.062,0.209
	c0.009,0.307,0.072,0.612,0.072,0.914c0,0.102,0,0.201,0,0.302c0,0.323-0.062,0.645-0.07,0.966c-0.001,0.044-0.03,0.087-0.032,0.129
	c-0.011,0.367-0.042,0.729-0.063,1.09c-0.005,0.084-0.018,0.167-0.023,0.25c-0.018,0.283-0.043,0.566-0.067,0.849
	c-0.009,0.092-0.018,0.183-0.026,0.274c-0.066,0.707-0.15,1.404-0.25,2.09c-0.012,0.086-0.026,0.172-0.039,0.259
	c-0.041,0.272-0.084,0.54-0.129,0.809c-0.014,0.078-0.027,0.156-0.04,0.235c-0.06,0.334-0.122,0.67-0.188,1
	c-0.007,0.033-0.014,0.066-0.021,0.102c-0.06,0.295-0.122,0.586-0.187,0.876c-0.02,0.087-0.039,0.172-0.059,0.259
	c-0.059,0.262-0.122,0.52-0.185,0.778c-0.015,0.062-0.029,0.123-0.045,0.185c-0.078,0.314-0.161,0.625-0.244,0.932
	c-0.016,0.059-0.032,0.115-0.048,0.174c-0.07,0.25-0.141,0.5-0.213,0.746c-0.024,0.08-0.047,0.16-0.072,0.24
	c-0.078,0.262-0.158,0.521-0.24,0.777c-0.011,0.034-0.021,0.069-0.032,0.104c-0.093,0.29-0.189,0.577-0.285,0.858
	c-0.023,0.066-0.046,0.133-0.068,0.198c-0.077,0.222-0.153,0.44-0.231,0.657c-0.026,0.071-0.051,0.143-0.078,0.213
	c-0.197,0.541-0.4,1.066-0.604,1.573c-0.027,0.065-0.053,0.13-0.079,0.195c-0.081,0.196-0.161,0.392-0.242,0.583
	c-0.026,0.061-0.051,0.12-0.076,0.18c-0.103,0.24-0.205,0.477-0.307,0.707c-0.014,0.028-0.026,0.057-0.04,0.087
	c-0.09,0.201-0.18,0.399-0.269,0.593c-0.029,0.063-0.058,0.127-0.087,0.188c-0.08,0.174-0.161,0.342-0.24,0.509
	c-0.023,0.047-0.045,0.095-0.067,0.142c-0.099,0.206-0.198,0.406-0.296,0.603c-0.021,0.044-0.042,0.086-0.064,0.129
	c-0.079,0.155-0.156,0.309-0.232,0.457c-0.028,0.055-0.056,0.107-0.083,0.161c-0.081,0.157-0.162,0.31-0.241,0.458
	c-0.014,0.025-0.028,0.053-0.041,0.077c-0.092,0.172-0.182,0.337-0.27,0.498c-0.024,0.044-0.047,0.087-0.072,0.13
	c-0.066,0.12-0.131,0.237-0.194,0.349c-0.025,0.044-0.049,0.087-0.073,0.128c-0.079,0.139-0.157,0.275-0.231,0.404
	c-0.003,0.005-0.008,0.012-0.011,0.016c-0.078,0.136-0.153,0.262-0.226,0.384c-0.021,0.035-0.04,0.068-0.061,0.103
	c-0.054,0.09-0.107,0.177-0.158,0.26c-0.018,0.028-0.035,0.057-0.052,0.085c-0.499,0.811-0.811,1.25-0.811,1.25
	s-45.314,4.762-45.314,27.674h-5.175c-3.5,0-6.364,2.863-6.364,6.363s2.864,6.365,6.364,6.365h-17.183
	c-3.5,0-6.364,2.863-6.364,6.363v2.546c0,3.5,2.864,6.364,6.364,6.364h-7.001c-3.5,0-6.364,2.863-6.364,6.363v54.732
	c0,3.5,2.864,6.363,6.364,6.363h102.463V74.304H178.994z M180.268,191.702c-0.317,0.109-0.628,0.227-0.948,0.334
	c-0.887,0.303-1.778,0.594-2.671,0.881c-0.261,0.083-0.521,0.165-0.782,0.246c-0.66,0.207-1.321,0.41-1.982,0.61
	c-0.265,0.08-0.53,0.158-0.796,0.235c-0.743,0.218-1.486,0.43-2.231,0.638c-0.16,0.044-0.319,0.091-0.478,0.134
	c-0.949,0.26-1.899,0.51-2.852,0.752c-2.297,0.58-4.608,1.105-6.935,1.574c-1.812,0.365-3.625,0.682-5.452,0.969
	c-0.454,0.07-0.903,0.135-1.356,0.2c-0.064,0.008-0.138,0.017-0.231,0.03c-1.111,0.14-2.223,0.256-3.337,0.361
	c-4.023,0.378-8.069,0.486-12.105,0.293c-0.965-0.047-1.928-0.123-2.891-0.21c-0.479-0.045-0.958-0.099-1.436-0.151
	c-0.048-0.007-0.079-0.01-0.12-0.014c-0.032-0.005-0.054-0.008-0.091-0.014c-2.039-0.296-4.057-0.728-6.048-1.258
	c-1.651-0.441-3.27-0.997-4.859-1.625c0.329,0.109-1.562-0.736-1.915-0.915c-0.972-0.493-1.912-1.045-2.835-1.623
	c-0.672-0.419-1.319-0.875-1.958-1.342c0.369,0.247-1.324-1.115-1.626-1.388c-0.718-0.648-1.394-1.343-2.053-2.052
	c-0.335-0.359-0.655-0.734-0.974-1.108c-0.171-0.2-0.283-0.331-0.362-0.42c-0.013-0.025-0.063-0.1-0.186-0.267
	c-1.252-1.698-2.312-3.531-3.262-5.412c-0.251-0.497-0.48-1.003-0.71-1.508c-0.022-0.049-0.039-0.083-0.058-0.125
	c-0.034-0.094-0.092-0.243-0.178-0.465c-0.513-1.302-0.939-2.633-1.337-3.974c-3.101-10.465-3.078-23.251-0.644-33.71
	c0.555-2.385,1.303-4.72,2.192-7c0.022-0.059,0.039-0.1,0.058-0.149c0.043-0.087,0.106-0.224,0.199-0.431
	c0.228-0.508,0.477-1.005,0.725-1.503c0.559-1.122,1.192-2.205,1.855-3.268c0.483-0.776,1.011-1.52,1.552-2.255
	c-0.249,0.375,1.183-1.378,1.462-1.687c0.658-0.72,1.359-1.398,2.074-2.061c0.352-0.329,0.719-0.641,1.085-0.954
	c0.179-0.152,0.304-0.259,0.391-0.336c0.041-0.029,0.102-0.072,0.197-0.142c1.516-1.129,3.141-2.103,4.808-2.989
	c0.714-0.378,1.447-0.721,2.184-1.053c-0.459,0.227,1.89-0.72,2.366-0.883c1.8-0.619,3.645-1.1,5.503-1.51
	c0.938-0.206,1.881-0.376,2.827-0.536c0.24-0.04,0.48-0.074,0.721-0.108c0.025,0.003,1.169-0.146,1.413-0.17
	c6.084-0.645,12.247-0.424,18.319,0.234c0.603,0.064,1.205,0.139,1.807,0.214c0.383,0.053,0.766,0.11,1.148,0.166
	c1.498,0.224,2.991,0.484,4.481,0.761c1.876,0.348,3.743,0.745,5.602,1.175c0.894,0.205,1.785,0.416,2.675,0.638
	c3.364,0.835,6.732,1.772,10.053,2.847V191.702z"/>
<g>
</g>
<g>
</g>
<g>
</g>
<g>
</g>
<g>
</g>
<g>
</g>
<g>
</g>
<g>
</g>
<g>
</g>
<g>
</g>
<g>
</g>
<g>
</g>
<g>
</g>
<g>
</g>
<g>
</g>
</svg>
