<?xml version="1.0" encoding="iso-8859-1"?>
<!-- Generator: Adobe Illustrator 17.0.0, SVG Export Plug-In . SVG Version: 6.00 Build 0)  -->
<!DOCTYPE svg PUBLIC "-//W3C//DTD SVG 1.1//EN" "http://www.w3.org/Graphics/SVG/1.1/DTD/svg11.dtd">
<svg version="1.1" id="Layer_1" xmlns="http://www.w3.org/2000/svg" xmlns:xlink="http://www.w3.org/1999/xlink" x="0px" y="0px"
	 width="512px" height="512px" viewBox="0 0 512 512" style="enable-background:new 0 0 512 512;" xml:space="preserve">
<circle style="fill:#E05B49;" cx="256" cy="256" r="256"/>
<rect x="116.999" y="227" style="fill:#918E84;" width="277" height="150"/>
<rect x="122.999" y="232" style="fill:#A19D92;" width="266" height="139"/>
<polygon style="opacity:0.3;fill:#5D5D5D;" points="394.435,226.565 117.435,226.565 117.435,231.877 394.435,317.135 "/>
<rect x="236.999" y="312" style="fill:#7A7870;" width="37" height="65"/>
<rect x="120.999" y="227" style="fill:#C1BDB1;" width="44" height="7"/>
<rect x="124.999" y="234" style="fill:#C1BDB1;" width="35" height="5"/>
<rect x="120.999" y="369" style="fill:#C1BDB1;" width="44" height="8"/>
<rect x="124.999" y="364" style="fill:#C1BDB1;" width="35" height="5"/>
<rect x="129.999" y="239" style="fill:#C1BDB1;" width="26" height="125"/>
<rect x="120.999" y="227" style="fill:#C1BDB1;" width="44" height="7"/>
<rect x="124.999" y="234" style="fill:#C1BDB1;" width="35" height="5"/>
<rect x="120.999" y="369" style="fill:#C1BDB1;" width="44" height="8"/>
<rect x="124.999" y="364" style="fill:#C1BDB1;" width="35" height="5"/>
<rect x="129.999" y="239" style="fill:#C1BDB1;" width="26" height="125"/>
<rect x="195.999" y="227" style="fill:#C1BDB1;" width="44" height="7"/>
<rect x="200.999" y="234" style="fill:#C1BDB1;" width="35" height="5"/>
<rect x="195.999" y="369" style="fill:#C1BDB1;" width="44" height="8"/>
<rect x="200.999" y="364" style="fill:#C1BDB1;" width="35" height="5"/>
<rect x="205.999" y="239" style="fill:#C1BDB1;" width="26" height="125"/>
<rect x="195.999" y="227" style="fill:#C1BDB1;" width="44" height="7"/>
<rect x="200.999" y="234" style="fill:#C1BDB1;" width="35" height="5"/>
<rect x="195.999" y="369" style="fill:#C1BDB1;" width="44" height="8"/>
<rect x="200.999" y="364" style="fill:#C1BDB1;" width="35" height="5"/>
<rect x="205.999" y="239" style="fill:#C1BDB1;" width="26" height="125"/>
<rect x="270.999" y="227" style="fill:#C1BDB1;" width="44" height="7"/>
<rect x="275.999" y="234" style="fill:#C1BDB1;" width="35" height="5"/>
<rect x="270.999" y="369" style="fill:#C1BDB1;" width="44" height="8"/>
<rect x="275.999" y="364" style="fill:#C1BDB1;" width="35" height="5"/>
<rect x="280.999" y="239" style="fill:#C1BDB1;" width="26" height="125"/>
<rect x="270.999" y="227" style="fill:#C1BDB1;" width="44" height="7"/>
<rect x="275.999" y="234" style="fill:#C1BDB1;" width="35" height="5"/>
<rect x="270.999" y="369" style="fill:#C1BDB1;" width="44" height="8"/>
<rect x="275.999" y="364" style="fill:#C1BDB1;" width="35" height="5"/>
<rect x="280.999" y="239" style="fill:#C1BDB1;" width="26" height="125"/>
<rect x="346.999" y="227" style="fill:#C1BDB1;" width="44" height="7"/>
<rect x="350.999" y="234" style="fill:#C1BDB1;" width="35" height="5"/>
<rect x="346.999" y="369" style="fill:#C1BDB1;" width="44" height="8"/>
<rect x="350.999" y="364" style="fill:#C1BDB1;" width="35" height="5"/>
<rect x="355.999" y="239" style="fill:#C1BDB1;" width="26" height="125"/>
<rect x="346.999" y="227" style="fill:#C1BDB1;" width="44" height="7"/>
<rect x="350.999" y="234" style="fill:#C1BDB1;" width="35" height="5"/>
<rect x="346.999" y="369" style="fill:#C1BDB1;" width="44" height="8"/>
<rect x="350.999" y="364" style="fill:#C1BDB1;" width="35" height="5"/>
<rect x="355.999" y="239" style="fill:#C1BDB1;" width="26" height="125"/>
<polygon style="fill:#B0ADA2;" points="159.999,239 159.999,234 164.999,234 164.999,227 120.999,227 120.999,232.949 122.852,234 
	124.999,234 124.999,234.379 155.999,243.852 155.999,239 "/>
<polygon style="fill:#B0ADA2;" points="235.999,239 235.999,234 239.999,234 239.999,227 195.999,227 195.999,234 200.999,234 
	200.999,239 205.999,239 205.999,259.045 231.999,267.088 231.999,239 "/>
<polygon style="fill:#B0ADA2;" points="310.999,239 310.999,234 314.999,234 314.999,227 270.999,227 270.999,234 275.999,234 
	275.999,239 280.999,239 280.999,282.103 306.999,290.146 306.999,239 "/>
<polygon style="fill:#B0ADA2;" points="381.999,239 385.999,239 385.999,234 390.999,234 390.999,227 346.999,227 346.999,234 
	350.999,234 350.999,239 355.999,239 355.999,305.338 381.999,313.381 "/>
<rect x="108.999" y="377" style="fill:#D4CFC2;" width="294" height="24"/>
<rect x="96.999" y="401" style="fill:#C1BDB1;" width="317" height="26"/>
<rect x="96.999" y="420" style="fill:#A19D92;" width="317" height="7"/>
<rect x="108.999" y="377" style="fill:#D4CFC2;" width="294" height="24"/>
<rect x="108.999" y="393" style="fill:#C7C3B6;" width="294" height="8"/>
<rect x="97.999" y="209" style="fill:#C1BDB1;" width="316" height="18"/>
<rect x="97.999" y="191" style="fill:#D4CFC2;" width="316" height="18"/>
<polygon style="fill:#C1BDB1;" points="105.947,191 256.581,85.88 407.215,191 "/>
<polygon style="fill:#8F8B81;" points="156.714,191 356.448,191 256.581,121.307 "/>
<polygon style="fill:#A19D92;" points="175.184,185 256.581,128.196 337.978,185 "/>
<rect x="234.999" y="307" style="fill:#C1BDB1;" width="41" height="5"/>
<rect x="235.999" y="302" style="fill:#CCC8BB;" width="39" height="5"/>
<g>
</g>
<g>
</g>
<g>
</g>
<g>
</g>
<g>
</g>
<g>
</g>
<g>
</g>
<g>
</g>
<g>
</g>
<g>
</g>
<g>
</g>
<g>
</g>
<g>
</g>
<g>
</g>
<g>
</g>
</svg>
