<?xml version="1.0" encoding="iso-8859-1"?>
<!-- Generator: Adobe Illustrator 17.0.0, SVG Export Plug-In . SVG Version: 6.00 Build 0)  -->
<!DOCTYPE svg PUBLIC "-//W3C//DTD SVG 1.1//EN" "http://www.w3.org/Graphics/SVG/1.1/DTD/svg11.dtd">
<svg version="1.1" id="Layer_1" xmlns="http://www.w3.org/2000/svg" xmlns:xlink="http://www.w3.org/1999/xlink" x="0px" y="0px"
	 width="512px" height="512px" viewBox="0 0 512 512" style="enable-background:new 0 0 512 512;" xml:space="preserve">
<circle id="background_97_" style="fill:#E27C3E;" cx="256" cy="256" r="256"/>
<path style="fill:#B4B8B8;" d="M258.182,338.986c-1.253-0.16-2.532-0.109-3.767,0.148
	C255.648,338.879,256.93,338.826,258.182,338.986z"/>
<path style="fill:#B4B8B8;" d="M251.955,339.959c0.37-0.178,0.75-0.335,1.137-0.469
	C252.705,339.624,252.325,339.781,251.955,339.959z"/>
<path style="fill:#B4B8B8;" d="M246.501,349.125c0-0.518,0.039-1.01,0.096-1.487C246.54,348.115,246.501,348.607,246.501,349.125z"
	/>
<path style="fill:#B4B8B8;" d="M246.958,345.838c0.123-0.423,0.266-0.831,0.434-1.215
	C247.224,345.008,247.081,345.415,246.958,345.838z"/>
<path style="fill:#B4B8B8;" d="M253.102,339.488c0.38-0.13,0.769-0.234,1.161-0.322C253.87,339.254,253.482,339.358,253.102,339.488
	z"/>
<path style="fill:#B4B8B8;" d="M246.658,347.222c0.054-0.348,0.124-0.685,0.205-1.011
	C246.782,346.537,246.712,346.874,246.658,347.222z"/>
<path style="fill:#B4B8B8;" d="M250.929,340.534c0.281-0.179,0.569-0.343,0.867-0.493
	C251.498,340.191,251.21,340.355,250.929,340.534z"/>
<path style="fill:#B4B8B8;" d="M247.448,344.514c0.158-0.348,0.337-0.676,0.529-0.991
	C247.785,343.838,247.607,344.166,247.448,344.514z"/>
<path style="fill:#B4B8B8;" d="M248.175,343.219c0.17-0.256,0.354-0.502,0.543-0.734
	C248.526,342.717,248.345,342.963,248.175,343.219z"/>
<path style="fill:#B4B8B8;" d="M248.913,342.248c0.262-0.299,0.539-0.58,0.832-0.838
	C249.452,341.668,249.175,341.949,248.913,342.248z"/>
<path style="fill:#B4B8B8;" d="M267.001,349.125c0-6.177-4.203-9.549-8.793-10.137c1.279,0.165,2.153,0.547,3.289,1.145
	c-2.938,1.549-5.496,4.539-5.496,8.992c0,0,0,85.01,0,162.865c4-0.01,7-0.097,11-0.24c0-52.136,0-104.625,0-156.861
	C267.001,353.121,267.001,350.832,267.001,349.125z"/>
<path style="fill:#B4B8B8;" d="M249.842,341.333c0.271-0.23,0.554-0.442,0.845-0.642
	C250.395,340.891,250.112,341.103,249.842,341.333z"/>
<path style="fill:#969999;" d="M247.978,343.522c0.064-0.104,0.131-0.204,0.197-0.304
	C248.108,343.319,248.042,343.418,247.978,343.522z"/>
<path style="fill:#969999;" d="M246.863,346.211c0.032-0.124,0.06-0.252,0.095-0.373
	C246.923,345.959,246.895,346.086,246.863,346.211z"/>
<path style="fill:#969999;" d="M246.597,347.638c0.017-0.142,0.04-0.278,0.062-0.416
	C246.637,347.359,246.613,347.496,246.597,347.638z"/>
<path style="fill:#969999;" d="M254.263,339.166c0.051-0.012,0.102-0.021,0.152-0.031
	C254.364,339.145,254.314,339.154,254.263,339.166z"/>
<path style="fill:#969999;" d="M249.745,341.41c0.031-0.027,0.064-0.051,0.097-0.077C249.81,341.359,249.776,341.383,249.745,341.41
	z"/>
<path style="fill:#969999;" d="M258.182,338.986c0.007,0,0.012,0.001,0.017,0.002C258.193,338.987,258.189,338.986,258.182,338.986z
	"/>
<path style="fill:#969999;" d="M247.392,344.623c0.017-0.038,0.04-0.071,0.057-0.109
	C247.432,344.552,247.408,344.585,247.392,344.623z"/>
<path style="fill:#969999;" d="M248.718,342.484c0.067-0.08,0.127-0.161,0.195-0.236
	C248.845,342.323,248.785,342.404,248.718,342.484z"/>
<path style="fill:#969999;" d="M253.092,339.49c0.003,0,0.007-0.001,0.01-0.002C253.099,339.489,253.095,339.49,253.092,339.49z"/>
<path style="fill:#969999;" d="M251.796,340.041c0.055-0.025,0.105-0.057,0.159-0.082
	C251.901,339.984,251.851,340.016,251.796,340.041z"/>
<path style="fill:#969999;" d="M250.686,340.691c0.08-0.054,0.162-0.105,0.242-0.157
	C250.849,340.586,250.767,340.638,250.686,340.691z"/>
<path style="fill:#969999;" d="M256.001,511.99c0-77.855,0-162.865,0-162.865c0-4.453,2.554-7.443,5.491-8.992
	c-1.136-0.598-2.199-0.98-3.478-1.145c-0.006-0.001,0.083-0.002,0.075-0.002c-1.252-0.16-2.486-0.107-3.721,0.148
	c-0.051,0.01-0.078,0.02-0.129,0.031c-0.393,0.088-0.77,0.192-1.149,0.322c-0.003,0.001-0.001,0.002-0.005,0.002
	c-0.387,0.134-0.763,0.291-1.133,0.469c-0.054,0.025-0.103,0.057-0.157,0.082c-0.299,0.15-0.585,0.315-0.866,0.493
	c-0.08,0.052-0.162,0.103-0.242,0.157c-0.291,0.199-0.574,0.411-0.845,0.642c-0.032,0.026-0.065,0.05-0.097,0.077
	c-0.293,0.258-0.57,0.539-0.832,0.838c-0.068,0.075-0.128,0.156-0.195,0.236c-0.189,0.232-0.373,0.478-0.543,0.734
	c-0.066,0.1-0.133,0.199-0.197,0.304c-0.192,0.315-0.371,0.643-0.529,0.991c-0.017,0.038-0.04,0.071-0.057,0.109
	c-0.168,0.384-0.311,0.792-0.434,1.215c-0.035,0.121-0.062,0.249-0.095,0.373c-0.081,0.326-0.151,0.663-0.205,1.011
	c-0.021,0.138-0.295,0.274-0.312,0.416c-0.057,0.478-0.346,0.97-0.346,1.487c0,0,0,84.876,0,162.682
	c3,0.115,6.197,0.193,9.379,0.193C255.628,512,256.001,511.992,256.001,511.99z"/>
<path style="fill:#B4B8B8;" d="M213.712,357.467c-2.137,1.13-3.924,3.078-4.857,5.996c-14.129,44.143-28.26,88.285-42.39,132.428
	c3.41,1.273,6.856,2.472,10.333,3.602c13.929-43.508,27.857-87.018,41.783-130.525C220.331,363.502,217.655,359.392,213.712,357.467
	z"/>
<path style="fill:#B4B8B8;" d="M201.355,358.986c0.17-0.163,0.349-0.315,0.529-0.463
	C201.703,358.671,201.524,358.823,201.355,358.986z"/>
<path style="fill:#B4B8B8;" d="M202.183,358.279c0.213-0.159,0.432-0.305,0.656-0.445
	C202.614,357.975,202.395,358.12,202.183,358.279z"/>
<path style="fill:#B4B8B8;" d="M203.068,357.684c0.625-0.367,1.283-0.662,1.964-0.885
	C204.352,357.022,203.693,357.316,203.068,357.684z"/>
<path style="fill:#B4B8B8;" d="M199.262,361.883c0.123-0.251,0.247-0.5,0.384-0.732
	C199.509,361.383,199.385,361.631,199.262,361.883z"/>
<path style="fill:#B4B8B8;" d="M205.183,356.755c0.293-0.09,0.586-0.17,0.883-0.235
	C205.769,356.585,205.476,356.665,205.183,356.755z"/>
<path style="fill:#B4B8B8;" d="M200.589,359.81c0.149-0.18,0.303-0.352,0.459-0.517C200.892,359.459,200.738,359.631,200.589,359.81
	z"/>
<path style="fill:#B4B8B8;" d="M199.892,360.764c0.133-0.205,0.269-0.406,0.412-0.596
	C200.16,360.358,200.024,360.559,199.892,360.764z"/>
<path style="fill:#B4B8B8;" d="M207.362,356.32c0.293-0.029,0.586-0.046,0.879-0.052
	C207.948,356.274,207.655,356.291,207.362,356.32z"/>
<path style="fill:#B4B8B8;" d="M208.427,356.266c0.324-0.002,0.648,0.01,0.972,0.035
	C209.075,356.275,208.751,356.264,208.427,356.266z"/>
<path style="fill:#B4B8B8;" d="M198.614,363.463c0.137-0.426,0.294-0.828,0.467-1.215
	C198.908,362.635,198.751,363.037,198.614,363.463z"/>
<path style="fill:#B4B8B8;" d="M209.488,356.307c1.47,0.126,2.913,0.521,4.22,1.158
	C212.401,356.828,210.958,356.432,209.488,356.307z"/>
<path style="fill:#B4B8B8;" d="M206.288,356.478c0.281-0.056,0.563-0.1,0.847-0.134
	C206.852,356.377,206.569,356.422,206.288,356.478z"/>
<path style="fill:#969999;" d="M199.081,362.248c0.056-0.127,0.121-0.243,0.181-0.365
	C199.202,362.005,199.137,362.121,199.081,362.248z"/>
<path style="fill:#969999;" d="M200.304,360.168c0.092-0.123,0.188-0.241,0.285-0.358
	C200.491,359.927,200.395,360.045,200.304,360.168z"/>
<path style="fill:#969999;" d="M209.398,356.301c0.03,0.002,0.059,0.004,0.09,0.006
	C209.458,356.305,209.429,356.303,209.398,356.301z"/>
<path style="fill:#969999;" d="M199.645,361.15c0.08-0.134,0.162-0.259,0.246-0.387C199.808,360.892,199.726,361.017,199.645,361.15
	z"/>
<path style="fill:#969999;" d="M206.066,356.52c0.074-0.016,0.149-0.027,0.223-0.042C206.215,356.492,206.14,356.504,206.066,356.52
	z"/>
<path style="fill:#969999;" d="M207.135,356.344c0.077-0.01,0.151-0.016,0.228-0.023
	C207.285,356.328,207.212,356.334,207.135,356.344z"/>
<path style="fill:#969999;" d="M205.032,356.799c0.049-0.017,0.102-0.028,0.15-0.044
	C205.134,356.771,205.081,356.782,205.032,356.799z"/>
<path style="fill:#969999;" d="M202.839,357.834c0.076-0.049,0.15-0.104,0.23-0.15C202.989,357.73,202.915,357.785,202.839,357.834z
	"/>
<polygon style="fill:#969999;" points="213.712,357.467 213.708,357.466 213.712,357.467 "/>
<path style="fill:#969999;" d="M201.048,359.294c0.101-0.104,0.202-0.208,0.307-0.308
	C201.25,359.086,201.149,359.19,201.048,359.294z"/>
<path style="fill:#969999;" d="M208.241,356.269c0.062-0.001,0.123-0.003,0.186-0.003
	C208.364,356.266,208.304,356.268,208.241,356.269z"/>
<path style="fill:#969999;" d="M201.884,358.523c0.1-0.082,0.197-0.167,0.299-0.244
	C202.081,358.356,201.983,358.441,201.884,358.523z"/>
<path style="fill:#969999;" d="M208.855,363.73c0.934-2.92,2.721-3.73,4.857-5.73c-0.002,0-0.004,0-0.004,0
	c-1.307,0-2.75-1.301-4.22-1.426c-0.03-0.002-0.06-0.138-0.09-0.14c-0.323-0.026-0.647-0.104-0.972-0.103
	c-0.062,0-0.123-0.031-0.186-0.031c-0.293,0.008-0.586,0.008-0.879,0.035c-0.076,0.008-0.15,0.007-0.228,0.017
	c-0.283,0.033-0.565,0.073-0.847,0.13c-0.073,0.014-0.148,0.023-0.223,0.039c-0.297,0.066-0.59,0.144-0.883,0.234
	c-0.049,0.017-0.102,0.027-0.15,0.043c-0.681,0.223-1.339,0.518-1.964,0.885c-0.079,0.047-0.153,0.102-0.23,0.15
	c-0.225,0.141-0.443,0.286-0.656,0.445c-0.102,0.077-0.199,0.162-0.299,0.244c-0.181,0.147-0.359,0.3-0.529,0.463
	c-0.105,0.1-0.206,0.203-0.307,0.308c-0.156,0.164-0.31,0.337-0.459,0.517c-0.098,0.116-0.193,0.234-0.285,0.358
	c-0.143,0.189-0.279,0.391-0.412,0.596c-0.084,0.128-0.166,0.253-0.246,0.387c-0.137,0.232-0.261,0.481-0.384,0.732
	c-0.06,0.122-0.125,0.238-0.181,0.365c-0.173,0.387-0.33,0.789-0.467,1.215c-13.746,42.945-27.492,85.891-41.239,128.836
	c3,1.254,6.032,2.583,9.09,3.725C180.595,451.882,194.726,407.873,208.855,363.73z"/>
<path style="fill:#969999;" d="M307.384,356.344c0.285,0.033,0.568,0.078,0.848,0.134
	C307.952,356.422,307.669,356.377,307.384,356.344z"/>
<path style="fill:#969999;" d="M308.453,356.52c0.298,0.065,0.595,0.146,0.889,0.237
	C309.048,356.665,308.751,356.586,308.453,356.52z"/>
<path style="fill:#969999;" d="M305.665,363.463c-0.934-2.918-2.721-4.865-4.858-5.996c-3.943,1.925-6.619,6.035-4.869,11.5
	c13.848,43.262,27.696,86.523,41.543,129.785c3.471-1.164,6.9-2.408,10.301-3.715C333.741,451.178,319.703,407.32,305.665,363.463z"
	/>
<path style="fill:#969999;" d="M311.679,357.832c0.223,0.141,0.444,0.287,0.658,0.447
	C312.123,358.119,311.901,357.973,311.679,357.832z"/>
<path style="fill:#969999;" d="M312.635,358.522c0.182,0.147,0.36,0.301,0.53,0.464C312.995,358.823,312.815,358.67,312.635,358.522
	z"/>
<path style="fill:#969999;" d="M306.278,356.269c0.293,0.006,0.588,0.022,0.88,0.052
	C306.866,356.291,306.573,356.274,306.278,356.269z"/>
<path style="fill:#969999;" d="M300.816,357.463c1.306-0.635,2.749-1.03,4.216-1.156
	C303.564,356.432,302.122,356.826,300.816,357.463z"/>
<path style="fill:#969999;" d="M305.123,356.301c0.323-0.025,0.647-0.037,0.97-0.035
	C305.771,356.264,305.446,356.275,305.123,356.301z"/>
<path style="fill:#969999;" d="M309.488,356.799c0.681,0.222,1.34,0.518,1.964,0.887
	C310.828,357.316,310.169,357.022,309.488,356.799z"/>
<path style="fill:#969999;" d="M314.875,361.15c0.137,0.232,0.26,0.481,0.384,0.732C315.135,361.631,315.012,361.383,314.875,361.15
	z"/>
<path style="fill:#969999;" d="M314.217,360.168c0.144,0.189,0.278,0.391,0.411,0.596
	C314.495,360.559,314.36,360.357,314.217,360.168z"/>
<path style="fill:#969999;" d="M315.439,362.248c0.174,0.387,0.33,0.789,0.467,1.215
	C315.769,363.037,315.612,362.635,315.439,362.248z"/>
<path style="fill:#969999;" d="M313.472,359.293c0.156,0.165,0.311,0.339,0.46,0.517
	C313.782,359.632,313.628,359.459,313.472,359.293z"/>
<path style="fill:#B4B8B8;" d="M306.093,356.266c0.062,0,0.124,0.002,0.185,0.003C306.217,356.268,306.155,356.266,306.093,356.266z
	"/>
<path style="fill:#B4B8B8;" d="M315.259,361.883c0.06,0.122,0.125,0.238,0.18,0.365
	C315.384,362.121,315.318,362.005,315.259,361.883z"/>
<path style="fill:#B4B8B8;" d="M307.158,356.32c0.077,0.008,0.149,0.014,0.226,0.023
	C307.308,356.334,307.235,356.328,307.158,356.32z"/>
<polygon style="fill:#B4B8B8;" points="300.808,357.467 300.808,357.467 300.816,357.463 "/>
<path style="fill:#B4B8B8;" d="M305.032,356.307c0.029-0.002,0.061-0.004,0.091-0.006
	C305.093,356.303,305.061,356.305,305.032,356.307z"/>
<path style="fill:#B4B8B8;" d="M313.165,358.986c0.105,0.1,0.207,0.203,0.307,0.307C313.37,359.19,313.271,359.086,313.165,358.986z
	"/>
<path style="fill:#B4B8B8;" d="M314.628,360.764c0.084,0.128,0.167,0.253,0.247,0.387
	C314.795,361.017,314.712,360.892,314.628,360.764z"/>
<path style="fill:#B4B8B8;" d="M313.932,359.81c0.097,0.117,0.193,0.234,0.285,0.358
	C314.125,360.045,314.028,359.928,313.932,359.81z"/>
<path style="fill:#B4B8B8;" d="M312.337,358.279c0.102,0.077,0.198,0.162,0.298,0.243
	C312.535,358.441,312.439,358.356,312.337,358.279z"/>
<path style="fill:#B4B8B8;" d="M311.452,357.685c0.076,0.045,0.149,0.099,0.227,0.147
	C311.602,357.784,311.528,357.73,311.452,357.685z"/>
<path style="fill:#B4B8B8;" d="M309.342,356.757c0.046,0.015,0.097,0.025,0.147,0.042
	C309.439,356.782,309.388,356.772,309.342,356.757z"/>
<path style="fill:#B4B8B8;" d="M308.232,356.478c0.073,0.015,0.148,0.026,0.222,0.042
	C308.38,356.504,308.305,356.492,308.232,356.478z"/>
<path style="fill:#B4B8B8;" d="M315.439,362.248c-0.055-0.127-0.12-0.243-0.18-0.365c-0.124-0.251-0.247-0.5-0.384-0.732
	c-0.08-0.134-0.163-0.259-0.247-0.387c-0.133-0.205-0.268-0.406-0.411-0.596c-0.092-0.123-0.189-0.24-0.285-0.358
	c-0.149-0.179-0.304-0.352-0.46-0.517c-0.1-0.103-0.201-0.207-0.307-0.307c-0.17-0.163-0.349-0.316-0.53-0.464
	c-0.1-0.081-0.196-0.166-0.298-0.243c-0.214-0.16-0.436-0.307-0.658-0.447c-0.077-0.048-0.15-0.102-0.227-0.147
	c-0.624-0.369-1.283-0.665-1.964-0.887c-0.05-0.017-0.101-0.027-0.147-0.042c-0.294-0.092-0.591-0.172-0.889-0.237
	c-0.073-0.016-0.148-0.027-0.222-0.042c-0.279-0.056-0.562-0.1-0.848-0.134c-0.076-0.01-0.148-0.016-0.226-0.023
	c-0.292-0.029-0.587-0.046-0.88-0.052c-0.061-0.001-0.123-0.003-0.185-0.003c-0.322-0.002-0.647,0.01-0.97,0.035
	c-0.03,0.002-0.062,0.004-0.091,0.006c-1.467,0.126-2.91,0.521-4.216,1.156c-0.001,0.001-0.005,0.003-0.009,0.004
	c2.137,1.131,3.924,3.078,4.858,5.996c14.038,43.857,28.076,87.715,42.117,131.574c3.049-1.172,6.07-2.396,9.062-3.679
	c-13.646-42.632-27.293-85.264-40.939-127.896C315.769,363.037,315.612,362.635,315.439,362.248z"/>
<path style="opacity:0.3;fill:#5D5D5D;" d="M213.712,357.467L213.712,357.467c-0.004-0.002-0.007-0.002-0.009-0.005
	c-1.305-0.636-2.747-1.03-4.215-1.155c-0.03-0.004-0.06-0.004-0.09-0.007c-0.323-0.024-0.647-0.036-0.972-0.034
	c-0.062,0-0.123,0.001-0.186,0.003c-0.293,0.007-0.586,0.022-0.879,0.052c-0.076,0.008-0.15,0.015-0.228,0.023
	c-0.283,0.033-0.565,0.078-0.845,0.133c-0.075,0.016-0.15,0.028-0.225,0.043c-0.297,0.065-0.59,0.146-0.881,0.235
	c-0.05,0.015-0.104,0.026-0.152,0.044c-0.681,0.223-1.339,0.516-1.964,0.887c-0.079,0.046-0.153,0.102-0.233,0.15
	c-0.221,0.14-0.439,0.285-0.65,0.443c-0.104,0.078-0.203,0.165-0.303,0.247c-0.18,0.147-0.355,0.298-0.525,0.459
	c-0.105,0.101-0.208,0.205-0.311,0.312c-0.156,0.163-0.308,0.333-0.454,0.512c-0.101,0.118-0.196,0.236-0.29,0.361
	c-0.142,0.189-0.277,0.389-0.408,0.592c-0.084,0.129-0.168,0.255-0.248,0.39c-0.137,0.231-0.261,0.479-0.383,0.729
	c-0.061,0.124-0.125,0.24-0.182,0.368c-0.173,0.385-0.33,0.789-0.467,1.215c-4.906,15.332-9.814,30.662-14.723,45.992
	c6.121,2.538,12.635,4.77,19.55,6.654c5.034-15.705,10.067-31.412,15.094-47.114C220.285,363.528,217.655,359.392,213.712,357.467z"
	/>
<path style="opacity:0.3;fill:#5D5D5D;" d="M315.905,363.463c-0.137-0.426-0.293-0.83-0.467-1.215
	c-0.057-0.128-0.12-0.244-0.182-0.368c-0.122-0.25-0.245-0.497-0.382-0.729c-0.08-0.135-0.165-0.261-0.249-0.39
	c-0.131-0.203-0.266-0.403-0.408-0.592c-0.093-0.125-0.19-0.245-0.289-0.361c-0.146-0.179-0.299-0.349-0.455-0.512
	c-0.102-0.107-0.205-0.212-0.311-0.312c-0.17-0.161-0.345-0.312-0.525-0.459c-0.1-0.084-0.199-0.169-0.303-0.246
	c-0.21-0.159-0.43-0.305-0.65-0.444c-0.08-0.048-0.154-0.104-0.232-0.15c-0.625-0.371-1.283-0.664-1.964-0.887
	c-0.05-0.017-0.102-0.027-0.153-0.044c-0.29-0.09-0.584-0.17-0.88-0.235c-0.075-0.015-0.15-0.027-0.224-0.041
	c-0.281-0.057-0.562-0.101-0.847-0.135c-0.077-0.009-0.149-0.018-0.227-0.023c-0.294-0.029-0.587-0.045-0.88-0.052
	c-0.061-0.002-0.123-0.003-0.185-0.003c-0.324-0.002-0.648,0.01-0.97,0.034c-0.03,0.003-0.062,0.003-0.091,0.007
	c-1.471,0.125-2.91,0.521-4.217,1.156c-0.004,0.002-0.006,0.002-0.008,0.004c-3.943,1.925-6.619,6.035-4.869,11.5
	c5.018,15.677,10.037,31.352,15.053,47.028c6.92-1.923,13.436-4.202,19.555-6.792C325.665,393.957,320.785,378.71,315.905,363.463z"
	/>
<path style="opacity:0.3;fill:#5D5D5D;" d="M267.001,349.125c0-6.177-4.201-9.549-8.791-10.137
	c-0.006-0.002-0.017-0.002-0.023-0.004c-1.253-0.158-2.535-0.107-3.769,0.15c-0.051,0.01-0.101-0.225-0.151-0.213
	c-0.393,0.088-0.784,0.078-1.165,0.078c-0.002,0-0.006,0-0.006,0c-0.39,0-0.77,0.535-1.14,0.715
	c-0.054,0.023-0.104,0.175-0.155,0.202c-0.299,0.149-0.59,0.378-0.871,0.558c-0.082,0.051-0.16,0.131-0.24,0.184
	c-0.293,0.201-0.58,0.431-0.85,0.664c-0.031,0.024-0.064,0.053-0.092,0.078c-0.295,0.26-0.572,0.545-0.836,0.844
	c-0.066,0.076-0.126,0.16-0.191,0.238c-0.191,0.233-0.375,0.478-0.545,0.736c-0.066,0.1-0.133,0.199-0.197,0.303
	c-0.192,0.316-0.373,0.646-0.533,0.995c-0.015,0.036-0.036,0.07-0.051,0.104c-0.17,0.386-0.312,0.794-0.436,1.217
	c-0.035,0.122-0.062,0.247-0.095,0.37c-0.081,0.329-0.151,0.665-0.205,1.014c-0.021,0.138-0.295,0.274-0.312,0.417
	c-0.057,0.478-0.346,0.968-0.346,1.486c0,0,0,31.389,0,73.484c4,0.159,7.346,0.266,11.018,0.266c3.312,0,5.982-0.092,9.982-0.224
	c0-22.603,0-45.206,0-67.763C267.001,353.121,267.001,350.832,267.001,349.125z"/>
<path style="fill:#CCCFCF;" d="M84.215,220.972c10.417,0,20.307-2.24,29.24-6.237c6.06,4.52,13.546,7.227,21.685,7.227
	c8.87,0,16.992-3.186,23.302-8.466c3.818,2.291,8.27,3.631,13.047,3.631c14.057,0,25.452-11.396,25.452-25.453
	c0-10.351-6.191-19.238-15.062-23.217c10.537-10.402,17.072-24.846,17.072-40.82c0-9.6-2.372-18.642-6.539-26.594
	c23.889-12.331,40.234-37.232,40.234-65.97c0-11.93-2.832-23.191-7.834-33.179C127.774,13.682,47.489,79.752,15.231,168.835
	C23.751,198.922,51.398,220.972,84.215,220.972z"/>
<path style="fill:#CCCFCF;" d="M279.315,1.068c-0.735,5.231-1.141,10.57-1.141,16.005c0,53.295,36.496,98.064,85.857,110.684
	c1.006,2.155,2.116,4.248,3.343,6.265c-8.556,7.073-14.007,17.767-14.007,29.735c0,4.908,0.927,9.599,2.599,13.917
	c-14.038,0.709-25.212,12.284-25.212,26.498c0,14.673,11.894,26.566,26.566,26.566c14.674,0,26.566-11.894,26.566-26.566
	c0-0.92-0.046-1.83-0.14-2.727c2.64,0.57,5.377,0.878,8.184,0.878c20.869,0,37.822-16.587,38.502-37.292
	c21.353-2.352,39.568-15.015,49.646-32.881C439.995,59.775,365.873,8.883,279.315,1.068z"/>
<path style="fill:#CCCFCF;" d="M279.315,1.068c-0.735,5.231-1.141,10.57-1.141,16.005c0,53.295,36.496,98.064,85.857,110.684
	c1.006,2.155,2.116,4.248,3.343,6.265c-8.556,7.073-14.007,17.767-14.007,29.735c0,4.908,0.927,9.599,2.599,13.917
	c-14.038,0.709-25.212,12.284-25.212,26.498c0,14.673,11.894,26.566,26.566,26.566c14.674,0,26.566-11.894,26.566-26.566
	c0-0.92-0.046-1.83-0.14-2.727c2.64,0.57,5.377,0.878,8.184,0.878c20.869,0,37.822-16.587,38.502-37.292
	c21.353-2.352,39.568-15.015,49.646-32.881C439.995,59.775,365.873,8.883,279.315,1.068z"/>
<path style="fill:#DBDEDE;" d="M436.612,104.755c1.102-1.989,1.73-4.274,1.73-6.708c0-7.54-6.015-13.662-13.504-13.863
	c-2.591-13.613-14.537-23.912-28.904-23.912c-16.26,0-29.44,13.18-29.44,29.44c0,10.097,5.086,18.998,12.83,24.302
	c-4.674,4.66-7.568,11.104-7.568,18.227c0,6.8,2.656,12.967,6.965,17.568c-3.17,3.797-5.08,8.68-5.08,14.012
	c0,1.479,0.152,2.92,0.43,4.314c-7.031,2.179-12.14,8.732-12.14,16.48c0,1.729,0.262,3.396,0.735,4.973
	c-3.167,1.875-5.299,5.316-5.299,9.264c0,5.947,4.822,10.767,10.768,10.767c4.913,0,9.05-3.293,10.341-7.79
	c0.236,0.009,0.467,0.035,0.704,0.035c9.17,0,16.646-7.162,17.194-16.195c11.449-0.437,20.627-9.645,21.012-21.107
	c5.891-2.028,10.131-7.604,10.131-14.184c0-0.875-0.09-1.729-0.233-2.563c2.25,0.768,4.653,1.205,7.163,1.205
	c12.254,0,22.186-9.934,22.186-22.187C456.635,115.309,447.851,105.844,436.612,104.755z"/>
<path style="fill:#DBDEDE;" d="M163.163,166.488c9.119-3.983,15.498-13.07,15.498-23.656c0-7.354-3.09-13.973-8.023-18.674
	c2.189-4.33,3.449-9.21,3.449-14.393c0-17.674-14.328-32-32-32c-14.441,0-26.639,9.569-30.62,22.711
	c-3.422-1.436-7.179-2.231-11.122-2.231c-15.893,0-28.776,12.884-28.776,28.776c0,2.698,0.398,5.299,1.093,7.775
	c-14.468,4.451-24.986,17.92-24.986,33.848c0,19.559,15.855,35.414,35.414,35.414c6.191,0,12.006-1.597,17.069-4.391
	c5.481,3.393,11.92,5.382,18.84,5.382c4.452,0,8.696-0.849,12.63-2.328c4.426,4.851,10.777,7.911,17.86,7.911
	c13.362,0,24.193-10.831,24.193-24.194C173.682,178.153,169.512,170.848,163.163,166.488z"/>
<path style="fill:#B4B8B8;" d="M336.425,462.734c-0.24-0.086-0.477-0.077-0.717-0.162c0.027-0.221,0.054-0.572,0.078-0.572
	c-0.654,0-1.309,0-1.963,0c-12.422-4-24.842-8.744-37.266-13.178c-9.014-3.219-18.033-6.366-27.049-9.585
	c-3.461-1.234-8.447-4.181-12.215-4.181c-3.766,0-8.752,2.998-12.213,4.233c-9.016,3.217-18.033,6.56-27.049,9.776
	C206.058,453.34,194.085,458,182.112,462c-0.723,0-1.449,0-2.171,0c-3.401,0-4.53,2.137-3.409,3.654
	c0.004,1.467,1.147,2.902,2.909,2.273c0.866-0.309,1.731,0.072,2.597-0.928c50.078,0,101.203,0,152.355,0
	c0.252,0,0.503,0.172,0.755,0.262c0.01-0.081,0.021-0.262,0.033-0.262c0.202,0,0.403,0,0.604,0
	C338.61,467,338.907,463.619,336.425,462.734z M256.997,439.935C256.718,439.909,256.657,439.837,256.997,439.935L256.997,439.935z
	 M196.388,462c20.304-7,40.605-14.603,60.908-21.85c0.756,0.272,1.516,0.483,2.273,0.754c2.886,1.03,5.775,2.031,8.66,3.061
	c9.019,3.219,18.035,6.538,27.054,9.756c8.04,2.867,16.079,6.279,24.118,8.279C278.137,462,236.955,462,196.388,462z"/>
<path style="fill:#334D5C;" d="M87.491,248.898c0,0,12.541,148.377,169.768,148.377c157.23,0,169.06-151.24,169.06-151.24
	S87.491,248.537,87.491,248.898z"/>
<path style="fill:#334D5C;" d="M87.491,248.898c0,0,12.541,148.377,169.768,148.377c157.23,0,169.06-151.24,169.06-151.24
	S87.491,248.537,87.491,248.898z"/>
<path style="fill:#B4B8B8;" d="M257.257,304.727c-82.537,0-170.259-21.059-170.259-60.088c0-17.396,18.54-33.484,52.204-45.299
	c32.096-11.265,74.023-17.469,118.055-17.469c44.033,0,85.961,6.204,118.06,17.469c33.663,11.814,52.202,27.902,52.202,45.299
	C427.519,283.668,339.795,304.727,257.257,304.727z"/>
<path style="fill:#1E2D36;" d="M421.308,244.639c0,29.756-73.445,53.877-164.051,53.877c-90.6,0-164.047-24.121-164.047-53.877
	c0-29.757,73.447-56.556,164.047-56.556C347.862,188.083,421.308,214.882,421.308,244.639z"/>
<path style="fill:#406073;" d="M257.257,298.516c32.598,0,62.946-3.134,88.481-8.52c-7.815-14.992-44.792-27.371-89.261-27.371
	c-44.173,0-80.965,12.217-89.109,27.075C193.191,295.269,224.061,298.516,257.257,298.516z"/>
<path style="fill:#B4B8B8;" d="M242.478,182.11c-5.098,0.162-10.154,0.407-15.158,0.735c-20.58,10.44-41.16,20.881-61.74,31.322
	c-25.692,13.035-51.385,26.07-77.078,39.105c0.679,1.912,1.587,3.772,2.7,5.584c25.838-13.108,51.676-26.217,77.514-39.325
	C193.302,207.059,217.89,194.584,242.478,182.11z"/>
<path style="fill:#B4B8B8;" d="M309.045,184.83c-3.753-0.44-7.55-0.834-11.384-1.178c-29.016,14.72-58.031,29.439-87.047,44.16
	c-32.642,16.561-65.283,33.121-97.926,49.683c2.162,1.203,4.436,2.368,6.82,3.493c31.414-15.937,62.827-31.873,94.241-47.811
	C245.515,217.062,277.28,200.946,309.045,184.83z"/>
<path style="fill:#B4B8B8;" d="M361.163,194.883c-2.943-0.832-5.946-1.628-9.01-2.384c-32.168,16.319-64.335,32.64-96.504,48.959
	c-33.852,17.176-67.705,34.351-101.559,51.525c3.043,0.779,6.152,1.521,9.323,2.224c31.791-16.128,63.581-32.256,95.371-48.385
	C292.911,229.51,327.038,212.196,361.163,194.883z"/>
<path style="fill:#B4B8B8;" d="M401.333,210.996c-2.1-1.219-4.316-2.412-6.656-3.577c-31.33,15.895-62.661,31.79-93.991,47.685
	c-30.955,15.705-61.91,31.41-92.865,47.115c3.853,0.395,7.735,0.744,11.64,1.047c28.12-14.266,56.24-28.531,84.36-42.797
	C336.324,243.977,368.829,227.486,401.333,210.996z"/>
<path style="fill:#B4B8B8;" d="M345.721,268.749c-23.413,11.878-46.825,23.757-70.238,35.636c5.112-0.19,10.218-0.46,15.296-0.809
	c19.359-9.82,38.719-19.642,58.077-29.463c25.595-12.985,51.19-25.971,76.784-38.957c-0.742-1.854-1.71-3.685-2.883-5.49
	C397.078,242.693,371.399,255.722,345.721,268.749z"/>
<path style="fill:none;" d="M421.308,244.639c0,29.756-73.445,53.877-164.051,53.877c-90.6,0-164.047-24.121-164.047-53.877
	c0-29.757,73.447-56.556,164.047-56.556C347.862,188.083,421.308,214.882,421.308,244.639z"/>
<path style="fill:#1F2F38;" d="M403.099,291.5c0,4.566,3.717,8.5,8.283,8.5h0.436c2.47-5,4.528-10,6.241-17h-6.678
	C406.815,283,403.099,286.934,403.099,291.5z"/>
<path style="fill:#1F2F38;" d="M405.17,305c-4.567,0-8.282,3.232-8.282,7.801c0,3.361,2.021,6.49,4.906,7.787
	c3.096-5.323,5.822-10.588,8.197-15.588H405.17z"/>
<path style="fill:#B4B8B8;" d="M435.001,292.858c0,2.287-1.854,4.142-4.14,4.142h-20.721c-2.286,0-4.14-1.854-4.14-4.142v-0.717
	c0-2.287,1.853-4.142,4.14-4.142h20.721c2.286,0,4.14,1.854,4.14,4.142V292.858z"/>
<path style="fill:#B4B8B8;" d="M437.001,313.86c0,2.286-1.854,4.14-4.14,4.14h-27.721c-2.286,0-4.14-1.853-4.14-4.14v-0.721
	c0-2.286,1.853-4.14,4.14-4.14h27.721c2.286,0,4.14,1.853,4.14,4.14V313.86z"/>
<path style="fill:#334D5C;" d="M449.898,279.189c1.136,0,2.481-3.727,2.481-8.282c0-4.555-5.85-8.281-13.252-8.281
	c-7.402,0-13.355,3.727-13.355,8.281c0,4.556,0.975,8.282,2.115,8.282c1.137,0,2.113,9.318,2.113,20.706v2.07
	c0,11.389-0.924,20.707-2.062,20.707s-2.066,3.727-2.066,8.281c0,4.555,6.057,8.281,13.459,8.281c7.404,0,13.46-3.727,13.46-8.281
	c0-4.555-1.755-8.281-2.895-8.281c-1.137,0-2.895-9.318-2.895-20.707v-2.07C447.001,288.507,448.759,279.189,449.898,279.189z"/>
<path style="fill:#2C424F;" d="M434.158,330.953c0-4.555,0.282-8.281,1.421-8.281c1.139,0,1.422-9.318,1.422-20.707v-2.07
	c0-11.388-0.283-20.706-1.422-20.706c-1.139,0-1.746-3.727-1.746-8.282c0-3.666,4.088-6.791,9.478-7.875
	c-1.305-0.262-2.614-0.406-4.059-0.406c-7.402,0-13.419,3.727-13.419,8.281c0,4.556,0.945,8.282,2.084,8.282
	s2.083,9.318,2.083,20.706v2.07c0,11.389-0.924,20.707-2.062,20.707s-2.066,3.727-2.066,8.281c0,4.555,6.057,8.281,13.459,8.281
	c1.443,0,2.835-0.145,4.142-0.408C438.083,337.745,434.158,334.618,434.158,330.953z"/>
<path style="fill:#1F2F38;" d="M115.288,300.5c0,4.566-3.715,8.5-8.281,8.5h-0.438c-2.468-6-4.526-12-6.24-17h6.679
	C111.573,292,115.288,295.934,115.288,300.5z"/>
<path style="fill:#1F2F38;" d="M113.218,312c4.567,0,8.283,3.873,8.283,8.441c0,3.363-2.023,6.169-4.906,7.467
	c-3.097-5.325-5.823-10.908-8.198-15.908H113.218z"/>
<path style="fill:#B4B8B8;" d="M111.001,301.14c0-2.286-1.854-4.14-4.14-4.14H86.141c-2.286,0-4.14,1.853-4.14,4.14v0.721
	c0,2.286,1.854,4.14,4.14,4.14h20.721c2.286,0,4.14-1.853,4.14-4.14V301.14z"/>
<path style="fill:#B4B8B8;" d="M118.001,320.707c0-2.287-1.42-3.707-3.705-3.707H86.573c-2.285,0-4.572,1.42-4.572,3.707v0.717
	c0,2.287,2.287,4.576,4.572,4.576h27.723c2.285,0,3.705-2.289,3.705-4.576V320.707z"/>
<path style="fill:#334D5C;" d="M67.298,287.472c-1.139,0-1.887-3.727-1.887-8.283c0-4.556,6.146-8.282,13.549-8.282
	c7.402,0,13.506,3.727,13.506,8.282c0,4.557-1.596,8.283-2.732,8.283c-1.139,0-2.732,9.316-2.732,20.705v2.071
	c0,11.387,1.617,20.705,2.755,20.705c1.139,0,2.413,3.727,2.413,8.281c0,4.557-5.883,8.284-13.287,8.284
	c-7.402,0-13.373-3.728-13.373-8.284c0-4.555,0.608-8.281,1.746-8.281c1.138,0,1.746-9.318,1.746-20.705v-2.071
	C69.001,296.788,68.437,287.472,67.298,287.472z"/>
<path style="fill:#2C424F;" d="M84.229,339.234c0-4.555-1.475-8.281-2.613-8.281c-1.139,0-2.615-9.318-2.615-20.705v-2.071
	c0-11.389,1.477-20.705,2.615-20.705c1.139,0,2.343-3.727,2.343-8.283c0-3.665-3.792-6.792-9.183-7.874
	c1.307-0.263,2.766-0.408,4.209-0.408c7.404,0,13.494,3.727,13.494,8.282c0,4.557-1.603,8.283-2.74,8.283
	c-1.139,0-2.738,9.316-2.738,20.705v2.071c0,11.387,1.617,20.705,2.755,20.705c1.139,0,2.413,3.727,2.413,8.281
	c0,4.557-5.883,8.284-13.287,8.284c-1.443,0-2.749-0.147-4.056-0.409C80.218,346.028,84.229,342.901,84.229,339.234z"/>
<path style="fill:#874A25;" d="M288.21,230.562l-9.222-0.232c-4.263-1.896-9.724-3.111-15.833-3.338
	c-0.824-0.03-1.637,0.008-2.447,0.008h-0.003c0,0-0.036,0.029-0.101,0.031c-0.17,0-0.342,0.024-0.513,0.027
	c-3.634,0.033-22.882-1.336-43.729-11.53c-0.939-0.521-1.926-0.528-2.945-2.528c-0.002,0-0.004,0-0.006,0
	c-0.789,0-1.569,0.266-2.343-0.008c-7.764-3.244-17.427-4.851-28.087-5.304c-22.619-0.967-42.583,6.261-50.109,16.79l-3.17-0.037
	l0.069,7.93c-0.001,0.02-0.904,0.064-0.908,0.083c-0.107,1.043-0.862,2.093-0.862,3.109V234h1.692
	c1.524,13,20.561,24.109,43.872,25.6c0,0,72.22,2.471,99.984-6.939l0.004,0.213c8.027-2.191,13.816-6.496,14.568-11.434
	c0.064-0.43,0.086-1.439,0.072-1.439h0.008L288.21,230.562z M178.972,215.953c3.949,0.16,7.073,1.722,7.727,3.67
	c0.037,0.107,0.055,0.215,0.078,0.324c0.043,0.23,0.08,0.461,0.052,0.697c-0.034,0.289-0.13,0.566-0.263,0.834
	c-0.011,0.017-0.014,0.033-0.023,0.05c-0.131,0.245-0.311,0.476-0.514,0.696c-0.037,0.042-0.07,0.086-0.109,0.127
	c-0.192,0.193-0.421,0.373-0.664,0.547c-0.1,0.071-0.2,0.143-0.307,0.211c-0.221,0.137-0.892,0.266-1.142,0.389
	c-0.124,0.061,0.194,0.122-0.806,0.18v0.002c-1,0.695-3.251,1.086-5.496,0.998c-4.611-0.176-7.923-2.284-7.643-4.693
	C170.143,217.573,174.349,215.767,178.972,215.953z"/>
<path style="fill:#9E572B;" d="M129.763,222.775c-1.456,14.093,18.686,26.26,43.857,27.868c0,0,72.191,2.057,99.957-7.355
	l-0.011,0.009c8.028-2.191,13.81-6.34,14.562-11.278c1.154-7.575-10.023-14.157-24.973-14.712c-0.824-0.031-1.637-0.033-2.447-0.027
	l-0.003-0.001c0,0-0.036,0.001-0.101,0.003c-0.17,0.002-0.342,0.006-0.513,0.009c-3.634,0.035-22.882-0.306-43.729-10.5
	c-0.939-0.52-1.926-1.02-2.945-1.5c-0.002-0.002-0.004-0.002-0.006-0.002c-0.789-0.421-1.569-0.765-2.343-1.04
	c-7.764-3.246-17.427-5.373-28.087-5.824C155.122,197.23,131.288,208.123,129.763,222.775z M208.075,206.168l0.143,0.059
	l0.146,0.053c0.5,0.179,1.014,0.406,1.527,0.676l0.41,0.243l0.24,0.075c0.828,0.398,1.609,0.8,2.326,1.196l0.207,0.107
	c19.41,9.494,37.833,10.947,44.82,11.137l0.039,0.035l1.385-0.012c0.342,0.002,0.627,0,0.857-0.002l0.606-0.008
	c0.612-0.007,1.33-0.008,2.021,0.017c12.285,0.45,21.508,5.884,20.568,12.118c-0.594,3.934-5.08,7.405-11.994,9.289l-0.363,0.104
	c-25.539,8.642-93.287,6.991-96.957,6.896c-23.09-1.539-40.816-12.834-39.522-25.2c1.396-13.219,23.003-23.097,48.147-22.037
	C192.003,201.302,200.785,203.123,208.075,206.168z"/>
<path style="fill:#E27C3E;" d="M134.535,222.95c-1.294,12.366,16.433,23.661,39.522,25.2c3.67,0.096,71.418,1.746,96.957-6.896
	l0.363-0.104c6.914-1.884,11.4-5.355,11.994-9.289c0.939-6.234-8.283-11.668-20.568-12.118c-0.69-0.024-1.408-0.023-2.021-0.017
	l-0.606,0.008c-0.23,0.002-0.516,0.004-0.857,0.002l-1.385,0.012l-0.039-0.035c-6.987-0.189-25.41-1.643-44.82-11.137l-0.207-0.107
	c-0.717-0.396-1.498-0.798-2.326-1.196l-0.24-0.075l-0.41-0.243c-0.514-0.27-1.027-0.497-1.527-0.676l-0.146-0.053l-0.143-0.059
	c-7.29-3.045-16.072-4.866-25.393-5.255C157.538,199.854,135.932,209.731,134.535,222.95z M191.175,211.031
	c-0.447,3.648-6.493,6.393-13.505,6.129c-7.015-0.267-12.362-3.46-11.94-7.132c0.422-3.672,6.473-6.411,13.512-6.122
	C186.278,204.195,191.622,207.385,191.175,211.031z"/>
<path style="fill:#BA6733;" d="M168.169,201.525L143.13,238.22c1.085,0.804,2.255,1.575,3.512,2.304L173.682,201
	C171.805,201.113,169.965,201.291,168.169,201.525z"/>
<path style="fill:#BA6733;" d="M188.851,206.77l-2.152,3.07c0.111,0.332,0.174,0.672,0.13,1.021
	c-0.149,1.232-1.282,2.301-2.964,3.032l-2.137,3.075l-20.119,29.322c1.437,0.342,2.916,0.645,4.43,0.906l22.36-32.461l2.783-3.977
	l5.667-8.05c-1.486-0.323-3.004-0.608-4.549-0.847L188.851,206.77z"/>
<path style="fill:#BA6733;" d="M189.118,248.337l26.91-38.382c-0.983-0.443-1.965-0.894-2.953-1.379l-0.207-0.107
	c-0.21-0.118-0.439-0.235-0.662-0.352l-28.107,40.193C185.637,248.322,187.316,248.332,189.118,248.337z"/>
<path style="fill:#BA6733;" d="M213.206,248.005l22.303-31.394c-1.406-0.338-2.838-0.71-4.307-1.125l-23.134,32.657
	C209.755,248.105,211.468,248.059,213.206,248.005z"/>
<path style="fill:#BA6733;" d="M238.01,246.675l19.458-26.978c-1.307-0.043-2.949-0.127-4.896-0.293l-19.887,27.669
	C234.472,246.95,236.248,246.82,238.01,246.675z"/>
<path style="fill:#BA6733;" d="M264.526,243.031l13.986-19.093c-1.094-0.691-2.334-1.32-3.725-1.863l-16.156,22.123
	C260.702,243.84,262.673,243.451,264.526,243.031z"/>
<path style="fill:#ECF0F0;" d="M165.73,210.028c-0.422,3.672,4.926,6.865,11.94,7.132c7.012,0.264,13.058-2.48,13.505-6.129
	c0.447-3.646-4.896-6.836-11.934-7.125C172.202,203.617,166.151,206.356,165.73,210.028z M186.828,210.861
	c-0.29,2.4-4.28,4.211-8.892,4.033c-4.611-0.178-8.139-2.285-7.858-4.694c0.28-2.41,4.271-4.219,8.894-4.03
	C183.595,206.358,187.118,208.462,186.828,210.861z"/>
<path style="fill:#BA6733;" d="M330.069,231.837c0.746-0.015,1.496,0.036,2.238,0.095c0.766,0.061,1.529,0.156,2.289,0.267
	c1.008,0.146,4.967,1.099,1.078,0.118c1.113,0.28,2.21,0.639,3.293,1.03c0.664,0.241,1.314,0.521,1.961,0.805
	c0.729,0.321,3.154,1.653,0.033-0.091c1.188,0.664,2.307,1.453,3.383,2.295c0.65,0.506,2.76,2.605,0.193,0.026
	c0.604,0.606,1.15,1.27,1.689,1.938c0.407,0.508,0.774,1.05,1.142,1.592c1.13,1.663-1.323-2.541,0.107,0.234
	c0.763,1.483,1.352,3.061,1.869,4.652c0.712,2.182-0.682-2.629-0.123-0.429c0.195,0.762,0.35,1.536,0.498,2.311
	c0.28,1.448,0.459,2.918,0.597,4.389c0.048,0.505,0.08,1.012,0.112,1.518c0.173,2.711-0.027-2.271,0.006-0.527
	c0.018,1.008-0.003,2.018-0.048,3.026c-0.035,0.841-0.089,1.687-0.195,2.52c-0.771,6.03,3.915,11.622,9.53,12.207
	c5.912,0.614,10.858-3.98,11.627-10.005c1.557-12.2-1.34-25.972-8.679-35.637c-4.731-6.235-11.868-10.623-19.146-12.665
	c-3.636-1.022-7.552-1.96-11.358-1.884c-2.953,0.062-5.402,0.426-7.787,2.475c-2.17,1.871-3.562,4.6-3.84,7.532
	C320.019,225.146,324.265,231.953,330.069,231.837L330.069,231.837z"/>
<path style="fill:#874A25;" d="M338.616,231.723c1.744,0.551,4.186-2.594,5.452-7.023c1.267-4.431,0.878-8.466-0.865-9.015
	c-1.743-0.551-4.185,2.594-5.452,7.022C336.485,227.139,336.872,231.174,338.616,231.723z"/>
<path style="fill:#874A25;" d="M352.741,250.748c0.28,1.889,4.035,2.84,8.387,2.127c4.354-0.713,7.654-2.823,7.372-4.713
	c-0.282-1.889-4.036-2.84-8.388-2.127C355.759,246.75,352.458,248.859,352.741,250.748z"/>
<path style="fill:#874A25;" d="M347.762,236.043c1.113,1.514,4.841,0.449,8.327-2.378c3.486-2.827,5.409-6.343,4.296-7.858
	c-1.113-1.512-4.84-0.447-8.327,2.379C348.573,231.012,346.649,234.529,347.762,236.043z"/>
<path style="fill:#874A25;" d="M320.815,223.201c1.213,0.317,2.439,0.125,3.369-0.658c1.783-1.506,1.793-4.602,0.021-6.918
	c-0.48-0.63-1.048-1.13-1.649-1.505c-1.12,1.603-1.829,3.509-2.019,5.51C320.429,220.788,320.535,222.005,320.815,223.201z"/>
<path style="fill:#874A25;" d="M366.417,268.109c0.164-0.821,0.071-1.549-0.332-2.078c-1.141-1.488-4.291-0.818-7.037,1.498
	c-0.645,0.546-1.206,1.133-1.68,1.73c0.757,0.278,1.545,0.469,2.354,0.554C362.203,270.072,364.512,269.408,366.417,268.109z"/>
<path style="opacity:0.3;fill:#5D5D5D;" d="M362.67,224.172c-4.731-6.235-11.868-10.623-19.146-12.665
	c-3.636-1.022-7.552-1.96-11.358-1.884c-2.051,0.042-3.858,0.232-5.566,1.028c-0.285,0.842-0.477,1.722-0.561,2.62
	c-0.521,5.517,3.727,12.323,9.53,12.207c0.747-0.016,1.495,0.037,2.238,0.095c0.765,0.062,1.528,0.158,2.288,0.267
	c0.477,0.07,1.617,0.32,2.27,0.459c0.705,0.213,1.407,0.441,2.101,0.691c0.665,0.24,1.315,0.52,1.962,0.805
	c0.246,0.106,0.688,0.332,1.041,0.514c0.82,0.52,1.609,1.09,2.377,1.689c0.224,0.176,0.617,0.535,0.938,0.83
	c0.322,0.37,0.637,0.752,0.943,1.135c0.387,0.482,0.736,0.995,1.084,1.509c0.049,0.095,0.102,0.198,0.164,0.318
	c0.727,1.413,1.295,2.913,1.795,4.429c0.172,0.696,0.314,1.399,0.449,2.106c0.28,1.448,0.461,2.917,0.598,4.387
	c0.047,0.505,0.08,1.013,0.113,1.52c0,0.03,0.003,0.054,0.004,0.082c0.002,0.805-0.013,1.611-0.048,2.418
	c-0.034,0.841-0.089,1.685-0.193,2.519c-0.772,6.029,3.913,11.623,9.53,12.207c1.978,0.205,3.847-0.174,5.49-0.995
	c0.301-0.842,0.52-1.73,0.637-2.653C372.905,247.608,370.009,233.837,362.67,224.172z"/>
<g>
</g>
<g>
</g>
<g>
</g>
<g>
</g>
<g>
</g>
<g>
</g>
<g>
</g>
<g>
</g>
<g>
</g>
<g>
</g>
<g>
</g>
<g>
</g>
<g>
</g>
<g>
</g>
<g>
</g>
</svg>
