<?xml version="1.0" encoding="iso-8859-1"?>
<!-- Generator: Adobe Illustrator 17.0.0, SVG Export Plug-In . SVG Version: 6.00 Build 0)  -->
<!DOCTYPE svg PUBLIC "-//W3C//DTD SVG 1.1//EN" "http://www.w3.org/Graphics/SVG/1.1/DTD/svg11.dtd">
<svg version="1.1" id="Layer_1" xmlns="http://www.w3.org/2000/svg" xmlns:xlink="http://www.w3.org/1999/xlink" x="0px" y="0px"
	 width="512px" height="512px" viewBox="0 0 512 512" style="enable-background:new 0 0 512 512;" xml:space="preserve">
<g>
	<circle id="background_22_" style="fill:#ECF0F0;" cx="256" cy="256" r="256"/>
	<rect x="99.435" y="244" style="fill:#36444B;" width="314" height="17"/>
	<rect x="289.435" y="244" style="opacity:0.4;fill:#5D5D5D;" width="30" height="17"/>
	<rect x="110.435" y="295" style="fill:#5B737E;" width="288" height="17"/>
	<rect x="246.435" y="199" style="fill:#5B737E;" width="17" height="200"/>
	<rect x="345.435" y="199" style="fill:#5B737E;" width="17" height="200"/>
	<rect x="190.435" y="244" style="opacity:0.4;fill:#5D5D5D;" width="30" height="17"/>
	<rect x="110.435" y="339" style="fill:#36444B;" width="288" height="17"/>
	<rect x="190.435" y="339" style="opacity:0.4;fill:#5D5D5D;" width="30" height="17"/>
	<rect x="289.435" y="339" style="opacity:0.4;fill:#5D5D5D;" width="30" height="17"/>
	<rect x="147.435" y="199" style="fill:#5B737E;" width="17" height="200"/>
	<rect x="147.435" y="288" style="opacity:0.4;fill:#5D5D5D;" width="17" height="7"/>
	<rect x="147.435" y="312" style="opacity:0.4;fill:#5D5D5D;" width="17" height="7"/>
	<rect x="246.435" y="288" style="opacity:0.4;fill:#5D5D5D;" width="17" height="7"/>
	<rect x="246.435" y="312" style="opacity:0.4;fill:#5D5D5D;" width="17" height="7"/>
	<polygon style="fill:#5B737E;" points="147.626,394 115.2,394 72.533,208 104.96,208 	"/>
	<polygon style="fill:#5B737E;" points="360.96,394 393.387,394 436.054,208 403.626,208 	"/>
	<g>
		<path style="fill:#36444B;" d="M406.435,399.174c0,3.77-3.057,6.826-6.826,6.826H109.261c-3.77,0-6.826-3.057-6.826-6.826v-15.348
			c0-3.77,3.056-6.826,6.826-6.826h290.348c3.77,0,6.826,3.057,6.826,6.826V399.174z"/>
	</g>
	<rect x="197.435" y="199" style="fill:#36444B;" width="17" height="200"/>
	<rect x="345.435" y="288" style="opacity:0.4;fill:#5D5D5D;" width="17" height="7"/>
	<rect x="345.435" y="312" style="opacity:0.4;fill:#5D5D5D;" width="17" height="7"/>
	<rect x="296.435" y="199" style="fill:#36444B;" width="17" height="200"/>
	<rect x="246.435" y="199" style="opacity:0.4;fill:#5D5D5D;" width="17" height="29"/>
	<rect x="345.435" y="199" style="opacity:0.4;fill:#5D5D5D;" width="17" height="29"/>
	<rect x="147.435" y="199" style="opacity:0.4;fill:#5D5D5D;" width="17" height="29"/>
	<polygon style="opacity:0.4;fill:#5D5D5D;" points="104.96,208 72.533,208 77.229,228 109.657,228 	"/>
	<polygon style="opacity:0.4;fill:#5D5D5D;" points="403.626,208 398.931,228 431.356,228 436.054,208 	"/>
	<rect x="197.435" y="199" style="opacity:0.4;fill:#5D5D5D;" width="17" height="29"/>
	<rect x="296.435" y="199" style="opacity:0.4;fill:#5D5D5D;" width="17" height="29"/>
	<path style="fill:#6D8A97;" d="M453.435,211.173c0,3.771-3.057,6.827-6.827,6.827H67.262c-3.77,0-6.827-3.057-6.827-6.827v-15.346
		c0-3.771,3.057-6.827,6.827-6.827h379.346c3.771,0,6.827,3.057,6.827,6.827V211.173z"/>
	<circle style="fill:#5B737E;" cx="254.293" cy="201.62" r="22.186"/>
	<path style="fill:#6D8A97;" d="M177.413,113.215c-7.783-7.783-19.85,4.285-12.068,12.067
		c27.353,27.353,54.305,54.307,82.062,82.062c7.241,7.238,19.308-4.828,12.068-12.069
		C259.476,195.275,204.767,140.568,177.413,113.215z"/>
	<path style="opacity:0.4;fill:#5D5D5D;" d="M237.953,185.42c-2.366,2.366-3.7,5.372-4.01,8.462
		c4.472,4.47,8.955,8.953,13.464,13.463c0.787,0.787,1.633,1.334,2.504,1.695c2.839-0.432,5.568-1.724,7.756-3.908
		c1.928-1.93,3.16-4.285,3.721-6.764c-0.336-1.076-0.949-2.128-1.912-3.093c0,0-5.451-5.448-13.766-13.764
		C242.872,181.941,240.14,183.235,237.953,185.42z"/>
	<circle style="fill:#E27C3E;" cx="255.051" cy="202.517" r="13.938"/>
	<path style="fill:#E27C3E;" d="M181.033,109.595c-2.625-2.627-5.845-4.015-9.313-4.015c-5.461,0-10.801,3.682-12.984,8.955
		c-2.087,5.036-0.971,10.408,2.99,14.366l40.018,40.019l17.584-21.031L181.033,109.595z"/>
</g>
<g>
</g>
<g>
</g>
<g>
</g>
<g>
</g>
<g>
</g>
<g>
</g>
<g>
</g>
<g>
</g>
<g>
</g>
<g>
</g>
<g>
</g>
<g>
</g>
<g>
</g>
<g>
</g>
<g>
</g>
</svg>
