<?xml version="1.0" encoding="iso-8859-1"?>
<!-- Generator: Adobe Illustrator 17.0.0, SVG Export Plug-In . SVG Version: 6.00 Build 0)  -->
<!DOCTYPE svg PUBLIC "-//W3C//DTD SVG 1.1//EN" "http://www.w3.org/Graphics/SVG/1.1/DTD/svg11.dtd">
<svg version="1.1" id="Layer_1" xmlns="http://www.w3.org/2000/svg" xmlns:xlink="http://www.w3.org/1999/xlink" x="0px" y="0px"
	 width="512px" height="512px" viewBox="0 0 512 512" style="enable-background:new 0 0 512 512;" xml:space="preserve">
<path id="bg_31_" style="fill:#E27C3E;" d="M512,256.002C512,397.382,397.387,512,256,512C114.613,512,0,397.382,0,256.002
	C0,114.619,114.613,0,256,0C397.387,0,512,114.619,512,256.002z"/>
<path style="fill:#C16533;" d="M118.07,40.387C102.322,50.48,87.718,62.203,74.581,75.402v299.109h43.489V40.387z"/>
<path style="fill:#C16533;" d="M49.861,407.768h141.545v-55.43H18.812C26.881,372.174,37.329,390.774,49.861,407.768z"/>
<path style="fill:#C16533;" d="M35.98,386.869C80.643,461.787,162.444,512,256,512c93.56,0,175.354-50.213,220.014-125.131H35.98z"
	/>
<path style="fill:#FFFFFF;" d="M146.675,159.77c-10.782-3.781-15.676-6.447-13.992-14.533c1.271-6.113,12.244-11.583,30.312-15.617
	l-3.058-6.082c-17.654,4.147-31.651,10.524-33.696,20.362c-3.037,14.608,9.781,19.102,18.255,22.076
	c7.748,2.711,10.413,4.151,9.954,6.794c-1.399,7.985-4.064,20.87-4.091,20.997c-0.366,1.781,0.771,3.52,2.552,3.889
	c0.22,0.045,0.446,0.066,0.667,0.066c1.524,0,2.897-1.069,3.216-2.618c0.026-0.134,2.718-13.119,4.133-21.203
	C162.429,165.299,153.696,162.228,146.675,159.77z"/>
<path d="M316.211,314.619c0-40.553,32.875-73.428,73.425-73.428c40.557,0,73.431,32.875,73.431,73.428
	c0,40.551-32.875,73.425-73.431,73.425C349.086,388.044,316.211,355.17,316.211,314.619z"/>
<path d="M53.185,314.619c0-40.553,32.874-73.428,73.431-73.428c40.551,0,73.425,32.875,73.425,73.428
	c0,40.551-32.874,73.425-73.425,73.425C86.059,388.044,53.185,355.17,53.185,314.619z"/>
<path style="fill:#FFFFFF;" d="M61.286,314.619c0-36.078,29.248-65.326,65.33-65.326c36.079,0,65.324,29.248,65.324,65.326
	c0,36.078-29.245,65.323-65.324,65.323C90.534,379.942,61.286,350.697,61.286,314.619z"/>
<path style="fill:#FFFFFF;" d="M324.498,314.619c0-36.078,29.245-65.326,65.326-65.326c36.082,0,65.327,29.248,65.327,65.326
	c0,36.078-29.245,65.323-65.327,65.323C353.743,379.942,324.498,350.697,324.498,314.619z"/>
<path style="fill:#FFFFFF;" d="M321.279,201.805c-0.357,0-0.718-0.057-1.072-0.182c-1.715-0.588-2.626-2.459-2.036-4.179
	l10.48-30.413c0.59-1.715,2.457-2.622,4.181-2.033c1.715,0.589,2.626,2.462,2.033,4.18l-10.478,30.412
	C323.917,200.951,322.646,201.805,321.279,201.805z"/>
<path style="fill:#5B5B5B;" d="M107.804,314.619c0-10.385,8.421-18.812,18.812-18.812c10.385,0,18.806,8.427,18.806,18.812
	c0,10.387-8.421,18.807-18.806,18.807C116.225,333.426,107.804,325.006,107.804,314.619z"/>
<path style="fill:#3A3A3A;" d="M115.611,314.619c0-6.076,4.928-10.998,11.005-10.998c6.071,0,10.999,4.922,10.999,10.998
	c0,6.074-4.928,10.999-10.999,10.999C120.539,325.619,115.611,320.693,115.611,314.619z"/>
<path style="fill:#5B5B5B;" d="M370.071,314.619c0-10.805,8.763-19.57,19.565-19.57c10.809,0,19.571,8.766,19.571,19.57
	c0,10.806-8.763,19.568-19.571,19.568C378.834,334.187,370.071,325.425,370.071,314.619z"/>
<path style="fill:#3A3A3A;" d="M378.23,314.619c0-6.303,5.106-11.412,11.407-11.412c6.307,0,11.413,5.109,11.413,11.412
	c0,6.301-5.106,11.413-11.413,11.413C383.336,326.032,378.23,320.92,378.23,314.619z"/>
<path style="fill:#366F9E;" d="M126.616,319.55c-0.351,0-0.708-0.036-1.066-0.113c-2.662-0.589-4.341-3.222-3.752-5.88
	l28.218-127.814c0.59-2.657,3.219-4.351,5.878-3.753c2.662,0.584,4.344,3.219,3.755,5.877l-28.221,127.814
	C130.921,317.984,128.879,319.55,126.616,319.55z"/>
<path style="fill:#366F9E;" d="M392.441,319.55c-0.012,0-0.039,0.003-0.062,0H278.266c-1.03,0-2.037-0.322-2.874-0.92
	l-130.418-93.294c-1.742-1.247-2.477-3.478-1.825-5.518c0.652-2.038,2.552-3.424,4.696-3.424h165.626
	c1.45,0,2.826,0.641,3.763,1.746l78.481,92.788c1.019,0.908,1.658,2.221,1.658,3.691C397.375,317.341,395.166,319.55,392.441,319.55
	z M279.847,309.685h101.899l-70.564-83.425H163.215L279.847,309.685z"/>
<path style="fill:#366F9E;" d="M278.266,319.55c-0.575,0-1.155-0.101-1.724-0.31c-2.549-0.949-3.852-3.796-2.897-6.342
	l44.523-119.457c0.949-2.552,3.793-3.856,6.342-2.901c2.552,0.95,3.85,3.794,2.897,6.342l-44.522,119.455
	C282.146,318.323,280.264,319.55,278.266,319.55z"/>
<path style="fill:#FFFFFF;" d="M278.266,290.466c-13.339,0-24.154,10.815-24.154,24.153c0,13.336,10.814,24.15,24.154,24.15
	c13.336,0,24.151-10.814,24.151-24.15C302.417,301.28,291.603,290.466,278.266,290.466z M278.266,334.687
	c-11.085,0-20.075-8.986-20.075-20.068c0-11.084,8.989-20.074,20.075-20.074c11.082,0,20.068,8.989,20.068,20.074
	C298.335,325.701,289.349,334.687,278.266,334.687z"/>
<path style="fill:#FFFFFF;" d="M253.663,348.879c-0.53,0-1.066-0.169-1.519-0.531c-1.072-0.839-1.26-2.386-0.417-3.459
	l25.836-32.926c0.831-1.071,2.379-1.267,3.46-0.419c1.072,0.843,1.256,2.392,0.417,3.462l-25.836,32.926
	C255.122,348.551,254.395,348.879,253.663,348.879z"/>
<path d="M267.717,347.637c0,3.856-3.129,6.985-6.985,6.985h-15.894c-3.857,0-6.985-3.129-6.985-6.985l0,0
	c0-3.861,3.129-6.988,6.985-6.988h15.894C264.587,340.648,267.717,343.776,267.717,347.637L267.717,347.637z"/>
<path d="M157.567,132.236c-2.465,0.152-4.705-1.56-5.151-4.043c-0.485-2.679,1.292-5.247,3.972-5.732
	c1.066-0.197,25.961-4.705,28.352-5.056c2.638-0.417,5.21,1.447,5.61,4.142c0.401,2.696-1.459,5.208-4.151,5.607
	c-1.858,0.279-20.884,3.71-28.054,5.01C157.954,132.203,157.751,132.225,157.567,132.236z"/>
<path d="M291.245,170.484c0,3.582,36.29,6.504,50.736,6.504c14.45,0,7.003-18.693,3.972-21.726
	c-3.034-3.036-18.747,0.162-28.066,2.128C309.706,159.114,291.245,162.428,291.245,170.484z"/>
<g>
</g>
<g>
</g>
<g>
</g>
<g>
</g>
<g>
</g>
<g>
</g>
<g>
</g>
<g>
</g>
<g>
</g>
<g>
</g>
<g>
</g>
<g>
</g>
<g>
</g>
<g>
</g>
<g>
</g>
</svg>
