<?xml version="1.0" encoding="iso-8859-1"?>
<!-- Generator: Adobe Illustrator 17.0.0, SVG Export Plug-In . SVG Version: 6.00 Build 0)  -->
<!DOCTYPE svg PUBLIC "-//W3C//DTD SVG 1.1//EN" "http://www.w3.org/Graphics/SVG/1.1/DTD/svg11.dtd">
<svg version="1.1" id="Layer_1" xmlns="http://www.w3.org/2000/svg" xmlns:xlink="http://www.w3.org/1999/xlink" x="0px" y="0px"
	 width="512px" height="512px" viewBox="0 0 512 512" style="enable-background:new 0 0 512 512;" xml:space="preserve">
<path id="bg_23_" style="fill:#334D5C;" d="M512,256.002C512,397.382,397.387,512,256.005,512C114.614,512,0,397.382,0,256.002
	S114.614,0,256.005,0C397.387,0,512,114.622,512,256.002z"/>
<path style="fill:#EFC84A;" d="M49.377,262.675c0,4.249,3.447,7.696,7.696,7.696l0,0c4.252,0,7.7-3.447,7.7-7.696v-24.189
	c0-4.252-3.448-7.7-7.7-7.7l0,0c-4.249,0-7.696,3.448-7.696,7.7V262.675z"/>
<path style="fill:#D7B441;" d="M58.935,231.036c-0.036,0.282-0.09,0.56-0.09,0.849v37.388c0,0.289,0.054,0.565,0.09,0.846
	c3.347-0.833,5.839-3.838,5.839-7.443v-24.189C64.773,234.877,62.281,231.873,58.935,231.036z"/>
<path style="fill:#EFC84A;" d="M61.578,269.272c0,4.249,3.451,7.697,7.697,7.697l0,0c4.252,0,7.697-3.448,7.697-7.697v-37.388
	c0-4.249-3.445-7.697-7.697-7.697l0,0c-4.246,0-7.697,3.448-7.697,7.697V269.272z"/>
<path style="fill:#D7B441;" d="M70.731,224.334c-0.039,0.315-0.096,0.631-0.096,0.955v50.582c0,0.327,0.057,0.637,0.096,0.953
	c3.555-0.683,6.241-3.8,6.241-7.552v-37.388C76.973,228.136,74.286,225.019,70.731,224.334z"/>
<path style="fill:#EFC84A;" d="M73.141,275.871c0,4.252,3.447,7.699,7.696,7.699l0,0c4.252,0,7.7-3.447,7.7-7.699v-50.582
	c0-4.252-3.448-7.696-7.7-7.696l0,0c-4.249,0-7.696,3.444-7.696,7.696V275.871z"/>
<path style="fill:#D7B441;" d="M80.555,269.162c0,4.934,0.845,9.665,2.337,14.093c3.248-0.905,5.646-3.85,5.646-7.384v-50.582
	c0-3.537-2.4-6.482-5.646-7.384c-1.492,4.427-2.337,9.152-2.337,14.086V269.162z"/>
<path style="fill:#EFC84A;" d="M195.561,382.87c-4.704,21.685-17.986,40.172-40.172,40.172h-4.229
	c-22.186,0-40.173-17.987-40.173-40.172v-76.793c0-22.184,17.987-40.172,40.173-40.172h4.229c22.186,0,56.239,17.987,56.239,40.172
	C211.628,306.077,199.676,363.897,195.561,382.87z"/>
<path style="fill:#D7B441;" d="M155.389,265.905h-4.229c-22.186,0-40.173,17.987-40.173,40.172v11.282
	c5.143,2.099,10.758,3.278,16.65,3.278h80.977c1.793-8.647,3.014-14.561,3.014-14.561
	C211.628,283.893,177.574,265.905,155.389,265.905z"/>
<path style="fill:#EFC84A;" d="M120.968,197.146c0,0-29.603-38.101-20.224-46.693c17.651-16.168,106.989,45.591,106.989,45.591
	L120.968,197.146z"/>
<path style="fill:#D7B441;" d="M111.935,184.388c4.772,7.276,9.033,12.759,9.033,12.759l86.766-1.103c0,0-9.308-6.428-22.477-14.583
	h-57.618C122.1,181.461,116.82,182.526,111.935,184.388z"/>
<rect x="287.149" y="239.263" style="fill:#AF8C2B;" width="84.189" height="22.635"/>
<path style="fill:#EFC84A;" d="M314.433,269.162c0,24.368-19.753,44.121-44.118,44.121H127.638
	c-24.365,0-44.118-19.753-44.118-44.121v-37.171c0-24.364,19.753-44.117,44.118-44.117h142.677
	c24.365,0,44.118,19.753,44.118,44.117V269.162z"/>
<path style="fill:#EFC84A;" d="M314.433,269.162c0,24.368-19.753,44.121-44.118,44.121H127.638
	c-24.365,0-44.118-19.753-44.118-44.121v-37.171c0-24.364,19.753-44.117,44.118-44.117h142.677
	c24.365,0,44.118,19.753,44.118,44.117V269.162z"/>
<path style="fill:#EFC84A;" d="M314.433,269.162c0,24.368-19.753,44.121-44.118,44.121H127.638
	c-24.365,0-44.118-19.753-44.118-44.121v-37.171c0-24.364,19.753-44.117,44.118-44.117h142.677
	c24.365,0,44.118,19.753,44.118,44.117V269.162z"/>
<path style="fill:#D7B441;" d="M270.315,295.495H127.638c-24.365,0-44.118-19.753-44.118-44.12v17.787
	c0,24.368,19.753,44.121,44.118,44.121h142.677c24.365,0,44.118-19.753,44.118-44.121v-17.787
	C314.433,275.742,294.68,295.495,270.315,295.495z"/>
<path style="fill:#E45136;" d="M331.253,284.404c0,5.684-4.612,10.293-10.297,10.293l0,0c-5.684,0-10.293-4.609-10.293-10.293
	v-67.648c0-5.684,4.609-10.296,10.293-10.296l0,0c5.685,0,10.297,4.612,10.297,10.296V284.404z"/>
<path style="fill:#E45136;" d="M354.912,275.582c0,5.681-4.609,10.293-10.293,10.293l0,0c-5.688,0-10.297-4.612-10.297-10.293
	v-50.001c0-5.687,4.609-10.296,10.297-10.296l0,0c5.684,0,10.293,4.609,10.293,10.296V275.582z"/>
<path style="fill:#E45136;" d="M378.461,266.757c0,5.684-4.609,10.293-10.293,10.293l0,0c-5.684,0-10.297-4.609-10.297-10.293
	v-32.354c0-5.687,4.613-10.296,10.297-10.296l0,0c5.684,0,10.293,4.609,10.293,10.296V266.757z"/>
<path style="fill:#EFA78E;" d="M364.446,263.339c0,0.92-0.751,1.67-1.674,1.67l0,0c-0.92,0-1.673-0.75-1.673-1.67v-25.518
	c0-0.923,0.753-1.673,1.673-1.673l0,0c0.923,0,1.674,0.75,1.674,1.673V263.339z"/>
<path style="fill:#EFA78E;" d="M339.572,267.751c0,0.923-0.751,1.671-1.674,1.671l0,0c-0.92,0-1.67-0.748-1.67-1.671v-34.342
	c0-0.921,0.75-1.674,1.67-1.674l0,0c0.923,0,1.674,0.753,1.674,1.674V267.751z"/>
<path style="fill:#EFA78E;" d="M315.305,272.161c0,0.923-0.75,1.67-1.67,1.67l0,0c-0.923,0-1.674-0.747-1.674-1.67v-43.165
	c0-0.92,0.751-1.67,1.674-1.67l0,0c0.92,0,1.67,0.75,1.67,1.67V272.161z"/>
<path style="fill:#E45136;" d="M370.836,273.218v-45.213c0,0,30.88,12.646,30.969,22.164
	C401.897,259.819,370.836,273.218,370.836,273.218z"/>
<path style="fill:#D7B441;" d="M111.291,246.808c-10.71,16.773-5.797,39.05,10.973,49.757c16.771,10.71,39.053,5.794,49.76-10.973
	c10.711-16.774,5.797-39.053-10.975-49.762C144.282,225.119,121.998,230.038,111.291,246.808z"/>
<path style="fill:#45B39C;" d="M148.885,335.316c0,7.14,5.792,12.934,12.935,12.934h41.048c1.915-9.173,3.83-18.395,5.384-25.868
	h-46.432C154.677,322.382,148.885,328.174,148.885,335.316z"/>
<path style="fill:#45B39C;" d="M148.885,366.3c0,7.144,5.792,12.935,12.935,12.935h34.524c1.424-6.637,3.395-16.02,5.452-25.868
	h-39.977C154.677,353.366,148.885,359.16,148.885,366.3z"/>
<path style="fill:#45B39C;" d="M148.885,397.287c0,7.14,5.792,12.934,12.935,12.934h20.936c5.973-6.901,10.108-16.007,12.442-25.868
	h-33.378C154.677,384.353,148.885,390.144,148.885,397.287z"/>
<path style="fill:#45B39C;" d="M427.206,282.931c-3.392,0-6.333-2.528-6.759-5.985c-0.468-3.739,2.191-7.143,5.928-7.607
	c9.645-1.193,16.916-9.436,16.916-19.169c0-9.447-6.741-17.454-16.031-19.035c-3.716-0.634-6.214-4.159-5.58-7.872
	c0.632-3.713,4.172-6.208,7.87-5.58c15.87,2.707,27.384,16.37,27.384,32.487c0,16.608-12.413,30.668-28.879,32.708
	C427.77,282.912,427.486,282.931,427.206,282.931z"/>
<path style="fill:#45B39C;" d="M439.846,302.156c-2.814,0-5.449-1.76-6.435-4.565c-1.25-3.553,0.62-7.447,4.175-8.697
	c16.403-5.762,27.426-21.328,27.426-38.726c0-16.933-10.633-32.354-26.458-38.374c-3.52-1.337-5.291-5.279-3.951-8.798
	c1.343-3.525,5.276-5.291,8.802-3.951c21.086,8.019,35.251,28.562,35.251,51.123c0,23.18-14.686,43.915-36.546,51.597
	C441.358,302.028,440.596,302.156,439.846,302.156z"/>
<path style="fill:#45B39C;" d="M107.879,242.83c-10.71,16.771-5.795,39.049,10.973,49.756c16.771,10.713,39.053,5.798,49.763-10.972
	c10.707-16.775,5.794-39.053-10.976-49.763C140.87,221.142,118.589,226.061,107.879,242.83z"/>
<path style="fill:#FFFFFF;" d="M124.362,253.355c-4.896,7.666-2.647,17.853,5.021,22.75c7.664,4.892,17.854,2.65,22.748-5.017
	c4.898-7.67,2.646-17.856-5.023-22.751C139.446,243.443,129.258,245.688,124.362,253.355z"/>
<path style="fill:#FFFFFF;" d="M164.689,279.215c-1.941,3.04-5.973,3.93-9.013,1.988l-42.76-27.303
	c-3.04-1.939-3.928-5.977-1.986-9.014l0,0c1.938-3.039,5.975-3.93,9.01-1.988l42.764,27.303
	C165.744,272.143,166.631,276.178,164.689,279.215L164.689,279.215z"/>
<g>
</g>
<g>
</g>
<g>
</g>
<g>
</g>
<g>
</g>
<g>
</g>
<g>
</g>
<g>
</g>
<g>
</g>
<g>
</g>
<g>
</g>
<g>
</g>
<g>
</g>
<g>
</g>
<g>
</g>
</svg>
