<?xml version="1.0" encoding="iso-8859-1"?>
<!-- Generator: Adobe Illustrator 17.0.0, SVG Export Plug-In . SVG Version: 6.00 Build 0)  -->
<!DOCTYPE svg PUBLIC "-//W3C//DTD SVG 1.1//EN" "http://www.w3.org/Graphics/SVG/1.1/DTD/svg11.dtd">
<svg version="1.1" id="Layer_1" xmlns="http://www.w3.org/2000/svg" xmlns:xlink="http://www.w3.org/1999/xlink" x="0px" y="0px"
	 width="512px" height="512px" viewBox="0 0 512 512" style="enable-background:new 0 0 512 512;" xml:space="preserve">
<circle style="fill:#EFC84A;" cx="256" cy="256" r="256"/>
<path style="fill:#B56332;" d="M380.227,94H138.255c-9.963,0-18.113,9.191-18.113,21c0,11.809,8.15,21,18.113,21H364v50h27v-70.958
	C391,103.234,390.189,94,380.227,94z"/>
<path style="fill:#ECF0F0;" d="M379.782,102H138.255c-6.658,0-12.076,5.608-12.076,13.5s5.418,13.5,12.076,13.5H372v7h1.745
	c9.963,0,17.255,10.172,17.255,21.98V113.61C391,106.387,386.035,102,379.782,102z"/>
<path style="fill:#ECF0F0;" d="M379.782,102H138.255c-6.658,0-12.076,5.608-12.076,13.5s5.418,13.5,12.076,13.5H372v7h1.745
	c9.963,0,17.255,10.172,17.255,21.98V113.61C391,106.387,386.035,102,379.782,102z"/>
<path style="fill:#C1C4C4;" d="M379.782,106H138.255c-6.658,0-12.076,5.606-12.076,13.5c0,7.892,5.418,13.5,12.076,13.5H372v8h1.745
	c9.963,0,17.255,8.75,17.255,20.559v-44.37C391,109.967,386.035,106,379.782,106z"/>
<path style="fill:#ECF0F0;" d="M379.782,109H138.255c-6.658,0-12.076,5.606-12.076,13.499c0,7.894,5.418,13.501,12.076,13.501H372v9
	h1.745c9.963,0,17.255,8.328,17.255,20.137v-44.37C391,113.545,386.035,109,379.782,109z"/>
<path style="fill:#C1C4C4;" d="M379.782,112H138.255c-6.658,0-12.076,6.607-12.076,14.5c0,7.893,5.418,14.5,12.076,14.5H372v7h1.745
	c9.963,0,17.255,8.907,17.255,20.715v-44.37C391,117.122,386.035,112,379.782,112z"/>
<path style="fill:#ECF0F0;" d="M379.782,116H138.255c-6.658,0-12.076,6.608-12.076,14.5s5.418,14.5,12.076,14.5H372v7h1.745
	c9.963,0,17.255,8.486,17.255,20.293v-44.37C391,120.7,386.035,116,379.782,116z"/>
<path style="fill:#C1C4C4;" d="M379.782,119H138.255c-6.658,0-12.076,6.607-12.076,14.5c0,7.892,5.418,14.5,12.076,14.5H372v7h1.745
	c9.963,0,17.255,9.064,17.255,20.87v-44.368C391,124.278,386.035,119,379.782,119z"/>
<path style="fill:#ECF0F0;" d="M379.782,123H138.255c-6.658,0-12.076,6.608-12.076,14.501c0,7.893,5.418,14.499,12.076,14.499H372v6
	h1.745c9.963,0,17.255,9.64,17.255,21.451V135.08C391,127.856,386.035,123,379.782,123z"/>
<path style="fill:#ECF0F0;" d="M379.782,126H138.255c-6.658,0-12.076,6.608-12.076,14.5s5.418,14.5,12.076,14.5H372v7h1.745
	c9.963,0,17.255,9.22,17.255,21.028v-44.37C391,131.435,386.035,126,379.782,126z"/>
<path style="fill:#ECF0F0;" d="M379.782,124H138.255c-6.658,0-12.076,6.108-12.076,14s5.418,14,12.076,14H372v6h1.745
	c9.963,0,17.255,10.356,17.255,22.165v-44.37C391,128.571,386.035,124,379.782,124z"/>
<path style="fill:#C1C4C4;" d="M379.782,128H138.255c-6.658,0-12.076,5.606-12.076,13.499c0,7.894,5.418,13.501,12.076,13.501H372v9
	h1.745c9.963,0,17.255,7.935,17.255,19.743v-44.37C391,132.15,386.035,128,379.782,128z"/>
<path style="fill:#B56332;" d="M120,115.042v21.47v42.939v217.507c0,11.809,8,21.469,19,21.469V135.512
	C128,135.512,120,126.85,120,115.042z"/>
<path style="fill:#E27C3E;" d="M373.745,136H145v284h228.745c9.963,0,17.255-11.233,17.255-23.042V157.98
	C391,146.172,383.708,136,373.745,136z"/>
<rect x="139" y="136" style="fill:#C96E38;" width="6" height="284"/>
<rect x="164" y="203" style="fill:#A85C2E;" width="195" height="60"/>
<rect x="164" y="281" style="fill:#BF6934;" width="132" height="9"/>
<rect x="164" y="309" style="fill:#BF6934;" width="171" height="15"/>
<path style="fill:#FF8C46;" d="M373.142,129c-13.686,0-24.911,0-24.911,0H138.255c-6.658,0-12.076-6.044-12.076-13.934
	c0-1.146,0.118-1.066,0.333-3.066h-6.144c-0.148,2-0.227,2.073-0.227,3.223c0,0.353,0.007,0.619,0.023,0.972
	c0.004,0.118,0.014,0.194,0.02,0.314c0.014,0.229,0.027,0.439,0.045,0.668c0.012,0.143,0.029,0.274,0.042,0.418
	c0.022,0.201,0.042,0.397,0.067,0.598c0.02,0.154,0.043,0.305,0.066,0.46c0.025,0.186,0.052,0.37,0.083,0.551
	c0.026,0.164,0.057,0.32,0.087,0.48c0.033,0.173,0.064,0.345,0.1,0.517c0.037,0.166,0.074,0.33,0.112,0.493
	c0.038,0.161,0.075,0.323,0.114,0.481c0.044,0.17,0.09,0.34,0.137,0.507c0.04,0.151,0.084,0.3,0.127,0.448
	c0.054,0.174,0.106,0.348,0.16,0.519c0.047,0.138,0.092,0.274,0.14,0.411c0.061,0.179,0.122,0.354,0.187,0.529
	c0.047,0.126,0.094,0.251,0.144,0.375c0.07,0.182,0.142,0.363,0.217,0.543c0.047,0.109,0.093,0.217,0.14,0.326
	c0.084,0.19,0.167,0.381,0.256,0.565c0.041,0.088,0.084,0.173,0.125,0.26c0.1,0.203,0.197,0.407,0.303,0.606
	c0.023,0.048,0.05,0.093,0.075,0.14c0.552,1.041,1.177,2.024,1.866,2.938c0.004,0.004,4.724,6.657,13.479,6.657h234.887
	c0,0,17.858,10.172,17.858,21.98v-14.312C391,141.06,386.828,129,373.142,129z"/>
<path style="opacity:0.2;fill:#5D5D5D;" d="M119.963,111.637c-0.084,0.6,0.065,1.205,0.025,1.819
	c-0.002,0.023,0.033,0.113,0.032,0.139c-0.033,0.532-0.021,1.134-0.021,1.676c0,0,0,0.022,0,0.034l0,0v0.014v21.455v42.938V397.22
	c0,11.809,8.292,22.78,18.255,22.78h7.247h228.243c9.963,0,17.255-10.971,17.255-22.78v-14.116L119.963,111.637z"/>
<g>
</g>
<g>
</g>
<g>
</g>
<g>
</g>
<g>
</g>
<g>
</g>
<g>
</g>
<g>
</g>
<g>
</g>
<g>
</g>
<g>
</g>
<g>
</g>
<g>
</g>
<g>
</g>
<g>
</g>
</svg>
