<?xml version="1.0" encoding="iso-8859-1"?>
<!-- Generator: Adobe Illustrator 17.0.0, SVG Export Plug-In . SVG Version: 6.00 Build 0)  -->
<!DOCTYPE svg PUBLIC "-//W3C//DTD SVG 1.1//EN" "http://www.w3.org/Graphics/SVG/1.1/DTD/svg11.dtd">
<svg version="1.1" id="Layer_1" xmlns="http://www.w3.org/2000/svg" xmlns:xlink="http://www.w3.org/1999/xlink" x="0px" y="0px"
	 width="512px" height="512px" viewBox="0 0 512 512" style="enable-background:new 0 0 512 512;" xml:space="preserve">
<pattern  x="-608.565" y="398" width="72" height="72" patternUnits="userSpaceOnUse" id="Grid_1_pica_Lines" viewBox="72.25 -144.25 72 72" style="overflow:visible;">
	<g>
		<polygon style="fill:none;" points="72.25,-144.25 144.25,-144.25 144.25,-72.25 72.25,-72.25 		"/>
		<g>
			<line style="fill:none;stroke:#231F20;stroke-width:0.3;" x1="78.25" y1="-72.5" x2="78.25" y2="0"/>
			<line style="fill:none;stroke:#231F20;stroke-width:0.3;" x1="102.25" y1="-72.5" x2="102.25" y2="0"/>
			<line style="fill:none;stroke:#231F20;stroke-width:0.3;" x1="126.25" y1="-72.5" x2="126.25" y2="0"/>
			<line style="fill:none;stroke:#231F20;stroke-width:0.3;" x1="90.25" y1="-72.5" x2="90.25" y2="0"/>
			<line style="fill:none;stroke:#231F20;stroke-width:0.3;" x1="114.25" y1="-72.5" x2="114.25" y2="0"/>
			<line style="fill:none;stroke:#231F20;stroke-width:0.3;" x1="138.25" y1="-72.5" x2="138.25" y2="0"/>
		</g>
		<g>
			<line style="fill:none;stroke:#231F20;stroke-width:0.3;" x1="144" y1="-78.25" x2="216.5" y2="-78.25"/>
			<line style="fill:none;stroke:#231F20;stroke-width:0.3;" x1="144" y1="-102.25" x2="216.5" y2="-102.25"/>
			<line style="fill:none;stroke:#231F20;stroke-width:0.3;" x1="144" y1="-126.25" x2="216.5" y2="-126.25"/>
			<line style="fill:none;stroke:#231F20;stroke-width:0.3;" x1="144" y1="-90.25" x2="216.5" y2="-90.25"/>
			<line style="fill:none;stroke:#231F20;stroke-width:0.3;" x1="144" y1="-114.25" x2="216.5" y2="-114.25"/>
			<line style="fill:none;stroke:#231F20;stroke-width:0.3;" x1="144" y1="-138.25" x2="216.5" y2="-138.25"/>
		</g>
		<g>
			<line style="fill:none;stroke:#231F20;stroke-width:0.3;" x1="78.25" y1="-144.5" x2="78.25" y2="-72"/>
			<line style="fill:none;stroke:#231F20;stroke-width:0.3;" x1="102.25" y1="-144.5" x2="102.25" y2="-72"/>
			<line style="fill:none;stroke:#231F20;stroke-width:0.3;" x1="126.25" y1="-144.5" x2="126.25" y2="-72"/>
			<line style="fill:none;stroke:#231F20;stroke-width:0.3;" x1="72" y1="-78.25" x2="144.5" y2="-78.25"/>
			<line style="fill:none;stroke:#231F20;stroke-width:0.3;" x1="72" y1="-102.25" x2="144.5" y2="-102.25"/>
			<line style="fill:none;stroke:#231F20;stroke-width:0.3;" x1="72" y1="-126.25" x2="144.5" y2="-126.25"/>
			<line style="fill:none;stroke:#231F20;stroke-width:0.3;" x1="72" y1="-90.25" x2="144.5" y2="-90.25"/>
			<line style="fill:none;stroke:#231F20;stroke-width:0.3;" x1="72" y1="-114.25" x2="144.5" y2="-114.25"/>
			<line style="fill:none;stroke:#231F20;stroke-width:0.3;" x1="72" y1="-138.25" x2="144.5" y2="-138.25"/>
			<line style="fill:none;stroke:#231F20;stroke-width:0.3;" x1="90.25" y1="-144.5" x2="90.25" y2="-72"/>
			<line style="fill:none;stroke:#231F20;stroke-width:0.3;" x1="114.25" y1="-144.5" x2="114.25" y2="-72"/>
			<line style="fill:none;stroke:#231F20;stroke-width:0.3;" x1="138.25" y1="-144.5" x2="138.25" y2="-72"/>
		</g>
		<g>
			<line style="fill:none;stroke:#231F20;stroke-width:0.3;" x1="0" y1="-78.25" x2="72.5" y2="-78.25"/>
			<line style="fill:none;stroke:#231F20;stroke-width:0.3;" x1="0" y1="-102.25" x2="72.5" y2="-102.25"/>
			<line style="fill:none;stroke:#231F20;stroke-width:0.3;" x1="0" y1="-126.25" x2="72.5" y2="-126.25"/>
			<line style="fill:none;stroke:#231F20;stroke-width:0.3;" x1="0" y1="-90.25" x2="72.5" y2="-90.25"/>
			<line style="fill:none;stroke:#231F20;stroke-width:0.3;" x1="0" y1="-114.25" x2="72.5" y2="-114.25"/>
			<line style="fill:none;stroke:#231F20;stroke-width:0.3;" x1="0" y1="-138.25" x2="72.5" y2="-138.25"/>
		</g>
		<g>
			<line style="fill:none;stroke:#231F20;stroke-width:0.3;" x1="78.25" y1="-216.5" x2="78.25" y2="-144"/>
			<line style="fill:none;stroke:#231F20;stroke-width:0.3;" x1="102.25" y1="-216.5" x2="102.25" y2="-144"/>
			<line style="fill:none;stroke:#231F20;stroke-width:0.3;" x1="126.25" y1="-216.5" x2="126.25" y2="-144"/>
			<line style="fill:none;stroke:#231F20;stroke-width:0.3;" x1="90.25" y1="-216.5" x2="90.25" y2="-144"/>
			<line style="fill:none;stroke:#231F20;stroke-width:0.3;" x1="114.25" y1="-216.5" x2="114.25" y2="-144"/>
			<line style="fill:none;stroke:#231F20;stroke-width:0.3;" x1="138.25" y1="-216.5" x2="138.25" y2="-144"/>
		</g>
	</g>
</pattern>
<circle id="background_34_" style="fill:#334D5C;" cx="256" cy="256" r="256"/>
<path style="fill:#EDD074;" d="M221.735,309.09l8.738-5.746l124.223,188.927c1.721-0.72,3.429-1.461,5.13-2.217L235.073,300.319
	l-17.938,11.794l122.28,185.975c1.788-0.615,3.568-1.246,5.339-1.9L221.735,309.09z"/>
<path style="fill:#FFE07D;" d="M221.735,309.09l123.019,187.098c3.348-1.238,6.66-2.545,9.941-3.917L230.474,303.344L221.735,309.09
	z"/>
<rect x="278.879" y="357.668" transform="matrix(0.8356 -0.5494 0.5494 0.8356 -173.6705 225.3334)" style="fill:#D4BA68;" width="21.468" height="90.275"/>
<rect x="276.027" y="363.202" transform="matrix(0.8356 -0.5494 0.5494 0.8356 -173.1528 224.9747)" style="fill:#378F7C;" width="26.422" height="77.065"/>
<rect x="272.672" y="385.786" transform="matrix(0.8356 -0.5494 0.5494 0.8356 -173.5773 225.2336)" style="fill:#E27C3E;" width="33.578" height="33.578"/>
<rect x="219" y="305.13" transform="matrix(0.8356 -0.5494 0.5494 0.8356 -133.4879 177.4715)" style="fill:#D4BA68;" width="21.467" height="13.211"/>
<rect x="210.856" y="294.635" transform="matrix(0.8356 -0.5494 0.5494 0.8356 -129.4094 172.858)" style="fill:#378F7C;" width="26.422" height="15.963"/>
<path style="fill:#378F7C;" d="M110.253,129.939C63.208,160.873,50.1,224.312,81.031,271.355
	c30.933,47.045,94.374,60.154,141.418,29.222c47.046-30.933,60.154-94.374,29.222-141.419
	C220.739,112.115,157.299,99.007,110.253,129.939z M218.232,294.162c-43.579,28.654-102.131,16.556-130.785-27.023
	c-28.652-43.578-16.555-102.13,27.024-130.784c43.579-28.653,102.132-16.556,130.785,27.022
	C273.91,206.956,261.811,265.508,218.232,294.162z"/>
<path style="fill:#ECF0F0;" d="M436.407,128.807c-31.549-30.298-72.466-53.405-115.64-61.801
	c-33.481-6.514-68.306-4.414-100.882,5.549c-29.034,8.877-81.481,38.629-106.443,55.379c0.021-0.006,0.041-0.008,0.061-0.014
	c46.678-28.272,107.941-14.732,138.168,31.238c0.907,1.38,1.768,2.775,2.598,4.18c0.272,0.46,0.524,0.926,0.788,1.389
	c0.544,0.955,1.08,1.91,1.589,2.873c0.294,0.554,0.57,1.111,0.853,1.668c0.448,0.889,0.89,1.779,1.309,2.679
	c0.277,0.587,0.545,1.177,0.809,1.767c0.396,0.888,0.775,1.779,1.145,2.674c0.244,0.592,0.488,1.184,0.721,1.779
	c0.362,0.928,0.7,1.859,1.033,2.793c0.202,0.562,0.411,1.125,0.602,1.69c0.372,1.104,0.711,2.212,1.044,3.321
	c0.118,0.398,0.253,0.791,0.365,1.19c0.42,1.469,0.802,2.941,1.152,4.421c0.142,0.598,0.259,1.201,0.391,1.802
	c0.198,0.911,0.397,1.819,0.569,2.732c0.134,0.708,0.249,1.417,0.368,2.125c0.135,0.81,0.268,1.616,0.382,2.427
	c0.107,0.756,0.204,1.511,0.294,2.267c0.091,0.759,0.174,1.518,0.247,2.276c0.076,0.794,0.148,1.584,0.208,2.377
	c0.051,0.712,0.089,1.426,0.126,2.14c0.045,0.829,0.09,1.661,0.114,2.491c0.018,0.628,0.015,1.256,0.02,1.884
	c0.033,3.398-0.101,6.788-0.403,10.16c-0.035,0.383-0.059,0.766-0.097,1.148c-0.105,1.041-0.239,2.076-0.375,3.11
	c-0.059,0.442-0.113,0.885-0.177,1.327c-0.15,1.035-0.322,2.068-0.503,3.099c-0.073,0.417-0.149,0.835-0.229,1.251
	c-0.2,1.063-0.416,2.125-0.652,3.183c-0.074,0.337-0.154,0.671-0.233,1.007c-0.266,1.139-0.54,2.273-0.844,3.399
	c-0.032,0.124-0.07,0.245-0.104,0.369c-1.812,6.649-4.299,13.12-7.428,19.31c-0.047,0.091-0.091,0.183-0.138,0.272
	c-0.611,1.2-1.247,2.389-1.908,3.565c-0.033,0.064-0.07,0.123-0.102,0.185c-4.162,7.392-9.275,14.312-15.304,20.574
	c-0.012,0.011-0.02,0.022-0.031,0.032c0.865-0.53,1.736-1.047,2.589-1.608c11.166-7.342,39.246-25.85,39.386-25.856
	c1.186,0.231,2.369,0.466,3.547,0.734c2.715,1.269,5.385,2.623,8.012,4.065c4.88,3.877,9.559,7.997,14.073,12.332
	c38.422,36.898,104.001,29.633,137.942-9.012c16.721-19.034,25.436-44.328,24.128-69.612
	C468.145,170.075,455.653,147.289,436.407,128.807z"/>
<path style="fill:#E2E6E6;" d="M268.217,208.955c0.015,0.257,0.032,0.514,0.046,0.772c0.045,0.829,0.09,1.661,0.114,2.491
	c0.018,0.628,0.015,1.256,0.02,1.884c0.033,3.398-0.101,6.788-0.403,10.16c-0.035,0.383-0.059,0.766-0.097,1.148
	c-0.105,1.041-0.239,2.076-0.375,3.11c-0.059,0.442-0.113,0.885-0.177,1.327c-0.15,1.035-0.322,2.068-0.503,3.099
	c-0.073,0.417-0.149,0.835-0.229,1.251c-0.2,1.063-0.416,2.125-0.652,3.183c-0.074,0.337-0.154,0.671-0.233,1.007
	c-0.266,1.139-0.54,2.273-0.844,3.399c-0.032,0.124-0.07,0.245-0.104,0.369c-1.812,6.649-4.299,13.12-7.428,19.31
	c-0.047,0.091-0.091,0.183-0.138,0.272c-0.611,1.2-1.247,2.389-1.908,3.565c-0.033,0.064-0.07,0.123-0.102,0.185
	c-4.162,7.392-9.275,14.312-15.304,20.574c-0.012,0.011-0.02,0.022-0.031,0.032c0.865-0.53,1.736-1.047,2.589-1.608
	c11.166-7.342,39.246-25.85,39.386-25.856c1.186,0.231,2.369,0.466,3.547,0.734c2.715,1.269,5.385,2.623,8.012,4.065
	c4.88,3.877,9.559,7.997,14.073,12.332c16.466,15.815,37.922,23.493,59.737,24.09c-0.017-0.514-0.016-1.027-0.043-1.541
	c-0.971-18.773-9.638-34.581-22.989-47.402C323.335,230.889,296.591,215.417,268.217,208.955z"/>
<circle style="fill:#D3D6D6;" cx="166.351" cy="215.258" r="94.432"/>
<path style="fill:#C7C9C9;" d="M166.052,225.748c-30.067,19.77-56.714,33.436-53.764,66.934
	c30.751,21.459,72.697,23.34,105.943,1.48c30.068-19.77,45.143-53.772,42.192-87.27
	C229.673,185.435,199.297,203.889,166.052,225.748z"/>
<pattern  id="SVGID_1_" xlink:href="#Grid_1_pica_Lines" patternTransform="matrix(0.4599 -0.3024 0.3024 0.4599 -1291.2571 -6819.6553)">
</pattern>
<path style="fill:url(#SVGID_1_);" d="M436.407,128.807c-31.549-30.298-72.466-53.405-115.64-61.801
	c-33.481-6.514-68.306-4.414-100.882,5.549c-29.034,8.877-81.481,38.629-106.443,55.379c0.021-0.006,0.041-0.008,0.061-0.014
	c46.678-28.272,107.941-14.732,138.168,31.238c0.907,1.38,1.768,2.775,2.598,4.18c0.272,0.46,0.524,0.926,0.788,1.389
	c0.544,0.955,1.08,1.91,1.589,2.873c0.294,0.554,0.57,1.111,0.853,1.668c0.448,0.889,0.89,1.779,1.309,2.679
	c0.277,0.587,0.545,1.177,0.809,1.767c0.396,0.888,0.775,1.779,1.145,2.674c0.244,0.592,0.488,1.184,0.721,1.779
	c0.362,0.928,0.7,1.859,1.033,2.793c0.202,0.562,0.411,1.125,0.602,1.69c0.372,1.104,0.711,2.212,1.044,3.321
	c0.118,0.398,0.253,0.791,0.365,1.19c0.42,1.469,0.802,2.941,1.152,4.421c0.142,0.598,0.259,1.201,0.391,1.802
	c0.198,0.911,0.397,1.819,0.569,2.732c0.134,0.708,0.249,1.417,0.368,2.125c0.135,0.81,0.268,1.616,0.382,2.427
	c0.107,0.756,0.204,1.511,0.294,2.267c0.091,0.759,0.174,1.518,0.247,2.276c0.076,0.794,0.148,1.584,0.208,2.377
	c0.051,0.712,0.089,1.426,0.126,2.14c0.045,0.829,0.09,1.661,0.114,2.491c0.018,0.628,0.015,1.256,0.02,1.884
	c0.033,3.398-0.101,6.788-0.403,10.16c-0.035,0.383-0.059,0.766-0.097,1.148c-0.105,1.041-0.239,2.076-0.375,3.11
	c-0.059,0.442-0.113,0.885-0.177,1.327c-0.15,1.035-0.322,2.068-0.503,3.099c-0.073,0.417-0.149,0.835-0.229,1.251
	c-0.2,1.063-0.416,2.125-0.652,3.183c-0.074,0.337-0.154,0.671-0.233,1.007c-0.266,1.139-0.54,2.273-0.844,3.399
	c-0.032,0.124-0.07,0.245-0.104,0.369c-1.812,6.649-4.299,13.12-7.428,19.31c-0.047,0.091-0.091,0.183-0.138,0.272
	c-0.611,1.2-1.247,2.389-1.908,3.565c-0.033,0.064-0.07,0.123-0.102,0.185c-4.162,7.392-9.275,14.312-15.304,20.574
	c-0.012,0.011-0.02,0.022-0.031,0.032c0.865-0.53,1.736-1.047,2.589-1.608c11.166-7.342,39.246-25.85,39.386-25.856
	c1.186,0.231,2.369,0.466,3.547,0.734c2.715,1.269,5.385,2.623,8.012,4.065c4.88,3.877,9.559,7.997,14.073,12.332
	c38.422,36.898,104.001,29.633,137.942-9.012c16.721-19.034,25.436-44.328,24.128-69.612
	C468.145,170.075,455.653,147.289,436.407,128.807z"/>
<pattern  id="SVGID_2_" xlink:href="#Grid_1_pica_Lines" patternTransform="matrix(0.4599 -0.3024 0.3024 0.4599 -1291.2571 -6819.6553)">
</pattern>
<circle style="fill:url(#SVGID_2_);" cx="166.351" cy="215.258" r="94.432"/>
<g>
</g>
<g>
</g>
<g>
</g>
<g>
</g>
<g>
</g>
<g>
</g>
<g>
</g>
<g>
</g>
<g>
</g>
<g>
</g>
<g>
</g>
<g>
</g>
<g>
</g>
<g>
</g>
<g>
</g>
</svg>
