<?xml version="1.0" encoding="iso-8859-1"?>
<!-- Generator: Adobe Illustrator 17.0.0, SVG Export Plug-In . SVG Version: 6.00 Build 0)  -->
<!DOCTYPE svg PUBLIC "-//W3C//DTD SVG 1.1//EN" "http://www.w3.org/Graphics/SVG/1.1/DTD/svg11.dtd">
<svg version="1.1" id="Layer_1" xmlns="http://www.w3.org/2000/svg" xmlns:xlink="http://www.w3.org/1999/xlink" x="0px" y="0px"
	 width="512px" height="512px" viewBox="0 0 512 512" style="enable-background:new 0 0 512 512;" xml:space="preserve">
<path id="bg_49_" style="fill:#EFC84A;" d="M512,256c0,141.383-114.609,256-256,256C114.617,512,0,397.383,0,256
	C0,114.621,114.617,0,256,0C397.391,0,512,114.621,512,256z"/>
<path style="fill:#C6A034;" d="M30.967,378.146h18.02V218.076H2.815C0.977,230.454,0,243.11,0,256
	C0,300.23,11.223,341.844,30.967,378.146z"/>
<path style="fill:#C6A034;" d="M37.553,389.51c0.961,1.569,1.982,3.094,2.979,4.642H97.77V252.377H37.553V389.51z"/>
<path style="fill:#C6A034;" d="M75.664,368.93c0.963,1.569,1.984,3.094,2.979,4.642h57.24V231.796H75.664V368.93z"/>
<rect x="408.002" y="268.384" style="fill:#C6A034;" width="35.826" height="160.068"/>
<path style="fill:#C6A034;" d="M486.514,367.462V221.125h-49.547V393.39h34.996C477.277,385.053,482.172,376.421,486.514,367.462z"
	/>
<path style="fill:#C6A034;" d="M474.316,389.716C498.205,350.794,512,305.013,512,256c0-7.649-0.398-15.2-1.057-22.679h-36.627
	V389.716z"/>
<path style="fill:#EFD68F;" d="M424.73,120.511c-11.045,0-20.367,7.318-23.412,17.367c-0.701-0.096-1.408-0.16-2.139-0.16
	c-8.738,0-15.826,7.068-15.857,15.801h94.229c-0.045-8.732-9.617-15.801-21.436-15.801c-2.73,0-5.332,0.393-7.738,1.083
	C445.639,128.284,436.103,120.511,424.73,120.511z"/>
<path style="fill:#EFD68F;" d="M80.617,173.635c-11.557,0-21.311,7.655-24.494,18.168c-0.732-0.098-1.477-0.167-2.236-0.167
	c-9.143,0-16.557,7.394-16.594,16.531h98.584c-0.049-9.138-10.064-16.531-22.424-16.531c-2.859,0-5.584,0.411-8.096,1.135
	C102.488,181.766,92.518,173.635,80.617,173.635z"/>
<path style="fill:#9C7A26;" d="M22.135,360.104C62.031,449.587,151.699,512,256,512c104.305,0,193.973-62.413,233.869-151.896
	H22.135z"/>
<rect x="111.852" y="75.53" style="fill:#2893C0;" width="288.297" height="330.133"/>
<polygon style="fill:#58BDE0;" points="242.123,385.505 311.373,366.738 232.443,75.53 158.105,75.53 "/>
<polygon style="fill:#58BDE0;" points="328.211,369.189 350.201,363.228 272.223,75.53 248.613,75.53 "/>
<rect x="111.852" y="323.166" style="fill:#D8D8D8;" width="288.297" height="107.308"/>
<rect x="109.145" y="430.474" style="fill:#666666;" width="293.711" height="21.468"/>
<rect x="185.623" y="363.284" style="fill:#2893C0;" width="140.756" height="67.189"/>
<rect x="129.449" y="363.284" style="fill:#2893C0;" width="38.9" height="67.189"/>
<polygon style="opacity:0.5;" points="129.449,363.284 129.449,379.378 163.611,379.378 163.611,430.474 168.35,430.474 
	168.35,363.284 "/>
<rect x="344.668" y="363.284" style="fill:#2893C0;" width="38.898" height="67.189"/>
<polygon style="opacity:0.5;" points="344.668,363.284 344.668,379.378 378.83,379.378 378.83,430.474 383.566,430.474 
	383.566,363.284 "/>
<polygon style="opacity:0.5;" points="400.148,75.53 347.51,75.53 329.734,75.53 166.402,75.53 148.625,75.53 111.852,75.53 
	111.852,118.834 148.625,118.834 148.625,312.435 166.402,312.435 166.402,118.834 329.734,118.834 329.734,311.44 347.51,311.44 
	347.51,118.834 400.148,118.834 "/>
<rect x="111.852" y="167.521" style="opacity:0.5;" width="288.297" height="21.132"/>
<rect x="111.852" y="244.728" style="opacity:0.5;" width="288.297" height="21.131"/>
<rect x="111.852" y="321.111" style="opacity:0.5;" width="288.297" height="21.128"/>
<path style="fill:#D8D8D8;" d="M406.924,97.087c0,2.721-2.211,4.931-4.928,4.931H110.004c-2.723,0-4.928-2.21-4.928-4.931V59.511
	c0-2.721,2.205-4.928,4.928-4.928h291.992c2.717,0,4.928,2.207,4.928,4.928V97.087z"/>
<path style="fill:#D8D8D8;" d="M403.76,156.416c0,2.722-2.207,4.931-4.928,4.931H113.527c-2.723,0-4.928-2.209-4.928-4.931v-1.033
	c0-2.719,2.205-4.928,4.928-4.928h285.305c2.721,0,4.928,2.209,4.928,4.928V156.416z"/>
<path style="fill:#D8D8D8;" d="M403.76,169.192c0,2.718-2.207,4.928-4.928,4.928H113.527c-2.723,0-4.928-2.21-4.928-4.928v-1.033
	c0-2.722,2.205-4.928,4.928-4.928h285.305c2.721,0,4.928,2.206,4.928,4.928V169.192z"/>
<path style="fill:#D8D8D8;" d="M403.76,233.416c0,2.722-2.207,4.928-4.928,4.928H113.527c-2.723,0-4.928-2.206-4.928-4.928v-1.03
	c0-2.725,2.205-4.931,4.928-4.931h285.305c2.721,0,4.928,2.206,4.928,4.931V233.416z"/>
<path style="fill:#D8D8D8;" d="M403.76,246.192c0,2.722-2.207,4.928-4.928,4.928H113.527c-2.723,0-4.928-2.206-4.928-4.928v-1.033
	c0-2.722,2.205-4.928,4.928-4.928h285.305c2.721,0,4.928,2.206,4.928,4.928V246.192z"/>
<path style="fill:#D8D8D8;" d="M403.76,310.419c0,2.722-2.207,4.928-4.928,4.928H113.527c-2.723,0-4.928-2.206-4.928-4.928v-1.033
	c0-2.721,2.205-4.928,4.928-4.928h285.305c2.721,0,4.928,2.207,4.928,4.928V310.419z"/>
<path style="fill:#D8D8D8;" d="M403.76,323.192c0,2.722-2.207,4.928-4.928,4.928H113.527c-2.723,0-4.928-2.206-4.928-4.928v-1.029
	c0-2.725,2.205-4.932,4.928-4.932h285.305c2.721,0,4.928,2.207,4.928,4.932V323.192z"/>
<rect x="162.457" y="94.589" style="fill:#D8D8D8;" width="6.117" height="215.982"/>
<rect x="343.434" y="94.589" style="fill:#D8D8D8;" width="6.121" height="214.961"/>
<polygon style="fill:#3D3D3D;" points="319.824,440.521 319.824,430.468 164.533,430.468 164.533,440.521 154.244,440.521 
	154.244,452.028 330.111,452.028 330.111,440.521 "/>
<polygon style="fill:#E45136;" points="394.684,374.301 332.758,374.301 340.879,360.426 386.562,360.426 "/>
<polygon style="fill:#E45136;" points="179.465,374.301 117.539,374.301 125.66,360.426 171.344,360.426 "/>
<polygon style="opacity:0.5;" points="174.459,365.75 171.344,360.426 125.66,360.426 122.545,365.75 "/>
<polygon style="opacity:0.5;" points="389.678,365.75 386.562,360.426 340.879,360.426 337.764,365.75 "/>
<polygon style="opacity:0.5;" points="185.623,363.284 185.623,370.797 250.525,370.797 250.525,431.433 256.117,431.433 
	256.117,370.797 317.58,370.797 317.58,430.474 326.379,430.474 326.379,363.284 "/>
<rect x="254.408" y="357.157" style="fill:#D8D8D8;" width="2.932" height="75.351"/>
<rect x="178.408" y="430.468" style="fill:#A5A5A5;" width="155.291" height="15.168"/>
<rect x="168.117" y="440.521" style="fill:#D8D8D8;" width="175.869" height="11.508"/>
<g>
</g>
<g>
</g>
<g>
</g>
<g>
</g>
<g>
</g>
<g>
</g>
<g>
</g>
<g>
</g>
<g>
</g>
<g>
</g>
<g>
</g>
<g>
</g>
<g>
</g>
<g>
</g>
<g>
</g>
</svg>
