<?xml version="1.0" encoding="iso-8859-1"?>
<!-- Generator: Adobe Illustrator 17.0.0, SVG Export Plug-In . SVG Version: 6.00 Build 0)  -->
<!DOCTYPE svg PUBLIC "-//W3C//DTD SVG 1.1//EN" "http://www.w3.org/Graphics/SVG/1.1/DTD/svg11.dtd">
<svg version="1.1" id="Layer_1" xmlns="http://www.w3.org/2000/svg" xmlns:xlink="http://www.w3.org/1999/xlink" x="0px" y="0px"
	 width="512px" height="512px" viewBox="0 0 512 512" style="enable-background:new 0 0 512 512;" xml:space="preserve">
<path id="bg_34_" style="fill:#45B39C;" d="M512,256.002C512,397.382,397.387,512,256.002,512C114.613,512,0,397.382,0,256.002
	C0,114.619,114.613,0,256.002,0C397.387,0,512,114.619,512,256.002z"/>
<path style="fill:#3FA88F;" d="M0,256.002c0,74.464,31.82,141.478,82.576,188.261h15.406V115.959H41.74
	C15.379,156.208,0,204.298,0,256.002z"/>
<path style="fill:#3FA88F;" d="M86.044,447.38c11.149,9.906,23.153,18.865,35.913,26.728h51.067V145.805h-86.98V447.38z"/>
<rect x="193.077" y="74.217" style="fill:#3FA88F;" width="86.979" height="328.305"/>
<rect x="257.032" y="128.795" style="fill:#3FA88F;" width="86.979" height="328.301"/>
<path style="fill:#3FA88F;" d="M448.047,115.148h-86.98v328.304h69.205c6.227-5.788,12.152-11.889,17.775-18.267V115.148z"/>
<path style="fill:#3FA88F;" d="M434.402,439.517C482.241,393.002,512,327.991,512,256.002c0-42.504-10.418-82.551-28.748-117.828
	h-48.85V439.517z"/>
<path style="fill:#2D8771;" d="M25.826,368.125C67.4,453.305,154.835,512,256.002,512c101.164,0,188.599-58.695,230.171-143.875
	H25.826z"/>
<path style="fill:#E45136;" d="M453.962,353.815c0,3.45-2.796,6.247-6.245,6.247H67.448c-3.45,0-6.247-2.797-6.247-6.247V196.425
	c0-3.447,2.797-6.243,6.247-6.243h380.268c3.449,0,6.245,2.796,6.245,6.243V353.815z"/>
<path style="fill:#AF3222;" d="M61.201,333.336v20.479c0,3.45,2.797,6.247,6.247,6.247h380.268c3.449,0,6.245-2.797,6.245-6.247
	v-20.479H61.201z"/>
<circle cx="160.237" cy="348.006" r="20.429"/>
<circle cx="160.237" cy="348.006" r="20.429"/>
<circle style="fill:#FFFFFF;" cx="160.238" cy="348.006" r="10.174"/>
<circle cx="384.76" cy="348.006" r="20.43"/>
<circle style="fill:#FFFFFF;" cx="384.76" cy="348.006" r="10.175"/>
<rect x="61.201" y="203.503" style="fill:#FFFFFF;" width="392.761" height="44.511"/>
<path style="fill:#878787;" d="M164.349,237.08c0,3.451-2.798,6.25-6.247,6.25h-43.336c-3.449,0-6.247-2.799-6.247-6.25v-22.645
	c0-3.45,2.798-6.246,6.247-6.246h43.336c3.449,0,6.247,2.796,6.247,6.246V237.08z"/>
<path style="fill:#545454;" d="M158.102,208h-43.336c-3.449,0-6.331,2.986-6.331,6.436v22.645c0,3.451,2.882,5.92,6.331,5.92h43.336
	c3.449,0,6.333-2.469,6.333-5.92v-22.645C164.435,210.986,161.551,208,158.102,208z M161.435,237.08c0,1.566-1.771,2.92-3.333,2.92
	h-43.336c-1.563,0-3.331-1.354-3.331-2.92v-22.645c0-1.559,1.768-2.436,3.331-2.436h43.336c1.562,0,3.333,0.876,3.333,2.436V237.08z
	"/>
<path style="fill:#878787;" d="M282.255,237.08c0,3.451-2.796,6.25-6.247,6.25h-43.336c-3.449,0-6.247-2.799-6.247-6.25v-22.645
	c0-3.45,2.798-6.246,6.247-6.246h43.336c3.451,0,6.247,2.796,6.247,6.246V237.08z"/>
<path style="fill:#545454;" d="M276.008,208h-43.336c-3.449,0-6.237,2.986-6.237,6.436v22.645c0,3.451,2.788,5.92,6.237,5.92h43.336
	c3.451,0,6.427-2.469,6.427-5.92v-22.645C282.435,210.986,279.459,208,276.008,208z M278.435,237.08c0,1.566-0.863,2.92-2.427,2.92
	h-43.336c-1.564,0-3.237-1.354-3.237-2.92v-22.645c0-1.559,1.673-2.436,3.237-2.436h43.336c1.563,0,2.427,0.876,2.427,2.436V237.08z
	"/>
<path style="fill:#878787;" d="M198.889,301.632c0,3.448-2.796,6.247-6.246,6.247h-43.337c-3.449,0-6.245-2.799-6.245-6.247v-22.644
	c0-3.451,2.796-6.25,6.245-6.25h43.337c3.45,0,6.246,2.799,6.246,6.25V301.632z"/>
<path style="fill:#FFFFFF;" d="M192.643,309.582h-43.337c-4.384,0-7.951-3.567-7.951-7.949v-22.644c0-4.389,3.567-7.956,7.951-7.956
	h43.337c4.386,0,7.952,3.567,7.952,7.956v22.644C200.595,306.015,197.028,309.582,192.643,309.582z M149.306,274.444
	c-2.504,0-4.54,2.04-4.54,4.544v22.644c0,2.503,2.036,4.541,4.54,4.541h43.337c2.505,0,4.542-2.037,4.542-4.541v-22.644
	c0-2.504-2.037-4.544-4.542-4.544H149.306z"/>
<path style="fill:#878787;" d="M324.603,301.632c0,3.448-2.795,6.247-6.245,6.247h-43.337c-3.448,0-6.247-2.799-6.247-6.247v-22.644
	c0-3.451,2.799-6.25,6.247-6.25h43.337c3.45,0,6.245,2.799,6.245,6.25V301.632z"/>
<path style="fill:#FFFFFF;" d="M318.358,309.582h-43.337c-4.385,0-7.952-3.567-7.952-7.949v-22.644c0-4.389,3.567-7.956,7.952-7.956
	h43.337c4.384,0,7.95,3.567,7.95,7.956v22.644C326.309,306.015,322.742,309.582,318.358,309.582z M275.022,274.444
	c-2.505,0-4.541,2.04-4.541,4.544v22.644c0,2.503,2.036,4.541,4.541,4.541h43.337c2.503,0,4.54-2.037,4.54-4.541v-22.644
	c0-2.504-2.037-4.544-4.54-4.544H275.022z"/>
<path style="fill:#878787;" d="M389.153,301.632c0,3.448-2.797,6.247-6.247,6.247H339.57c-3.449,0-6.248-2.799-6.248-6.247v-22.644
	c0-3.451,2.799-6.25,6.248-6.25h43.336c3.45,0,6.247,2.799,6.247,6.25V301.632z"/>
<path style="fill:#FFFFFF;" d="M382.906,309.582H339.57c-4.386,0-7.953-3.567-7.953-7.949v-22.644c0-4.389,3.567-7.956,7.953-7.956
	h43.336c4.387,0,7.953,3.567,7.953,7.956v22.644C390.859,306.015,387.293,309.582,382.906,309.582z M339.57,274.444
	c-2.506,0-4.542,2.04-4.542,4.544v22.644c0,2.503,2.036,4.541,4.542,4.541h43.336c2.506,0,4.543-2.037,4.543-4.541v-22.644
	c0-2.504-2.037-4.544-4.543-4.544H339.57z"/>
<path style="fill:#878787;" d="M400.161,237.08c0,3.451-2.796,6.25-6.247,6.25h-43.337c-3.448,0-6.245-2.799-6.245-6.25v-22.645
	c0-3.45,2.797-6.246,6.245-6.246h43.337c3.451,0,6.247,2.796,6.247,6.246V237.08z"/>
<path style="fill:#545454;" d="M393.914,208h-43.337c-3.448,0-6.143,2.986-6.143,6.436v22.645c0,3.451,2.694,5.92,6.143,5.92h43.337
	c3.451,0,6.521-2.469,6.521-5.92v-22.645C400.435,210.986,397.365,208,393.914,208z M396.435,237.08c0,1.566-0.957,2.92-2.521,2.92
	h-43.337c-1.562,0-3.143-1.354-3.143-2.92v-22.645c0-1.559,1.581-2.436,3.143-2.436h43.337c1.564,0,2.521,0.876,2.521,2.436V237.08z
	"/>
<path style="fill:#FFFFFF;" d="M132.921,274.683c0-3.448-2.798-6.247-6.245-6.247H90.305c-3.451,0-6.246,2.799-6.246,6.247v72.395
	c0,3.449,2.795,6.244,6.246,6.244h36.371c3.447,0,6.245-2.795,6.245-6.244V274.683z"/>
<rect x="86.64" y="271.509" style="fill:#878787;" width="20.957" height="73.734"/>
<rect x="109.551" y="271.509" style="fill:#878787;" width="20.958" height="73.734"/>
<path style="fill:#FFFFFF;" d="M259.156,274.683c0-3.448-2.797-6.247-6.248-6.247h-36.369c-3.449,0-6.246,2.799-6.246,6.247v72.395
	c0,3.449,2.797,6.244,6.246,6.244h36.369c3.451,0,6.248-2.795,6.248-6.244V274.683z"/>
<rect x="212.874" y="271.509" style="fill:#A5AEB5;" width="20.958" height="73.734"/>
<rect x="235.786" y="271.509" style="fill:#A5AEB5;" width="20.956" height="73.734"/>
<rect x="61.201" y="328.024" width="20.049" height="23.608"/>
<rect x="60.966" y="255.004" style="fill:#2CA5D5;" width="12.704" height="68.854"/>
<g>
</g>
<g>
</g>
<g>
</g>
<g>
</g>
<g>
</g>
<g>
</g>
<g>
</g>
<g>
</g>
<g>
</g>
<g>
</g>
<g>
</g>
<g>
</g>
<g>
</g>
<g>
</g>
<g>
</g>
</svg>
