<?xml version="1.0" encoding="iso-8859-1"?>
<!-- Generator: Adobe Illustrator 17.0.0, SVG Export Plug-In . SVG Version: 6.00 Build 0)  -->
<!DOCTYPE svg PUBLIC "-//W3C//DTD SVG 1.1//EN" "http://www.w3.org/Graphics/SVG/1.1/DTD/svg11.dtd">
<svg version="1.1" id="Layer_1" xmlns="http://www.w3.org/2000/svg" xmlns:xlink="http://www.w3.org/1999/xlink" x="0px" y="0px"
	 width="511.999px" height="511.999px" viewBox="0 0 511.999 511.999" style="enable-background:new 0 0 511.999 511.999;"
	 xml:space="preserve">
<circle id="background_99_" style="fill:#45B39C;" cx="255.999" cy="255.999" r="255.999"/>
<path style="fill:#EFD378;" d="M155.066,383.763c-7.43-17.921-20.393-29.729-28.809-26.24l-0.436,0.182
	c-8.414,3.488-9.217,21.005-1.787,38.926c7.432,17.92,20.395,29.727,28.809,26.238l0.436-0.18
	C161.693,419.199,162.495,401.683,155.066,383.763z"/>
<path style="fill:#FFE180;" d="M151.695,383.524c-6.094-14.694-16.646-24.19-23.545-21.33l-0.359,0.149
	c-6.898,2.86-7.635,17.037-1.541,31.732c6.092,14.695,16.646,24.191,23.545,21.33l0.357-0.148
	C157.05,412.396,157.788,398.219,151.695,383.524z"/>
<path style="fill:#965415;" d="M353.495,263.297l-222.49,92.257c-1.107,0.461-2.152,0.961-3.139,1.498
	c8.385-1.535,20.229,9.896,27.199,26.711c6.973,16.813,6.695,33.27-0.316,38.121c1.078-0.319,2.17-0.705,3.277-1.164l222.49-92.258
	c17.92-7.432,13.469-22.768,6.039-40.69C379.124,269.853,371.415,255.867,353.495,263.297z"/>
<path style="fill:#784311;" d="M127.867,357.052c2.264-0.414,4.779,0.123,7.383,1.448c-1.137-1.218-2.285-2.316-3.438-3.28
	l-0.807,0.334C129.898,356.015,128.853,356.515,127.867,357.052z"/>
<path style="fill:#784311;" d="M368.372,262.367c3.863,4.828,6.984,11.555,10.055,18.959c7.43,17.92,11.881,33.258-6.039,40.688
	l-212.373,88.063c-0.484,5.485-2.25,9.722-5.266,11.808c1.078-0.319,2.17-0.705,3.277-1.164l222.49-92.258
	c17.92-7.432,13.469-22.768,6.039-40.69C381.601,275.824,376.517,265.634,368.372,262.367z"/>
<path style="fill:#A35C17;" d="M168.474,372.736c45.787-18.986,91.576-37.973,137.363-56.959
	c16.273-6.748,32.549-13.496,48.822-20.244c1.773-0.735,0.996-3.662-0.805-2.915c-45.787,18.985-91.576,37.973-137.363,56.958
	c-16.275,6.749-32.549,13.496-48.822,20.244C165.896,370.556,166.673,373.482,168.474,372.736L168.474,372.736z"/>
<path style="fill:#AB6018;" d="M178.769,391.911c46.211-19.162,92.42-38.324,138.631-57.485
	c13.266-5.501,26.529-11.001,39.795-16.501c3.549-1.473,1.994-7.325-1.607-5.832c-46.209,19.162-92.42,38.324-138.631,57.485
	c-13.264,5.501-26.529,11.001-39.795,16.501C173.613,387.552,175.167,393.405,178.769,391.911L178.769,391.911z"/>
<path style="fill:#63380E;" d="M179.033,408.724c45.416-18.832,90.832-37.664,136.248-56.496
	c19.439-8.06,38.877-16.121,58.316-24.182c1.773-0.735,0.996-3.662-0.805-2.915c-45.416,18.832-90.832,37.665-136.248,56.497
	c-19.439,8.061-38.877,16.121-58.316,24.181C176.454,406.544,177.232,409.471,179.033,408.724L179.033,408.724z"/>
<path style="fill:#A35C17;" d="M153.693,358.136c44.676-18.525,89.352-37.051,134.027-55.576
	c23.902-9.91,47.805-19.822,71.705-29.732c1.775-0.736,0.998-3.662-0.803-2.916c-44.676,18.525-89.353,37.051-134.029,55.576
	c-23.9,9.912-47.803,19.822-71.705,29.733C151.115,355.956,151.892,358.883,153.693,358.136L153.693,358.136z"/>
<path style="fill:#CCB466;" d="M147.906,407.845c-5.949,2.97-11.973-4.674-14.838-8.842c-4.17-6.063-7.107-14.114-5.873-21.527
	c0.68-4.082,3.658-5.608,7.143-3.44c3.299,2.053,5.408,6.21,6.836,9.658c0.768,1.857,3.115,13.362-2.576,10.367
	c-2.295-1.208-3.688-4.391-4.557-6.623c-1.527-2.747-0.596-3.98,2.795-3.701c1.713,3.091,1.615,3.402-0.293,0.933
	c0.934-1.458-1.383-2.798-2.311-1.351c-2.197,3.432,2.312,11.205,5.951,7.208c3.32-3.647-2.242-12.635-6.996-11.316
	c-6.602,1.831,0.441,13.829,2.807,16.202c5.117,5.133,9.027-0.738,9.115-5.82c0.119-7.033-4.83-15.809-11.25-18.875
	c-5.332-2.547-9.086,2.887-9.5,7.639c-0.822,9.459,3.461,18.748,9.35,25.923c3.643,4.436,9.756,8.767,15.547,5.876
	C150.8,409.386,149.445,407.077,147.906,407.845L147.906,407.845z"/>
<path style="fill:#EFD378;" d="M356.933,383.763c7.43-17.921,20.393-29.729,28.809-26.24l0.438,0.182
	c8.412,3.488,9.217,21.005,1.785,38.926c-7.432,17.92-20.395,29.727-28.807,26.238l-0.438-0.18
	C350.306,419.199,349.501,401.683,356.933,383.763z"/>
<path style="fill:#FFE180;" d="M360.304,383.524c6.094-14.694,16.647-24.19,23.545-21.33l0.359,0.149
	c6.898,2.86,7.635,17.037,1.543,31.732c-6.094,14.695-16.646,24.191-23.545,21.33l-0.359-0.148
	C354.949,412.396,354.21,398.219,360.304,383.524z"/>
<path style="fill:#965415;" d="M158.503,263.297l222.49,92.257c1.108,0.461,2.152,0.961,3.139,1.498
	c-8.385-1.535-20.228,9.896-27.199,26.711c-6.973,16.813-6.695,33.27,0.316,38.121c-1.078-0.319-2.168-0.705-3.277-1.164
	l-222.49-92.258c-17.918-7.432-13.469-22.768-6.039-40.69C132.874,269.853,140.583,255.867,158.503,263.297z"/>
<path style="fill:#784311;" d="M384.132,357.052c-2.264-0.414-4.777,0.123-7.383,1.448c1.137-1.218,2.285-2.316,3.438-3.28
	l0.807,0.334C382.101,356.015,383.146,356.515,384.132,357.052z"/>
<path style="fill:#784311;" d="M143.626,262.367c-3.863,4.828-6.982,11.555-10.053,18.959c-7.432,17.92-11.883,33.258,6.039,40.688
	l212.371,88.063c0.484,5.485,2.25,9.722,5.266,11.808c-1.078-0.319-2.168-0.705-3.277-1.164l-222.49-92.258
	c-17.918-7.432-13.469-22.768-6.039-40.69C130.398,275.824,135.482,265.634,143.626,262.367z"/>
<path style="fill:#A35C17;" d="M344.329,369.82c-45.787-18.986-91.576-37.972-137.365-56.959
	c-16.273-6.747-32.547-13.495-48.82-20.243c-1.801-0.747-2.578,2.18-0.805,2.915c45.789,18.986,91.578,37.973,137.365,56.959
	c16.273,6.748,32.549,13.496,48.822,20.244C345.327,373.482,346.105,370.556,344.329,369.82L344.329,369.82z"/>
<path style="fill:#AB6018;" d="M334.837,386.079c-46.211-19.16-92.42-38.322-138.629-57.484c-13.266-5.5-26.531-11-39.797-16.502
	c-3.602-1.493-5.154,4.359-1.607,5.832c46.211,19.16,92.42,38.322,138.631,57.484c13.264,5.5,26.529,11.001,39.795,16.502
	C336.831,393.405,338.386,387.552,334.837,386.079L334.837,386.079z"/>
<path style="fill:#63380E;" d="M333.771,405.809c-45.418-18.832-90.834-37.665-136.25-56.497
	c-19.438-8.061-38.875-16.12-58.314-24.181c-1.801-0.747-2.578,2.18-0.805,2.915c45.418,18.832,90.834,37.665,136.25,56.497
	c19.438,8.061,38.875,16.12,58.315,24.181C334.767,409.471,335.544,406.544,333.771,405.809L333.771,405.809z"/>
<path style="fill:#A35C17;" d="M359.111,355.221c-44.676-18.525-89.354-37.051-134.029-55.576
	c-23.902-9.911-47.803-19.821-71.705-29.733c-1.801-0.746-2.578,2.18-0.803,2.916c44.676,18.525,89.352,37.051,134.027,55.576
	c23.902,9.91,47.805,19.822,71.705,29.732C360.107,358.883,360.884,355.956,359.111,355.221L359.111,355.221z"/>
<path style="fill:#CCB466;" d="M362.743,410.156c5.483,2.736,10.766-0.957,14.594-4.816c6.478-6.534,10.572-16.486,10.416-25.663
	c-0.084-4.978-2.797-10.302-8.398-9.384c-6.875,1.125-11.875,11.848-12.348,17.828c-0.393,4.995,1.699,11.434,7.744,8.252
	c4.166-2.191,10.078-13.688,4.381-17.026c-4.855-2.844-9.646,7.289-7.525,10.911c2.795,4.77,8.545-3.207,6.16-6.938
	c-0.926-1.448-3.242-0.107-2.311,1.351c-0.488,0.548-0.977,1.097-1.465,1.645c0.352-3.023,1.865-3.577,4.537-1.661
	c0.047,2.835-1.766,5.773-3.447,7.896c-2.242,2.83-5.039,1.918-5.49-1.578c-0.244-1.892,0.246-3.826,0.697-5.646
	c1.105-4.456,10.422-19.2,14.219-8.994c2.533,6.81-1.381,15.529-4.713,21.302c-2.643,4.58-9.398,13.355-15.701,10.211
	C362.554,407.077,361.199,409.386,362.743,410.156L362.743,410.156z"/>
<path style="fill:#E27C3E;" d="M125.003,190.24c0,0-56.273,141.888,126.48,141.888s124.678-135.853,124.678-135.853
	s-2.26,22.628-19.609,28.66c-17.348,6.033,30.17-16.594,0-79.949c0,0-3.016,48.272-31.676,49.025
	c-28.662,0.754,6.033-39.975-47.518-55.812c-53.551-15.839,39.975-58.83-9.051-102.575c0,0,12.662,36.958-17.428,46.763
	c-30.09,9.806-46.682,39.219-30.844,59.584s-34.697,63.355-40.729,17.348c-6.031-46.01-53.549-61.47-53.549-61.47
	s42.334,28.285,33.988,54.682c-8.344,26.396-18.807,40.729,0,58.83C178.554,229.461,131.792,264.908,125.003,190.24z"/>
<path style="fill:#EFC84A;" d="M254.908,328.263c0,0-76.094,1.899-73.08-49.961c3.018-51.859,35.51-33.004,9.459-65.436
	c0,0,32.021,13.027,23.727,37.438c0,0,0.754-28.388,29.414-37.438c28.662-9.051,6.293-36.203,6.293-36.203
	s43.627,25.35,11.127,56.796c-32.502,31.448,1.438,39.967,24.064,22.887c22.627-17.081-7.543-27.212,19.609-38.361
	c0,0-11.312,19.991,6.787,38.361C330.41,274.714,323.462,328.263,254.908,328.263z"/>
<g>
</g>
<g>
</g>
<g>
</g>
<g>
</g>
<g>
</g>
<g>
</g>
<g>
</g>
<g>
</g>
<g>
</g>
<g>
</g>
<g>
</g>
<g>
</g>
<g>
</g>
<g>
</g>
<g>
</g>
</svg>
