<?xml version="1.0" encoding="iso-8859-1"?>
<!-- Generator: Adobe Illustrator 17.0.0, SVG Export Plug-In . SVG Version: 6.00 Build 0)  -->
<!DOCTYPE svg PUBLIC "-//W3C//DTD SVG 1.1//EN" "http://www.w3.org/Graphics/SVG/1.1/DTD/svg11.dtd">
<svg version="1.1" id="Layer_1" xmlns="http://www.w3.org/2000/svg" xmlns:xlink="http://www.w3.org/1999/xlink" x="0px" y="0px"
	 width="512px" height="512px" viewBox="0 0 512 512" style="enable-background:new 0 0 512 512;" xml:space="preserve">
<path id="bg_28_" style="fill:#EFC84A;" d="M512,255.998C512,397.378,397.387,512,256.002,512C114.613,512,0,397.378,0,255.998
	C0,114.619,114.613,0,256.002,0C397.387,0,512,114.619,512,255.998z"/>
<path style="fill:#992E14;" d="M379.279,116.613c0-3.767-3.053-6.822-6.822-6.822H139.52c-3.768,0-6.822,3.056-6.822,6.822
	l-10.232,85.701c0,3.767,3.055,6.82,6.822,6.82h253.404c3.768,0,6.822-3.054,6.822-6.82L379.279,116.613z"/>
<path style="fill:#FFFFFF;" d="M370.113,123.393c0-3.508-2.846-6.354-6.355-6.354H148.219c-3.51,0-6.355,2.846-6.355,6.354
	l-10.23,79.817c0,3.508,2.844,6.35,6.355,6.35H373.99c3.512,0,6.355-2.842,6.355-6.35L370.113,123.393z"/>
<polygon style="fill:#DDDDDD;" points="201.395,209.56 272.297,209.56 234.205,117.039 163.305,117.039 "/>
<polygon style="fill:#DDDDDD;" points="277.211,209.56 297.57,209.56 259.477,117.039 239.119,117.039 "/>
<path style="fill:#282828;" d="M186.258,310.206c-0.363-0.071-0.738-0.113-1.123-0.113h-0.572h-5.604h-2.738h-5.604h-2.736h-5.603
	h-2.738h-5.6h-2.738H145.6h-0.279c-0.438,0-0.861,0.057-1.271,0.15c-0.023,0.002-0.043,0.014-0.066,0.02
	c-2.582,0.604-4.51,2.909-4.51,5.679v49.491c0,2.767,1.928,5.071,4.51,5.675c0.023,0.006,0.043,0.023,0.066,0.024
	c0.41,0.089,0.834,0.146,1.271,0.146h0.279h5.602h2.738h5.6h2.738h5.603h2.736h5.604h2.738h5.604h0.572
	c0.385,0,0.76-0.039,1.123-0.113c2.687-0.523,4.719-2.888,4.719-5.732v-49.491C190.977,313.094,188.945,310.73,186.258,310.206z"/>
<path style="fill:#282828;" d="M367.068,310.206c-0.363-0.071-0.736-0.113-1.123-0.113h-0.572h-5.6h-2.738h-5.603h-2.738h-5.602
	h-2.738h-5.603h-2.738h-5.598h-0.281c-0.438,0-0.857,0.057-1.27,0.15c-0.021,0.002-0.043,0.014-0.064,0.02
	c-2.582,0.604-4.512,2.909-4.512,5.679v49.491c0,2.767,1.93,5.071,4.512,5.675c0.021,0.006,0.043,0.023,0.064,0.024
	c0.412,0.089,0.832,0.146,1.27,0.146h0.281h5.598h2.738h5.603h2.738h5.602h2.738h5.603h2.738h5.6h0.572
	c0.387,0,0.76-0.039,1.123-0.113c2.691-0.523,4.725-2.888,4.725-5.732v-49.491C371.793,313.094,369.76,310.73,367.068,310.206z"/>
<path d="M180.166,395.387c0,3.77-3.055,6.824-6.824,6.824h-46.475c-3.766,0-6.82-3.055-6.82-6.824v-57.773
	c0-3.766,3.055-6.82,6.82-6.82h46.475c3.77,0,6.824,3.054,6.824,6.82V395.387z"/>
<path style="fill:#282828;" d="M124,401.556c0.873,0.411,1.84,0.655,2.867,0.655h0.328v-71.418h-0.328
	c-1.027,0-1.994,0.244-2.867,0.651V401.556z"/>
<rect x="133.734" y="330.793" style="fill:#282828;" width="3.197" height="71.418"/>
<rect x="143.471" y="330.793" style="fill:#282828;" width="3.195" height="71.418"/>
<rect x="153.203" y="330.793" style="fill:#282828;" width="3.199" height="71.418"/>
<rect x="162.941" y="330.793" style="fill:#282828;" width="3.193" height="71.418"/>
<path style="fill:#282828;" d="M172.674,402.211h0.668c0.896,0,1.746-0.185,2.529-0.497V331.29
	c-0.783-0.313-1.633-0.497-2.529-0.497h-0.668V402.211z"/>
<path d="M391.217,395.387c0,3.77-3.053,6.824-6.82,6.824h-46.475c-3.768,0-6.822-3.055-6.822-6.824v-57.773
	c0-3.766,3.055-6.82,6.822-6.82h46.475c3.768,0,6.82,3.054,6.82,6.82V395.387z"/>
<path style="fill:#282828;" d="M335.055,401.556c0.871,0.411,1.838,0.655,2.867,0.655h0.328v-71.418h-0.328
	c-1.029,0-1.996,0.244-2.867,0.651V401.556z"/>
<rect x="344.787" y="330.793" style="fill:#282828;" width="3.199" height="71.418"/>
<rect x="354.523" y="330.793" style="fill:#282828;" width="3.193" height="71.418"/>
<rect x="364.258" y="330.793" style="fill:#282828;" width="3.197" height="71.418"/>
<rect x="373.994" y="330.793" style="fill:#282828;" width="3.193" height="71.418"/>
<path style="fill:#282828;" d="M383.727,402.211h0.67c0.897,0,1.746-0.185,2.527-0.497V331.29c-0.781-0.313-1.631-0.497-2.527-0.497
	h-0.67V402.211z"/>
<polygon style="fill:#C14321;" points="389.373,202.314 122.465,202.314 105.41,259.163 406.428,259.163 "/>
<polygon style="fill:#E25C3D;" points="337.705,202.314 174.133,202.314 164.602,240.259 346.877,240.259 "/>
<path style="fill:#992E14;" d="M406.59,351.918c0,3.245-2.627,5.875-5.871,5.875H111.402c-3.244,0-5.875-2.63-5.875-5.875v-93.987
	c0-3.246,2.631-5.875,5.875-5.875h289.316c3.244,0,5.871,2.629,5.871,5.875V351.918z"/>
<path style="fill:#FFFFFF;" d="M172.064,311.037c0,3.766-3.057,6.821-6.822,6.821H125.59c-3.768,0-6.822-3.056-6.822-6.821v-14.072
	c0-3.766,3.055-6.822,6.822-6.822h39.652c3.766,0,6.822,3.056,6.822,6.822V311.037z"/>
<path style="fill:#FFFFFF;" d="M393.35,311.037c0,3.766-3.053,6.821-6.822,6.821h-39.65c-3.77,0-6.824-3.056-6.824-6.821v-14.072
	c0-3.766,3.055-6.822,6.824-6.822h39.65c3.77,0,6.822,3.056,6.822,6.822V311.037z"/>
<path style="fill:#5E1608;" d="M332.238,339.32c0,3.766-3.055,6.821-6.82,6.821H187.557c-3.768,0-6.822-3.056-6.822-6.821v-63.102
	c0-3.767,3.055-6.822,6.822-6.822h137.861c3.766,0,6.82,3.055,6.82,6.822V339.32z"/>
<path style="fill:#FFFFFF;" d="M325.131,286.737c0,2.511-2.035,4.547-4.547,4.547h-128.48c-2.512,0-4.547-2.037-4.547-4.547l0,0
	c0-2.515,2.035-4.55,4.547-4.55h128.48C323.096,282.187,325.131,284.223,325.131,286.737L325.131,286.737z"/>
<path style="fill:#FFFFFF;" d="M325.131,307.768c0,2.514-2.035,4.547-4.547,4.547h-128.48c-2.512,0-4.547-2.033-4.547-4.547l0,0
	c0-2.513,2.035-4.549,4.547-4.549h128.48C323.096,303.218,325.131,305.255,325.131,307.768L325.131,307.768z"/>
<path style="fill:#FFFFFF;" d="M325.131,328.801c0,2.509-2.035,4.547-4.547,4.547h-128.48c-2.512,0-4.547-2.038-4.547-4.547l0,0
	c0-2.516,2.035-4.549,4.547-4.549h128.48C323.096,324.251,325.131,326.285,325.131,328.801L325.131,328.801z"/>
<circle style="fill:#EFC84A;" cx="132.621" cy="303.855" r="11.633"/>
<circle style="fill:#EFC84A;" cx="379.35" cy="303.855" r="11.633"/>
<rect x="164.602" y="240.259" style="fill:#992E14;" width="182.275" height="12.367"/>
<g>
</g>
<g>
</g>
<g>
</g>
<g>
</g>
<g>
</g>
<g>
</g>
<g>
</g>
<g>
</g>
<g>
</g>
<g>
</g>
<g>
</g>
<g>
</g>
<g>
</g>
<g>
</g>
<g>
</g>
</svg>
