<?xml version="1.0" encoding="iso-8859-1"?>
<!-- Generator: Adobe Illustrator 17.0.0, SVG Export Plug-In . SVG Version: 6.00 Build 0)  -->
<!DOCTYPE svg PUBLIC "-//W3C//DTD SVG 1.1//EN" "http://www.w3.org/Graphics/SVG/1.1/DTD/svg11.dtd">
<svg version="1.1" id="Layer_1" xmlns="http://www.w3.org/2000/svg" xmlns:xlink="http://www.w3.org/1999/xlink" x="0px" y="0px"
	 width="512px" height="512px" viewBox="0 0 512 512" style="enable-background:new 0 0 512 512;" xml:space="preserve">
<path id="bg_59_" style="fill:#334D5C;" d="M512,256c0,141.382-114.609,256-256,256C114.617,512,0,397.382,0,256
	C0,114.621,114.617,0,256,0C397.391,0,512,114.621,512,256z"/>
<path style="fill:#23363F;" d="M8.201,320.468C36.781,430.641,136.885,512,256,512c119.119,0,219.219-81.359,247.804-191.532H8.201z
	"/>
<path style="fill:#939FA7;" d="M409.973,117.182c4.5-0.917,11.815-1.578,11.815-1.578s-7.417-0.572-11.89-1.459
	c0.545-2.531,2.108-6.494,2.108-6.494s-3.813,1.504-6.349,2.072c-0.852-4.525-1.402-11.854-1.402-11.854s-0.514,7.519-1.384,11.901
	c-2.518-0.524-6.568-2.12-6.568-2.12s1.446,3.671,2.04,6.205c-4.577,0.899-11.821,1.545-11.821,1.545s7.313,0.7,11.845,1.644
	c-0.574,2.534-2.063,6.31-2.063,6.31s3.906-1.539,6.437-2.093c0.838,4.43,1.314,11.874,1.314,11.874s0.637-7.471,1.562-11.862
	c2.537,0.562,6.39,2.081,6.39,2.081S410.572,119.715,409.973,117.182z"/>
<path style="fill:#939FA7;" d="M169.186,57.79c2.76-0.563,7.25-0.968,7.25-0.968s-4.553-0.352-7.295-0.896
	c0.334-1.552,1.293-3.983,1.293-3.983s-2.341,0.923-3.895,1.27c-0.525-2.777-0.861-7.273-0.861-7.273s-0.315,4.612-0.848,7.304
	c-1.549-0.321-4.032-1.301-4.032-1.301s0.888,2.254,1.251,3.808c-2.809,0.551-7.254,0.947-7.254,0.947s4.487,0.429,7.268,1.009
	c-0.351,1.555-1.265,3.871-1.265,3.871s2.398-0.944,3.951-1.283c0.513,2.718,0.804,7.285,0.804,7.285s0.391-4.585,0.959-7.279
	c1.557,0.346,3.922,1.277,3.922,1.277S169.552,59.344,169.186,57.79z"/>
<path style="fill:#939FA7;" d="M107.462,188.465c3.796-0.774,9.968-1.331,9.968-1.331s-6.258-0.482-10.027-1.232
	c0.459-2.132,1.774-5.476,1.774-5.476s-3.216,1.269-5.354,1.748c-0.721-3.82-1.183-10.002-1.183-10.002s-0.434,6.339-1.166,10.043
	c-2.129-0.443-5.541-1.789-5.541-1.789s1.217,3.097,1.717,5.234c-3.861,0.759-9.971,1.301-9.971,1.301s6.169,0.59,9.992,1.388
	c-0.482,2.138-1.738,5.324-1.738,5.324s3.293-1.299,5.43-1.766c0.703,3.736,1.105,10.016,1.105,10.016s0.535-6.303,1.318-10.007
	c2.141,0.474,5.39,1.757,5.39,1.757S107.968,190.6,107.462,188.465z"/>
<path style="fill:#C19C34;" d="M56.68,416.575c7.013,8.691,14.588,16.897,22.66,24.597h56.574V265.697H56.68V416.575z"/>
<polygon style="fill:#EFC84A;" points="113.616,273.204 196.879,214.429 196.879,441.13 113.616,441.13 "/>
<path style="fill:#919191;" d="M85.509,314.897c-8.905,0-16.126,7.217-16.126,16.126v100.12c3.254,3.469,6.607,6.836,10.049,10.117
	h22.203V331.023C101.635,322.114,94.418,314.897,85.509,314.897z"/>
<path style="opacity:0.5;" d="M85.509,314.897c-4.901,0-9.278,2.191-12.235,5.639c2.028-0.92,4.271-1.44,6.637-1.44
	c8.91,0,16.127,7.217,16.127,16.126v106.039h5.598V331.023C101.635,322.114,94.418,314.897,85.509,314.897z"/>
<polygon style="opacity:0.5;" points="196.879,214.429 183.9,223.59 113.523,273.198 113.523,265.697 106.009,265.697 
	106.009,277.343 56.746,277.343 56.746,287.139 106.009,287.139 106.009,441.13 113.523,441.13 113.523,283.235 166.795,245.719 
	166.795,290.738 132.586,290.738 132.586,441.404 178.303,441.404 178.303,441.13 196.879,441.13 "/>
<polygon style="fill:#E27C3E;" points="182.42,212.377 107.799,265.697 107.799,265.638 51.345,265.638 51.345,277.312 
	107.799,277.312 190.585,218.906 "/>
<path style="fill:#C19C34;" d="M455.326,265.697h-79.234v175.475h56.573c8.071-7.703,15.649-15.908,22.661-24.6V265.697z"/>
<polygon style="fill:#EFC84A;" points="398.391,273.204 315.128,214.429 315.128,441.13 398.391,441.13 "/>
<path style="fill:#919191;" d="M442.621,331.023c0-8.909-7.217-16.126-16.123-16.126c-8.908,0-16.125,7.217-16.125,16.126v110.237
	h22.199c3.44-3.281,6.795-6.651,10.049-10.117V331.023z"/>
<path style="opacity:0.5;" d="M426.498,314.897c4.898,0,9.278,2.191,12.234,5.639c-2.027-0.92-4.27-1.44-6.637-1.44
	c-8.908,0-16.125,7.217-16.125,16.126v106.039h-5.598V331.023C410.373,322.114,417.59,314.897,426.498,314.897z"/>
<polygon style="opacity:0.5;" points="315.128,214.429 328.104,223.59 398.482,273.198 398.482,265.697 405.998,265.697 
	405.998,277.343 455.262,277.343 455.262,287.139 405.998,287.139 405.998,441.13 398.482,441.13 398.482,283.235 321.053,228.843 
	"/>
<polygon style="fill:#E27C3E;" points="329.586,212.377 404.209,265.697 404.209,265.638 460.662,265.638 460.662,277.312 
	404.209,277.312 321.422,218.906 "/>
<polygon style="fill:#ECF0F0;" points="264.23,37.85 258.412,37.85 258.412,32.031 253.589,32.031 253.589,37.85 247.771,37.85 
	247.771,42.673 253.589,42.673 253.589,61.461 258.412,61.461 258.412,42.673 264.23,42.673 "/>
<polygon style="fill:#E27C3E;" points="329.599,123.515 182.662,123.515 182.662,112.036 256.212,55.339 329.599,112.036 "/>
<polygon style="fill:#EFC84A;" points="329.599,432.775 182.662,432.775 182.662,123.151 256.212,66.457 329.599,123.151 "/>
<path style="fill:#ECF0F0;" d="M256.129,102.523c-28.213,0-51.076,22.867-51.076,51.075v287.573h102.154V153.599
	C307.207,125.391,284.334,102.523,256.129,102.523z"/>
<path style="opacity:0.5;" d="M256.129,102.523c-13.381,0-25.524,5.187-34.629,13.606c7.674-4.608,16.627-7.31,26.232-7.31
	c28.209,0,51.078,22.867,51.078,51.076v281.275h8.396V153.599C307.207,125.391,284.334,102.523,256.129,102.523z"/>
<path style="fill:#848484;" d="M240.029,290.914c0,4.284-3.472,7.756-7.756,7.756l0,0c-4.285,0-7.757-3.472-7.757-7.756V140.367
	c0-4.288,3.472-7.757,7.757-7.757l0,0c4.284,0,7.756,3.469,7.756,7.757V290.914z"/>
<path style="opacity:0.5;" d="M232.273,132.61c-2.159,0-4.106,0.885-5.516,2.305c0.783-0.265,1.611-0.44,2.484-0.44
	c4.284,0,7.756,3.469,7.756,7.756v150.547c0,2.126-0.86,4.053-2.242,5.452c3.059-1.039,5.273-3.903,5.273-7.315V140.367
	C240.029,136.079,236.558,132.61,232.273,132.61z"/>
<path style="fill:#848484;" d="M262.182,292.26c0,4.311-3.498,7.81-7.812,7.81l0,0c-4.314,0-7.811-3.498-7.811-7.81V126.777
	c0-4.314,3.496-7.812,7.811-7.812l0,0c4.314,0,7.812,3.498,7.812,7.812V292.26z"/>
<path style="opacity:0.5;" d="M254.369,118.965c-2.031,0-3.865,0.795-5.256,2.066c0.777-0.256,1.594-0.432,2.457-0.432
	c4.314,0,7.816,3.498,7.816,7.812v165.482c0,2.28-0.998,4.315-2.559,5.743c3.103-1.036,5.353-3.93,5.353-7.378V126.777
	C262.182,122.463,258.684,118.965,254.369,118.965z"/>
<path style="fill:#848484;" d="M284.809,293.889c0,4.185-3.395,7.58-7.578,7.58l0,0c-4.189,0-7.584-3.395-7.584-7.58V140.191
	c0-4.187,3.395-7.581,7.584-7.581l0,0c4.184,0,7.578,3.395,7.578,7.581V293.889z"/>
<path style="opacity:0.5;" d="M277.23,132.61c-2.621,0-4.926,1.325-6.289,3.344c0.867-0.346,1.802-0.545,2.79-0.545
	c4.184,0,7.578,3.395,7.578,7.581v153.697c0,1.568-0.477,3.027-1.292,4.233c2.801-1.107,4.791-3.832,4.791-7.032V140.191
	C284.809,136.005,281.414,132.61,277.23,132.61z"/>
<polygon style="fill:#EFC84A;" points="329.599,441.067 182.662,441.067 182.662,319.679 256.212,262.982 329.599,319.679 "/>
<polygon style="opacity:0.5;" points="182.662,319.679 182.662,323.383 252.949,269.282 329.599,328.451 329.599,319.679 
	256.212,262.982 "/>
<path style="fill:#ECF0F0;" d="M256.129,314.528c0,0-51.076,22.867-51.076,51.078v75.565h102.154v-75.565
	C307.207,337.396,256.129,314.528,256.129,314.528z"/>
<path style="opacity:0.5;" d="M256.129,314.528c0,0-41.483,18.582-49.671,42.908c12.41-21.042,46.64-36.379,46.64-36.379
	s51.079,22.87,51.079,51.078v69.036h3.03v-75.565C307.207,337.396,256.129,314.528,256.129,314.528z"/>
<polygon style="fill:#E27C3E;" points="256.212,251.867 178.317,311.824 178.317,322.942 256.212,262.982 333.8,322.88 
	333.8,311.765 "/>
<path style="fill:#848484;" d="M289.938,441.172v-60.523c0-19.127-15.504-34.634-34.634-34.634
	c-19.13,0-34.634,15.507-34.634,34.634v60.523H289.938z"/>
<g>
</g>
<g>
</g>
<g>
</g>
<g>
</g>
<g>
</g>
<g>
</g>
<g>
</g>
<g>
</g>
<g>
</g>
<g>
</g>
<g>
</g>
<g>
</g>
<g>
</g>
<g>
</g>
<g>
</g>
</svg>
