<?xml version="1.0" encoding="iso-8859-1"?>
<!-- Generator: Adobe Illustrator 17.0.0, SVG Export Plug-In . SVG Version: 6.00 Build 0)  -->
<!DOCTYPE svg PUBLIC "-//W3C//DTD SVG 1.1//EN" "http://www.w3.org/Graphics/SVG/1.1/DTD/svg11.dtd">
<svg version="1.1" id="Layer_1" xmlns="http://www.w3.org/2000/svg" xmlns:xlink="http://www.w3.org/1999/xlink" x="0px" y="0px"
	 width="512px" height="512px" viewBox="0 0 512 512" style="enable-background:new 0 0 512 512;" xml:space="preserve">
<path id="bg_39_" style="fill:#EFC84A;" d="M512,256.002C512,397.382,397.386,512,256,512C114.615,512,0,397.382,0,256.002
	C0,114.621,114.615,0,256,0C397.386,0,512,114.621,512,256.002z"/>
<path style="fill:#334D5C;" d="M252.742,142.979c-21.998,0-39.894-17.895-39.894-39.893c0-21.997,17.896-39.897,39.894-39.897
	c21.998,0,39.897,17.9,39.897,39.897C292.639,125.084,274.74,142.979,252.742,142.979z M252.742,70.013
	c-18.236,0-33.072,14.834-33.072,33.073c0,18.234,14.836,33.071,33.072,33.071c18.237,0,33.074-14.837,33.074-33.071
	C285.816,84.847,270.979,70.013,252.742,70.013z"/>
<path style="fill:#334D5C;" d="M275.464,121.584c0-2.918-2.37-5.291-5.296-5.291h-34.341c-2.923,0-5.292,2.373-5.292,5.291v58.849
	c0,2.927,2.369,5.291,5.292,5.291h34.341c2.926,0,5.296-2.364,5.296-5.291V121.584z"/>
<path style="fill:#517384;" d="M236.54,150.515c0,0.771-0.627,1.399-1.397,1.399l0,0c-0.772,0-1.397-0.628-1.397-1.399v-25.657
	c0-0.771,0.625-1.396,1.397-1.396l0,0c0.77,0,1.397,0.626,1.397,1.396V150.515z"/>
<path style="fill:#517384;" d="M243.653,150.515c0,0.771-0.626,1.399-1.4,1.399l0,0c-0.77,0-1.395-0.628-1.395-1.399v-25.657
	c0-0.771,0.625-1.396,1.395-1.396l0,0c0.773,0,1.4,0.626,1.4,1.396V150.515z"/>
<path style="fill:#517384;" d="M250.766,150.515c0,0.771-0.625,1.399-1.399,1.399l0,0c-0.771,0-1.395-0.628-1.395-1.399v-25.657
	c0-0.771,0.623-1.396,1.395-1.396l0,0c0.774,0,1.399,0.626,1.399,1.396V150.515z"/>
<path style="fill:#517384;" d="M257.879,150.515c0,0.771-0.625,1.399-1.398,1.399l0,0c-0.771,0-1.395-0.628-1.395-1.399v-25.657
	c0-0.771,0.623-1.396,1.395-1.396l0,0c0.773,0,1.398,0.626,1.398,1.396V150.515z"/>
<path style="fill:#517384;" d="M264.992,150.515c0,0.771-0.624,1.399-1.396,1.399l0,0c-0.772,0-1.397-0.628-1.397-1.399v-25.657
	c0-0.771,0.625-1.396,1.397-1.396l0,0c0.772,0,1.396,0.626,1.396,1.396V150.515z"/>
<path style="fill:#517384;" d="M272.105,150.515c0,0.771-0.624,1.399-1.397,1.399l0,0c-0.771,0-1.396-0.628-1.396-1.399v-25.657
	c0-0.771,0.625-1.396,1.396-1.396l0,0c0.773,0,1.397,0.626,1.397,1.396V150.515z"/>
<path style="fill:#A8842A;" d="M408.878,304.428c0,79.742-64.644,144.384-144.388,144.384c-79.741,0-144.385-64.642-144.385-144.384
	c0-79.737,64.644-144.388,144.385-144.388C344.234,160.04,408.878,224.69,408.878,304.428z"/>
<path style="fill:#334D5C;" d="M398.717,291.223c0,79.736-64.647,144.384-144.388,144.384c-79.742,0-144.386-64.647-144.386-144.384
	c0-79.744,64.644-144.391,144.386-144.391C334.07,146.832,398.717,211.479,398.717,291.223z"/>
<path style="fill:#EBEEEF;" d="M384.158,291.223c0,71.697-58.127,129.83-129.829,129.83c-71.701,0-129.83-58.133-129.83-129.83
	c0-71.704,58.129-129.828,129.83-129.828C326.031,161.395,384.158,219.519,384.158,291.223z"/>
<rect x="252.129" y="165.019" style="fill:#334D5C;" width="4.406" height="23.796"/>
<rect x="252.129" y="392.832" style="fill:#334D5C;" width="4.406" height="23.796"/>
<rect x="128.524" y="288.627" style="fill:#334D5C;" width="23.795" height="4.399"/>
<rect x="356.344" y="288.627" style="fill:#334D5C;" width="23.795" height="4.399"/>
<rect x="171.584" y="198.381" transform="matrix(-0.707 0.7072 -0.7072 -0.707 445.3656 236.034)" style="fill:#334D5C;" width="4.408" height="23.79"/>
<rect x="332.676" y="359.467" transform="matrix(-0.707 0.7072 -0.7072 -0.707 834.2742 397.0853)" style="fill:#334D5C;" width="4.408" height="23.798"/>
<polygon style="fill:#334D5C;" points="166.934,381.339 163.817,378.222 180.642,361.398 183.762,364.51 "/>
<polygon style="fill:#334D5C;" points="328.024,220.252 324.912,217.127 341.737,200.308 344.851,203.425 "/>
<polygon style="fill:#E45136;" points="254.567,209.186 234.805,290.861 274.331,290.861 "/>
<polygon style="fill:#334D5C;" points="234.712,291.201 234.713,291.216 234.712,291.234 234.721,291.234 254.567,373.252 
	274.414,291.234 274.424,291.234 274.42,291.216 274.424,291.201 274.414,291.201 274.331,290.861 234.805,290.861 234.721,291.201 
	"/>
<g>
</g>
<g>
</g>
<g>
</g>
<g>
</g>
<g>
</g>
<g>
</g>
<g>
</g>
<g>
</g>
<g>
</g>
<g>
</g>
<g>
</g>
<g>
</g>
<g>
</g>
<g>
</g>
<g>
</g>
</svg>
