<?xml version="1.0" encoding="iso-8859-1"?>
<!-- Generator: Adobe Illustrator 17.0.0, SVG Export Plug-In . SVG Version: 6.00 Build 0)  -->
<!DOCTYPE svg PUBLIC "-//W3C//DTD SVG 1.1//EN" "http://www.w3.org/Graphics/SVG/1.1/DTD/svg11.dtd">
<svg version="1.1" id="Layer_1" xmlns="http://www.w3.org/2000/svg" xmlns:xlink="http://www.w3.org/1999/xlink" x="0px" y="0px"
	 width="512px" height="512.001px" viewBox="0 0 512 512.001" style="enable-background:new 0 0 512 512.001;" xml:space="preserve"
	>
<circle id="background_62_" style="fill:#E05B49;" cx="256" cy="256.001" r="256"/>
<rect x="319.435" y="314" style="fill:#334D5C;" width="33" height="53"/>
<linearGradient id="SVGID_1_" gradientUnits="userSpaceOnUse" x1="335.9348" y1="359.3619" x2="335.9348" y2="332.4586">
	<stop  offset="0" style="stop-color:#FFFFFF;stop-opacity:0"/>
	<stop  offset="1" style="stop-color:#000000"/>
</linearGradient>
<rect x="319.435" y="314" style="fill:url(#SVGID_1_);" width="33" height="42"/>
<rect x="290.435" y="367" style="fill:#416275;" width="91" height="10"/>
<rect x="72.435" y="121" style="fill:#334D5C;" width="116" height="247"/>
<path style="fill:#334D5C;" d="M463.435,331.467c0,4.713-3.82,8.533-8.533,8.533H218.968c-4.713,0-8.533-3.82-8.533-8.533V181.533
	c0-4.713,3.82-8.533,8.533-8.533h235.934c4.713,0,8.533,3.82,8.533,8.533V331.467z"/>
<path style="fill:#253742;" d="M455.435,325.467c0,4.713-3.82,8.533-8.533,8.533H227.968c-4.713,0-8.533-3.82-8.533-8.533V188.533
	c0-4.713,3.82-8.533,8.533-8.533h218.934c4.713,0,8.533,3.82,8.533,8.533V325.467z"/>
<path style="fill:#EFC84A;" d="M451.435,322.467c0,4.713-3.82,8.533-8.533,8.533H230.968c-4.713,0-8.533-3.82-8.533-8.533V192.533
	c0-4.713,3.82-8.533,8.533-8.533h211.934c4.713,0,8.533,3.82,8.533,8.533V322.467z"/>
<rect x="82.435" y="148" style="fill:#253742;" width="98" height="27"/>
<rect x="84.435" y="150" style="fill:#476B80;" width="94" height="24"/>
<rect x="82.435" y="187" style="fill:#253742;" width="98" height="28"/>
<rect x="84.435" y="189" style="fill:#476B80;" width="94" height="24"/>
<path style="fill:#476B80;" d="M130.448,261.197c-11.744,0-21.299-9.555-21.299-21.298c0-11.745,9.555-21.3,21.299-21.3
	c11.746,0,21.301,9.555,21.301,21.3C151.749,251.642,142.195,261.197,130.448,261.197z"/>
<circle style="fill:#253742;" cx="130.449" cy="239.899" r="19.593"/>
<g>
	<path style="fill:#ECF0F0;" d="M130.435,235c0,0,0,4,0,5s1,1,1,0s0-3,0-5C131.435,234,130.435,234,130.435,235
		C130.435,235,130.435,234,130.435,235z"/>
</g>
<g>
	<path style="fill:#ECF0F0;" d="M128.092,237.004c-2.962,2.778-0.909,7.589,3.146,7.371c1.714-0.092,3.016-1.373,3.611-2.891
		c0.702-1.788-0.241-3.548-1.654-4.61c-0.572-0.429-1.124,0.534-0.56,0.958c2.404,1.806,1.106,5.3-1.796,5.456
		c-3.055,0.165-3.901-3.683-1.964-5.501C129.398,237.299,128.612,236.516,128.092,237.004L128.092,237.004z"/>
</g>
<path style="fill:#EFC84A;" d="M101.435,137.867c0,1.178-0.955,2.133-2.134,2.133H86.569c-1.179,0-2.134-0.955-2.134-2.133v-0.733
	c0-1.178,0.955-2.134,2.134-2.134h12.732c1.179,0,2.134,0.956,2.134,2.134V137.867z"/>
<path style="fill:#45B39C;" d="M123.435,137.867c0,1.178-0.955,2.133-2.133,2.133h-12.734c-1.178,0-2.133-0.955-2.133-2.133v-0.733
	c0-1.178,0.955-2.134,2.133-2.134h12.734c1.178,0,2.133,0.956,2.133,2.134V137.867z"/>
<path style="fill:#E27C3E;" d="M145.435,137.867c0,1.178-0.955,2.133-2.134,2.133h-12.732c-1.179,0-2.134-0.955-2.134-2.133v-0.733
	c0-1.178,0.955-2.134,2.134-2.134h12.732c1.179,0,2.134,0.956,2.134,2.134V137.867z"/>
<polygon style="fill:#253742;" points="179.943,377 80.956,377 72.423,368 188.476,368 "/>
<linearGradient id="SVGID_2_" gradientUnits="userSpaceOnUse" x1="129.5656" y1="380.866" x2="134.8359" y2="304.1519">
	<stop  offset="0" style="stop-color:#FFFFFF;stop-opacity:0"/>
	<stop  offset="1" style="stop-color:#000000"/>
</linearGradient>
<polygon style="fill:url(#SVGID_2_);" points="179.943,377 80.956,377 72.423,368 188.476,368 "/>
<rect x="72.435" y="121" style="fill:#233540;" width="116" height="5"/>
<g>
	<rect x="87.435" y="285" style="fill:#253742;" width="86" height="2"/>
</g>
<g>
	<rect x="87.435" y="298" style="fill:#253742;" width="86" height="2"/>
</g>
<g>
	<rect x="87.435" y="314" style="fill:#253742;" width="86" height="2"/>
</g>
<polygon style="fill:#FCDD79;" points="352.552,184 270.104,331 333.177,331 415.626,184 "/>
<polygon style="fill:#FCDD79;" points="451.435,184 439.975,184 357.527,331 395.178,331 451.435,230.562 "/>
<g>
</g>
<g>
</g>
<g>
</g>
<g>
</g>
<g>
</g>
<g>
</g>
<g>
</g>
<g>
</g>
<g>
</g>
<g>
</g>
<g>
</g>
<g>
</g>
<g>
</g>
<g>
</g>
<g>
</g>
</svg>
