<?xml version="1.0" encoding="iso-8859-1"?>
<!-- Generator: Adobe Illustrator 17.0.0, SVG Export Plug-In . SVG Version: 6.00 Build 0)  -->
<!DOCTYPE svg PUBLIC "-//W3C//DTD SVG 1.1//EN" "http://www.w3.org/Graphics/SVG/1.1/DTD/svg11.dtd">
<svg version="1.1" id="Layer_1" xmlns="http://www.w3.org/2000/svg" xmlns:xlink="http://www.w3.org/1999/xlink" x="0px" y="0px"
	 width="512px" height="512px" viewBox="0 0 512 512" style="enable-background:new 0 0 512 512;" xml:space="preserve">
<circle style="fill:#334D5C;" cx="256" cy="256" r="256"/>
<g>
	<path style="fill:#1B2930;" d="M159,396.843c0,10.497-6.214,19.009-14.001,19.009l0,0c-7.786,0-13.999-8.512-13.999-19.009V115.159
		c0-10.498,6.213-19.01,13.999-19.01l0,0c7.786,0,14.001,8.512,14.001,19.01V396.843z"/>
	<g>
		<path style="fill:#486D82;" d="M156.654,396.843c-0.186,6.216-2.458,13.463-8.792,15.934c-7.022,2.739-11.981-5.014-13.551-10.621
			c-0.687-2.455-0.625-5-0.625-7.519c0-6.499,0-12.999,0-19.498c0-26.713,0-53.427,0-80.14c0-56.181,0-112.362,0-168.543
			c0-3.764,0-7.528,0-11.292c0-5.865,2.194-12.017,7.316-15.262c6.64-4.206,12.666,2.898,14.637,8.553
			c0.985,2.826,1.015,5.777,1.015,8.718c0,17.982,0,35.965,0,53.947c0,61.495,0,122.991,0,184.486
			C156.654,369.352,156.654,383.097,156.654,396.843c0,3.374,5.232,3.374,5.232,0c0-43.122,0-86.244,0-129.366
			c0-49.97,0-99.94,0-149.91c0-10.775-4.795-24.684-17.873-23.971c-12.019,0.655-15.56,14.588-15.56,24.399
			c0,18.807,0,37.614,0,56.421c0,61.359,0,122.717,0,184.076c0,11.982,0,23.963,0,35.945c0,6.834,1.293,13.198,5.69,18.69
			c4.4,5.496,11.773,6.574,17.834,3.491c7.014-3.568,9.691-12.536,9.908-19.774C161.988,393.467,156.755,393.477,156.654,396.843z"
			/>
	</g>
</g>
<path style="fill:#E2E6E6;" d="M176,339.595c0,8.508-6.898,15.405-15.405,15.405h-30.189c-8.508,0-15.405-6.897-15.405-15.405
	v-63.189c0-8.508,6.897-15.405,15.405-15.405h30.189c8.508,0,15.405,6.898,15.405,15.405V339.595z"/>
<rect x="115" y="285" style="fill:#FBFFFF;" width="61" height="7"/>
<rect x="115" y="304" style="fill:#FBFFFF;" width="61" height="8"/>
<rect x="115" y="321" style="fill:#FBFFFF;" width="61" height="10"/>
<g>
	<path style="fill:#1B2930;" d="M267,396.843c0,10.497-6.212,19.009-14,19.009l0,0c-7.787,0-14-8.512-14-19.009V115.159
		c0-10.498,6.212-19.01,14-19.01l0,0c7.788,0,14,8.512,14,19.01V396.843z"/>
	<g>
		<path style="fill:#486D82;" d="M264.862,396.843c-0.186,6.216-2.458,13.463-8.792,15.934c-7.023,2.739-11.982-5.013-13.552-10.621
			c-0.687-2.455-0.625-5-0.625-7.519c0-6.499,0-12.999,0-19.498c0-26.713,0-53.427,0-80.14c0-56.181,0-112.362,0-168.543
			c0-3.764,0-7.528,0-11.292c0-5.865,2.194-12.017,7.316-15.262c6.641-4.206,12.667,2.897,14.639,8.553
			c0.985,2.826,1.015,5.777,1.015,8.718c0,17.982,0,35.965,0,53.947c0,61.495,0,122.991,0,184.486
			C264.862,369.352,264.862,383.097,264.862,396.843c0,3.374,5.232,3.374,5.232,0c0-43.122,0-86.244,0-129.366
			c0-49.97,0-99.94,0-149.91c0-10.776-4.795-24.684-17.874-23.971c-12.019,0.655-15.56,14.587-15.56,24.399
			c0,18.807,0,37.614,0,56.421c0,61.359,0,122.717,0,184.076c0,11.982,0,23.963,0,35.945c0,6.834,1.293,13.198,5.691,18.69
			c4.401,5.497,11.775,6.574,17.836,3.491c7.014-3.568,9.691-12.536,9.908-19.774C270.196,393.467,264.963,393.477,264.862,396.843z
			"/>
	</g>
</g>
<g>
	<path style="fill:#1B2930;" d="M382,396.843c0,10.497-6.713,19.009-14.5,19.009l0,0c-7.786,0-14.5-8.512-14.5-19.009V115.159
		c0-10.498,6.713-19.01,14.5-19.01l0,0c7.787,0,14.5,8.512,14.5,19.01V396.843z"/>
	<g>
		<path style="fill:#486D82;" d="M378.971,396.843c-0.186,6.216-2.458,13.463-8.791,15.934c-7.022,2.739-11.981-5.014-13.551-10.621
			c-0.687-2.455-0.625-5-0.625-7.519c0-6.499,0-12.999,0-19.498c0-26.713,0-53.427,0-80.14c0-56.181,0-112.362,0-168.543
			c0-3.764,0-7.528,0-11.292c0-5.865,2.194-12.017,7.316-15.262c6.64-4.206,12.666,2.898,14.637,8.553
			c0.985,2.826,1.015,5.777,1.015,8.718c0,17.982,0,35.965,0,53.947c0,61.495,0,122.991,0,184.486
			C378.971,369.352,378.971,383.097,378.971,396.843c0,3.374,5.232,3.374,5.232,0c0-43.122,0-86.244,0-129.366
			c0-49.97,0-99.94,0-149.91c0-10.775-4.795-24.684-17.873-23.971c-12.019,0.655-15.56,14.588-15.56,24.399
			c0,18.807,0,37.614,0,56.421c0,61.359,0,122.717,0,184.076c0,11.982,0,23.963,0,35.945c0,6.834,1.293,13.198,5.69,18.69
			c4.4,5.496,11.774,6.574,17.834,3.491c7.014-3.568,9.691-12.536,9.908-19.774C384.304,393.467,379.072,393.477,378.971,396.843z"
			/>
	</g>
</g>
<path style="fill:#E2E6E6;" d="M398,243.596c0,8.508-6.897,15.405-15.404,15.405h-30.191c-8.508,0-15.404-6.897-15.404-15.405
	v-63.19c0-8.508,6.897-15.405,15.404-15.405h30.191c8.508,0,15.404,6.897,15.404,15.405V243.596z"/>
<rect x="337" y="189.001" style="fill:#FBFFFF;" width="61" height="9"/>
<rect x="337" y="210.001" style="fill:#FBFFFF;" width="61" height="6"/>
<rect x="337" y="227.001" style="fill:#FBFFFF;" width="61" height="10"/>
<path style="fill:#E2E6E6;" d="M283,248.595c0,8.508-6.897,15.405-15.405,15.405h-30.189c-8.508,0-15.405-6.897-15.405-15.405
	v-63.189c0-8.508,6.898-15.405,15.405-15.405h30.189c8.508,0,15.405,6.897,15.405,15.405V248.595z"/>
<rect x="222" y="194.001" style="fill:#FBFFFF;" width="61" height="7"/>
<rect x="222" y="213.001" style="fill:#FBFFFF;" width="61" height="8"/>
<rect x="222" y="230.001" style="fill:#FBFFFF;" width="61" height="10"/>
<g>
</g>
<g>
</g>
<g>
</g>
<g>
</g>
<g>
</g>
<g>
</g>
<g>
</g>
<g>
</g>
<g>
</g>
<g>
</g>
<g>
</g>
<g>
</g>
<g>
</g>
<g>
</g>
<g>
</g>
</svg>
