<?xml version="1.0" encoding="iso-8859-1"?>
<!-- Generator: Adobe Illustrator 17.0.0, SVG Export Plug-In . SVG Version: 6.00 Build 0)  -->
<!DOCTYPE svg PUBLIC "-//W3C//DTD SVG 1.1//EN" "http://www.w3.org/Graphics/SVG/1.1/DTD/svg11.dtd">
<svg version="1.1" id="Layer_1" xmlns="http://www.w3.org/2000/svg" xmlns:xlink="http://www.w3.org/1999/xlink" x="0px" y="0px"
	 width="512px" height="512px" viewBox="0 0 512 512" style="enable-background:new 0 0 512 512;" xml:space="preserve">
<circle id="background_25_" style="fill:#45B39C;" cx="256" cy="256" r="256"/>
<path style="fill:#CFCFCF;" d="M364.249,156.299c6.542,6.543,6.542,17.249,0,23.791l-141.08,141.08
	c-6.543,6.543-17.249,6.543-23.791,0l-89.692-89.691c-6.542-6.543-6.542-17.248,0-23.791l141.08-141.08
	c6.543-6.543,17.249-6.543,23.791,0L364.249,156.299z"/>
<path style="fill:#334D5C;" d="M266.458,251.142c2.596,2.595,2.596,6.792,0.001,9.388l-0.022,0.022l-3.025,3.024l-3.791,3.791
	c-0.158,0.158-0.429,0.157-0.587,0l-13.652-13.652c-0.181-0.182-0.181-0.452-0.023-0.609l3.791-3.791l2.324-2.325
	c2.482-2.482,6.499-2.482,8.981,0.001c0.654,0.654,1.15,1.422,1.422,2.233C263.548,249.27,265.195,249.878,266.458,251.142z
	 M255.085,251.232l-1.873,1.873c-0.067,0.067-0.067,0.203,0.022,0.293l0.858,0.857c0.067,0.068,0.18,0.045,0.248-0.023l1.872-1.873
	c0.227-0.226,0.158-0.655-0.157-0.97C255.74,251.074,255.311,251.006,255.085,251.232z M262.058,255.542
	c-0.406-0.406-0.992-0.452-1.309-0.136c-0.022,0.023-0.022,0.023-0.022,0.023l-2.595,2.595c-0.068,0.067-0.091,0.181-0.022,0.248
	l1.219,1.219c0.067,0.067,0.203,0.067,0.271,0l2.595-2.595c0,0,0,0,0.022-0.024C262.532,256.558,262.486,255.971,262.058,255.542z"
	/>
<path style="fill:#334D5C;" d="M264.992,233.473c0.18-0.182,0.496-0.227,0.699-0.158l19.655,7.785
	c0.203,0.067,0.248,0.293,0.09,0.451l-3.655,3.656c-0.158,0.158-0.474,0.248-0.7,0.158l-1.061-0.385
	c-0.226-0.09-0.541,0-0.699,0.158l-4.288,4.287c-0.157,0.158-0.248,0.475-0.157,0.701l0.384,1.059c0.09,0.226,0.022,0.52-0.158,0.7
	l-3.656,3.655c-0.157,0.158-0.384,0.112-0.451-0.091l-7.785-19.654c-0.067-0.203-0.022-0.52,0.158-0.7L264.992,233.473z
	 M274.086,243.062c0.226-0.225,0.158-0.474-0.113-0.564l-2.008-0.744c-0.294-0.112-0.429,0.023-0.316,0.316l0.745,2.008
	c0.09,0.271,0.339,0.339,0.564,0.113L274.086,243.062z"/>
<path style="fill:#334D5C;" d="M284.579,213.885c0.181-0.181,0.452-0.181,0.632,0l13.653,13.652c0.157,0.158,0.157,0.43-0.022,0.609
	l-3.656,3.656c-0.158,0.158-0.474,0.248-0.722,0.18l-9.072-2.392c-0.226-0.046-0.293,0.022-0.112,0.203l5.664,5.664
	c0.157,0.157,0.158,0.429-0.022,0.609l-3.656,3.655c-0.158,0.158-0.429,0.158-0.587,0l-13.652-13.652
	c-0.18-0.18-0.181-0.451-0.022-0.609l3.655-3.656c0.181-0.18,0.497-0.27,0.745-0.202l9.071,2.392
	c0.248,0.068,0.294-0.021,0.113-0.203l-5.642-5.641c-0.181-0.181-0.181-0.452-0.022-0.609L284.579,213.885z"/>
<path style="fill:#334D5C;" d="M291.101,207.363c0.181-0.181,0.452-0.181,0.632,0l3.859,3.859c0.158,0.157,0.248,0.112,0.203-0.113
	l-1.422-6.521c-0.045-0.227,0.045-0.542,0.226-0.723l4.107-4.107c0.157-0.158,0.338-0.112,0.384,0.113l2.099,10.178
	c0.045,0.225,0.293,0.474,0.496,0.541l11.486,2.73c0.226,0.045,0.271,0.227,0.09,0.406l-4.107,4.107
	c-0.158,0.158-0.474,0.248-0.7,0.203l-7.424-1.692c-0.248-0.067-0.294,0.023-0.113,0.202l4.469,4.469
	c0.157,0.158,0.157,0.429-0.023,0.609l-3.656,3.656c-0.158,0.158-0.429,0.157-0.587,0l-13.652-13.653
	c-0.18-0.181-0.181-0.451-0.023-0.609L291.101,207.363z"/>
<rect x="229.959" y="230.281" transform="matrix(0.7071 -0.7071 0.7071 0.7071 -81.0958 266.4615)" style="fill:#CFCFCF;" width="102.282" height="1.682"/>
<rect x="224.963" y="225.285" transform="matrix(0.7071 -0.7071 0.7071 0.7071 -79.0264 261.4655)" style="fill:#CFCFCF;" width="102.282" height="1.682"/>
<rect x="235.192" y="235.515" transform="matrix(0.7071 -0.7071 0.7071 0.7071 -83.2643 271.693)" style="fill:#CFCFCF;" width="102.283" height="1.682"/>
<path style="opacity:0.2;fill:#5D5D5D;" d="M109.686,207.688l4.023-4.023l255.371-37.076c0.457,4.83-1.153,9.824-4.831,13.502
	l-141.08,141.08c-6.543,6.543-17.249,6.543-23.791,0l-89.692-89.691C103.144,224.936,103.144,214.23,109.686,207.688z"/>
<rect x="88.387" y="146.413" transform="matrix(0.7071 -0.7071 0.7071 0.7071 -54.4398 192.351)" style="fill:#141E24;" width="233.163" height="30.954"/>
<path style="fill:#AFB3B3;" d="M211.986,236.713c3.926,3.926,3.926,10.35,0,14.274l-25.218,25.218
	c-3.926,3.926-10.35,3.926-14.274,0l-15.941-15.94c-3.926-3.926-3.926-10.35,0-14.274l25.219-25.218
	c3.926-3.926,10.349-3.926,14.274,0L211.986,236.713z"/>
<path style="fill:#ECF0F0;" d="M184.39,273.826c-2.624,2.624-6.893,2.624-9.517,0l-15.94-15.94c-2.623-2.624-2.623-6.893,0-9.517
	l25.219-25.218c2.624-2.624,6.893-2.624,9.517,0l15.939,15.939c2.624,2.623,2.624,6.893,0,9.517L184.39,273.826z"/>
<rect x="183.417" y="155.287" transform="matrix(0.7071 -0.7071 0.7071 0.7071 -43.6911 226.6286)" style="fill:#FBFFFF;" width="136.601" height="21.534"/>
<g>
	<g>
		<path style="fill:#334D5C;" d="M221.86,229.932c8.814-8.814,17.629-17.629,26.444-26.443
			c14.969-14.969,29.936-29.938,44.905-44.906c4.925-4.924,9.849-9.849,14.773-14.773c1.534-1.533-0.845-3.912-2.379-2.379
			c-8.815,8.814-17.63,17.63-26.444,26.445c-14.969,14.968-29.938,29.936-44.906,44.905c-4.925,4.925-9.849,9.849-14.773,14.772
			C217.946,229.088,220.326,231.467,221.86,229.932L221.86,229.932z"/>
	</g>
</g>
<g>
	
		<rect x="269.077" y="137.467" transform="matrix(0.7071 0.7071 -0.7071 0.7071 217.4333 -133.5515)" style="fill:#334D5C;" width="1.682" height="116.413"/>
</g>
<g>
	
		<rect x="276.452" y="144.842" transform="matrix(0.7071 0.7071 -0.7071 0.7071 224.8087 -136.6064)" style="fill:#334D5C;" width="1.682" height="116.413"/>
</g>
<path style="fill:#ECF0F0;" d="M211.986,236.713c3.926,3.926,3.926,10.35,0,14.274l-25.218,25.218
	c-3.926,3.926-10.35,3.926-14.274,0l-15.941-15.94c-3.926-3.926-3.926-10.35,0-14.274l25.219-25.218
	c3.926-3.926,10.349-3.926,14.274,0L211.986,236.713z"/>
<path style="fill:#334D5C;" d="M402.314,280.488c6.542,6.543,6.542,17.248,0,23.791l-141.08,141.08
	c-6.543,6.543-17.249,6.543-23.791,0l-89.692-89.691c-6.542-6.543-6.542-17.249,0-23.791l141.08-141.08
	c6.543-6.543,17.249-6.543,23.791,0L402.314,280.488z"/>
<path style="opacity:0.2;fill:#5D5D5D;" d="M147.688,331.94l4.023-4.024l255.37-37.076c0.457,4.83-1.152,9.824-4.831,13.502
	l-141.08,141.08c-6.543,6.543-17.186,6.48-23.728-0.062l-89.692-89.691C141.209,349.125,141.145,338.482,147.688,331.94z"/>
<g>
	<path style="fill:#ECF0F0;" d="M237.851,393.157l-0.013,0.013l-0.343,1.147l-0.554-0.329l0.436-1.438l0.494-0.494l4.285,4.285
		l-0.561,0.561L237.851,393.157z"/>
	<path style="fill:#ECF0F0;" d="M243.716,394.781l-0.355-0.355l0.013-0.896c0.053-2.137-0.007-3.185-0.646-3.837
		c-0.436-0.436-1.049-0.627-1.688,0.013c-0.389,0.389-0.514,0.91-0.546,1.273l-0.594-0.225c0.046-0.547,0.283-1.154,0.778-1.648
		c0.923-0.922,1.944-0.679,2.558-0.065c0.79,0.79,0.857,2.004,0.824,3.777l-0.027,0.658l0.014,0.014l1.925-1.925l0.481,0.481
		L243.716,394.781z"/>
	<path style="fill:#ECF0F0;" d="M246.568,390.598c0.271-0.06,0.817-0.277,1.22-0.679c0.745-0.745,0.501-1.45,0.139-1.8
		c-0.606-0.594-1.405-0.311-1.965,0.25l-0.323,0.322l-0.435-0.435l0.322-0.323c0.422-0.422,0.738-1.173,0.23-1.681
		c-0.342-0.342-0.863-0.429-1.396,0.105c-0.343,0.343-0.521,0.824-0.574,1.141l-0.573-0.271c0.059-0.389,0.33-0.988,0.792-1.449
		c0.844-0.844,1.727-0.726,2.247-0.205c0.441,0.441,0.554,1.081,0.218,1.8l0.013,0.013c0.633-0.422,1.458-0.454,2.057,0.145
		c0.687,0.687,0.752,1.82-0.276,2.849c-0.481,0.481-1.056,0.751-1.404,0.824L246.568,390.598z"/>
	<path style="fill:#ECF0F0;" d="M252.269,386.229l-1.167-1.166l-1.99,1.99l-0.383-0.383l-0.824-4.646l0.627-0.627l2.663,2.663
		l0.6-0.6l0.455,0.455l-0.6,0.6l1.167,1.167L252.269,386.229z M250.647,384.607l-1.431-1.432c-0.224-0.223-0.441-0.454-0.651-0.691
		l-0.021,0.02c0.118,0.383,0.197,0.672,0.277,0.989l0.408,2.505l0.014,0.014L250.647,384.607z"/>
	<path style="fill:#ECF0F0;" d="M255.409,375.494l-1.636,1.635l0.937,1.266c0.086-0.112,0.165-0.217,0.324-0.375
		c0.329-0.33,0.73-0.588,1.152-0.693c0.528-0.145,1.174-0.053,1.715,0.488c0.837,0.838,0.797,2.129-0.132,3.059
		c-0.469,0.469-0.996,0.732-1.332,0.805l-0.297-0.588c0.284-0.071,0.766-0.289,1.154-0.678c0.547-0.547,0.659-1.371,0.085-1.945
		c-0.56-0.547-1.324-0.573-2.182,0.284c-0.244,0.243-0.408,0.462-0.547,0.64l-1.78-2.334l2.05-2.051L255.409,375.494z"/>
	<path style="fill:#ECF0F0;" d="M258.598,372.146c-0.125,0.113-0.271,0.271-0.408,0.463c-0.759,1.061-0.574,2.207,0.032,3.012
		l0.021-0.02c-0.066-0.475,0.066-1.055,0.54-1.529c0.759-0.758,1.84-0.745,2.677,0.092c0.785,0.785,0.976,2.044,0.086,2.934
		c-0.917,0.917-2.229,0.805-3.343-0.31c-0.844-0.844-1.207-1.813-1.207-2.657c0.007-0.705,0.264-1.397,0.739-2.004
		c0.145-0.197,0.283-0.35,0.389-0.455L258.598,372.146z M260.905,374.784c-0.613-0.613-1.332-0.633-1.866-0.099
		c-0.349,0.35-0.454,0.89-0.303,1.357c0.025,0.105,0.085,0.218,0.19,0.323c0.72,0.692,1.562,0.89,2.17,0.284
		C261.598,376.148,261.518,375.396,260.905,374.784z"/>
	<path style="fill:#ECF0F0;" d="M261.905,368.022l0.382,0.382l2.037,5.77l-0.6,0.6l-1.932-5.65l-0.014-0.014l-2.097,2.097
		l-0.48-0.48L261.905,368.022z"/>
	<path style="fill:#ECF0F0;" d="M265.647,370.675c-0.541-0.541-0.6-1.245-0.297-1.997l-0.026-0.014
		c-0.699,0.25-1.272,0.086-1.642-0.283c-0.68-0.68-0.566-1.714,0.185-2.465c0.831-0.831,1.767-0.726,2.301-0.191
		c0.362,0.362,0.573,0.929,0.297,1.707l0.02,0.02c0.745-0.323,1.45-0.276,1.971,0.244c0.745,0.745,0.606,1.885-0.211,2.703
		C267.348,371.295,266.273,371.301,265.647,370.675z M264.19,367.794c0.428,0.428,0.982,0.337,1.608-0.026
		c0.244-0.494,0.264-1.041-0.126-1.431c-0.342-0.342-0.902-0.494-1.423,0.026C263.769,366.845,263.821,367.425,264.19,367.794z
		 M267.929,368.342c-0.521-0.521-1.135-0.409-1.88,0.006c-0.355,0.646-0.297,1.246,0.112,1.654c0.415,0.455,1.127,0.508,1.675-0.039
		C268.356,369.442,268.37,368.783,267.929,368.342z"/>
	<path style="fill:#ECF0F0;" d="M272.888,364.792c0.139-0.112,0.271-0.271,0.449-0.487c0.29-0.383,0.468-0.838,0.481-1.312
		c0.026-0.54-0.146-1.121-0.574-1.707l-0.02,0.02c0.053,0.527-0.118,1.042-0.547,1.471c-0.771,0.771-1.846,0.686-2.578-0.047
		c-0.811-0.811-0.936-2.109-0.059-2.986c0.876-0.877,2.129-0.705,3.223,0.389c0.943,0.943,1.285,1.918,1.272,2.749
		c-0.007,0.653-0.264,1.306-0.672,1.82c-0.179,0.243-0.356,0.435-0.502,0.566L272.888,364.792z M270.634,362.116
		c0.533,0.533,1.232,0.586,1.733,0.085c0.389-0.389,0.501-0.884,0.396-1.292c-0.02-0.086-0.066-0.172-0.158-0.264
		c-0.731-0.731-1.562-1.022-2.169-0.415C269.941,360.725,270.026,361.509,270.634,362.116z"/>
	<path style="fill:#ECF0F0;" d="M273.855,357.153l-0.013,0.013l-0.343,1.147l-0.554-0.329l0.436-1.438l0.494-0.494l4.285,4.285
		l-0.561,0.561L273.855,357.153z"/>
	<path style="fill:#ECF0F0;" d="M280.379,353.74c1.457,1.457,1.721,2.803,0.771,3.752c-0.837,0.837-2.188,0.62-3.619-0.785
		c-1.437-1.437-1.608-2.847-0.738-3.717C277.696,352.087,279.015,352.376,280.379,353.74z M278.118,356.134
		c1.114,1.114,2.09,1.404,2.617,0.877c0.594-0.593,0.185-1.569-0.909-2.663c-1.056-1.056-2.018-1.477-2.617-0.877
		C276.701,353.979,276.951,354.967,278.118,356.134z"/>
	<path style="fill:#ECF0F0;" d="M280.614,350.394l-0.014,0.013l-0.342,1.148l-0.554-0.33l0.435-1.437l0.495-0.495l4.285,4.285
		l-0.561,0.561L280.614,350.394z"/>
	<path style="fill:#ECF0F0;" d="M286.787,344.221l-0.013,0.014l-0.343,1.146l-0.554-0.329l0.436-1.437l0.494-0.495l4.285,4.285
		l-0.561,0.561L286.787,344.221z"/>
	<path style="fill:#ECF0F0;" d="M290.167,340.841l-0.014,0.013l-0.342,1.148l-0.554-0.33l0.435-1.437l0.495-0.495l4.285,4.285
		l-0.561,0.561L290.167,340.841z"/>
	<path style="fill:#ECF0F0;" d="M296.032,342.466l-0.356-0.356l0.014-0.896c0.052-2.137-0.007-3.185-0.646-3.837
		c-0.436-0.436-1.049-0.626-1.688,0.013c-0.389,0.389-0.514,0.91-0.547,1.273l-0.594-0.225c0.047-0.547,0.284-1.153,0.778-1.648
		c0.923-0.922,1.945-0.678,2.559-0.064c0.79,0.789,0.856,2.004,0.824,3.777l-0.027,0.658l0.014,0.014l1.925-1.926l0.481,0.482
		L296.032,342.466z"/>
	<path style="fill:#ECF0F0;" d="M296.926,334.082l-0.013,0.013l-0.343,1.147l-0.554-0.329l0.436-1.438l0.494-0.494l4.285,4.285
		l-0.561,0.561L296.926,334.082z"/>
</g>
<g>
	<path style="fill:#ECF0F0;" d="M271.452,240.967c1.893,1.893,1.893,4.953,0,6.846l-0.017,0.017l-2.205,2.205l-2.765,2.765
		c-0.115,0.115-0.312,0.115-0.428,0l-9.956-9.956c-0.132-0.132-0.132-0.329-0.017-0.444l2.765-2.765l1.695-1.694
		c1.81-1.811,4.739-1.811,6.549,0c0.478,0.477,0.84,1.036,1.037,1.629C269.329,239.602,270.53,240.045,271.452,240.967z
		 M263.158,241.033l-1.366,1.365c-0.049,0.049-0.049,0.148,0.017,0.214l0.625,0.626c0.05,0.049,0.132,0.032,0.182-0.018l1.365-1.365
		c0.165-0.164,0.115-0.477-0.114-0.707C263.636,240.918,263.322,240.868,263.158,241.033z M268.243,244.176
		c-0.296-0.296-0.724-0.329-0.954-0.099c-0.017,0.017-0.017,0.017-0.017,0.017l-1.893,1.893c-0.05,0.049-0.065,0.131-0.017,0.181
		l0.889,0.889c0.05,0.05,0.148,0.05,0.197,0l1.893-1.892c0,0,0,0,0.017-0.018C268.589,244.916,268.556,244.488,268.243,244.176z"/>
	<path style="fill:#ECF0F0;" d="M270.383,228.082c0.131-0.133,0.362-0.165,0.51-0.115l14.333,5.678
		c0.148,0.049,0.182,0.213,0.066,0.328l-2.666,2.666c-0.115,0.115-0.346,0.182-0.51,0.115l-0.774-0.279
		c-0.164-0.066-0.395,0-0.51,0.115l-3.127,3.127c-0.115,0.114-0.181,0.345-0.115,0.51l0.28,0.773
		c0.066,0.164,0.017,0.379-0.115,0.51l-2.666,2.666c-0.115,0.115-0.279,0.082-0.329-0.066l-5.677-14.332
		c-0.05-0.148-0.018-0.379,0.114-0.512L270.383,228.082z M277.015,235.076c0.164-0.165,0.115-0.346-0.083-0.412l-1.464-0.543
		c-0.214-0.082-0.312,0.017-0.23,0.23l0.543,1.465c0.065,0.197,0.247,0.246,0.411,0.082L277.015,235.076z"/>
	<path style="fill:#ECF0F0;" d="M284.666,213.797c0.132-0.131,0.33-0.131,0.461,0l9.956,9.957c0.115,0.115,0.115,0.312-0.017,0.443
		l-2.665,2.666c-0.115,0.115-0.346,0.182-0.527,0.133l-6.615-1.745c-0.164-0.032-0.214,0.017-0.082,0.147l4.131,4.131
		c0.115,0.115,0.115,0.312-0.017,0.445l-2.666,2.665c-0.115,0.116-0.312,0.115-0.428,0l-9.956-9.956
		c-0.132-0.131-0.132-0.328-0.017-0.444l2.666-2.665c0.132-0.133,0.361-0.198,0.543-0.148l6.615,1.744
		c0.181,0.049,0.214-0.017,0.082-0.148l-4.113-4.113c-0.132-0.132-0.132-0.33-0.017-0.445L284.666,213.797z"/>
	<path style="fill:#ECF0F0;" d="M289.422,209.041c0.132-0.131,0.33-0.131,0.461,0l2.815,2.814c0.115,0.115,0.181,0.082,0.148-0.082
		l-1.037-4.756c-0.033-0.164,0.033-0.395,0.164-0.527l2.995-2.994c0.115-0.115,0.247-0.082,0.28,0.082l1.53,7.422
		c0.032,0.164,0.214,0.346,0.362,0.395l8.376,1.992c0.165,0.032,0.197,0.164,0.065,0.295l-2.994,2.996
		c-0.115,0.115-0.346,0.181-0.511,0.148l-5.414-1.234c-0.181-0.05-0.214,0.016-0.082,0.148l3.258,3.259
		c0.115,0.115,0.115,0.312-0.017,0.443l-2.665,2.666c-0.115,0.115-0.314,0.115-0.429,0l-9.955-9.955
		c-0.132-0.132-0.132-0.33-0.017-0.445L289.422,209.041z"/>
</g>
<rect x="244.704" y="225.858" transform="matrix(0.7071 -0.7071 0.7071 0.7071 -77.4519 265.7434)" style="fill:#334D5C;" width="74.693" height="1.01"/>
<rect x="241.136" y="222.29" transform="matrix(0.7071 -0.7071 0.7071 0.7071 -75.9738 262.1753)" style="fill:#334D5C;" width="74.693" height="1.01"/>
<rect x="248.036" y="229.19" transform="matrix(0.7071 -0.7071 0.7071 0.7071 -78.8324 269.0715)" style="fill:#334D5C;" width="74.692" height="1.009"/>
<circle style="fill:#EFC84A;" cx="377.28" cy="293.276" r="14.505"/>
<circle style="fill:#EFC84A;" cx="377.28" cy="293.276" r="14.505"/>
<circle style="fill:#E05B49;" cx="363.604" cy="306.952" r="14.505"/>
<path style="fill:#E05B49;" d="M376.227,299.809c-0.095-0.168-0.193-0.334-0.295-0.498c-0.007-0.01-0.014-0.021-0.021-0.033v0.001
	c-0.249-0.397-0.519-0.785-0.809-1.163c-0.05-0.064-0.099-0.129-0.149-0.192c-0.072-0.09-0.146-0.179-0.22-0.269
	c-0.078-0.094-0.158-0.185-0.239-0.278c-0.059-0.067-0.117-0.134-0.178-0.2c-0.148-0.162-0.299-0.322-0.456-0.48
	c-1.34-1.339-2.878-2.357-4.519-3.064c-0.007-0.003-0.015-0.006-0.022-0.01c-0.588-0.252-1.19-0.463-1.799-0.634
	c-0.005-0.001-0.01-0.003-0.014-0.003c-0.3-0.084-0.601-0.158-0.903-0.221c-0.009-0.002-0.018-0.004-0.027-0.006
	c-0.606-0.127-1.219-0.214-1.834-0.262c-0.032-0.003-0.064-0.005-0.097-0.008c-0.289-0.02-0.58-0.033-0.87-0.037
	c-0.012,0-0.024,0-0.036-0.001c-0.314-0.003-0.627,0.005-0.94,0.022l0,0l0,0c-3.439,0.19-6.825,1.597-9.452,4.225
	c-5.665,5.665-5.665,14.849,0,20.513c5.664,5.665,14.849,5.665,20.514,0.001c2.627-2.628,4.034-6.013,4.224-9.452l0,0v-0.002
	c0.012-0.2,0.018-0.4,0.02-0.602c0.001-0.023,0.002-0.047,0.002-0.07c0.002-0.19-0.001-0.381-0.007-0.571
	c-0.001-0.034-0.002-0.067-0.003-0.101c-0.007-0.186-0.019-0.371-0.032-0.557c-0.003-0.037-0.005-0.074-0.008-0.111
	c-0.016-0.184-0.035-0.367-0.058-0.549c-0.005-0.039-0.009-0.078-0.014-0.117c-0.023-0.182-0.052-0.363-0.082-0.545
	c-0.007-0.038-0.013-0.077-0.02-0.115c-0.031-0.182-0.067-0.361-0.106-0.541c-0.009-0.039-0.017-0.078-0.025-0.117
	c-0.04-0.178-0.084-0.355-0.131-0.533c-0.011-0.039-0.021-0.079-0.032-0.119c-0.048-0.176-0.1-0.35-0.153-0.523
	c-0.006-0.019-0.011-0.037-0.017-0.055l-0.001,0.001c-0.297-0.931-0.69-1.837-1.181-2.704
	C376.233,299.82,376.229,299.815,376.227,299.809z"/>
<path style="fill:#EFC84A;" d="M372.349,291.897l-7.983,7.984c0.158,0.309,0.33,0.613,0.513,0.914l8.386-8.385
	C372.963,292.227,372.658,292.055,372.349,291.897z"/>
<path style="fill:#EFC84A;" d="M366.962,303.469l8.976-8.975c-0.242-0.238-0.491-0.465-0.745-0.684l-8.913,8.914
	C366.497,302.978,366.724,303.227,366.962,303.469z"/>
<path style="fill:#EFC84A;" d="M369.604,305.584l8.448-8.447c-0.181-0.289-0.372-0.574-0.575-0.853l-8.726,8.727
	C369.031,305.213,369.315,305.404,369.604,305.584z"/>
<path style="fill:#EFC84A;" d="M372.856,307.091l6.703-6.702c-0.112-0.354-0.242-0.701-0.383-1.046l-7.365,7.366
	C372.155,306.849,372.504,306.978,372.856,307.091z"/>
<g>
	<path style="fill:#E27C3E;" d="M217.615,394.127c0.393,0.392,0.261,0.682-0.293,0.642l-16.702-1.199
		c-0.554-0.04-1.039-0.525-1.079-1.079l-1.199-16.701c-0.039-0.555,0.249-0.686,0.642-0.293L217.615,394.127z"/>
</g>
<g>
	
		<rect x="288.585" y="326.48" transform="matrix(0.7071 0.7071 -0.7071 0.7071 350.4844 -94.5941)" style="fill:#ECF0F0;" width="1.682" height="98.582"/>
</g>
<g>
	
		<rect x="296.912" y="338.868" transform="matrix(0.7071 0.7071 -0.7071 0.7071 360.507 -97.3446)" style="fill:#ECF0F0;" width="1.682" height="95.216"/>
</g>
<g>
</g>
<g>
</g>
<g>
</g>
<g>
</g>
<g>
</g>
<g>
</g>
<g>
</g>
<g>
</g>
<g>
</g>
<g>
</g>
<g>
</g>
<g>
</g>
<g>
</g>
<g>
</g>
<g>
</g>
</svg>
