<?xml version="1.0" encoding="iso-8859-1"?>
<!-- Generator: Adobe Illustrator 17.0.0, SVG Export Plug-In . SVG Version: 6.00 Build 0)  -->
<!DOCTYPE svg PUBLIC "-//W3C//DTD SVG 1.1//EN" "http://www.w3.org/Graphics/SVG/1.1/DTD/svg11.dtd">
<svg version="1.1" id="Layer_1" xmlns="http://www.w3.org/2000/svg" xmlns:xlink="http://www.w3.org/1999/xlink" x="0px" y="0px"
	 width="512px" height="512px" viewBox="0 0 512 512" style="enable-background:new 0 0 512 512;" xml:space="preserve">
<path id="bg_33_" style="fill:#E05B49;" d="M512,256c0,141.379-114.613,256-255.999,256C114.613,512,0,397.379,0,256
	S114.613,0,256.001,0C397.387,0,512,114.621,512,256z"/>
<path style="fill:#053335;" d="M498.659,337.535c-29.742,1.846-33.86,11.642-60.248,11.642c-0.002,0-0.005,0-0.005,0
	c-0.009,0-0.015,0-0.022,0h-0.004c-29.131,0-31.119-11.936-70.397-11.936c-0.063,0-0.119,0-0.179,0.003
	c-0.058-0.003-0.114-0.003-0.179-0.003c-39.277,0-41.267,11.936-70.396,11.936h-0.004c-0.01,0-0.016,0-0.023,0c0,0-0.004,0-0.006,0
	c-29.129,0-31.117-11.936-70.395-11.936c-0.063,0-0.119,0-0.179,0.003c-0.058-0.003-0.114-0.003-0.178-0.003
	c-39.278,0-41.269,11.936-70.396,11.936h-0.006c-0.008,0-0.014,0-0.021,0h-0.006c-29.129,0-31.12-11.936-70.396-11.936
	c-0.064,0-0.119,0-0.18,0.003c-0.058-0.003-0.114-0.003-0.178-0.003c-38.033,0-41.105,11.19-67.707,11.901
	c19.575,50.078,54.438,92.456,98.886,121.427c10.06,0.885,20.292,1.349,30.679,1.349c2.983,0,5.952-0.047,8.912-0.119
	c2.959,0.072,5.926,0.119,8.911,0.119c21.269,0,41.922-1.873,61.679-5.573c19.758,3.7,40.411,5.573,61.68,5.573
	c2.983,0,5.951-0.047,8.911-0.119c2.96,0.072,5.929,0.119,8.912,0.119c21.269,0,41.922-1.873,61.679-5.573
	c9.211,1.727,18.631,3.013,28.2,3.937C443.631,439.1,480.198,392.493,498.659,337.535z"/>
<path style="fill:#EBEEEF;" d="M314.015,113.757c-8.278,0-14.991,6.712-14.991,14.993h29.983
	C329.007,120.469,322.296,113.757,314.015,113.757z"/>
<path style="fill:#939393;" d="M363.323,144.81c0-3.553-2.881-6.435-6.434-6.435h-29.744c-3.553,0-6.433,2.882-6.433,6.435v72.352
	c0,3.549,2.88,6.431,6.433,6.431h29.744c3.553,0,6.434-2.882,6.434-6.431V144.81z"/>
<rect x="320.741" y="150.839" style="fill:#444444;" width="42.521" height="12.175"/>
<path style="fill:#939393;" d="M311.02,158.181c0-3.549-2.88-6.427-6.431-6.427h-29.747c-3.551,0-6.431,2.878-6.431,6.427v72.356
	c0,3.552,2.88,6.431,6.431,6.431h29.747c3.551,0,6.431-2.879,6.431-6.431V158.181z"/>
<path style="fill:#FFFFFF;" d="M89.333,305.065c0,0,36.535-72.352,43.578-86.018c7.043-13.667,10.262-11.255,82.753-11.255
	c54.142,0,158.86,0,180.429,0c17.865,0,17.237,2.608,30.812,34.568c14.853,34.971,29.094,69.137,29.094,69.137L89.333,305.065z"/>
<path style="fill:#2D4453;" d="M40.653,294.612c125.681-0.398,395.331,0,411.409,0c16.097,0,13.823,4.826,23.788,61.102
	c3.702,20.907-13.161,40.427-45.293,43.407c-76.602,7.116-281.365,65.694-299.06-6.968
	C123.993,361.343,40.653,332.838,40.653,294.612z"/>
<path style="fill:#2CA5D5;" d="M437.482,278.016c0,3.4-2.758,6.161-6.161,6.161H119.965c-3.404,0-6.165-2.76-6.165-6.161l0,0
	c0-3.406,2.761-6.167,6.165-6.167H431.32C434.724,271.849,437.482,274.61,437.482,278.016L437.482,278.016z"/>
<path style="fill:#2CA5D5;" d="M426.665,253.897c0,3.4-2.761,6.162-6.164,6.162H129.612c-3.404,0-6.163-2.761-6.163-6.162l0,0
	c0-3.402,2.759-6.166,6.163-6.166h290.889C423.904,247.731,426.665,250.495,426.665,253.897L426.665,253.897z"/>
<path style="fill:#2CA5D5;" d="M417.017,229.777c0,3.403-2.76,6.163-6.162,6.163H142.474c-3.403,0-6.162-2.76-6.162-6.163l0,0
	c0-3.403,2.759-6.16,6.162-6.16h268.381C414.257,223.617,417.017,226.374,417.017,229.777L417.017,229.777z"/>
<circle style="fill:#FFFFFF;" cx="73.466" cy="306.484" r="5.745"/>
<rect x="268.441" y="164.21" style="fill:#444444;" width="42.519" height="12.179"/>
<path style="fill:#FFFFFF;" d="M187.325,312.652c0,3.77-3.055,6.821-6.822,6.821h-16.771c-3.768,0-6.822-3.052-6.822-6.821v-1.992
	c0-3.768,3.055-6.822,6.822-6.822h16.771c3.768,0,6.822,3.054,6.822,6.822V312.652z"/>
<path style="fill:#FFFFFF;" d="M232.52,312.652c0,3.77-3.054,6.821-6.821,6.821h-16.773c-3.767,0-6.821-3.052-6.821-6.821v-1.992
	c0-3.768,3.055-6.822,6.821-6.822h16.773c3.768,0,6.821,3.054,6.821,6.822V312.652z"/>
<path style="fill:#FFFFFF;" d="M277.715,312.652c0,3.77-3.055,6.821-6.821,6.821h-16.772c-3.767,0-6.821-3.052-6.821-6.821v-1.992
	c0-3.768,3.055-6.822,6.821-6.822h16.772c3.767,0,6.821,3.054,6.821,6.822V312.652z"/>
<path style="fill:#FFFFFF;" d="M322.91,312.652c0,3.77-3.055,6.821-6.821,6.821h-16.772c-3.768,0-6.821-3.052-6.821-6.821v-1.992
	c0-3.768,3.054-6.822,6.821-6.822h16.772c3.767,0,6.821,3.054,6.821,6.822V312.652z"/>
<path style="fill:#FFFFFF;" d="M368.107,312.652c0,3.77-3.056,6.821-6.823,6.821h-16.771c-3.768,0-6.823-3.052-6.823-6.821v-1.992
	c0-3.768,3.055-6.822,6.823-6.822h16.771c3.768,0,6.823,3.054,6.823,6.822V312.652z"/>
<path style="fill:#FFFFFF;" d="M413.3,312.652c0,3.77-3.053,6.821-6.821,6.821h-16.772c-3.766,0-6.821-3.052-6.821-6.821v-1.992
	c0-3.768,3.056-6.822,6.821-6.822h16.772c3.769,0,6.821,3.054,6.821,6.822V312.652z"/>
<path style="fill:#FFFFFF;" d="M292.679,122.088c-8.279,0-14.992,6.708-14.992,14.989h29.983
	C307.67,128.796,300.959,122.088,292.679,122.088z"/>
<path style="fill:#EBEEEF;" d="M366.115,99.058c-8.281,0-14.993,6.711-14.993,14.991h29.984
	C381.107,105.769,374.395,99.058,366.115,99.058z"/>
<path style="fill:#FFFFFF;" d="M344.778,107.386c-8.281,0-14.992,6.711-14.992,14.991h29.982
	C359.769,114.097,353.058,107.386,344.778,107.386z"/>
<path style="fill:#2393AD;" d="M483.233,373.86c-10.218-3.365-20.467-7.343-43.143-7.343c-0.064,0-0.119,0-0.18,0.002
	c-0.058-0.002-0.114-0.002-0.177-0.002c-39.278,0-41.269,11.939-70.398,11.939c0,0-0.004,0-0.006,0c-0.007,0-0.014,0-0.02,0
	c0,0-0.005,0-0.006,0c-29.128,0-31.118-11.939-70.395-11.939c-0.064,0-0.119,0-0.179,0.002c-0.059-0.002-0.115-0.002-0.179-0.002
	c-39.276,0-41.268,11.939-70.396,11.939c0,0-0.004,0-0.006,0c-0.007,0-0.013,0-0.02,0c-0.001,0-0.005,0-0.005,0
	c-29.129,0-31.119-11.939-70.396-11.939c-0.064,0-0.119,0-0.179,0.002c-0.058-0.002-0.114-0.002-0.179-0.002
	c-39.277,0-41.267,11.939-70.396,11.939c-0.002,0-0.005,0-0.005,0c-0.009,0-0.015,0-0.021,0h-0.007
	c-26.836,0-30.661-10.126-61.809-11.721c29.46,61.305,82.644,109.001,147.626,131.345c15.071,2.065,30.596,3.116,46.469,3.116
	c2.985,0,5.952-0.047,8.912-0.122c2.959,0.075,5.928,0.122,8.911,0.122c21.269,0,41.922-1.872,61.68-5.573
	c11.246,2.104,22.809,3.549,34.583,4.463C398.415,479.486,452.212,433.547,483.233,373.86z"/>
<path style="fill:#6DD7E8;" d="M256.001,512c85.938,0,161.925-42.39,208.354-107.353c-6.312,1.905-13.185,3.37-23.39,3.37
	c-0.002,0-0.005,0-0.005,0c-0.009,0-0.015,0-0.022,0c-0.001,0-0.004,0-0.004,0c-29.129,0-31.119-11.937-70.397-11.937
	c-0.063,0-0.119,0-0.179,0.003c-0.058-0.003-0.114-0.003-0.179-0.003c-39.276,0-41.267,11.937-70.395,11.937h-0.004
	c-0.01,0-0.016,0-0.023,0c0,0-0.004,0-0.006,0c-29.127,0-31.117-11.937-70.396-11.937c-0.063,0-0.119,0-0.179,0.003
	c-0.058-0.003-0.114-0.003-0.178-0.003c-39.278,0-41.268,11.937-70.396,11.937c0,0-0.004,0-0.006,0c-0.008,0-0.014,0-0.02,0
	c-0.002,0-0.005,0-0.005,0c-29.13,0-31.119-11.937-70.397-11.937c-0.064,0-0.119,0-0.18,0.003c-0.058-0.003-0.114-0.003-0.178-0.003
	c-21.424,0-31.752,3.549-41.442,6.776C92.681,468.833,169.277,512,256.001,512z"/>
<g>
</g>
<g>
</g>
<g>
</g>
<g>
</g>
<g>
</g>
<g>
</g>
<g>
</g>
<g>
</g>
<g>
</g>
<g>
</g>
<g>
</g>
<g>
</g>
<g>
</g>
<g>
</g>
<g>
</g>
</svg>
