<?xml version="1.0" encoding="iso-8859-1"?>
<!-- Generator: Adobe Illustrator 17.0.0, SVG Export Plug-In . SVG Version: 6.00 Build 0)  -->
<!DOCTYPE svg PUBLIC "-//W3C//DTD SVG 1.1//EN" "http://www.w3.org/Graphics/SVG/1.1/DTD/svg11.dtd">
<svg version="1.1" id="Layer_1" xmlns="http://www.w3.org/2000/svg" xmlns:xlink="http://www.w3.org/1999/xlink" x="0px" y="0px"
	 width="512px" height="512px" viewBox="0 0 512 512" style="enable-background:new 0 0 512 512;" xml:space="preserve">
<circle id="background_15_" style="fill:#45B39C;" cx="256" cy="256" r="256"/>
<path style="fill:#E27C3E;" d="M167.327,389h177.048c14.602,0,27.06-11.777,27.06-26.38V149.372
	c0-14.604-12.458-26.372-27.06-26.372H205.332l-64.897,64.374V362.62C140.435,377.223,152.724,389,167.327,389z"/>
<polygon style="fill:#BD6834;" points="205.332,175.476 269.775,123 205.332,123 176.689,187.426 "/>
<path style="fill:#FF9554;" d="M193.397,186c6.565,0,12.038-3.996,12.038-10.56v-52.509L140.887,186H193.397z"/>
<path style="fill:#ECF0F0;" d="M287.855,278c-3.08,0-5.42-1.725-5.42-4.805v-78.623c0-3.08-2.7-6.572-5.78-6.572H235.44
	c-3.08,0-6.005,3.492-6.005,6.572v78.623c0,3.08-2.114,4.805-5.194,4.805h-13.646c-3.08,0-3.729,2.085-1.44,4.148l42.735,38.731
	c2.289,2.061,6.032,2.161,8.318,0.099l42.735-38.881c2.289-2.061,1.64-4.097-1.44-4.097H287.855z"/>
<g>
</g>
<g>
</g>
<g>
</g>
<g>
</g>
<g>
</g>
<g>
</g>
<g>
</g>
<g>
</g>
<g>
</g>
<g>
</g>
<g>
</g>
<g>
</g>
<g>
</g>
<g>
</g>
<g>
</g>
</svg>
