<?xml version="1.0" encoding="iso-8859-1"?>
<!-- Generator: Adobe Illustrator 17.0.0, SVG Export Plug-In . SVG Version: 6.00 Build 0)  -->
<!DOCTYPE svg PUBLIC "-//W3C//DTD SVG 1.1//EN" "http://www.w3.org/Graphics/SVG/1.1/DTD/svg11.dtd">
<svg version="1.1" id="Layer_1" xmlns="http://www.w3.org/2000/svg" xmlns:xlink="http://www.w3.org/1999/xlink" x="0px" y="0px"
	 width="512.001px" height="512px" viewBox="0 0 512.001 512" style="enable-background:new 0 0 512.001 512;" xml:space="preserve"
	>
<circle id="background_83_" style="fill:#E05B49;" cx="256" cy="256" r="256"/>
<path style="fill:#FBFFFF;" d="M162.855,232.481c-1.431-4.372-2.601-11.71-2.601-16.308V141.76c0-4.598,3.066-10.538,6.815-13.203
	l45.5-32.335c3.748-2.665,10.578-4.845,15.177-4.845h4.412c4.6,0,8.361,3.763,8.361,8.361v78.594c0,4.598-3.762,8.359-8.361,8.359
	h-28.428c-4.598,0-8.359,3.764-8.359,8.361v56.855c0,4.599-3.764,8.36-8.361,8.36h-6.705c-4.601,0-9.532-3.575-10.961-7.945
	L162.855,232.481z"/>
<circle style="fill:#E2E6E6;" cx="203.314" cy="138.617" r="15.469"/>
<path style="fill:#172229;" d="M240.52,91.595v95.315c0,0,20.064,0.156,20.064-14.051v-67.47
	C260.585,91.595,240.52,91.595,240.52,91.595z"/>
<path style="fill:#383838;" d="M248.882,76.545V201.96c0,0,54.346,0,54.346-31.03v-63.691
	C303.228,76.545,248.882,76.545,248.882,76.545z"/>
<path style="fill:#E2E6E6;" d="M200.389,259.434c0,2.768-2.247,5.017-5.017,5.017H171.96c-2.77,0-5.017-2.249-5.017-5.017l0,0
	c0-2.771,2.247-5.018,5.017-5.018h23.412C198.142,254.416,200.389,256.662,200.389,259.434L200.389,259.434z"/>
<path style="fill:#E2E6E6;" d="M177.812,185.517c0,4.599,1.277,11.901,2.834,16.227l11.893,33.04
	c1.557,4.326,2.834,4.105,2.834-0.493v-39.237c0-4.598,3.762-8.361,8.359-8.361h14.214c4.601,0,8.362-3.762,8.362-8.359l0,0
	c0-4.599-3.762-8.362-8.362-8.362h-31.772c-4.598,0-8.361,3.764-8.361,8.362V185.517z"/>
<circle style="fill:#E2E6E6;" cx="230.331" cy="101.21" r="4.041"/>
<circle style="fill:#E2E6E6;" cx="230.331" cy="115.424" r="4.041"/>
<path style="fill:#A3A6A6;" d="M197.462,146.56v-18.132h2.566v15.924h12.043v2.208H197.462z"/>
<path style="fill:#FBFFFF;" d="M230.185,356.728c-1.43-4.372-2.6-11.712-2.6-16.31v-74.411c0-4.599,3.066-10.54,6.816-13.205
	l45.5-32.335c3.749-2.664,10.577-4.844,15.178-4.844h4.411c4.599,0,8.362,3.764,8.362,8.361v78.592c0,4.601-3.764,8.362-8.362,8.362
	h-28.427c-4.598,0-8.361,3.763-8.361,8.361v56.853c0,4.599-3.762,8.361-8.36,8.361h-6.706c-4.598,0-9.53-3.576-10.961-7.946
	L230.185,356.728z"/>
<circle style="fill:#E2E6E6;" cx="270.645" cy="262.863" r="15.467"/>
<path style="fill:#172229;" d="M307.853,215.84v95.316c0,0,20.066,0.156,20.066-14.05v-67.469
	C327.919,215.84,307.853,215.84,307.853,215.84z"/>
<path style="fill:#383838;" d="M316.212,200.791v125.414c0,0,54.347,0,54.347-31.028v-63.692
	C370.559,200.791,316.212,200.791,316.212,200.791z"/>
<path style="fill:#E2E6E6;" d="M267.719,383.678c0,2.771-2.247,5.018-5.017,5.018h-23.41c-2.77,0-5.017-2.247-5.017-5.018l0,0
	c0-2.77,2.247-5.016,5.017-5.016h23.41C265.472,378.662,267.719,380.908,267.719,383.678L267.719,383.678z"/>
<path style="fill:#E2E6E6;" d="M245.145,309.764c0,4.598,1.273,11.899,2.83,16.227l11.896,33.038c1.557,4.328,2.83,4.105,2.83-0.493
	V319.3c0-4.599,3.764-8.361,8.361-8.361h14.213c4.599,0,8.362-3.762,8.362-8.362l0,0c0-4.598-3.764-8.359-8.362-8.359h-31.771
	c-4.598,0-8.359,3.762-8.359,8.359V309.764z"/>
<circle style="fill:#E2E6E6;" cx="297.664" cy="225.455" r="4.042"/>
<circle style="fill:#E2E6E6;" cx="297.664" cy="239.67" r="4.042"/>
<path style="fill:#A3A6A6;" d="M277.534,270.805l-5.988-7.09h-8.541v7.09h-2.529V253.12h12.048c1.502,0,2.056,0.075,2.806,0.278
	c2.379,0.627,3.733,2.477,3.733,4.906c0,0.952-0.199,3.434-2.857,4.537c-0.45,0.175-0.927,0.323-1.93,0.473l6.54,7.49H277.534z
	 M276.003,256.677c-0.751-1.327-1.926-1.452-3.305-1.452h-9.718v6.412h8.741c1.429,0,3.107-0.049,4.082-1.304
	c0.252-0.298,0.651-0.901,0.651-1.925C276.455,258.08,276.433,257.405,276.003,256.677z"/>
<path style="fill:#383838;" d="M178.435,264v235.821c3,1.062,7,2.06,10,2.989V264H178.435z"/>
<path style="fill:#383838;" d="M244.435,389v122.755c4,0.14,7,0.224,11,0.235V389H244.435z"/>
<g>
</g>
<g>
</g>
<g>
</g>
<g>
</g>
<g>
</g>
<g>
</g>
<g>
</g>
<g>
</g>
<g>
</g>
<g>
</g>
<g>
</g>
<g>
</g>
<g>
</g>
<g>
</g>
<g>
</g>
</svg>
