<?xml version="1.0" encoding="iso-8859-1"?>
<!-- Generator: Adobe Illustrator 17.0.0, SVG Export Plug-In . SVG Version: 6.00 Build 0)  -->
<!DOCTYPE svg PUBLIC "-//W3C//DTD SVG 1.1//EN" "http://www.w3.org/Graphics/SVG/1.1/DTD/svg11.dtd">
<svg version="1.1" id="Layer_1" xmlns="http://www.w3.org/2000/svg" xmlns:xlink="http://www.w3.org/1999/xlink" x="0px" y="0px"
	 width="512px" height="512px" viewBox="0 0 512 512" style="enable-background:new 0 0 512 512;" xml:space="preserve">
<circle id="background_9_" style="fill:#E27C3E;" cx="256" cy="256" r="256"/>
<path style="fill:#D5D9D9;" d="M256.163,100.675C116.132,100.675,46.222,256,46.222,256s70.123,155.325,209.615,155.325
	C395.868,411.325,465.778,256,465.778,256S395.655,100.675,256.163,100.675z"/>
<path style="fill:#EFF2F2;" d="M255.837,403.785c-30.443,0-59.959-7.807-87.725-23.204c-22.412-12.425-43.777-29.801-63.504-51.65
	c-28.293-31.33-50.021-72.937-50.021-72.937s21.682-41.6,49.981-72.927c19.737-21.847,41.128-39.221,63.587-51.648
	c27.83-15.398,57.439-23.205,88.008-23.205c30.443,0,59.959,7.807,87.726,23.203c22.411,12.426,43.776,29.802,63.503,51.65
	c28.293,31.33,45.134,63.085,50.021,72.937c-4.875,9.847-21.682,41.6-49.981,72.927c-19.736,21.847-41.128,39.222-63.587,51.648
	C316.015,395.978,286.405,403.785,255.837,403.785z"/>
<circle style="fill:#3A9683;" cx="256" cy="256" r="113.882"/>
<path style="fill:#45B39C;" d="M256,362.342c-58.637,0-106.342-47.705-106.342-106.342S197.363,149.659,256,149.659
	S362.342,197.363,362.342,256S314.637,362.342,256,362.342z"/>
<circle style="fill:#2C424F;" cx="256" cy="256" r="77.388"/>
<path style="fill:#334D5C;" d="M256,325.847c-38.515,0-69.849-31.333-69.849-69.847s31.334-69.847,69.849-69.847
	s69.849,31.333,69.849,69.847S294.515,325.847,256,325.847z"/>
<circle style="fill:#CED1D1;" cx="283.229" cy="241.588" r="30.724"/>
<path style="opacity:0.3;fill:#5D5D5D;" d="M46.222,256c0,0,70.123,155.325,209.615,155.325c59.291,0,106.012-27.848,140.177-59.962
	L167.73,123.08C86.696,166.087,46.222,256,46.222,256z"/>
<g>
</g>
<g>
</g>
<g>
</g>
<g>
</g>
<g>
</g>
<g>
</g>
<g>
</g>
<g>
</g>
<g>
</g>
<g>
</g>
<g>
</g>
<g>
</g>
<g>
</g>
<g>
</g>
<g>
</g>
</svg>
