<?xml version="1.0" encoding="iso-8859-1"?>
<!-- Generator: Adobe Illustrator 17.0.0, SVG Export Plug-In . SVG Version: 6.00 Build 0)  -->
<!DOCTYPE svg PUBLIC "-//W3C//DTD SVG 1.1//EN" "http://www.w3.org/Graphics/SVG/1.1/DTD/svg11.dtd">
<svg version="1.1" id="Layer_1" xmlns="http://www.w3.org/2000/svg" xmlns:xlink="http://www.w3.org/1999/xlink" x="0px" y="0px"
	 width="512px" height="512px" viewBox="0 0 512 512" style="enable-background:new 0 0 512 512;" xml:space="preserve">
<path id="bg_52_" style="fill:#E27C3E;" d="M512,256c0,141.382-114.613,256-256,256S0,397.382,0,256C0,114.62,114.613,0,256,0
	S512,114.62,512,256z"/>
<path style="fill:#9B5026;" d="M19.256,353.456C57.594,446.489,149.129,512,256,512s198.406-65.511,236.744-158.544H19.256z"/>
<polygon style="fill:#E45136;" points="109.924,121.737 146.291,121.737 159.323,382.729 96.889,382.729 "/>
<polygon style="fill:#FFFFFF;" points="97.662,367.214 158.547,367.214 157.855,353.354 98.355,353.354 "/>
<polygon style="fill:#FFFFFF;" points="99.047,339.485 157.162,339.485 156.471,325.625 99.74,325.625 "/>
<polygon style="fill:#FFFFFF;" points="100.435,311.759 155.777,311.759 155.09,297.899 101.125,297.899 "/>
<polygon style="fill:#FFFFFF;" points="101.818,284.032 154.396,284.032 153.702,270.173 102.51,270.173 "/>
<polygon style="fill:#FFFFFF;" points="103.203,256.307 153.012,256.307 152.317,242.446 103.895,242.446 "/>
<polygon style="fill:#FFFFFF;" points="104.588,228.581 151.627,228.581 150.933,214.718 105.279,214.718 "/>
<polygon style="fill:#FFFFFF;" points="105.973,200.851 150.242,200.851 149.549,186.991 106.666,186.991 "/>
<polygon style="fill:#FFFFFF;" points="107.357,173.125 148.857,173.125 148.164,159.265 108.051,159.265 "/>
<polygon style="fill:#FFFFFF;" points="108.741,145.399 147.47,145.399 146.779,131.538 109.436,131.538 "/>
<polygon style="opacity:0.5;" points="128.107,382.729 159.323,382.729 146.291,121.737 128.107,121.737 "/>
<path style="fill:#892018;" d="M445.224,419.025v-17.498c0-10.371-8.409-18.776-18.779-18.776H92.541
	c-10.371,0-18.776,8.405-18.776,18.776v17.498H445.224z"/>
<rect x="340.692" y="144.913" style="fill:#7F611C;" width="13.354" height="97.09"/>
<rect x="343.398" y="236.753" style="fill:#45B39C;" width="78.205" height="145.977"/>
<rect x="370.772" y="253.261" style="fill:#2893C0;" width="39.1" height="129.469"/>
<polygon style="opacity:0.5;" points="376.42,260.21 409.871,260.21 409.871,253.261 370.772,253.261 370.772,382.729 
	376.42,382.729 "/>
<rect x="343.398" y="206.342" style="fill:#7BDBC4;" width="78.205" height="30.411"/>
<polygon style="fill:#2E8973;" points="352.525,254.999 368.785,382.548 347.252,382.548 "/>
<rect x="155.375" y="116.196" style="fill:#EFC84A;" width="188.363" height="266.533"/>
<rect x="192.168" y="66.665" style="fill:#EFC84A;" width="114.777" height="57.35"/>
<polygon style="fill:#EFD68F;" points="306.945,66.665 192.168,66.665 202.596,50.019 296.518,50.019 "/>
<rect x="202.897" y="77.61" style="fill:#2893C0;" width="19.163" height="48.455"/>
<rect x="227.812" y="77.61" style="fill:#2893C0;" width="19.162" height="48.455"/>
<rect x="252.728" y="77.61" style="fill:#2893C0;" width="19.167" height="48.455"/>
<rect x="277.643" y="77.61" style="fill:#2893C0;" width="19.166" height="48.455"/>
<polygon style="opacity:0.5;" points="205.585,79.853 222.06,79.853 222.06,77.61 202.897,77.61 202.897,126.065 205.585,126.065 
	"/>
<polygon style="opacity:0.5;" points="230.5,79.853 246.975,79.853 246.975,77.61 227.813,77.61 227.813,126.065 230.5,126.065 "/>
<polygon style="opacity:0.5;" points="255.416,79.853 271.895,79.853 271.895,77.61 252.728,77.61 252.728,126.065 255.416,126.065 
	"/>
<polygon style="opacity:0.5;" points="280.335,79.853 296.81,79.853 296.81,77.61 277.644,77.61 277.644,126.065 280.335,126.065 
	"/>
<rect x="155.375" y="116.196" style="fill:#7F611C;" width="188.363" height="22.369"/>
<rect x="152.243" y="110.923" style="fill:#A88429;" width="194.63" height="21.14"/>
<polygon style="fill:#B2902F;" points="197.533,190.13 233.335,248.536 188.67,255.586 "/>
<polygon style="fill:#B2902F;" points="240.907,190.13 276.709,248.536 232.046,255.586 "/>
<polygon style="fill:#B2902F;" points="284.238,190.13 320.043,248.536 275.381,255.586 "/>
<polygon style="fill:#B2902F;" points="343.738,216.498 327.573,190.13 318.713,255.586 343.738,251.635 "/>
<path style="fill:#C1C1C1;" d="M199.377,256.14c0,8.01-6.491,14.5-14.5,14.5l0,0c-8.007,0-14.501-6.49-14.501-14.5v-58.977
	c0-8.007,6.494-14.497,14.501-14.497l0,0c8.009,0,14.5,6.49,14.5,14.497V256.14z"/>
<path style="fill:#FFFFFF;" d="M180.184,243.628c0,1.338-1.084,2.422-2.42,2.422l0,0c-1.338,0-2.422-1.084-2.422-2.422v-38.844
	c0-1.334,1.084-2.42,2.422-2.42l0,0c1.336,0,2.42,1.086,2.42,2.42V243.628z"/>
<path style="fill:#C1C1C1;" d="M242.715,256.14c0,8.01-6.491,14.5-14.501,14.5l0,0c-8.009,0-14.501-6.49-14.501-14.5v-58.977
	c0-8.007,6.492-14.497,14.501-14.497l0,0c8.01,0,14.501,6.49,14.501,14.497V256.14z"/>
<path style="fill:#FFFFFF;" d="M223.522,243.628c0,1.338-1.087,2.422-2.421,2.422l0,0c-1.337,0-2.421-1.084-2.421-2.422v-38.844
	c0-1.334,1.084-2.42,2.421-2.42l0,0c1.334,0,2.421,1.086,2.421,2.42V243.628z"/>
<path style="fill:#C1C1C1;" d="M286.052,256.14c0,8.01-6.491,14.5-14.5,14.5l0,0c-8.01,0-14.501-6.49-14.501-14.5v-58.977
	c0-8.007,6.491-14.497,14.501-14.497l0,0c8.009,0,14.5,6.49,14.5,14.497V256.14z"/>
<path style="fill:#FFFFFF;" d="M266.855,243.628c0,1.338-1.083,2.422-2.42,2.422l0,0c-1.334,0-2.421-1.084-2.421-2.422v-38.844
	c0-1.334,1.087-2.42,2.421-2.42l0,0c1.337,0,2.42,1.086,2.42,2.42V243.628z"/>
<path style="fill:#C1C1C1;" d="M329.39,256.14c0,8.01-6.491,14.5-14.501,14.5l0,0c-8.009,0-14.5-6.49-14.5-14.5v-58.977
	c0-8.007,6.491-14.497,14.5-14.497l0,0c8.01,0,14.501,6.49,14.501,14.497V256.14z"/>
<path style="fill:#FFFFFF;" d="M310.193,243.628c0,1.338-1.084,2.422-2.42,2.422l0,0c-1.338,0-2.422-1.084-2.422-2.422v-38.844
	c0-1.334,1.084-2.42,2.422-2.42l0,0c1.336,0,2.42,1.086,2.42,2.42V243.628z"/>
<rect x="169.774" y="144.515" width="157.097" height="23.588"/>
<rect x="172.791" y="146.947" style="fill:#FFFFFF;" width="151.064" height="18.726"/>
<rect x="174.887" y="148.778" style="fill:#2893C0;" width="146.871" height="15.061"/>
<rect x="179.749" y="147.867" style="fill:#FFFFFF;" width="2.126" height="16.7"/>
<rect x="191.895" y="147.867" style="fill:#FFFFFF;" width="2.126" height="16.7"/>
<rect x="204.039" y="147.867" style="fill:#FFFFFF;" width="2.127" height="16.7"/>
<rect x="216.184" y="147.867" style="fill:#FFFFFF;" width="2.126" height="16.7"/>
<rect x="228.333" y="147.867" style="fill:#FFFFFF;" width="2.123" height="16.7"/>
<rect x="241.008" y="147.867" style="fill:#FFFFFF;" width="2.127" height="16.7"/>
<rect x="253.153" y="147.867" style="fill:#FFFFFF;" width="2.126" height="16.7"/>
<rect x="265.299" y="147.867" style="fill:#FFFFFF;" width="2.126" height="16.7"/>
<rect x="277.443" y="147.867" style="fill:#FFFFFF;" width="2.127" height="16.7"/>
<rect x="289.59" y="147.867" style="fill:#FFFFFF;" width="2.125" height="16.7"/>
<rect x="302.345" y="147.867" style="fill:#FFFFFF;" width="2.126" height="16.7"/>
<rect x="314.49" y="147.867" style="fill:#FFFFFF;" width="2.126" height="16.7"/>
<polygon style="opacity:0.5;" points="323.855,146.947 323.855,151.726 178.436,151.726 178.436,165.673 172.791,165.673 
	172.791,146.947 "/>
<path style="fill:#898989;" d="M184.941,182.668v87.97c7.98-0.036,14.436-6.51,14.436-14.498v-58.977
	C199.377,189.177,192.922,182.704,184.941,182.668z"/>
<path style="fill:#898989;" d="M228.428,182.668v87.97c7.978-0.036,14.436-6.51,14.436-14.498v-58.977
	C242.863,189.177,236.405,182.704,228.428,182.668z"/>
<path style="fill:#898989;" d="M271.629,182.668v87.97c7.977-0.036,14.435-6.51,14.435-14.498v-58.977
	C286.064,189.177,279.605,182.704,271.629,182.668z"/>
<path style="fill:#898989;" d="M314.925,182.668v87.97c7.977-0.036,14.435-6.51,14.435-14.498v-58.977
	C329.359,189.177,322.901,182.704,314.925,182.668z"/>
<rect x="146.592" y="254.999" style="fill:#45B39C;" width="205.934" height="127.73"/>
<rect x="146.592" y="254.999" style="fill:#1F5B4B;" width="205.934" height="20.854"/>
<rect x="249.885" y="283.349" style="fill:#FFFFFF;" width="81.134" height="99.381"/>
<rect x="253.711" y="288.034" width="73.481" height="94.794"/>
<rect x="143.664" y="248.554" style="fill:#308470;" width="211.787" height="21.14"/>
<polygon style="fill:#EFC84A;" points="327.184,288.028 290.443,296.374 253.707,288.028 253.707,301.249 290.429,309.598 
	290.429,309.601 290.443,309.598 290.462,309.601 290.462,309.598 327.184,301.249 "/>
<polygon style="fill:#EFC84A;" points="327.184,312.405 290.443,320.754 253.707,312.405 253.707,325.622 290.429,333.972 
	290.429,333.978 290.443,333.972 290.462,333.978 290.462,333.972 327.184,325.622 "/>
<polygon style="fill:#EFC84A;" points="327.184,336.778 290.443,345.128 253.707,336.778 253.707,350.002 290.429,358.345 
	290.429,358.356 290.443,358.351 290.462,358.356 290.462,358.345 327.184,350.002 "/>
<polygon style="fill:#EFC84A;" points="327.184,361.155 290.443,369.501 253.707,361.155 253.707,374.378 290.429,382.722 
	290.429,382.729 290.443,382.724 290.462,382.729 290.462,382.722 327.184,374.378 "/>
<polygon style="opacity:0.5;" points="327.192,288.034 327.192,291.62 257.619,291.62 257.619,382.828 253.711,382.828 
	253.711,288.034 "/>
<rect x="159.022" y="282.997" width="78.127" height="23.584"/>
<rect x="162.039" y="285.429" style="fill:#FFFFFF;" width="72.098" height="18.727"/>
<rect x="164.132" y="287.261" style="fill:#2893C0;" width="67.905" height="15.06"/>
<rect x="172.692" y="286.349" style="fill:#FFFFFF;" width="2.123" height="16.701"/>
<rect x="184.838" y="286.349" style="fill:#FFFFFF;" width="2.126" height="16.701"/>
<rect x="196.982" y="286.349" style="fill:#FFFFFF;" width="2.127" height="16.701"/>
<rect x="209.128" y="286.349" style="fill:#FFFFFF;" width="2.126" height="16.701"/>
<rect x="221.273" y="286.349" style="fill:#FFFFFF;" width="2.126" height="16.701"/>
<polygon style="opacity:0.5;" points="234.137,285.429 234.137,289.228 166.814,289.228 166.814,304.155 162.039,304.155 
	162.039,285.429 "/>
<path style="fill:#D8D8D8;" d="M102.732,91.679c8.79,0,15.906,7.123,15.906,15.909H86.821
	C86.821,98.802,93.943,91.679,102.732,91.679z"/>
<path style="fill:#FFFFFF;" d="M126.094,100.062c8.784,0,15.906,7.115,15.906,15.904h-31.823
	C110.177,107.177,117.308,100.062,126.094,100.062z"/>
<g>
</g>
<g>
</g>
<g>
</g>
<g>
</g>
<g>
</g>
<g>
</g>
<g>
</g>
<g>
</g>
<g>
</g>
<g>
</g>
<g>
</g>
<g>
</g>
<g>
</g>
<g>
</g>
<g>
</g>
</svg>
