<?xml version="1.0" encoding="iso-8859-1"?>
<!-- Generator: Adobe Illustrator 17.0.0, SVG Export Plug-In . SVG Version: 6.00 Build 0)  -->
<!DOCTYPE svg PUBLIC "-//W3C//DTD SVG 1.1//EN" "http://www.w3.org/Graphics/SVG/1.1/DTD/svg11.dtd">
<svg version="1.1" id="Layer_1" xmlns="http://www.w3.org/2000/svg" xmlns:xlink="http://www.w3.org/1999/xlink" x="0px" y="0px"
	 width="511.999px" height="512px" viewBox="0 0 511.999 512" style="enable-background:new 0 0 511.999 512;" xml:space="preserve"
	>
<circle id="background_32_" style="fill:#EFC84A;" cx="256" cy="256" r="255.999"/>
<path style="fill:#334D5C;" d="M325.338,58.007c6.496,2.864,12.996,5.731,19.493,8.599c4.333,1.909,7.2-4.587,2.866-6.499
	c-6.496-2.866-12.996-5.731-19.494-8.6C324.013,49.66,321.147,56.158,325.338,58.007L325.338,58.007z"/>
<path style="fill:#334D5C;" d="M273.268,176.064c6.498,2.864,12.997,5.731,19.495,8.599c4.332,1.909,7.198-4.589,2.865-6.499
	c-6.497-2.866-12.997-5.733-19.495-8.6C271.942,167.715,269.078,174.215,273.268,176.064L273.268,176.064z"/>
<path style="fill:#334D5C;" d="M201.611,338.525c6.5,2.866,12.996,5.732,19.496,8.598c4.332,1.91,7.197-4.586,2.865-6.498
	c-6.498-2.865-12.998-5.731-19.495-8.599C200.288,330.178,197.421,336.677,201.611,338.525L201.611,338.525z"/>
<path style="fill:none;" d="M252.555,342.078c2.446-6.465-7.384-10.842-9.844-4.342C240.256,344.231,249.416,348.27,252.555,342.078
	z"/>
<path style="fill:#ECF0F0;" d="M265.558,387.745c-4.54,2.956-9.078,5.913-13.616,8.872c-0.747,0.484-0.884,1.213-0.667,1.85
	c0.088,0.493,0.392,0.948,0.99,1.213c2.007,0.885,4.01,1.769,6.013,2.652c-3.5,4.107-8.29,7.069-13.793,6.921
	c-13.427-0.359-18.148-13.611-14.483-24.588c4.097-12.273,10.393-24.127,15.686-35.977c3.875,0.95,7.895-1.325,9.855-4.714
	c0.102-0.133,0.191-0.279,0.262-0.465c0.086-0.17,0.133-0.335,0.163-0.495c1.483-4.563-0.377-9.071-4.73-11.278
	c-4.503-2.283-9.673,0.422-11.774,4.566c-1.988,3.924-0.189,8.355,3.052,10.818c-3.655,8.329-7.311,16.659-10.965,24.987
	c-2.695,6.144-5.812,12.017-6.439,18.798c-1.17,12.599,9.185,22.445,21.683,21.846c6.257-0.301,11.927-4.667,15.694-9.858
	c0.152-0.151-1.488-0.332,0.512-0.538c0-0.002,0-0.004,0-0.006c0-2.145,1.76-4.291,2.705-6.438c0.885-2.004,1.701-4.009,2.584-6.014
	C269.029,388.227,267.004,386.802,265.558,387.745z M242.711,337.736c2.46-6.5,12.29-2.123,9.844,4.342
	C249.416,348.27,240.256,344.231,242.711,337.736z"/>
<path style="fill:#1E2D36;" d="M351.104,45.045c3.175-1.344,7.03-1.035,11.457,0.918c11.057,4.877,6.763,14.977,6.574,15.407
	L249.072,333.583l2.167,0.955l120.062-272.21c0.097-0.219,2.362-5.416,0.31-10.734c-1.304-3.381-4.027-6.002-8.096-7.795
	c-5.048-2.228-9.534-2.541-13.335-0.934c-5.228,2.213-7.145,7.252-7.196,7.399L149.531,488.865c0.718,0.329,1.437,0.654,2.158,0.978
	L345.176,51.151C345.191,51.111,346.808,46.863,351.104,45.045z"/>
<path style="fill:#45B39C;" d="M260.781,219.04c22.651-51.36,45.305-102.722,67.956-154.08c1.787-4.048,3.574-8.099,5.358-12.146
	c3.082-6.985-7.75-11.762-10.831-4.778c-15.35,34.803-30.7,69.604-46.05,104.408c-30.592,69.363-61.186,138.725-91.78,208.09
	c-17.612,39.934-35.226,79.866-52.837,119.799c3.457,1.906,6.967,3.733,10.52,5.482c8.626-19.561,17.253-39.123,25.881-58.684
	C199.593,357.767,230.188,288.403,260.781,219.04z"/>
<rect x="248.028" y="329.377" transform="matrix(0.9149 0.4036 -0.4036 0.9149 155.9199 -72.6918)" style="fill:#1E2D36;" width="4.735" height="8.285"/>
<g>
</g>
<g>
</g>
<g>
</g>
<g>
</g>
<g>
</g>
<g>
</g>
<g>
</g>
<g>
</g>
<g>
</g>
<g>
</g>
<g>
</g>
<g>
</g>
<g>
</g>
<g>
</g>
<g>
</g>
</svg>
