<?xml version="1.0" encoding="iso-8859-1"?>
<!-- Generator: Adobe Illustrator 17.0.0, SVG Export Plug-In . SVG Version: 6.00 Build 0)  -->
<!DOCTYPE svg PUBLIC "-//W3C//DTD SVG 1.1//EN" "http://www.w3.org/Graphics/SVG/1.1/DTD/svg11.dtd">
<svg version="1.1" id="Layer_1" xmlns="http://www.w3.org/2000/svg" xmlns:xlink="http://www.w3.org/1999/xlink" x="0px" y="0px"
	 width="512px" height="512px" viewBox="0 0 512 512" style="enable-background:new 0 0 512 512;" xml:space="preserve">
<circle id="background_30_" style="fill:#ECF0F0;" cx="256" cy="256" r="256"/>
<path style="fill:#1B2930;" d="M345.162,77.16c0.895,3.635,3.649,6.859,7.697,6.236c4.635-0.713,5.836-5.594,4.532-9.473
	c-0.64-1.902-3.491-0.662-2.856,1.225c0.59,1.753,0.452,4.552-2.136,5.174c-1.482,0.355-2.522-0.533-3.3-1.676
	c-0.285-0.42-0.479-0.912-0.665-1.381c-0.071-0.179-0.132-0.362-0.191-0.546c-0.144-0.438,0.06,0.251-0.007-0.02
	C347.762,74.773,344.682,75.211,345.162,77.16L345.162,77.16z"/>
<path style="fill:#1B2930;" d="M283.571,120.655c2.188,3.415,6.176,5.062,9.774,2.779c3.566-2.261,2.925-7.004,0.677-9.94
	c-1.221-1.596-3.669,0.32-2.452,1.91c1.356,1.771,1.847,4.102-0.134,5.578c-2.033,1.514-4.333-0.551-5.412-2.236
	C284.941,117.054,282.501,118.982,283.571,120.655L283.571,120.655z"/>
<path style="fill:#1B2930;" d="M234.756,175.783c2.188,3.415,6.176,5.061,9.774,2.779c3.566-2.262,2.925-7.004,0.677-9.941
	c-1.221-1.596-3.669,0.32-2.452,1.91c1.356,1.772,1.847,4.102-0.134,5.578c-2.033,1.516-4.333-0.551-5.412-2.236
	C236.126,172.182,233.686,174.111,234.756,175.783L234.756,175.783z"/>
<path style="fill:#1B2930;" d="M201.159,238.762c1.671,0.751,3.583,2.619,2.452,5.006c-1.079,2.276-4.137,1.48-5.855,0.521
	c-1.746-0.976-2.878,1.923-1.153,2.886c3.285,1.835,7.739,1.642,9.715-1.929c2.134-3.855-0.347-7.726-4.005-9.371
	C200.483,235.052,199.337,237.941,201.159,238.762L201.159,238.762z"/>
<path style="fill:#334D5C;" d="M233.037,305.897c-6.638-2.654-13.487-5.393-20.221-8.084c-1.573-0.629-3.39,0.16-4.019,1.734
	c-4.153,10.389-8.309,20.784-12.462,31.174c-11.544-4.615-23.377-9.346-34.921-13.96c-3.751-1.5-6.059,4.272-2.307,5.772
	c12.698,5.076,25.185,10.067,37.787,15.105c1.573,0.629,3.432-0.157,4.061-1.73c4.153-10.39,8.305-20.773,12.458-31.162
	c5.771,2.307,11.544,4.614,17.315,6.922C234.481,313.168,236.789,307.396,233.037,305.897z"/>
<path style="fill:#283C47;" d="M192.321,332.334c0.375-0.938,0.712-1.93,0.96-2.834c-10.629-4.25-21.188-8.471-31.866-12.739
	c-3.751-1.5-6.059,4.272-2.307,5.772c10.678,4.268,21.22,8.482,31.84,12.728C191.408,334.441,191.916,333.348,192.321,332.334z"/>
<path style="fill:#45B39C;" d="M231.23,325.488c-0.529,1.324-2.031,1.969-3.356,1.439l-2.997-1.199
	c-1.324-0.529-1.969-2.031-1.439-3.355l11.697-29.26c0.529-1.324,2.031-1.968,3.355-1.439l2.997,1.198
	c1.324,0.529,1.969,2.031,1.439,3.355L231.23,325.488z"/>
<circle style="fill:#45B39C;" cx="160.29" cy="319.522" r="27.661"/>
<path style="fill:#3C9C88;" d="M152.227,340.527c-11.519-4.604-17.144-17.723-12.539-29.24c4.605-11.52,17.723-17.145,29.241-12.539
	c11.52,4.604,17.145,17.722,12.539,29.24C176.863,339.508,163.746,345.133,152.227,340.527z"/>
<path style="fill:#ECF0F0;" d="M152.804,339.084c-10.724-4.286-15.96-16.498-11.673-27.221
	c4.286-10.723,16.498-15.959,27.222-11.673c10.723,4.286,15.959,16.499,11.673,27.222
	C175.738,338.135,163.526,343.371,152.804,339.084z"/>
<path style="fill:#C1C4C4;" d="M155.026,332.295c-6.132-2.451-9.126-9.434-6.675-15.565c2.451-6.132,9.434-9.126,15.564-6.675
	c6.132,2.451,9.126,9.434,6.675,15.564C168.14,331.752,161.157,334.746,155.026,332.295z"/>
<circle style="fill:#BD9E3A;" cx="159.471" cy="321.175" r="10.421"/>
<path style="fill:#EFC84A;" d="M132.521,424.205c-1.689,4.223-6.479,6.277-10.702,4.589l-8.374-3.348
	c-4.223-1.688-6.277-6.479-4.589-10.702l36.805-92.066c1.688-4.223,6.479-6.277,10.702-4.59l8.374,3.348
	c4.223,1.689,6.277,6.48,4.589,10.702L132.521,424.205z"/>
<rect x="138.558" y="316.785" transform="matrix(0.9286 0.3712 -0.3712 0.9286 149.1789 -25.9386)" style="fill:#FFDA61;" width="6.838" height="115.619"/>
<path style="fill:#D1AF41;" d="M129.245,427.746l-8.374-3.348c-4.223-1.688-6.256-6.478-4.567-10.699l36.805-92.068
	c0.616-1.54,1.646-2.791,2.91-3.678c-4.135-1.443-8.713,0.611-10.355,4.719l-36.806,92.066c-1.688,4.223,0.346,9.013,4.567,10.701
	l8.375,3.348c2.682,1.072,5.592,0.632,7.792-0.912C129.477,427.834,129.36,427.793,129.245,427.746z"/>
<path style="fill:#E05B49;" d="M171.751,337.796c-0.669,1.673-2.568,2.487-4.242,1.819l-25.685-10.268
	c-1.674-0.669-2.488-2.568-1.819-4.241l0,0c0.669-1.674,2.568-2.488,4.242-1.819l25.684,10.269
	C171.605,334.223,172.42,336.122,171.751,337.796L171.751,337.796z"/>
<path style="fill:#ECF0F0;" d="M167.251,349.051c-0.669,1.674-2.568,2.488-4.241,1.818l-25.686-10.268
	c-1.674-0.669-2.487-2.568-1.818-4.241l0,0c0.669-1.674,2.567-2.487,4.241-1.819l25.686,10.269
	C167.105,345.478,167.92,347.377,167.251,349.051L167.251,349.051z"/>
<path style="fill:#1C2B33;" d="M161.456,316.603c3.622,1.559,7.568,2.533,11.431,3.252c7.927,1.473,16.27,1.403,23.95-1.233
	c10.213-3.504,17.462-11.724,21.723-21.427c4.677-10.653,6.023-22.666,2.136-33.763c-2.679-7.646-7.685-14.308-13.667-19.693
	c-2.82-2.539-5.935-4.969-9.301-6.755c-0.115,0.288-0.23,0.577-0.346,0.866c4.728,1.264,9.806,1.604,14.674,1.516
	c9.951-0.18,19.859-2.951,27.793-9.113c9.619-7.473,16.108-19.893,15.981-32.141c-0.094-8.982-3.886-17.505-9.418-24.448
	c-1.653-2.074-3.48-4.129-5.54-5.815c-0.151,0.268-0.304,0.536-0.455,0.805c5.138,2.566,10.955,4.15,16.61,4.98
	c10.311,1.511,20.976-0.491,28.5-8.118c8.562-8.68,10.847-21.396,9.534-33.113c-0.729-6.512-2.413-13.303-5.244-19.248
	c-0.236,0.186-0.474,0.369-0.71,0.555c4.329,3.846,9.619,6.854,14.885,9.182c10.448,4.618,22.217,5.896,33.053,1.818
	c12.081-4.547,22.507-15.043,23.289-28.379c0.456-7.769-2.142-15.73-6.186-22.305c-0.182-0.295-0.366-0.59-0.564-0.873
	c-0.181,0.239-0.36,0.479-0.541,0.719c1.633,0.442,3.041,1.645,4.32,2.871c3.919,3.758,6.297,9.123,7.909,14.263
	c3.435,10.943,3.915,22.784,3.633,34.164c-0.519,20.87-4.112,41.646-8.566,61.994c-6.478,29.594-15.247,58.673-24.894,87.372
	c-0.19,0.568,0.675,0.918,0.866,0.347c10.382-30.892,19.757-62.23,26.349-94.169c4.02-19.479,7.135-39.378,7.229-59.312
	c0.051-10.786-0.718-21.927-4.232-32.204c-1.691-4.951-4.158-9.926-8.064-13.512c-1.163-1.066-2.64-2.257-4.204-2.68
	c-0.44-0.12-0.822,0.314-0.54,0.719c3.607,5.18,5.823,11.741,6.453,17.974c0.586,5.79-0.58,11.626-3.49,16.677
	c-3.744,6.495-10.148,11.415-16.869,14.527c-11.02,5.103-23.413,3.938-34.332-0.759c-5.296-2.278-10.605-5.328-14.94-9.177
	c-0.352-0.312-0.905,0.146-0.71,0.555c3.438,7.221,5.216,15.582,5.519,23.529c0.514,13.413-5.166,28.02-18.118,33.697
	c-7.457,3.268-16.021,2.878-23.8,1.1c-4.016-0.918-8.101-2.213-11.798-4.06c-0.489-0.244-0.847,0.483-0.455,0.804
	c3.911,3.205,7.144,7.542,9.614,11.908c5.429,9.591,6.434,20.686,2.475,31.015c-4.513,11.773-13.953,20.86-25.954,24.681
	c-7.938,2.528-16.589,2.797-24.788,1.554c-1.243-0.188-2.922-0.495-3.928-0.764c-0.58-0.155-0.882,0.581-0.346,0.866
	c3.458,1.836,6.918,4.614,9.865,7.348c6.535,6.06,11.612,13.777,13.747,22.487c2.959,12.077-0.232,25.442-6.812,35.808
	c-5.504,8.67-14.166,14.292-24.282,15.886c-9.167,1.444-19.544,0.041-28.097-3.643C161.25,315.499,160.905,316.365,161.456,316.603
	L161.456,316.603z"/>
<path style="fill:#ECF0F0;" d="M239.26,311.891c1.13-2.827,1.346-5.67,0.569-7.914l-5.612,14.041
	C236.326,316.927,238.129,314.719,239.26,311.891z"/>
<path style="fill:#334D5C;" d="M356.195,69.73c-2.643,0.322-5.275,1.135-7.81,1.903c-6.774,2.054-13.29,4.95-19.552,8.231
	c-10.619,5.566-20.594,12.33-29.972,19.783c-13.466,10.702-25.741,22.885-37.096,35.785c-15.367,17.459-29.007,36.4-41.422,56.049
	c-16.518,26.143-30.872,53.631-43.736,81.735c-6.308,13.778-12.236,27.729-17.865,41.798c-1.489,3.723,4.283,6.029,5.772,2.309
	c12.742-31.85,27.051-63.111,43.664-93.138c12.571-22.72,26.568-44.72,42.392-65.323c6.363-8.285,13.044-16.328,20.073-24.058
	c1.592-1.751,3.205-3.484,4.836-5.201c0.76-0.8,1.524-1.595,2.292-2.387c0.378-0.391,0.758-0.779,1.139-1.167
	c0.189-0.193,0.378-0.385,0.567-0.578c0.252-0.255,0.252-0.255,0,0c0.125-0.126,0.251-0.252,0.377-0.379
	c3.01-3.029,6.087-5.99,9.229-8.882c10.097-9.293,20.92-17.856,32.574-25.118c0.563-0.352,1.13-0.699,1.697-1.044
	c0.278-0.169,0.558-0.337,0.836-0.505c0.231-0.138,1.371-0.811,0.418-0.25c1.108-0.653,2.225-1.292,3.35-1.918
	c2.055-1.146,4.137-2.242,6.244-3.289c3.439-1.705,6.949-3.268,10.534-4.641c1.391-0.533,2.793-1.033,4.207-1.502
	c0.604-0.199,1.212-0.392,1.821-0.578c0.268-0.081,0.536-0.161,0.805-0.24c1.009-0.295-0.688,0.191,0.117-0.033
	c1.457-0.408,2.929-0.773,4.416-1.049c0.336-0.062,0.673-0.125,1.012-0.166C361.096,75.393,360.176,69.244,356.195,69.73
	L356.195,69.73z"/>
<path style="fill:#22333D;" d="M341.954,290.131c-0.146-1.332-1.024-2.79,0.154-3.888c0.455-0.423,1.121-0.694,1.73-0.798
	c1.184-0.201,0.913-2.046-0.276-1.844c-1.23,0.209-2.342,0.824-3.17,1.751c-1.746,1.956,0.329,4.224-0.547,6.278
	c-1.011,2.371-5.215,1.576-6.487-0.018c-1.019-1.277-0.996-3.272-0.847-4.81c0.021-0.215,0.274-1.179,0.079-0.707
	c0.107-0.259,0.215-0.519,0.321-0.778c0.567-1.371,1.133-2.74,1.7-4.111c0.037-0.09,0.108-0.267,0.109-0.266
	c0.395,0.157,0.87,0.348,1.158,0.463c1.154,0.461,1.847-1.271,0.692-1.732c-0.289-0.115-0.75-0.299-1.138-0.455
	c0.001,0.001,0.117-0.287,0.118-0.287c0.388,0.155,0.847,0.338,1.135,0.454c1.154,0.462,1.847-1.27,0.692-1.731
	c-0.289-0.115-0.734-0.294-1.114-0.445c0.475-1.149,0.951-2.301,1.426-3.45c0.275-0.666-0.235-1.179-0.788-1.247
	c-0.447-0.332-1.171-0.312-1.431,0.361c-0.448,1.159-0.897,2.32-1.345,3.48c-0.351-0.14-0.788-0.314-1.077-0.43
	c-1.154-0.462-1.847,1.27-0.692,1.73c0.289,0.116,0.74,0.297,1.097,0.439c0.002,0-0.112,0.289-0.111,0.289
	c-0.358-0.143-0.811-0.324-1.1-0.439c-1.154-0.461-1.847,1.271-0.692,1.732c0.289,0.115,0.756,0.301,1.121,0.447
	c-0.561,1.449-1.099,2.843-1.648,4.266c-0.118,0.306-0.235,0.609-0.354,0.914c0.165-0.426-0.186,0.254-0.327,0.445
	c-0.933,1.263-2.2,2.552-3.753,2.986c-2.26,0.632-5.168-1.66-5.067-3.999c0.061-1.429,1.533-1.974,2.52-2.686
	c0.79-0.57,1.212-1.431,1.44-2.346c0.311-1.241-0.313-2.764-1.049-3.748c-0.723-0.965-2.191,0.186-1.473,1.147
	c0.328,0.439,0.547,0.963,0.664,1.494c0.351,1.59-1.152,2.193-2.227,2.945c-1.904,1.332-2.132,3.82-1.098,5.748
	c1.029,1.92,3.463,3.547,5.688,3.408c1.835-0.115,3.329-1.155,4.601-2.4c0.031,1.678,0.416,3.36,1.481,4.695
	c1.444,1.809,4.312,2.26,6.442,1.735C340.584,294.215,342.195,292.33,341.954,290.131z"/>
<path style="fill:#334D5C;" d="M339.919,274.65c-0.574,1.435-2.201,2.133-3.636,1.559l-1.443-0.576
	c-1.435-0.574-2.133-2.201-1.559-3.637l0,0c0.573-1.434,2.201-2.132,3.636-1.559l1.442,0.577
	C339.794,271.588,340.492,273.216,339.919,274.65L339.919,274.65z"/>
<g>
</g>
<g>
</g>
<g>
</g>
<g>
</g>
<g>
</g>
<g>
</g>
<g>
</g>
<g>
</g>
<g>
</g>
<g>
</g>
<g>
</g>
<g>
</g>
<g>
</g>
<g>
</g>
<g>
</g>
</svg>
