<?xml version="1.0" encoding="iso-8859-1"?>
<!-- Generator: Adobe Illustrator 17.0.0, SVG Export Plug-In . SVG Version: 6.00 Build 0)  -->
<!DOCTYPE svg PUBLIC "-//W3C//DTD SVG 1.1//EN" "http://www.w3.org/Graphics/SVG/1.1/DTD/svg11.dtd">
<svg version="1.1" id="Layer_1" xmlns="http://www.w3.org/2000/svg" xmlns:xlink="http://www.w3.org/1999/xlink" x="0px" y="0px"
	 width="512px" height="512px" viewBox="0 0 512 512" style="enable-background:new 0 0 512 512;" xml:space="preserve">
<path id="bg_46_" style="fill:#45B39C;" d="M256,0C114.613,0,0,114.619,0,255.998C0,397.383,114.613,512,256,512
	s256-114.617,256-256.002C512,114.619,397.387,0,256,0z"/>
<path style="fill:#EFC84A;" d="M207.499,283.883c-27.24,0-49.322,16.867-49.402,37.695c-0.054-0.016-0.107-0.027-0.107-0.027
	v110.516c0,0,0.051-0.02,0.141-0.053c0.446,20.484,17.162,36.969,37.758,36.969c20.881,0,37.808-16.928,37.808-37.803
	c0-20.881-16.927-37.805-37.808-37.805c-13.331,0-2.04-33.885,11.611-33.885c27.283,0,49.412-16.926,49.412-37.799
	C256.911,300.81,234.782,283.883,207.499,283.883z"/>
<path style="fill:#A8842A;" d="M207.499,359.49c27.283,0,49.412-16.926,49.412-37.799c0-20.881-22.129-37.809-49.412-37.809
	c-2.024,0-4.008,0.123-5.97,0.305c24.466,2.26,43.444,18.172,43.444,37.504c0,20.873-22.128,37.799-49.414,37.799
	c-13.648,0-24.942,33.885-11.609,33.885c20.881,0,37.806,16.924,37.806,37.805c0,18.842-13.801,34.42-31.842,37.283
	c1.95,0.311,3.934,0.52,5.974,0.52c20.881,0,37.808-16.928,37.808-37.803c0-20.881-16.927-37.805-37.808-37.805
	C182.557,393.375,193.848,359.49,207.499,359.49z"/>
<path style="fill:#EFC84A;" d="M248.476,288.133c7.863,0,14.242-9.428,14.242-21.059c0-11.629-6.379-21.062-14.242-21.062
	c-7.872,0-14.253,9.434-14.253,21.062C234.223,278.705,240.604,288.133,248.476,288.133z"/>
<path style="fill:#A8842A;" d="M248.476,246.012c-1.141,0-2.248,0.219-3.313,0.596c6.265,2.209,10.931,10.525,10.931,20.467
	c0,9.94-4.666,18.254-10.931,20.463c1.065,0.375,2.173,0.596,3.313,0.596c7.863,0,14.242-9.428,14.242-21.059
	C262.718,255.445,256.339,246.012,248.476,246.012z"/>
<path style="fill:#EFC84A;" d="M221.098,278.717c5.196,0,9.412-6.228,9.412-13.916s-4.216-13.918-9.412-13.918
	c-5.202,0-9.415,6.231-9.415,13.918S215.896,278.717,221.098,278.717z"/>
<path style="fill:#A8842A;" d="M221.098,250.883c-0.744,0-1.459,0.162-2.155,0.4c4.156,1.447,7.262,6.928,7.262,13.518
	c0,6.588-3.105,12.07-7.262,13.518c0.696,0.238,1.411,0.398,2.155,0.398c5.196,0,9.412-6.228,9.412-13.916
	S226.294,250.883,221.098,250.883z"/>
<ellipse style="fill:#EFC84A;" cx="197.558" cy="264.8" rx="9.418" ry="13.917"/>
<path style="fill:#A8842A;" d="M197.558,250.883c-0.867,0-1.691,0.23-2.486,0.555c3.986,1.619,6.935,6.959,6.935,13.363
	c0,6.406-2.948,11.746-6.935,13.363c0.795,0.324,1.619,0.553,2.486,0.553c5.199,0,9.418-6.228,9.418-13.916
	S202.757,250.883,197.558,250.883z"/>
<ellipse style="fill:#EFC84A;" cx="174.762" cy="270.743" rx="9.415" ry="13.917"/>
<path style="fill:#A8842A;" d="M174.762,256.826c-0.837,0-1.632,0.215-2.403,0.512c4.032,1.578,7.018,6.957,7.018,13.406
	c0,6.451-2.986,11.828-7.018,13.404c0.771,0.297,1.566,0.512,2.403,0.512c5.198,0,9.415-6.229,9.415-13.916
	C184.177,263.06,179.96,256.826,174.762,256.826z"/>
<path style="fill:#EFC84A;" d="M163.858,286.107c0-7.682-4.213-13.916-9.412-13.916c-5.201,0-9.415,6.234-9.415,13.916
	c0,7.688,4.214,13.916,9.415,13.916C159.646,300.023,163.858,293.795,163.858,286.107z"/>
<path style="fill:#A8842A;" d="M154.446,272.191c-0.774,0-1.516,0.174-2.239,0.434c4.118,1.492,7.182,6.943,7.182,13.482
	c0,6.541-3.063,11.986-7.182,13.479c0.724,0.26,1.465,0.438,2.239,0.438c5.199,0,9.412-6.229,9.412-13.916
	C163.858,278.426,159.646,272.191,154.446,272.191z"/>
<path style="fill:#EFC84A;" d="M304.503,91.906c27.242,0,49.323,16.865,49.403,37.691c0.054-0.012,0.107-0.025,0.107-0.025v110.516
	c0,0-0.051-0.02-0.14-0.055c-0.447,20.488-17.163,36.969-37.758,36.969c-20.882,0-37.806-16.924-37.806-37.799
	c0-20.881,16.924-37.809,37.806-37.809c13.33,0,2.039-33.881-11.613-33.881c-27.282,0-49.411-16.93-49.411-37.803
	C255.092,108.83,277.221,91.906,304.503,91.906z"/>
<path style="fill:#A8842A;" d="M353.906,129.598c-0.08-20.826-22.161-37.691-49.403-37.691c-2.224,0-4.397,0.152-6.544,0.369
	c24.136,2.451,42.78,18.195,42.853,37.322c0.053-0.012,0.107-0.025,0.107-0.025v110.516c0,0-0.048-0.02-0.141-0.055
	c-0.396,18.258-13.728,33.301-31.201,36.367c2.129,0.369,4.306,0.602,6.539,0.602c20.595,0,37.311-16.48,37.758-36.969
	c0.089,0.035,0.14,0.055,0.14,0.055V129.572C354.014,129.572,353.96,129.586,353.906,129.598z"/>
<path style="fill:#EFC84A;" d="M263.527,96.152c-7.86,0-14.241-9.426-14.241-21.055c0-11.633,6.381-21.065,14.241-21.065
	c7.872,0,14.253,9.432,14.253,21.065C277.78,86.727,271.399,96.152,263.527,96.152z"/>
<path style="fill:#A8842A;" d="M263.527,54.033c-1.165,0-2.29,0.229-3.37,0.619c6.24,2.242,10.876,10.537,10.876,20.445
	c0,9.906-4.636,18.193-10.876,20.436c1.08,0.391,2.205,0.619,3.37,0.619c7.872,0,14.253-9.426,14.253-21.055
	C277.78,63.465,271.399,54.033,263.527,54.033z"/>
<path style="fill:#EFC84A;" d="M290.908,86.74c-5.196,0-9.415-6.228-9.415-13.916s4.219-13.918,9.415-13.918
	c5.198,0,9.412,6.23,9.412,13.918S296.106,86.74,290.908,86.74z"/>
<path style="fill:#A8842A;" d="M290.908,58.906c-0.613,0-1.206,0.102-1.786,0.266c4.344,1.236,7.628,6.865,7.628,13.652
	c0,6.783-3.284,12.412-7.628,13.648c0.58,0.164,1.173,0.267,1.786,0.267c5.198,0,9.412-6.228,9.412-13.916
	S296.106,58.906,290.908,58.906z"/>
<path style="fill:#EFC84A;" d="M314.448,86.74c-5.199,0-9.421-6.228-9.421-13.916s4.222-13.918,9.421-13.918
	c5.195,0,9.412,6.23,9.412,13.918S319.644,86.74,314.448,86.74z"/>
<path style="fill:#A8842A;" d="M314.448,58.906c-0.685,0-1.343,0.119-1.986,0.322c4.243,1.346,7.433,6.914,7.433,13.596
	c0,6.678-3.189,12.246-7.433,13.592c0.644,0.203,1.302,0.324,1.986,0.324c5.195,0,9.412-6.228,9.412-13.916
	S319.644,58.906,314.448,58.906z"/>
<path style="fill:#EFC84A;" d="M337.241,92.68c-5.199,0-9.412-6.229-9.412-13.916c0-7.68,4.213-13.916,9.412-13.916
	c5.201,0,9.415,6.236,9.415,13.916C346.656,86.451,342.442,92.68,337.241,92.68z"/>
<path style="fill:#A8842A;" d="M337.241,64.848c-0.756,0-1.48,0.166-2.183,0.414c4.142,1.461,7.229,6.938,7.229,13.502
	c0,6.574-3.088,12.045-7.229,13.506c0.702,0.248,1.427,0.41,2.183,0.41c5.201,0,9.415-6.229,9.415-13.916
	C346.656,71.084,342.442,64.848,337.241,64.848z"/>
<path style="fill:#EFC84A;" d="M348.146,94.127c0-7.682,4.213-13.916,9.411-13.916c5.205,0,9.415,6.234,9.415,13.916
	c0,7.689-4.21,13.918-9.415,13.918C352.358,108.045,348.146,101.816,348.146,94.127z"/>
<path style="fill:#A8842A;" d="M357.557,80.211c-0.682,0-1.34,0.119-1.979,0.322c4.246,1.348,7.426,6.92,7.426,13.594
	c0,6.68-3.18,12.248-7.426,13.594c0.64,0.205,1.298,0.324,1.979,0.324c5.205,0,9.415-6.229,9.415-13.918
	C366.972,86.445,362.762,80.211,357.557,80.211z"/>
<g>
</g>
<g>
</g>
<g>
</g>
<g>
</g>
<g>
</g>
<g>
</g>
<g>
</g>
<g>
</g>
<g>
</g>
<g>
</g>
<g>
</g>
<g>
</g>
<g>
</g>
<g>
</g>
<g>
</g>
</svg>
