<?xml version="1.0" encoding="iso-8859-1"?>
<!-- Generator: Adobe Illustrator 17.0.0, SVG Export Plug-In . SVG Version: 6.00 Build 0)  -->
<!DOCTYPE svg PUBLIC "-//W3C//DTD SVG 1.1//EN" "http://www.w3.org/Graphics/SVG/1.1/DTD/svg11.dtd">
<svg version="1.1" id="Layer_1" xmlns="http://www.w3.org/2000/svg" xmlns:xlink="http://www.w3.org/1999/xlink" x="0px" y="0px"
	 width="512px" height="512px" viewBox="0 0 512 512" style="enable-background:new 0 0 512 512;" xml:space="preserve">
<circle id="background_69_" style="fill:#EFC84A;" cx="256" cy="256" r="256"/>
<g>
	<path style="fill:#92ADBD;" d="M78.354,282.105c0.2,0.123,0.492,0.225,0.8,0.225c0.456,0,0.723-0.24,0.723-0.589
		c0-0.323-0.185-0.508-0.65-0.688c-0.564-0.2-0.913-0.492-0.913-0.979c0-0.538,0.446-0.938,1.118-0.938
		c0.354,0,0.609,0.082,0.764,0.169l-0.123,0.364c-0.113-0.062-0.344-0.164-0.656-0.164c-0.472,0-0.651,0.281-0.651,0.518
		c0,0.323,0.21,0.482,0.687,0.666c0.585,0.227,0.883,0.508,0.883,1.016c0,0.533-0.396,0.994-1.211,0.994
		c-0.333,0-0.697-0.097-0.881-0.22L78.354,282.105z"/>
	<path style="fill:#92ADBD;" d="M83.893,280.885c0,1.189-0.723,1.82-1.604,1.82c-0.913,0-1.554-0.708-1.554-1.754
		c0-1.097,0.682-1.814,1.604-1.814C83.282,279.137,83.893,279.859,83.893,280.885z M81.211,280.941c0,0.738,0.4,1.399,1.103,1.399
		c0.707,0,1.107-0.651,1.107-1.436c0-0.687-0.359-1.405-1.103-1.405C81.58,279.5,81.211,280.183,81.211,280.941z"/>
	<path style="fill:#92ADBD;" d="M84.467,282.648v-3.455h0.487l1.107,1.748c0.256,0.404,0.456,0.769,0.62,1.123l0.011-0.006
		c-0.041-0.461-0.052-0.882-0.052-1.42v-1.445h0.421v3.455H86.61l-1.098-1.754c-0.241-0.384-0.472-0.779-0.646-1.153l-0.015,0.005
		c0.025,0.437,0.036,0.852,0.036,1.426v1.477H84.467z"/>
	<path style="fill:#92ADBD;" d="M88.282,279.193v3.455h-0.446v-3.455H88.282z"/>
</g>
<polygon style="fill:#1B2A33;" points="91.521,266 97.702,292 111.354,292 105.175,266 "/>
<g>
	<polygon style="fill:#233540;" points="210,220 210,300 69,300 104.052,220 	"/>
	<polygon style="fill:#334D5C;" points="409.545,220 442,300 210,300 210,220 	"/>
	<rect x="84" y="288" style="fill:#080D0F;" width="348" height="12"/>
	<polygon style="fill:#233540;" points="210,186 210,266 69.919,266 104.052,186 	"/>
	<polygon style="fill:#233540;" points="210,186 210,266 69,266 104.052,186 	"/>
	<polygon style="fill:#334D5C;" points="409.545,186 442,266 210,266 210,186 	"/>
	<rect x="210" y="186" style="fill:#238AB4;" width="5" height="80"/>
	<rect x="69" y="266" style="fill:#0F171C;" width="141" height="26"/>
	<rect x="215" y="266" style="fill:#2C424F;" width="227" height="26"/>
	<rect x="210" y="266" style="fill:#1B6B8C;" width="5" height="26"/>
	<rect x="69" y="300" style="fill:#162229;" width="141" height="26"/>
	<rect x="215" y="300" style="fill:#2C424F;" width="227" height="26"/>
	<rect x="210" y="300" style="fill:#0D3342;" width="5" height="26"/>
	<polygon style="fill:#1B2A33;" points="110.295,266 116.476,292 148.901,292 142.722,266 	"/>
</g>
<g>
</g>
<g>
</g>
<g>
</g>
<g>
</g>
<g>
</g>
<g>
</g>
<g>
</g>
<g>
</g>
<g>
</g>
<g>
</g>
<g>
</g>
<g>
</g>
<g>
</g>
<g>
</g>
<g>
</g>
</svg>
