<?xml version="1.0" encoding="iso-8859-1"?>
<!-- Generator: Adobe Illustrator 17.0.0, SVG Export Plug-In . SVG Version: 6.00 Build 0)  -->
<!DOCTYPE svg PUBLIC "-//W3C//DTD SVG 1.1//EN" "http://www.w3.org/Graphics/SVG/1.1/DTD/svg11.dtd">
<svg version="1.1" id="Layer_1" xmlns="http://www.w3.org/2000/svg" xmlns:xlink="http://www.w3.org/1999/xlink" x="0px" y="0px"
	 width="512px" height="512px" viewBox="0 0 512 512" style="enable-background:new 0 0 512 512;" xml:space="preserve">
<circle id="bg_51_" style="fill:#ECF0F0;" cx="256" cy="256.002" r="256"/>
<path style="fill:#B5B5B5;" d="M5.659,309.579C30.294,425.232,132.995,512,256,512c123.004,0,225.704-86.768,250.34-202.421H5.659z"
	/>
<path style="fill:#848484;" d="M459.176,340.86c0.321-0.673-14.208-17.338-13.893-18.014c0.356-0.732-22.558-4.017-22.222-4.761
	l-84.207-8.507L52.825,340.86l-29.76,21.309c0.111,0.241,0.219,0.485,0.33,0.73c5.828,12.541,17.054,30.682,31.136,50.943
	c42.124,53.693,105.195,90.138,176.948,96.959L459.176,340.86z"/>
<rect x="52.825" y="139.244" style="fill:#EFC84A;" width="406.351" height="201.616"/>
<rect x="52.825" y="139.244" style="fill:#7F611C;" width="406.351" height="14.14"/>
<polygon style="fill:#E45136;" points="254.515,68.008 34.95,142.245 477.05,142.245 "/>
<polygon style="fill:#B23424;" points="254.515,68.008 34.95,142.245 117.726,142.245 "/>
<rect x="97.951" y="159.518" style="fill:#FFFFFF;" width="316.098" height="181.343"/>
<rect x="104.491" y="165.404" width="303.02" height="175.456"/>
<rect x="104.491" y="165.404" style="fill:#FFFFFF;" width="303.02" height="20.49"/>
<rect x="104.491" y="178.919" style="fill:#C1C1C1;" width="303.02" height="6.976"/>
<rect x="104.491" y="185.922" style="fill:#FFFFFF;" width="303.02" height="20.49"/>
<rect x="104.491" y="206.439" style="fill:#FFFFFF;" width="303.02" height="20.491"/>
<rect x="104.491" y="226.961" style="fill:#FFFFFF;" width="303.02" height="20.49"/>
<rect x="104.491" y="226.961" style="fill:#FFFFFF;" width="303.02" height="20.49"/>
<path style="fill:#303030;" d="M154.637,335.6c0,2.888-2.342,5.23-5.231,5.23h-10.137c-2.89,0-5.232-2.343-5.232-5.23v-17.824
	c0-2.888,2.342-5.23,5.232-5.23h10.137c2.89,0,5.231,2.343,5.231,5.23V335.6z"/>
<path style="fill:#303030;" d="M240.803,335.6c0,2.888-2.347,5.23-5.231,5.23h-10.14c-2.887,0-5.233-2.343-5.233-5.23v-17.824
	c0-2.888,2.347-5.23,5.233-5.23h10.14c2.885,0,5.231,2.343,5.231,5.23V335.6z"/>
<path style="fill:#B23424;" d="M229.914,265.349c0-2.892-2.341-5.231-5.229-5.231h-74.122c-2.889,0-5.232,2.34-5.232,5.231
	l-5.231,30.519c0,2.889,7.574,5.232,10.463,5.232h74.122c2.888,0,10.46-2.344,10.46-5.232L229.914,265.349z"/>
<path style="fill:#2893C0;" d="M226.204,268.484c0-2.633-2.138-4.77-4.773-4.77h-67.614c-2.636,0-4.773,2.137-4.773,4.77
	l-4.773,27.846c0,2.635,6.91,4.77,9.546,4.77h67.614c2.636,0,9.547-2.135,9.547-4.77L226.204,268.484z"/>
<path style="fill:#E45136;" d="M219.442,285.449h-63.639c-20.472,0-29.221,16.597-29.221,37.07h122.084
	C248.667,302.046,239.913,285.449,219.442,285.449z"/>
<path style="fill:#B23424;" d="M155.804,293.412h63.639c17.736,0,26.663,12.463,28.732,29.107h0.492
	c0-20.474-8.754-37.07-29.225-37.07h-63.639c-20.472,0-29.221,16.597-29.221,37.07h0.488
	C129.144,305.875,138.067,293.412,155.804,293.412z"/>
<path style="fill:#FFFFFF;" d="M140.918,306.104c0-3.701,3.001-6.702,6.704-6.702c3.701,0,6.702,3.001,6.702,6.702
	c0,3.698-3.001,6.705-6.702,6.705C143.919,312.81,140.918,309.803,140.918,306.104z"/>
<path style="fill:#FFFFFF;" d="M221.14,306.104c0-3.701,3.004-6.702,6.705-6.702c3.701,0,6.702,3.001,6.702,6.702
	c0,3.698-3.001,6.705-6.702,6.705C224.144,312.81,221.14,309.803,221.14,306.104z"/>
<path style="fill:#FFFFFF;" d="M248.681,322.18c0,2.433-1.977,4.41-4.415,4.41H130.993c-2.437,0-4.41-1.978-4.41-4.41l0,0
	c0-2.438,1.974-4.41,4.41-4.41h113.272C246.704,317.77,248.681,319.741,248.681,322.18L248.681,322.18z"/>
<path style="fill:#303030;" d="M291.104,335.6c0,2.888-2.34,5.23-5.232,5.23h-10.138c-2.889,0-5.233-2.343-5.233-5.23v-17.824
	c0-2.888,2.344-5.23,5.233-5.23h10.138c2.892,0,5.232,2.343,5.232,5.23V335.6z"/>
<path style="fill:#303030;" d="M377.268,335.6c0,2.888-2.34,5.23-5.232,5.23h-10.139c-2.885,0-5.23-2.343-5.23-5.23v-17.824
	c0-2.888,2.346-5.23,5.23-5.23h10.139c2.892,0,5.232,2.343,5.232,5.23V335.6z"/>
<path style="fill:#2553AF;" d="M366.385,265.349c0-2.892-2.347-5.231-5.232-5.231h-74.122c-2.888,0-5.231,2.34-5.231,5.231
	l-5.231,30.519c0,2.889,7.575,5.232,10.463,5.232h74.122c2.885,0,10.463-2.344,10.463-5.232L366.385,265.349z"/>
<path style="fill:#2893C0;" d="M362.669,268.484c0-2.633-2.135-4.77-4.77-4.77h-67.616c-2.632,0-4.773,2.137-4.773,4.77
	l-4.772,27.846c0,2.635,6.914,4.77,9.546,4.77h67.616c2.635,0,9.543-2.135,9.543-4.77L362.669,268.484z"/>
<path style="fill:#3770E2;" d="M355.91,285.449h-63.636c-20.473,0-29.224,16.597-29.224,37.07h122.081
	C385.132,302.046,376.384,285.449,355.91,285.449z"/>
<path style="fill:#2553AF;" d="M292.274,293.412h63.636c17.733,0,26.661,12.463,28.735,29.107h0.486
	c0-20.474-8.748-37.07-29.222-37.07h-63.636c-20.473,0-29.224,16.597-29.224,37.07h0.488
	C265.611,305.875,274.535,293.412,292.274,293.412z"/>
<path style="fill:#FFFFFF;" d="M277.384,306.104c0-3.701,3.002-6.702,6.706-6.702c3.701,0,6.702,3.001,6.702,6.702
	c0,3.698-3.001,6.705-6.702,6.705C280.386,312.81,277.384,309.803,277.384,306.104z"/>
<path style="fill:#FFFFFF;" d="M357.607,306.104c0-3.701,3.005-6.702,6.702-6.702c3.704,0,6.703,3.001,6.703,6.702
	c0,3.698-2.999,6.705-6.703,6.705C360.612,312.81,357.607,309.803,357.607,306.104z"/>
<path style="fill:#FFFFFF;" d="M385.147,322.18c0,2.433-1.974,4.41-4.409,4.41H267.464c-2.439,0-4.413-1.978-4.413-4.41l0,0
	c0-2.438,1.974-4.41,4.413-4.41h113.273C383.173,317.77,385.147,319.741,385.147,322.18L385.147,322.18z"/>
<rect x="104.491" y="199.117" style="fill:#C1C1C1;" width="303.02" height="6.975"/>
<rect x="104.491" y="219.623" style="fill:#C1C1C1;" width="303.02" height="6.975"/>
<rect x="104.491" y="240.442" style="fill:#C1C1C1;" width="303.02" height="6.976"/>
<polygon style="opacity:0.5;" points="111.324,171.877 407.511,171.877 407.511,165.404 104.491,165.404 104.491,247.764 
	111.324,247.764 "/>
<g>
</g>
<g>
</g>
<g>
</g>
<g>
</g>
<g>
</g>
<g>
</g>
<g>
</g>
<g>
</g>
<g>
</g>
<g>
</g>
<g>
</g>
<g>
</g>
<g>
</g>
<g>
</g>
<g>
</g>
</svg>
