<?xml version="1.0" encoding="iso-8859-1"?>
<!-- Generator: Adobe Illustrator 17.0.0, SVG Export Plug-In . SVG Version: 6.00 Build 0)  -->
<!DOCTYPE svg PUBLIC "-//W3C//DTD SVG 1.1//EN" "http://www.w3.org/Graphics/SVG/1.1/DTD/svg11.dtd">
<svg version="1.1" id="Layer_1" xmlns="http://www.w3.org/2000/svg" xmlns:xlink="http://www.w3.org/1999/xlink" x="0px" y="0px"
	 width="512px" height="512px" viewBox="0 0 512 512" style="enable-background:new 0 0 512 512;" xml:space="preserve">
<g>
	<circle style="fill:#ECF0F0;" cx="256" cy="256" r="256"/>
	<g>
		<path style="fill:#334D5C;" d="M393.264,224.886c-0.004,0-1.232-2.686-2.629-5.968l-23.261-54.244
			c-1.396-3.283-5.5-5.674-9.066-5.674H246.536c-3.566,0-9.403,0-12.971,0h-75.36c-3.566,0-7.628,2.391-9.025,5.674l-23.219,54.392
			c-1.397,3.282-2.505,5.894-2.534,5.894c-0.028,0,0.008,2.845,0.008,6.412v24.968c0,3.567,2.799,6.661,6.366,6.661h256.818
			c3.567,0,6.815-3.094,6.815-6.661v-24.968C393.435,227.804,393.268,224.886,393.264,224.886z"/>
	</g>
	<g>
		<path style="fill:#F56350;" d="M393.264,224.886c-0.004,0-1.232-2.686-2.629-5.968l-23.261-54.244
			c-1.396-3.283-5.5-5.674-9.066-5.674H246.536c-3.566,0-9.403,0-12.971,0h-75.36c-3.566,0-7.628,2.391-9.025,5.674l-23.219,54.392
			c-1.397,3.282-2.505,5.894-2.534,5.894c-0.028,0,0.008,2.845,0.008,6.412v24.968c0,3.567,2.799,6.661,6.366,6.661h256.818
			c3.567,0,6.815-3.094,6.815-6.661v-24.968C393.435,227.804,393.268,224.886,393.264,224.886z"/>
	</g>
	<g>
		<polygon style="fill:#D6B342;" points="372.247,176 144.266,176 132.255,205 384.257,205 		"/>
	</g>
	<g>
		<path style="fill:#E05B49;" d="M386.435,415.272c0,5.373-4.355,9.728-9.728,9.728H140.162c-5.372,0-9.727-4.355-9.727-9.728
			V263.728c0-5.373,4.355-9.728,9.727-9.728h236.545c5.372,0,9.728,4.355,9.728,9.728V415.272z"/>
	</g>
	<g>
		<path style="fill:#CF5445;" d="M215.636,338.322c2.821,2.183,2.309,4.715-1.141,5.626l-15.816,4.181
			c-3.448,0.912-7.255,4.405-8.459,7.763l-5.522,15.399c-1.204,3.357-3.771,3.651-5.703,0.653l-8.864-13.75
			c-1.933-2.998-6.431-5.539-9.996-5.647l-16.352-0.493c-3.564-0.107-4.638-2.457-2.384-5.222l10.339-12.679
			c2.254-2.765,3.28-7.828,2.281-11.252l-4.584-15.705c-1-3.424,0.904-5.17,4.229-3.881l15.253,5.914
			c3.326,1.29,8.459,0.701,11.406-1.307l13.52-9.213c2.947-2.009,5.197-0.738,4.998,2.823l-0.911,16.334
			c-0.199,3.562,1.947,8.262,4.768,10.444L215.636,338.322z"/>
	</g>
	<g>
		<path style="fill:#CF5445;" d="M246.455,386.656c2.302,0.223,2.895,1.788,1.318,3.479l-7.23,7.756
			c-1.576,1.691-2.457,4.922-1.958,7.179l2.29,10.353c0.5,2.258-0.807,3.305-2.901,2.328l-9.61-4.479
			c-2.096-0.977-5.44-0.816-7.433,0.355l-9.138,5.377c-1.993,1.173-3.393,0.255-3.111-2.04l1.29-10.524
			c0.281-2.294-0.904-5.426-2.636-6.958l-7.938-7.029c-1.732-1.533-1.29-3.148,0.979-3.59l10.408-2.024
			c2.27-0.441,4.881-2.537,5.804-4.656l4.232-9.723c0.923-2.119,2.595-2.199,3.716-0.178l5.143,9.272
			c1.121,2.022,3.921,3.858,6.222,4.081L246.455,386.656z"/>
	</g>
	<g>
		<path style="fill:#CF5445;" d="M338.136,405.587c-0.954,4.107-3.927,4.804-6.607,1.549l-12.29-14.932
			c-2.68-3.255-8.31-5.623-12.51-5.261l-19.268,1.659c-4.201,0.362-5.782-2.25-3.515-5.805l10.403-16.303
			c2.268-3.555,2.78-9.641,1.138-13.523l-7.532-17.812c-1.643-3.884,0.353-6.194,4.435-5.136l18.72,4.854
			c4.081,1.059,10.027-0.335,13.213-3.097l14.612-12.668c3.186-2.762,6.001-1.578,6.255,2.631l1.167,19.304
			c0.254,4.209,3.417,9.433,7.028,11.609l16.564,9.982c3.611,2.177,3.355,5.22-0.568,6.762l-17.998,7.075
			c-3.924,1.542-7.916,6.165-8.869,10.271L338.136,405.587z"/>
	</g>
	<rect x="130.435" y="249" style="fill:#AD4639;" width="256" height="46"/>
	<path style="fill:#E05B49;" d="M393.435,274.515c0,3.581-2.903,6.485-6.485,6.485H129.92c-3.582,0-6.485-2.904-6.485-6.485v-46.029
		c0-3.581,2.903-6.485,6.485-6.485h257.029c3.582,0,6.485,2.904,6.485,6.485V274.515z"/>
	<g>
		<path style="fill:#CF5445;" d="M318.22,271.573c-0.501,2.155-2.062,2.521-3.468,0.812l-6.45-7.837
			c-1.406-1.708-4.36-2.951-6.565-2.761l-10.112,0.871c-2.205,0.189-3.035-1.181-1.845-3.047l5.46-8.556
			c1.19-1.865,1.459-5.059,0.598-7.098l-3.953-9.348c-0.862-2.038,0.185-3.251,2.327-2.695l9.824,2.548
			c2.142,0.556,5.263-0.176,6.935-1.625l7.669-6.648c1.672-1.45,3.149-0.829,3.282,1.38l0.612,10.131
			c0.134,2.209,1.794,4.951,3.688,6.094l8.693,5.239c1.896,1.142,1.761,2.739-0.299,3.549l-9.445,3.713
			c-2.06,0.81-4.154,3.235-4.655,5.391L318.22,271.573z"/>
	</g>
	<rect x="220.435" y="254" style="fill:#CFAD40;" width="81" height="170"/>
	<rect x="220.435" y="254" style="fill:#BD9E3A;" width="81" height="41"/>
	<rect x="217.435" y="222" style="fill:#D6B342;" width="87" height="59"/>
	<polygon style="fill:#EFC84A;" points="297.132,159 240.051,159 225.774,159 218.001,222 304.904,222 	"/>
	<g>
		<g>
			<path style="fill:#BD9E3A;" d="M291.609,204.456c0,0,92.092,4.864,126.464-62.583l-3.891-30.806
				c0,0-47.344,76.852-127.762,59.665L291.609,204.456z"/>
			<path style="fill:#FFD54F;" d="M291.609,204.456c0,0,27.887-122.896,126.464-62.583l-3.891-30.806
				c0,0-66.799-53.828-127.762,59.665L291.609,204.456z"/>
		</g>
		<g>
			<path style="fill:#BD9E3A;" d="M237.457,204.456c0,0-92.092,4.864-126.464-62.583l3.891-30.806c0,0,47.344,76.852,127.762,59.665
				L237.457,204.456z"/>
			<path style="fill:#FFD54F;" d="M237.457,204.456c0,0-27.887-122.896-126.464-62.583l3.891-30.806
				c0,0,66.799-53.828,127.762,59.665L237.457,204.456z"/>
		</g>
	</g>
	<g>
		<g>
			<path style="fill:#DEB945;" d="M292.49,203.229c0.229,2.631-1.744,4.771-4.385,4.771H234.8c-2.641,0-4.613-2.141-4.385-4.771
				l2.722-30.869c0.23-2.63,2.577-4.359,5.218-4.359h46.197c2.64,0,4.988,1.73,5.217,4.359L292.49,203.229z"/>
		</g>
		<g>
			<path style="fill:#FFD54F;" d="M292.49,199.783c0.229,2.631-1.744,5.217-4.385,5.217H234.8c-2.641,0-4.613-2.586-4.385-5.217
				l2.722-31.146c0.23-2.631,2.577-4.638,5.218-4.638h46.197c2.64,0,4.988,2.007,5.217,4.638L292.49,199.783z"/>
		</g>
	</g>
	<g>
		<path style="fill:#CF5445;" d="M180.39,271.09c-0.352,1.51-1.444,1.766-2.429,0.569l-4.519-5.489
			c-0.984-1.196-3.054-2.066-4.599-1.934l-7.083,0.61c-1.545,0.133-2.126-0.827-1.292-2.134l3.824-5.993
			c0.834-1.307,1.021-3.544,0.418-4.972l-2.769-6.548c-0.604-1.428,0.13-2.277,1.63-1.888l6.882,1.784
			c1.5,0.39,3.686-0.123,4.858-1.138l5.371-4.657c1.172-1.016,2.206-0.58,2.3,0.967l0.429,7.097
			c0.094,1.547,1.256,3.468,2.584,4.268l6.089,3.67c1.327,0.8,1.233,1.919-0.21,2.485l-6.615,2.601
			c-1.443,0.567-2.91,2.267-3.261,3.776L180.39,271.09z"/>
	</g>
</g>
<g>
</g>
<g>
</g>
<g>
</g>
<g>
</g>
<g>
</g>
<g>
</g>
<g>
</g>
<g>
</g>
<g>
</g>
<g>
</g>
<g>
</g>
<g>
</g>
<g>
</g>
<g>
</g>
<g>
</g>
</svg>
