<?xml version="1.0" encoding="iso-8859-1"?>
<!-- Generator: Adobe Illustrator 17.0.0, SVG Export Plug-In . SVG Version: 6.00 Build 0)  -->
<!DOCTYPE svg PUBLIC "-//W3C//DTD SVG 1.1//EN" "http://www.w3.org/Graphics/SVG/1.1/DTD/svg11.dtd">
<svg version="1.1" id="Layer_1" xmlns="http://www.w3.org/2000/svg" xmlns:xlink="http://www.w3.org/1999/xlink" x="0px" y="0px"
	 width="512px" height="512px" viewBox="0 0 512 512" style="enable-background:new 0 0 512 512;" xml:space="preserve">
<path id="bg_38_" style="fill:#E05B49;" d="M512,256.002C512,397.381,397.386,512,256,512C114.615,512,0,397.381,0,256.002
	C0,114.621,114.615,0,256,0C397.386,0,512,114.621,512,256.002z"/>
<rect x="265.276" y="82.952" style="fill:#DBDBDB;" width="5.083" height="306.949"/>
<rect x="257.087" y="390.315" style="fill:#1F2D39;" width="21.581" height="55.86"/>
<rect x="269.732" y="390.315" style="fill:#3E4B55;" width="5.707" height="55.86"/>
<path style="fill:#1F2D39;" d="M324.478,463.561c0,3.368-2.73,6.099-6.098,6.099H217.51c-3.368,0-6.099-2.73-6.099-6.099v-17.602
	c0-3.367,2.73-6.098,6.099-6.098h100.871c3.367,0,6.098,2.73,6.098,6.098V463.561z"/>
<path style="fill:#1F2D39;" d="M302.626,452.891c0,3.367-2.73,6.098-6.098,6.098h-56.973c-3.368,0-6.099-2.73-6.099-6.098v-17.603
	c0-3.367,2.73-6.098,6.099-6.098h56.973c3.368,0,6.098,2.73,6.098,6.098V452.891z"/>
<rect x="231.421" y="439.805" style="fill:#3E4B55;" width="15.912" height="11.338"/>
<rect x="242.188" y="429.229" style="fill:#3E4B55;" width="9.528" height="10.671"/>
<path style="fill:#2893C0;" d="M401.693,237.398c0,73.136-59.293,132.437-132.439,132.437c-73.146,0-132.439-59.301-132.439-132.437
	c0-73.142,59.293-132.441,132.439-132.441C342.4,104.956,401.693,164.256,401.693,237.398z"/>
<path style="fill:#2384AD;" d="M269.255,104.956c-17.925,0-35.003,3.582-50.592,10.031c10.69-2.927,21.932-4.514,33.55-4.514
	c70.099,0,126.926,56.822,126.926,126.924c0,70.093-56.827,126.928-126.926,126.928c-11.612,0-22.849-1.59-33.53-4.514
	c15.583,6.449,32.654,10.023,50.572,10.023c73.146,0,132.439-59.301,132.439-132.437C401.693,164.256,342.4,104.956,269.255,104.956
	z"/>
<path style="fill:#8CC6BA;" d="M168.674,151.286c7.857,11.437,19.713,26.127,32.084,32.02c21.532,10.251,26.146,4.097,12.815-3.591
	c-13.327-7.688-24.091-19.481-15.89-29.221c8.202-9.736,16.401-8.713,17.941-2.559c1.534,6.146,4.613,6.667,9.739-6.154
	c3.435-8.581,18.598-26.121,36.705-36.623C224.722,107.153,191.511,124.641,168.674,151.286z"/>
<path style="fill:#8CC6BA;" d="M223.829,192.02c-3.921,5.271-10.762,21.533-0.514,35.882c10.254,14.357,21.016,21.53,19.993,41.524
	c-1.026,19.991-6.151,38.439,10.253,48.702c16.403,10.252,10.764,2.046,6.15-6.666c-4.611-8.719-2.565-21.53,9.739-29.727
	c12.308-8.206,26.009-25.698,27.171-41.018c1.269-16.677-2.049-22.046-14.863-31.785
	C268.942,199.199,238.691,172.036,223.829,192.02z"/>
<path style="fill:#8CC6BA;" d="M395.171,196.329c-10.616-32.55-33.467-59.57-63.153-75.577c-4.597,1.396-10.173,4.65-16.425,11.803
	c-14.354,16.408-15.893,21.02-4.104,38.957c11.791,17.942,32.297,41.016,46.141,39.473
	C369.505,209.666,387.402,209.844,395.171,196.329z"/>
<path style="fill:#DBDBDB;" d="M269.255,396.339c-87.643,0-158.943-71.299-158.943-158.941c0-87.648,71.3-158.95,158.943-158.95
	c9.268,0,18.573,0.81,27.653,2.4c3.349,0.589,5.586,3.779,5.001,7.125c-0.587,3.347-3.778,5.589-7.125,4.996
	c-8.385-1.471-16.973-2.215-25.529-2.215c-80.857,0-146.639,65.784-146.639,146.644c0,80.856,65.781,146.636,146.639,146.636
	c46.674,0,89.501-21.465,117.496-58.892c2.037-2.724,5.893-3.27,8.613-1.242c2.722,2.034,3.277,5.894,1.242,8.614
	C366.264,373.079,319.846,396.339,269.255,396.339z"/>
<path style="fill:#2384AD;" d="M269.255,104.956c-17.925,0-35.003,3.582-50.592,10.031c10.69-2.927,21.932-4.514,33.55-4.514
	c70.099,0,126.926,56.822,126.926,126.924c0,70.093-56.827,126.928-126.926,126.928c-11.612,0-22.849-1.59-33.53-4.514
	c15.583,6.449,32.654,10.023,50.572,10.023c73.146,0,132.439-59.301,132.439-132.437C401.693,164.256,342.4,104.956,269.255,104.956
	z"/>
<path style="fill:#7EB3A7;" d="M252.213,110.474c0.566,0,1.119,0.035,1.683,0.042c2.632-1.912,5.356-3.72,8.167-5.357
	c-0.286,0.019-0.563,0.048-0.846,0.066c-1.946,0.119-3.884,0.265-5.807,0.464c-0.683,0.071-1.352,0.17-2.027,0.253
	c-1.539,0.186-3.079,0.379-4.598,0.613c-0.876,0.137-1.735,0.301-2.603,0.456c-1.309,0.226-2.611,0.458-3.906,0.724
	c-0.982,0.208-1.956,0.438-2.932,0.667c-1.159,0.271-2.314,0.532-3.461,0.83c-1.039,0.271-2.064,0.572-3.098,0.864
	c-1.066,0.307-2.133,0.613-3.188,0.94c-1.045,0.333-2.086,0.682-3.117,1.036c-1.033,0.349-2.062,0.709-3.079,1.081
	c-1.01,0.375-2.009,0.765-3.001,1.161c-0.493,0.196-0.976,0.398-1.463,0.599C229.55,112.043,240.694,110.474,252.213,110.474z"/>
<path style="fill:#7EB3A7;" d="M318.704,129.279c28.434,17.523,49.398,45.942,57.14,79.437c7.715-1.677,15.056-4.958,19.327-12.387
	c0,0-0.003,0-0.003-0.006c-4.641-14.235-11.623-27.407-20.496-39.067c-0.018-0.027-0.037-0.051-0.056-0.074
	c-1.244-1.635-2.525-3.237-3.846-4.812c-0.053-0.064-0.116-0.134-0.173-0.199c-1.282-1.524-2.601-3.027-3.954-4.493
	c-0.097-0.112-0.203-0.214-0.303-0.324c-1.318-1.42-2.662-2.813-4.037-4.178c-0.147-0.143-0.301-0.279-0.447-0.423
	c-1.342-1.318-2.711-2.613-4.109-3.87c-0.194-0.173-0.394-0.337-0.583-0.507c-1.366-1.215-2.755-2.414-4.171-3.569
	c-0.24-0.196-0.485-0.378-0.727-0.569c-1.393-1.125-2.798-2.232-4.237-3.302c-0.253-0.179-0.513-0.357-0.763-0.542
	c-1.445-1.054-2.901-2.09-4.387-3.088c-0.249-0.166-0.506-0.321-0.752-0.482c-1.51-0.997-3.031-1.977-4.584-2.908
	c-0.21-0.131-0.43-0.248-0.643-0.373c-1.603-0.952-3.223-1.891-4.87-2.783c-0.008,0-0.011-0.003-0.014-0.006
	C328.197,121.916,323.7,124.393,318.704,129.279z"/>
<g>
</g>
<g>
</g>
<g>
</g>
<g>
</g>
<g>
</g>
<g>
</g>
<g>
</g>
<g>
</g>
<g>
</g>
<g>
</g>
<g>
</g>
<g>
</g>
<g>
</g>
<g>
</g>
<g>
</g>
</svg>
