<?xml version="1.0" encoding="iso-8859-1"?>
<!-- Generator: Adobe Illustrator 17.0.0, SVG Export Plug-In . SVG Version: 6.00 Build 0)  -->
<!DOCTYPE svg PUBLIC "-//W3C//DTD SVG 1.1//EN" "http://www.w3.org/Graphics/SVG/1.1/DTD/svg11.dtd">
<svg version="1.1" id="Layer_1" xmlns="http://www.w3.org/2000/svg" xmlns:xlink="http://www.w3.org/1999/xlink" x="0px" y="0px"
	 width="512px" height="512px" viewBox="0 0 512 512" style="enable-background:new 0 0 512 512;" xml:space="preserve">
<circle style="fill:#ECF0F0;" cx="256" cy="256" r="256"/>
<path style="fill:#E27C3E;" d="M301.188,332.869c0-17.277,14.545-24.477,5.414-42.476c-9.13-17.998-34.97-20.518-51.181-20.518
	c-16.21,0-41.942,2.52-51.073,20.518c-9.131,17.999,5.469,25.198,5.469,42.476c0,17.278-26.083,29.518-26.083,65.513
	c0,35.997,23.753,55.074,71.688,55.074c47.936,0,71.77-19.077,71.77-55.074C327.19,362.387,301.188,350.147,301.188,332.869z"/>
<path style="fill:#EFC84A;" d="M256.094,343.877c-13.427,0-24.351-10.923-24.351-24.351c0-13.427,10.924-24.351,24.351-24.351
	c13.427,0,24.352,10.924,24.352,24.351C280.445,332.954,269.521,343.877,256.094,343.877z"/>
<circle style="fill:#334D5C;" cx="256.094" cy="319.526" r="19.607"/>
<rect x="228" y="376" style="fill:#334D5C;" width="54" height="12"/>
<polygon style="fill:#334D5C;" points="273.429,394 237.495,394 235.381,382 275.543,382 "/>
<polygon style="fill:#334D5C;" points="268.744,311 243.128,311 245.025,124 266.847,124 "/>
<rect x="245" y="120" style="fill:#ECF0F0;" width="21" height="4"/>
<polygon style="fill:#4C738A;" points="267.127,152 244.746,152 244.727,154 267.146,154 "/>
<polygon style="fill:#4C738A;" points="244.439,182 267.435,182 267.415,180 244.458,180 "/>
<polygon style="fill:#4C738A;" points="244.149,211 267.724,211 267.704,209 244.169,209 "/>
<polygon style="fill:#4C738A;" points="243.86,239 268.013,239 267.993,237 243.88,237 "/>
<polygon style="fill:#4C738A;" points="243.571,268 268.302,268 268.282,266 243.591,266 "/>
<polygon style="fill:#4C738A;" points="243.282,296 268.591,296 268.571,294 243.302,294 "/>
<g>
	<rect x="247" y="120" style="fill:#ECF0F0;" width="1" height="264"/>
</g>
<g>
	<rect x="251" y="120" style="fill:#ECF0F0;" width="1" height="264"/>
</g>
<g>
	<rect x="255" y="120" style="fill:#ECF0F0;" width="1" height="264"/>
</g>
<g>
	<rect x="259" y="120" style="fill:#ECF0F0;" width="1" height="264"/>
</g>
<g>
	<rect x="263" y="120" style="fill:#ECF0F0;" width="1" height="264"/>
</g>
<rect x="234" y="95" style="fill:#ECF0F0;" width="43" height="4"/>
<polygon style="fill:#334D5C;" points="238,59 238,104.796 245.025,120 266.847,120 273,104.796 273,59 "/>
<path style="fill:#334D5C;" d="M280,98.628c0,1.31-1.062,2.372-2.372,2.372h-0.256c-1.31,0-2.372-1.062-2.372-2.372v-3.256
	c0-1.31,1.062-2.372,2.372-2.372h0.256c1.31,0,2.372,1.062,2.372,2.372V98.628z"/>
<rect x="234" y="95" style="fill:#ECF0F0;" width="43" height="4"/>
<path style="fill:#334D5C;" d="M236,98.628c0,1.31-1.062,2.372-2.372,2.372h-0.256c-1.31,0-2.372-1.062-2.372-2.372v-3.256
	c0-1.31,1.062-2.372,2.372-2.372h0.256c1.31,0,2.372,1.062,2.372,2.372V98.628z"/>
<circle style="fill:#334D5C;stroke:#ECF0F0;stroke-width:0.9487;stroke-miterlimit:10;" cx="245.5" cy="96.257" r="3.795"/>
<circle style="fill:#334D5C;stroke:#ECF0F0;stroke-width:0.9487;stroke-miterlimit:10;" cx="267.321" cy="96.257" r="3.795"/>
<rect x="239" y="380" style="fill:#ECF0F0;" width="33" height="4"/>
<rect x="234" y="66" style="fill:#ECF0F0;" width="43" height="3"/>
<rect x="234" y="80" style="fill:#ECF0F0;" width="43" height="4"/>
<path style="fill:#334D5C;" d="M280,69.628c0,1.31-1.062,2.372-2.372,2.372h-0.256c-1.31,0-2.372-1.062-2.372-2.372v-3.256
	c0-1.31,1.062-2.372,2.372-2.372h0.256c1.31,0,2.372,1.062,2.372,2.372V69.628z"/>
<path style="fill:#334D5C;" d="M280,83.629c0,1.31-1.062,2.371-2.372,2.371h-0.256c-1.31,0-2.372-1.062-2.372-2.371v-3.258
	c0-1.31,1.062-2.371,2.372-2.371h0.256c1.31,0,2.372,1.062,2.372,2.371V83.629z"/>
<path style="fill:#334D5C;" d="M237,69.628c0,1.31-1.061,2.372-2.371,2.372h-0.258c-1.31,0-2.371-1.062-2.371-2.372v-3.256
	c0-1.31,1.061-2.372,2.371-2.372h0.258c1.31,0,2.371,1.062,2.371,2.372V69.628z"/>
<path style="fill:#334D5C;" d="M236,83.629c0,1.31-1.062,2.371-2.372,2.371h-0.256c-1.31,0-2.372-1.062-2.372-2.371v-3.258
	c0-1.31,1.062-2.371,2.372-2.371h0.256c1.31,0,2.372,1.062,2.372,2.371V83.629z"/>
<circle style="fill:#334D5C;stroke:#ECF0F0;stroke-width:0.9487;stroke-miterlimit:10;" cx="245.065" cy="67.229" r="3.795"/>
<circle style="fill:#334D5C;stroke:#ECF0F0;stroke-width:0.9487;stroke-miterlimit:10;" cx="245.065" cy="81.461" r="3.795"/>
<circle style="fill:#334D5C;stroke:#ECF0F0;stroke-width:0.9487;stroke-miterlimit:10;" cx="266.887" cy="67.229" r="3.795"/>
<circle style="fill:#334D5C;stroke:#ECF0F0;stroke-width:0.9487;stroke-miterlimit:10;" cx="266.887" cy="81.461" r="3.795"/>
<g>
</g>
<g>
</g>
<g>
</g>
<g>
</g>
<g>
</g>
<g>
</g>
<g>
</g>
<g>
</g>
<g>
</g>
<g>
</g>
<g>
</g>
<g>
</g>
<g>
</g>
<g>
</g>
<g>
</g>
</svg>
