<?xml version="1.0" encoding="iso-8859-1"?>
<!-- Generator: Adobe Illustrator 17.0.0, SVG Export Plug-In . SVG Version: 6.00 Build 0)  -->
<!DOCTYPE svg PUBLIC "-//W3C//DTD SVG 1.1//EN" "http://www.w3.org/Graphics/SVG/1.1/DTD/svg11.dtd">
<svg version="1.1" id="Layer_1" xmlns="http://www.w3.org/2000/svg" xmlns:xlink="http://www.w3.org/1999/xlink" x="0px" y="0px"
	 width="512px" height="512px" viewBox="0 0 512 512" style="enable-background:new 0 0 512 512;" xml:space="preserve">
<circle id="background_42_" style="fill:#45B39C;" cx="256" cy="256" r="256"/>
<path style="fill:#ECF0F0;" d="M373.738,291.309c2.69-5.189,4.984-10.589,7.252-15.971c4.752-11.27,8.791-22.857,11.912-34.688
	c3.686-13.983,6.196-28.617,5.961-43.117c-0.14-8.682-1.423-17.413-3.498-25.836c-4.695-19.072-13.903-36.767-26.106-52.084
	c-13.865-17.406-32.218-30.633-52.66-39.239c-24.21-10.195-51.489-13.184-77.519-10.639c-24.528,2.398-48.558,10.099-68.863,24.287
	c-17.231,12.04-31.531,28.043-41.486,46.569c-8.741,16.271-14.267,34.322-15.415,52.785c-0.826,13.312,1.099,26.83,3.982,39.8
	c2.811,12.657,6.859,25.036,11.646,37.078c2.828,7.113,5.807,14.25,9.334,21.054c1.962,3.786,7.172,4.883,10.714,2.81
	c3.816-2.236,4.773-6.925,2.808-10.714c-0.658-1.268-1.274-2.56-1.888-3.85c-0.712-1.498-1.405-3.006-2.085-4.522
	c-0.403-0.898-0.801-1.802-1.195-2.705c-0.213-0.49-0.425-0.981-0.635-1.473c-0.109-0.256-0.219-0.511-0.326-0.766
	c-0.482-1.133,0.916,2.184,0.232,0.552c-4.763-11.361-8.805-23.045-11.901-34.974c-1.815-6.993-3.263-14.083-4.243-21.241
	c0.094,0.693,0.186,1.387,0.279,2.081c-1.357-10.135-1.684-20.336-0.344-30.482c-0.094,0.693-0.188,1.387-0.281,2.082
	c1.136-8.449,3.244-16.742,6.147-24.752c0.364-1.01,0.747-2.014,1.138-3.014c0.197-0.503,0.398-1.005,0.602-1.505
	c0.104-0.251,0.207-0.501,0.31-0.751c0.653-1.58-0.742,1.744-0.262,0.616c0.896-2.106,1.858-4.187,2.867-6.241
	c2.068-4.214,4.381-8.307,6.896-12.271c1.287-2.026,2.637-4.013,4.035-5.965c0.678-0.946,1.373-1.882,2.078-2.81
	c0.363-0.479,1.151-1.494-0.512,0.654c0.18-0.231,0.359-0.461,0.541-0.693c0.424-0.538,0.854-1.073,1.285-1.606
	c3.143-3.874,6.525-7.547,10.104-11.019c1.832-1.776,3.725-3.49,5.664-5.15c0.941-0.807,1.898-1.596,2.863-2.375
	c0.486-0.391,0.977-0.777,1.468-1.161c1.05-0.819-1.651,1.271-0.592,0.458c0.331-0.253,0.667-0.505,1.002-0.756
	c4.28-3.207,8.78-6.119,13.436-8.749c3.483-1.968,7.07-3.755,10.723-5.385c0.414-0.185,0.83-0.364,1.246-0.547
	c1.805-0.781-1.801,0.747,0.02-0.008c0.955-0.397,1.916-0.778,2.882-1.153c1.958-0.759,3.939-1.464,5.932-2.129
	c8.571-2.865,17.431-4.828,26.383-6.041c-0.693,0.093-1.386,0.187-2.081,0.279c14.821-1.971,29.955-1.97,44.775,0
	c-0.692-0.093-1.386-0.187-2.081-0.279c12.073,1.637,23.934,4.68,35.205,9.323c0.54,0.222,1.835,0.776-0.606-0.261
	c0.312,0.134,0.627,0.269,0.939,0.405c0.623,0.271,1.242,0.547,1.861,0.827c1.327,0.602,2.643,1.23,3.949,1.875
	c2.467,1.219,4.889,2.526,7.27,3.904c4.613,2.669,9.043,5.648,13.277,8.885c-2.36-1.805-0.4-0.305,0.139,0.124
	c0.487,0.387,0.973,0.778,1.454,1.173c1.036,0.849,2.057,1.717,3.065,2.599c1.916,1.675,3.774,3.415,5.584,5.204
	c3.537,3.494,6.852,7.215,9.949,11.103c0.436,0.547,1.881,2.422,0.039,0.033c0.357,0.464,0.709,0.931,1.061,1.398
	c0.754,1.008,1.49,2.029,2.215,3.059c1.379,1.958,2.693,3.96,3.96,5.993c2.476,3.972,4.718,8.087,6.747,12.305
	c0.713,1.485,1.395,2.985,2.05,4.497c0.263,0.604,0.884,2.083-0.255-0.618c0.176,0.416,0.348,0.835,0.52,1.253
	c0.307,0.75,0.604,1.503,0.896,2.259c1.147,2.968,2.177,5.982,3.095,9.029c1.772,5.879,3.087,11.896,3.906,17.982
	c-0.093-0.695-0.186-1.389-0.279-2.082c1.342,10.146,1.014,20.348-0.344,30.482c0.094-0.694,0.188-1.388,0.28-2.081
	c-1.892,13.813-5.533,27.345-10.115,40.497c-1.845,5.299-3.866,10.539-6.03,15.718c-0.238,0.568-0.742,1.757,0.344-0.811
	c-0.108,0.258-0.219,0.515-0.328,0.772c-0.212,0.496-0.426,0.992-0.641,1.486c-0.426,0.985-0.861,1.967-1.3,2.945
	c-0.679,1.516-1.373,3.022-2.085,4.522c-0.611,1.292-1.23,2.582-1.887,3.85c-1.965,3.789-1.01,8.477,2.809,10.714
	C366.565,296.192,371.775,295.095,373.738,291.309L373.738,291.309z"/>
<circle style="fill:#E27C3E;" cx="176.23" cy="309.085" r="38.99"/>
<path style="fill:#172229;" d="M220.545,359.003c0,10.812-8.763,19.575-19.575,19.575h-16.835c-10.812,0-19.575-8.764-19.575-19.575
	v-99.835c0-10.812,8.764-19.574,19.575-19.574h16.835c10.812,0,19.575,8.763,19.575,19.574V359.003z"/>
<circle style="fill:#E27C3E;" cx="335.783" cy="309.085" r="38.99"/>
<circle style="fill:#B86532;" cx="360.571" cy="325.787" r="8.087"/>
<path style="fill:#172229;" d="M347.393,359.003c0,10.812-8.763,19.575-19.575,19.575h-16.834c-10.812,0-19.575-8.764-19.575-19.575
	v-99.835c0-10.812,8.763-19.574,19.575-19.574h16.834c10.812,0,19.575,8.763,19.575,19.574V359.003z"/>
<rect x="164.56" y="263.084" style="fill:#283B47;" width="55.985" height="29.362"/>
<rect x="164.56" y="303.017" style="fill:#283B47;" width="55.985" height="10.571"/>
<rect x="291.408" y="263.084" style="fill:#283B47;" width="55.984" height="29.362"/>
<rect x="291.408" y="303.017" style="fill:#283B47;" width="55.984" height="10.571"/>
<path style="fill:#8A4C26;" d="M147.019,316.085v-13.999h1.983v12.294h9.298v1.705H147.019z"/>
<path style="fill:#8A4C26;" d="M366.14,315.871l-4.594-5.441h-6.555v5.441h-1.941V302.3h9.246c1.153,0,1.575,0.057,2.153,0.212
	c1.825,0.482,2.863,1.901,2.863,3.767c0,0.729-0.153,2.635-2.19,3.482c-0.348,0.133-0.711,0.248-1.48,0.363l5.016,5.748H366.14z
	 M364.968,305.029c-0.576-1.018-1.48-1.113-2.537-1.113h-7.459v4.92h6.709c1.096,0,2.384-0.038,3.132-1
	c0.193-0.229,0.502-0.693,0.502-1.479C365.315,306.106,365.294,305.588,364.968,305.029z"/>
<path style="fill:#172229;" d="M324.882,88.471c0,10.812-8.764,19.574-19.576,19.574h-98.659c-10.811,0-19.575-8.763-19.575-19.574
	v-3.523c0-10.812,8.764-19.575,19.575-19.575h98.659c10.812,0,19.576,8.764,19.576,19.575V88.471z"/>
<path style="fill:#283B47;" d="M206.647,92.386c-6.405,0-12.09,3.075-15.661,7.83c3.571,4.755,9.256,7.829,15.661,7.829h98.659
	c6.406,0,12.09-3.074,15.662-7.829c-3.572-4.755-9.256-7.83-15.662-7.83H206.647z"/>
<path style="fill:#ECF0F0;" d="M355.191,327.873c0.037,0.246,0.07,0.495,0.104,0.742c-0.069-0.52-0.14-1.041-0.209-1.56
	c0.715,5.323,1.215,10.68,1.613,16.037c0.742,9.984,1.053,20.006,0.828,30.016c-0.18,8.092-0.725,16.184-1.801,24.207
	c0.07-0.52,0.141-1.041,0.211-1.562c-1.381,10.22-3.589,20.443-7.599,29.978c0.198-0.468,0.396-0.935,0.592-1.402
	c-1.022,2.416-2.163,4.779-3.452,7.066c-0.623,1.107-1.287,2.19-1.982,3.252c-0.33,0.502-0.67,0.996-1.017,1.486
	c-0.389,0.55-1.916,2.547-0.32,0.482c-1.482,1.917-3.123,3.714-4.913,5.351c-0.421,0.388-0.856,0.763-1.296,1.131
	c-0.221,0.184-0.442,0.363-0.668,0.542c-0.375,0.3-1.01,0.783,0.738-0.566c-0.15,0.116-0.303,0.231-0.456,0.345
	c-0.955,0.715-1.95,1.375-2.974,1.988c-1.366,0.818-2.793,1.533-4.258,2.155c0.469-0.196,0.936-0.394,1.403-0.592
	c-2.957,1.239-6.063,2.058-9.237,2.497c0.52-0.07,1.042-0.141,1.562-0.211c-1.922,0.259-3.855,0.379-5.793,0.383
	c-3.201,0.006-5.872,2.668-5.872,5.873c0,3.196,2.671,5.878,5.872,5.873c6.254-0.012,12.252-1.247,17.992-3.682
	c4.816-2.042,9.182-5.215,12.848-8.932c7.959-8.066,12.787-18.801,15.956-29.539c3.419-11.588,4.981-23.742,5.762-35.773
	c0.7-10.785,0.653-21.616,0.113-32.408c-0.355-7.083-0.922-14.16-1.759-21.202c-0.201-1.701-0.416-3.402-0.664-5.098
	c-0.207-1.417-1.521-2.818-2.699-3.509c-1.356-0.795-3.01-1.01-4.524-0.593c-1.469,0.404-2.74,1.387-3.511,2.699
	C354.909,324.838,354.952,326.234,355.191,327.873L355.191,327.873z"/>
<ellipse style="fill:#172229;" cx="290.822" cy="455.51" rx="28.58" ry="25.251"/>
<path style="fill:#283B47;" d="M290.822,430.258c-14.355,0-26.236,9.35-28.271,21.531c2.035,12.184,13.916,21.533,28.271,21.533
	c14.354,0,26.234-9.35,28.27-21.533C317.056,439.608,305.175,430.258,290.822,430.258z"/>
<g>
</g>
<g>
</g>
<g>
</g>
<g>
</g>
<g>
</g>
<g>
</g>
<g>
</g>
<g>
</g>
<g>
</g>
<g>
</g>
<g>
</g>
<g>
</g>
<g>
</g>
<g>
</g>
<g>
</g>
</svg>
