<?xml version="1.0" encoding="iso-8859-1"?>
<!-- Generator: Adobe Illustrator 17.0.0, SVG Export Plug-In . SVG Version: 6.00 Build 0)  -->
<!DOCTYPE svg PUBLIC "-//W3C//DTD SVG 1.1//EN" "http://www.w3.org/Graphics/SVG/1.1/DTD/svg11.dtd">
<svg version="1.1" id="Layer_1" xmlns="http://www.w3.org/2000/svg" xmlns:xlink="http://www.w3.org/1999/xlink" x="0px" y="0px"
	 width="512px" height="512px" viewBox="0 0 512 512" style="enable-background:new 0 0 512 512;" xml:space="preserve">
<path id="bg_37_" style="fill:#334D5C;" d="M512,256c0,141.381-114.613,256-255.998,256C114.613,512,0,397.381,0,256
	S114.613,0,256.002,0C397.387,0,512,114.619,512,256z"/>
<path style="fill:#5B7989;" d="M211.625,193.556c0-7.571-26.086-13.997-62.225-16.254c-5.482-6.417-23.686-11.136-45.357-11.136
	c-26.002,0-47.082,6.786-47.082,15.162c0,0.026,0.008,0.051,0.012,0.075c-16.574,3.102-26.84,7.401-26.84,12.153
	c0,6.321,18.154,11.835,45.145,14.802c0.59,4.808,21.396,8.675,47.027,8.675c26.006,0,47.088-3.978,47.088-8.882
	c0-0.041-0.031-0.08-0.037-0.125C194.752,204.992,211.625,199.65,211.625,193.556z"/>
<path style="fill:#5B7989;" d="M435.955,320.06c0-6.939-21.877-12.907-53.312-15.599c-2.191-7.721-22.33-13.765-46.867-13.765
	c-26.002,0-47.084,6.785-47.084,15.164c0,0.268,0.084,0.523,0.123,0.789c-20.92,3.135-34.35,7.973-34.35,13.41
	c0,5.327,12.887,10.082,33.102,13.224c-0.365,0.866-0.592,1.757-0.592,2.671c0,8.373,16.105,15.158,35.971,15.158
	c19.033,0,34.578-6.238,35.844-14.122C402.463,335.752,435.955,328.643,435.955,320.06z"/>
<path style="fill:#C6C6C6;" d="M259.912,220.785c0,1.536-1.246,2.781-2.781,2.781l0,0c-1.537,0-2.779-1.245-2.779-2.781v-82.927
	c0-1.536,1.242-2.78,2.779-2.78l0,0c1.535,0,2.781,1.245,2.781,2.78V220.785z"/>
<path style="fill:#FFFFFF;" d="M224.17,349.42c-1.447,0-2.836-0.816-3.496-2.213c-0.912-1.926-0.09-4.228,1.836-5.142l219.426-103.9
	H244.979c-2.135,0-3.865-1.729-3.865-3.858c0-2.135,1.73-3.864,3.865-3.864h214.139c1.811,0,3.373,1.25,3.77,3.015
	c0.395,1.764-0.482,3.565-2.117,4.337L225.816,349.047C225.283,349.297,224.721,349.42,224.17,349.42z"/>
<path style="fill:#FFFFFF;" d="M285.416,320.037c-2.131,0-3.861-1.727-3.861-3.86v-80.341c0-1.804,1.25-3.367,3.014-3.766
	c1.768-0.399,3.561,0.479,4.338,2.107l31.287,65.756c0.914,1.926,0.1,4.233-1.83,5.148c-1.926,0.911-4.23,0.098-5.145-1.829
	l-23.939-50.311v63.235C289.279,318.31,287.549,320.037,285.416,320.037z"/>
<path style="fill:#FFFFFF;" d="M322.412,302.575c-2.129,0-3.859-1.731-3.859-3.866v-64.266c0-1.804,1.248-3.371,3.012-3.77
	c1.767-0.399,3.564,0.479,4.338,2.107l25.029,52.604c0.914,1.927,0.102,4.231-1.828,5.146c-1.928,0.914-4.232,0.098-5.146-1.826
	l-17.68-37.159v47.163C326.277,300.844,324.547,302.575,322.412,302.575z"/>
<path style="fill:#FFFFFF;" d="M353.697,287.201c-2.133,0-3.861-1.73-3.861-3.865V235.14c0-1.804,1.25-3.368,3.014-3.767
	c1.768-0.396,3.561,0.477,4.334,2.107l18.773,39.449c0.914,1.927,0.098,4.231-1.83,5.146c-1.924,0.914-4.229,0.095-5.147-1.825
	l-11.422-24.002v31.088C357.559,285.471,355.83,287.201,353.697,287.201z"/>
<path style="fill:#FFFFFF;" d="M378.182,274.625c-2.133,0-3.861-1.733-3.861-3.862V235.14c0-1.804,1.246-3.368,3.01-3.767
	c1.768-0.396,3.56,0.477,4.338,2.107l13.873,29.156c0.916,1.924,0.098,4.23-1.828,5.146c-1.924,0.914-4.228,0.098-5.146-1.826
	l-6.523-13.709v18.515C382.043,272.892,380.312,274.625,378.182,274.625z"/>
<path style="fill:#FFFFFF;" d="M398.584,264.846c-2.129,0-3.859-1.729-3.859-3.861V235.14c0-1.804,1.25-3.368,3.01-3.767
	c1.77-0.396,3.562,0.477,4.338,2.107l10.068,21.156c0.914,1.923,0.096,4.228-1.828,5.148c-1.928,0.911-4.228,0.096-5.148-1.831
	l-2.715-5.705v8.737C402.449,263.116,400.719,264.846,398.584,264.846z"/>
<path style="fill:#80D1ED;" d="M414.129,235.479c0-22.355,18.119-40.481,40.482-40.481c22.359,0,40.482,18.126,40.482,40.481
	c0,22.367-18.123,40.492-40.482,40.492C432.248,275.971,414.129,257.846,414.129,235.479z"/>
<circle style="fill:#FFFFFF;" cx="192.265" cy="262.75" r="92.919"/>
<path style="fill:#DDDDDD;" d="M251.564,191.219c13.355,16.09,21.391,36.754,21.391,59.3c0,51.317-41.602,92.919-92.918,92.919
	c-22.543,0-43.213-8.033-59.305-21.388c17.043,20.536,42.758,33.616,71.533,33.616c51.316,0,92.918-41.599,92.918-92.916
	C285.184,233.976,272.102,208.262,251.564,191.219z"/>
<path style="fill:#FFFFFF;" d="M284.457,384.498H113.879c-16.326,0-29.611-13.28-29.611-29.604c0-2.137,1.73-3.866,3.861-3.866
	c2.135,0,3.865,1.729,3.865,3.866c0,12.063,9.816,21.883,21.885,21.883h170.578c2.137,0,3.863,1.728,3.863,3.858
	C288.32,382.771,286.594,384.498,284.457,384.498z"/>
<path style="fill:#FFFFFF;" d="M156.254,383.853c-2.135,0-3.863-1.726-3.863-3.858v-55.36c0-2.133,1.729-3.862,3.863-3.862
	c2.133,0,3.863,1.73,3.863,3.862v55.36C160.117,382.127,158.387,383.853,156.254,383.853z"/>
<path style="fill:#FFFFFF;" d="M229.957,383.853c-2.129,0-3.861-1.726-3.861-3.858v-55.36c0-2.133,1.732-3.862,3.861-3.862
	c2.133,0,3.861,1.73,3.861,3.862v55.36C233.818,382.127,232.09,383.853,229.957,383.853z"/>
<path style="fill:#41AAD8;" d="M126.725,328.61c14.156,0,36.125,0,52.379,0c24.965,0,25.527-9.729,25.535-23.827v-75.95
	c0-14.22,11.529-25.749,25.748-25.749h33.094c-17.045-20.323-42.613-33.253-71.215-33.253c-51.318,0-92.92,41.602-92.92,92.919
	C99.346,288.491,109.814,311.781,126.725,328.61z"/>
<path style="fill:#ABDDEF;" d="M117.994,263.54c-2.133,0-3.863-1.733-3.863-3.866c0-41.723,33.947-75.667,75.668-75.667
	c2.133,0,3.863,1.729,3.863,3.862c0,2.135-1.73,3.861-3.863,3.861c-37.463,0-67.943,30.48-67.943,67.943
	C121.855,261.807,120.125,263.54,117.994,263.54z"/>
<path style="fill:#FFFFFF;" d="M325.115,208.27c0,14.221-11.527,25.749-25.748,25.749h-37.836
	c-14.219,0-25.746-11.528-25.746-25.749v-2.68c0-14.224,11.527-25.753,25.746-25.753h37.836c14.221,0,25.748,11.529,25.748,25.753
	V208.27z"/>
<path style="fill:#DDDDDD;" d="M313.533,184.096c3.082,4.246,4.916,9.451,4.916,15.097v2.683c0,14.221-11.525,25.746-25.744,25.746
	h-37.834c-5.238,0-10.104-1.572-14.164-4.258c4.678,6.447,12.252,10.656,20.824,10.656h37.836c14.221,0,25.748-11.528,25.748-25.749
	v-2.68C325.115,196.605,320.508,188.706,313.533,184.096z"/>
<path style="fill:#80D1ED;" d="M51.893,135.542c0-11.516,91.889-20.848,205.238-20.848c113.346,0,205.234,9.333,205.234,20.848
	c0,11.515-91.889,20.846-205.234,20.846C143.781,156.388,51.893,147.057,51.893,135.542z"/>
<rect x="263.418" y="179.85" style="fill:#334D5C;" width="5.357" height="54.146"/>
<rect x="292.291" y="179.85" style="fill:#334D5C;" width="5.357" height="54.146"/>
<path style="fill:#64BFD8;" d="M51.893,135.542c0,4.942,16.979,9.484,45.285,13.057l159.949-13.057L88.119,123.715
	C65.291,127.077,51.893,131.148,51.893,135.542z"/>
<path style="fill:#64BFD8;" d="M365.312,153.256l-108.185-17.714l60.641,19.919C334.656,154.932,350.598,154.184,365.312,153.256z"
	/>
<path style="fill:#64BFD8;" d="M257.127,135.542l52.584-20.157c-9.092-0.242-18.432-0.42-27.965-0.537L257.127,135.542z"/>
<path style="fill:#334D5C;" d="M242.305,135.542c0-3.222,6.637-5.842,14.822-5.842c8.189,0,14.826,2.62,14.826,5.842
	c0,3.216-6.637,5.836-14.826,5.836C248.941,141.378,242.305,138.758,242.305,135.542z"/>
<path style="fill:#64BFD8;" d="M454.611,235.482l33.873-22.139c-3.359-5.124-7.852-9.414-13.113-12.573L454.611,235.482z"/>
<path style="fill:#64BFD8;" d="M494.281,227.395c-0.572-2.825-1.453-5.535-2.582-8.113l-37.088,16.201L494.281,227.395z"/>
<path style="fill:#334D5C;" d="M444.473,235.482c0-5.602,4.539-10.139,10.139-10.139c5.602,0,10.139,4.537,10.139,10.139
	c0,5.604-4.537,10.14-10.139,10.14C449.012,245.623,444.473,241.086,444.473,235.482z"/>
<g>
</g>
<g>
</g>
<g>
</g>
<g>
</g>
<g>
</g>
<g>
</g>
<g>
</g>
<g>
</g>
<g>
</g>
<g>
</g>
<g>
</g>
<g>
</g>
<g>
</g>
<g>
</g>
<g>
</g>
</svg>
