<?xml version="1.0" encoding="iso-8859-1"?>
<!-- Generator: Adobe Illustrator 17.0.0, SVG Export Plug-In . SVG Version: 6.00 Build 0)  -->
<!DOCTYPE svg PUBLIC "-//W3C//DTD SVG 1.1//EN" "http://www.w3.org/Graphics/SVG/1.1/DTD/svg11.dtd">
<svg version="1.1" id="Layer_1" xmlns="http://www.w3.org/2000/svg" xmlns:xlink="http://www.w3.org/1999/xlink" x="0px" y="0px"
	 width="512px" height="512px" viewBox="0 0 512 512" style="enable-background:new 0 0 512 512;" xml:space="preserve">
<path id="bg_58_" style="fill:#45B39C;" d="M512,256.004C512,397.386,397.384,512,256,512C114.609,512,0,397.386,0,256.004
	C0,114.621,114.609,0,256,0C397.384,0,512,114.621,512,256.004z"/>
<path style="fill:#236D58;" d="M501.478,183.389l0.009-0.009c-0.042-0.14-0.092-0.28-0.134-0.42
	c-0.935-3.132-1.924-6.241-2.975-9.322c-0.202-0.602-0.417-1.197-0.626-1.796c-0.926-2.649-1.887-5.285-2.896-7.893
	c-0.197-0.513-0.385-1.03-0.584-1.539c-1.084-2.755-2.227-5.477-3.403-8.183c-0.39-0.899-0.782-1.798-1.185-2.694
	c-0.229-0.507-0.443-1.021-0.673-1.527L488.969,150c-7.027-15.412-15.495-30.025-25.306-43.62c-6.452,0.157-12.577,1.61-18.14,4.1
	c-8.054-21.982-29.099-37.7-53.875-37.7c-31.713,0-57.421,25.707-57.421,57.423c0,1.084,0.104,2.144,0.164,3.213l-34.721-3.725
	L130.62,213.465c-10.272-15.561-27.894-25.842-47.935-25.842c-28.652,0-52.336,21.009-56.653,48.452
	c-2.218-0.449-4.517-0.688-6.869-0.688c-6.89,0-13.295,2.039-18.684,5.514C0.188,245.904,0,250.93,0,256.004
	c0,15.349,1.426,30.354,4.017,44.959c0.006,0.004,0.012,0.006,0.018,0.01C25.288,420.898,129.962,512,256,512
	c141.384,0,256-114.614,256-255.996C512,230.77,508.302,206.41,501.478,183.389z"/>
<path style="fill:#5ECCB2;" d="M3.06,295.603h505.879c0.744-4.784,1.346-9.614,1.818-14.482H1.241
	C1.715,285.989,2.316,290.819,3.06,295.603z"/>
<path style="fill:#5ECCB2;" d="M10.877,329.904h490.246c1.436-4.767,2.709-9.603,3.871-14.482H7.006
	C8.167,320.302,9.441,325.138,10.877,329.904z"/>
<path style="fill:#5ECCB2;" d="M11.034,330.458c3.364,11.085,7.489,21.831,12.262,32.222h3.745V270.45H11.034V330.458z"/>
<rect x="47.622" y="270.45" style="fill:#5ECCB2;" width="16.007" height="92.229"/>
<rect x="445.512" y="270.45" style="fill:#5ECCB2;" width="16.008" height="92.229"/>
<path style="fill:#5ECCB2;" d="M498.107,270.45H482.1v92.229h6.604c3.508-7.64,6.646-15.482,9.404-23.507V270.45z"/>
<path style="fill:#216854;" d="M20.193,355.82C59.098,447.609,150.024,512,256,512c105.973,0,196.899-64.391,235.803-156.18H20.193z
	"/>
<path style="fill:#134435;" d="M110.09,366.164c-3.534,0-6.904,0.512-10.01,1.405c-3.543-13.607-15.877-23.662-30.592-23.662
	c-14.285,0-26.348,9.466-30.281,22.465c-0.907-0.122-1.828-0.208-2.766-0.208c-3.725,0-7.205,1.006-10.216,2.742
	c2.972,6.038,6.179,11.94,9.602,17.698h101.985C137.754,375.305,125.371,366.164,110.09,366.164z"/>
<polygon style="fill:#ECF0F0;" points="424.166,420.955 88.027,420.955 88.027,166.494 256.021,78.805 424.166,166.494 "/>
<polygon style="opacity:0.5;" points="88.027,166.494 88.027,197.895 256.974,109.533 424.166,196.979 424.166,166.494 
	256.021,78.805 "/>
<rect x="127.682" y="221.173" style="fill:#EFC84A;" width="105.73" height="181.558"/>
<rect x="263.438" y="243.052" style="opacity:0.5;" width="129.328" height="123.396"/>
<rect x="136.572" y="228.01" style="fill:#A88429;" width="87.952" height="59.177"/>
<rect x="136.572" y="299.111" style="fill:#A88429;" width="87.952" height="95.416"/>
<polygon style="opacity:0.5;" points="136.572,228.01 136.572,234.834 216.423,234.834 216.423,287.186 224.524,287.186 
	224.524,228.01 "/>
<polygon style="opacity:0.5;" points="136.572,299.111 136.572,307.32 216.423,307.32 216.423,394.527 224.524,394.527 
	224.524,299.111 "/>
<rect x="110.683" y="55.604" style="fill:#EFC84A;" width="58.115" height="85.075"/>
<rect x="115.071" y="59.353" style="opacity:0.5;" width="49.335" height="15.09"/>
<polygon style="fill:#E45136;" points="462.442,161.072 256.985,53.609 256.974,53.634 256.961,53.609 51.505,161.072 
	68.578,193.712 256.974,95.176 445.369,193.712 "/>
<path style="fill:#E45136;" d="M253.025,408.176c0-3.019-2.447-5.467-5.47-5.467H112.243c-3.022,0-5.47,2.448-5.47,5.467v16.275
	c0,3.018,2.447,5.469,5.47,5.469h135.312c3.023,0,5.47-2.45,5.47-5.469V408.176z"/>
<rect x="263.432" y="238.222" style="fill:#EFC84A;" width="129.215" height="123.491"/>
<rect x="269.113" y="243.65" style="fill:#2893C0;" width="59.729" height="112.635"/>
<rect x="327.133" y="243.65" style="fill:#2893C0;" width="59.729" height="112.635"/>
<polygon style="fill:#50BCE2;" points="349.705,356.285 379.218,356.285 327.133,275.214 327.133,321.15 "/>
<polygon style="fill:#50BCE2;" points="327.133,247.297 327.133,266.378 384.893,356.285 386.861,356.285 386.861,340.266 "/>
<polygon style="fill:#50BCE2;" points="328.842,323.807 328.842,277.873 306.855,243.65 277.346,243.65 "/>
<polygon style="fill:#50BCE2;" points="328.842,269.039 328.842,249.956 324.789,243.65 312.531,243.65 "/>
<polygon style="opacity:0.5;" points="269.113,243.65 269.113,249.941 317.887,249.941 317.887,303.768 269.113,303.768 
	269.113,310.06 317.887,310.06 317.887,356.285 328.842,356.285 328.842,303.768 328.842,243.65 "/>
<polygon style="opacity:0.5;" points="327.133,243.65 327.133,249.941 379.87,249.941 379.87,303.768 330.943,303.768 
	330.943,310.06 379.721,310.06 379.721,356.285 379.87,356.285 386.861,356.285 386.861,303.768 386.861,243.65 "/>
<rect x="324.893" y="240.39" style="fill:#EFC84A;" width="6.291" height="119.769"/>
<rect x="268.154" y="297.465" style="fill:#EFC84A;" width="119.773" height="6.291"/>
<path style="fill:#134435;" d="M472.56,392.455c-2.748-0.286-5.538-0.485-8.393-0.485c-7.619,0-14.885,1.102-21.581,3.028
	c-7.646-29.338-34.229-51.017-65.958-51.017c-30.808,0-56.81,20.405-65.293,48.438c-1.957-0.265-3.939-0.449-5.964-0.449
	c-24.377,0-44.142,19.714-44.237,44.072h176.819C451.009,422.85,462.604,408.224,472.56,392.455z"/>
<g>
</g>
<g>
</g>
<g>
</g>
<g>
</g>
<g>
</g>
<g>
</g>
<g>
</g>
<g>
</g>
<g>
</g>
<g>
</g>
<g>
</g>
<g>
</g>
<g>
</g>
<g>
</g>
<g>
</g>
</svg>
