<?xml version="1.0" encoding="iso-8859-1"?>
<!-- Generator: Adobe Illustrator 17.0.0, SVG Export Plug-In . SVG Version: 6.00 Build 0)  -->
<!DOCTYPE svg PUBLIC "-//W3C//DTD SVG 1.1//EN" "http://www.w3.org/Graphics/SVG/1.1/DTD/svg11.dtd">
<svg version="1.1" id="Layer_1" xmlns="http://www.w3.org/2000/svg" xmlns:xlink="http://www.w3.org/1999/xlink" x="0px" y="0px"
	 width="512px" height="512px" viewBox="0 0 512 512" style="enable-background:new 0 0 512 512;" xml:space="preserve">
<circle id="background_60_" style="fill:#E27C3E;" cx="256" cy="256" r="256"/>
<g>
	<path style="fill:#ECF0F0;" d="M295.995,332h-39.254h-39.253c0,0,18.205,45,0,67h39.253h39.254C277.79,377,295.995,332,295.995,332
		z"/>
	<linearGradient id="SVGID_1_" gradientUnits="userSpaceOnUse" x1="256.7417" y1="379.8704" x2="256.7417" y2="324.9749">
		<stop  offset="0" style="stop-color:#FFFFFF;stop-opacity:0"/>
		<stop  offset="1" style="stop-color:#000000"/>
	</linearGradient>
	<path style="fill:url(#SVGID_1_);" d="M295.995,332h-39.254h-39.253c0,0,9.854,24,7.793,47h62.921
		C286.142,356,295.995,332,295.995,332z"/>
	<rect x="207" y="394" style="fill:#FBFFFF;" width="97" height="10"/>
	<g>
		<path style="fill:#233540;" d="M419,293.933c0,9.426-7.641,17.067-17.067,17.067H112.067C102.641,311,95,303.359,95,293.933
			V125.067c0-9.426,7.641-17.067,17.067-17.067h289.866c9.426,0,17.067,7.641,17.067,17.067V293.933z"/>
	</g>
	<rect x="95" y="286" style="fill:#233540;" width="324" height="26"/>
	<g>
		<path style="fill:#334D5C;" d="M404,286.367c0,4.768-3.865,8.633-8.634,8.633H118.634c-4.769,0-8.634-3.865-8.634-8.633V132.634
			c0-4.768,3.865-8.634,8.634-8.634h276.732c4.769,0,8.634,3.866,8.634,8.634V286.367z"/>
	</g>
	<g>
		<path style="fill:#ECF0F0;" d="M419,331.662c0,8.471-6.867,15.338-15.338,15.338H110.338C101.867,347,95,340.133,95,331.662
			v-5.323c0-8.471,6.867-15.338,15.338-15.338h293.323c8.471,0,15.338,6.867,15.338,15.338V331.662z"/>
	</g>
	<rect x="95" y="311" style="fill:#ECF0F0;" width="324" height="22"/>
	<path style="fill:#233540;" d="M249.174,329.285c0,3.816,3.826,6.903,6.826,7.019v-14.037
		C253,322.382,249.174,325.47,249.174,329.285z"/>
	<path style="fill:#334D5C;" d="M256.478,322.245c-0.074,0-0.478,0.02-0.478,0.022v14.037c0,0,0.404,0.021,0.478,0.021
		c3.887,0,7.039-3.152,7.039-7.04C263.517,325.398,260.365,322.245,256.478,322.245z"/>
	<polygon style="fill:#4E7287;" points="229.557,124 133.685,295 237.718,295 333.592,124 	"/>
	<polygon style="fill:#4E7287;" points="357.94,124 262.068,295 299.713,295 395.698,124 	"/>
</g>
<g>
</g>
<g>
</g>
<g>
</g>
<g>
</g>
<g>
</g>
<g>
</g>
<g>
</g>
<g>
</g>
<g>
</g>
<g>
</g>
<g>
</g>
<g>
</g>
<g>
</g>
<g>
</g>
<g>
</g>
</svg>
