<?xml version="1.0" encoding="iso-8859-1"?>
<!-- Generator: Adobe Illustrator 17.0.0, SVG Export Plug-In . SVG Version: 6.00 Build 0)  -->
<!DOCTYPE svg PUBLIC "-//W3C//DTD SVG 1.1//EN" "http://www.w3.org/Graphics/SVG/1.1/DTD/svg11.dtd">
<svg version="1.1" id="Layer_1" xmlns="http://www.w3.org/2000/svg" xmlns:xlink="http://www.w3.org/1999/xlink" x="0px" y="0px"
	 width="512px" height="512px" viewBox="0 0 512 512" style="enable-background:new 0 0 512 512;" xml:space="preserve">
<circle id="bg_5_" style="fill:#EFC84A;" cx="256" cy="256" r="256"/>
<polygon style="fill:#FFFFFF;" points="354.843,390.659 158.917,390.659 146.021,124.584 367.735,124.584 "/>
<rect x="130.509" y="121.344" style="fill:#FFFFFF;" width="250.98" height="3.24"/>
<polygon style="fill:#C6580C;" points="355.349,380.201 365.362,173.58 148.398,173.58 158.411,380.201 "/>
<path style="fill:#BABABA;" d="M194.153,124.584v40.137c0,1.784,1.444,3.229,3.23,3.229c1.781,0,3.227-1.445,3.227-3.229v-40.137
	H194.153z"/>
<path style="fill:#BABABA;" d="M207.323,124.584v40.137c0,1.784,1.447,3.229,3.23,3.229s3.228-1.445,3.228-3.229v-40.137H207.323z"
	/>
<path style="fill:#BABABA;" d="M220.493,124.584v40.137c0,1.784,1.446,3.229,3.233,3.229c1.78,0,3.228-1.445,3.228-3.229v-40.137
	H220.493z"/>
<path style="fill:#BABABA;" d="M233.665,124.584v40.137c0,1.784,1.444,3.229,3.232,3.229c1.783,0,3.227-1.445,3.227-3.229v-40.137
	H233.665z"/>
<path style="fill:#BABABA;" d="M246.835,124.584v40.137c0,1.784,1.447,3.229,3.23,3.229c1.784,0,3.23-1.445,3.23-3.229v-40.137
	H246.835z"/>
<path style="fill:#BABABA;" d="M260.008,124.584v40.137c0,1.784,1.444,3.229,3.23,3.229c1.78,0,3.227-1.445,3.227-3.229v-40.137
	H260.008z"/>
<path style="fill:#BABABA;" d="M273.178,124.584v40.137c0,1.784,1.446,3.229,3.23,3.229c1.783,0,3.228-1.445,3.228-3.229v-40.137
	H273.178z"/>
<path style="fill:#BABABA;" d="M286.35,124.584v40.137c0,1.784,1.444,3.229,3.231,3.229c1.78,0,3.228-1.445,3.228-3.229v-40.137
	H286.35z"/>
<path style="fill:#BABABA;" d="M299.52,124.584v40.137c0,1.784,1.447,3.229,3.23,3.229c1.784,0,3.228-1.445,3.228-3.229v-40.137
	H299.52z"/>
<path style="fill:#BABABA;" d="M312.692,124.584v40.137c0,1.784,1.444,3.229,3.23,3.229c1.78,0,3.227-1.445,3.227-3.229v-40.137
	H312.692z"/>
<path style="fill:#BABABA;" d="M325.862,124.584v40.137c0,1.784,1.446,3.229,3.23,3.229c1.783,0,3.228-1.445,3.228-3.229v-40.137
	H325.862z"/>
<path style="fill:#BABABA;" d="M339.031,124.584v40.137c0,1.784,1.447,3.229,3.234,3.229c1.78,0,3.228-1.445,3.228-3.229v-40.137
	H339.031z"/>
<path style="fill:#BABABA;" d="M358.662,164.721v-40.137h-6.458v40.137c0,1.784,1.444,3.229,3.23,3.229
	C357.219,167.95,358.662,166.504,358.662,164.721z"/>
<polygon style="fill:#E27C3E;" points="364.594,189.418 365.022,180.61 148.737,180.61 149.163,189.418 "/>
<polygon style="fill:#E27C3E;" points="355.709,372.758 356.135,363.951 157.625,363.951 158.051,372.758 "/>
<path style="fill:#F4DED3;" d="M191.888,224.9c-1.061,0.78-2.129,1.17-3.207,1.17c-0.962,0-2.23-0.49-3.809-1.469
	c-0.64,2.199-1.539,4.177-2.697,5.936c1.218,1.039,2.686,1.559,4.407,1.559C190.119,232.095,191.888,229.696,191.888,224.9z"/>
<path style="fill:#F4DED3;" d="M237.396,240.428c0-0.84,0.16-1.718,0.48-2.638c0.16-0.319,0.238-0.628,0.238-0.928
	c0-0.159-0.099-0.24-0.298-0.24c-0.28,0-1.12,0.115-2.52,0.346c-1.399,0.229-2.787,0.524-4.165,0.884
	c-1.7,4.695-5,9.653-9.895,14.87v0.015c-2.895,3.297-5.05,5.021-6.401,5.021c-0.983,0-1.478-0.602-1.478-1.804
	c0-0.901,0.59-2.861,1.769-5.879c1.719-4.398,2.579-7.555,2.579-9.47c0-1.158-0.34-2.121-1.016-2.89
	c-0.679-0.768-1.53-1.152-2.546-1.152c-1.494,0-3.207,0.705-5.133,2.113c-1.924,1.41-4.526,3.942-7.802,7.6
	c0.479-2.378,1.489-5.636,3.028-9.774l-7.315,1.41c-1.659,3.597-2.864,6.835-3.609,9.713c-0.366,1.408-0.64,2.86-0.827,4.349
	c-1.697,1.898-2.945,3.131-3.731,3.701c-0.792,0.57-1.575,0.855-2.354,0.855c-0.439,0-0.805-0.206-1.096-0.615
	c-0.289-0.409-0.433-0.944-0.433-1.603c0-1.659,0.62-4.428,1.858-8.305l2.998-9.384h-0.36l-7.613,1.589
	c-2.879,7.535-4.317,13.432-4.317,17.688c0,1.979,0.44,3.622,1.319,4.932c0.878,1.309,1.959,1.964,3.236,1.964
	c2.278,0,5.705-2.39,10.261-7.137c-0.009,0.375-0.065,0.73-0.065,1.11c0,1.319,0.107,3.328,0.327,6.027l6.625-1.56
	c0-1.798,0.033-3.228,0.093-4.286c0.098-1.418,0.298-2.978,0.599-4.676c0.179-1.001,0.64-1.949,1.378-2.85l1.68-1.947
	c0.619-0.721,1.2-1.359,1.739-1.919c0.619-0.659,1.179-1.219,1.679-1.679c0.56-0.499,1.048-0.889,1.468-1.169
	c0.462-0.28,0.831-0.42,1.111-0.42c0.5,0,0.747,0.32,0.747,0.958c0,0.641-0.468,2.14-1.408,4.497
	c-1.757,4.396-2.639,7.665-2.639,9.804c0,1.578,0.411,2.838,1.23,3.777c0.818,0.939,1.899,1.409,3.236,1.409
	c3.299,0,7.256-2.437,11.874-7.314c3.556-3.917,6.494-7.745,8.813-11.483c0.438,1.42,1.337,3.179,2.698,5.278
	c1.357,2.096,2.036,3.775,2.036,5.034c0,1.301-0.536,2.516-1.602,3.644c-1.072,1.13-2.216,1.694-3.434,1.694
	c-1.218,0-2.078-0.82-2.578-2.458c-0.5-1.639-1.069-2.459-1.709-2.459c-0.48,0-1.271,0.67-2.385,2.01
	c-1.105,1.338-1.662,2.248-1.662,2.727c0,0.819,0.56,1.589,1.68,2.309c1.119,0.719,2.358,1.08,3.716,1.08
	c3.139,0,6.169-1.42,9.1-4.258c2.927-2.838,4.392-5.786,4.392-8.843c0-1.54-0.599-3.208-1.796-5.008
	C237.998,242.887,237.399,241.465,237.396,240.428z"/>
<path style="fill:#F4DED3;" d="M338.299,256.034c-0.997,0.649-2.01,0.974-3.031,0.974c-0.741,0-1.346-0.294-1.818-0.884
	c-0.468-0.591-0.703-1.356-0.703-2.294c0-1.382,0.349-3.238,1.039-5.574l2.001-6.717l4.647-0.359l0.992-4.617l-4.234,0.24
	l3.097-10.429l-8.007,1.645l-2.816,9.352l-2.85,0.121l-0.959,4.706l2.302-0.119l-1.274,4.538c-0.619,2.065-1.027,3.853-1.274,5.428
	c-3.23,3.802-5.574,5.714-7.026,5.714c-0.983,0-1.475-0.602-1.475-1.804c0-0.901,0.59-2.861,1.769-5.879
	c1.719-4.398,2.579-7.555,2.579-9.47c0-1.158-0.34-2.121-1.016-2.89c-0.682-0.768-1.53-1.152-2.546-1.152
	c-1.494,0-3.207,0.705-5.133,2.113c-1.927,1.41-4.526,3.942-7.802,7.6c0.479-2.378,1.489-5.636,3.028-9.774l-7.315,1.41
	c-1.658,3.597-2.864,6.835-3.612,9.713c-0.369,1.419-0.646,2.882-0.83,4.384c-1.68,1.676-2.989,2.933-3.919,3.754
	c-0.938,0.831-1.798,1.245-2.578,1.245c-1.218,0-1.828-0.859-1.828-2.577c0-1.638,0.682-4.667,2.045-9.085l2.645-8.784h-1.683
	l-6.128,3.387c-1-2.299-2.748-3.448-5.246-3.448c-1.98,0-4.258,0.84-6.836,2.519c-2.579,1.68-4.691,3.877-6.343,6.595
	c-1.283,2.12-2.052,4.328-2.334,6.618c-1.814,1.9-3.207,3.182-4.16,3.801c-1,0.649-2.013,0.974-3.031,0.974
	c-0.744,0-1.346-0.294-1.819-0.884c-0.47-0.591-0.702-1.356-0.702-2.294c0-1.382,0.346-3.238,1.039-5.574l1.998-6.717l4.65-0.359
	l0.989-4.617l-4.234,0.24l3.097-10.429l-8.007,1.645l-2.813,9.352l-2.853,0.121l-0.959,4.706l2.302-0.119l-1.271,4.538
	c-1.027,3.413-1.539,6.155-1.539,8.233c0,2.358,0.533,4.263,1.605,5.711c1.066,1.45,2.463,2.174,4.181,2.174
	c1.658,0,3.406-0.594,5.246-1.784c1.766-1.142,3.854-2.904,6.244-5.252c0.212,1.747,0.783,3.274,1.748,4.563
	c1.224,1.65,2.722,2.473,4.478,2.473c1.801,0,3.543-0.679,5.234-2.038c1.685-1.359,3.531-3.467,5.529-6.326
	c-0.179,5.577,1.31,8.364,4.466,8.364c1.26,0,2.579-0.458,3.957-1.379c1.34-0.893,3.553-2.803,6.605-5.69
	c-0.012,0.374-0.068,0.725-0.068,1.103c0,1.319,0.11,3.328,0.33,6.027l6.625-1.56c0-1.798,0.03-3.228,0.09-4.286
	c0.101-1.418,0.301-2.978,0.602-4.676c0.179-1.001,0.637-1.949,1.378-2.85l1.68-1.947c0.619-0.721,1.197-1.359,1.739-1.919
	c0.619-0.659,1.179-1.219,1.676-1.679c0.56-0.499,1.052-0.889,1.471-1.169c0.459-0.28,0.828-0.42,1.108-0.42
	c0.5,0,0.75,0.32,0.75,0.958c0,0.641-0.471,2.14-1.408,4.497c-1.76,4.396-2.639,7.665-2.639,9.804c0,1.578,0.408,2.838,1.23,3.777
	c0.818,0.939,1.897,1.409,3.236,1.409c3.231,0,7.099-2.355,11.592-7.033c0.119,1.961,0.619,3.594,1.557,4.859
	c1.066,1.45,2.46,2.174,4.181,2.174c1.658,0,3.406-0.594,5.246-1.784c1.838-1.189,4.018-3.033,6.536-5.531v-3.448
	C340.771,254.03,339.3,255.384,338.299,256.034z M279.77,251.956c-1.766,3.408-3.65,5.111-5.648,5.111
	c-0.818,0-1.497-0.334-2.024-1.003c-0.53-0.67-0.795-1.544-0.795-2.623c0-2.858,0.893-5.986,2.686-9.384
	c1.786-3.397,3.681-5.096,5.681-5.096c0.837,0,1.507,0.314,2.007,0.944c0.501,0.63,0.751,1.504,0.751,2.624
	C282.426,245.406,281.541,248.549,279.77,251.956z"/>
<path style="fill:#F4DED3;" d="M329.763,308.622c-1.2,0.71-2.46,1.064-3.778,1.064c-3.377,0-5.464-1.949-6.265-5.845
	c8.792-2.579,13.19-5.938,13.19-10.073c0-1.56-0.561-2.818-1.68-3.778c-1.119-0.959-2.608-1.438-4.466-1.438
	c-3.576,0-6.834,1.713-9.772,5.141c-2.65,3.092-4.038,6.53-4.3,10.277c-2.46,2.417-4.3,4.017-5.506,4.788
	c-1.218,0.78-2.367,1.168-3.447,1.168c-1.058,0-1.906-0.509-2.546-1.529c-0.641-1.019-0.962-2.398-0.962-4.137
	c0-0.779,0.08-2.208,0.241-4.286c3.999-4.337,6.935-8.414,8.813-12.232c1.879-3.817,2.819-7.764,2.819-11.842
	c0-1.439-0.188-2.583-0.554-3.433c-0.372-0.849-0.846-1.274-1.426-1.274c-0.119,0-0.301,0.04-0.539,0.121l-7.617,2.818
	c-2.596,4.956-4.806,10.372-6.625,16.249c-1.637,5.293-2.498,9.869-2.658,13.801c-2.787,3.107-4.815,4.697-6.054,4.697
	c-0.518,0-0.938-0.231-1.257-0.691c-0.318-0.458-0.479-1.069-0.479-1.827c0-3.235,1.997-12.689,5.99-28.36
	c0.998-3.919,1.498-5.986,1.498-6.207c0-0.322-0.2-0.481-0.602-0.481c-1.218,0-3.579,0.41-7.081,1.23l-4.287,17.926
	c-0.7-0.719-1.346-1.228-1.933-1.529c-0.593-0.299-1.405-0.449-2.444-0.449c-3.737,0-7.232,1.904-10.479,5.711
	c-2.584,3.032-4.094,6.278-4.624,9.72c-2.084,2.322-3.796,3.486-5.133,3.486c-1.12,0-2.188-0.47-3.207-1.41
	c2.036-5.435,3.058-10.022,3.058-13.759c0-0.761-0.092-1.391-0.27-1.889c-0.179-0.5-0.667-0.935-1.453-1.304
	c-0.792-0.369-2.034-0.555-3.734-0.555c-4.496,0-8.363,1.634-11.6,4.902c-2.996,3.022-4.544,6.624-4.768,10.752
	c-1.986,2.156-3.633,3.263-4.916,3.263c-1.119,0-2.191-0.47-3.21-1.41c2.04-5.435,3.059-10.022,3.059-13.759
	c0-0.761-0.09-1.391-0.271-1.889c-0.179-0.5-0.664-0.935-1.45-1.304c-0.795-0.369-2.036-0.555-3.733-0.555
	c-4.499,0-8.364,1.634-11.604,4.902c-3.001,3.03-4.55,6.637-4.767,10.776c-3.139,3.656-5.429,5.517-6.851,5.517
	c-0.983,0-1.478-0.602-1.478-1.803c0-0.902,0.59-2.861,1.77-5.879c1.721-4.397,2.578-7.555,2.578-9.47
	c0-1.158-0.34-2.123-1.016-2.89c-0.679-0.768-1.527-1.154-2.546-1.154c-1.494,0-3.206,0.706-5.133,2.114
	c-1.924,1.409-4.526,3.942-7.801,7.6c0.481-2.379,1.488-5.636,3.027-9.773l-7.312,1.41c-1.658,3.597-2.864,6.835-3.611,9.713
	c-0.754,2.877-1.126,5.925-1.126,9.144c0,1.319,0.11,3.327,0.33,6.025l6.626-1.559c0-1.798,0.029-3.228,0.089-4.286
	c0.102-1.42,0.301-2.979,0.599-4.678c0.182-0.999,0.64-1.949,1.379-2.848l1.679-1.949c0.619-0.719,1.2-1.359,1.739-1.918
	c0.619-0.661,1.179-1.219,1.679-1.68c0.561-0.5,1.049-0.89,1.469-1.17c0.461-0.278,0.83-0.418,1.11-0.418
	c0.5,0,0.75,0.319,0.75,0.959c0,0.64-0.471,2.138-1.411,4.498c-1.757,4.396-2.638,7.664-2.638,9.802c0,1.58,0.41,2.839,1.23,3.779
	c0.818,0.939,1.899,1.408,3.239,1.408c3.264,0,7.182-2.4,11.74-7.185c0.298,1.809,0.936,3.342,1.96,4.576
	c1.438,1.739,3.316,2.608,5.636,2.608c3.716,0,7.016-2.178,9.895-6.536c1.417,1.12,2.847,1.679,4.285,1.679
	c0.56,0,1.318-0.185,2.277-0.555c0.917-0.353,1.864-0.963,2.832-1.8c0.298,1.821,0.94,3.363,1.965,4.603
	c1.441,1.739,3.32,2.608,5.637,2.608c3.719,0,7.015-2.178,9.895-6.536c1.42,1.12,2.847,1.679,4.287,1.679
	c0.56,0,1.319-0.185,2.278-0.555c0.896-0.344,1.822-0.944,2.769-1.75c0.158,1.779,0.766,3.371,1.879,4.748
	c1.299,1.609,2.796,2.413,4.496,2.413c1.558,0,3.303-0.69,5.231-2.068c1.927-1.38,3.713-3.399,5.351-6.056
	c0.021,2.657,0.444,4.676,1.271,6.056c0.831,1.378,1.956,2.068,3.377,2.068c1.158,0,2.489-0.505,3.999-1.514
	c1.474-0.984,3.611-2.864,6.387-5.611c0.25,1.859,0.857,3.406,1.831,4.637c1.307,1.659,3.031,2.488,5.169,2.488
	c1.861,0,3.811-0.594,5.862-1.784c2.046-1.19,4.431-3.032,7.149-5.531v-0.042c0.324,1.88,1.093,3.466,2.325,4.748
	c1.665,1.739,3.862,2.608,6.581,2.608c2.436,0,4.665-0.594,6.685-1.784c2.018-1.19,4.296-3.032,6.833-5.531v-3.448
	C332.77,306.34,330.963,307.914,329.763,308.622z M305.436,280.166c1.405-3.684,2.479-5.525,3.222-5.525
	c0.339,0,0.619,0.225,0.839,0.676c0.221,0.45,0.328,1.046,0.328,1.787c0,2.521-0.789,5.534-2.367,9.037
	c-1.578,3.501-3.639,6.666-6.176,9.486C302.641,289.003,304.024,283.848,305.436,280.166z M222.827,306.48
	c-1.661,2.617-3.198,3.927-4.618,3.927c-1.141,0-2.027-0.56-2.668-1.679c-0.64-1.12-0.959-2.689-0.959-4.707
	c0-3.637,0.732-6.814,2.204-9.533c1.468-2.718,3.501-4.078,6.101-4.078c0.56,0,0.988,0.06,1.289,0.18
	c-2.777,2.318-4.168,5.077-4.168,8.274C220.008,301.583,220.948,304.122,222.827,306.48z M249.718,306.48
	c-1.659,2.617-3.198,3.927-4.618,3.927c-1.138,0-2.028-0.56-2.668-1.679c-0.638-1.12-0.959-2.689-0.959-4.707
	c0-3.637,0.732-6.814,2.206-9.533c1.465-2.718,3.502-4.078,6.099-4.078c0.56,0,0.988,0.06,1.289,0.18
	c-2.778,2.318-4.166,5.077-4.166,8.274C246.9,301.583,247.839,304.122,249.718,306.48z M276.76,303.961
	c-1.7,3.318-3.528,4.977-5.488,4.977c-0.878,0-1.575-0.32-2.081-0.959c-0.512-0.64-0.766-1.51-0.766-2.608
	c0-2.799,0.87-5.931,2.608-9.398c1.739-3.469,3.538-5.202,5.396-5.202c0.86,0,1.552,0.35,2.081,1.049
	c0.53,0.7,0.799,1.638,0.799,2.817C279.309,297.535,278.457,300.644,276.76,303.961z M321.279,293.962
	c1.197-2.008,2.457-3.012,3.775-3.012c1.399,0,2.1,0.958,2.1,2.877c0,3.877-2.558,6.536-7.676,7.974
	C319.478,298.585,320.08,295.972,321.279,293.962z"/>
<g>
</g>
<g>
</g>
<g>
</g>
<g>
</g>
<g>
</g>
<g>
</g>
<g>
</g>
<g>
</g>
<g>
</g>
<g>
</g>
<g>
</g>
<g>
</g>
<g>
</g>
<g>
</g>
<g>
</g>
</svg>
