<?xml version="1.0" encoding="iso-8859-1"?>
<!-- Generator: Adobe Illustrator 17.0.0, SVG Export Plug-In . SVG Version: 6.00 Build 0)  -->
<!DOCTYPE svg PUBLIC "-//W3C//DTD SVG 1.1//EN" "http://www.w3.org/Graphics/SVG/1.1/DTD/svg11.dtd">
<svg version="1.1" id="Layer_1" xmlns="http://www.w3.org/2000/svg" xmlns:xlink="http://www.w3.org/1999/xlink" x="0px" y="0px"
	 width="512px" height="512px" viewBox="0 0 512 512" style="enable-background:new 0 0 512 512;" xml:space="preserve">
<path style="fill:#3EA18C;" d="M156.718,187.513c0,0,0.151,0.612,0.305,1.658c0.148,1.044,0.285,2.518,0.306,4.252
	c0.023,1.734-0.071,3.729-0.317,5.833c-0.12,1.052-0.273,2.132-0.474,3.219c-0.183,1.091-0.433,2.184-0.675,3.278
	c-0.279,1.086-0.546,2.175-0.877,3.23c-0.305,1.062-0.667,2.093-1.03,3.086c-0.73,1.987-1.55,3.809-2.357,5.345
	c-0.804,1.536-1.596,2.788-2.203,3.651c-0.612,0.862-1.026,1.34-1.026,1.34s-0.153-0.613-0.309-1.659
	c-0.15-1.045-0.289-2.519-0.311-4.253c-0.024-1.735,0.07-3.73,0.317-5.833c0.126-1.051,0.27-2.133,0.478-3.218
	c0.182-1.091,0.438-2.183,0.68-3.277c0.28-1.086,0.551-2.174,0.882-3.229c0.312-1.061,0.665-2.093,1.034-3.085
	c0.732-1.986,1.552-3.808,2.358-5.344c0.803-1.537,1.592-2.79,2.197-3.653C156.306,187.99,156.718,187.513,156.718,187.513z"/>
<path style="fill:#38917F;" d="M123.835,150.256c0,0,0.258-0.533,0.773-1.373c0.519-0.835,1.304-1.966,2.332-3.2
	c1.026-1.237,2.294-2.579,3.738-3.894c1.443-1.316,3.054-2.619,4.748-3.802c3.376-2.384,7.1-4.269,10.135-5.336
	c1.514-0.54,2.846-0.889,3.81-1.087c0.967-0.194,1.557-0.252,1.557-0.252s-0.256,0.534-0.771,1.376
	c-0.518,0.837-1.302,1.97-2.329,3.205c-2.045,2.485-5.094,5.336-8.492,7.688c-1.692,1.186-3.469,2.251-5.2,3.154
	c-1.731,0.905-3.426,1.636-4.94,2.174c-1.513,0.541-2.844,0.892-3.807,1.092C124.424,150.197,123.835,150.256,123.835,150.256z"/>
<circle id="background_93_" style="fill:#ECF0F0;" cx="256" cy="256" r="256"/>
<path style="fill:#45B39C;" d="M276.104,243.466c0,0,11.301-23.051,21.73-15.982c10.43,7.069-7.243,22.744-7.243,22.744
	s24.917-15.94,32.159-8.431c7.244,7.51-18.253,20.129-18.253,20.129s26.368-6.779,31.872-1.247
	c5.503,5.532-18.543,15.06-18.543,15.06l-42.947-9.221L276.104,243.466z"/>
<path style="fill:#BFA85E;" d="M202.128,168.649c0,0,47.172,23.587,38.15,102.968l39.916,11.801c0,0,10.487-91.465-72.822-118.265
	L202.128,168.649z"/>
<ellipse style="fill:#EDD074;" cx="284.265" cy="365.903" rx="115.416" ry="105.249"/>
<path style="fill:#D6BC69;" d="M367.495,293.031c-81.693,8.457-70.877,63.862-187.5,27.714
	c-7.141,13.687-11.146,28.993-11.146,45.158c0,58.128,51.673,105.249,115.416,105.249c63.742,0,115.416-47.121,115.416-105.249
	C399.681,337.609,387.413,311.943,367.495,293.031z"/>
<path style="fill:#489EDE;" d="M499.198,330.732c-19.547-10.208-47.594-18.369-88.75-19.824
	c-120.315-4.252-87.035,73.369-230.975,24.562c-89.105-30.214-141.227-14.561-168.018,1.752C45.415,438.792,141.3,512,254.294,512
	C369.679,512,467.222,435.658,499.198,330.732z"/>
<path style="fill:#3D87BD;" d="M318.296,390.084c-143.939,48.807-110.659-28.815-230.975-24.562
	c-23.576,0.834-42.836,3.873-58.676,8.232C71.269,455.884,157.077,512,256,512c93.747,0,175.708-50.4,220.308-125.573
	C447.343,372.586,397.388,363.266,318.296,390.084z"/>
<path style="fill:#45B39C;" d="M207.372,165.153c0,0-46.644-80.681,48.723-93.564l7.432,19.545l-14.231,5.122l10.437,0.237
	l-3.321,12.844l-10.91,4.268l12.663,3.413l-2.701,10.81l-12.334,1.137l12.334,4.268l-2.134,9.955l-11.955,0.854
	c0,0-27.406,4.079-28.349,23.088L207.372,165.153z"/>
<path style="fill:#3EA18C;" d="M209.286,170.727c0,0-4.146-58.741-49.305-57.715c-45.16,1.027-55.833,47.027-55.833,47.027
	l16.34,6.021l8.378-7.292l-2.104,11.822l12.557,7.26l10.495-11.819l-3.132,14.196l11.366,7.286
	C158.048,187.513,175.13,156.409,209.286,170.727z"/>
<path style="fill:#45B39C;" d="M207.372,165.153c0,0-84.891-8.597-71.521,62.515l32.997,5.119l2.05-21.332l5.63,7.395l5.688-3.412
	l-1.139-9.957l7.681,4.862l7.208-4.292l-4.079-7.243l7.681,4.967l6.542-4.967l-1.139-7.265c0,0-6.59-18.866,8.937-24.082
	L207.372,165.153z"/>
<path style="fill:#45B39C;" d="M207.372,165.153c0,0-46.644-80.681,48.723-93.564l7.432,19.545l-14.231,5.122l10.437,0.237
	l-3.321,12.844l-10.91,4.268l12.663,3.413l-2.701,10.81l-12.334,1.137l12.334,4.268l-2.134,9.955l-11.955,0.854
	c0,0-27.406,4.079-28.349,23.088L207.372,165.153z"/>
<circle style="fill:#B5A168;" cx="221.828" cy="170.211" r="7.919"/>
<circle style="fill:#C2AD6F;" cx="209.671" cy="180.881" r="7.543"/>
<circle style="fill:#E3CA82;" cx="214.6" cy="172.382" r="7.228"/>
<circle style="fill:#B5A168;" cx="231.601" cy="276.979" r="9.772"/>
<circle style="fill:#B5A168;" cx="262.914" cy="270.752" r="6.914"/>
<path style="fill:#EDD074;" d="M280.618,275.76c0,0-7.947-4.724-17.703-4.724c-9.757,0-17.551,14.938-17.551,14.938
	s-4.625-3.747-13.763-3.747c-9.138,0-14.388,10.805-14.388,10.805l33.287,14.44L280.618,275.76z"/>
<path style="fill:#A38F4F;" d="M279.212,254.012c-0.244-1.723-0.521-3.012-0.849-5.012h-37.013c0.111,4,0.021,9.292-0.314,14.383
	L279.212,254.012z"/>
<path style="fill:#A38F4F;" d="M272.302,227h-33.289c1.091,5,1.869,11.172,2.211,17.703l33.656-10.27
	C274.122,231.916,273.265,229,272.302,227z"/>
<path style="fill:#A38F4F;" d="M246.935,187.754c-1.432-1.33-2.916-2.635-4.468-3.906l-17.684,6.824
	c2.292,3.43,4.517,7.34,6.567,11.73L246.935,187.754z"/>
<path style="fill:#A38F4F;" d="M234.173,209.093c1.747,4.626,3.26,9.733,4.453,15.329l28.202-10.439
	c-1.185-2.267-2.47-4.521-3.861-6.753L234.173,209.093z"/>
<g>
	<path style="fill:#A38F4F;" d="M226.039,273.708c-0.602,1.212-1.206,2.423-1.809,3.635c-0.366,0.736,0.738,1.386,1.105,0.646
		c0.603-1.212,1.206-2.423,1.809-3.635C227.511,273.618,226.407,272.969,226.039,273.708L226.039,273.708z"/>
</g>
<g>
	<path style="fill:#A38F4F;" d="M228.677,274.432c-0.237,1.469-0.474,2.938-0.711,4.408c-0.13,0.807,1.103,1.153,1.234,0.34
		c0.237-1.469,0.474-2.938,0.711-4.408C230.042,273.965,228.808,273.618,228.677,274.432L228.677,274.432z"/>
</g>
<g>
	<path style="fill:#A38F4F;" d="M233.435,272c0,0,0,4,0,5s1,1,1,0s0-3,0-5H233.435L233.435,272z"/>
</g>
<g>
	<path style="fill:#A38F4F;" d="M236.278,272.648c0.664,1.211,1.328,2.422,1.992,3.634c0.397,0.724,1.503,0.078,1.106-0.646
		c-0.664-1.211-1.328-2.423-1.992-3.634C236.987,271.278,235.881,271.924,236.278,272.648L236.278,272.648z"/>
</g>
<g>
	<path style="fill:#A38F4F;" d="M258.435,267c0,0,0,2,0,4h2c0-2,0-3,0-4S258.435,266,258.435,267
		C258.435,267,258.435,266,258.435,267z"/>
</g>
<g>
	<path style="fill:#A38F4F;" d="M262.435,267c0,0,0,2,0,3s1,1,1,0s0-2,0-3S262.435,266,262.435,267
		C262.435,267,262.435,266,262.435,267z"/>
</g>
<g>
	<path style="fill:#A38F4F;" d="M265.15,268.382c0.375,0.616,0.75,1.233,1.125,1.85c0.428,0.704,1.536,0.061,1.105-0.646
		c-0.375-0.616-0.75-1.233-1.125-1.85C265.828,267.031,264.72,267.675,265.15,268.382L265.15,268.382z"/>
</g>
<g>
	<path style="fill:#C9B162;" d="M213.359,170.362c0.672,1.801,1.343,3.602,2.015,5.403c0.254,0.682,1.355,0.387,1.099-0.303
		c-0.672-1.801-1.343-3.603-2.015-5.403C214.203,169.378,213.102,169.673,213.359,170.362L213.359,170.362z"/>
</g>
<g>
	<path style="fill:#C9B162;" d="M210.965,172.533c0.285,1.077,0.569,2.155,0.854,3.232c0.188,0.71,1.286,0.408,1.099-0.303
		c-0.285-1.077-0.569-2.155-0.854-3.232C211.876,171.52,210.778,171.822,210.965,172.533L210.965,172.533z"/>
</g>
<g>
	<path style="fill:#C9B162;" d="M216.665,170.362c0.234,0.724,0.468,1.447,0.701,2.171c0.225,0.696,1.325,0.398,1.099-0.303
		c-0.234-0.724-0.468-1.447-0.701-2.171C217.538,169.363,216.439,169.661,216.665,170.362L216.665,170.362z"/>
</g>
<g>
	<path style="fill:#B09A55;" d="M204.545,180.881c0.095,0.989,0.19,1.977,0.285,2.967c0.069,0.725,1.209,0.731,1.139,0
		c-0.095-0.989-0.19-1.978-0.285-2.967C205.614,180.156,204.475,180.149,204.545,180.881L204.545,180.881z"/>
</g>
<g>
	<path style="fill:#B09A55;" d="M207.694,181.032c0.348,0.989,0.695,1.978,1.043,2.967c0.242,0.689,1.343,0.392,1.099-0.303
		c-0.348-0.989-0.695-1.978-1.043-2.967C208.55,180.041,207.45,180.338,207.694,181.032L207.694,181.032z"/>
</g>
<g>
	<path style="fill:#B09A55;" d="M212.652,181.872c0,0.568,0,1.138,0,1.706c0,0.734,1.139,0.734,1.139,0c0-0.568,0-1.138,0-1.706
		C213.791,181.138,212.652,181.138,212.652,181.872L212.652,181.872z"/>
</g>
<g>
	<path style="fill:#A38F4F;" d="M222.342,171.698c0.68,0.539,1.359,1.078,2.038,1.616c0.569,0.451,1.381-0.349,0.806-0.805
		c-0.68-0.539-1.359-1.078-2.038-1.616C222.579,170.442,221.767,171.242,222.342,171.698L222.342,171.698z"/>
</g>
<g>
	<path style="fill:#A38F4F;" d="M224.38,169.332c0.413,0.428,0.826,0.854,1.238,1.281c0.511,0.529,1.316-0.277,0.806-0.805
		c-0.413-0.428-0.826-0.854-1.238-1.281C224.675,167.998,223.87,168.805,224.38,169.332L224.38,169.332z"/>
</g>
<g>
	<path style="fill:#A38F4F;" d="M224.632,167.678c1.171,0.269,2.342,0.537,3.513,0.806c0.715,0.164,1.018-0.934,0.303-1.098
		c-1.171-0.268-2.342-0.537-3.513-0.806C224.22,166.416,223.916,167.514,224.632,167.678L224.632,167.678z"/>
</g>
<path style="fill:#3EA18C;" d="M168.849,187.513c0,0,0.104,0.046,0.278,0.141c0.164,0.1,0.441,0.229,0.722,0.427
	c0.602,0.377,1.389,0.949,2.192,1.699c0.808,0.748,1.638,1.672,2.39,2.724c0.771,1.044,1.436,2.229,2.004,3.457
	c1.138,2.456,1.721,5.165,1.774,7.371c0.035,1.1-0.053,2.068-0.168,2.771c-0.037,0.342-0.122,0.636-0.155,0.825
	c-0.043,0.194-0.078,0.303-0.078,0.303s-0.105-0.045-0.279-0.141c-0.165-0.099-0.443-0.229-0.724-0.426
	c-0.604-0.375-1.393-0.947-2.198-1.696c-1.627-1.491-3.284-3.712-4.385-6.185c-0.552-1.236-1.006-2.517-1.286-3.783
	c-0.297-1.259-0.448-2.491-0.479-3.592c-0.037-1.099,0.05-2.067,0.163-2.769c0.035-0.342,0.12-0.636,0.153-0.825
	C168.814,187.621,168.849,187.513,168.849,187.513z"/>
<path style="fill:#3EA18C;" d="M179.729,180.881c0,0,0.434,0.257,1.089,0.754c0.651,0.499,1.509,1.243,2.405,2.197
	c0.898,0.953,1.833,2.117,2.699,3.425c0.867,1.307,1.679,2.752,2.357,4.258c1.378,3.002,2.201,6.254,2.433,8.867
	c0.123,1.304,0.112,2.441,0.055,3.26c-0.062,0.821-0.158,1.317-0.158,1.317s-0.436-0.256-1.093-0.752
	c-0.652-0.498-1.513-1.242-2.41-2.195c-1.808-1.901-3.705-4.669-5.047-7.687c-0.682-1.504-1.23-3.068-1.638-4.583
	c-0.41-1.514-0.665-2.984-0.786-4.288c-0.124-1.304-0.115-2.44-0.06-3.258C179.635,181.376,179.729,180.881,179.729,180.881z"/>
<path style="fill:#3EA18C;" d="M192.741,176.965c0,0,0.105,0.058,0.277,0.174c0.163,0.121,0.44,0.283,0.718,0.52
	c0.599,0.454,1.379,1.133,2.171,2.003c0.797,0.869,1.611,1.928,2.344,3.116c0.751,1.183,1.393,2.505,1.934,3.867
	c1.085,2.723,1.602,5.668,1.597,8.03c0.006,1.178-0.108,2.206-0.244,2.947c-0.045,0.362-0.14,0.669-0.179,0.869
	c-0.049,0.203-0.087,0.316-0.087,0.316s-0.105-0.058-0.279-0.174c-0.164-0.12-0.441-0.282-0.72-0.518
	c-0.602-0.453-1.383-1.132-2.177-2.002c-1.605-1.732-3.221-4.249-4.269-6.986c-0.525-1.368-0.95-2.775-1.199-4.153
	c-0.267-1.371-0.386-2.701-0.389-3.881c-0.007-1.177,0.106-2.205,0.238-2.944c0.044-0.362,0.138-0.669,0.176-0.868
	C192.704,177.078,192.741,176.965,192.741,176.965z"/>
<path style="fill:#3EA18C;" d="M211.515,138.352c0,0,0.432-0.344,1.201-0.833c0.77-0.483,1.879-1.098,3.227-1.689
	c1.349-0.593,2.937-1.161,4.656-1.622c1.719-0.463,3.568-0.833,5.434-1.058c3.73-0.474,7.533-0.342,10.437,0.177
	c1.451,0.252,2.675,0.585,3.538,0.872c0.864,0.293,1.366,0.525,1.366,0.525s-0.432,0.346-1.2,0.837
	c-0.77,0.485-1.878,1.103-3.227,1.693c-2.695,1.198-6.356,2.237-10.091,2.671c-1.866,0.229-3.749,0.312-5.529,0.274
	c-1.78-0.036-3.458-0.208-4.909-0.461c-1.451-0.25-2.674-0.581-3.538-0.866C212.016,138.582,211.515,138.352,211.515,138.352z"/>
<path style="fill:#3EA18C;" d="M221.828,120.148c0,0,0.383-0.301,1.058-0.716c0.674-0.408,1.64-0.915,2.804-1.375
	c1.163-0.463,2.524-0.879,3.988-1.175c1.463-0.299,3.028-0.492,4.597-0.539c3.138-0.119,6.294,0.372,8.675,1.162
	c1.19,0.388,2.186,0.835,2.885,1.203c0.699,0.373,1.1,0.651,1.1,0.651s-0.383,0.304-1.057,0.72c-0.674,0.41-1.64,0.92-2.804,1.381
	c-2.327,0.938-5.446,1.626-8.586,1.705c-1.569,0.051-3.143-0.045-4.622-0.25c-1.479-0.204-2.864-0.534-4.054-0.923
	c-1.19-0.386-2.186-0.831-2.885-1.197C222.23,120.425,221.828,120.148,221.828,120.148z"/>
<path style="fill:#3EA18C;" d="M225.689,107.418c0,0,0.334-0.357,0.939-0.872c0.606-0.509,1.487-1.16,2.572-1.796
	c1.083-0.639,2.371-1.262,3.779-1.782c1.407-0.522,2.931-0.958,4.482-1.25c3.098-0.606,6.309-0.613,8.796-0.204
	c1.242,0.197,2.3,0.484,3.051,0.738c0.752,0.26,1.194,0.473,1.194,0.473s-0.334,0.359-0.939,0.876
	c-0.606,0.511-1.487,1.164-2.571,1.802c-2.165,1.289-5.157,2.455-8.263,3.022c-1.55,0.295-3.128,0.446-4.629,0.474
	c-1.5,0.029-2.926-0.08-4.169-0.279c-1.242-0.196-2.299-0.48-3.05-0.732C226.13,107.629,225.689,107.418,225.689,107.418z"/>
<path style="fill:#3EA18C;" d="M222.745,91.846c0,0,0.339-0.423,0.97-1.057c0.632-0.629,1.561-1.454,2.724-2.305
	c1.162-0.853,2.558-1.729,4.102-2.528c1.544-0.801,3.231-1.538,4.967-2.136c3.463-1.219,7.125-1.862,10.01-1.945
	c1.44-0.048,2.68,0.029,3.566,0.135c0.888,0.11,1.417,0.235,1.417,0.235s-0.338,0.425-0.968,1.061
	c-0.632,0.631-1.559,1.458-2.722,2.309c-2.32,1.717-5.596,3.475-9.072,4.655c-1.734,0.602-3.516,1.065-5.225,1.39
	c-1.708,0.326-3.348,0.499-4.788,0.546c-1.439,0.05-2.679-0.024-3.565-0.128C223.273,91.969,222.745,91.846,222.745,91.846z"/>
<path style="fill:#38917F;" d="M140.901,155.846c0,0,0.415-0.461,1.18-1.162c0.767-0.696,1.89-1.618,3.288-2.585
	c1.397-0.97,3.071-1.985,4.916-2.933c0.921-0.476,1.884-0.94,2.878-1.368c0.987-0.445,2.014-0.836,3.037-1.233
	c1.037-0.363,2.068-0.737,3.109-1.039c1.031-0.327,2.068-0.591,3.076-0.832c2.018-0.48,3.949-0.795,5.642-0.964
	c1.692-0.172,3.145-0.198,4.181-0.165c1.038,0.038,1.654,0.121,1.654,0.121s-0.414,0.463-1.179,1.166
	c-0.767,0.698-1.889,1.622-3.287,2.59c-1.397,0.971-3.07,1.986-4.916,2.932c-0.923,0.471-1.882,0.944-2.879,1.365
	c-0.987,0.445-2.016,0.831-3.039,1.229c-1.037,0.362-2.07,0.732-3.111,1.035c-1.034,0.32-2.067,0.592-3.077,0.828
	c-2.018,0.478-3.95,0.793-5.642,0.963c-1.691,0.173-3.144,0.201-4.179,0.17C141.517,155.927,140.901,155.846,140.901,155.846z"/>
<path style="fill:#38917F;" d="M162.661,161.393c0,0,0.354-0.407,1.006-1.012c0.653-0.599,1.609-1.38,2.799-2.176
	c1.188-0.798,2.61-1.61,4.176-2.338c1.566-0.729,3.271-1.388,5.019-1.905c3.488-1.06,7.149-1.534,10.016-1.485
	c1.431,0.017,2.659,0.15,3.535,0.296c0.877,0.15,1.396,0.3,1.396,0.3s-0.354,0.409-1.005,1.015
	c-0.653,0.601-1.608,1.385-2.797,2.182c-2.374,1.608-5.699,3.214-9.198,4.234c-1.746,0.523-3.534,0.903-5.243,1.149
	c-1.709,0.248-3.344,0.346-4.775,0.327c-1.431-0.016-2.659-0.148-3.533-0.291C163.18,161.54,162.661,161.393,162.661,161.393z"/>
<path style="fill:#CFE9FC;" d="M127.476,388.529c0,0,14.616-19.154,20.503-10.047C153.864,387.587,127.476,388.529,127.476,388.529z
	"/>
<path style="fill:#CFE9FC;" d="M125.815,379.728c0,0-7.952-22.744,2.891-22.65C139.548,357.176,125.815,379.728,125.815,379.728z"/>
<path style="fill:#3E5E70;" d="M106.921,323.131c0,0,9.114-4.335,13.555,1.783c4.438,6.122-9.541,9.543-9.541,9.543l-6.959-9.593
	L106.921,323.131z"/>
<path style="fill:#334D5C;" d="M101.903,326.766c0,0-7.195,7.502-2.757,13.619c4.438,6.121,11.788-5.929,11.788-5.929l-6.959-9.592
	L101.903,326.766z"/>
<path style="fill:#334D5C;" d="M105.644,273.491c0,0,2.518-20.712,12.172-10.951c9.656,9.765,7.84,46.351-5.509,51.216
	C98.962,318.62,105.644,273.491,105.644,273.491z"/>
<path style="fill:#E27C3E;" d="M112.58,279.279c-10.878-14.994-31.847-18.332-46.843-7.454c-0.336,0.244-0.636,0.521-0.961,0.774
	l0.637,10.246l-9.234-0.217c-6.167,11.05-5.814,25.123,2.108,36.039c10.875,14.991,31.848,18.329,46.84,7.453
	C120.12,315.244,123.455,294.272,112.58,279.279z"/>
<path style="fill:#A65B2D;" d="M108.34,285.41c0.301,0.375,0.562,0.784,0.793,1.209c0.235,0.424,0.44,0.868,0.593,1.331
	c0.156,0.461,0.292,0.938,0.35,1.427c0.089,0.485,0.087,0.985,0.069,1.481l-0.084,0.745c-0.051,0.244-0.124,0.485-0.187,0.729
	c-0.051,0.25-0.159,0.477-0.261,0.706c-0.109,0.226-0.186,0.474-0.324,0.683c-0.278,0.415-0.511,0.877-0.87,1.229l-0.502,0.562
	c-0.175,0.179-0.373,0.33-0.559,0.496l-0.568,0.488l-0.608,0.428l-0.592,0.41l-0.662,0.374c-0.436,0.268-0.906,0.453-1.373,0.649
	c-0.474,0.177-0.967,0.332-1.476,0.423c-0.509,0.105-1.033,0.132-1.562,0.129l-0.793-0.084c-0.259-0.062-0.523-0.112-0.779-0.191
	c-0.506-0.174-1.008-0.382-1.455-0.686c-0.459-0.308-0.847-0.623-1.243-1.11l1.218-0.449c0.079,1.129,0.07,2.205-0.007,3.307
	c-0.085,1.095-0.211,2.191-0.475,3.275c-0.105,0.545-0.305,1.075-0.46,1.612c-0.226,0.519-0.383,1.062-0.678,1.56l-0.409,0.757
	l-0.503,0.712c-0.156,0.245-0.357,0.46-0.566,0.669c-0.209,0.208-0.4,0.434-0.627,0.624c-0.487,0.341-0.933,0.751-1.494,0.971
	c-0.282,0.13-0.509,0.254-0.839,0.385l-0.764,0.237c-0.484,0.167-1.116,0.275-1.666,0.385c-0.565,0.074-1.132,0.143-1.708,0.137
	c-0.572,0.004-1.152-0.028-1.721-0.134c-0.572-0.083-1.135-0.239-1.68-0.438c-0.547-0.194-1.074-0.449-1.573-0.754
	c-0.507-0.316-0.947-0.638-1.417-1.128l1.238-0.699c0.173,0.626,0.269,1.196,0.349,1.802c0.075,0.598,0.124,1.2,0.116,1.807
	c0.008,0.605-0.041,1.216-0.134,1.82c-0.08,0.609-0.261,1.204-0.454,1.793c-0.252,0.573-0.505,1.143-0.883,1.65
	c-0.158,0.272-0.371,0.503-0.59,0.73c-0.221,0.221-0.409,0.478-0.674,0.647l-0.748,0.558c-0.263,0.16-0.546,0.284-0.818,0.427
	c-0.534,0.316-1.138,0.423-1.707,0.621c-0.636,0.172-1.151,0.212-1.737,0.316c-0.611-0.004-1.235,0.099-1.828-0.009
	c-0.298-0.039-0.6-0.058-0.893-0.117l-0.869-0.244c-0.293-0.065-0.556-0.225-0.833-0.333c-0.279-0.108-0.541-0.25-0.791-0.413
	c-0.52-0.29-0.982-0.666-1.425-1.051c-0.436-0.397-0.829-0.831-1.191-1.289c-0.714-0.922-1.271-1.955-1.654-3.039
	c0.483,1.044,1.151,1.986,1.897,2.836c0.383,0.417,0.793,0.806,1.234,1.152c0.449,0.335,0.909,0.656,1.414,0.889
	c0.242,0.136,0.494,0.249,0.76,0.329c0.264,0.079,0.51,0.211,0.786,0.248l0.806,0.164c0.272,0.03,0.547,0.039,0.819,0.062
	c0.273,0.034,0.544,0.03,0.811-0.002l0.801-0.055c0.537-0.121,1.174-0.215,1.635-0.373c0.503-0.206,1.051-0.32,1.497-0.622
	c0.23-0.136,0.473-0.252,0.693-0.398l0.611-0.502c0.221-0.149,0.362-0.378,0.539-0.568c0.174-0.195,0.345-0.392,0.463-0.628
	c0.296-0.432,0.483-0.924,0.677-1.411c0.136-0.513,0.273-1.022,0.333-1.558c0.069-0.529,0.101-1.07,0.081-1.613
	c-0.004-0.542-0.062-1.088-0.143-1.627c-0.08-0.531-0.194-1.094-0.339-1.571l-0.833-2.746l2.071,2.046
	c0.276,0.272,0.7,0.592,1.107,0.823c0.414,0.245,0.853,0.456,1.312,0.613c0.456,0.162,0.928,0.291,1.412,0.355
	c0.479,0.087,0.972,0.109,1.463,0.103c0.492,0.002,0.984-0.064,1.476-0.13c0.49-0.111,0.921-0.163,1.445-0.346l0.762-0.243
	l0.612-0.287c0.449-0.158,0.793-0.497,1.188-0.753c0.182-0.149,0.336-0.337,0.506-0.502c0.171-0.165,0.338-0.336,0.469-0.544
	l0.426-0.59l0.354-0.648c0.26-0.418,0.401-0.912,0.607-1.365c0.141-0.486,0.327-0.956,0.427-1.46
	c0.265-0.983,0.407-2.011,0.511-3.038c0.098-1.023,0.127-2.085,0.081-3.085l-0.101-2.163l1.318,1.714
	c0.204,0.265,0.552,0.582,0.886,0.814c0.337,0.256,0.726,0.433,1.118,0.591c0.2,0.071,0.408,0.117,0.612,0.181l0.637,0.096
	c0.432,0.02,0.868,0.021,1.307-0.051c0.437-0.057,0.876-0.174,1.304-0.312c0.426-0.159,0.86-0.306,1.254-0.526l0.609-0.305
	l0.61-0.384l0.589-0.375l0.544-0.427c0.178-0.146,0.372-0.278,0.539-0.435l0.479-0.493c0.346-0.312,0.583-0.7,0.867-1.062
	c0.143-0.182,0.222-0.398,0.337-0.595c0.108-0.201,0.225-0.401,0.285-0.623c0.072-0.217,0.156-0.432,0.221-0.652l0.128-0.68
	c0.049-0.457,0.087-0.926,0.036-1.392c-0.02-0.468-0.116-0.933-0.234-1.389C109.219,287.118,108.861,286.219,108.34,285.41z"/>
<path style="fill:#A65B2D;" d="M110.91,303.809c0.211,0.251,0.395,0.525,0.559,0.812c0.167,0.285,0.315,0.585,0.424,0.901
	c0.112,0.313,0.21,0.64,0.256,0.975c0.066,0.333,0.071,0.678,0.064,1.022c-0.02,0.346-0.07,0.689-0.172,1.024
	c-0.084,0.339-0.241,0.657-0.392,0.971c-0.188,0.291-0.347,0.615-0.591,0.863c-0.222,0.271-0.456,0.528-0.724,0.745
	c-0.242,0.229-0.541,0.471-0.804,0.645c-0.253,0.194-0.534,0.381-0.856,0.555c-0.303,0.193-0.628,0.327-0.954,0.465
	c-0.331,0.125-0.676,0.235-1.035,0.301c-0.358,0.076-0.73,0.097-1.106,0.096c-0.377-0.022-0.754-0.078-1.122-0.191
	c-0.362-0.123-0.721-0.271-1.042-0.486c-0.33-0.223-0.602-0.437-0.901-0.803l1.218-0.449c0.059,0.787,0.056,1.521,0.006,2.282
	c-0.055,0.754-0.138,1.511-0.317,2.263c-0.073,0.377-0.21,0.747-0.317,1.12c-0.157,0.363-0.266,0.74-0.472,1.091l-0.287,0.531
	l-0.354,0.503c-0.226,0.341-0.551,0.625-0.844,0.919c-0.346,0.243-0.664,0.536-1.063,0.694l-0.288,0.138l-0.145,0.067l-0.072,0.034
	l-0.036,0.017l-0.1,0.031l-0.525,0.138c-0.355,0.088-0.69,0.193-1.062,0.268l-1.255,0.101c-0.419,0.033-0.813-0.065-1.22-0.099
	c-0.407-0.021-0.79-0.204-1.185-0.305c-0.385-0.135-0.754-0.328-1.111-0.531c-0.356-0.234-0.667-0.446-1.014-0.812l1.238-0.699
	c0.123,0.449,0.185,0.838,0.239,1.262c0.05,0.416,0.082,0.834,0.075,1.257c0.003,0.421-0.032,0.848-0.1,1.271
	c-0.058,0.426-0.187,0.844-0.325,1.257c-0.179,0.404-0.36,0.806-0.629,1.165c-0.113,0.191-0.264,0.355-0.42,0.515
	c-0.157,0.156-0.292,0.337-0.479,0.457l-0.531,0.391c-0.186,0.112-0.385,0.199-0.577,0.298c-0.378,0.222-0.8,0.286-1.2,0.419
	c-0.463,0.118-0.792,0.133-1.2,0.2c-0.429-0.007-0.869,0.057-1.279-0.023c-0.207-0.03-0.416-0.046-0.619-0.091l-0.601-0.179
	c-0.386-0.147-0.777-0.301-1.117-0.534c-0.702-0.429-1.296-0.998-1.774-1.637c-0.48-0.639-0.841-1.355-1.086-2.099
	c0.344,0.703,0.817,1.329,1.329,1.895c0.521,0.56,1.134,1.025,1.805,1.34c0.326,0.176,0.688,0.272,1.038,0.364l0.538,0.099
	l0.545,0.03c0.366,0.045,0.708-0.048,1.059-0.057c0.356-0.087,0.809-0.162,1.093-0.27c0.33-0.142,0.689-0.227,0.979-0.425
	c0.15-0.09,0.308-0.166,0.451-0.263l0.394-0.328c0.143-0.097,0.231-0.247,0.345-0.37c0.112-0.127,0.221-0.254,0.296-0.408
	c0.189-0.278,0.307-0.601,0.431-0.916c0.085-0.336,0.173-0.668,0.211-1.02c0.043-0.348,0.062-0.705,0.046-1.063
	c-0.005-0.358-0.046-0.72-0.101-1.077c-0.055-0.35-0.135-0.731-0.229-1.032l-0.854-2.734l2.092,2.035
	c0.16,0.155,0.447,0.357,0.705,0.509c0.273,0.144,0.553,0.292,0.85,0.391c0.309,0.064,0.593,0.22,0.917,0.223
	c0.314,0.014,0.638,0.102,0.941,0.066c0.304-0.029,0.606-0.052,0.912-0.067c0.334-0.068,0.694-0.185,1.04-0.275l0.524-0.143
	l0.017-0.005l0.008-0.226c0.016-0.004-0.124-0.203-0.063-0.203h0.003l0.025,0.21l0.05,0.087l0.101,0.007l0.203-0.067
	c0.288-0.098,0.504-0.303,0.758-0.463c0.21-0.219,0.453-0.4,0.627-0.665l0.278-0.378l0.232-0.421
	c0.171-0.272,0.264-0.599,0.401-0.896c0.093-0.323,0.218-0.631,0.285-0.967c0.181-0.652,0.28-1.339,0.354-2.025
	c0.07-0.683,0.094-1.401,0.067-2.061l-0.088-2.195l1.306,1.746c0.108,0.145,0.338,0.361,0.545,0.506
	c0.212,0.165,0.458,0.278,0.706,0.382c0.253,0.095,0.521,0.148,0.795,0.184c0.277,0.013,0.558,0.017,0.844-0.028
	c0.284-0.034,0.571-0.108,0.854-0.197c0.28-0.105,0.569-0.196,0.83-0.336c0.266-0.113,0.544-0.265,0.825-0.447
	c0.296-0.166,0.514-0.322,0.766-0.522c0.258-0.175,0.478-0.385,0.689-0.605c0.235-0.202,0.396-0.456,0.59-0.693
	c0.157-0.255,0.326-0.516,0.429-0.801c0.121-0.281,0.197-0.577,0.249-0.883c0.039-0.304,0.07-0.617,0.042-0.931
	c-0.007-0.314-0.066-0.629-0.141-0.938C111.479,304.983,111.253,304.366,110.91,303.809z"/>
<path style="fill:#A65B2D;" d="M107.458,316.638c0.18,0.185,0.352,0.401,0.463,0.651c0.046,0.128,0.127,0.251,0.142,0.393
	c0.022,0.14,0.064,0.284,0.066,0.431l-0.051,0.448c-0.015,0.155-0.104,0.279-0.158,0.424c-0.067,0.135-0.116,0.298-0.225,0.395
	l-0.298,0.333l-0.154,0.166l-0.193,0.143l-0.312,0.23c-0.084,0.079-0.246,0.15-0.405,0.215c-0.159,0.058-0.315,0.144-0.483,0.167
	c-0.168,0.025-0.34,0.049-0.514,0.062c-0.178-0.019-0.362-0.037-0.541-0.078c-0.17-0.069-0.357-0.115-0.51-0.226
	c-0.169-0.107-0.291-0.194-0.465-0.401l1.217-0.451c0.033,0.35,0.039,0.643,0.025,0.967c-0.016,0.317-0.044,0.638-0.113,0.964
	c-0.141,0.637-0.426,1.341-1.034,1.891c-0.164,0.121-0.321,0.259-0.512,0.339l-0.139,0.066l-0.07,0.033l-0.035,0.016l-0.018,0.008
	l-0.08,0.025l-0.208,0.053c-0.143,0.034-0.267,0.072-0.425,0.104c-0.198,0.023-0.399,0.04-0.599,0.05
	c-0.2,0.013-0.376-0.029-0.565-0.048c-0.186-0.014-0.366-0.095-0.547-0.145c-0.179-0.064-0.351-0.154-0.517-0.252
	c-0.17-0.117-0.3-0.203-0.493-0.411l1.237-0.7c0.057,0.223,0.076,0.377,0.097,0.567c0.018,0.182,0.028,0.363,0.021,0.549
	c-0.012,0.369-0.062,0.756-0.218,1.13c-0.156,0.374-0.417,0.722-0.739,0.975c-0.164,0.125-0.334,0.229-0.515,0.301
	c-0.176,0.094-0.361,0.114-0.539,0.163l-0.067-0.09L98.913,326h-0.007h-0.014h-0.029l-0.116,0.109l-0.231,0.058
	c-0.167-0.01-0.279,0.062-0.492,0.007c-0.194-0.036-0.385-0.074-0.566-0.129c-0.174-0.064-0.315-0.17-0.467-0.257
	c-0.157-0.08-0.269-0.213-0.387-0.334c-0.124-0.117-0.216-0.256-0.3-0.397c-0.186-0.269-0.284-0.584-0.358-0.884
	c0.175,0.259,0.379,0.491,0.606,0.677c0.109,0.098,0.221,0.189,0.352,0.25c0.126,0.063,0.23,0.155,0.369,0.179
	c0.13,0.031,0.253,0.093,0.376,0.101c0.123-0.003,0.235-0.005,0.344,0.008c0.089,0.034,0.285-0.048,0.421-0.066l0.227-0.051
	l0.113-0.025l0.028-0.007l0.014-0.003l0.007-0.002c-0.029,0.006,0.066-0.012-0.063,0.012h0.001l0.003-0.002l0.042-0.02
	c0.475-0.201,0.756-0.494,0.854-0.906c0.043-0.21,0.068-0.44,0.05-0.685c-0.005-0.121-0.024-0.247-0.047-0.369
	c-0.022-0.115-0.059-0.264-0.087-0.337l-0.074-0.19l1.311-0.51c0.006-0.002,0.113,0.074,0.184,0.108
	c0.082,0.039,0.166,0.084,0.256,0.111c0.096,0.015,0.178,0.066,0.281,0.062c0.095,0,0.202,0.031,0.287,0.017
	c0.085-0.012,0.168-0.018,0.254-0.017c0.12-0.025,0.27-0.074,0.403-0.11l0.206-0.226l0.006-0.17h0.001c-0.029,0,0.067,0-0.064,0
	h0.001l0.007,0.174l0.013,0.081l0.027,0.031l0.054-0.002c0.08-0.021,0.134-0.074,0.206-0.111c0.251-0.212,0.47-0.591,0.581-1.06
	c0.072-0.228,0.115-0.474,0.15-0.724c0.033-0.245,0.049-0.522,0.048-0.743l1.217-0.449c-0.011-0.009,0.063,0.074,0.109,0.107
	c0.045,0.059,0.119,0.07,0.175,0.121c0.069,0.022,0.142,0.039,0.215,0.07c0.082-0.001,0.167-0.001,0.254,0.006
	c0.088,0.007,0.166-0.037,0.254-0.046c0.085-0.019,0.173-0.015,0.3-0.088l0.35-0.165c0.041-0.018,0.157-0.078,0.135-0.059
	l0.127-0.097l0.265-0.194c0.106-0.057,0.147-0.147,0.219-0.226c0.057-0.085,0.158-0.158,0.188-0.259l0.119-0.304
	c0.028-0.107,0.03-0.221,0.049-0.338c0.028-0.118-0.011-0.234-0.015-0.357C107.63,317.125,107.565,316.878,107.458,316.638z"/>
<path style="fill:#A65B2D;" d="M104.843,278.375c0,0-0.312,0.853-1.034,2.266c-0.729,1.406-1.823,3.404-3.399,5.635
	c-1.561,2.239-3.598,4.713-6.043,7.115c-1.246,1.175-2.537,2.396-3.976,3.483c-1.413,1.119-2.927,2.155-4.477,3.135
	c-1.577,0.936-3.184,1.823-4.83,2.565c-0.41,0.188-0.819,0.374-1.226,0.56c-0.416,0.163-0.831,0.324-1.243,0.485
	c-0.413,0.158-0.823,0.315-1.23,0.472c-0.415,0.135-0.827,0.269-1.235,0.401c-0.812,0.276-1.619,0.522-2.425,0.709
	c-0.798,0.21-1.581,0.406-2.355,0.542c-1.533,0.344-3.01,0.505-4.364,0.681c-1.363,0.098-2.608,0.224-3.717,0.206
	c-1.108-0.011-2.07,0.041-2.862-0.024c-1.584-0.089-2.483-0.162-2.483-0.162s0.906-0.065,2.479-0.143
	c0.788-0.012,1.739-0.156,2.828-0.251c1.09-0.094,2.305-0.34,3.633-0.515c1.316-0.271,2.744-0.528,4.225-0.929
	c0.748-0.17,1.5-0.4,2.266-0.645c0.384-0.117,0.772-0.235,1.165-0.355c0.385-0.138,0.775-0.277,1.168-0.418
	c0.392-0.141,0.788-0.283,1.186-0.426c0.39-0.164,0.783-0.328,1.179-0.494c0.796-0.319,1.582-0.685,2.371-1.061
	c1.587-0.734,3.134-1.612,4.653-2.53c1.51-0.935,2.989-1.923,4.372-2.996c1.4-1.051,2.712-2.173,3.955-3.289
	c1.215-1.146,2.388-2.261,3.424-3.394c1.049-1.122,1.999-2.223,2.85-3.263c1.689-2.089,3.008-3.914,3.849-5.247
	C104.406,279.169,104.843,278.375,104.843,278.375z"/>
<path style="fill:#3E5E70;" d="M86.372,293.956c0,0,11.061-3.872,19.143,7.269c8.087,11.145-9.975,12.012-9.975,12.012
	l-12.676-17.471L86.372,293.956z"/>
<path style="fill:#334D5C;" d="M80.688,298.076c0,0-7.43,9.543,0.65,20.684c8.086,11.143,14.199-5.526,14.199-5.526l-12.676-17.468
	L80.688,298.076z"/>
<path style="fill:#ECF0F0;" d="M89.532,289.319c-4.336,3.146-10.404,2.183-13.549-2.155c-3.148-4.339-2.184-10.406,2.156-13.553
	c4.337-3.146,10.404-2.18,13.547,2.156C94.835,280.105,93.868,286.173,89.532,289.319z"/>
<path style="fill:#334D5C;" d="M83.878,289.398c-0.814,0.591-1.953,0.408-2.547-0.406c-0.588-0.814-0.406-1.953,0.407-2.545
	c0.815-0.592,1.955-0.408,2.544,0.405C84.876,287.668,84.693,288.807,83.878,289.398z"/>
<g>
	<path style="fill:#EDD074;" d="M62.027,271.016c1.202,2.555,2.277,5.579,2.345,8.46c0.05,2.154-1.938,2.126-3.682,2.032
		c-1.131-0.061-2.266-0.412-3.343-0.743c-0.289-0.089-1.699-0.634-1.197-0.414c-2.741-1.2-5.131,2.839-2.366,4.049
		c4.303,1.884,12.708,3.739,14.823-2.144c1.541-4.286-0.701-9.717-2.531-13.607C64.79,265.914,60.748,268.296,62.027,271.016
		L62.027,271.016z"/>
</g>
<path style="fill:#3E5E70;" d="M106.921,323.131c0,0,9.114-4.335,13.555,1.783c4.438,6.122-9.541,9.543-9.541,9.543l-6.959-9.593
	L106.921,323.131z"/>
<path style="fill:#334D5C;" d="M101.903,326.766c0,0-7.195,7.502-2.757,13.619c4.438,6.121,11.788-5.929,11.788-5.929l-6.959-9.592
	L101.903,326.766z"/>
<path style="fill:#334D5C;" d="M105.644,273.491c0,0,2.518-20.712,12.172-10.951c9.656,9.765,7.84,46.351-5.509,51.216
	C98.962,318.62,105.644,273.491,105.644,273.491z"/>
<path style="fill:#E27C3E;" d="M112.58,279.279c-10.878-14.994-31.847-18.332-46.843-7.454c-0.336,0.244-0.636,0.521-0.961,0.774
	l0.637,10.246l-9.234-0.217c-6.167,11.05-5.814,25.123,2.108,36.039c10.875,14.991,31.848,18.329,46.84,7.453
	C120.12,315.244,123.455,294.272,112.58,279.279z"/>
<path style="fill:#A65B2D;" d="M108.34,285.41c0.301,0.375,0.562,0.784,0.793,1.209c0.235,0.424,0.44,0.868,0.593,1.331
	c0.156,0.461,0.292,0.938,0.35,1.427c0.089,0.485,0.087,0.985,0.069,1.481l-0.084,0.745c-0.051,0.244-0.124,0.485-0.187,0.729
	c-0.051,0.25-0.159,0.477-0.261,0.706c-0.109,0.226-0.186,0.474-0.324,0.683c-0.278,0.415-0.511,0.877-0.87,1.229l-0.502,0.562
	c-0.175,0.179-0.373,0.33-0.559,0.496l-0.568,0.488l-0.608,0.428l-0.592,0.41l-0.662,0.374c-0.436,0.268-0.906,0.453-1.373,0.649
	c-0.474,0.177-0.967,0.332-1.476,0.423c-0.509,0.105-1.033,0.132-1.562,0.129l-0.793-0.084c-0.259-0.062-0.523-0.112-0.779-0.191
	c-0.506-0.174-1.008-0.382-1.455-0.686c-0.459-0.308-0.847-0.623-1.243-1.11l1.218-0.449c0.079,1.129,0.07,2.205-0.007,3.307
	c-0.085,1.095-0.211,2.191-0.475,3.275c-0.105,0.545-0.305,1.075-0.46,1.612c-0.226,0.519-0.383,1.062-0.678,1.56l-0.409,0.757
	l-0.503,0.712c-0.156,0.245-0.357,0.46-0.566,0.669c-0.209,0.208-0.4,0.434-0.627,0.624c-0.487,0.341-0.933,0.751-1.494,0.971
	c-0.282,0.13-0.509,0.254-0.839,0.385l-0.764,0.237c-0.484,0.167-1.116,0.275-1.666,0.385c-0.565,0.074-1.132,0.143-1.708,0.137
	c-0.572,0.004-1.152-0.028-1.721-0.134c-0.572-0.083-1.135-0.239-1.68-0.438c-0.547-0.194-1.074-0.449-1.573-0.754
	c-0.507-0.316-0.947-0.638-1.417-1.128l1.238-0.699c0.173,0.626,0.269,1.196,0.349,1.802c0.075,0.598,0.124,1.2,0.116,1.807
	c0.008,0.605-0.041,1.216-0.134,1.82c-0.08,0.609-0.261,1.204-0.454,1.793c-0.252,0.573-0.505,1.143-0.883,1.65
	c-0.158,0.272-0.371,0.503-0.59,0.73c-0.221,0.221-0.409,0.478-0.674,0.647l-0.748,0.558c-0.263,0.16-0.546,0.284-0.818,0.427
	c-0.534,0.316-1.138,0.423-1.707,0.621c-0.636,0.172-1.151,0.212-1.737,0.316c-0.611-0.004-1.235,0.099-1.828-0.009
	c-0.298-0.039-0.6-0.058-0.893-0.117l-0.869-0.244c-0.293-0.065-0.556-0.225-0.833-0.333c-0.279-0.108-0.541-0.25-0.791-0.413
	c-0.52-0.29-0.982-0.666-1.425-1.051c-0.436-0.397-0.829-0.831-1.191-1.289c-0.714-0.922-1.271-1.955-1.654-3.039
	c0.483,1.044,1.151,1.986,1.897,2.836c0.383,0.417,0.793,0.806,1.234,1.152c0.449,0.335,0.909,0.656,1.414,0.889
	c0.242,0.136,0.494,0.249,0.76,0.329c0.264,0.079,0.51,0.211,0.786,0.248l0.806,0.164c0.272,0.03,0.547,0.039,0.819,0.062
	c0.273,0.034,0.544,0.03,0.811-0.002l0.801-0.055c0.537-0.121,1.174-0.215,1.635-0.373c0.503-0.206,1.051-0.32,1.497-0.622
	c0.23-0.136,0.473-0.252,0.693-0.398l0.611-0.502c0.221-0.149,0.362-0.378,0.539-0.568c0.174-0.195,0.345-0.392,0.463-0.628
	c0.296-0.432,0.483-0.924,0.677-1.411c0.136-0.513,0.273-1.022,0.333-1.558c0.069-0.529,0.101-1.07,0.081-1.613
	c-0.004-0.542-0.062-1.088-0.143-1.627c-0.08-0.531-0.194-1.094-0.339-1.571l-0.833-2.746l2.071,2.046
	c0.276,0.272,0.7,0.592,1.107,0.823c0.414,0.245,0.853,0.456,1.312,0.613c0.456,0.162,0.928,0.291,1.412,0.355
	c0.479,0.087,0.972,0.109,1.463,0.103c0.492,0.002,0.984-0.064,1.476-0.13c0.49-0.111,0.921-0.163,1.445-0.346l0.762-0.243
	l0.612-0.287c0.449-0.158,0.793-0.497,1.188-0.753c0.182-0.149,0.336-0.337,0.506-0.502c0.171-0.165,0.338-0.336,0.469-0.544
	l0.426-0.59l0.354-0.648c0.26-0.418,0.401-0.912,0.607-1.365c0.141-0.486,0.327-0.956,0.427-1.46
	c0.265-0.983,0.407-2.011,0.511-3.038c0.098-1.023,0.127-2.085,0.081-3.085l-0.101-2.163l1.318,1.714
	c0.204,0.265,0.552,0.582,0.886,0.814c0.337,0.256,0.726,0.433,1.118,0.591c0.2,0.071,0.408,0.117,0.612,0.181l0.637,0.096
	c0.432,0.02,0.868,0.021,1.307-0.051c0.437-0.057,0.876-0.174,1.304-0.312c0.426-0.159,0.86-0.306,1.254-0.526l0.609-0.305
	l0.61-0.384l0.589-0.375l0.544-0.427c0.178-0.146,0.372-0.278,0.539-0.435l0.479-0.493c0.346-0.312,0.583-0.7,0.867-1.062
	c0.143-0.182,0.222-0.398,0.337-0.595c0.108-0.201,0.225-0.401,0.285-0.623c0.072-0.217,0.156-0.432,0.221-0.652l0.128-0.68
	c0.049-0.457,0.087-0.926,0.036-1.392c-0.02-0.468-0.116-0.933-0.234-1.389C109.219,287.118,108.861,286.219,108.34,285.41z"/>
<path style="fill:#A65B2D;" d="M110.91,303.809c0.211,0.251,0.395,0.525,0.559,0.812c0.167,0.285,0.315,0.585,0.424,0.901
	c0.112,0.313,0.21,0.64,0.256,0.975c0.066,0.333,0.071,0.678,0.064,1.022c-0.02,0.346-0.07,0.689-0.172,1.024
	c-0.084,0.339-0.241,0.657-0.392,0.971c-0.188,0.291-0.347,0.615-0.591,0.863c-0.222,0.271-0.456,0.528-0.724,0.745
	c-0.242,0.229-0.541,0.471-0.804,0.645c-0.253,0.194-0.534,0.381-0.856,0.555c-0.303,0.193-0.628,0.327-0.954,0.465
	c-0.331,0.125-0.676,0.235-1.035,0.301c-0.358,0.076-0.73,0.097-1.106,0.096c-0.377-0.022-0.754-0.078-1.122-0.191
	c-0.362-0.123-0.721-0.271-1.042-0.486c-0.33-0.223-0.602-0.437-0.901-0.803l1.218-0.449c0.059,0.787,0.056,1.521,0.006,2.282
	c-0.055,0.754-0.138,1.511-0.317,2.263c-0.073,0.377-0.21,0.747-0.317,1.12c-0.157,0.363-0.266,0.74-0.472,1.091l-0.287,0.531
	l-0.354,0.503c-0.226,0.341-0.551,0.625-0.844,0.919c-0.346,0.243-0.664,0.536-1.063,0.694l-0.288,0.138l-0.145,0.067l-0.072,0.034
	l-0.036,0.017l-0.1,0.031l-0.525,0.138c-0.355,0.088-0.69,0.193-1.062,0.268l-1.255,0.101c-0.419,0.033-0.813-0.065-1.22-0.099
	c-0.407-0.021-0.79-0.204-1.185-0.305c-0.385-0.135-0.754-0.328-1.111-0.531c-0.356-0.234-0.667-0.446-1.014-0.812l1.238-0.699
	c0.123,0.449,0.185,0.838,0.239,1.262c0.05,0.416,0.082,0.834,0.075,1.257c0.003,0.421-0.032,0.848-0.1,1.271
	c-0.058,0.426-0.187,0.844-0.325,1.257c-0.179,0.404-0.36,0.806-0.629,1.165c-0.113,0.191-0.264,0.355-0.42,0.515
	c-0.157,0.156-0.292,0.337-0.479,0.457l-0.531,0.391c-0.186,0.112-0.385,0.199-0.577,0.298c-0.378,0.222-0.8,0.286-1.2,0.419
	c-0.463,0.118-0.792,0.133-1.2,0.2c-0.429-0.007-0.869,0.057-1.279-0.023c-0.207-0.03-0.416-0.046-0.619-0.091l-0.601-0.179
	c-0.386-0.147-0.777-0.301-1.117-0.534c-0.702-0.429-1.296-0.998-1.774-1.637c-0.48-0.639-0.841-1.355-1.086-2.099
	c0.344,0.703,0.817,1.329,1.329,1.895c0.521,0.56,1.134,1.025,1.805,1.34c0.326,0.176,0.688,0.272,1.038,0.364l0.538,0.099
	l0.545,0.03c0.366,0.045,0.708-0.048,1.059-0.057c0.356-0.087,0.809-0.162,1.093-0.27c0.33-0.142,0.689-0.227,0.979-0.425
	c0.15-0.09,0.308-0.166,0.451-0.263l0.394-0.328c0.143-0.097,0.231-0.247,0.345-0.37c0.112-0.127,0.221-0.254,0.296-0.408
	c0.189-0.278,0.307-0.601,0.431-0.916c0.085-0.336,0.173-0.668,0.211-1.02c0.043-0.348,0.062-0.705,0.046-1.063
	c-0.005-0.358-0.046-0.72-0.101-1.077c-0.055-0.35-0.135-0.731-0.229-1.032l-0.854-2.734l2.092,2.035
	c0.16,0.155,0.447,0.357,0.705,0.509c0.273,0.144,0.553,0.292,0.85,0.391c0.309,0.064,0.593,0.22,0.917,0.223
	c0.314,0.014,0.638,0.102,0.941,0.066c0.304-0.029,0.606-0.052,0.912-0.067c0.334-0.068,0.694-0.185,1.04-0.275l0.524-0.143
	l0.017-0.005l0.008-0.226c0.016-0.004-0.124-0.203-0.063-0.203h0.003l0.025,0.21l0.05,0.087l0.101,0.007l0.203-0.067
	c0.288-0.098,0.504-0.303,0.758-0.463c0.21-0.219,0.453-0.4,0.627-0.665l0.278-0.378l0.232-0.421
	c0.171-0.272,0.264-0.599,0.401-0.896c0.093-0.323,0.218-0.631,0.285-0.967c0.181-0.652,0.28-1.339,0.354-2.025
	c0.07-0.683,0.094-1.401,0.067-2.061l-0.088-2.195l1.306,1.746c0.108,0.145,0.338,0.361,0.545,0.506
	c0.212,0.165,0.458,0.278,0.706,0.382c0.253,0.095,0.521,0.148,0.795,0.184c0.277,0.013,0.558,0.017,0.844-0.028
	c0.284-0.034,0.571-0.108,0.854-0.197c0.28-0.105,0.569-0.196,0.83-0.336c0.266-0.113,0.544-0.265,0.825-0.447
	c0.296-0.166,0.514-0.322,0.766-0.522c0.258-0.175,0.478-0.385,0.689-0.605c0.235-0.202,0.396-0.456,0.59-0.693
	c0.157-0.255,0.326-0.516,0.429-0.801c0.121-0.281,0.197-0.577,0.249-0.883c0.039-0.304,0.07-0.617,0.042-0.931
	c-0.007-0.314-0.066-0.629-0.141-0.938C111.479,304.983,111.253,304.366,110.91,303.809z"/>
<path style="fill:#A65B2D;" d="M107.458,316.638c0.18,0.185,0.352,0.401,0.463,0.651c0.046,0.128,0.127,0.251,0.142,0.393
	c0.022,0.14,0.064,0.284,0.066,0.431l-0.051,0.448c-0.015,0.155-0.104,0.279-0.158,0.424c-0.067,0.135-0.116,0.298-0.225,0.395
	l-0.298,0.333l-0.154,0.166l-0.193,0.143l-0.312,0.23c-0.084,0.079-0.246,0.15-0.405,0.215c-0.159,0.058-0.315,0.144-0.483,0.167
	c-0.168,0.025-0.34,0.049-0.514,0.062c-0.178-0.019-0.362-0.037-0.541-0.078c-0.17-0.069-0.357-0.115-0.51-0.226
	c-0.169-0.107-0.291-0.194-0.465-0.401l1.217-0.451c0.033,0.35,0.039,0.643,0.025,0.967c-0.016,0.317-0.044,0.638-0.113,0.964
	c-0.141,0.637-0.426,1.341-1.034,1.891c-0.164,0.121-0.321,0.259-0.512,0.339l-0.139,0.066l-0.07,0.033l-0.035,0.016l-0.018,0.008
	l-0.08,0.025l-0.208,0.053c-0.143,0.034-0.267,0.072-0.425,0.104c-0.198,0.023-0.399,0.04-0.599,0.05
	c-0.2,0.013-0.376-0.029-0.565-0.048c-0.186-0.014-0.366-0.095-0.547-0.145c-0.179-0.064-0.351-0.154-0.517-0.252
	c-0.17-0.117-0.3-0.203-0.493-0.411l1.237-0.7c0.057,0.223,0.076,0.377,0.097,0.567c0.018,0.182,0.028,0.363,0.021,0.549
	c-0.012,0.369-0.062,0.756-0.218,1.13c-0.156,0.374-0.417,0.722-0.739,0.975c-0.164,0.125-0.334,0.229-0.515,0.301
	c-0.176,0.094-0.361,0.114-0.539,0.163l-0.067-0.09L98.913,326h-0.007h-0.014h-0.029l-0.116,0.109l-0.231,0.058
	c-0.167-0.01-0.279,0.062-0.492,0.007c-0.194-0.036-0.385-0.074-0.566-0.129c-0.174-0.064-0.315-0.17-0.467-0.257
	c-0.157-0.08-0.269-0.213-0.387-0.334c-0.124-0.117-0.216-0.256-0.3-0.397c-0.186-0.269-0.284-0.584-0.358-0.884
	c0.175,0.259,0.379,0.491,0.606,0.677c0.109,0.098,0.221,0.189,0.352,0.25c0.126,0.063,0.23,0.155,0.369,0.179
	c0.13,0.031,0.253,0.093,0.376,0.101c0.123-0.003,0.235-0.005,0.344,0.008c0.089,0.034,0.285-0.048,0.421-0.066l0.227-0.051
	l0.113-0.025l0.028-0.007l0.014-0.003l0.007-0.002c-0.029,0.006,0.066-0.012-0.063,0.012h0.001l0.003-0.002l0.042-0.02
	c0.475-0.201,0.756-0.494,0.854-0.906c0.043-0.21,0.068-0.44,0.05-0.685c-0.005-0.121-0.024-0.247-0.047-0.369
	c-0.022-0.115-0.059-0.264-0.087-0.337l-0.074-0.19l1.311-0.51c0.006-0.002,0.113,0.074,0.184,0.108
	c0.082,0.039,0.166,0.084,0.256,0.111c0.096,0.015,0.178,0.066,0.281,0.062c0.095,0,0.202,0.031,0.287,0.017
	c0.085-0.012,0.168-0.018,0.254-0.017c0.12-0.025,0.27-0.074,0.403-0.11l0.206-0.226l0.006-0.17h0.001c-0.029,0,0.067,0-0.064,0
	h0.001l0.007,0.174l0.013,0.081l0.027,0.031l0.054-0.002c0.08-0.021,0.134-0.074,0.206-0.111c0.251-0.212,0.47-0.591,0.581-1.06
	c0.072-0.228,0.115-0.474,0.15-0.724c0.033-0.245,0.049-0.522,0.048-0.743l1.217-0.449c-0.011-0.009,0.063,0.074,0.109,0.107
	c0.045,0.059,0.119,0.07,0.175,0.121c0.069,0.022,0.142,0.039,0.215,0.07c0.082-0.001,0.167-0.001,0.254,0.006
	c0.088,0.007,0.166-0.037,0.254-0.046c0.085-0.019,0.173-0.015,0.3-0.088l0.35-0.165c0.041-0.018,0.157-0.078,0.135-0.059
	l0.127-0.097l0.265-0.194c0.106-0.057,0.147-0.147,0.219-0.226c0.057-0.085,0.158-0.158,0.188-0.259l0.119-0.304
	c0.028-0.107,0.03-0.221,0.049-0.338c0.028-0.118-0.011-0.234-0.015-0.357C107.63,317.125,107.565,316.878,107.458,316.638z"/>
<path style="fill:#A65B2D;" d="M104.843,278.375c0,0-0.312,0.853-1.034,2.266c-0.729,1.406-1.823,3.404-3.399,5.635
	c-1.561,2.239-3.598,4.713-6.043,7.115c-1.246,1.175-2.537,2.396-3.976,3.483c-1.413,1.119-2.927,2.155-4.477,3.135
	c-1.577,0.936-3.184,1.823-4.83,2.565c-0.41,0.188-0.819,0.374-1.226,0.56c-0.416,0.163-0.831,0.324-1.243,0.485
	c-0.413,0.158-0.823,0.315-1.23,0.472c-0.415,0.135-0.827,0.269-1.235,0.401c-0.812,0.276-1.619,0.522-2.425,0.709
	c-0.798,0.21-1.581,0.406-2.355,0.542c-1.533,0.344-3.01,0.505-4.364,0.681c-1.363,0.098-2.608,0.224-3.717,0.206
	c-1.108-0.011-2.07,0.041-2.862-0.024c-1.584-0.089-2.483-0.162-2.483-0.162s0.906-0.065,2.479-0.143
	c0.788-0.012,1.739-0.156,2.828-0.251c1.09-0.094,2.305-0.34,3.633-0.515c1.316-0.271,2.744-0.528,4.225-0.929
	c0.748-0.17,1.5-0.4,2.266-0.645c0.384-0.117,0.772-0.235,1.165-0.355c0.385-0.138,0.775-0.277,1.168-0.418
	c0.392-0.141,0.788-0.283,1.186-0.426c0.39-0.164,0.783-0.328,1.179-0.494c0.796-0.319,1.582-0.685,2.371-1.061
	c1.587-0.734,3.134-1.612,4.653-2.53c1.51-0.935,2.989-1.923,4.372-2.996c1.4-1.051,2.712-2.173,3.955-3.289
	c1.215-1.146,2.388-2.261,3.424-3.394c1.049-1.122,1.999-2.223,2.85-3.263c1.689-2.089,3.008-3.914,3.849-5.247
	C104.406,279.169,104.843,278.375,104.843,278.375z"/>
<path style="fill:#3E5E70;" d="M86.372,293.956c0,0,11.061-3.872,19.143,7.269c8.087,11.145-9.975,12.012-9.975,12.012
	l-12.676-17.471L86.372,293.956z"/>
<path style="fill:#334D5C;" d="M80.688,298.076c0,0-7.43,9.543,0.65,20.684c8.086,11.143,14.199-5.526,14.199-5.526l-12.676-17.468
	L80.688,298.076z"/>
<path style="fill:#ECF0F0;" d="M89.532,289.319c-4.336,3.146-10.404,2.183-13.549-2.155c-3.148-4.339-2.184-10.406,2.156-13.553
	c4.337-3.146,10.404-2.18,13.547,2.156C94.835,280.105,93.868,286.173,89.532,289.319z"/>
<path style="fill:#334D5C;" d="M83.878,289.398c-0.814,0.591-1.953,0.408-2.547-0.406c-0.588-0.814-0.406-1.953,0.407-2.545
	c0.815-0.592,1.955-0.408,2.544,0.405C84.876,287.668,84.693,288.807,83.878,289.398z"/>
<g>
	<path style="fill:#EDD074;" d="M62.027,271.016c1.202,2.555,2.277,5.579,2.345,8.46c0.05,2.154-1.938,2.126-3.682,2.032
		c-1.131-0.061-2.266-0.412-3.343-0.743c-0.289-0.089-1.699-0.634-1.197-0.414c-2.741-1.2-5.131,2.839-2.366,4.049
		c4.303,1.884,12.708,3.739,14.823-2.144c1.541-4.286-0.701-9.717-2.531-13.607C64.79,265.914,60.748,268.296,62.027,271.016
		L62.027,271.016z"/>
</g>
<path style="fill:#CFE9FC;" d="M117.938,387.809c0,0-21.703-8.875-15.4-15.371C108.842,365.938,117.938,387.809,117.938,387.809z"/>
<path style="fill:#CFE9FC;" d="M117.938,387.809c0,0-21.703-8.875-15.4-15.371C108.842,365.938,117.938,387.809,117.938,387.809z"/>
<path style="fill:#CFE9FC;" d="M395.267,83.738c-5.799,0-11.113,2.068-15.252,5.504c-4.938-6.447-12.693-10.623-21.443-10.623
	c-10.003,0-18.717,5.449-23.389,13.529c-2.09-0.656-4.31-1.014-6.617-1.014c-12.176,0-22.045,9.869-22.045,22.044
	s9.869,22.044,22.045,22.044c2.229,0,4.376-0.338,6.404-0.953c5.292,7.844,15.719,13.186,27.729,13.186
	c13.471,0,24.927-6.729,29.4-16.164c1.038,0.139,2.092,0.234,3.168,0.234c13.195,0,23.894-10.697,23.894-23.894
	S408.462,83.738,395.267,83.738z"/>
<g>
</g>
<g>
</g>
<g>
</g>
<g>
</g>
<g>
</g>
<g>
</g>
<g>
</g>
<g>
</g>
<g>
</g>
<g>
</g>
<g>
</g>
<g>
</g>
<g>
</g>
<g>
</g>
<g>
</g>
</svg>
