<?xml version="1.0" encoding="iso-8859-1"?>
<!-- Generator: Adobe Illustrator 17.0.0, SVG Export Plug-In . SVG Version: 6.00 Build 0)  -->
<!DOCTYPE svg PUBLIC "-//W3C//DTD SVG 1.1//EN" "http://www.w3.org/Graphics/SVG/1.1/DTD/svg11.dtd">
<svg version="1.1" id="Layer_1" xmlns="http://www.w3.org/2000/svg" xmlns:xlink="http://www.w3.org/1999/xlink" x="0px" y="0px"
	 width="512px" height="512px" viewBox="0 0 512 512" style="enable-background:new 0 0 512 512;" xml:space="preserve">
<circle id="background_13_" style="fill:#334D5C;" cx="256" cy="256" r="256"/>
<g>
	<path style="fill:#F3C42C;" d="M326.083,164.689c-30.205-30.206-79.352-30.206-109.555,0c-23.79,23.79-29.403,60.154-14.323,89.833
		l-12.684,12.684l17.032,17.078L102.945,387.893l35.417-1.308l97.975-97.975c29.658,15.021,65.991,9.389,89.748-14.367
		C356.288,244.04,356.288,194.894,326.083,164.689z M220.477,270.473c-28.401-28.4-28.401-74.612,0-103.012
		c28.4-28.401,74.612-28.401,103.012,0c28.4,28.4,28.4,74.612,0,103.012C295.089,298.872,248.878,298.872,220.477,270.473z"/>
</g>
<g>
	<path style="fill:#FFCE2E;" d="M323.488,167.46c-28.399-28.401-74.611-28.401-103.012,0c-28.401,28.4-28.401,74.612,0,103.012
		c28.401,28.4,74.612,28.4,103.012,0C351.889,242.072,351.889,195.861,323.488,167.46z M222.46,268.489
		c-27.352-27.35-27.352-71.694,0-99.047c27.351-27.35,71.695-27.35,99.045,0.002c27.352,27.351,27.352,71.695,0,99.045
		C294.155,295.84,249.811,295.84,222.46,268.489z"/>
</g>
<g>
	<path style="fill:#CC9902;" d="M321.505,169.444c-27.35-27.352-71.693-27.352-99.045-0.002c-27.352,27.353-27.352,71.697,0,99.047
		c27.351,27.351,71.695,27.351,99.045,0C348.856,241.139,348.856,196.794,321.505,169.444z M227.788,263.161
		c-24.41-24.408-24.41-63.981,0-88.39c24.407-24.409,63.98-24.409,88.391,0c24.406,24.408,24.406,63.981,0,88.39
		C291.771,287.569,252.195,287.569,227.788,263.161z"/>
</g>
<path style="fill:#D8A202;" d="M316.179,174.771c-24.41-24.409-63.983-24.409-88.391,0c-24.41,24.408-24.41,63.981,0,88.39
	c24.407,24.408,63.982,24.408,88.391,0C340.585,238.752,340.585,199.179,316.179,174.771z M274.035,216.914
	c-9.403-9.404-9.403-24.707,0-34.111c9.405-9.403,24.706-9.403,34.11,0c9.404,9.405,9.404,24.707,0,34.111
	C298.741,226.318,283.44,226.318,274.035,216.914z"/>
<g>
	<path style="fill:#CC9902;" d="M303.782,187.165c-7.009-7.009-18.374-7.009-25.384,0c-7.01,7.011-7.01,18.375,0,25.385
		c7.01,7.01,18.373,7.01,25.384,0C310.792,205.54,310.792,194.176,303.782,187.165z M279.589,211.361
		c-6.344-6.344-6.342-16.662,0-23.006c6.343-6.341,16.663-6.341,23.005,0c6.341,6.344,6.341,16.664,0,23.006
		C296.252,217.703,285.932,217.703,279.589,211.361z"/>
</g>
<g>
	<path style="fill:#CC9902;" d="M308.146,182.802c-9.404-9.403-24.705-9.403-34.11,0c-9.403,9.405-9.403,24.707,0,34.111
		c9.405,9.404,24.706,9.404,34.11,0C317.55,207.509,317.55,192.207,308.146,182.802z M275.226,215.725
		c-8.762-8.765-8.762-22.969,0-31.733c8.763-8.762,22.968-8.762,31.73,0c8.764,8.764,8.764,22.969,0,31.733
		C298.193,224.486,283.988,224.486,275.226,215.725z"/>
</g>
<g>
	<path style="fill:#F3C42C;" d="M306.955,183.992c-8.762-8.762-22.967-8.762-31.73,0c-8.762,8.764-8.762,22.969,0,31.733
		c8.763,8.761,22.968,8.761,31.73,0C315.719,206.96,315.719,192.756,306.955,183.992z M278.398,212.55
		c-7.01-7.01-7.01-18.374,0-25.385c7.01-7.009,18.375-7.009,25.384,0c7.01,7.011,7.01,18.375,0,25.385
		C296.772,219.56,285.408,219.56,278.398,212.55z"/>
</g>
<polygon style="fill:#FFCE2E;" points="120.241,387.253 128.479,386.951 219.245,296.185 215.278,292.217 "/>
<polygon style="fill:#D8A202;" points="192.538,270.271 188.448,280.642 175.012,281.716 167.575,289.152 166.233,305.942 
	149.445,307.283 137.55,319.177 136.068,337.708 119.205,337.522 104.252,352.477 102.945,387.893 206.554,284.284 "/>
<polygon style="fill:#CC9902;" points="107.014,353.681 120.354,340.34 138.655,340.542 140.264,320.431 150.698,309.996 
	168.839,308.546 170.288,290.406 176.265,284.429 190.415,283.298 193.578,275.277 202.587,284.284 106.012,380.861 "/>
<polygon style="fill:#D8A202;" points="116.123,387.406 124.36,387.102 217.262,294.201 213.295,290.234 "/>
<path style="fill:#F2F2F2;" d="M406.264,133.925c-7.299-25.435-28.966-45.218-54.822-50.519
	c-25.703-5.271-52.883,4.198-69.753,24.283c-8.357,9.95-13.74,21.971-15.857,34.54c3.762-0.265,7.538-0.255,11.298,0.026
	c3.935-19.543,17.551-36.225,36.155-44.385c21.94-9.623,48.429-4.21,65.649,12.042c11.952,11.278,18.712,27.099,18.98,43.485
	c0.267,16.403-6.367,32.224-17.856,43.848c-8.862,8.759-19.86,14.35-31.525,16.593c-1.288,0.248-2.585,0.458-3.888,0.624
	c-0.916,0.117-1.837,0.205-2.757,0.281c-2.502,0.203-5.019,0.257-7.54,0.159c-6.851-0.269-13.726-1.657-20.354-4.215
	c-0.38-0.149-0.754-0.309-1.13-0.463c-0.518-0.216-1.033-0.434-1.544-0.662c-1.371-0.615-2.711-1.281-4.02-1.998
	c-0.493-0.27-0.986-0.542-1.47-0.827c-8.915-5.245-16.22-12.849-21.379-21.729c-1.765,0.788-3.418,1.9-4.864,3.345
	c-1.422,1.422-2.522,3.045-3.307,4.777c5.583,8.618,12.938,15.975,21.498,21.55c0.555,0.36,1.111,0.717,1.675,1.062
	c1.455,0.894,2.946,1.73,4.464,2.519c0.56,0.292,1.119,0.577,1.688,0.853c5.305,2.583,10.952,4.532,16.835,5.736
	c3.855,0.792,7.74,1.245,11.618,1.389c2.539,0.093,5.072,0.048,7.592-0.127c0.94-0.066,1.877-0.143,2.812-0.246
	c1.356-0.146,2.708-0.336,4.051-0.56c14.74-2.448,28.639-9.416,39.477-20.13C406.411,186.544,413.498,159.137,406.264,133.925z"/>
<path style="fill:#D4D4D4;" d="M293.934,197.435c-3.669-3.717-6.855-7.902-9.48-12.425c-1.765,0.788-3.418,1.9-4.864,3.345
	c-1.422,1.422-2.522,3.045-3.307,4.777c2.876,4.44,6.227,8.541,9.966,12.241C287.835,201.818,291.169,199.15,293.934,197.435z"/>
<path style="fill:#D4D4D4;" d="M269.19,129.473c-1.499,4.146-2.627,8.417-3.358,12.757c3.762-0.265,7.538-0.255,11.298,0.026
	c0.815-4.049,2.052-7.972,3.655-11.723C276.865,128.4,272.538,128.667,269.19,129.473z"/>
<g>
</g>
<g>
</g>
<g>
</g>
<g>
</g>
<g>
</g>
<g>
</g>
<g>
</g>
<g>
</g>
<g>
</g>
<g>
</g>
<g>
</g>
<g>
</g>
<g>
</g>
<g>
</g>
<g>
</g>
</svg>
