<?xml version="1.0" encoding="iso-8859-1"?>
<!-- Generator: Adobe Illustrator 17.0.0, SVG Export Plug-In . SVG Version: 6.00 Build 0)  -->
<!DOCTYPE svg PUBLIC "-//W3C//DTD SVG 1.1//EN" "http://www.w3.org/Graphics/SVG/1.1/DTD/svg11.dtd">
<svg version="1.1" id="Layer_1" xmlns="http://www.w3.org/2000/svg" xmlns:xlink="http://www.w3.org/1999/xlink" x="0px" y="0px"
	 width="512px" height="512px" viewBox="0 0 512 512" style="enable-background:new 0 0 512 512;" xml:space="preserve">
<path id="bg_53_" style="fill:#334D5C;" d="M512,256c0,141.383-114.61,256-256,256C114.616,512,0,397.383,0,256
	C0,114.621,114.616,0,256,0C397.39,0,512,114.621,512,256z"/>
<path style="fill:#939FA7;" d="M295.026,233.068c4.499-0.918,11.814-1.578,11.814-1.578s-7.417-0.572-11.889-1.459
	c0.545-2.531,2.108-6.494,2.108-6.494s-3.814,1.504-6.348,2.072c-0.852-4.525-1.402-11.854-1.402-11.854s-0.516,7.518-1.385,11.901
	c-2.518-0.524-6.568-2.12-6.568-2.12s1.447,3.672,2.04,6.205c-4.577,0.899-11.821,1.545-11.821,1.545s7.314,0.7,11.845,1.645
	c-0.574,2.533-2.063,6.309-2.063,6.309s3.906-1.539,6.438-2.094c0.837,4.432,1.313,11.875,1.313,11.875s0.637-7.471,1.562-11.862
	c2.537,0.562,6.39,2.081,6.39,2.081S295.625,235.602,295.026,233.068z"/>
<path style="fill:#557B8E;" d="M503.061,323.074H8.939C38.422,431.912,137.835,512,256,512
	C374.172,512,473.581,431.912,503.061,323.074z"/>
<path style="fill:#416472;" d="M35.051,385.25h441.898c2.468-4.211,4.809-8.498,7.038-12.857H28.016
	C30.242,376.752,32.586,381.039,35.051,385.25z"/>
<path style="fill:#648D9E;" d="M23.043,362.117h465.914c3.377-7.401,6.41-14.985,9.082-22.744H13.962
	C16.633,347.132,19.666,354.716,23.043,362.117z"/>
<path style="fill:#939FA7;" d="M427.242,172.637c2.761-0.562,7.25-0.967,7.25-0.967s-4.552-0.352-7.295-0.896
	c0.334-1.551,1.293-3.984,1.293-3.984s-2.341,0.924-3.895,1.271c-0.524-2.777-0.861-7.273-0.861-7.273s-0.315,4.611-0.848,7.304
	c-1.549-0.321-4.032-1.302-4.032-1.302s0.888,2.254,1.251,3.809c-2.808,0.551-7.254,0.947-7.254,0.947s4.487,0.428,7.268,1.009
	c-0.352,1.555-1.266,3.871-1.266,3.871s2.398-0.944,3.951-1.283c0.513,2.718,0.804,7.286,0.804,7.286s0.391-4.586,0.959-7.28
	c1.558,0.345,3.922,1.277,3.922,1.277S427.608,174.191,427.242,172.637z"/>
<path style="fill:#939FA7;" d="M100.759,174.561c3.796-0.773,9.969-1.33,9.969-1.33s-6.259-0.482-10.028-1.233
	c0.459-2.132,1.774-5.476,1.774-5.476s-3.216,1.268-5.354,1.748c-0.721-3.82-1.182-10.002-1.182-10.002s-0.435,6.34-1.167,10.043
	c-2.129-0.443-5.541-1.789-5.541-1.789s1.217,3.097,1.718,5.234c-3.862,0.76-9.972,1.301-9.972,1.301s6.169,0.59,9.992,1.388
	c-0.483,2.138-1.738,5.324-1.738,5.324s3.293-1.298,5.431-1.766c0.702,3.736,1.104,10.017,1.104,10.017s0.536-6.304,1.319-10.008
	c2.141,0.473,5.389,1.757,5.389,1.757S101.265,176.695,100.759,174.561z"/>
<path style="fill:#8AC8D6;" d="M421.743,60.973L190.751,75.741v36.078l293.008,27.345C468.344,109.172,447.2,82.631,421.743,60.973z
	"/>
<path style="fill:#BEE9F4;" d="M434.656,72.729L190.751,83.402v24.594l286.13,18.637C465.238,106.799,451.018,88.682,434.656,72.729
	z"/>
<rect x="204.87" y="68.336" style="fill:#C1C1C1;" width="9.228" height="50.559"/>
<rect x="204.87" y="105.316" style="fill:#A5A5A5;" width="9.228" height="9.889"/>
<path style="fill:#EFC84A;" d="M450.726,422.093c-55.19-22.831-122.994-36.308-196.324-36.308
	c-72.294,0-139.201,13.102-193.952,35.355c46.855,55.425,116.805,90.69,195.029,90.848c0.238,0,0.474,0.006,0.712,0.006
	C334.097,511.938,403.81,477.045,450.726,422.093z"/>
<path style="fill:#AA8827;" d="M221.852,454.369l-103.784,0.303l22.596,29.891c34.513,17.463,73.509,27.343,114.815,27.426
	c0.238,0,0.474,0.006,0.712,0.006c21.485-0.015,42.347-2.694,62.277-7.699L221.852,454.369z"/>
<polygon style="fill:#FFFFFF;" points="216.962,444.245 123.728,444.245 135.381,61.688 205.308,61.688 "/>
<polygon style="fill:#FFFFFF;" points="216.962,444.245 123.728,444.245 135.381,61.688 205.308,61.688 "/>
<polygon style="fill:#B23424;" points="123.728,444.245 216.962,444.245 214.979,379.131 125.71,379.131 "/>
<polygon style="fill:#B23424;" points="127.041,335.473 213.648,335.473 212.365,293.293 128.324,293.293 "/>
<polygon style="fill:#B23424;" points="129.59,251.859 211.1,251.859 209.819,209.68 130.87,209.68 "/>
<polygon style="fill:#B23424;" points="132.136,168.246 208.554,168.246 207.268,126.063 133.419,126.063 "/>
<path style="fill:#EFC84A;" d="M194.679,427.598v-46.457c0-13.44-10.892-24.332-24.336-24.332
	c-13.441,0-24.332,10.892-24.332,24.332v46.457H194.679z"/>
<path style="fill:#2893C0;" d="M189.34,419.827V383.57c0-10.49-8.507-18.996-18.997-18.996c-10.489,0-18.993,8.506-18.993,18.996
	v36.257H189.34z"/>
<path style="fill:#176E8C;" d="M170.343,364.574c-3.638,0-7.026,1.048-9.918,2.819c1.774-0.548,3.663-0.846,5.622-0.846
	c10.489,0,18.993,8.501,18.993,18.993v34.286h4.3V383.57C189.34,373.08,180.833,364.574,170.343,364.574z"/>
<path style="fill:#EFC84A;" d="M191.114,309.521v-39.653c0-11.473-9.299-20.771-20.771-20.771c-11.469,0-20.768,9.299-20.768,20.771
	v39.653H191.114z"/>
<path style="fill:#2893C0;" d="M186.556,302.893V271.94c0-8.951-7.259-16.21-16.213-16.21c-8.953,0-16.209,7.259-16.209,16.21
	v30.953H186.556z"/>
<path style="fill:#176E8C;" d="M170.343,255.73c-3.105,0-5.999,0.893-8.468,2.405c1.519-0.467,3.13-0.723,4.803-0.723
	c8.95,0,16.21,7.259,16.21,16.209v29.272h3.668V271.94C186.556,262.988,179.297,255.73,170.343,255.73z"/>
<path style="fill:#EFC84A;" d="M188.571,200.75v-34.801c0-10.066-8.158-18.228-18.229-18.228c-10.066,0-18.225,8.161-18.225,18.228
	v34.801H188.571z"/>
<path style="fill:#2893C0;" d="M184.569,194.93v-27.16c0-7.857-6.365-14.224-14.227-14.224c-7.857,0-14.226,6.366-14.226,14.224
	v27.16H184.569z"/>
<path style="fill:#176E8C;" d="M170.343,153.546c-2.724,0-5.267,0.776-7.429,2.108c1.331-0.408,2.745-0.632,4.211-0.632
	c7.857,0,14.229,6.366,14.229,14.224v25.684h3.216v-27.16C184.569,159.912,178.204,153.546,170.343,153.546z"/>
<polygon style="fill:#C1C1C1;" points="141.143,119.061 133.631,119.061 123.728,444.245 141.143,444.245 "/>
<polygon style="fill:#89231B;" points="125.71,379.131 123.728,444.245 141.143,444.245 141.143,379.131 "/>
<polygon style="fill:#89231B;" points="141.143,335.473 141.143,293.293 128.324,293.293 127.86,308.544 127.041,335.473 "/>
<polygon style="fill:#89231B;" points="141.143,209.68 130.87,209.68 130.858,210.053 129.59,251.859 141.143,251.859 "/>
<polygon style="fill:#89231B;" points="207.696,140.123 207.268,126.063 141.143,126.063 133.419,126.063 132.136,168.246 
	141.143,168.246 141.143,140.123 "/>
<rect x="149.311" y="196.172" style="fill:#176E8C;" width="41.807" height="8.509"/>
<rect x="147.276" y="304.572" style="fill:#176E8C;" width="45.878" height="8.51"/>
<path style="fill:#89231B;" d="M223.399,450.498c0,4.752-3.85,8.602-8.602,8.602h-89.352c-4.752,0-8.601-3.85-8.601-8.602l0,0
	c0-4.752,3.85-8.601,8.601-8.601h89.352C219.55,441.897,223.399,445.746,223.399,450.498L223.399,450.498z"/>
<rect x="121.741" y="124.744" style="fill:#176E8C;" width="97.198" height="9.43"/>
<polygon style="fill:#C1C1C1;" points="205.457,66.541 205.308,61.688 141.14,61.688 135.381,61.688 135.232,66.541 135.232,66.541 
	133.503,123.375 141.14,123.375 141.14,66.541 "/>
<polygon style="fill:#B23424;" points="170.784,25.803 127.298,61.688 214.059,61.688 "/>
<polygon style="fill:#89231B;" points="170.784,25.803 127.298,61.688 144.135,61.688 "/>
<g>
</g>
<g>
</g>
<g>
</g>
<g>
</g>
<g>
</g>
<g>
</g>
<g>
</g>
<g>
</g>
<g>
</g>
<g>
</g>
<g>
</g>
<g>
</g>
<g>
</g>
<g>
</g>
<g>
</g>
</svg>
