<?xml version="1.0" encoding="iso-8859-1"?>
<!-- Generator: Adobe Illustrator 17.0.0, SVG Export Plug-In . SVG Version: 6.00 Build 0)  -->
<!DOCTYPE svg PUBLIC "-//W3C//DTD SVG 1.1//EN" "http://www.w3.org/Graphics/SVG/1.1/DTD/svg11.dtd">
<svg version="1.1" id="Layer_1" xmlns="http://www.w3.org/2000/svg" xmlns:xlink="http://www.w3.org/1999/xlink" x="0px" y="0px"
	 width="512.001px" height="512px" viewBox="0 0 512.001 512" style="enable-background:new 0 0 512.001 512;" xml:space="preserve"
	>
<path id="bg_45_" style="fill:#334D5C;" d="M512.001,256.002C512.001,397.382,397.386,512,255.999,512
	C114.614,512,0,397.382,0,256.002C0,114.618,114.614,0,255.999,0C397.386,0,512.001,114.618,512.001,256.002z"/>
<path style="fill:#EFC84A;" d="M276.654,368.231c0,2.797-8.844,5.057-19.753,5.057c-10.913,0-19.756-2.26-19.756-5.057
	c0-2.792,8.843-5.055,19.756-5.055C267.81,363.177,276.654,365.44,276.654,368.231z"/>
<path style="fill:#EFC84A;" d="M256.901,347.356c-45.051,0-81.568,9.344-81.568,20.875c0,11.529,36.518,20.876,81.568,20.876
	c45.05,0,81.569-9.347,81.569-20.876C338.471,356.7,301.951,347.356,256.901,347.356z M256.901,381.663
	c-28.986,0-52.484-6.018-52.484-13.432c0-7.416,23.498-13.434,52.484-13.434c28.986,0,52.481,6.017,52.481,13.434
	C309.383,375.646,285.888,381.663,256.901,381.663z"/>
<path style="fill:#EFC84A;" d="M256.901,323.478c-96.584,0-174.874,20.035-174.874,44.754c0,24.717,78.29,44.752,174.874,44.752
	c96.581,0,174.874-20.035,174.874-44.752C431.775,343.513,353.482,323.478,256.901,323.478z M256.901,401.509
	c-71.821,0-130.039-14.896-130.039-33.277c0-18.379,58.218-33.279,130.039-33.279c71.82,0,130.039,14.9,130.039,33.279
	C386.94,386.612,328.722,401.509,256.901,401.509z"/>
<path style="fill:#E45136;" d="M359.795,176.981c0-56.649-45.916-102.562-102.572-102.562c-56.637,0-102.568,45.913-102.568,102.562
	c0,19.824,5.887,38.151,15.615,53.816l86.632,137.435l88.664-139.959C354.391,213.149,359.795,195.778,359.795,176.981z
	 M257.223,225.652c-26.866,0-48.637-21.799-48.637-48.671c0-26.88,21.77-48.654,48.637-48.654c26.882,0,48.686,21.774,48.686,48.654
	C305.908,203.854,284.104,225.652,257.223,225.652z"/>
<path style="fill:#AF3222;" d="M208.586,176.981c0-26.77,21.598-48.464,48.315-48.637v-53.92
	c-56.487,0.176-102.247,46.015-102.247,102.557c0,19.824,5.887,38.151,15.615,53.816l86.632,137.435V225.634
	C230.184,225.459,208.586,203.747,208.586,176.981z"/>
<path style="fill:none;" d="M217.172,176.985c0,21.979,17.705,39.82,39.631,40.05V136.94
	C234.877,137.17,217.172,154.993,217.172,176.985z"/>
<path style="fill:#E45136;" d="M217.172,176.985c0-21.992,17.705-39.815,39.631-40.045v-20.291
	c-33.137,0.228-59.922,27.128-59.922,60.332c0,33.191,26.785,60.122,59.922,60.348v-20.294
	C234.877,216.806,217.172,198.965,217.172,176.985z"/>
<path style="fill:#AF3222;" d="M317.607,176.981c0-33.345-27.042-60.354-60.391-60.354c-0.14,0-0.273,0.021-0.414,0.021v20.291
	c0.143,0,0.28-0.02,0.423-0.02c22.139,0,40.09,17.931,40.09,40.065c0,22.122-17.951,40.07-40.09,40.07
	c-0.143,0-0.28-0.02-0.423-0.02v20.294c0.141,0,0.274,0.021,0.414,0.021C290.565,237.351,317.607,210.311,317.607,176.981z"/>
<g>
</g>
<g>
</g>
<g>
</g>
<g>
</g>
<g>
</g>
<g>
</g>
<g>
</g>
<g>
</g>
<g>
</g>
<g>
</g>
<g>
</g>
<g>
</g>
<g>
</g>
<g>
</g>
<g>
</g>
</svg>
