<?xml version="1.0" encoding="iso-8859-1"?>
<!-- Generator: Adobe Illustrator 17.0.0, SVG Export Plug-In . SVG Version: 6.00 Build 0)  -->
<!DOCTYPE svg PUBLIC "-//W3C//DTD SVG 1.1//EN" "http://www.w3.org/Graphics/SVG/1.1/DTD/svg11.dtd">
<svg version="1.1" id="Layer_1" xmlns="http://www.w3.org/2000/svg" xmlns:xlink="http://www.w3.org/1999/xlink" x="0px" y="0px"
	 width="512px" height="512px" viewBox="0 0 512 512" style="enable-background:new 0 0 512 512;" xml:space="preserve">
<pattern  x="510.435" y="398" width="29" height="29" patternUnits="userSpaceOnUse" id="New_Pattern_Swatch_1" viewBox="0 -29 29 29" style="overflow:visible;">
	<g>
		<polygon style="fill:none;" points="0,0 29,0 29,-29 0,-29 		"/>
		<polygon style="fill:#45B39C;" points="29,0 0,0 0,-29 29,-29 		"/>
		<polygon style="opacity:0.5;fill:#5D5D5D;" points="0,-22 29,-22 29,-7 0,-7 		"/>
		<polygon style="opacity:0.5;fill:#5D5D5D;" points="22,-29 22,0 7,0 7,-29 		"/>
	</g>
</pattern>
<circle id="background_28_" style="fill:#EFC84A;" cx="256" cy="256" r="256"/>
<polygon style="fill:#256154;" points="186.88,80 325.12,80 299.521,119 207.36,119 "/>
<path style="fill:url(#New_Pattern_Swatch_1);" d="M388.435,397.867c0,18.851-15.282,34.133-34.133,34.133H157.568
	c-18.851,0-34.133-15.282-34.133-34.133V137.133c0-18.851,15.282-34.133,34.133-34.133h196.733
	c18.851,0,34.133,15.282,34.133,34.133V397.867z"/>
<polygon style="fill:url(#New_Pattern_Swatch_1);" points="210.773,153.403 246.613,103.254 186.88,79.359 174.934,103.254 "/>
<polygon style="fill:url(#New_Pattern_Swatch_1);" points="301.227,153.403 265.387,103.254 325.12,79.359 337.066,103.254 "/>
<polygon style="fill:#378F7C;" points="210.773,153.403 246.613,103.254 186.88,79.359 174.934,103.254 "/>
<polygon style="fill:#378F7C;" points="301.227,153.403 265.387,103.254 325.12,79.359 337.066,103.254 "/>
<polygon style="fill:#256154;" points="246.613,104 265.387,104 256,133.875 "/>
<rect x="249.435" y="135" style="opacity:0.5;fill:#5D5D5D;" width="11" height="298"/>
<circle style="fill:#EDEDED;" cx="256" cy="152.746" r="7.68"/>
<circle style="fill:#EDEDED;" cx="256" cy="216.746" r="7.68"/>
<circle style="fill:#EDEDED;" cx="256" cy="280.746" r="7.68"/>
<circle style="fill:#EDEDED;" cx="256" cy="344.746" r="7.68"/>
<circle style="fill:#EDEDED;" cx="256" cy="408.746" r="7.68"/>
<g>
</g>
<g>
</g>
<g>
</g>
<g>
</g>
<g>
</g>
<g>
</g>
<g>
</g>
<g>
</g>
<g>
</g>
<g>
</g>
<g>
</g>
<g>
</g>
<g>
</g>
<g>
</g>
<g>
</g>
</svg>
