<?xml version="1.0" encoding="iso-8859-1"?>
<!-- Generator: Adobe Illustrator 17.0.0, SVG Export Plug-In . SVG Version: 6.00 Build 0)  -->
<!DOCTYPE svg PUBLIC "-//W3C//DTD SVG 1.1//EN" "http://www.w3.org/Graphics/SVG/1.1/DTD/svg11.dtd">
<svg version="1.1" id="Layer_1" xmlns="http://www.w3.org/2000/svg" xmlns:xlink="http://www.w3.org/1999/xlink" x="0px" y="0px"
	 width="512px" height="512px" viewBox="0 0 512 512" style="enable-background:new 0 0 512 512;" xml:space="preserve">
<circle id="background_57_" style="fill:#334D5C;" cx="256" cy="256" r="256"/>
<g>
	<path style="fill:#233540;" d="M410.435,342.998c0,2.763-2.239,5.002-5.002,5.002H106.437c-2.763,0-5.002-2.239-5.002-5.002
		V153.002c0-2.763,2.239-5.002,5.002-5.002h298.996c2.763,0,5.002,2.24,5.002,5.002V342.998z"/>
	<path style="fill:#E27C3E;" d="M399.435,329.046c0,2.736-2.218,4.954-4.953,4.954H116.388c-2.735,0-4.953-2.217-4.953-4.954
		V162.954c0-2.736,2.218-4.954,4.953-4.954h278.094c2.735,0,4.953,2.218,4.953,4.954V329.046z"/>
	<path style="fill:#BCBFBF;" d="M256,348H70.917c0,0,3.502,17,24.012,17C109.435,365,256,365,256,365s146.565,0,161.071,0
		c20.51,0,24.012-17,24.012-17H256z"/>
	<path style="fill:#334D5C;" d="M279.435,339.5c0,0.83-0.672,1.5-1.5,1.5h-45c-0.828,0-1.5-0.67-1.5-1.5l0,0
		c0-0.829,0.672-1.5,1.5-1.5h45C278.763,338,279.435,338.671,279.435,339.5L279.435,339.5z"/>
	<path style="fill:#A6A8A8;" d="M227.487,353h56.525c2.762,0,5.002-2,5.002-5H256h-33.515C222.485,351,224.726,353,227.487,353z"/>
	<polygon style="fill:#FF8C46;" points="253.101,158 154.581,334 262.532,334 361.052,158 	"/>
	<path style="fill:#FF8C46;" d="M399.435,162.954c0-2.736-2.218-4.954-4.953-4.954h-8.163l-98.521,176h39.062l72.574-128.996
		V162.954z"/>
</g>
<g>
</g>
<g>
</g>
<g>
</g>
<g>
</g>
<g>
</g>
<g>
</g>
<g>
</g>
<g>
</g>
<g>
</g>
<g>
</g>
<g>
</g>
<g>
</g>
<g>
</g>
<g>
</g>
<g>
</g>
</svg>
