<?xml version="1.0" encoding="iso-8859-1"?>
<!-- Generator: Adobe Illustrator 17.0.0, SVG Export Plug-In . SVG Version: 6.00 Build 0)  -->
<!DOCTYPE svg PUBLIC "-//W3C//DTD SVG 1.1//EN" "http://www.w3.org/Graphics/SVG/1.1/DTD/svg11.dtd">
<svg version="1.1" id="Layer_1" xmlns="http://www.w3.org/2000/svg" xmlns:xlink="http://www.w3.org/1999/xlink" x="0px" y="0px"
	 width="512px" height="512px" viewBox="0 0 512 512" style="enable-background:new 0 0 512 512;" xml:space="preserve">
<path id="bg_40_" style="fill:#45B39C;" d="M512,256.002C512,397.382,397.387,512,256.002,512C114.615,512,0,397.382,0,256.002
	C0,114.618,114.615,0,256.002,0C397.387,0,512,114.618,512,256.002z"/>
<polygon style="fill:none;" points="246.679,129.84 170.403,142.143 170.403,385.159 246.679,372.859 246.679,371.353 "/>
<polygon style="fill:none;" points="256.014,128.336 256.002,128.336 255.992,128.336 255.992,371.353 256.002,371.355 
	256.014,371.353 "/>
<polygon style="fill:none;" points="265.324,372.859 341.6,385.159 341.6,142.143 265.324,129.84 265.324,371.353 "/>
<polygon style="fill:#FFFFFF;" points="256.014,371.353 256.002,371.355 265.324,372.859 265.324,371.353 265.324,129.84 
	256.014,128.336 "/>
<polygon style="fill:#FFFFFF;" points="255.992,128.334 255.992,128.336 256.002,128.336 "/>
<polygon style="fill:none;" points="84.729,371.353 161.093,383.668 161.093,142.143 161.093,140.65 84.729,128.334 "/>
<polygon style="fill:#FFFFFF;" points="170.403,385.159 179.65,383.668 179.65,142.143 179.65,140.65 170.403,142.143 "/>
<polygon style="fill:#FFFFFF;" points="161.093,383.668 170.341,385.159 170.341,142.143 161.093,140.65 161.093,142.143 "/>
<polygon style="fill:#FFFFFF;" points="256.014,128.334 256.002,128.336 256.014,128.336 "/>
<polygon style="fill:#FFFFFF;" points="255.992,128.336 246.679,129.84 246.679,371.353 246.679,372.859 256.002,371.355 
	255.992,371.353 "/>
<polygon style="fill:none;" points="350.913,383.668 427.277,371.353 427.277,128.334 350.913,140.65 350.913,142.143 "/>
<polygon style="fill:#FFFFFF;" points="341.665,385.159 350.913,383.668 350.913,142.143 350.913,140.65 341.665,142.143 "/>
<polygon style="fill:#FFFFFF;" points="341.6,142.143 332.354,140.65 332.354,142.143 332.354,383.668 341.6,385.159 "/>
<path style="fill:#FFFFFF;" d="M425.795,119.139l-84.162,13.577l-76.309-12.306l-7.852-1.271l-1.471-0.235l-1.469,0.235
	l-7.855,1.271l-76.306,12.306l-84.162-13.577l-10.795-1.739v10.935v243.019v7.929l7.83,1.266l77.847,12.553l7.765,1.251l1.516,0.247
	l1.514-0.247l7.764-1.251l76.352-12.314l76.352,12.314l7.763,1.251l1.516,0.247l1.516-0.247l7.765-1.251l77.845-12.553l7.828-1.266
	v-7.929V128.334v-10.935L425.795,119.139z M170.341,385.159l-9.248-1.491l-76.363-12.315V128.334l76.363,12.316l9.248,1.492V385.159
	z M341.6,385.159l-9.245-1.491l-67.03-10.809l-9.322-1.504l-9.323,1.504l-67.028,10.809l-9.247,1.491V142.143l9.247-1.492
	l67.028-10.811l9.314-1.504v-0.002l0.01,0.002l0.012-0.002v0.002l9.31,1.504l67.03,10.811l9.245,1.492V385.159z M427.277,371.353
	l-76.364,12.315l-9.248,1.491V142.143l9.248-1.492l76.364-12.316V371.353z"/>
<polygon style="fill:#45B39C;" points="170.341,385.159 84.729,371.353 84.729,128.334 170.341,142.143 "/>
<polygon style="fill:#45B39C;" points="170.341,385.159 84.729,371.353 84.729,128.334 170.341,142.143 "/>
<polygon style="fill:#6D8E5B;" points="170.403,385.159 256.014,371.353 256.014,128.334 170.403,142.143 "/>
<polygon style="fill:#A6CB95;" points="341.6,385.159 255.992,371.353 255.992,128.334 341.6,142.143 "/>
<polygon style="fill:#6D8E5B;" points="341.665,385.159 427.277,371.353 427.277,128.334 341.665,142.143 "/>
<polygon style="fill:#A6CB95;" points="170.341,385.159 84.729,371.353 84.729,128.334 170.341,142.143 "/>
<polygon style="fill:#45B39C;" points="170.341,296.719 170.341,142.143 84.729,128.334 84.729,319.285 170.097,296.611 "/>
<polygon style="fill:#32937C;" points="427.277,335.882 427.277,128.334 341.665,142.143 341.665,303.94 341.998,303.826 "/>
<polygon style="fill:#45B39C;" points="255.992,128.334 255.992,128.336 256.002,128.334 "/>
<polygon style="fill:#45B39C;" points="341.6,303.963 341.6,142.143 256.014,128.336 256.014,333.753 "/>
<polygon style="fill:#32937C;" points="256.014,344.586 255.992,344.594 255.992,371.353 256.002,371.355 256.014,371.353 "/>
<polygon style="fill:#32937C;" points="255.992,333.762 255.992,128.336 170.403,142.143 170.403,296.748 255.168,334.045 "/>
<polygon style="fill:#32937C;" points="256.014,128.334 256.002,128.334 256.014,128.336 "/>
<polygon style="fill:#32937C;" points="256.014,333.753 256.014,128.336 256.002,128.334 255.992,128.336 255.992,333.762 "/>
<polygon style="fill:#FFFFFF;" points="170.341,296.719 170.341,307.899 170.403,307.926 170.403,296.748 "/>
<polygon style="fill:#FFFFFF;" points="341.6,303.963 341.6,314.798 341.665,314.777 341.665,303.94 "/>
<polygon style="fill:#FFFFFF;" points="255.992,344.594 256.014,344.586 256.014,333.753 255.992,333.762 "/>
<polygon style="fill:#98B2CB;" points="257.086,217.172 255.992,214.766 255.992,340.265 279.822,329.73 308.815,259.238 
	292.898,243.323 "/>
<polygon style="fill:#536F87;" points="170.403,142.143 170.403,302.578 255.379,340.532 256.014,340.256 256.014,214.816 
	219.435,134.234 "/>
<polygon style="fill:#98B2CB;" points="84.729,325.281 170.104,302.444 170.341,302.552 170.341,142.143 84.729,128.334 "/>
<polygon style="fill:#B2A93B;" points="255.992,344.594 255.992,333.762 255.168,334.045 170.403,296.748 170.403,307.926 
	254.732,345.031 "/>
<polygon style="fill:#FEF976;" points="170.097,296.611 84.729,319.285 84.729,329.879 169.257,307.423 170.341,307.899 
	170.341,296.719 "/>
<polygon style="fill:#AFAFAF;" points="255.992,214.766 256.014,214.781 256.014,128.334 219.143,134.281 "/>
<polygon style="fill:#EBE7DF;" points="341.6,142.143 255.992,128.334 255.992,214.766 309.529,255.543 285.223,328.879 
	341.504,307.988 341.6,308.024 "/>
<polygon style="fill:#AFAFAF;" points="341.665,308.048 427.277,340.851 427.277,128.334 341.665,142.143 "/>
<polygon style="fill:#B2A93B;" points="341.998,303.826 341.665,303.94 341.665,314.777 341.865,314.705 427.277,346.811 
	427.277,335.882 "/>
<polygon style="fill:#FEF976;" points="256.014,221.174 303.82,259.729 277.773,326.181 290.502,321.75 316.088,256.48 
	256.014,208.028 "/>
<polygon style="fill:#B2A93B;" points="255.992,221.12 255.992,207.975 223.1,133.642 217.279,134.582 "/>
<polygon style="fill:#FEF976;" points="256.014,333.753 256.014,344.586 341.6,314.798 341.6,303.963 "/>
<polygon style="fill:#FEF976;" points="341.6,350.132 306.852,318.403 302.252,323.439 341.6,359.371 "/>
<polygon style="fill:#B2A93B;" points="397.154,376.209 413.504,373.573 341.665,350.149 341.665,359.392 "/>
<path style="fill:#E45136;" d="M226.812,228.15c0-9.421-7.641-17.056-17.057-17.056c-9.42,0-17.054,7.635-17.054,17.056
	c0,3.293,0.976,6.342,2.595,8.947l-0.114,0.003l14.52,22.846l14.867-23.269h-0.128C225.908,234.162,226.812,231.273,226.812,228.15z
	 M209.756,236.24c-4.469,0-8.09-3.624-8.09-8.09c0-4.473,3.621-8.094,8.09-8.094c4.468,0,8.092,3.621,8.092,8.094
	C217.848,232.616,214.224,236.24,209.756,236.24z"/>
<path style="fill:#E45136;" d="M400.215,175.547c0-9.42-7.637-17.055-17.055-17.055c-9.421,0-17.056,7.635-17.056,17.055
	c0,3.293,0.977,6.342,2.597,8.947l-0.113,0.003l14.519,22.847l14.866-23.27h-0.125C399.312,181.559,400.215,178.67,400.215,175.547z
	 M383.16,183.637c-4.469,0-8.09-3.624-8.09-8.09c0-4.47,3.621-8.09,8.09-8.09c4.467,0,8.093,3.62,8.093,8.09
	C391.253,180.013,387.627,183.637,383.16,183.637z"/>
<g>
</g>
<g>
</g>
<g>
</g>
<g>
</g>
<g>
</g>
<g>
</g>
<g>
</g>
<g>
</g>
<g>
</g>
<g>
</g>
<g>
</g>
<g>
</g>
<g>
</g>
<g>
</g>
<g>
</g>
</svg>
