<?xml version="1.0" encoding="iso-8859-1"?>
<!-- Generator: Adobe Illustrator 17.0.0, SVG Export Plug-In . SVG Version: 6.00 Build 0)  -->
<!DOCTYPE svg PUBLIC "-//W3C//DTD SVG 1.1//EN" "http://www.w3.org/Graphics/SVG/1.1/DTD/svg11.dtd">
<svg version="1.1" id="Layer_1" xmlns="http://www.w3.org/2000/svg" xmlns:xlink="http://www.w3.org/1999/xlink" x="0px" y="0px"
	 width="512px" height="512px" viewBox="0 0 512 512" style="enable-background:new 0 0 512 512;" xml:space="preserve">
<path id="bg_42_" style="fill:#EFC84A;" d="M512,256.002C512,397.382,397.387,512,256,512S0,397.382,0,256.002
	C0,114.619,114.613,0,256,0S512,114.619,512,256.002z"/>
<polygon style="fill:#A8842A;" points="425.182,394.807 393.036,169.785 392.566,166.502 389.586,165.055 326.636,134.535 
	326.889,138.075 327.15,141.717 320.669,138.575 320.669,138.521 320.614,138.546 320.562,138.521 320.562,138.569 260.585,167.653 
	260.585,166.76 257.072,165.055 254.356,163.738 251.641,165.055 248.128,166.76 248.128,167.653 193.479,141.154 188.154,138.569 
	188.154,138.569 188.154,138.521 188.105,138.546 188.101,138.546 188.101,138.546 188.048,138.521 188.048,138.572 
	181.565,141.717 181.824,138.075 182.077,134.535 119.127,165.055 116.147,166.502 115.676,169.785 83.534,394.807 82.019,405.385 
	91.976,401.502 172.028,370.26 248.128,399.96 252.079,401.502 254.356,402.39 256.634,401.502 260.585,399.96 336.688,370.26 
	416.741,401.502 426.697,405.385 "/>
<polygon style="fill:none;" points="171.191,341.753 171.04,343.909 247.544,373.764 247.544,130.355 247.544,127.059 
	188.571,98.466 "/>
<polygon style="fill:none;" points="344.384,341.293 344.444,341.268 326.87,95.265 326.812,95.229 326.751,95.256 344.327,341.268 
	"/>
<polygon style="fill:none;" points="181.962,95.256 181.905,95.229 181.845,95.265 164.269,341.268 164.329,341.293 
	164.386,341.268 "/>
<polygon style="fill:none;" points="320.142,98.466 261.169,127.059 261.169,130.355 261.169,373.764 337.676,343.909 
	337.522,341.753 "/>
<polygon style="fill:none;" points="351.482,344.058 434.406,376.42 399.254,130.355 333.954,98.698 351.251,340.783 "/>
<polygon style="fill:none;" points="174.759,98.698 109.462,130.355 74.31,376.42 157.23,344.058 157.466,340.783 "/>
<polygon style="fill:#FFFFFF;" points="188.571,98.466 181.962,95.256 164.386,341.268 164.329,341.293 171.04,343.909 
	171.191,341.753 "/>
<polygon style="fill:#FFFFFF;" points="157.108,345.794 157.23,344.058 74.31,376.42 109.462,130.355 174.759,98.698 
	175.042,94.717 175.318,90.844 106.484,124.218 103.222,125.799 102.709,129.39 67.557,375.452 65.901,387.023 76.79,382.774 
	164.329,348.613 161.789,347.622 "/>
<polygon style="fill:#FFFFFF;" points="181.849,95.205 181.845,95.265 181.905,95.229 "/>
<polygon style="fill:#FFFFFF;" points="181.964,95.205 181.905,95.229 181.962,95.256 "/>
<polygon style="fill:#FFFFFF;" points="181.845,95.265 174.759,98.698 157.466,340.783 157.23,344.058 164.329,341.293 
	164.269,341.268 "/>
<polygon style="fill:#FFFFFF;" points="261.169,127.059 254.368,130.355 254.368,376.42 261.169,373.764 261.169,130.355 "/>
<polygon style="fill:#FFFFFF;" points="247.544,373.764 171.04,343.909 170.885,346.053 166.868,347.622 164.329,348.613 
	247.544,381.089 247.544,376.42 "/>
<polygon style="fill:#FFFFFF;" points="188.571,98.466 247.544,127.059 247.544,126.082 251.388,124.218 254.356,122.777 
	189.093,91.139 188.768,95.69 "/>
<polygon style="fill:#FFFFFF;" points="170.885,346.053 171.04,343.909 164.329,341.293 157.23,344.058 157.108,345.794 
	161.789,347.622 164.329,348.613 166.868,347.622 "/>
<polygon style="fill:#FFFFFF;" points="174.759,98.698 181.845,95.265 181.849,95.205 181.905,95.229 181.964,95.205 
	181.962,95.256 188.571,98.466 188.768,95.69 189.093,91.139 184.823,89.065 181.905,87.648 178.987,89.065 175.318,90.844 
	175.042,94.717 "/>
<polygon style="fill:#FFFFFF;" points="344.384,341.293 351.482,344.058 351.251,340.783 333.954,98.698 326.87,95.265 
	344.444,341.268 "/>
<polygon style="fill:#FFFFFF;" points="326.749,95.205 326.751,95.256 326.812,95.229 "/>
<polygon style="fill:#FFFFFF;" points="247.544,373.764 254.348,376.42 254.348,130.355 247.544,127.059 247.544,130.355 "/>
<polygon style="fill:#FFFFFF;" points="341.848,347.622 337.828,346.053 337.676,343.909 261.169,373.764 261.169,376.42 
	261.169,381.089 344.384,348.613 "/>
<polygon style="fill:#FFFFFF;" points="261.169,126.082 261.169,127.059 320.142,98.466 319.944,95.69 319.62,91.139 
	254.356,122.777 257.325,124.218 "/>
<polygon style="fill:#FFFFFF;" points="261.169,373.764 254.368,376.42 254.368,130.355 261.169,127.059 261.169,126.082 
	257.325,124.218 254.356,122.777 251.388,124.218 247.544,126.082 247.544,127.059 254.348,130.355 254.348,376.42 247.544,373.764 
	247.544,376.42 247.544,381.089 251.864,382.774 254.356,383.748 256.849,382.774 261.169,381.089 261.169,376.42 "/>
<polygon style="fill:#FFFFFF;" points="333.954,98.698 399.254,130.355 434.406,376.42 351.482,344.058 351.605,345.794 
	346.927,347.622 344.384,348.613 431.923,382.774 442.812,387.023 441.156,375.452 406.004,129.39 405.491,125.799 402.231,124.218 
	333.395,90.844 333.671,94.717 "/>
<polygon style="fill:#FFFFFF;" points="326.868,95.205 326.812,95.229 326.87,95.265 "/>
<polygon style="fill:#FFFFFF;" points="344.327,341.268 326.751,95.256 320.142,98.466 337.522,341.753 337.676,343.909 
	344.384,341.293 "/>
<polygon style="fill:#FFFFFF;" points="320.142,98.466 326.751,95.256 326.749,95.205 326.812,95.229 326.868,95.205 326.87,95.265 
	333.954,98.698 333.671,94.717 333.395,90.844 329.73,89.065 326.812,87.648 323.894,89.065 319.62,91.139 319.944,95.69 "/>
<polygon style="fill:#FFFFFF;" points="351.605,345.794 351.482,344.058 344.384,341.293 337.676,343.909 337.828,346.053 
	341.848,347.622 344.384,348.613 346.927,347.622 "/>
<polygon style="fill:#45B39C;" points="164.386,341.268 74.31,376.42 109.462,130.355 181.964,95.205 "/>
<polygon style="fill:#45B39C;" points="344.444,341.268 254.368,376.42 254.368,130.355 326.868,95.205 "/>
<polygon style="fill:#2E826C;" points="164.269,341.268 254.348,376.42 254.348,130.355 181.849,95.205 "/>
<polygon style="fill:#2E826C;" points="434.406,376.42 399.254,130.355 326.87,95.265 326.868,95.205 326.812,95.229 
	326.749,95.205 326.751,95.256 254.368,130.355 254.368,255.671 332.906,181.386 344.327,341.268 "/>
<path style="fill:#E27C3E;" d="M313.347,119.847c0-48.276-39.131-87.407-87.41-87.407c-48.263,0-87.405,39.131-87.405,87.407
	c0,16.889,5.018,32.506,13.307,45.856l-0.571,0.018l74.398,117.096l76.209-119.263h-0.651
	C308.737,150.664,313.347,135.863,313.347,119.847z M225.937,161.317c-22.895,0-41.447-18.573-41.447-41.471
	c0-22.911,18.553-41.464,41.447-41.464c22.908,0,41.488,18.553,41.488,41.464C267.425,142.744,248.845,161.317,225.937,161.317z"/>
<path style="fill:#E8E8E8;" d="M225.933,68.414c-28.402,0-51.415,23.013-51.415,51.433c0,28.399,23.013,51.439,51.415,51.439
	c28.418,0,51.461-23.04,51.461-51.439C277.394,91.427,254.351,68.414,225.933,68.414z M225.937,161.317
	c-22.895,0-41.447-18.573-41.447-41.471c0-22.911,18.553-41.464,41.447-41.464c22.908,0,41.488,18.553,41.488,41.464
	C267.425,142.744,248.845,161.317,225.937,161.317z"/>
<g>
</g>
<g>
</g>
<g>
</g>
<g>
</g>
<g>
</g>
<g>
</g>
<g>
</g>
<g>
</g>
<g>
</g>
<g>
</g>
<g>
</g>
<g>
</g>
<g>
</g>
<g>
</g>
<g>
</g>
</svg>
