<?xml version="1.0" encoding="iso-8859-1"?>
<!-- Generator: Adobe Illustrator 17.0.0, SVG Export Plug-In . SVG Version: 6.00 Build 0)  -->
<!DOCTYPE svg PUBLIC "-//W3C//DTD SVG 1.1//EN" "http://www.w3.org/Graphics/SVG/1.1/DTD/svg11.dtd">
<svg version="1.1" id="Layer_1" xmlns="http://www.w3.org/2000/svg" xmlns:xlink="http://www.w3.org/1999/xlink" x="0px" y="0px"
	 width="512px" height="511.999px" viewBox="0 0 512 511.999" style="enable-background:new 0 0 512 511.999;" xml:space="preserve"
	>
<path id="bg_44_" style="fill:#E27C3E;" d="M436.577,74.542c100.22,99.732,100.613,261.816,0.881,362.039
	c-99.729,100.213-261.816,100.607-362.035,0.877C-24.796,337.729-25.19,175.64,74.542,75.42
	C174.269-24.795,336.359-25.19,436.577,74.542z"/>
<path style="fill:#8CC6BA;" d="M195.174,195.247c-5.246,7.062-14.412,28.834-0.687,48.047
	c13.728,19.223,28.143,28.824,26.771,55.593c-1.373,26.774-8.238,51.479,13.729,65.216c21.963,13.726,14.41,2.741,8.232-8.926
	c-6.176-11.67-3.432-28.827,13.044-39.811c16.476-10.985,34.822-34.407,36.378-54.914c1.697-22.334-2.742-29.516-19.902-42.558
	C255.578,204.859,215.081,168.488,195.174,195.247z"/>
<polygon style="fill:none;" points="247.683,136.81 170.376,149.277 170.376,395.591 247.683,383.126 247.683,381.599 "/>
<polygon style="fill:none;" points="257.144,135.289 257.132,135.289 257.122,135.289 257.122,381.599 257.132,381.602 
	257.144,381.599 "/>
<polygon style="fill:none;" points="266.584,383.126 343.889,395.591 343.889,149.277 266.584,136.81 266.584,381.599 "/>
<polygon style="fill:#FFFFFF;" points="257.144,381.599 257.132,381.602 266.584,383.126 266.584,381.599 266.584,136.81 
	257.144,135.289 "/>
<polygon style="fill:#FFFFFF;" points="257.122,135.285 257.122,135.289 257.132,135.289 "/>
<polygon style="fill:none;" points="83.541,381.599 160.938,394.079 160.938,149.277 160.938,147.767 83.541,135.285 "/>
<polygon style="fill:#FFFFFF;" points="170.376,395.591 179.745,394.079 179.745,149.277 179.745,147.767 170.376,149.277 "/>
<polygon style="fill:#FFFFFF;" points="160.938,394.079 170.309,395.591 170.309,149.277 160.938,147.767 160.938,149.277 "/>
<polygon style="fill:#FFFFFF;" points="257.144,135.285 257.132,135.289 257.144,135.289 "/>
<polygon style="fill:#FFFFFF;" points="257.122,135.289 247.683,136.81 247.683,381.599 247.683,383.126 257.132,381.602 
	257.122,381.599 "/>
<polygon style="fill:none;" points="353.327,394.079 430.724,381.599 430.724,135.285 353.327,147.767 353.327,149.277 "/>
<polygon style="fill:#FFFFFF;" points="343.956,395.591 353.327,394.079 353.327,149.277 353.327,147.767 343.956,149.277 "/>
<polygon style="fill:#FFFFFF;" points="343.889,149.277 334.52,147.767 334.52,149.277 334.52,394.079 343.889,395.591 "/>
<path style="fill:#FFFFFF;" d="M429.225,125.964l-85.304,13.764l-77.338-12.479l-7.96-1.285l-1.491-0.24l-1.489,0.24l-7.96,1.285
	l-77.339,12.479l-85.303-13.764l-10.94-1.762v11.082v246.314v8.036l7.937,1.282l78.9,12.725l7.87,1.264l1.536,0.252l1.532-0.252
	l7.868-1.264l77.388-12.482l77.388,12.482l7.868,1.264l1.533,0.252l1.535-0.252l7.87-1.264l78.901-12.725l7.935-1.282v-8.036
	V135.285v-11.082L429.225,125.964z M170.309,395.591l-9.371-1.513l-77.398-12.479V135.285l77.398,12.482l9.371,1.51V395.591z
	 M343.889,395.591l-9.369-1.513l-67.936-10.952l-9.451-1.525l-9.449,1.525l-67.938,10.952l-9.369,1.513V149.277l9.369-1.51
	l67.938-10.957l9.438-1.521v-0.004l0.011,0.004l0.012-0.004v0.004l9.439,1.521l67.936,10.957l9.369,1.51V395.591z M430.724,381.599
	l-77.397,12.479l-9.371,1.513V149.277l9.371-1.51l77.397-12.482V381.599z"/>
<polygon style="fill:#45B39C;" points="170.309,395.591 83.541,381.599 83.541,135.285 170.309,149.277 "/>
<polygon style="fill:#45B39C;" points="170.309,395.591 83.541,381.599 83.541,135.285 170.309,149.277 "/>
<polygon style="fill:#6D8E5B;" points="170.376,395.591 257.144,381.599 257.144,135.285 170.376,149.277 "/>
<polygon style="fill:#A6CB95;" points="343.889,395.591 257.122,381.599 257.122,135.285 343.889,149.277 "/>
<polygon style="fill:#2E826C;" points="343.956,395.591 430.724,381.599 430.724,135.285 343.956,149.277 "/>
<polygon style="fill:#A6CB95;" points="170.309,395.591 83.541,381.599 83.541,135.285 170.309,149.277 "/>
<polygon style="fill:#45B39C;" points="170.309,305.953 170.309,149.277 83.541,135.285 83.541,328.828 170.063,305.846 "/>
<polygon style="fill:#32937C;" points="430.724,345.646 430.724,135.285 343.956,149.277 343.956,313.275 344.293,313.153 "/>
<polygon style="fill:#45B39C;" points="257.122,135.285 257.122,135.289 257.132,135.285 "/>
<polygon style="fill:#45B39C;" points="343.889,313.292 343.889,149.277 257.144,135.289 257.144,343.49 "/>
<polygon style="fill:#32937C;" points="257.144,354.465 257.122,354.478 257.122,381.599 257.132,381.602 257.144,381.599 "/>
<polygon style="fill:#32937C;" points="257.122,343.499 257.122,135.289 170.376,149.277 170.376,305.986 256.289,343.784 "/>
<polygon style="fill:#32937C;" points="257.144,135.285 257.132,135.285 257.144,135.289 "/>
<polygon style="fill:#32937C;" points="257.144,343.49 257.144,135.289 257.132,135.285 257.122,135.289 257.122,343.499 "/>
<polygon style="fill:#FFFFFF;" points="170.309,305.953 170.309,317.288 170.376,317.314 170.376,305.986 "/>
<polygon style="fill:#FFFFFF;" points="343.889,313.292 343.889,324.277 343.956,324.253 343.956,313.275 "/>
<polygon style="fill:#FFFFFF;" points="257.122,354.478 257.144,354.465 257.144,343.49 257.122,343.499 "/>
<polygon style="fill:#2893C0;" points="258.229,225.327 257.122,222.885 257.122,350.09 281.278,339.414 310.66,267.966 
	294.53,251.831 "/>
<polygon style="fill:#536F87;" points="170.376,149.277 170.376,311.892 256.501,350.357 257.144,350.078 257.144,222.939 
	220.067,141.268 "/>
<polygon style="fill:#98B2CB;" points="83.541,334.902 170.072,311.755 170.309,311.863 170.309,149.277 83.541,135.285 "/>
<polygon style="fill:#B2A93B;" points="257.122,354.478 257.122,343.499 256.289,343.784 170.376,305.986 170.376,317.314 
	255.844,354.922 "/>
<polygon style="fill:#FEF976;" points="170.063,305.846 83.541,328.828 83.541,339.56 169.214,316.804 170.309,317.288 
	170.309,305.953 "/>
<polygon style="fill:#AFAFAF;" points="257.122,222.885 257.144,222.91 257.144,135.285 219.776,141.313 "/>
<polygon style="fill:#EBE7DF;" points="343.889,149.277 257.122,135.285 257.122,222.885 311.382,264.222 286.751,338.548 
	343.793,317.371 343.889,317.41 "/>
<polygon style="fill:#AFAFAF;" points="343.956,317.433 430.724,350.683 430.724,135.285 343.956,149.277 "/>
<polygon style="fill:#B2A93B;" points="344.293,313.153 343.956,313.275 343.956,324.253 344.157,324.185 430.724,356.726 
	430.724,345.646 "/>
<polygon style="fill:#E27C3E;" points="257.144,229.382 305.597,268.46 279.198,335.813 292.097,331.322 318.03,265.165 
	257.144,216.063 "/>
<polygon style="fill:#B2A93B;" points="257.122,229.329 257.122,216.006 223.784,140.664 217.882,141.615 "/>
<polygon style="fill:#E27C3E;" points="257.144,343.49 257.144,354.465 343.889,324.277 343.889,313.292 "/>
<polygon style="fill:#E27C3E;" points="343.889,360.083 308.673,327.931 304.01,333.037 343.889,369.452 "/>
<polygon style="fill:#B2A93B;" points="400.199,386.521 416.769,383.847 343.956,360.111 343.956,369.476 "/>
<polygon style="fill:#22353F;" points="425.28,364.605 412.964,376.974 386.358,350.499 398.673,338.126 "/>
<path style="fill:#334D5C;" d="M240.623,349.138c-43.41-43.197-43.579-113.408-0.381-156.821
	c43.196-43.407,113.408-43.579,156.819-0.374c43.41,43.193,43.578,113.408,0.382,156.812
	C354.243,392.168,284.034,392.335,240.623,349.138z"/>
<path style="fill:#EBE7DF;" d="M249.034,340.683c-38.744-38.551-38.897-101.213-0.34-139.951
	c38.551-38.744,101.215-38.896,139.957-0.341c38.742,38.554,38.892,101.216,0.342,139.954
	C350.437,379.089,287.778,379.241,249.034,340.683z"/>
<path style="fill:#9E9B95;" d="M388.651,200.391c-38.742-38.556-101.406-38.403-139.957,0.341c-1.094,1.102-2.146,2.227-3.18,3.358
	c38.764-35.093,98.666-34.039,136.162,3.278c37.643,37.462,38.844,97.671,3.522,136.596c1.289-1.166,2.555-2.37,3.795-3.619
	C427.543,301.607,427.393,238.945,388.651,200.391z"/>
<path style="fill:#334D5C;" d="M470.121,396.404l-42.009-41.939c-5.816-5.79-15.227-5.767-21.016,0.051l-3.844,3.862
	c-5.786,5.82-5.768,15.228,0.052,21.022l45.274,45.192C456.481,415.581,463.698,406.179,470.121,396.404z"/>
<path style="fill:#FFFFFF;" d="M457.132,414.31l-41.541-42.693c-1.375-1.42-3.639-1.453-5.057-0.08
	c-1.418,1.374-1.453,3.637-0.078,5.055l42.134,43.304C454.133,418.05,455.649,416.187,457.132,414.31z"/>
<path style="fill:#FFFFFF;" d="M257.444,335.816c-0.914,0-1.826-0.348-2.524-1.041c-20.882-20.785-30.372-50.547-25.391-79.624
	c0.335-1.948,2.17-3.251,4.13-2.925c1.949,0.342,3.258,2.189,2.924,4.129c-4.594,26.789,4.15,54.202,23.385,73.348
	c1.398,1.394,1.407,3.657,0.012,5.057C259.28,335.462,258.364,335.816,257.444,335.816z"/>
<path style="fill:#A6CB95;" d="M369.21,185.331l2.04,76.372l46.165,0.231c-1.951-22.465-11.527-44.393-28.764-61.544
	C382.68,194.45,376.139,189.433,369.21,185.331z"/>
<path style="fill:#FFFFFF;" d="M319.673,326.708h-82.295c1.329,1.923,2.727,3.812,4.207,5.657h78.088V326.708z"/>
<path style="fill:#A6CB95;" d="M317.712,297.648h-94.043c4.477,15.77,12.917,30.648,25.365,43.035
	c19.564,19.469,45.225,29.053,70.803,28.799L317.712,297.648z"/>
<path style="fill:#FEF976;" d="M332.488,237.681v-65.159c-3.937-0.549-7.901-0.837-11.87-0.901v66.06
	c0,6.059-1.121,10.246-3.339,12.463c-3.349,3.34-10.495,3.324-18.085,3.324h-77.816c-0.686,3.934-1.143,7.895-1.354,11.875h79.157
	c0.366,0,0.735,0,1.103,0c9.315,0,18.814-0.243,25.384-6.805C330.258,253.953,332.488,247.132,332.488,237.681z"/>
<path style="fill:#FFFFFF;" d="M224.776,301.269h120.903c14.103,0,28.687,0,28.687-19.549v-93.094
	c-2.327-1.578-4.703-3.047-7.124-4.408v97.502c0,11.207-4.363,12.427-21.562,12.427H222.725
	C223.308,296.54,224.009,298.914,224.776,301.269z"/>
<path style="fill:#FFFFFF;" d="M315.87,369.437c2.242,0.065,4.485,0.059,6.729-0.023v-71.426h-6.729V369.437z"/>
<path style="fill:#FFFFFF;" d="M416.901,257.32h-46.498v8.018h47.264C417.526,262.656,417.258,259.98,416.901,257.32z"/>
<path style="fill:#FEF976;" d="M396.728,209.516H325.81v13.874h80.048C403.245,218.576,400.197,213.936,396.728,209.516z"/>
<path style="fill:#FEF976;" d="M362.841,359.182V216.463h-10.268v147.12C356.061,362.324,359.485,360.849,362.841,359.182z"/>
<path style="fill:#FEF976;" d="M284.615,177.683c-1.521,0.555-3.028,1.157-4.525,1.793v78.246h4.525V177.683z"/>
<g>
</g>
<g>
</g>
<g>
</g>
<g>
</g>
<g>
</g>
<g>
</g>
<g>
</g>
<g>
</g>
<g>
</g>
<g>
</g>
<g>
</g>
<g>
</g>
<g>
</g>
<g>
</g>
<g>
</g>
</svg>
