<?xml version="1.0" encoding="iso-8859-1"?>
<!-- Generator: Adobe Illustrator 17.0.0, SVG Export Plug-In . SVG Version: 6.00 Build 0)  -->
<!DOCTYPE svg PUBLIC "-//W3C//DTD SVG 1.1//EN" "http://www.w3.org/Graphics/SVG/1.1/DTD/svg11.dtd">
<svg version="1.1" id="Layer_1" xmlns="http://www.w3.org/2000/svg" xmlns:xlink="http://www.w3.org/1999/xlink" x="0px" y="0px"
	 width="512px" height="512px" viewBox="0 0 512 512" style="enable-background:new 0 0 512 512;" xml:space="preserve">
<circle style="fill:#45B39C;" cx="256" cy="256" r="256"/>
<path style="fill:#334D5C;" d="M304.538,314.163v24.986h5.323c0,0,7.514-9.626,7.514-24.986H304.538z"/>
<rect x="301.26" y="312.934" style="fill:#4A6F85;" width="3.278" height="26.216"/>
<path style="fill:#E27C3E;" d="M306.585,303.103c-4.505,0-8.191,2.58-8.191,5.734s3.557,6.703,7.904,7.887l5.252,1.431
	c4.348,1.185,7.5,5.816,7.007,10.295l-6.479,58.671c-0.493,4.479-3.13,8.604-5.858,9.167c-2.727,0.562-4.96,4.157-4.96,7.987
	c0,3.83,3.686,6.963,8.193,6.963h45.056c4.506,0,8.191-3.687,8.191-8.191v-91.751c0-4.506-3.686-8.192-8.191-8.192H306.585z"/>
<path style="fill:#E27C3E;" d="M306.585,303.103c-4.505,0-8.191,2.58-8.191,5.734s3.557,6.703,7.904,7.887l5.252,1.431
	c4.348,1.185,7.5,5.816,7.007,10.295l-6.479,58.671c-0.493,4.479-3.13,8.604-5.858,9.167c-2.727,0.562-4.96,4.157-4.96,7.987
	c0,3.83,3.686,6.963,8.193,6.963h45.056c4.506,0,8.191-3.687,8.191-8.191v-91.751c0-4.506-3.686-8.192-8.191-8.192H306.585z"/>
<path style="fill:#B86532;" d="M354.509,303.103h-6.115c0.246,0.777,0.381,1.603,0.381,2.458v91.75c0,4.506-3.685,8.192-8.193,8.192
	h-39.185c0.69,3.248,4.044,5.734,8.057,5.734h45.056c4.506,0,8.191-3.687,8.191-8.191v-91.751
	C362.7,306.79,359.015,303.103,354.509,303.103z"/>
<path style="opacity:0.2;fill:#5D5D5D;" d="M354.509,303.103h-47.924c-4.505,0-8.191,2.58-8.191,5.734
	c0,1.822,1.189,3.772,3.029,5.325H362.7v-2.867C362.7,306.79,359.015,303.103,354.509,303.103z"/>
<path style="fill:#E27C3E;" d="M435.2,269.517c0,4.506-3.688,8.192-8.191,8.192h-15.976c-4.505,0-8.192-3.687-8.192-8.192v-70.042
	c0-4.504,3.688-8.191,8.192-8.191h15.976c4.504,0,8.191,3.688,8.191,8.191V269.517z"/>
<path style="fill:#FF8C46;" d="M427.009,191.283h-15.976c-4.505,0-8.192,3.688-8.192,8.191v0.042
	c0.271-0.026,0.544-0.042,0.818-0.042h15.976c4.505,0,8.192,3.688,8.192,8.193v69.998c4.125-0.414,7.373-3.92,7.373-8.149v-70.042
	C435.2,194.971,431.513,191.283,427.009,191.283z"/>
<path style="fill:#E2E6E6;" d="M84.007,104.822c-3.964-2.143-7.207-0.209-7.207,4.297v250.355c0,4.506,3.243,6.438,7.207,4.297
	l130.994-70.799c3.964-2.141,7.207-7.58,7.207-12.086v-93.18c0-4.506-3.243-9.945-7.207-12.087L84.007,104.822z"/>
<path style="fill:#E27C3E;" d="M91.545,361.612c0,3.429-2.778,6.208-6.208,6.208h-2.328c-3.429,0-6.209-2.779-6.209-6.208V106.971
	c0-3.43,2.78-6.209,6.209-6.209h2.328c3.43,0,6.208,2.779,6.208,6.209V361.612z"/>
<path style="fill:#FBFFFF;" d="M215.001,175.62L91.545,108.896v12v1.926l123.456,66.724c3.964,2.143,7.207,7.581,7.207,12.087
	v-13.926C222.208,183.201,218.965,177.762,215.001,175.62z"/>
<path style="fill:#FF8C46;" d="M83.009,114.688h2.328c3.43,0,6.208,2.779,6.208,6.208v-12v-1.926c0-3.43-2.778-6.209-6.208-6.209
	h-2.328c-3.429,0-6.209,2.779-6.209,6.209v2.148v11.777C76.8,117.468,79.58,114.688,83.009,114.688z"/>
<path style="fill:#E2E6E6;" d="M411.853,277.709c0,4.506-3.686,8.191-8.193,8.191h-32.766c-4.507,0-8.193-3.686-8.193-8.191v-86.426
	c0-4.506,3.686-8.192,8.193-8.192h32.766c4.508,0,8.193,3.686,8.193,8.192V277.709z"/>
<path style="fill:#FBFFFF;" d="M403.659,183.091h-32.766c-4.507,0-8.193,3.686-8.193,8.192v15.155c0-4.506,3.686-8.192,8.193-8.192
	h32.766c4.508,0,8.193,3.687,8.193,8.192v-15.155C411.853,186.777,408.167,183.091,403.659,183.091z"/>
<path style="fill:#334D5C;" d="M386.866,299.828c0,4.504-3.686,8.191-8.191,8.191H214.017c-4.507,0-8.193-3.688-8.193-8.191V169.165
	c0-4.506,3.687-8.192,8.193-8.192h164.658c4.505,0,8.191,3.686,8.191,8.192V299.828z"/>
<path style="fill:#486D82;" d="M378.675,160.973H214.017c-4.507,0-8.193,3.686-8.193,8.192v24.985c0-4.506,3.687-8.191,8.193-8.191
	h164.658c4.505,0,8.191,3.686,8.191,8.191v-24.985C386.866,164.659,383.18,160.973,378.675,160.973z"/>
<path style="fill:#FBFFFF;" d="M103.795,156.987c17.862,9.313,35.725,18.628,53.587,27.942c1.253,0.652,2.505,1.305,3.756,1.959
	c3.961,2.064,8.874,1.048,11.209-2.939c2.174-3.711,1.017-9.146-2.938-11.209c-17.863-9.313-35.726-18.628-53.589-27.941
	c-1.251-0.652-2.503-1.306-3.754-1.959c-3.961-2.064-8.874-1.049-11.209,2.939C98.682,149.49,99.84,154.925,103.795,156.987
	L103.795,156.987z"/>
<path style="opacity:0.2;fill:#5D5D5D;" d="M76.8,234.291v125.184v2.138c0,3.429,2.78,6.208,6.209,6.208h2.328
	c3.43,0,6.208-2.779,6.208-6.208v-1.915l114.278-61.764v1.895c0,4.504,3.687,8.191,8.193,8.191h164.658
	c4.505,0,8.191-3.688,8.191-8.191V285.9h16.793c4.508,0,8.193-3.686,8.193-8.191h15.156c4.504,0,8.191-3.687,8.191-8.192v-35.226
	H76.8z"/>
<path style="fill:#B86532;" d="M331.979,333.005c0-3.379-3.685-6.144-8.191-6.144h-5.208c0.038,0.527,0.034,1.059-0.023,1.589
	l-1.182,10.699h6.413C328.295,339.149,331.979,336.385,331.979,333.005z"/>
<path style="fill:#B86532;" d="M331.979,353.484c0-3.379-3.685-6.144-8.191-6.144h-7.318l-1.357,12.288h8.675
	C328.295,359.629,331.979,356.864,331.979,353.484z"/>
<path style="fill:#B86532;" d="M331.979,373.965c0-3.379-3.685-6.145-8.191-6.145h-9.578l-1.357,12.289h10.935
	C328.295,380.109,331.979,377.344,331.979,373.965z"/>
<g>
</g>
<g>
</g>
<g>
</g>
<g>
</g>
<g>
</g>
<g>
</g>
<g>
</g>
<g>
</g>
<g>
</g>
<g>
</g>
<g>
</g>
<g>
</g>
<g>
</g>
<g>
</g>
<g>
</g>
</svg>
