<?xml version="1.0" encoding="iso-8859-1"?>
<!-- Generator: Adobe Illustrator 17.0.0, SVG Export Plug-In . SVG Version: 6.00 Build 0)  -->
<!DOCTYPE svg PUBLIC "-//W3C//DTD SVG 1.1//EN" "http://www.w3.org/Graphics/SVG/1.1/DTD/svg11.dtd">
<svg version="1.1" id="Layer_1" xmlns="http://www.w3.org/2000/svg" xmlns:xlink="http://www.w3.org/1999/xlink" x="0px" y="0px"
	 width="512px" height="512px" viewBox="0 0 512 512" style="enable-background:new 0 0 512 512;" xml:space="preserve">
<g>
	<circle style="fill:#334D5C;" cx="256" cy="256" r="256"/>
	<path style="fill:#E4E8E8;" d="M284.87,139.967c-0.021-0.028,4.852-8.759,10.83-19.398l24.859-44.249
		c5.978-10.64,0.884-19.346-11.32-19.346h-31.066c-12.205,0-32.175,0-44.38,0h-31.066c-12.204,0-17.298,8.706-11.32,19.346
		l24.86,44.249c5.979,10.64,10.852,19.37,10.83,19.398c-0.023,0.03,9.816,0.22,22.021,0.22h13.73
		C275.054,140.186,284.894,139.997,284.87,139.967z"/>
	<path style="opacity:0.3;fill:#5D5D5D;" d="M284.87,139.967c-0.016-0.02,2.154-3.92,5.371-9.667l-89.063-73.271
		c-11.074,0.713-15.49,9.115-9.772,19.291l24.86,44.249c5.979,10.64,10.852,19.37,10.83,19.398c-0.023,0.03,9.816,0.22,22.021,0.22
		h13.73C275.054,140.186,284.894,139.997,284.87,139.967z"/>
	<path style="fill:#E4E8E8;" d="M285.038,140.186h-58.109c-4.815,6.337-98.539,130.583-98.539,201.93
		c0,73.227,73.229,71.009,73.229,71.009h54.365h54.365c0,0,73.229,2.218,73.229-71.009
		C383.577,270.77,289.853,146.523,285.038,140.186z"/>
	<path style="fill:#E4E8E8;" d="M364.835,393.153c-0.002,0-0.002,0-0.004,0c10.727-11.096,18.746-26.648,18.746-50.875
		c0-71.346-93.725-195.755-98.539-202.092h-58.109c-4.815,6.337-98.539,130.583-98.539,201.93c0,24.226,8.017,40.188,18.744,50.712
		c-0.002,0-0.004,0-0.006,0.002c-38.756,20.302-14.348,32.5-14.348,32.5h123.154h123.338
		C379.272,425.33,403.59,413.125,364.835,393.153z"/>
	<path style="fill:#348758;" d="M248.168,363.196v-14.578c-22.19-2.734-26.876-5.767-37.54-12.191l-2.338-1.342l17.993-21.455
		l6.546,4.04c5.918,3.765,10.902,4.767,15.339,5.235v-14.574c-3.328-0.641-5.747-1.357-8.413-2.055
		c-10.417-2.64-21.141-6.17-26.262-17.502c-1.075-2.506-2.539-6.435-2.539-12.045c0-4.369,1.381-19.305,16.582-28.039
		c7.992-4.565,16.195-5.296,20.632-5.577v-9.729h17.753v10.278c3.329,0.368,5.801,0.792,8.702,1.518
		c10.054,2.411,16.068,6.278,20.059,8.837l1.11,0.713l2.165,1.365l-17.838,20.925l-1.662-1.208
		c-1.568-1.141-3.017-2.215-4.633-3.158c-3.094-1.858-4.575-2.487-7.904-2.95v11.51c4.438,0.599,11.764,1.795,20.064,6.262
		c4.161,2.342,16.703,9.405,16.703,26.5c0,3.464-0.869,21.177-18.482,29.82c-6.263,3.13-11.628,4.024-18.285,4.821v14.578H248.168z
		 M265.921,322.17c2.219-0.657,3.211-1.536,4.25-3.32c0.775-1.325,0.824-2.076,0.824-2.731c0-0.475-0.18-1.107-0.404-1.78
		c-0.534-1.204-1.341-1.892-4.67-2.772V322.17z M248.168,269.382c-1.108,0.173-1.644,0.395-2.214,0.658
		c-1.546,0.775-3.391,2.416-3.391,4.121c0,0.943,0.649,1.794,1.596,2.53c0.91,0.648,1.791,1.056,4.009,1.362V269.382z"/>
	<path style="fill:#45B375;" d="M283.187,341.805c-6.567,3.282-12.559,3.995-19.552,4.852v14.412h-13.7v-14.412
		c-22.547-2.712-27.256-5.423-38.387-12.13l15.127-17.982l4.709,2.997c7.85,4.994,14.984,5.423,18.551,5.852v-18.839
		c-3.281-0.712-6.562-1.568-9.847-2.425c-10.132-2.568-19.978-5.852-24.687-16.269c-0.856-1.998-2.283-5.708-2.283-11.132
		c0-5.422,1.855-18.408,15.27-26.114c8.988-5.137,17.98-5.137,21.547-5.424v-9.274h13.7v9.705c3.425,0.428,6.993,0.854,10.417,1.711
		c10.705,2.568,16.696,6.85,20.55,9.277l-14.841,17.408c-1.569-1.141-3.141-2.282-4.852-3.28c-4.281-2.571-6.564-2.998-11.274-3.57
		v15.985c3.995,0.57,11.988,1.285,21.263,6.278c4.567,2.568,15.555,9.134,15.555,24.545
		C300.452,319.685,298.312,334.384,283.187,341.805z M249.935,266.741c-0.426,0-3.281,0.427-5.137,1.285
		c-2.283,1.142-4.566,3.424-4.566,6.135c0,1.857,1,3.283,2.283,4.282c1.998,1.427,5.139,1.855,7.42,2.283V266.741z M272.625,313.548
		c-1.14-2.711-3.708-3.566-8.99-4.852v16.412c3.425-0.858,6.422-1.714,8.42-5.139c1-1.711,1.142-2.853,1.142-3.852
		C273.196,315.262,272.909,314.405,272.625,313.548z"/>
	<path style="fill:#3D9E67;" d="M248.168,363.196v-14.578c-22.19-2.734-26.876-5.767-37.54-12.191l-2.338-1.342l17.993-21.455
		l6.546,4.04c5.918,3.765,10.902,4.767,15.339,5.235v-14.574c-3.328-0.641-5.747-1.357-8.413-2.055
		c-10.417-2.64-21.141-6.17-26.262-17.502c-1.075-2.506-2.539-6.435-2.539-12.045c0-4.369,1.381-19.305,16.582-28.039
		c7.992-4.565,16.195-5.296,20.632-5.577v-9.729h17.753v10.278c3.329,0.368,5.801,0.792,8.702,1.518
		c10.054,2.411,16.068,6.278,20.059,8.837l1.11,0.713l2.165,1.365l-17.838,20.925l-1.662-1.208
		c-1.568-1.141-3.017-2.215-4.633-3.158c-3.094-1.858-4.575-2.487-7.904-2.95v11.51c4.438,0.599,11.764,1.795,20.064,6.262
		c4.161,2.342,16.703,9.405,16.703,26.5c0,3.464-0.869,21.177-18.482,29.82c-6.263,3.13-11.628,4.024-18.285,4.821v14.578H248.168z
		 M265.921,322.17c2.219-0.657,3.211-1.536,4.25-3.32c0.775-1.325,0.824-2.076,0.824-2.731c0-0.475-0.18-1.107-0.404-1.78
		c-0.534-1.204-1.341-1.892-4.67-2.772V322.17z M248.168,269.382c-1.108,0.173-1.644,0.395-2.214,0.658
		c-1.546,0.775-3.391,2.416-3.391,4.121c0,0.943,0.649,1.794,1.596,2.53c0.91,0.648,1.791,1.056,4.009,1.362V269.382z"/>
	<path style="fill:#45B375;" d="M283.187,341.805c-6.567,3.282-12.559,3.995-19.552,4.852v14.412h-13.7v-14.412
		c-22.547-2.712-27.256-5.423-38.387-12.13l15.127-17.982l4.709,2.997c7.85,4.994,14.984,5.423,18.551,5.852v-18.839
		c-3.281-0.712-6.562-1.568-9.847-2.425c-10.132-2.568-19.978-5.852-24.687-16.269c-0.856-1.998-2.283-5.708-2.283-11.132
		c0-5.422,1.855-18.408,15.27-26.114c8.988-5.137,17.98-5.137,21.547-5.424v-9.274h13.7v9.705c3.425,0.428,6.993,0.854,10.417,1.711
		c10.705,2.568,16.696,6.85,20.55,9.277l-14.841,17.408c-1.569-1.141-3.141-2.282-4.852-3.28c-4.281-2.571-6.564-2.998-11.274-3.57
		v15.985c3.995,0.57,11.988,1.285,21.263,6.278c4.567,2.568,15.555,9.134,15.555,24.545
		C300.452,319.685,298.312,334.384,283.187,341.805z M249.935,266.741c-0.426,0-3.281,0.427-5.137,1.285
		c-2.283,1.142-4.566,3.424-4.566,6.135c0,1.857,1,3.283,2.283,4.282c1.998,1.427,5.139,1.855,7.42,2.283V266.741z M272.625,313.548
		c-1.14-2.711-3.708-3.566-8.99-4.852v16.412c3.425-0.858,6.422-1.714,8.42-5.139c1-1.711,1.142-2.853,1.142-3.852
		C273.196,315.262,272.909,314.405,272.625,313.548z"/>
	<path style="opacity:0.3;fill:#5D5D5D;" d="M128.39,342.116c0,24.226,8.017,40.188,18.744,50.712c-0.002,0-0.004,0-0.006,0.002
		c-38.756,20.302-14.348,32.5-14.348,32.5h123.154h119.148L158.864,247.448C141.87,280.401,128.39,315.061,128.39,342.116z"/>
	<path style="fill:#D8A202;" d="M295.878,151.281c13.313,0,13.313-22.189,0-22.189c-26.628,0-53.256,0-79.885,0
		c-13.313,0-13.313,22.189,0,22.189C215.993,151.281,269.25,151.281,295.878,151.281z"/>
	<g>
		<defs>
			<path id="SVGID_1_" d="M295.878,151.281c13.313,0,13.313-22.189,0-22.189c-26.628,0-53.256,0-79.885,0
				c-13.313,0-13.313,22.189,0,22.189C215.993,151.281,269.25,151.281,295.878,151.281z"/>
		</defs>
		<clipPath id="SVGID_2_">
			<use xlink:href="#SVGID_1_"  style="overflow:visible;"/>
		</clipPath>
		<polygon style="opacity:0.3;clip-path:url(#SVGID_2_);fill:#5D5D5D;" points="225.425,155.72 220.986,155.72 209.892,121.325 
			214.328,121.325 		"/>
		<polygon style="opacity:0.3;clip-path:url(#SVGID_2_);fill:#5D5D5D;" points="240.735,155.72 236.296,155.72 225.202,121.325 
			229.64,121.325 		"/>
		<polygon style="opacity:0.3;clip-path:url(#SVGID_2_);fill:#5D5D5D;" points="256.046,155.72 251.608,155.72 240.513,121.325 
			244.952,121.325 		"/>
		<polygon style="opacity:0.3;clip-path:url(#SVGID_2_);fill:#5D5D5D;" points="271.358,155.72 266.92,155.72 255.825,121.325 
			260.263,121.325 		"/>
		<polygon style="opacity:0.3;clip-path:url(#SVGID_2_);fill:#5D5D5D;" points="286.668,155.72 282.232,155.72 271.136,121.325 
			275.573,121.325 		"/>
		<polygon style="opacity:0.3;clip-path:url(#SVGID_2_);fill:#5D5D5D;" points="301.979,155.72 297.542,155.72 286.446,121.325 
			290.885,121.325 		"/>
	</g>
</g>
<g>
</g>
<g>
</g>
<g>
</g>
<g>
</g>
<g>
</g>
<g>
</g>
<g>
</g>
<g>
</g>
<g>
</g>
<g>
</g>
<g>
</g>
<g>
</g>
<g>
</g>
<g>
</g>
<g>
</g>
</svg>
