<?xml version="1.0" encoding="iso-8859-1"?>
<!-- Generator: Adobe Illustrator 17.0.0, SVG Export Plug-In . SVG Version: 6.00 Build 0)  -->
<!DOCTYPE svg PUBLIC "-//W3C//DTD SVG 1.1//EN" "http://www.w3.org/Graphics/SVG/1.1/DTD/svg11.dtd">
<svg version="1.1" id="Layer_1" xmlns="http://www.w3.org/2000/svg" xmlns:xlink="http://www.w3.org/1999/xlink" x="0px" y="0px"
	 width="512px" height="512px" viewBox="0 0 512 512" style="enable-background:new 0 0 512 512;" xml:space="preserve">
<path id="bg_17_" style="fill:#334D5C;" d="M512,256c0,141.384-114.613,256-256.002,256C114.613,512,0,397.384,0,256
	S114.613,0,255.998,0C397.387,0,512,114.616,512,256z"/>
<path style="fill:#41AAD8;" d="M389.506,76.713c-32.057-11.08-66.449,0.541-85.717,26.33c-0.441,0.586-0.859,1.188-1.285,1.78
	c-3.994,5.691-7.285,12.008-9.67,18.903c-1.977,5.724-3.209,11.526-3.791,17.3c-0.301,3.005-0.44,6.012-0.381,8.989
	c0.6,30.957,20.217,59.678,51.188,70.376c30.969,10.708,64.133,0.232,83.719-23.751c1.887-2.305,3.629-4.758,5.252-7.311
	c3.109-4.903,5.723-10.225,7.697-15.95c2.385-6.895,3.695-13.901,4.064-20.839c0.035-0.732,0.08-1.463,0.096-2.191
	C441.441,118.165,421.559,87.785,389.506,76.713z"/>
<path style="fill:#2893C0;" d="M389.506,76.713c-32.057-11.08-66.449,0.541-85.717,26.33c-0.441,0.586-0.859,1.188-1.285,1.78
	c-3.994,5.691-7.285,12.008-9.67,18.903c-1.156,3.342-2.027,6.712-2.691,10.092c0.5-2.168,1.096-4.32,1.836-6.468
	c2.037-5.884,4.852-11.281,8.264-16.138c0.357-0.506,0.717-1.019,1.092-1.521c16.449-22.016,45.818-31.939,73.188-22.483
	c27.367,9.463,44.342,35.399,43.689,62.876c-0.014,0.619-0.047,1.251-0.08,1.876c-0.312,5.923-1.432,11.907-3.465,17.794
	c-1.691,4.886-3.922,9.433-6.576,13.619c-1.387,2.179-2.873,4.264-4.486,6.237c-16.721,20.477-45.037,29.424-71.48,20.283
	c-21.969-7.596-37.24-25.81-42.072-46.914c5.002,25.762,23.211,48.227,49.799,57.412c30.969,10.708,64.133,0.232,83.719-23.751
	c1.887-2.305,3.629-4.758,5.252-7.311c3.109-4.903,5.723-10.225,7.697-15.95c2.385-6.895,3.695-13.901,4.064-20.839
	c0.035-0.732,0.08-1.463,0.096-2.191C441.441,118.165,421.559,87.785,389.506,76.713z"/>
<path style="fill:#939FA7;" d="M237.439,74.148c6.643-1.354,17.443-2.328,17.443-2.328s-10.951-0.849-17.553-2.156
	c0.807-3.736,3.111-9.587,3.111-9.587s-5.631,2.224-9.371,3.061c-1.258-6.685-2.068-17.499-2.068-17.499s-0.76,11.098-2.045,17.568
	c-3.721-0.775-9.699-3.13-9.699-3.13s2.135,5.428,3.012,9.165c-6.754,1.324-17.449,2.277-17.449,2.277s10.793,1.03,17.484,2.427
	c-0.846,3.743-3.047,9.316-3.047,9.316s5.768-2.271,9.504-3.087c1.236,6.541,1.936,17.525,1.936,17.525s0.941-11.029,2.311-17.511
	c3.746,0.827,9.434,3.072,9.434,3.072S238.322,77.889,237.439,74.148z"/>
<path style="fill:#939FA7;" d="M452,294.773c3.742-0.763,9.83-1.311,9.83-1.311s-6.17-0.477-9.889-1.215
	c0.451-2.105,1.754-5.398,1.754-5.398s-3.172,1.251-5.283,1.722c-0.709-3.764-1.164-9.856-1.164-9.856s-0.428,6.253-1.148,9.897
	c-2.1-0.438-5.465-1.763-5.465-1.763s1.201,3.055,1.691,5.16c-3.803,0.75-9.826,1.286-9.826,1.286s6.08,0.578,9.848,1.364
	c-0.475,2.11-1.713,5.246-1.713,5.246s3.246-1.277,5.352-1.739c0.699,3.686,1.092,9.874,1.092,9.874s0.531-6.211,1.299-9.861
	c2.111,0.464,5.318,1.727,5.318,1.727S452.498,296.884,452,294.773z"/>
<path style="fill:#939FA7;" d="M72.211,173.198c3.74-0.762,9.826-1.313,9.826-1.313s-6.17-0.476-9.889-1.211
	c0.453-2.105,1.754-5.398,1.754-5.398s-3.17,1.248-5.279,1.721c-0.709-3.764-1.164-9.855-1.164-9.855s-0.428,6.253-1.152,9.898
	c-2.096-0.438-5.463-1.763-5.463-1.763s1.203,3.055,1.697,5.16c-3.807,0.747-9.832,1.286-9.832,1.286s6.082,0.577,9.85,1.364
	c-0.477,2.107-1.715,5.246-1.715,5.246s3.248-1.277,5.354-1.739c0.695,3.686,1.09,9.874,1.09,9.874s0.529-6.212,1.301-9.862
	c2.107,0.465,5.314,1.727,5.314,1.727S72.709,175.307,72.211,173.198z"/>
<path style="fill:#2893C0;" d="M343.576,114.321c0,8.93-7.238,16.168-16.168,16.168c-8.93,0-16.168-7.238-16.168-16.168
	c0-8.933,7.238-16.171,16.168-16.171C336.338,98.15,343.576,105.389,343.576,114.321z"/>
<circle style="fill:#2893C0;" cx="391.841" cy="139.8" r="17.638"/>
<path style="fill:#2893C0;" d="M370.772,190.51c0,5.413-4.387,9.796-9.801,9.796c-5.41,0-9.795-4.383-9.795-9.796
	s4.385-9.796,9.795-9.796C366.385,180.714,370.772,185.097,370.772,190.51z"/>
<path style="fill:#2893C0;" d="M371.506,157.436c0,7.852-6.359,14.209-14.209,14.209c-7.846,0-14.205-6.357-14.205-14.209
	c0-7.849,6.359-14.205,14.205-14.205C365.147,143.23,371.506,149.587,371.506,157.436z"/>
<path style="fill:#2893C0;" d="M335.002,139.064c0,3.653-2.961,6.609-6.613,6.609c-3.654,0-6.613-2.956-6.613-6.609
	c0-3.656,2.959-6.613,6.613-6.613C332.041,132.451,335.002,135.408,335.002,139.064z"/>
<path style="fill:#C6B655;" d="M287,151.793c-70.844-24.479-146.859,1.2-189.441,58.189c-0.967,1.295-1.896,2.626-2.828,3.948
	c-8.832,12.565-16.111,26.536-21.379,41.771c-4.371,12.654-7.096,25.473-8.379,38.237c-0.664,6.645-0.971,13.282-0.842,19.875
	c1.324,68.417,44.686,131.883,113.127,155.539c68.445,23.656,141.74,0.5,185.027-52.5c4.172-5.103,8.027-10.517,11.605-16.156
	c6.875-10.832,12.647-22.602,17.018-35.25c5.27-15.245,8.166-30.722,8.98-46.053c0.08-1.626,0.168-3.243,0.205-4.854
	C401.791,243.414,357.842,176.277,287,151.793z"/>
<path style="fill:#FFDB64;" d="M287,151.793c-70.844-24.479-146.859,1.2-189.441,58.189c-0.967,1.295-1.896,2.626-2.828,3.948
	c-8.832,12.565-16.111,26.536-21.379,41.771c-4.371,12.654-7.096,25.473-8.379,38.237c-0.664,6.645-0.971,13.282-0.842,19.875
	c1.324,68.417,44.686,131.883,113.127,155.539c68.445,23.656,141.74,0.5,185.027-52.5c4.172-5.103,8.027-10.517,11.605-16.156
	c6.875-10.832,12.647-22.602,17.018-35.25c5.27-15.245,8.166-30.722,8.98-46.053c0.08-1.626,0.168-3.243,0.205-4.854
	C401.791,243.414,357.842,176.277,287,151.793z"/>
<path style="fill:#D7B441;" d="M287,151.793c-70.844-24.479-146.859,1.2-189.441,58.189c-0.967,1.295-1.896,2.626-2.828,3.948
	c-8.832,12.565-16.111,26.536-21.379,41.771c-2.551,7.391-4.48,14.84-5.951,22.302c1.109-4.779,2.43-9.543,4.064-14.28
	c4.502-13.009,10.713-24.937,18.254-35.665c0.795-1.131,1.59-2.263,2.418-3.37c36.355-48.658,101.264-70.585,161.748-49.683
	c60.486,20.905,98.008,78.225,96.561,138.954c-0.029,1.376-0.107,2.757-0.178,4.145c-0.691,13.093-3.168,26.307-7.664,39.324
	c-3.734,10.8-8.662,20.846-14.531,30.094c-3.057,4.817-6.348,9.438-9.912,13.795c-36.957,45.252-99.535,65.025-157.979,44.826
	c-48.555-16.787-82.301-57.04-92.982-103.683c11.062,56.93,51.303,106.583,110.059,126.893c68.445,23.656,141.74,0.5,185.027-52.5
	c4.172-5.103,8.027-10.517,11.605-16.156c6.875-10.832,12.647-22.602,17.018-35.25c5.27-15.245,8.166-30.722,8.98-46.053
	c0.08-1.626,0.168-3.243,0.205-4.854C401.791,243.414,357.842,176.277,287,151.793z"/>
<path style="fill:#E9A244;" d="M157.398,211.45c0-20.157,16.344-36.501,36.502-36.501c20.164,0,36.506,16.344,36.506,36.501
	c0,20.161-16.342,36.505-36.506,36.505C173.742,247.955,157.398,231.611,157.398,211.45z"/>
<path style="fill:#D2923C;" d="M201.258,243.193c-17.529,0-31.744-14.214-31.744-31.743c0-17.528,14.215-31.743,31.744-31.743
	c6.914,0,13.291,2.233,18.504,5.988c-6.609-6.637-15.756-10.746-25.861-10.746c-20.158,0-36.502,16.344-36.502,36.501
	c0,20.161,16.344,36.505,36.502,36.505c10.105,0,19.252-4.112,25.861-10.743C214.549,240.958,208.172,243.193,201.258,243.193z"/>
<circle style="fill:#E9A244;" cx="150.879" cy="281.851" r="26.725"/>
<path style="fill:#D2923C;" d="M156.268,305.09c-12.84,0-23.246-10.403-23.246-23.239c0-12.839,10.406-23.242,23.246-23.242
	c5.061,0,9.73,1.638,13.547,4.383c-4.842-4.859-11.535-7.863-18.934-7.863c-14.76,0-26.727,11.966-26.727,26.723
	c0,14.76,11.967,26.724,26.727,26.724c7.398,0,14.092-3.011,18.934-7.864C165.998,303.458,161.328,305.09,156.268,305.09z"/>
<path style="fill:#E9A244;" d="M236.27,387.448c0-6.122,4.963-11.083,11.082-11.083c6.119,0,11.082,4.961,11.082,11.083
	c0,6.118-4.963,11.076-11.082,11.076C241.232,398.524,236.27,393.566,236.27,387.448z"/>
<path style="fill:#D2923C;" d="M249.586,397.083c-5.322,0-9.639-4.314-9.639-9.635c0-5.324,4.316-9.639,9.639-9.639
	c2.102,0,4.031,0.676,5.617,1.813c-2.004-2.013-4.783-3.258-7.852-3.258c-6.119,0-11.082,4.961-11.082,11.083
	c0,6.118,4.963,11.076,11.082,11.076c3.068,0,5.848-1.248,7.852-3.258C253.617,396.407,251.688,397.083,249.586,397.083z"/>
<path style="fill:#E9A244;" d="M348.832,308.994c0-3.999,3.246-7.245,7.244-7.245c4.002,0,7.248,3.246,7.248,7.245
	c0,4.001-3.246,7.24-7.248,7.24C352.078,316.234,348.832,312.995,348.832,308.994z"/>
<path style="fill:#D2923C;" d="M357.535,315.294c-3.477,0-6.297-2.819-6.297-6.3c0-3.481,2.82-6.298,6.297-6.298
	c1.373,0,2.639,0.438,3.674,1.182c-1.309-1.315-3.125-2.129-5.133-2.129c-3.998,0-7.244,3.246-7.244,7.245
	c0,4.001,3.246,7.24,7.244,7.24c2.008,0,3.824-0.815,5.133-2.125C360.174,314.851,358.908,315.294,357.535,315.294z"/>
<circle style="fill:#E9A244;" cx="281.889" cy="412.176" r="7.244"/>
<path style="fill:#D2923C;" d="M283.348,418.474c-3.48,0-6.297-2.817-6.297-6.298s2.816-6.3,6.297-6.3
	c1.373,0,2.639,0.44,3.674,1.184c-1.312-1.316-3.127-2.129-5.133-2.129c-3.998,0-7.244,3.242-7.244,7.244
	c0,4.002,3.246,7.241,7.244,7.241c2.006,0,3.82-0.815,5.133-2.129C285.986,418.033,284.721,418.474,283.348,418.474z"/>
<path style="fill:#E9A244;" d="M118.592,376.788c0-4.001,3.246-7.247,7.244-7.247c4.002,0,7.248,3.246,7.248,7.247
	c0,3.999-3.246,7.241-7.248,7.241C121.838,384.029,118.592,380.787,118.592,376.788z"/>
<path style="fill:#D2923C;" d="M127.295,383.086c-3.48,0-6.297-2.816-6.297-6.298c0-3.48,2.816-6.3,6.297-6.3
	c1.373,0,2.639,0.44,3.676,1.182c-1.314-1.316-3.127-2.129-5.135-2.129c-3.998,0-7.244,3.246-7.244,7.247
	c0,3.999,3.246,7.241,7.244,7.241c2.008,0,3.82-0.815,5.135-2.129C129.934,382.643,128.668,383.086,127.295,383.086z"/>
<path style="fill:#E9A244;" d="M142.895,236.724c0-5.059,4.105-9.162,9.164-9.162c5.061,0,9.166,4.104,9.166,9.162
	c0,5.062-4.105,9.162-9.166,9.162C147,245.886,142.895,241.785,142.895,236.724z"/>
<path style="fill:#D2923C;" d="M153.906,244.691c-4.402,0-7.969-3.564-7.969-7.968c0-4.4,3.566-7.968,7.969-7.968
	c1.734,0,3.338,0.557,4.645,1.498c-1.658-1.665-3.957-2.692-6.492-2.692c-5.059,0-9.164,4.104-9.164,9.162
	c0,5.062,4.105,9.162,9.164,9.162c2.535,0,4.834-1.033,6.492-2.692C157.244,244.132,155.641,244.691,153.906,244.691z"/>
<path style="fill:#E9A244;" d="M260.572,202.402c0-5.648,4.586-10.229,10.23-10.229c5.648,0,10.23,4.58,10.23,10.229
	c0,5.648-4.582,10.228-10.23,10.228C265.158,212.63,260.572,208.05,260.572,202.402z"/>
<path style="fill:#D2923C;" d="M272.863,211.296c-4.912,0-8.897-3.979-8.897-8.894c0-4.916,3.984-8.895,8.897-8.895
	c1.935,0,3.725,0.619,5.184,1.671c-1.848-1.858-4.412-3.005-7.244-3.005c-5.645,0-10.23,4.58-10.23,10.229
	c0,5.648,4.586,10.228,10.23,10.228c2.832,0,5.396-1.155,7.244-3.008C276.588,210.674,274.799,211.296,272.863,211.296z"/>
<path style="fill:#E9A244;" d="M247.877,439.596c0-8.638,7.205-15.638,16.101-15.638c8.895,0,16.104,7,16.104,15.638
	c0,8.635-7.209,15.645-16.104,15.645C255.082,455.24,247.877,448.23,247.877,439.596z"/>
<path style="fill:#D2923C;" d="M267.221,453.203c-7.732,0-14.002-6.089-14.002-13.607c0-7.515,6.27-13.598,14.002-13.598
	c3.049,0,5.863,0.952,8.162,2.561c-2.918-2.847-6.947-4.601-11.404-4.601c-8.896,0-16.101,7-16.101,15.638
	c0,8.635,7.205,15.645,16.101,15.645c4.457,0,8.486-1.766,11.404-4.601C273.084,452.247,270.27,453.203,267.221,453.203z"/>
<path style="fill:#E9A244;" d="M341.74,268.16c0-8.638,7.209-15.644,16.102-15.644c8.895,0,16.105,7.006,16.105,15.644
	c0,8.635-7.211,15.638-16.105,15.638C348.949,283.798,341.74,276.795,341.74,268.16z"/>
<path style="fill:#D2923C;" d="M361.088,281.765c-7.736,0-14-6.089-14-13.604c0-7.519,6.264-13.604,14-13.604
	c3.049,0,5.865,0.953,8.164,2.561c-2.918-2.843-6.953-4.6-11.41-4.6c-8.893,0-16.102,7.006-16.102,15.644
	c0,8.635,7.209,15.638,16.102,15.638c4.457,0,8.492-1.763,11.41-4.601C366.953,280.809,364.137,281.765,361.088,281.765z"/>
<path style="fill:#E9A244;" d="M88.17,351.593c0-8.635,7.209-15.641,16.105-15.641c8.895,0,16.104,7.006,16.104,15.641
	c0,8.635-7.209,15.641-16.104,15.641C95.379,367.233,88.17,360.228,88.17,351.593z"/>
<path style="fill:#D2923C;" d="M107.514,365.2c-7.73,0-13.998-6.089-13.998-13.607c0-7.516,6.268-13.602,13.998-13.602
	c3.051,0,5.865,0.953,8.166,2.561c-2.918-2.84-6.945-4.6-11.404-4.6c-8.896,0-16.105,7.006-16.105,15.641
	c0,8.635,7.209,15.641,16.105,15.641c4.459,0,8.486-1.76,11.404-4.601C113.379,364.244,110.564,365.2,107.514,365.2z"/>
<path style="fill:#E9A244;" d="M233.662,326.829c0-22.319,18.098-40.411,40.42-40.411c22.318,0,40.414,18.092,40.414,40.411
	c0,22.316-18.096,40.41-40.414,40.41C251.76,367.239,233.662,349.146,233.662,326.829z"/>
<path style="fill:#D2923C;" d="M282.223,361.976c-19.412,0-35.146-15.733-35.146-35.146c0-19.417,15.734-35.147,35.146-35.147
	c7.658,0,14.721,2.471,20.49,6.625c-7.314-7.34-17.445-11.89-28.631-11.89c-22.322,0-40.42,18.092-40.42,40.411
	c0,22.316,18.098,40.41,40.42,40.41c11.186,0,21.316-4.55,28.631-11.892C296.943,359.504,289.881,361.976,282.223,361.976z"/>
<path style="fill:#E9A244;" d="M171.082,387.451c0-8.822,7.156-15.975,15.975-15.975c8.822,0,15.975,7.152,15.975,15.975
	c0,8.816-7.152,15.971-15.975,15.971C178.238,403.422,171.082,396.268,171.082,387.451z"/>
<path style="fill:#D2923C;" d="M190.275,401.341c-7.67,0-13.889-6.217-13.889-13.89c0-7.674,6.219-13.897,13.889-13.897
	c3.025,0,5.816,0.985,8.102,2.623c-2.893-2.899-6.898-4.701-11.32-4.701c-8.818,0-15.975,7.152-15.975,15.975
	c0,8.816,7.156,15.971,15.975,15.971c4.422,0,8.428-1.798,11.32-4.701C196.092,400.364,193.301,401.341,190.275,401.341z"/>
<path style="fill:#E9A244;" d="M284.502,202.649c0-8.816,7.156-15.972,15.978-15.972c8.818,0,15.971,7.155,15.971,15.972
	c0,8.819-7.152,15.974-15.971,15.974C291.658,218.623,284.502,211.469,284.502,202.649z"/>
<path style="fill:#D2923C;" d="M303.695,216.542c-7.67,0-13.889-6.22-13.889-13.893c0-7.667,6.219-13.891,13.889-13.891
	c3.025,0,5.818,0.979,8.102,2.62c-2.893-2.902-6.898-4.701-11.316-4.701c-8.822,0-15.978,7.155-15.978,15.972
	c0,8.819,7.156,15.974,15.978,15.974c4.418,0,8.424-1.798,11.316-4.701C309.514,215.565,306.721,216.542,303.695,216.542z"/>
<g>
</g>
<g>
</g>
<g>
</g>
<g>
</g>
<g>
</g>
<g>
</g>
<g>
</g>
<g>
</g>
<g>
</g>
<g>
</g>
<g>
</g>
<g>
</g>
<g>
</g>
<g>
</g>
<g>
</g>
</svg>
