<?xml version="1.0" encoding="iso-8859-1"?>
<!-- Generator: Adobe Illustrator 17.0.0, SVG Export Plug-In . SVG Version: 6.00 Build 0)  -->
<!DOCTYPE svg PUBLIC "-//W3C//DTD SVG 1.1//EN" "http://www.w3.org/Graphics/SVG/1.1/DTD/svg11.dtd">
<svg version="1.1" id="Layer_1" xmlns="http://www.w3.org/2000/svg" xmlns:xlink="http://www.w3.org/1999/xlink" x="0px" y="0px"
	 width="512px" height="512px" viewBox="0 0 512 512" style="enable-background:new 0 0 512 512;" xml:space="preserve">
<path id="bg_21_" style="fill:#334D5C;" d="M512,256.001C512,397.382,397.387,512,256.001,512C114.613,512,0,397.382,0,256.001
	C0,114.621,114.613,0,256.001,0C397.387,0,512,114.621,512,256.001z"/>
<path style="fill:#334D5C;" d="M512,256.001C512,397.382,397.387,512,256.001,512C114.613,512,0,397.382,0,256.001
	C0,114.621,114.613,0,256.001,0C397.387,0,512,114.621,512,256.001z"/>
<path style="fill:#FFDB64;" d="M1.912,286.824C17.146,413.662,125.056,512,256.001,512c128.78,0,235.31-95.107,253.29-218.899
	C338.811,256.52,162.274,256.686,1.912,286.824z"/>
<path style="fill:#E9A244;" d="M323.923,405.891c0-8.459,10.287-15.321,22.964-15.321c12.683,0,22.966,6.862,22.966,15.321
	c0,8.463-10.283,15.314-22.966,15.314C334.21,421.204,323.923,414.353,323.923,405.891z"/>
<path style="fill:#D2923C;" d="M351.516,419.209c-11.032,0-19.975-5.955-19.975-13.318c0-7.363,8.942-13.321,19.975-13.321
	c4.344,0,8.36,0.933,11.634,2.502c-4.148-2.781-9.905-4.502-16.263-4.502c-12.677,0-22.964,6.862-22.964,15.321
	c0,8.463,10.287,15.314,22.964,15.314c6.357,0,12.114-1.721,16.263-4.496C359.876,418.28,355.859,419.209,351.516,419.209z"/>
<path style="fill:#E9A244;" d="M432.45,308.638c0.81-8.421,11.707-14.269,24.324-13.054c12.625,1.212,22.204,9.024,21.394,17.451
	c-0.81,8.42-11.7,14.256-24.324,13.041C441.227,324.864,431.641,317.06,432.45,308.638z"/>
<path style="fill:#D2923C;" d="M458.642,324.534c-10.98-1.054-19.314-7.84-18.607-15.167c0.704-7.331,10.177-12.404,21.156-11.351
	c4.325,0.417,8.234,1.727,11.343,3.603c-3.863-3.162-9.431-5.428-15.759-6.035c-12.617-1.215-23.515,4.633-24.324,13.054
	c-0.81,8.423,8.776,16.227,21.394,17.439c6.328,0.61,12.225-0.554,16.62-2.921C467.054,324.409,462.967,324.948,458.642,324.534z"/>
<path style="fill:#E9A244;" d="M274.908,288.554c0-6.407,7.792-11.605,17.395-11.605c9.607,0,17.395,5.198,17.395,11.605
	c0,6.408-7.787,11.598-17.395,11.598C282.7,300.151,274.908,294.962,274.908,288.554z"/>
<path style="fill:#D2923C;" d="M295.809,298.645c-8.357,0-15.13-4.514-15.13-10.091c0-5.576,6.773-10.09,15.13-10.09
	c3.29,0,6.332,0.708,8.812,1.893c-3.143-2.102-7.504-3.409-12.318-3.409c-9.603,0-17.395,5.198-17.395,11.605
	c0,6.408,7.792,11.598,17.395,11.598c4.814,0,9.176-1.301,12.318-3.403C302.141,297.94,299.099,298.645,295.809,298.645z"/>
<path style="fill:#E9A244;" d="M218.608,433.605c0-8.462,10.288-15.322,22.965-15.322c12.683,0,22.966,6.86,22.966,15.322
	s-10.283,15.313-22.966,15.313C228.896,448.919,218.608,442.067,218.608,433.605z"/>
<path style="fill:#D2923C;" d="M246.2,446.924c-11.03,0-19.973-5.958-19.973-13.318c0-7.363,8.942-13.321,19.973-13.321
	c4.346,0,8.361,0.929,11.637,2.498c-4.149-2.778-9.906-4.499-16.264-4.499c-12.677,0-22.965,6.86-22.965,15.322
	s10.288,15.313,22.965,15.313c6.357,0,12.114-1.725,16.264-4.496C254.561,445.995,250.546,446.924,246.2,446.924z"/>
<path style="fill:#E9A244;" d="M377.645,406.257c0-13.202,16.062-23.918,35.864-23.918c19.8,0,35.856,10.716,35.856,23.918
	c0,13.212-16.057,23.928-35.856,23.928C393.707,430.185,377.645,419.469,377.645,406.257z"/>
<path style="fill:#D2923C;" d="M420.732,427.067c-17.223,0-31.184-9.315-31.184-20.811c0-11.48,13.961-20.797,31.184-20.797
	c6.791,0,13.058,1.462,18.187,3.924c-6.499-4.35-15.486-7.045-25.41-7.045c-19.802,0-35.864,10.716-35.864,23.918
	c0,13.212,16.062,23.928,35.864,23.928c9.924,0,18.911-2.691,25.41-7.045C433.79,425.605,427.523,427.067,420.732,427.067z"/>
<path style="fill:#E9A244;" d="M95.388,382.679c0-23.96,29.145-43.403,65.072-43.403c35.93,0,65.06,19.443,65.06,43.403
	c0,23.969-29.131,43.411-65.06,43.411C124.532,426.09,95.388,406.647,95.388,382.679z"/>
<path style="fill:#D2923C;" d="M173.567,420.433c-31.249,0-56.582-16.899-56.582-37.754c0-20.837,25.333-37.74,56.582-37.74
	c12.322,0,23.691,2.653,32.999,7.122c-11.79-7.895-28.099-12.785-46.106-12.785c-35.928,0-65.072,19.443-65.072,43.403
	c0,23.969,29.145,43.411,65.072,43.411c18.008,0,34.316-4.883,46.106-12.782C197.259,417.78,185.89,420.433,173.567,420.433z"/>
<path style="fill:#E9A244;" d="M34.062,316.956c-2.322-10.168,8.161-21.25,23.414-24.733c15.25-3.49,29.504,1.941,31.829,12.109
	c2.325,10.174-8.153,21.256-23.404,24.74C50.646,332.561,36.389,327.134,34.062,316.956z"/>
<path style="fill:#D2923C;" d="M70.913,325.397c-13.267,3.031-25.659-1.682-27.683-10.534c-2.02-8.843,7.091-18.482,20.357-21.513
	c5.231-1.196,10.314-1.173,14.7-0.176c-5.771-2.209-13.168-2.703-20.812-0.952c-15.253,3.483-25.736,14.565-23.414,24.733
	c2.327,10.178,16.585,15.605,31.839,12.116c7.643-1.745,14.091-5.398,18.329-9.9C80.713,321.977,76.145,324.204,70.913,325.397z"/>
<path style="fill:#D7B441;" d="M361.02,489.472L232.266,301.307c-1.434-2.254-4.423-2.912-6.676-1.477
	c-2.248,1.432-2.91,4.422-1.472,6.673l112.068,192.673C344.676,496.377,352.949,493.11,361.02,489.472z"/>
<path style="fill:#939FA7;" d="M409.79,119.871c5.479-1.12,14.395-1.924,14.395-1.924s-9.038-0.699-14.487-1.777
	c0.666-3.085,2.568-7.912,2.568-7.912s-4.646,1.832-7.734,2.525c-1.039-5.518-1.707-14.443-1.707-14.443s-0.629,9.158-1.688,14.5
	c-3.071-0.641-8.005-2.582-8.005-2.582s1.763,4.476,2.486,7.561c-5.577,1.096-14.403,1.881-14.403,1.881s8.91,0.852,14.43,2.004
	c-0.696,3.088-2.513,7.688-2.513,7.688s4.76-1.876,7.846-2.549c1.019,5.398,1.596,14.468,1.596,14.468s0.777-9.105,1.906-14.455
	c3.092,0.684,7.786,2.536,7.786,2.536S410.515,122.958,409.79,119.871z"/>
<path style="fill:#939FA7;" d="M320.623,226.292c2.972-0.607,7.809-1.042,7.809-1.042s-4.902-0.381-7.858-0.968
	c0.36-1.671,1.392-4.291,1.392-4.291s-2.519,0.995-4.195,1.37c-0.564-2.992-0.926-7.837-0.926-7.837s-0.341,4.973-0.916,7.866
	c-1.666-0.345-4.343-1.399-4.343-1.399s0.958,2.43,1.348,4.101c-3.023,0.599-7.814,1.024-7.814,1.024s4.835,0.458,7.829,1.086
	c-0.378,1.674-1.362,4.169-1.362,4.169s2.582-1.016,4.257-1.382c0.552,2.933,0.865,7.852,0.865,7.852s0.421-4.939,1.034-7.846
	c1.678,0.376,4.224,1.376,4.224,1.376S321.017,227.968,320.623,226.292z"/>
<path style="fill:#939FA7;" d="M118.833,211.98c9.242-1.888,24.272-3.243,24.272-3.243s-15.24-1.179-24.428-2.998
	c1.121-5.198,4.333-13.339,4.333-13.339s-7.837,3.091-13.043,4.258c-1.753-9.302-2.88-24.354-2.88-24.354
	s-1.059,15.444-2.845,24.448c-5.178-1.077-13.497-4.353-13.497-4.353s2.972,7.548,4.19,12.749
	c-9.402,1.85-24.287,3.175-24.287,3.175s15.024,1.435,24.335,3.376c-1.178,5.205-4.238,12.964-4.238,12.964
	s8.024-3.165,13.228-4.296c1.718,9.102,2.694,24.391,2.694,24.391s1.308-15.349,3.213-24.37c5.211,1.149,13.13,4.275,13.13,4.275
	S120.057,217.186,118.833,211.98z"/>
<path style="fill:#EBEEEF;" d="M233.066,54.14c0-2.668-2.163-4.833-4.831-4.833l0,0c-2.671,0-4.834,2.165-4.834,4.833v248.43
	c0,2.671,2.163,4.832,4.834,4.832l0,0c2.668,0,4.831-2.161,4.831-4.832V54.14z"/>
<path style="fill:#D7DADA;" d="M228.817,307.342c1.23-0.151,2.308-0.75,3.073-1.646V51.01c-0.766-0.89-1.843-1.494-3.073-1.643
	V307.342z"/>
<rect x="232.763" y="60.496" style="fill:#FFFFFF;" width="144.445" height="86.109"/>
<rect x="232.763" y="60.496" style="fill:#E45136;" width="144.445" height="7.357"/>
<rect x="232.763" y="71.778" style="fill:#E45136;" width="144.445" height="7.357"/>
<rect x="232.763" y="83.061" style="fill:#E45136;" width="144.445" height="7.357"/>
<rect x="232.763" y="94.342" style="fill:#E45136;" width="144.445" height="7.357"/>
<rect x="232.763" y="105.623" style="fill:#E45136;" width="144.445" height="7.358"/>
<rect x="232.763" y="116.904" style="fill:#E45136;" width="144.445" height="7.357"/>
<rect x="232.763" y="128.187" style="fill:#E45136;" width="144.445" height="7.357"/>
<rect x="232.763" y="139.469" style="fill:#E45136;" width="144.445" height="7.357"/>
<rect x="232.763" y="60.496" style="fill:#2893C0;" width="59.443" height="41.238"/>
<polygon style="fill:#FFFFFF;" points="237.27,61.827 238.229,63.769 240.372,64.082 238.82,65.591 239.186,67.726 237.27,66.719 
	235.352,67.726 235.718,65.591 234.167,64.082 236.311,63.769 "/>
<polygon style="fill:#FFFFFF;" points="247.292,61.827 248.251,63.769 250.395,64.082 248.843,65.591 249.209,67.726 
	247.292,66.719 245.374,67.726 245.74,65.591 244.189,64.082 246.333,63.769 "/>
<polygon style="fill:#FFFFFF;" points="257.315,61.827 258.272,63.769 260.417,64.082 258.865,65.591 259.231,67.726 
	257.315,66.719 255.396,67.726 255.763,65.591 254.212,64.082 256.355,63.769 "/>
<polygon style="fill:#FFFFFF;" points="267.337,61.827 268.295,63.769 270.44,64.082 268.888,65.591 269.254,67.726 267.337,66.719 
	265.419,67.726 265.785,65.591 264.233,64.082 266.378,63.769 "/>
<polygon style="fill:#FFFFFF;" points="277.358,61.827 278.317,63.769 280.461,64.082 278.91,65.591 279.276,67.726 277.358,66.719 
	275.441,67.726 275.808,65.591 274.256,64.082 276.4,63.769 "/>
<polygon style="fill:#FFFFFF;" points="287.381,61.827 288.34,63.769 290.483,64.082 288.933,65.591 289.299,67.726 287.381,66.719 
	285.464,67.726 285.83,65.591 284.278,64.082 286.422,63.769 "/>
<polygon style="fill:#FFFFFF;" points="237.27,76.95 238.229,78.891 240.372,79.204 238.82,80.713 239.186,82.849 237.27,81.842 
	235.352,82.849 235.718,80.713 234.167,79.204 236.311,78.891 "/>
<polygon style="fill:#FFFFFF;" points="247.292,76.95 248.251,78.891 250.395,79.204 248.843,80.713 249.209,82.849 247.292,81.842 
	245.374,82.849 245.74,80.713 244.189,79.204 246.333,78.891 "/>
<polygon style="fill:#FFFFFF;" points="257.315,76.95 258.272,78.891 260.417,79.204 258.865,80.713 259.231,82.849 257.315,81.842 
	255.396,82.849 255.763,80.713 254.212,79.204 256.355,78.891 "/>
<polygon style="fill:#FFFFFF;" points="267.337,76.95 268.295,78.891 270.44,79.204 268.888,80.713 269.254,82.849 267.337,81.842 
	265.419,82.849 265.785,80.713 264.233,79.204 266.378,78.891 "/>
<polygon style="fill:#FFFFFF;" points="277.358,76.95 278.317,78.891 280.461,79.204 278.91,80.713 279.276,82.849 277.358,81.842 
	275.441,82.849 275.808,80.713 274.256,79.204 276.4,78.891 "/>
<polygon style="fill:#FFFFFF;" points="287.381,76.95 288.34,78.891 290.483,79.204 288.933,80.713 289.299,82.849 287.381,81.842 
	285.464,82.849 285.83,80.713 284.278,79.204 286.422,78.891 "/>
<polygon style="fill:#FFFFFF;" points="237.27,92.072 238.229,94.014 240.372,94.326 238.82,95.836 239.186,97.971 237.27,96.965 
	235.352,97.971 235.718,95.836 234.167,94.326 236.311,94.014 "/>
<polygon style="fill:#FFFFFF;" points="247.292,92.072 248.251,94.014 250.395,94.326 248.843,95.836 249.209,97.971 
	247.292,96.965 245.374,97.971 245.74,95.836 244.189,94.326 246.333,94.014 "/>
<polygon style="fill:#FFFFFF;" points="257.315,92.072 258.272,94.014 260.417,94.326 258.865,95.836 259.231,97.971 
	257.315,96.965 255.396,97.971 255.763,95.836 254.212,94.326 256.355,94.014 "/>
<polygon style="fill:#FFFFFF;" points="267.337,92.072 268.295,94.014 270.44,94.326 268.888,95.836 269.254,97.971 267.337,96.965 
	265.419,97.971 265.785,95.836 264.233,94.326 266.378,94.014 "/>
<polygon style="fill:#FFFFFF;" points="277.358,92.072 278.317,94.014 280.461,94.326 278.91,95.836 279.276,97.971 277.358,96.965 
	275.441,97.971 275.808,95.836 274.256,94.326 276.4,94.014 "/>
<polygon style="fill:#FFFFFF;" points="287.381,92.072 288.34,94.014 290.483,94.326 288.933,95.836 289.299,97.971 287.381,96.965 
	285.464,97.971 285.83,95.836 284.278,94.326 286.422,94.014 "/>
<polygon style="fill:#FFFFFF;" points="242.371,69.479 243.33,71.421 245.474,71.733 243.923,73.243 244.289,75.378 242.371,74.371 
	240.454,75.378 240.82,73.243 239.269,71.733 241.413,71.421 "/>
<polygon style="fill:#FFFFFF;" points="252.394,69.479 253.352,71.421 255.496,71.733 253.945,73.243 254.311,75.378 
	252.394,74.371 250.477,75.378 250.843,73.243 249.291,71.733 251.435,71.421 "/>
<polygon style="fill:#FFFFFF;" points="262.416,69.479 263.375,71.421 265.519,71.733 263.968,73.243 264.334,75.378 
	262.416,74.371 260.499,75.378 260.865,73.243 259.314,71.733 261.457,71.421 "/>
<polygon style="fill:#FFFFFF;" points="272.439,69.479 273.397,71.421 275.541,71.733 273.989,73.243 274.355,75.378 
	272.439,74.371 270.521,75.378 270.887,73.243 269.336,71.733 271.479,71.421 "/>
<polygon style="fill:#FFFFFF;" points="282.461,69.479 283.42,71.421 285.564,71.733 284.012,73.243 284.378,75.378 282.461,74.371 
	280.543,75.378 280.909,73.243 279.358,71.733 281.502,71.421 "/>
<polygon style="fill:#FFFFFF;" points="242.371,84.876 243.33,86.817 245.474,87.13 243.923,88.64 244.289,90.774 242.371,89.768 
	240.454,90.774 240.82,88.64 239.269,87.13 241.413,86.817 "/>
<polygon style="fill:#FFFFFF;" points="252.394,84.876 253.352,86.817 255.496,87.13 253.945,88.64 254.311,90.774 252.394,89.768 
	250.477,90.774 250.843,88.64 249.291,87.13 251.435,86.817 "/>
<polygon style="fill:#FFFFFF;" points="262.416,84.876 263.375,86.817 265.519,87.13 263.968,88.64 264.334,90.774 262.416,89.768 
	260.499,90.774 260.865,88.64 259.314,87.13 261.457,86.817 "/>
<polygon style="fill:#FFFFFF;" points="272.439,84.876 273.397,86.817 275.541,87.13 273.989,88.64 274.355,90.774 272.439,89.768 
	270.521,90.774 270.887,88.64 269.336,87.13 271.479,86.817 "/>
<polygon style="fill:#FFFFFF;" points="282.461,84.876 283.42,86.817 285.564,87.13 284.012,88.64 284.378,90.774 282.461,89.768 
	280.543,90.774 280.909,88.64 279.358,87.13 281.502,86.817 "/>
<g>
</g>
<g>
</g>
<g>
</g>
<g>
</g>
<g>
</g>
<g>
</g>
<g>
</g>
<g>
</g>
<g>
</g>
<g>
</g>
<g>
</g>
<g>
</g>
<g>
</g>
<g>
</g>
<g>
</g>
</svg>
