<?xml version="1.0" encoding="iso-8859-1"?>
<!-- Generator: Adobe Illustrator 17.0.0, SVG Export Plug-In . SVG Version: 6.00 Build 0)  -->
<!DOCTYPE svg PUBLIC "-//W3C//DTD SVG 1.1//EN" "http://www.w3.org/Graphics/SVG/1.1/DTD/svg11.dtd">
<svg version="1.1" id="Layer_1" xmlns="http://www.w3.org/2000/svg" xmlns:xlink="http://www.w3.org/1999/xlink" x="0px" y="0px"
	 width="512px" height="512px" viewBox="0 0 512 512" style="enable-background:new 0 0 512 512;" xml:space="preserve">
<circle id="background_27_" style="fill:#E05B49;" cx="256" cy="256" r="256"/>
<path style="fill:#A64336;" d="M432.435,131.782c0,6.866-5.565,12.432-12.432,12.432H296.866c-6.866,0-12.432-5.565-12.432-12.432
	v-1.137c0-6.866,5.565-12.432,12.432-12.432h123.137c6.866,0,12.432,5.565,12.432,12.432V131.782z"/>
<path style="fill:#A64336;" d="M372.435,112.214c0,6.075-4.925,11-11,11h-94c-6.075,0-11-4.925-11-11l0,0c0-6.075,4.925-11,11-11h94
	C367.51,101.214,372.435,106.139,372.435,112.214L372.435,112.214z"/>
<path style="fill:#A64336;" d="M171.435,129.635c0,3.297-2.672,5.579-5.967,5.579h-60.066c-3.295,0-5.967-2.282-5.967-5.579v-0.062
	c0-3.297,2.672-6.358,5.967-6.358h60.066c3.295,0,5.967,3.062,5.967,6.358V129.635z"/>
<path style="fill:#A64336;" d="M142.435,120.214c0,2.762-2.238,5-5,5h-46c-2.762,0-5-2.238-5-5l0,0c0-2.762,2.238-5,5-5h46
	C140.196,115.214,142.435,117.452,142.435,120.214L142.435,120.214z"/>
<path style="fill:#334D5C;" d="M22.656,361.249c2.33,5.148,4.837,9.965,7.491,14.965h344.011L180.51,109.088L22.656,361.249z"/>
<path style="fill:#293E4A;" d="M214.55,376.214h267.303c2.839-5,5.499-10.525,7.967-16.047L347.613,163.833L214.55,376.214z"/>
<polygon style="fill:#293E4A;" points="179.941,108.484 185.062,197.658 227.728,231.595 215.614,284.283 239.802,357.298 
	460.974,357.09 320.458,359.364 288.54,258.283 "/>
<polygon style="fill:#334D5C;" points="289.033,258.069 323.435,300.911 323.435,229.658 342.142,227.098 347.68,163.953 "/>
<polygon style="fill:#293E4A;" points="34.307,376.214 91.196,343.896 113.8,357.603 170.316,326.848 203.958,355.939 
	238.589,367.783 242.128,376.214 "/>
<polygon style="fill:#334D5C;" points="351.929,249.284 351.786,304.558 403.114,313.052 390.67,376.214 480.555,376.214 
	416.171,355.353 427.08,304.504 364.158,289.364 "/>
<polygon style="fill:#293E4A;" points="86.998,300.911 134.257,242.819 159.066,280.29 174.255,263.793 184.554,276.876 
	172.548,254.293 162.876,266.068 133.068,235.855 "/>
<path style="fill:#235C4F;" d="M29.942,376.214c38.798,72.807,111.73,124.65,197.443,134.186c9.406,0.911,18.951,1.383,28.614,1.383
	c9.662,0,19.206-0.472,28.611-1.383c85.715-9.533,158.647-61.379,197.446-134.186H29.942z"/>
<polygon style="fill:#D8DBDB;" points="153.407,152.488 170.128,140.484 182.589,154.585 179.941,108.484 "/>
<polygon style="fill:#B3B5B5;" points="182.589,154.585 191.888,142.618 203.958,141.613 179.941,108.484 "/>
<polygon style="fill:#A38F4F;" points="270.161,405.214 286.05,405.214 282.078,347.214 274.132,347.214 "/>
<polygon style="fill:#31806F;" points="262.991,292.214 278.123,274.646 293.253,292.214 "/>
<polygon style="fill:#31806F;" points="258.425,309.214 278.118,288.849 297.814,309.214 "/>
<polygon style="fill:#31806F;" points="253.855,325.214 278.113,302.056 302.373,325.214 "/>
<polygon style="fill:#31806F;" points="249.286,343.214 278.11,317.259 306.933,343.214 "/>
<polygon style="fill:#31806F;" points="244.718,361.214 278.105,332.462 311.491,361.214 "/>
<polygon style="fill:#368C7A;" points="279.71,292.214 273.224,292.214 258.425,309.214 264.911,309.214 "/>
<polygon style="fill:#368C7A;" points="281.251,278.052 278.123,274.533 262.991,292.214 269.247,292.214 "/>
<polygon style="fill:#368C7A;" points="273.08,326.214 266.28,326.214 249.286,343.214 256.087,343.214 "/>
<polygon style="fill:#368C7A;" points="275.401,311.214 268.739,311.214 253.855,325.214 260.517,325.214 "/>
<polygon style="fill:#368C7A;" points="269.399,345.214 262.488,345.214 244.718,361.214 251.628,361.214 "/>
<g>
	<polygon style="fill:#A38F4F;" points="149.446,481.214 177.95,481.214 170.823,379.214 156.573,379.214 	"/>
	<polygon style="fill:#3EA38E;" points="136.589,274.214 163.73,242.695 190.872,274.214 	"/>
	<polygon style="fill:#3EA38E;" points="128.394,309.214 163.722,272.683 199.052,309.214 	"/>
	<polygon style="fill:#3EA38E;" points="120.198,338.214 163.714,296.669 207.233,338.214 	"/>
	<polygon style="fill:#3EA38E;" points="112.005,370.214 163.708,323.652 215.409,370.214 	"/>
	<polygon style="fill:#3EA38E;" points="103.808,399.214 163.698,347.641 223.589,399.214 	"/>
	<polygon style="fill:#48BDA4;" points="176.987,317.214 197.151,338.214 207.233,338.214 187.066,317.214 	"/>
	<polygon style="fill:#48BDA4;" points="169.267,286.214 189.743,309.214 199.052,309.214 178.575,286.214 	"/>
	<polygon style="fill:#48BDA4;" points="199.001,379.214 187.823,379.214 212.409,399.214 223.589,399.214 	"/>
	<polygon style="fill:#48BDA4;" points="179.071,346.214 204.724,370.214 215.409,370.214 189.762,346.214 	"/>
	<polygon style="fill:#48BDA4;" points="163.73,252.322 182.585,274.214 190.872,274.214 163.73,242.695 136.589,274.214 
		144.878,274.214 	"/>
	<polygon style="fill:#48BDA4;" points="158.179,286.214 148.866,286.214 128.394,309.214 137.698,309.214 	"/>
	<polygon style="fill:#48BDA4;" points="139.575,379.214 128.396,379.214 103.808,399.214 114.987,399.214 	"/>
	<polygon style="fill:#48BDA4;" points="148.342,346.214 137.653,346.214 112.005,370.214 122.691,370.214 	"/>
	<polygon style="fill:#48BDA4;" points="150.441,317.214 140.362,317.214 120.198,338.214 130.278,338.214 	"/>
</g>
<polygon style="fill:#A38F4F;" points="358.53,448.214 375.25,448.214 371.069,388.214 362.708,388.214 "/>
<polygon style="fill:#358A77;" points="350.987,328.214 366.908,309.727 382.83,328.214 "/>
<polygon style="fill:#358A77;" points="346.18,347.214 366.903,325.785 387.628,347.214 "/>
<polygon style="fill:#358A77;" points="341.372,364.214 366.899,339.846 392.425,364.214 "/>
<polygon style="fill:#358A77;" points="336.566,383.214 366.896,355.903 397.226,383.214 "/>
<polygon style="fill:#358A77;" points="331.759,401.214 366.89,370.96 402.022,401.214 "/>
<polygon style="fill:#3D9E88;" points="375.632,350.214 389.573,364.214 392.425,364.214 378.483,350.214 "/>
<polygon style="fill:#3D9E88;" points="370.939,332.214 385.099,347.214 387.628,347.214 373.468,332.214 "/>
<polygon style="fill:#3D9E88;" points="381.715,386.214 398.717,401.214 402.022,401.214 385.022,386.214 "/>
<polygon style="fill:#3D9E88;" points="377.862,367.214 394.12,383.214 397.226,383.214 380.965,367.214 "/>
<polygon style="fill:#3D9E88;" points="368.239,313.72 380.722,328.214 382.83,328.214 366.908,309.727 350.987,328.214 
	355.757,328.214 "/>
<polygon style="fill:#3D9E88;" points="354.728,386.214 348.759,386.214 331.759,401.214 337.727,401.214 "/>
<polygon style="fill:#3D9E88;" points="358.589,367.214 352.825,367.214 336.566,383.214 342.33,383.214 "/>
<polygon style="fill:#3D9E88;" points="365.532,332.214 360.339,332.214 346.18,347.214 351.373,347.214 "/>
<polygon style="fill:#3D9E88;" points="360.827,350.214 355.314,350.214 341.372,364.214 346.887,364.214 "/>
<polygon style="fill:#A38F4F;" points="433.848,416.214 443.246,416.214 440.897,382.214 436.196,382.214 "/>
<polygon style="fill:#31806F;" points="458.296,390.214 447.037,380.214 455.599,380.214 443.486,369.214 452.901,369.214 
	442.747,359.214 450.205,359.214 440.829,349.214 447.508,349.214 438.558,338.822 429.608,349.214 436.28,349.214 426.906,359.214 
	434.358,359.214 424.203,369.214 433.613,369.214 421.501,380.214 430.058,380.214 418.798,390.214 "/>
<polygon style="fill:#399480;" points="438.703,351.214 435.108,351.214 426.906,359.214 430.501,359.214 "/>
<polygon style="fill:#399480;" points="440.291,341.22 438.558,339.015 429.608,349.214 433.075,349.214 "/>
<polygon style="fill:#399480;" points="432.481,381.214 428.649,381.214 418.798,390.214 422.629,390.214 "/>
<polygon style="fill:#399480;" points="436.037,370.214 432.268,370.214 421.501,380.214 425.271,380.214 "/>
<polygon style="fill:#399480;" points="436.781,361.214 433.088,361.214 424.203,369.214 427.897,369.214 "/>
<g>
	<polygon style="fill:#A38F4F;" points="63.911,403.214 74.712,403.214 72.012,365.214 66.612,365.214 	"/>
	<polygon style="fill:#296B5D;" points="91.998,374.214 76.142,360.214 88.899,360.214 77.53,350.214 85.802,350.214 
		73.284,338.214 82.703,338.214 72.802,328.214 79.605,328.214 69.323,316.275 59.042,328.214 65.842,328.214 55.938,338.214 
		65.349,338.214 52.833,350.214 61.101,350.214 49.729,360.214 62.48,360.214 46.625,374.214 	"/>
	<polygon style="fill:#31806F;" points="70.962,329.214 64.191,329.214 55.938,338.214 62.708,338.214 	"/>
	<polygon style="fill:#31806F;" points="72.618,320.028 69.323,316.239 59.042,328.214 65.632,328.214 	"/>
	<polygon style="fill:#31806F;" points="66.22,351.214 59.205,351.214 49.729,360.214 56.745,360.214 	"/>
	<polygon style="fill:#31806F;" points="70.468,339.214 63.56,339.214 52.833,350.214 59.741,350.214 	"/>
	<polygon style="fill:#31806F;" points="67.601,362.214 60.498,362.214 46.625,374.214 53.727,374.214 	"/>
</g>
<path style="fill:#B09A55;" d="M318.29,415.575c-23.522,23.52-80.951,11.149-65.703,52.962c6.006,16.473,1.691,31.247-5.816,43.181
	c3.628,0.153,7.27,0.268,10.936,0.268c25.807,0,50.705-3.848,74.192-10.949c-7.988-14.664-17.817-28.284-29.077-35.21
	c-31.573-19.424,28.938-21.238,40.422-50.252c8.191-20.695-13.256-34.36-26.233-39.36h-19.343
	C309.602,381.214,337.026,396.843,318.29,415.575z"/>
<g>
</g>
<g>
</g>
<g>
</g>
<g>
</g>
<g>
</g>
<g>
</g>
<g>
</g>
<g>
</g>
<g>
</g>
<g>
</g>
<g>
</g>
<g>
</g>
<g>
</g>
<g>
</g>
<g>
</g>
</svg>
