<?xml version="1.0" encoding="iso-8859-1"?>
<!-- Generator: Adobe Illustrator 17.0.0, SVG Export Plug-In . SVG Version: 6.00 Build 0)  -->
<!DOCTYPE svg PUBLIC "-//W3C//DTD SVG 1.1//EN" "http://www.w3.org/Graphics/SVG/1.1/DTD/svg11.dtd">
<svg version="1.1" id="Layer_1" xmlns="http://www.w3.org/2000/svg" xmlns:xlink="http://www.w3.org/1999/xlink" x="0px" y="0px"
	 width="512px" height="512px" viewBox="0 0 512 512" style="enable-background:new 0 0 512 512;" xml:space="preserve">
<circle id="background_77_" style="fill:#EFC84A;" cx="256" cy="256" r="256"/>
<path style="fill:#E27C3E;" d="M398.435,324.762c0,12.4-8.855,23.238-21.255,23.238h-242.36c-12.399,0-23.385-10.838-23.385-23.238
	V181h287V324.762z"/>
<path style="fill:#ECF0F0;" d="M399.726,179c0,7.543-8.016,14-17.809,14H130.083c-9.793,0-17.809-6.457-17.809-14
	c0-7.544,8.016-14,17.809-14h251.834C391.71,165,399.726,171.456,399.726,179z"/>
<path style="fill:#DADEDE;" d="M316.308,336.787c-37.501,0-68.012-30.51-68.012-68.01c0-37.504,30.511-68.012,68.012-68.012
	c37.502,0,68.012,30.508,68.012,68.012C384.319,306.277,353.81,336.787,316.308,336.787z"/>
<path style="fill:#ECF0F0;" d="M316.308,333.404c-35.637,0-64.628-28.992-64.628-64.627c0-35.639,28.991-64.631,64.628-64.631
	c35.637,0,64.631,28.992,64.631,64.631C380.938,304.412,351.944,333.404,316.308,333.404z"/>
<circle style="fill:#DADEDE;" cx="316.309" cy="268.777" r="45.466"/>
<path style="fill:#E27C3E;" d="M316.308,310.859c-23.205,0-42.082-18.878-42.082-42.082c0-23.207,18.877-42.086,42.082-42.086
	c23.205,0,42.086,18.879,42.086,42.086C358.394,291.981,339.513,310.859,316.308,310.859z"/>
<path style="fill:#D0D4D4;" d="M318.435,274.085c0,1.887,0.619,3.429,2.5,3.429c1.887,0,2.5-1.542,2.5-3.429V269h-5V274.085z"/>
<path style="fill:#ECF0F0;" d="M320.935,260.038c-1.881,0-2.5,1.542-2.5,3.425V269h5v-5.537
	C323.435,261.58,322.821,260.038,320.935,260.038z"/>
<path style="fill:#D0D4D4;" d="M328.435,274.085c0,1.887,0.617,3.429,2.5,3.429c1.887,0,2.5-1.542,2.5-3.429V269h-5V274.085z"/>
<path style="fill:#ECF0F0;" d="M330.935,260.038c-1.883,0-2.5,1.542-2.5,3.425V269h5v-5.537
	C333.435,261.58,332.821,260.038,330.935,260.038z"/>
<path style="fill:#ECF0F0;" d="M297.435,262.182V269h16.502c-0.007,0-0.416-1.34-1.227-1.81l-11.453-6.664
	c-0.457-0.265-1.327-0.422-1.718-0.43C298.553,260.084,297.435,260.837,297.435,262.182z"/>
<path style="fill:#D0D4D4;" d="M312.715,270.615c0.821-0.473,1.228,0.385,1.222-1.615h-16.502v6.398
	c0,1.347,1.118,2.123,2.102,2.115c0.389-0.01,1.042-0.081,1.499-0.347L312.715,270.615z"/>
<path style="fill:#CED1D1;" d="M369.435,265.618V269h8.724c-0.003,0-0.193-0.73-0.568-0.951l-5.316-3.146
	c-0.213-0.123-1.149-0.222-1.33-0.226C370.484,264.672,369.435,264.993,369.435,265.618z"/>
<path style="fill:#A5A8A8;" d="M377.591,269.643c0.381-0.223,0.57-0.643,0.567-0.643h-8.724v2.75c0,0.627,1.05,0.986,1.507,0.983
	c0.18-0.005,0.751,0.018,0.964-0.106L377.591,269.643z"/>
<path style="fill:#CED1D1;" d="M364.435,265.618V269h7.969c-0.002,0-0.193-0.73-0.57-0.951l-5.312-3.146
	c-0.214-0.123-0.773-0.222-0.953-0.226C365.108,264.672,364.435,264.993,364.435,265.618z"/>
<path style="fill:#A5A8A8;" d="M371.837,269.643c0.379-0.223,0.57-0.643,0.566-0.643h-7.969v2.75c0,0.627,0.674,0.986,1.129,0.983
	c0.182-0.005,0.562,0.018,0.777-0.106L371.837,269.643z"/>
<path style="fill:#CED1D1;" d="M260.435,265.618V269h-6.127c0.004,0,0.193-0.73,0.57-0.951l5.315-3.146
	c0.212-0.123-0.15-0.222,0.029-0.226C260.682,264.672,260.435,264.993,260.435,265.618z"/>
<path style="fill:#A5A8A8;" d="M254.876,269.643c-0.381-0.223-0.571-0.643-0.568-0.643h6.127v2.75c0,0.627,0.247,0.986-0.21,0.983
	c-0.18-0.005-0.101,0.018-0.312-0.106L254.876,269.643z"/>
<path style="fill:#CED1D1;" d="M267.435,265.618V269h-7.371c0.003,0,0.193-0.73,0.568-0.951l5.314-3.146
	c0.213-0.123,0.472-0.222,0.655-0.226C267.058,264.672,267.435,264.993,267.435,265.618z"/>
<path style="fill:#A5A8A8;" d="M260.63,269.643c-0.38-0.223-0.57-0.643-0.566-0.643h7.371v2.75c0,0.627-0.377,0.986-0.833,0.983
	c-0.181-0.005-0.411,0.018-0.625-0.106L260.63,269.643z"/>
<path style="fill:#CED1D1;" d="M324.088,215.065c0-1.235-1.002-2.065-2.238-2.065h-11.084c-1.236,0-2.238,0.83-2.238,2.065
	c0,0.036,0.004-0.065,0.005-0.065h15.551C324.084,215,324.088,215.102,324.088,215.065z"/>
<path style="fill:#A5A8A8;" d="M308.532,215c0.057,1,1.033,2,2.233,2h11.084c1.2,0,2.177-1,2.233-2H308.532z"/>
<path style="fill:#CED1D1;" d="M321.853,322h-3.419v-3.454c0-1.235-0.945-2.237-2.182-2.237c-0.035,0,0.139,0.003,0.104,0.005
	c-1.187,0.056-1.922,1.032-1.922,2.232V322h-3.665c-1.236,0-2.238,1.33-2.238,2.565c0,0.036,0.004,0.435,0.005,0.435h5.537h2.132
	h2.345h5.537c0.001,0,0.005-0.398,0.005-0.435C324.092,323.33,323.09,322,321.853,322z"/>
<path style="fill:#A5A8A8;" d="M318.55,325h-2.345h-2.132h-5.537c0.057,1,1.033,2,2.233,2h3.665v2.631
	c0,1.199,0.764,2.177,1.951,2.232c0.035,0.002-0.078,0.006-0.042,0.006c1.236,0,2.091-1.002,2.091-2.238V327h3.419
	c1.2,0,2.177-1,2.233-2H318.55z"/>
<path style="fill:#334D5C;" d="M294.435,179c0,2.762-2.238,5-5,5h-104c-2.762,0-5-2.238-5-5l0,0c0-2.762,2.238-5,5-5h104
	C292.196,174,294.435,176.238,294.435,179L294.435,179z"/>
<ellipse style="fill:#334D5C;" cx="153.982" cy="178.182" rx="6.051" ry="3.832"/>
<g>
</g>
<g>
</g>
<g>
</g>
<g>
</g>
<g>
</g>
<g>
</g>
<g>
</g>
<g>
</g>
<g>
</g>
<g>
</g>
<g>
</g>
<g>
</g>
<g>
</g>
<g>
</g>
<g>
</g>
</svg>
