<?xml version="1.0" encoding="iso-8859-1"?>
<!-- Generator: Adobe Illustrator 17.0.0, SVG Export Plug-In . SVG Version: 6.00 Build 0)  -->
<!DOCTYPE svg PUBLIC "-//W3C//DTD SVG 1.1//EN" "http://www.w3.org/Graphics/SVG/1.1/DTD/svg11.dtd">
<svg version="1.1" id="Layer_1" xmlns="http://www.w3.org/2000/svg" xmlns:xlink="http://www.w3.org/1999/xlink" x="0px" y="0px"
	 width="512px" height="512px" viewBox="0 0 512 512" style="enable-background:new 0 0 512 512;" xml:space="preserve">
<circle id="background_58_" style="fill:#ECF0F0;" cx="256" cy="256" r="256"/>
<g>
	<path style="fill:#233540;" d="M355.435,170.947c0,1.322-0.776,3.053-2.096,3.053h-3.754c-1.32,0-2.15-1.731-2.15-3.053v-49.831
		c0-1.321,0.83-2.116,2.15-2.116h3.754c1.319,0,2.096,0.795,2.096,2.116V170.947z"/>
	<path style="fill:#233540;" d="M355.435,261.399c0,1.322-0.776,2.601-2.096,2.601h-3.754c-1.32,0-2.15-1.278-2.15-2.601v-49.83
		c0-1.322,0.83-1.569,2.15-1.569h3.754c1.319,0,2.096,0.248,2.096,1.569V261.399z"/>
	<path style="fill:#EFC84A;" d="M352.435,421.562c0,1.346-1.092,2.438-2.439,2.438H158.873c-1.347,0-2.438-1.092-2.438-2.438V90.438
		c0-1.346,1.092-2.438,2.438-2.438h191.123c1.347,0,2.439,1.091,2.439,2.438V421.562z"/>
	<path style="fill:#233540;" d="M340.435,398.372c0,6.732-5.526,12.628-12.26,12.628H180.189c-6.733,0-11.754-5.896-11.754-12.628
		V112.146c0-6.734,5.02-12.146,11.754-12.146h147.986c6.733,0,12.26,5.411,12.26,12.146V398.372z"/>
	<path style="fill:#334D5C;" d="M328.435,379.178c0,6.529-5.292,11.822-11.82,11.822H192.255c-6.528,0-11.82-5.293-11.82-11.822
		V132.823c0-6.53,5.292-11.823,11.82-11.823h124.359c6.528,0,11.82,5.293,11.82,11.823V379.178z"/>
	<g>
		<path style="fill:#ECF0F0;" d="M243.849,111.822c0.279,0.172,0.689,0.315,1.119,0.315c0.639,0,1.012-0.337,1.012-0.825
			c0-0.451-0.258-0.71-0.912-0.961c-0.787-0.279-1.275-0.688-1.275-1.37c0-0.753,0.623-1.312,1.562-1.312
			c0.496,0,0.854,0.114,1.068,0.236l-0.172,0.509c-0.156-0.086-0.48-0.229-0.918-0.229c-0.658,0-0.91,0.395-0.91,0.725
			c0,0.452,0.295,0.674,0.961,0.933c0.818,0.315,1.234,0.71,1.234,1.42c0,0.745-0.553,1.391-1.693,1.391
			c-0.467,0-0.975-0.136-1.234-0.308L243.849,111.822z"/>
		<path style="fill:#ECF0F0;" d="M251.601,110.115c0,1.664-1.01,2.546-2.244,2.546c-1.277,0-2.174-0.99-2.174-2.453
			c0-1.534,0.955-2.538,2.246-2.538C250.747,107.67,251.601,108.681,251.601,110.115z M247.851,110.194
			c0,1.032,0.559,1.957,1.541,1.957c0.99,0,1.549-0.91,1.549-2.008c0-0.961-0.502-1.965-1.541-1.965
			C248.366,108.179,247.851,109.133,247.851,110.194z"/>
		<path style="fill:#ECF0F0;" d="M252.411,107.748h0.625v2.331h0.021c0.129-0.187,0.258-0.358,0.379-0.517l1.479-1.814h0.773
			l-1.75,2.052l1.887,2.782h-0.738l-1.592-2.374l-0.459,0.531v1.843h-0.625V107.748z"/>
		<path style="fill:#ECF0F0;" d="M256.921,107.748v4.834h-0.623v-4.834H256.921z"/>
		<path style="fill:#ECF0F0;" d="M258.794,111.062l-0.502,1.521h-0.646l1.643-4.834h0.752l1.65,4.834h-0.668l-0.516-1.521H258.794z
			 M260.378,110.574l-0.473-1.392c-0.107-0.315-0.18-0.603-0.252-0.882h-0.014c-0.072,0.287-0.15,0.581-0.244,0.875l-0.473,1.398
			H260.378z"/>
	</g>
	
		<rect x="251.256" y="394.087" transform="matrix(0.7069 0.7073 -0.7073 0.7069 354.7452 -63.1843)" style="fill:#ECF0F0;" width="4.708" height="4.708"/>
	
		<rect x="255.251" y="398.084" transform="matrix(0.7069 0.7073 -0.7073 0.7069 358.7425 -64.8381)" style="fill:#ECF0F0;" width="4.708" height="4.707"/>
	
		<rect x="247.261" y="398.083" transform="matrix(0.7071 0.7071 -0.7071 0.7071 356.2627 -59.2193)" style="fill:#ECF0F0;" width="4.709" height="4.708"/>
	
		<rect x="251.257" y="402.079" transform="matrix(0.7071 0.7071 -0.7071 0.7071 360.2578 -60.8741)" style="fill:#ECF0F0;" width="4.707" height="4.708"/>
	<path style="opacity:0.1;fill:#D4D4D4;" d="M349.177,88H158.044c-1.346,0-1.609,1.17-1.609,2.515v0.295L298.714,425h50.463
		c1.345,0,3.258-2.17,3.258-3.517V90.515C352.435,89.17,350.522,88,349.177,88z"/>
</g>
<g>
</g>
<g>
</g>
<g>
</g>
<g>
</g>
<g>
</g>
<g>
</g>
<g>
</g>
<g>
</g>
<g>
</g>
<g>
</g>
<g>
</g>
<g>
</g>
<g>
</g>
<g>
</g>
<g>
</g>
</svg>
