<?xml version="1.0" encoding="iso-8859-1"?>
<!-- Generator: Adobe Illustrator 17.0.0, SVG Export Plug-In . SVG Version: 6.00 Build 0)  -->
<!DOCTYPE svg PUBLIC "-//W3C//DTD SVG 1.1//EN" "http://www.w3.org/Graphics/SVG/1.1/DTD/svg11.dtd">
<svg version="1.1" id="Layer_1" xmlns="http://www.w3.org/2000/svg" xmlns:xlink="http://www.w3.org/1999/xlink" x="0px" y="0px"
	 width="512px" height="512px" viewBox="0 0 512 512" style="enable-background:new 0 0 512 512;" xml:space="preserve">
<g>
	<circle id="background_24_" style="fill:#334D5C;" cx="256" cy="256" r="256"/>
	<path style="fill:#D69898;" d="M115.584,270.441c-0.22,0.542,0.405-0.932-0.052,0.111c-0.312,0.709-0.645,1.408-0.983,2.107
		c-1.171,2.417-2.508,4.751-3.96,7.01c-3.18,4.945-7.536,10.092-13.561,11.3c-0.513,0.102-1.074,0.062-1.594,0.047
		c0.757,0.023-0.621-0.246,0.177,0.093c-0.418-0.178,0.062,0.421-0.403-0.409c-0.258-0.461-0.376-2.572-0.308-4.164
		c0.205-4.766,1.35-9.492,2.108-14.188c1.362-8.425,3.177-20.68-6.705-24.558c-4.38-1.719-10.411-0.596-13.764,2.668
		c-3.296,3.209-3.49,8.396-3.098,12.667c0.438,4.773,1.634,9.433,2.354,14.161c0.219,1.435,0.313,3.576,0.133,4.487
		c-0.186,0.933-0.021,0.455-0.307,0.741c0.207-0.207-0.158-0.047-1.283-0.075c-4.206-0.108-3.995-5.927-5.008-8.893
		c-2.084-6.099-7.366-8.454-13.502-8.583c-4.607-0.096-4.598,7.045,0,7.141c6.084,0.127,6.664,3.281,7.944,8.418
		c1.365,5.479,4.918,8.595,10.565,9.058c11.718,0.961,8.53-13.577,7.221-20.408c-0.771-4.022-1.908-8.647-0.596-12.664
		c0.882-2.694,5.884-2.823,8.13-1.421c2.221,1.387,1.938,6.76,1.737,9.637c-0.35,5.006-1.471,9.938-2.256,14.885
		c-0.672,4.23-1.708,9.416-0.033,13.55c2.14,5.281,7.543,5.698,12.462,4.165c10.55-3.285,17.562-15.316,21.463-24.982
		C124.193,268.066,117.283,266.228,115.584,270.441L115.584,270.441z"/>
	<path style="opacity:0.3;fill:#5D5D5D;" d="M115.584,270.441c-0.22,0.542,0.405-0.932-0.052,0.111
		c-0.312,0.709-0.645,1.408-0.983,2.107c-1.171,2.417-2.508,4.751-3.96,7.01c-3.18,4.945-7.536,10.092-13.561,11.3
		c-0.513,0.102-1.074,0.062-1.594,0.047c0.757,0.023-0.621-0.246,0.177,0.093c-0.418-0.178,0.062,0.421-0.403-0.409
		c-0.258-0.461-0.376-2.572-0.308-4.164c0.205-4.766,1.35-9.492,2.108-14.188c1.362-8.425,3.177-20.68-6.705-24.558
		c-4.38-1.719-10.411-0.596-13.764,2.668c-3.296,3.209-3.49,8.396-3.098,12.667c0.438,4.773,1.634,9.433,2.354,14.161
		c0.219,1.435,0.313,3.576,0.133,4.487c-0.186,0.933-0.021,0.455-0.307,0.741c0.207-0.207-0.158-0.047-1.283-0.075
		c-4.206-0.108-3.995-5.927-5.008-8.893c-2.084-6.099-7.366-8.454-13.502-8.583c-4.607-0.096-4.598,7.045,0,7.141
		c6.084,0.127,6.664,3.281,7.944,8.418c1.365,5.479,4.918,8.595,10.565,9.058c11.718,0.961,8.53-13.577,7.221-20.408
		c-0.771-4.022-1.908-8.647-0.596-12.664c0.882-2.694,5.884-2.823,8.13-1.421c2.221,1.387,1.938,6.76,1.737,9.637
		c-0.35,5.006-1.471,9.938-2.256,14.885c-0.672,4.23-1.708,9.416-0.033,13.55c2.14,5.281,7.543,5.698,12.462,4.165
		c10.55-3.285,17.562-15.316,21.463-24.982C124.193,268.066,117.283,266.228,115.584,270.441L115.584,270.441z"/>
	<path style="fill:#EF9898;" d="M111.644,278.328c0-72.674,64.074-131.59,143.113-131.59c17.848,0,34.927,3.013,50.682,8.5
		c8.46-14.678,23.471-34.486,42.615-33.82c25.868,0.898,21.677,59.308,19.895,76.391c13.457,15.971,23.001,34.863,27.321,55.47
		c0.871,0.171,1.743,0.365,2.612,0.608c18.532,5.17,29.378,24.875,24.101,43.79l-11.045,39.595
		c-5.276,18.915-24.757,30.161-43.289,24.99c-0.706-0.197-1.397-0.422-2.081-0.66c-6.883,7.735-14.707,14.734-23.309,20.854
		l5.982,14.591c2.979,7.269-0.528,15.651-7.796,18.632l-29.733,12.189c-7.267,2.98-15.651-0.529-18.631-7.797l-5.503-13.42
		c-10.234,2.136-20.884,3.27-31.821,3.27c-11.913,0-23.482-1.348-34.547-3.869l-5.748,14.02
		c-2.979,7.268-11.364,10.776-18.632,7.797l-29.731-12.189c-7.268-2.98-10.776-11.363-7.797-18.632l6.665-16.255
		C132.45,356.669,111.644,319.736,111.644,278.328z"/>
	<circle style="fill:#694242;" cx="360.885" cy="235.477" r="12.643"/>
	<path style="fill:#996060;" d="M281.56,177.329c-7.447-4.651-16.361-7.341-26.043-7.465c-6.815-0.087-13.511,1.703-19.877,3.995
		c-1.093,0.393-2.17,0.828-3.244,1.268c1.315-0.537-1.436,0.68-1.825,0.863c-0.884,0.42-1.764,0.859-2.617,1.339
		c-9.098,5.116-17.246-8.851-8.16-13.96c21.331-11.994,48.814-13.186,69.928,0C298.539,168.877,290.43,182.869,281.56,177.329
		L281.56,177.329z"/>
	<path style="fill:#694242;" d="M227.953,177.329c-5.146,2.894-9.985-0.317-11.576-4.579c0.594-1.413,1.694-2.699,3.416-3.668
		c21.331-11.994,48.814-13.187,69.928,0c1.655,1.034,2.715,2.369,3.284,3.816c-1.548,4.373-6.368,7.602-11.445,4.431
		c-7.447-4.651-16.361-7.341-26.043-7.465c-6.815-0.087-13.511,1.703-19.877,3.995c-1.02,0.367-2.025,0.771-3.029,1.182
		c0.718-0.283-1.679,0.778-2.04,0.949C229.687,176.41,228.807,176.85,227.953,177.329z"/>
	
		<ellipse transform="matrix(-0.9684 -0.2494 0.2494 -0.9684 711.9473 717.6123)" style="fill:#21313B;" cx="401.44" cy="313.698" rx="7.498" ry="23.387"/>
	
		<ellipse transform="matrix(-0.9684 -0.2494 0.2494 -0.9684 711.9473 717.6123)" style="fill:#996060;" cx="401.44" cy="313.698" rx="7.498" ry="23.387"/>
	<path style="fill:#694242;" d="M404.485,291.744c1.068,4.514,0.615,12.055-1.497,20.254c-2.531,9.828-6.692,17.672-10.305,20.084
		c-1.068-4.514-0.616-12.055,1.496-20.254C396.711,302.001,400.873,294.156,404.485,291.744z"/>
	<path style="fill:#694242;" d="M351.646,160.914c-4.339-3.441-7.759-4.101-10.409-3.425c2.015-8.694,6.176-22.392,12.227-21.331
		c6.058,1.062,7.192,24.079,7.31,38.37C359.295,169.793,356.573,164.82,351.646,160.914z"/>
	<path style="fill:#996060;" d="M353.464,136.158c2.921,0.513,4.694,6.132,5.765,13.411c-0.814-1.534-1.775-2.501-2.908-2.7
		c-3.933-0.689-7.066,4.855-9.332,11.209c-2.226-0.912-4.133-1.002-5.751-0.589C343.252,148.795,347.413,135.098,353.464,136.158z"
		/>
	<path style="opacity:0.3;fill:#5D5D5D;" d="M111.644,278.328c0-37.385,16.958-71.127,44.185-95.084l177.636,235.295l-22.752,9.328
		c-7.267,2.98-15.651-0.529-18.631-7.797l-5.503-13.42c-10.234,2.136-20.884,3.27-31.821,3.27c-11.913,0-23.482-1.348-34.547-3.869
		l-5.748,14.02c-2.979,7.268-11.364,10.776-18.632,7.797l-29.731-12.189c-7.268-2.98-10.776-11.363-7.797-18.632l6.665-16.255
		C132.45,356.669,111.644,319.736,111.644,278.328z"/>
	<circle style="fill:#F3C42C;" cx="254.691" cy="82.637" r="42.338"/>
	<path style="fill:#FFCE2E;" d="M254.691,120.93c-21.114,0-38.292-17.178-38.292-38.293c0-21.114,17.178-38.293,38.292-38.293
		c21.115,0,38.293,17.179,38.293,38.293C292.983,103.752,275.806,120.93,254.691,120.93z"/>
	<path style="fill:#CC9902;" d="M254.691,119.58c-20.37,0-36.943-16.572-36.943-36.943s16.573-36.944,36.943-36.944
		c20.372,0,36.944,16.573,36.944,36.944S275.062,119.58,254.691,119.58z"/>
	<path style="fill:#D8A202;" d="M254.691,117.604c-19.28,0-34.967-15.686-34.967-34.967c0-19.28,15.687-34.967,34.967-34.967
		c19.281,0,34.967,15.687,34.967,34.967C289.657,101.918,273.972,117.604,254.691,117.604z"/>
	<path style="fill:#FFCE2E;" d="M254.691,114.188c-17.398,0-31.55-14.153-31.55-31.551c0-17.397,14.152-31.551,31.55-31.551
		c17.397,0,31.552,14.153,31.552,31.551C286.242,100.034,272.088,114.188,254.691,114.188z"/>
	<path style="fill:#F3C42C;" d="M254.691,112.391c-16.405,0-29.753-13.348-29.753-29.754c0-16.406,13.348-29.754,29.753-29.754
		c16.407,0,29.754,13.348,29.754,29.754C284.444,99.043,271.098,112.391,254.691,112.391z"/>
	<path style="fill:#CC9902;" d="M262.173,65.399v34.163c0,0.453-0.398,0.85-0.851,0.85h-10.084c-0.453,0-0.851-0.396-0.851-0.85
		V74.068h-2.492c-0.397,0-0.736-0.342-0.681-0.737l0.964-8.044c0.056-0.396,0.453-0.737,0.851-0.737h12.293
		C261.775,64.55,262.173,64.947,262.173,65.399z"/>
	<polygon style="fill:#D8A202;" points="251.724,99.086 251.724,72.929 248.648,72.929 249.463,66.188 260.893,66.188 
		260.893,99.086 	"/>
	<path style="opacity:0.4;fill:#ECF0F0;" d="M297.028,82.637c0-23.383-18.955-42.338-42.338-42.338
		c-9.213,0-17.74,2.945-24.689,7.943l53.609,65.312C291.866,105.829,297.028,94.837,297.028,82.637z"/>
</g>
<g>
</g>
<g>
</g>
<g>
</g>
<g>
</g>
<g>
</g>
<g>
</g>
<g>
</g>
<g>
</g>
<g>
</g>
<g>
</g>
<g>
</g>
<g>
</g>
<g>
</g>
<g>
</g>
<g>
</g>
</svg>
