<?xml version="1.0" encoding="iso-8859-1"?>
<!-- Generator: Adobe Illustrator 17.0.0, SVG Export Plug-In . SVG Version: 6.00 Build 0)  -->
<!DOCTYPE svg PUBLIC "-//W3C//DTD SVG 1.1//EN" "http://www.w3.org/Graphics/SVG/1.1/DTD/svg11.dtd">
<svg version="1.1" id="Layer_1" xmlns="http://www.w3.org/2000/svg" xmlns:xlink="http://www.w3.org/1999/xlink" x="0px" y="0px"
	 width="512px" height="512px" viewBox="0 0 512 512" style="enable-background:new 0 0 512 512;" xml:space="preserve">
<circle id="background_91_" style="fill:#E27C3E;" cx="256" cy="256" r="256"/>
<path style="fill:#CFE9FC;" d="M438.021,334.782c0,0,13.436-17.942,13.436-78.639c0-60.698-13.42-78.782-13.42-78.782
	c9.338-6.997,21.019-44.364,13.43-50.562c-7.586-6.197-36.754,6.781-36.754,6.781c-28.016-12.839-77.012,0-77.012,0
	c-43.771-12.839-81.654-3.502-81.654-3.502s-37.936-9.337-81.709,3.502c0,0-49.023-12.839-77.039,0c0,0-29.182-12.979-36.768-6.781
	c-7.587,6.197,4.087,43.565,13.424,50.562c0,0-13.424,18.084-13.424,78.782c0,60.696,13.436,78.639,13.436,78.639
	c-9.34,6.997-21.013,44.22-13.425,50.418c7.589,6.196,36.767-6.782,36.767-6.782c28.016,12.841,77.035,0,77.035,0
	c43.773,12.841,81.703,3.503,81.703,3.503s37.875,9.338,81.647-3.503c0,0,48.969,12.841,76.984,0c0,0,29.18,12.979,36.766,6.782
	C459.032,379.002,447.36,341.779,438.021,334.782z"/>
<path style="fill:#D9ECFC;" d="M451.444,375.861c-7.586,6.197-36.766-6.78-36.766-6.78c-28.016,12.84-76.984,0-76.984,0
	c-43.772,12.84-81.647,3.501-81.647,3.501s-37.93,9.339-81.703-3.501c0,0-49.02,12.84-77.035,0c0,0-29.178,12.978-36.767,6.78
	c-1.031-0.842-1.703-2.261-2.078-4.096c-0.802,6.311-0.345,11.455,2.078,13.435c7.589,6.196,36.767-6.782,36.767-6.782
	c28.016,12.841,77.035,0,77.035,0c43.773,12.841,81.703,3.503,81.703,3.503s37.875,9.338,81.647-3.503c0,0,48.969,12.841,76.984,0
	c0,0,29.18,12.979,36.766,6.782c2.422-1.979,2.881-7.123,2.079-13.435C453.148,373.6,452.476,375.02,451.444,375.861z"/>
<path style="fill:#D9ECFC;" d="M60.531,136.139c7.587-6.198,36.768,6.781,36.768,6.781c28.016-12.841,77.039,0,77.039,0
	c43.773-12.841,81.709-3.502,81.709-3.502s37.883-9.339,81.654,3.502c0,0,48.996-12.841,77.012,0c0,0,29.168-12.98,36.754-6.781
	c1.033,0.844,1.705,2.267,2.078,4.109c0.801-6.322,0.342-11.471-2.078-13.448c-7.586-6.197-36.754,6.781-36.754,6.781
	c-28.016-12.839-77.012,0-77.012,0c-43.771-12.839-81.654-3.502-81.654-3.502s-37.936-9.337-81.709,3.502
	c0,0-49.023-12.839-77.039,0c0,0-29.182-12.979-36.768-6.781c-2.42,1.978-2.878,7.128-2.079,13.451
	C58.827,138.407,59.5,136.982,60.531,136.139z"/>
<path style="fill:#D9ECFC;" d="M438.038,186.698c0,0,12.725,17.158,13.391,74.113c0.018-1.529,0.029-3.081,0.029-4.668
	c0-41.734-6.344-63.323-10.309-72.739C440.104,184.811,439.058,185.935,438.038,186.698z"/>
<path style="fill:#D9ECFC;" d="M438.021,344.121c6.357,4.762,13.792,23.528,15.502,36.982c2.075-10.185-5.142-33.294-12.378-43.015
	C439.339,342.363,438.021,344.121,438.021,344.121z"/>
<path style="fill:#D9ECFC;" d="M60.562,260.811c0.667-56.955,13.393-74.113,13.393-74.113c-1.018-0.764-2.065-1.888-3.112-3.294
	c-3.965,9.416-10.311,31.005-10.311,72.739C60.531,257.73,60.543,259.282,60.562,260.811z"/>
<path style="fill:#D9ECFC;" d="M73.968,344.121c0,0-1.316-1.758-3.125-6.033c-7.238,9.721-14.453,32.83-12.378,43.016
	C60.175,367.65,67.61,348.883,73.968,344.121z"/>
<path style="fill:#DEEFFC;" d="M389.167,241.571c4.682-4.312,7.618-10.491,7.618-17.359c0-10.632-7.03-19.618-16.695-22.571
	c5.976-6.94,12.389-28.847,7.648-32.717c-5.113-4.178-24.771,4.57-24.771,4.57c-18.88-8.654-51.901,0-51.901,0
	c-29.502-8.654-80.601-8.654-110.102,0c0,0-33.042-8.654-51.922,0c0,0-19.667-8.748-24.78-4.57
	c-4.74,3.871,1.67,25.777,7.645,32.718c-9.661,2.954-16.691,11.939-16.691,22.57c0,6.868,2.937,13.048,7.616,17.359
	c-4.68,4.313-7.616,10.493-7.616,17.362c0,6.312,2.483,12.041,6.521,16.274c-4.037,4.235-6.521,9.964-6.521,16.276
	c0,9.872,6.066,18.325,14.67,21.847c-5.253,8.763-9.819,26.312-5.616,29.745c5.113,4.178,24.779-4.569,24.779-4.569
	c18.881,8.653,51.92,0,51.92,0c29.5,8.653,80.59,8.653,110.092,0c0,0,33.004,8.653,51.884,0c0,0,19.669,8.747,24.782,4.569
	c4.201-3.433-0.363-20.979-5.617-29.743c8.608-3.52,14.677-11.974,14.677-21.849c0-6.312-2.483-12.041-6.521-16.276
	c4.037-4.233,6.521-9.962,6.521-16.274C396.785,252.064,393.849,245.885,389.167,241.571z"/>
<g>
</g>
<g>
</g>
<g>
</g>
<g>
</g>
<g>
</g>
<g>
</g>
<g>
</g>
<g>
</g>
<g>
</g>
<g>
</g>
<g>
</g>
<g>
</g>
<g>
</g>
<g>
</g>
<g>
</g>
</svg>
