<?xml version="1.0" encoding="iso-8859-1"?>
<!-- Generator: Adobe Illustrator 17.0.0, SVG Export Plug-In . SVG Version: 6.00 Build 0)  -->
<!DOCTYPE svg PUBLIC "-//W3C//DTD SVG 1.1//EN" "http://www.w3.org/Graphics/SVG/1.1/DTD/svg11.dtd">
<svg version="1.1" id="Layer_1" xmlns="http://www.w3.org/2000/svg" xmlns:xlink="http://www.w3.org/1999/xlink" x="0px" y="0px"
	 width="512px" height="512px" viewBox="0 0 512 512" style="enable-background:new 0 0 512 512;" xml:space="preserve">
<circle id="background_72_" style="fill:#45B39C;" cx="256" cy="256" r="256"/>
<g>
	<polygon style="fill:#233540;" points="385.309,175 126.573,175 97.663,244 414.217,244 	"/>
	<polygon style="fill:#151F26;" points="372.96,164 139.604,164 113.53,225 399.033,225 	"/>
	<polygon style="fill:#151F26;" points="372.96,164 139.604,164 113.53,225 399.033,225 	"/>
	<polygon style="fill:#080D0F;" points="395.741,237 116.903,237 113.675,225 398.97,225 	"/>
	<polygon style="fill:#1C2A33;" points="273.323,225 238.56,164 184.97,164 219.733,225 	"/>
	<polygon style="fill:#1C2A33;" points="208.22,225 173.458,164 157.749,164 192.554,225 	"/>
	<polygon style="fill:#151F26;" points="226.189,225 232.343,237 285.934,237 279.776,225 	"/>
	<polygon style="fill:#151F26;" points="199.007,225 205.17,237 220.83,237 214.675,225 	"/>
	<path style="fill:#162229;" d="M347,130.434c0-7.419-6.015-13.434-13.434-13.434H177.434c-7.419,0-13.434,6.015-13.434,13.434
		v50.133c0,7.419,6.015,13.434,13.434,13.434h156.133c7.419,0,13.434-6.014,13.434-13.434V130.434z"/>
	<rect x="174" y="59" style="fill:#ECF0F0;" width="163" height="113"/>
	<rect x="174" y="152" style="fill:#BABDBD;" width="163" height="20"/>
	<rect x="174" y="129" style="fill:#DDE0E0;" width="163" height="23"/>
	<polygon style="fill:#162229;" points="401.552,360 110.448,360 97.54,244 414.46,244 	"/>
	<polygon style="fill:#1B2A33;" points="140.575,244 205.755,360 259.345,360 194.165,244 	"/>
	<polygon style="fill:#1B2A33;" points="113.345,244 178.602,360 194.241,360 129.061,244 	"/>
	<polygon style="fill:#2C424F;" points="403.273,344 403.632,341 108.368,341 108.727,344 	"/>
	<polygon style="fill:#080D0F;" points="403.488,343 403.99,338 108.011,338 108.512,343 	"/>
	<rect x="164" y="293" style="fill:#080D0F;" width="183" height="67"/>
	<rect x="168" y="297" style="fill:#080D0F;" width="175" height="63"/>
	<polygon style="fill:#162229;" points="356,440 154.985,440 167.895,360 343.46,360 	"/>
	<rect x="155" y="440" style="fill:#2A424F;" width="201" height="14"/>
	<rect x="168" y="297" style="fill:#162229;" width="175" height="27"/>
	<rect x="174" y="302" style="fill:#223540;" width="161" height="22"/>
	<path style="fill:#D0D4D4;" d="M184.04,303c-7.1,0-11.961-5.994-10.803-12.997l7.42-44.077c1.158-7.004,7.914-11.927,15.015-11.927
		h120.536c7.101,0,13.857,4.792,15.016,11.796l7.422,44.675c1.156,7.006-3.703,12.528-10.804,12.528H184.04z"/>
	<path style="fill:#080D0F;" d="M334.841,286.887c1.158,7.005-3.704,13.113-10.805,13.113H187.843
		c-7.1,0-11.961-6.108-10.803-13.113l6.355-37.788C184.554,242.093,191.31,237,198.41,237H313.47
		c7.101,0,13.857,5.093,15.016,12.099L334.841,286.887z"/>
	<polygon style="fill:#334D5C;" points="190.8,286 197.097,249 316.075,249 322.372,286 	"/>
	<polygon style="fill:#39596B;" points="193.505,319 192.247,324 193.693,324 194.797,319 315.267,319 316.37,324 317.818,324 
		316.559,319 	"/>
	<polygon style="fill:#162229;" points="318.08,317 191.985,317 190.252,324 191.702,324 192.247,324 193.505,319 316.559,319 
		317.818,324 318.363,324 319.811,324 	"/>
	<path style="fill:#238AB4;" d="M367,263.715c0,1.263-1.023,2.285-2.285,2.285h-15.43c-1.262,0-2.285-1.022-2.285-2.285v-0.43
		c0-1.262,1.023-2.285,2.285-2.285h15.43c1.262,0,2.285,1.023,2.285,2.285V263.715z"/>
	<polygon style="fill:#BABDBD;" points="174.491,331 172.542,348 338.56,348 336.56,331 	"/>
	<polygon style="fill:#949696;" points="335.716,324 175.317,324 174.491,331 336.56,331 	"/>
	<polygon style="fill:#DDE0E0;" points="338.56,348 172.542,348 169.991,370 341.175,370 	"/>
	<polygon style="fill:#ECF0F0;" points="169.991,370 162.565,433 348.79,433 341.175,370 	"/>
	<path style="fill:#283C47;" d="M260,279.239c0,1.775-0.612,3.761-2.387,3.761h-56.8c-1.775,0-3.04-1.707-2.811-3.467l3.039-22.811
		c0.228-1.762,1.868-2.722,3.643-2.722h52.929c1.774,0,2.387,0.227,2.387,2.002V279.239z"/>
	<path style="fill:#238AB4;" d="M203.019,281c-1.775,0-3.04-1.676-2.811-3.436l2.533-18.893c0.229-1.76,1.871-2.671,3.646-2.671
		h49.29c1.775,0,2.323,0.162,2.323,1.936v19.365c0,1.775-0.548,3.698-2.323,3.698H203.019z"/>
	<polygon style="fill:#253742;" points="284.172,261 267,261 267,252 283.755,252 	"/>
	<polygon style="fill:#253742;" points="305.32,261 287.477,261 286.981,252 304.41,252 	"/>
	<polygon style="fill:#253742;" points="284.853,271 267,271 267,264 284.398,264 	"/>
	<polygon style="fill:#253742;" points="306.81,271 288.285,271 287.745,264 305.817,264 	"/>
	<polygon style="fill:#253742;" points="285.499,283 267,283 267,276 285.08,276 	"/>
	<polygon style="fill:#253742;" points="308.218,283 289.047,283 288.554,276 307.307,276 	"/>
</g>
<g>
</g>
<g>
</g>
<g>
</g>
<g>
</g>
<g>
</g>
<g>
</g>
<g>
</g>
<g>
</g>
<g>
</g>
<g>
</g>
<g>
</g>
<g>
</g>
<g>
</g>
<g>
</g>
<g>
</g>
</svg>
