<?xml version="1.0" encoding="iso-8859-1"?>
<!-- Generator: Adobe Illustrator 17.0.0, SVG Export Plug-In . SVG Version: 6.00 Build 0)  -->
<!DOCTYPE svg PUBLIC "-//W3C//DTD SVG 1.1//EN" "http://www.w3.org/Graphics/SVG/1.1/DTD/svg11.dtd">
<svg version="1.1" id="Layer_1" xmlns="http://www.w3.org/2000/svg" xmlns:xlink="http://www.w3.org/1999/xlink" x="0px" y="0px"
	 width="512px" height="512px" viewBox="0 0 512 512" style="enable-background:new 0 0 512 512;" xml:space="preserve">
<path id="bg_26_" style="fill:#334D5C;" d="M512,256.002C512,397.382,397.386,512,256.005,512C114.614,512,0,397.382,0,256.002
	C0,114.618,114.614,0,256.005,0C397.386,0,512,114.618,512,256.002z"/>
<path style="fill:#939FA7;" d="M84.779,334.518c7.221-1.471,18.967-2.531,18.967-2.531s-11.91-0.92-19.086-2.34
	c0.875-4.065,3.383-10.427,3.383-10.427s-6.122,2.415-10.189,3.329c-1.37-7.268-2.251-19.033-2.251-19.033
	s-0.828,12.068-2.222,19.107c-4.049-0.843-10.546-3.403-10.546-3.403s2.319,5.896,3.272,9.962
	c-7.349,1.444-18.976,2.478-18.976,2.478s11.738,1.123,19.015,2.642c-0.92,4.064-3.311,10.129-3.311,10.129
	s6.268-2.475,10.335-3.358c1.343,7.11,2.105,19.059,2.105,19.059s1.023-11.993,2.507-19.044c4.076,0.905,10.261,3.344,10.261,3.344
	S85.738,338.585,84.779,334.518z"/>
<path style="fill:#939FA7;" d="M107.312,121.192c3.088-0.631,8.111-1.083,8.111-1.083s-5.092-0.394-8.161-1.004
	c0.372-1.736,1.446-4.457,1.446-4.457s-2.619,1.033-4.358,1.423c-0.587-3.108-0.962-8.138-0.962-8.138s-0.352,5.16-0.95,8.17
	c-1.729-0.356-4.511-1.455-4.511-1.455s0.994,2.521,1.399,4.261c-3.142,0.616-8.113,1.06-8.113,1.06s5.02,0.479,8.132,1.129
	c-0.394,1.738-1.418,4.332-1.418,4.332s2.683-1.057,4.422-1.436c0.571,3.041,0.899,8.15,0.899,8.15s0.438-5.131,1.071-8.145
	c1.742,0.388,4.389,1.43,4.389,1.43S107.724,122.932,107.312,121.192z"/>
<path style="fill:#939FA7;" d="M429.29,334c4.609-0.944,12.113-1.62,12.113-1.62s-7.605-0.587-12.185-1.495
	c0.554-2.593,2.156-6.654,2.156-6.654s-3.909,1.543-6.503,2.123c-0.879-4.639-1.441-12.151-1.441-12.151s-0.523,7.706-1.414,12.202
	c-2.588-0.539-6.735-2.174-6.735-2.174s1.483,3.764,2.087,6.359c-4.689,0.921-12.115,1.585-12.115,1.585s7.494,0.714,12.143,1.685
	c-0.587,2.594-2.114,6.465-2.114,6.465s4.005-1.575,6.599-2.145c0.853,4.544,1.346,12.172,1.346,12.172s0.648-7.658,1.599-12.162
	c2.603,0.58,6.551,2.135,6.551,2.135S429.903,336.594,429.29,334z"/>
<path style="fill:#FFFFFF;" d="M322.713,223.273c6.179-6.938,16.812-7.555,23.746-1.376c6.938,6.179,7.551,16.808,1.376,23.745
	c-6.179,6.935-16.812,7.551-23.746,1.376C317.151,240.837,316.538,230.207,322.713,223.273z"/>
<polygon style="fill:#FFFFFF;" points="262.127,286.804 291.714,313.151 341.21,237.535 331.532,228.915 "/>
<path style="fill:#CCCCCC;" d="M324.089,247.019c6.935,6.175,17.567,5.559,23.746-1.376c6.163-6.922,5.562-17.522-1.338-23.707
	l-22.45,25.041C324.059,246.988,324.071,247.004,324.089,247.019z"/>
<polygon style="fill:#CCCCCC;" points="291.714,313.151 341.21,237.535 336.374,233.227 276.698,299.776 "/>
<path style="fill:#41AAD8;" d="M380.099,244.64c-1.155-1.001-1.908-2.456-1.974-4.106c-0.545-13.926-6.649-26.615-17.178-35.735
	c-10.508-9.097-23.909-13.321-37.74-11.901c-3.147,0.322-5.955-1.965-6.279-5.109c-0.321-3.145,1.965-5.955,5.109-6.276
	c16.761-1.724,33.673,3.611,46.401,14.634c12.762,11.05,20.462,27.066,21.123,43.939c0.125,3.159-2.334,5.82-5.49,5.943
	C382.559,246.086,381.159,245.557,380.099,244.64z"/>
<path style="fill:#41AAD8;" d="M395.883,241.564c-1.155-1.001-1.909-2.459-1.972-4.107c-0.685-17.73-8.443-33.887-21.852-45.492
	c-13.312-11.529-30.299-16.909-47.828-15.156c-3.145,0.316-5.952-1.979-6.268-5.123c-0.312-3.145,1.98-5.949,5.124-6.266
	c20.697-2.072,40.748,4.282,56.466,17.889c15.597,13.506,25,33.084,25.795,53.705c0.125,3.159-2.341,5.818-5.497,5.94
	C398.339,243.014,396.942,242.48,395.883,241.564z"/>
<path style="fill:#41AAD8;" d="M412.715,240.819c-1.155-1.001-1.909-2.456-1.975-4.101c-0.89-22.402-10.71-42.818-27.652-57.488
	c-16.888-14.626-38.434-21.433-60.67-19.17c-3.142,0.322-5.948-1.968-6.271-5.112c-0.321-3.143,1.969-5.954,5.115-6.273
	c25.035-2.549,50.303,5.435,69.316,21.899c19.078,16.52,30.598,40.465,31.598,65.689c0.125,3.159-2.331,5.821-5.49,5.946
	C415.174,242.273,413.774,241.736,412.715,240.819z"/>
<path style="fill:#CCCCCC;" d="M185.666,188.111c-51.284,58.348-45.865,147.229,12.279,198.873
	c58.143,51.656,147.036,46.564,198.935-11.237L185.666,188.111z"/>
<path style="fill:#FFFFFF;" d="M162.582,494.34c10.74,4.211,21.822,7.725,33.205,10.47l43.442-85.692l-30.642-15.533L162.582,494.34
	z"/>
<path style="fill:#FFFFFF;" d="M301.95,507.808l-63.626-102.732l-29.21,18.089l54.899,88.633
	C276.925,511.401,289.591,510.05,301.95,507.808z"/>
<path style="fill:#CCCCCC;" d="M206.625,407.457l22.999,11.66L187.305,502.6c2.811,0.783,5.636,1.521,8.482,2.21l43.442-85.692
	l-30.642-15.533L206.625,407.457z"/>
<path style="fill:#CCCCCC;" d="M238.324,405.075l-6.943,4.297l61.872,99.9c2.924-0.426,5.812-0.94,8.697-1.465L238.324,405.075z"/>
<circle style="fill:#FFFFFF;" cx="223.306" cy="415.143" r="28.203"/>
<circle style="fill:#FFFFFF;" cx="223.306" cy="415.143" r="28.203"/>
<path style="fill:#CCCCCC;" d="M223.306,386.94c-1.998,0-3.945,0.211-5.824,0.607c12.776,2.689,22.373,14.018,22.373,27.596
	c0,13.58-9.597,24.909-22.373,27.596c1.879,0.395,3.826,0.607,5.824,0.607c15.575,0,28.203-12.625,28.203-28.203
	C251.509,399.566,238.881,386.94,223.306,386.94z"/>
<path style="fill:#FFFFFF;" d="M185.666,188.111c-51.284,58.348-45.865,147.229,12.279,198.873c0.036,0.032,0.069,0.057,0.102,0.089
	l93.815-104.62L185.666,188.111z"/>
<g>
</g>
<g>
</g>
<g>
</g>
<g>
</g>
<g>
</g>
<g>
</g>
<g>
</g>
<g>
</g>
<g>
</g>
<g>
</g>
<g>
</g>
<g>
</g>
<g>
</g>
<g>
</g>
<g>
</g>
</svg>
