<?xml version="1.0" encoding="iso-8859-1"?>
<!-- Generator: Adobe Illustrator 17.0.0, SVG Export Plug-In . SVG Version: 6.00 Build 0)  -->
<!DOCTYPE svg PUBLIC "-//W3C//DTD SVG 1.1//EN" "http://www.w3.org/Graphics/SVG/1.1/DTD/svg11.dtd">
<svg version="1.1" id="Layer_1" xmlns="http://www.w3.org/2000/svg" xmlns:xlink="http://www.w3.org/1999/xlink" x="0px" y="0px"
	 width="512px" height="512px" viewBox="0 0 512 512" style="enable-background:new 0 0 512 512;" xml:space="preserve">
<circle id="background_87_" style="fill:#E27C3E;" cx="256" cy="256" r="256"/>
<path style="fill:#ECF0F0;" d="M402.435,375.405c0,5.852-4.744,10.595-10.595,10.595H121.029c-5.851,0-10.595-4.743-10.595-10.595
	V237.595c0-5.852,4.744-10.595,10.595-10.595H391.84c5.851,0,10.595,4.743,10.595,10.595V375.405z"/>
<path style="fill:#CED1D1;" d="M378.988,159.9c-1.901-5.508-8.225-9.9-14.053-9.9H147.568c-5.826,0-12.177,4.383-14.109,9.881
	l-19.565,55.708c-1.934,5.496-3.459,14.704-3.459,20.533v58.802c0,5.826,4.652,10.076,10.48,10.076h270.17
	c5.829,0,10.35-4.25,10.35-10.076v-58.802c0-5.829-1.432-15.045-3.332-20.554L378.988,159.9z"/>
<ellipse style="fill:#ABADAD;" cx="165.349" cy="195.595" rx="24.57" ry="7.152"/>
<path style="fill:#ECF0F0;" d="M402.435,375.405c0,5.852-4.744,10.595-10.595,10.595H121.029c-5.851,0-10.595-4.743-10.595-10.595
	V237.595c0-5.852,4.744-10.595,10.595-10.595H391.84c5.851,0,10.595,4.743,10.595,10.595V375.405z"/>
<path style="fill:#CED1D1;" d="M390.435,364.405c0,5.852-4.744,10.595-10.596,10.595H131.03c-5.852,0-10.596-4.743-10.596-10.595
	V247.595c0-5.852,4.744-10.595,10.596-10.595h248.809c5.852,0,10.596,4.743,10.596,10.595V364.405z"/>
<path style="fill:#ECF0F0;" d="M388.435,361.405c0,5.852-4.744,10.595-10.595,10.595H134.029c-5.851,0-10.595-4.743-10.595-10.595
	V249.595c0-5.852,4.744-10.595,10.595-10.595H377.84c5.851,0,10.595,4.743,10.595,10.595V361.405z"/>
<rect x="144.435" y="263" style="fill:#DFE3E3;" width="78" height="34"/>
<rect x="147.435" y="266" style="fill:#FBFFFF;" width="72" height="27"/>
<circle style="fill:#FBFFFF;" cx="321.6" cy="305.606" r="49.178"/>
<path style="fill:#334D5C;" d="M321.602,349.488c-24.196,0-43.881-19.685-43.881-43.882c0-24.196,19.685-43.882,43.881-43.882
	c24.195,0,43.881,19.686,43.881,43.882C365.483,329.804,345.797,349.488,321.602,349.488z"/>
<path style="fill:#FBFFFF;" d="M351.872,268h-60.54c-2.061,1-3.986,3-5.765,5h72.068C355.858,271,353.932,269,351.872,268z"/>
<path style="fill:#FBFFFF;" d="M277.252,285h88.698c-0.882-2-1.872-4-2.965-5h-82.77C279.124,281,278.132,283,277.252,285z"/>
<path style="fill:#FBFFFF;" d="M273.367,297h96.468c-0.357-2-0.814-4-1.363-5h-93.743C274.181,293,273.726,295,273.367,297z"/>
<path style="fill:#FBFFFF;" d="M272.422,306.089c0,0.857,0.023,2.911,0.066,2.911h98.226c0.043,0,0.064-2.054,0.064-2.911
	c0-0.918-0.026-3.089-0.076-3.089h-98.203C272.45,303,272.422,305.171,272.422,306.089z"/>
<path style="fill:#FBFFFF;" d="M274.672,321h93.856c0.544-2,0.99-4,1.34-6h-96.536C273.684,317,274.132,319,274.672,321z"/>
<path style="fill:#FBFFFF;" d="M280.102,332h82.997c1.083-1,2.063-3,2.934-5h-88.863C278.042,329,279.022,331,280.102,332z"/>
<path style="fill:#FBFFFF;" d="M291.107,344h60.989c2.038-1,3.946-3,5.703-5h-72.396C287.162,341,289.068,343,291.107,344z"/>
<rect x="148.435" y="268" style="fill:#CDD1D1;" width="1" height="22"/>
<rect x="152.435" y="268" style="fill:#CDD1D1;" width="1" height="22"/>
<rect x="155.435" y="268" style="fill:#CDD1D1;" width="1" height="22"/>
<rect x="158.435" y="268" style="fill:#CDD1D1;" width="1" height="22"/>
<rect x="161.435" y="268" style="fill:#CDD1D1;" width="1" height="22"/>
<rect x="164.435" y="268" style="fill:#CDD1D1;" width="1" height="22"/>
<rect x="168.435" y="268" style="fill:#CDD1D1;" width="1" height="22"/>
<rect x="171.435" y="268" style="fill:#CDD1D1;" width="1" height="22"/>
<rect x="174.435" y="268" style="fill:#CDD1D1;" width="1" height="22"/>
<rect x="177.435" y="268" style="fill:#CDD1D1;" width="1" height="22"/>
<rect x="180.435" y="268" style="fill:#CDD1D1;" width="1" height="22"/>
<rect x="184.435" y="268" style="fill:#CDD1D1;" width="1" height="22"/>
<rect x="187.435" y="268" style="fill:#CDD1D1;" width="1" height="22"/>
<rect x="190.435" y="268" style="fill:#CDD1D1;" width="1" height="22"/>
<rect x="193.435" y="268" style="fill:#CDD1D1;" width="1" height="22"/>
<rect x="196.435" y="268" style="fill:#CDD1D1;" width="1" height="22"/>
<rect x="200.435" y="268" style="fill:#CDD1D1;" width="1" height="22"/>
<rect x="203.435" y="268" style="fill:#CDD1D1;" width="1" height="22"/>
<rect x="206.435" y="268" style="fill:#CDD1D1;" width="1" height="22"/>
<rect x="209.435" y="268" style="fill:#CDD1D1;" width="1" height="22"/>
<rect x="212.435" y="268" style="fill:#CDD1D1;" width="1" height="22"/>
<rect x="216.435" y="268" style="fill:#CDD1D1;" width="1" height="22"/>
<polygon style="fill:#E27C3E;" points="214.679,293 209.382,293 210.442,271 213.62,271 "/>
<g>
	<rect x="149.435" y="279" style="fill:#E27C3E;" width="68" height="2"/>
</g>
<path style="fill:#45B39C;" d="M167.712,310.977l-4.712-8.16l-4.71,8.16c-6.531,2.01-11.281,8.092-11.281,15.283
	c0,8.834,7.16,15.992,15.991,15.992c8.832,0,15.992-7.158,15.992-15.992C178.992,319.068,174.243,312.986,167.712,310.977z"/>
<circle style="fill:#4CC7AD;" cx="163.001" cy="327.721" r="9.735"/>
<path style="fill:#E27C3E;" d="M210.62,310.977l-4.71-8.16l-4.71,8.16c-6.533,2.01-11.281,8.092-11.281,15.283
	c0,8.834,7.159,15.992,15.991,15.992s15.992-7.158,15.992-15.992C221.902,319.068,217.153,312.986,210.62,310.977z"/>
<path style="fill:#FF8C46;" d="M215.646,327.721c0,5.376-4.36,9.732-9.737,9.732c-5.373,0-9.733-4.356-9.733-9.732
	c0-5.377,4.36-9.735,9.733-9.735C211.285,317.985,215.646,322.344,215.646,327.721z"/>
<path style="fill:#E27C3E;" d="M181.435,193c0,10-32,10-32,0v-15.941c0-9.097,6.904-16.54,16-16.54l0,0c9.098,0,16,7.443,16,16.54
	V193z"/>
<path style="fill:#A65B2D;" d="M165.238,167.424c4.242,0.768,8.537,3.551,8.65,8.307c0.083,3.41,5.38,3.418,5.298,0
	c-0.168-7.014-5.852-12.205-12.54-13.414C163.309,161.712,161.88,166.816,165.238,167.424L165.238,167.424z"/>
<path style="fill:#B86532;" d="M166.647,162.316c-1.428-0.26-2.505,0.528-3.008,1.562c0.276-0.037,0.575-0.03,0.89,0.026
	c6.688,1.21,12.37,6.401,12.54,13.413c0.007,0.355-0.045,0.672-0.14,0.953c1.203-0.13,2.297-0.975,2.258-2.541
	C179.019,168.717,173.335,163.525,166.647,162.316z"/>
<path style="fill:#ECF0F0;" d="M376.608,90.005c-16.59,6.21-33.18,12.419-49.77,18.627c-31.884,11.933-63.767,23.864-95.65,35.798
	c-19.003,7.112-38.007,14.224-57.01,21.337c1.457,1.198,2.673,2.651,3.543,4.309c14.134-5.29,28.27-10.58,42.403-15.87
	c31.884-11.932,63.767-23.865,95.65-35.799c20.347-7.613,40.693-15.229,61.04-22.843c0.399-0.149,0.8-0.3,1.201-0.45
	C381.186,93.927,379.816,88.805,376.608,90.005z"/>
<path style="fill:#CED1D1;" d="M174.179,165.767c-1.344,0.502-2.687,1.005-4.03,1.509c-0.399,0.148-0.8,0.298-1.201,0.449
	c-0.352,0.132-0.646,0.314-0.889,0.529c1.906,0.786,3.613,2.015,4.68,3.686c1.66-0.622,3.322-1.243,4.983-1.865
	C176.852,168.418,175.636,166.965,174.179,165.767z"/>
<circle style="fill:#334D5C;" cx="378.518" cy="91.354" r="12.567"/>
<circle style="fill:#486D82;" cx="382.417" cy="89.955" r="6.932"/>
<g>
</g>
<g>
</g>
<g>
</g>
<g>
</g>
<g>
</g>
<g>
</g>
<g>
</g>
<g>
</g>
<g>
</g>
<g>
</g>
<g>
</g>
<g>
</g>
<g>
</g>
<g>
</g>
<g>
</g>
</svg>
