<?xml version="1.0" encoding="iso-8859-1"?>
<!-- Generator: Adobe Illustrator 17.0.0, SVG Export Plug-In . SVG Version: 6.00 Build 0)  -->
<!DOCTYPE svg PUBLIC "-//W3C//DTD SVG 1.1//EN" "http://www.w3.org/Graphics/SVG/1.1/DTD/svg11.dtd">
<svg version="1.1" id="Layer_1" xmlns="http://www.w3.org/2000/svg" xmlns:xlink="http://www.w3.org/1999/xlink" x="0px" y="0px"
	 width="512.001px" height="512px" viewBox="0 0 512.001 512" style="enable-background:new 0 0 512.001 512;" xml:space="preserve"
	>
<circle id="background_40_" style="fill:#E27C3E;" cx="256" cy="256" r="256"/>
<polygon style="fill:#172229;" points="165.499,276.156 165.325,264 196.155,264 "/>
<polygon style="fill:#172229;" points="347.108,276.156 347.28,264 316.45,264 "/>
<path style="fill:#334D5C;" d="M159.28,264c0,0,0.709,23.203,4.061,34.496c3.95,13.303,10.937,25.523,19.977,36.004
	c18.247,21.151,45.717,33.137,73.534,33.008c27.591-0.129,54.363-12.73,72.346-33.575c8.887-10.301,15.474-22.442,19.461-35.442
	c3.447-11.24,4.06-22.49,4.06-34.49c0-7-12.09-7-12.09,0c0,12-0.688,22.02-4.111,32.828c-3.865,12.205-10.764,23.402-19.597,32.624
	c-18.565,19.388-45.315,28.388-71.837,25.316c-21.986-2.547-42.902-14.948-56.265-32.483c-6.84-8.979-11.788-19.247-14.705-30.138
	C171.637,282.881,171.37,274,171.37,264C171.37,257,159.28,257,159.28,264C159.28,264,159.28,257,159.28,264z"/>
<ellipse style="fill:#334D5C;" cx="256" cy="409.543" rx="43.195" ry="16.021"/>
<ellipse style="fill:#334D5C;" cx="256" cy="409.543" rx="43.195" ry="16.021"/>
<polygon style="fill:#334D5C;" points="256,357.858 231.909,396.253 256,409.845 280.092,396.253 "/>
<path style="fill:#5F8FAB;" d="M248.856,375.979c-4.182,7.768-8.363,15.539-12.545,23.309c-1.846,3.432,3.373,6.485,5.221,3.052
	c4.182-7.77,8.363-15.54,12.543-23.31C255.923,375.599,250.705,372.547,248.856,375.979L248.856,375.979z"/>
<path style="fill:#334D5C;" d="M186,244v23.384c0,41.293,31.67,75.08,69.5,75.08s69.5-33.787,69.5-75.08V244H186z"/>
<rect x="186" y="244" style="fill:#172229;" width="139" height="17"/>
<path style="fill:#D8DBDB;" d="M255.5,86.437c-37.83,0-69.5,33.787-69.5,75.082v54.059V244h139v-28.423v-54.059
	C325,120.224,293.33,86.437,255.5,86.437z"/>
<path style="fill:#9EA1A1;" d="M212,153c-9,0-16.04,0-24.328,0c-0.384,4-1.672,5.212-1.672,8.519V170c9,0,17,0,26,0
	C222,170,222,153,212,153z"/>
<path style="fill:#9EA1A1;" d="M212,182c-9,0-17,0-26,0v19c9,0,17,0,26,0C222,201,222,182,212,182z"/>
<path style="fill:#9EA1A1;" d="M212,213c-9,0-17,0-26,0v2.577V232c9,0,17,0,26,0C222,232,222,213,212,213z"/>
<path style="fill:#9EA1A1;" d="M299,153c9,0,16.78,0,25.068,0c0.384,4,0.932,5.212,0.932,8.519V170c-9,0-17,0-26,0
	C289,170,289,153,299,153z"/>
<path style="fill:#9EA1A1;" d="M299,182c9,0,17,0,26,0v19c-9,0-17,0-26,0C289,201,289,182,299,182z"/>
<path style="fill:#9EA1A1;" d="M299,213c9,0,17,0,26,0v2.577V232c-9,0-17,0-26,0C289,232,289,213,299,213z"/>
<path style="fill:#5F8FAB;" d="M196.37,287.227c1.664,7.37,5.451,14.63,9.722,20.787c9.82,14.17,24.663,23.645,41.651,26.658
	c3.242,0.575,6.502-0.827,7.436-4.222c0.812-2.95-0.974-6.86-4.221-7.436c-8.107-1.439-15.438-4.2-22.23-8.853
	c-2.372-1.621-4.852-3.822-7.209-6.246c-2.477-2.545-3.663-4.09-5.3-6.453c-1.532-2.21-2.894-4.535-4.136-6.919
	c-0.535-1.026-1.031-2.073-1.508-3.126c-0.16-0.349-0.892-2.087-0.163-0.344c-0.184-0.438-0.356-0.88-0.53-1.321
	c-0.727-1.862-1.412-3.784-1.854-5.738C206.311,276.41,194.657,279.635,196.37,287.227L196.37,287.227z"/>
<path style="opacity:0.4;fill:#676969;" d="M256,86.437v256.027c38,0,69-33.787,69-75.08V161.519C325,120.224,294,86.437,256,86.437
	z"/>
<g>
</g>
<g>
</g>
<g>
</g>
<g>
</g>
<g>
</g>
<g>
</g>
<g>
</g>
<g>
</g>
<g>
</g>
<g>
</g>
<g>
</g>
<g>
</g>
<g>
</g>
<g>
</g>
<g>
</g>
</svg>
