<?xml version="1.0" encoding="iso-8859-1"?>
<!-- Generator: Adobe Illustrator 17.0.0, SVG Export Plug-In . SVG Version: 6.00 Build 0)  -->
<!DOCTYPE svg PUBLIC "-//W3C//DTD SVG 1.1//EN" "http://www.w3.org/Graphics/SVG/1.1/DTD/svg11.dtd">
<svg version="1.1" id="Layer_1" xmlns="http://www.w3.org/2000/svg" xmlns:xlink="http://www.w3.org/1999/xlink" x="0px" y="0px"
	 width="512px" height="512px" viewBox="0 0 512 512" style="enable-background:new 0 0 512 512;" xml:space="preserve">
<path id="bg_15_" style="fill:#334D5C;" d="M512,255.998C512,397.382,397.387,512,256.001,512C114.614,512,0,397.382,0,255.998
	C0,114.618,114.614,0,256.001,0C397.387,0,512,114.618,512,255.998z"/>
<path style="fill:#4A6B7C;" d="M445.88,281.969c-57.242,0-103.646,46.403-103.646,103.642c0,37.07,19.478,69.575,48.742,87.896
	c60.089-37.367,103.516-98.924,116.744-171.071C490.457,289.578,469.059,281.969,445.88,281.969z"/>
<path style="fill:#3C5C68;" d="M365.044,377.68c0-47.372,33.789-86.842,78.578-95.655c-56.196,1.206-101.388,47.104-101.388,103.587
	c0,37.07,19.478,69.575,48.742,87.896c6.71-4.175,13.177-8.694,19.452-13.452C383.165,442.768,365.044,412.353,365.044,377.68z"/>
<path style="fill:#939FA7;" d="M213.012,419.028c8.961-1.829,23.536-3.142,23.536-3.142s-14.777-1.143-23.687-2.909
	c1.087-5.041,4.2-12.937,4.2-12.937s-7.598,2.998-12.645,4.133c-1.699-9.022-2.793-23.618-2.793-23.618s-1.026,14.978-2.759,23.71
	c-5.021-1.045-13.088-4.225-13.088-4.225s2.883,7.318,4.064,12.365c-9.119,1.789-23.551,3.075-23.551,3.075
	s14.569,1.391,23.596,3.272c-1.141,5.047-4.109,12.571-4.109,12.571s7.78-3.067,12.829-4.166c1.664,8.829,2.611,23.653,2.611,23.653
	s1.268-14.887,3.112-23.632c5.056,1.119,12.732,4.145,12.732,4.145S214.2,424.074,213.012,419.028z"/>
<path style="fill:#939FA7;" d="M433.214,173.549c5.48-1.119,14.395-1.924,14.395-1.924s-9.039-0.699-14.487-1.777
	c0.664-3.084,2.568-7.911,2.568-7.911s-4.647,1.831-7.733,2.525c-1.04-5.518-1.708-14.444-1.708-14.444s-0.628,9.159-1.686,14.5
	c-3.071-0.64-8.005-2.581-8.005-2.581s1.763,4.476,2.484,7.56c-5.575,1.096-14.402,1.883-14.402,1.883s8.91,0.852,14.431,2.003
	c-0.697,3.088-2.513,7.688-2.513,7.688s4.758-1.876,7.844-2.549c1.02,5.398,1.598,14.465,1.598,14.465s0.777-9.102,1.905-14.453
	c3.091,0.685,7.786,2.537,7.786,2.537S433.939,176.637,433.214,173.549z"/>
<path style="fill:#939FA7;" d="M248.794,52.976c3.741-0.763,9.826-1.313,9.826-1.313s-6.17-0.477-9.887-1.211
	c0.452-2.105,1.752-5.398,1.752-5.398s-3.171,1.247-5.277,1.721c-0.711-3.764-1.166-9.855-1.166-9.855s-0.429,6.25-1.15,9.895
	c-2.098-0.436-5.464-1.76-5.464-1.76s1.202,3.052,1.695,5.16c-3.806,0.747-9.83,1.283-9.83,1.283s6.081,0.58,9.85,1.366
	c-0.477,2.108-1.715,5.246-1.715,5.246s3.248-1.28,5.354-1.738c0.695,3.683,1.09,9.873,1.09,9.873s0.529-6.211,1.301-9.864
	c2.108,0.467,5.313,1.729,5.313,1.729S249.291,55.084,248.794,52.976z"/>
<circle style="fill:#3C5C68;" cx="442.973" cy="340.356" r="24.491"/>
<path style="fill:#3C5C68;" d="M493.963,333.133c-9.117,0-16.509,7.391-16.509,16.511c0,6.872,4.205,12.759,10.179,15.239
	c4.656-9.889,8.653-20.144,12.032-30.678C497.88,333.544,495.977,333.133,493.963,333.133z"/>
<path style="fill:#3C5C68;" d="M405.648,371.145c0-6.935,5.62-12.554,12.555-12.554c6.933,0,12.555,5.618,12.555,12.554
	c0,6.938-5.622,12.556-12.555,12.556C411.269,383.7,405.648,378.082,405.648,371.145z"/>
<circle style="fill:#3C5C68;" cx="418.527" cy="420.344" r="6.038"/>
<path style="fill:#3C5C68;" d="M466.963,400.951c-3.839-6.515-10.907-10.9-19.015-10.9c-12.191,0-22.077,9.88-22.077,22.078
	c0,9.695,6.259,17.91,14.949,20.875C450.356,423.048,459.121,412.347,466.963,400.951z"/>
<path style="fill:#ED8115;" d="M336.616,283.264c-12.764-15.302-35.509-17.355-50.808-4.592
	c-15.297,12.765-17.353,35.51-4.588,50.805c0.312,0.373,0.656,0.706,0.982,1.063c23.146,26.907,53.599,38.603,68.626,26.065
	c15.029-12.542,8.981-44.598-13.344-72.187C337.192,284.035,336.927,283.636,336.616,283.264z"/>
<path style="fill:#EFBB14;" d="M321.155,281.924c-8.864-10.627-24.666-12.053-35.293-3.189
	c-10.625,8.864-12.053,24.669-3.189,35.293c0.221,0.265,0.46,0.49,0.684,0.738c16.078,18.692,37.23,26.809,47.67,18.103
	c10.438-8.712,6.237-30.975-9.27-50.141C321.556,282.459,321.375,282.185,321.155,281.924z"/>
<path style="fill:#FFFFFF;" d="M206.211,242.239c-12.143,10.133-64.712,63.392-0.48,147.246c1.964,2.56,5.456,4.487,5.23-1.12
	c-0.649-15.979,3.014-50.852,40.886-82.452C303.003,263.234,206.211,242.239,206.211,242.239z"/>
<path style="fill:#FFFFFF;" d="M262.872,194.969c12.142-10.135,73.961-52.309,144.948,25.91c2.171,2.389,3.438,6.17-2.035,4.943
	c-15.605-3.502-50.57-6.149-88.444,25.451C266.183,293.953,262.872,194.969,262.872,194.969z"/>
<path style="fill:#BABABA;" d="M212.842,250.186c0,0,34.389,7.465,51.334,22.536c-11.517-20.393-57.965-30.483-57.965-30.483
	c-12.143,10.133-64.712,63.392-0.48,147.246c0.679,0.884,1.544,1.673,2.37,2.12C150.633,311.124,200.984,260.078,212.842,250.186z"
	/>
<path style="fill:#BABABA;" d="M269.503,202.913c11.858-9.895,71.097-50.281,139.98,20.679c-0.289-0.896-0.913-1.885-1.663-2.713
	c-70.987-78.219-132.807-36.045-144.948-25.91c0,0,1.604,47.503,19.603,62.488C270.685,238.083,269.503,202.913,269.503,202.913z"/>
<path style="fill:#BD3E25;" d="M112.313,72.082l0.054,0.086L112.29,72.1c-4.802,4.005-23.235,96.388,23.594,145.415
	c46.832,49.033,93.302,93.189,102.184,102.062c8.884,8.876,15.509,7.057,25.986-1.685c4.764-3.978,18.202-15.189,31.438-26.231
	l0.004-0.003c13.233-11.044,26.671-22.251,31.439-26.229c10.477-8.741,13.455-14.932,6.316-25.261
	c-7.139-10.331-42.255-63.959-82.104-118.816C211.304,66.49,117.115,68.074,112.313,72.082z"/>
<path style="fill:#E45136;" d="M120.539,89.649l0.049,0.083l-0.069-0.065c-4.487,3.746-21.711,90.066,22.045,135.872
	c43.763,45.817,87.182,87.079,95.481,95.372c8.299,8.292,14.489,6.586,24.277-1.578c4.456-3.716,17.012-14.19,29.378-24.508
	l0.004-0.003c12.366-10.32,24.922-20.795,29.377-24.511c9.787-8.167,12.572-13.952,5.901-23.602
	c-6.67-9.65-39.482-59.762-76.716-111.025C213.037,84.43,125.027,85.903,120.539,89.649z"/>
<path style="fill:#93310F;" d="M147.968,190.018c-15.943-19.109-13.376-47.529,5.736-63.478
	c19.115-15.947,47.537-13.381,63.482,5.731c15.944,19.11,13.382,47.536-5.732,63.486
	C192.339,211.702,163.914,209.13,147.968,190.018z"/>
<path style="fill:#FFFFFF;" d="M281.891,256.775c20.466,24.529,33.489,47.39,29.092,51.062c-4.4,3.668-24.559-13.241-45.021-37.77
	c-20.469-24.532-33.492-47.393-29.094-51.065C241.267,215.335,261.425,232.244,281.891,256.775z"/>
<path style="fill:#BABABA;" d="M246.333,230.351c4.054-3.383,21.492,10.73,40.219,32.157c-1.51-1.897-3.054-3.809-4.661-5.732
	c-20.466-24.531-40.624-41.44-45.023-37.772c-4.398,3.672,8.625,26.532,29.094,51.065c1.604,1.927,3.207,3.787,4.803,5.615
	C253.038,253.417,242.279,233.732,246.333,230.351z"/>
<path style="fill:#BD3E25;" d="M114.53,158.564c-3.293-29.739,25.274-72.865,74.891-62.483
	c-9.312-9.167-50.695-14.339-50.695-14.339l-22.901,0.503l-3.834,27.354l-1.184,28.193L114.53,158.564z"/>
<path style="fill:#FFFFFF;" d="M153.653,192.006c-15.944-19.109-13.378-47.529,5.736-63.477
	c19.114-15.947,47.536-13.381,63.48,5.731c15.944,19.109,13.383,47.536-5.731,63.486
	C198.024,213.691,169.598,211.119,153.653,192.006z"/>
<path style="fill:#228789;" d="M160.743,186.093c-12.68-15.196-10.638-37.796,4.56-50.478c15.199-12.681,37.799-10.639,50.477,4.562
	c12.679,15.19,10.639,37.793-4.56,50.474C196.02,203.33,173.421,201.287,160.743,186.093z"/>
<path style="fill:#3FAAAA;" d="M203.247,130.616c-10.528-4.844-23.017-4.383-33.305,1.763l-7.45,55.607
	c8.408,8.733,20.337,12.342,31.667,10.463L203.247,130.616z"/>
<path style="fill:#3FAAAA;" d="M197.744,197.666c3.584-0.982,7.059-2.516,10.285-4.653l7.163-53.47
	c-2.564-2.93-5.505-5.336-8.692-7.221L197.744,197.666z"/>
<g>
</g>
<g>
</g>
<g>
</g>
<g>
</g>
<g>
</g>
<g>
</g>
<g>
</g>
<g>
</g>
<g>
</g>
<g>
</g>
<g>
</g>
<g>
</g>
<g>
</g>
<g>
</g>
<g>
</g>
</svg>
