<?xml version="1.0" encoding="iso-8859-1"?>
<!-- Generator: Adobe Illustrator 17.0.0, SVG Export Plug-In . SVG Version: 6.00 Build 0)  -->
<!DOCTYPE svg PUBLIC "-//W3C//DTD SVG 1.1//EN" "http://www.w3.org/Graphics/SVG/1.1/DTD/svg11.dtd">
<svg version="1.1" id="Layer_1" xmlns="http://www.w3.org/2000/svg" xmlns:xlink="http://www.w3.org/1999/xlink" x="0px" y="0px"
	 width="512px" height="512px" viewBox="0 0 512 512" style="enable-background:new 0 0 512 512;" xml:space="preserve">
<circle id="background_54_" style="fill:#EFC84A;" cx="256" cy="256" r="256"/>
<g>
	<path style="fill:#293E4A;" d="M114.797,168.819L97.35,134.337c-1.983-3.923-6.038-5.864-9.058-4.337
		c-3.019,1.527-3.857,5.945-1.874,9.867l17.608,34.802c-1.75,2.765-1.833,6.931,0.101,10.751l42.718,84.436
		c2.648,5.23,8.056,7.818,12.08,5.783l5.467-2.767c4.024-2.036,5.144-7.927,2.495-13.156l-42.719-84.436
		C122.083,171.159,118.283,168.689,114.797,168.819z"/>
	<path style="fill:#ECF0F0;" d="M398.611,269.055c-1.46-3.444-5.707-6.055-9.439-6.055H136.659c-3.73,0-7.979,2.611-9.438,6.055
		l-24.419,57.477c-1.461,3.443-2.668,9.271-2.686,13.013l0.523,20.538c-0.017,3.742,3.022,6.918,6.755,6.918h310.614
		c3.732,0,6.798-3.201,6.815-6.944l0.834-20.492c0.016-3.742-1.167-9.553-2.626-12.997L398.611,269.055z"/>
	<path style="opacity:0.3;fill:#5D5D5D;" d="M168.29,263h-31.519c-3.741,0-8.003,2.611-9.468,6.055l-24.494,57.477
		c-1.465,3.443-2.676,9.271-2.693,13.013l0.525,20.538c-0.017,3.742,3.031,6.918,6.775,6.918h264.328L168.29,263z"/>
	<path style="fill:#334D5C;" d="M425.435,374.194c0,3.759-3.047,6.806-6.807,6.806H106.241c-3.759,0-6.807-3.047-6.807-6.806
		v-35.389c0-3.759,3.048-6.806,6.807-6.806h312.387c3.76,0,6.807,3.047,6.807,6.806V374.194z"/>
	<path style="fill:#293E4A;" d="M418.435,367.918c0,3.759-2.606,7.082-6.364,7.082H113.36c-3.759,0-6.926-3.322-6.926-7.082v-22.227
		c0-3.758,3.167-6.691,6.926-6.691h298.71c3.758,0,6.364,2.934,6.364,6.691V367.918z"/>
	<polygon style="fill:#314B59;" points="151.585,339 168.267,377 187.014,377 170.332,339 	"/>
	<polygon style="fill:#314B59;" points="181.58,339 198.262,377 226.757,377 210.075,339 	"/>
	<circle style="fill:#E27C3E;" cx="138.477" cy="357.532" r="7.658"/>
	<circle style="fill:#45B39C;" cx="164.34" cy="357.532" r="7.658"/>
	<path style="fill:#18242B;" d="M408.435,358.019c0,3.571-2.694,6.981-6.267,6.981H194.941c-3.571,0-6.507-3.41-6.507-6.981v-0.72
		c0-3.572,2.935-6.298,6.507-6.298h207.227c3.572,0,6.267,2.727,6.267,6.298V358.019z"/>
	<circle style="fill:#45B39C;" cx="263.721" cy="273.042" r="22.894"/>
	<path style="fill:#45B39C;" d="M221.887,242.921c0.175-0.162,0.361-0.314,0.547-0.465c1.241-1.016-2.567,1.938-1.082,0.838
		c0.396-0.293,0.802-0.572,1.21-0.849c2.672-1.812,5.57-3.284,8.52-4.583c-2.903,1.279,0.04,0.01,0.646-0.221
		c1.146-0.441,2.312-0.834,3.479-1.217c2.682-0.879,5.422-1.572,8.177-2.177c1.561-0.343,3.136-0.62,4.71-0.883
		c0.667-0.108,1.334-0.208,2.002-0.303c-2.05,0.301,1.463-0.137,1.495-0.142c3.898-0.409,7.821-0.549,11.74-0.568
		c3.553-0.018,7.104,0.165,10.642,0.465c0.726,0.065,1.45,0.138,2.174,0.217c3.456,0.364-1.89-0.308,1.427,0.177
		c1.607,0.235,3.201,0.533,4.793,0.85c2.816,0.559,5.597,1.291,8.342,2.13c1.198,0.368,2.382,0.779,3.561,1.206
		c0.664,0.239,4.305,1.752,1.312,0.468c2.859,1.227,5.628,2.691,8.234,4.394c1.372,0.896,3.141,2.36,0.283,0.097
		c0.233,0.184,0.46,0.37,0.677,0.569c4.09,3.767,10.384,4.055,14.439,0c3.811-3.812,4.094-10.669,0-14.438
		c-3.993-3.677-8.965-6.381-13.915-8.504c-13.293-5.7-27.533-7.978-41.968-8.049c-14.386-0.069-28.739,2.376-41.971,8.049
		c-4.948,2.123-9.921,4.827-13.913,8.504c-4.095,3.77-3.812,10.626,0,14.438C211.503,246.976,217.795,246.688,221.887,242.921
		L221.887,242.921z"/>
	<path style="fill:#45B39C;" d="M179.269,181.132c0.166-0.155,0.342-0.303,0.515-0.451c0.215-0.181,0.432-0.358,0.65-0.536
		c1.758-1.417-2.231,1.695-0.785,0.605c2.278-1.712,4.686-3.249,7.142-4.691c3.885-2.285,7.945-4.264,12.082-6.05
		c-2.999,1.295,1.135-0.439,1.863-0.724c1.33-0.518,2.671-1.004,4.015-1.48c3.212-1.136,6.474-2.129,9.755-3.041
		c3.406-0.946,6.85-1.748,10.311-2.471c1.871-0.392,3.751-0.737,5.633-1.068c0.979-0.17,1.958-0.327,2.938-0.482
		c0.349-0.056,4.191-0.599,2.363-0.358c9.557-1.254,19.205-1.724,28.838-1.698c4.787,0.013,9.572,0.207,14.349,0.522
		c2.227,0.148,4.448,0.349,6.67,0.568c1.072,0.105,2.141,0.229,3.21,0.351c0.7,0.083,1.396,0.169,2.095,0.257
		c-0.993-0.136-0.873-0.117,0.36,0.056c7.59,1.081,15.107,2.682,22.482,4.773c2.98,0.844,5.929,1.803,8.849,2.836
		c1.332,0.47,2.65,0.972,3.965,1.484c0.625,0.243,1.249,0.496,1.868,0.75c2.165,0.881-2.158-0.931-0.062-0.025
		c4.078,1.76,8.051,3.769,11.88,6.02c2.33,1.37,4.595,2.854,6.762,4.469c1.468,1.095-2.48-1.949-0.919-0.712
		c0.233,0.186,0.465,0.376,0.693,0.566c0.205,0.172,0.41,0.347,0.607,0.528c4.081,3.775,10.39,4.047,14.438,0
		c3.818-3.819,4.085-10.659,0-14.438c-11.145-10.31-26.855-16.431-41.092-20.714c-33.933-10.211-72.311-10.352-106.668-2.19
		c-12.616,2.998-25.087,7.59-36.405,13.957c-4.481,2.52-9.053,5.445-12.838,8.948c-4.087,3.779-3.82,10.619,0,14.438
		C168.877,185.179,175.187,184.907,179.269,181.132L179.269,181.132z"/>
	<path style="fill:#45B39C;" d="M200.577,210.188c0.216-0.199,0.443-0.387,0.67-0.573c1.583-1.305-1.981,1.505-1.047,0.794
		c0.49-0.373,0.991-0.731,1.495-1.085c2.953-2.072,6.121-3.831,9.354-5.424c1.059-0.521,2.132-1.01,3.21-1.49
		c2.067-0.917-2.239,0.919-0.085,0.03c0.623-0.257,1.25-0.502,1.879-0.747c3.039-1.184,6.148-2.191,9.281-3.099
		c3.375-0.98,6.804-1.772,10.25-2.464c1.906-0.383,3.825-0.704,5.745-1.007c0.088-0.014,3.382-0.462,1.35-0.202
		c1.415-0.183,2.835-0.329,4.254-0.472c9.784-0.982,19.678-0.995,29.482-0.287c7.684,0.557,13.98,1.553,22.503,3.768
		c3.05,0.793,6.06,1.735,9.034,2.778c1.318,0.463,2.623,0.966,3.921,1.481c0.565,0.226,2.73,1.159-0.043-0.029
		c0.747,0.319,1.486,0.657,2.225,0.997c3.509,1.616,6.91,3.483,10.124,5.627c0.576,0.384,1.142,0.784,1.701,1.192
		c2.065,1.502-1.853-1.473-0.708-0.559c0.311,0.248,0.621,0.501,0.913,0.771c4.085,3.773,10.389,4.05,14.439,0
		c3.816-3.816,4.088-10.663,0-14.439c-3.965-3.662-8.835-6.557-13.62-8.992c-12.24-6.229-25.605-9.913-39.174-11.758
		c-30.596-4.158-65.026-1.779-92.271,14.099c-3.251,1.894-6.553,4.097-9.319,6.651c-4.089,3.776-3.817,10.623,0,14.439
		C190.189,214.237,196.491,213.96,200.577,210.188L200.577,210.188z"/>
</g>
<g>
</g>
<g>
</g>
<g>
</g>
<g>
</g>
<g>
</g>
<g>
</g>
<g>
</g>
<g>
</g>
<g>
</g>
<g>
</g>
<g>
</g>
<g>
</g>
<g>
</g>
<g>
</g>
<g>
</g>
</svg>
