<?xml version="1.0" encoding="iso-8859-1"?>
<!-- Generator: Adobe Illustrator 17.0.0, SVG Export Plug-In . SVG Version: 6.00 Build 0)  -->
<!DOCTYPE svg PUBLIC "-//W3C//DTD SVG 1.1//EN" "http://www.w3.org/Graphics/SVG/1.1/DTD/svg11.dtd">
<svg version="1.1" id="Layer_1" xmlns="http://www.w3.org/2000/svg" xmlns:xlink="http://www.w3.org/1999/xlink" x="0px" y="0px"
	 width="512px" height="512px" viewBox="0 0 512 512" style="enable-background:new 0 0 512 512;" xml:space="preserve">
<circle id="background_26_" style="fill:#334D5C;" cx="256" cy="256" r="256"/>
<polygon style="fill:#45B39C;" points="446.422,195.332 495.427,228.917 438.682,236.856 "/>
<g>
	<path style="fill:#99864B;" d="M444.136,193.673c-3.752,20.134-7.505,40.267-11.258,60.399c-0.601,3.227,4.333,4.604,4.938,1.361
		c3.753-20.133,7.505-40.267,11.258-60.399C449.674,191.808,444.74,190.43,444.136,193.673L444.136,193.673z"/>
</g>
<polygon style="fill:#EFC84A;" points="64.42,157.743 123.354,165.245 76.495,198.221 "/>
<g>
	<path style="fill:#99864B;" d="M61.668,157.47c5.854,19.625,11.708,39.251,17.562,58.876c0.941,3.156,5.883,1.811,4.938-1.361
		c-5.854-19.625-11.708-39.25-17.562-58.876C65.664,152.952,60.722,154.298,61.668,157.47L61.668,157.47z"/>
</g>
<path style="fill:#EDD074;" d="M422.55,248.895c-4.615-0.859-9.093,2.211-9.953,6.826l-3.44,18.455
	c-0.86,4.613-5.339,7.685-9.954,6.825l-110.731-20.642c-4.615-0.86-9.094,2.211-9.953,6.825l-19.391,104.021
	c-0.859,4.613,2.212,9.093,6.825,9.952l159.389,29.711c4.613,0.86,9.092-2.211,9.952-6.825l11.885-63.755
	c0.859-4.614,2.267-12.163,3.127-16.777l4.379-23.488c0.86-4.614,2.267-12.164,3.127-16.778l3.441-18.455
	c0.86-4.614-2.212-9.093-6.825-9.952L422.55,248.895z"/>
<path style="fill:#FFE07D;" d="M454.427,254.838l-31.877-5.943c-4.615-0.859-9.093,2.211-9.953,6.826l-0.314,1.677l30.2,5.63
	c4.615,0.86,7.686,5.339,6.825,9.953l-3.44,18.455c-0.859,4.613-2.267,12.164-3.127,16.777l-4.378,23.489
	c-0.861,4.614-2.269,12.164-3.128,16.777l-11.572,62.077l1.679,0.312c4.613,0.86,9.092-2.211,9.952-6.825l11.885-63.755
	c0.859-4.614,2.267-12.163,3.127-16.777l4.379-23.488c0.86-4.614,2.267-12.164,3.127-16.778l3.441-18.455
	C462.112,260.176,459.04,255.697,454.427,254.838z"/>
<path style="fill:#D6BC69;" d="M329.773,372.222c9.229,1.721,18.915-4.249,21.526-13.265l23.885-82.434l-86.713-16.164
	c-1.894-0.354-3.748-0.017-5.355,0.789L267.8,343.31c-1.72,9.228,4.424,18.185,13.65,19.905L329.773,372.222z"/>
<path style="fill:#EDD074;" d="M165.498,264.037c-0.983-1.759-3.204-4.042-4.934-5.075l-76.48-45.672
	c-1.73-1.033-3.663-0.312-4.294,1.601l-27.846,84.293c-0.632,1.913-0.819,5.094-0.416,7.067c0,0,0.823,4.026,1.017,4.543
	c1.58,4.27,31.185,5.058,62.987-6.716c31.8-11.771,53.754-31.648,52.175-35.918C167.512,267.637,165.498,264.037,165.498,264.037z
	 M107.011,281.842C107.009,281.843,107.008,281.843,107.011,281.842c0.002-0.001,0.004-0.002,0.005-0.003
	C107.018,281.838,107.013,281.841,107.011,281.842z"/>
<path style="fill:#EDD074;" d="M165.498,264.037c-0.983-1.759-3.204-4.042-4.934-5.075l-76.48-45.672
	c-1.73-1.033-3.663-0.312-4.294,1.601l-27.846,84.293c-0.632,1.913-0.819,5.094-0.416,7.067c0,0,0.823,4.026,1.017,4.543
	c1.58,4.27,31.185,5.058,62.987-6.716c31.8-11.771,53.754-31.648,52.175-35.918C167.512,267.637,165.498,264.037,165.498,264.037z
	 M107.011,281.842C107.009,281.843,107.008,281.843,107.011,281.842c0.002-0.001,0.004-0.002,0.005-0.003
	C107.018,281.838,107.013,281.841,107.011,281.842z"/>
<polygon style="fill:#FFE07D;" points="121.19,288.793 121.184,288.796 121.185,288.795 "/>
<path style="fill:#FFE07D;" d="M80.266,289.591c1.137-1.663,2.214-4.666,2.394-6.673l5.658-63.256
	c0.179-2.007-1.089-4.494-2.819-5.526l-1.415-0.846c-1.73-1.032-3.662-0.312-4.294,1.601l-27.846,84.293
	c-0.632,1.913-0.819,5.094-0.416,7.067c0,0,0.823,4.026,1.017,4.543c0.613,1.656,9.347,2.509,9.347,2.509
	c2.005,0.195,3.02-1.17,2.256-3.034L80.266,289.591z"/>
<path style="fill:#D6BC69;" d="M51.365,306.692c0.485,1.917,1.081,3.838,1.18,4.102c1.58,4.27,31.185,5.058,62.987-6.716
	c31.8-11.771,53.754-31.648,52.175-35.918c-0.102-0.271-0.925-2.168-1.823-3.965c-15.844-0.274-37.615,3.9-60.518,12.395
	C82.441,285.093,63.193,296.142,51.365,306.692z M107.007,281.844l0.007-0.004l0.005-0.002
	C107.015,281.84,107.012,281.842,107.007,281.844z"/>
<path style="fill:#EDD074;" d="M152.815,273.234c-17.268,1.924-44.938,10.891-44.938,10.891s-27.214,11.389-41.559,21.19
	c-0.222,0.152,6.509,36.527,21.894,66.69c13.868,27.185,36.54,48.476,36.54,48.476l29.625-10.987l28.849-10.7
	c0,0,3.498-30.998-3.716-60.649C171.505,305.241,153.082,273.203,152.815,273.234z"/>
<path style="fill:#FFE07D;" d="M106.526,368.152c-15.086-29.237-22.52-64.049-23.939-72.235c-5.863,3.016-11.715,6.287-16.269,9.398
	c-0.222,0.152,6.509,36.527,21.894,66.69c13.868,27.185,36.54,48.476,36.54,48.476l15.856-5.881
	C131.849,405.426,116.896,388.244,106.526,368.152z"/>
<path style="fill:#D6BC69;" d="M145.24,326.922c1.752,4.723-0.679,10.021-5.402,11.771l-18.891,7.007
	c-4.723,1.751-10.02-0.68-11.772-5.402l-3.185-8.587c-1.752-4.723-0.541-11.748,2.691-15.612l2.459-2.939
	c3.232-3.864,9.942-6.353,14.912-5.53l3.782,0.625c4.97,0.822,10.469,5.359,12.221,10.082L145.24,326.922z"/>
<path style="fill:#FFE07D;" d="M147.151,332.074c0.701,1.889-0.272,4.008-2.161,4.709l-29.195,10.828
	c-1.889,0.7-4.008-0.272-4.709-2.161l-0.637-1.717c-0.701-1.889,0.271-4.008,2.16-4.708l29.196-10.828
	c1.889-0.701,4.008,0.272,4.709,2.16L147.151,332.074z"/>
<rect x="108.93" y="333.439" transform="matrix(0.9376 -0.3478 0.3478 0.9376 -108.9171 65.5572)" style="fill:#FFE07D;" width="38.465" height="5.496"/>
<circle style="fill:#E6CA71;" cx="139.763" cy="381.055" r="3.516"/>
<path style="fill:#E6CA71;" d="M158.592,362.924c0.892,2.404-0.333,5.077-2.738,5.967c-2.401,0.894-5.077-0.332-5.969-2.738
	c-0.892-2.404,0.335-5.076,2.74-5.967C155.026,359.293,157.702,360.518,158.592,362.924z"/>
<circle style="fill:#E6CA71;" cx="165.557" cy="340.875" r="2.289"/>
<circle style="fill:#E6CA71;" cx="153.212" cy="301.01" r="4.579"/>
<path style="fill:#E6CA71;" d="M112.792,294.742c0.455,1.226-0.17,2.586-1.392,3.039c-1.228,0.455-2.585-0.171-3.04-1.394
	c-0.453-1.224,0.17-2.584,1.395-3.038C110.979,292.895,112.339,293.52,112.792,294.742z"/>
<circle style="fill:#E6CA71;" cx="119.106" cy="256.551" r="4.611"/>
<circle style="fill:#E6CA71;" cx="101.493" cy="244.735" r="2.06"/>
<circle style="fill:#E6CA71;" cx="117.654" cy="359.865" r="1.144"/>
<path style="fill:#EDD074;" d="M355.522,170.581c0.276-1.083,0.612-2.344,0.99-3.702l21.878-78.55
	c1.09-3.913-1.319-6.736-5.354-6.272l-30.37,3.485c-4.037,0.463-9.773,3.103-12.75,5.867l-19.405,17.79
	c-2.977,2.764-8.736,4.801-12.798,4.801h-6.698c-4.064,0-6.458-2.967-5.323-6.867l10.272-35.188c1.135-3.899-1.26-7.081-5.322-7.136
	l-38.779-0.508c-4.062-0.055-10.709-0.042-14.771,0.014l-39.146,0.544c-4.06,0.055-6.479,3.302-5.368,7.21l10.002,35.049
	c1.107,3.909-1.309,6.883-5.37,6.883h-6.7c-4.062,0-9.82-2.037-12.797-4.801l-19.404-17.902c-2.978-2.764-8.716-5.348-12.75-5.811
	l-30.371-3.457c-4.034-0.465-6.446,2.372-5.356,6.286l21.879,78.559c0.323,1.16,0.882,2.433,1.566,3.704l111.202-7.385
	L355.522,170.581z"/>
<path style="fill:#FFE07D;" d="M308.599,110.873l-3.705,12.885c-1.135,3.899,1.26,7.242,5.321,7.242h6.7
	c4.062,0,9.822-2.412,12.799-5.176l19.402-18.092c2.977-2.764,8.716-5.439,12.75-5.904l13.195-1.534l3.328-11.956
	c1.09-3.912-1.319-6.741-5.354-6.276l-30.37,3.483c-4.037,0.463-9.773,3.102-12.75,5.865l-19.405,18.015
	C309.965,109.932,309.304,110.411,308.599,110.873z"/>
<path style="fill:#FFE07D;" d="M197.207,114h-6.7c-2.293,0-5.118-0.512-7.688-1.637l14.093,13.349
	c2.978,2.764,8.737,5.288,12.799,5.288h6.698c4.063,0,6.48-3.35,5.372-7.258l-10.004-35.347c-1.107-3.908,1.309-7.188,5.37-7.243
	l39.145-0.557c4.061-0.056,10.71-0.064,14.77-0.009l22.332,0.303l2.568-8.831c1.135-3.898-1.26-7.139-5.322-7.193l-38.779-0.536
	c-4.062-0.055-10.709-0.056-14.771-0.001l-39.146,0.537c-4.06,0.055-6.479,3.297-5.368,7.207l10.002,35.047
	C203.685,111.027,201.269,114,197.207,114z"/>
<path style="fill:#FFE07D;" d="M129.032,104.578c-1.091-3.914,1.319-6.737,5.357-6.273l30.37,3.485
	c2.137,0.246,4.746,1.11,7.175,2.273l-13.628-12.654c-2.978-2.765-8.716-5.404-12.75-5.867l-30.371-3.485
	c-4.034-0.464-6.446,2.359-5.356,6.272l21.879,78.553c0.323,1.16,0.882,2.429,1.566,3.699l13.885-0.923L129.032,104.578z"/>
<path style="fill:#D6BC69;" d="M355.522,170.581c0,0-33.496-7.386-111.046-7.386c-77.553,0-111.202,7.386-111.202,7.386
	c1.622,3.015,4.038,6.048,6.325,7.708c3.25,2.361,9.231,4.287,13.293,4.279l84.197-0.156c4.062-0.008,10.709-0.008,14.771,0
	l83.831,0.156c4.061,0.008,10.085-1.918,13.386-4.279c3.301-2.36,5.876-4.293,5.727-4.294
	C354.705,173.995,355.003,172.617,355.522,170.581z"/>
<path style="fill:#EDD074;" d="M321.285,406H167.663l-22.156-226.279c0,0,35.451-6.699,98.969-6.699
	c63.516,0,98.968,6.768,98.968,6.768L321.285,406z"/>
<path style="fill:#FFE07D;" d="M179.847,175.662c-22.398,1.854-34.34,4.197-34.34,4.197L167.663,406h34.707L179.847,175.662z"/>
<path style="opacity:0.5;fill:#D6BC69;" d="M237.564,396.586c-52.135-14.459-101.665-15.445-141.867-11.617
	c13.282,20.692,29.056,35.512,29.056,35.512l29.625-10.987l13.203-4.62l0.083,1.127h153.622l1.345-14l102.712,19.008
	c4.613,0.86,9.092-2.279,9.952-6.895l9.465-50.809C330.615,324.476,237.564,396.586,237.564,396.586z"/>
<path style="fill:#D6BC69;" d="M220,257.239c0,6.771-4.05,11.761-10.819,11.761h-27.08C175.33,269,169,264.01,169,257.239v-12.31
	c0-6.771,5.205-15.058,11.083-18.416l4.673-2.558c5.877-3.358,15.597-3.358,21.475,0.001l3.776,2.556
	c5.878,3.359,9.993,11.646,9.993,18.417V257.239z"/>
<path style="fill:#FFE07D;" d="M216.51,257h-41.352H169v4.89v2.098V266h1.495c0.642,2,2.475,3,4.663,3h41.352
	c2.188,0,4.023-1,4.663-3H220v-2.013v-2.098V257H216.51z"/>
<path style="fill:#D6BC69;" d="M318,257.239c0,6.771-4.771,11.761-11.54,11.761h-27.08c-6.77,0-12.38-4.99-12.38-11.761v-12.31
	c0-6.771,4.844-15.058,10.723-18.416l4.494-2.558c5.877-3.358,15.505-3.358,21.384,0.001l4.091,2.556
	C313.571,229.872,318,238.159,318,244.93V257.239z"/>
<path style="fill:#FFE07D;" d="M313.79,257h-41.352H267v4.89v2.098V266h0.775c0.642,2,2.475,3,4.663,3h41.352
	c2.188,0,4.023-1,4.663-3H318v-2.013v-2.098V257H313.79z"/>
<circle style="fill:#E6CA71;" cx="238.197" cy="323.834" r="6.278"/>
<circle style="fill:#E6CA71;" cx="216.409" cy="199.385" r="8.124"/>
<circle style="fill:#E6CA71;" cx="262.916" cy="193.476" r="2.216"/>
<circle style="fill:#E6CA71;" cx="255.959" cy="131.034" r="4.741"/>
<circle style="fill:#E6CA71;" cx="163.715" cy="133.665" r="7.372"/>
<circle style="fill:#E6CA71;" cx="329.041" cy="145.1" r="4.062"/>
<circle style="fill:#E6CA71;" cx="307.991" cy="214.895" r="7.386"/>
<circle style="fill:#E6CA71;" cx="297.098" cy="304.446" r="7.571"/>
<circle style="fill:#E6CA71;" cx="287.403" cy="349.775" r="9.693"/>
<circle style="fill:#E6CA71;" cx="235.725" cy="382.662" r="3.806"/>
<path style="fill:#EDD074;" d="M256.163,512c97.275,0,181.875-54.256,225.197-134.154
	c-130.162-57.428-243.164,24.756-243.164,24.756c-75.739-21.008-146.621-7.645-190.748,1.67C93.851,469.472,170.04,512,256.163,512z
	"/>
<path style="fill:#D9BE6A;" d="M256.163,512c72.98,0,138.827-30.541,185.46-79.537c-59.078-7.526-102.808,33.285-102.808,33.285
	C232.993,428.201,202.217,479.4,202.217,479.4c-32.34-24.408-72.057-24.58-102.257-20.584C143.185,492.156,197.352,512,256.163,512z
	"/>
<circle style="fill:#E6CA71;" cx="397.121" cy="305.369" r="10.382"/>
<circle style="fill:#E6CA71;" cx="406.604" cy="341.418" r="9.814"/>
<circle style="fill:#E6CA71;" cx="431.024" cy="282.592" r="3.413"/>
<circle style="fill:#E6CA71;" cx="379.134" cy="332.819" r="3.419"/>
<path style="fill:#D9BE6A;" d="M174.795,436.693c2.681,2.266,1.457,4.209-2.72,4.317l-8.16,0.214
	c-4.175,0.109-9.373,2.262-11.55,4.783l-4.253,4.925c-2.176,2.521-5.174,2.325-6.66-0.435l-3.041-5.645
	c-1.486-2.759-6.013-5.622-10.06-6.363l-8.036-1.473c-4.047-0.739-4.693-2.858-1.438-4.709l6.283-3.572
	c3.258-1.851,5.647-5.773,5.314-8.716l-0.678-5.964c-0.334-2.943,2.23-4.005,5.7-2.36l7.03,3.332
	c3.472,1.645,9.483,2.089,13.36,0.986l7.481-2.128c3.877-1.103,6.178,0.332,5.115,3.187l-2.113,5.676
	c-1.064,2.857,0.26,7.045,2.939,9.312L174.795,436.693z"/>
<path style="fill:#D6763B;" d="M178.208,436.129c2.681,2.266,1.457,4.209-2.72,4.318l-8.16,0.214
	c-4.175,0.108-9.373,2.262-11.55,4.782l-4.253,4.925c-2.175,2.521-5.174,2.325-6.66-0.433l-3.04-5.646
	c-1.486-2.76-6.014-5.623-10.061-6.364l-8.036-1.472c-4.047-0.74-4.693-2.859-1.437-4.71l6.283-3.573
	c3.257-1.85,5.646-5.772,5.314-8.715l-0.677-5.963c-0.335-2.943,2.23-4.006,5.699-2.361l7.03,3.332
	c3.472,1.645,9.483,2.089,13.36,0.986l7.481-2.127c3.877-1.103,6.179,0.331,5.115,3.186l-2.113,5.676
	c-1.064,2.855,0.26,7.045,2.94,9.31L178.208,436.129z"/>
<path style="fill:#ED8241;" d="M173.233,431.51c2.062,1.743,1.121,3.237-2.092,3.321l-6.278,0.165
	c-3.212,0.083-7.212,1.739-8.885,3.679l-3.273,3.79c-1.673,1.938-3.979,1.787-5.123-0.335l-2.341-4.344
	c-1.143-2.122-4.623-4.325-7.736-4.896l-6.185-1.131c-3.112-0.569-3.61-2.201-1.105-3.624l4.835-2.749
	c2.506-1.424,4.346-4.44,4.089-6.705l-0.523-4.588c-0.257-2.264,1.718-3.08,4.387-1.816l5.408,2.564
	c2.672,1.265,7.295,1.606,10.278,0.758l5.757-1.637c2.98-0.849,4.75,0.256,3.933,2.452l-1.626,4.366
	c-0.817,2.197,0.201,5.42,2.263,7.163L173.233,431.51z"/>
<path style="fill:#FF8C46;" d="M167.435,426.43c1.121,0.945,0.61,1.758-1.137,1.803l-3.409,0.09
	c-1.743,0.045-3.917,0.944-4.827,1.999l-1.776,2.058c-0.91,1.053-2.16,0.971-2.783-0.182l-1.271-2.359
	c-0.619-1.152-2.512-2.35-4.203-2.658l-3.358-0.615c-1.691-0.309-1.962-1.195-0.6-1.968l2.625-1.493
	c1.361-0.773,2.36-2.412,2.22-3.642l-0.281-2.491c-0.141-1.23,0.932-1.675,2.381-0.987l2.938,1.393
	c1.451,0.688,3.963,0.872,5.583,0.411l3.126-0.888c1.621-0.461,2.58,0.138,2.137,1.331l-0.883,2.371
	c-0.443,1.193,0.11,2.944,1.229,3.891L167.435,426.43z"/>
<path style="fill:#E8E8E8;" d="M326.639,421.63c-4.651-0.632-5.554-3.661-2.004-6.733l12.356-10.693
	c3.549-3.072,10.275-5.228,14.949-4.795l15.278,1.42c4.673,0.435,8.376,3.949,8.232,7.811c-0.145,3.861-3.934,8.154-8.418,9.54
	l-11.931,3.689c-4.485,1.386-11.958,2.004-16.61,1.371L326.639,421.63z"/>
<path style="fill:#F2F2F2;" d="M336.991,404.203l-12.356,10.693c-0.35,0.303-0.644,0.603-0.906,0.902l4.524,0.615
	c4.651,0.632,12.125,0.015,16.61-1.371l11.93-3.69c4.484-1.386,8.273-5.68,8.418-9.541c0.016-0.398-0.035-0.791-0.1-1.18
	l-13.17-1.225C347.267,398.975,340.54,401.131,336.991,404.203z"/>
<path style="fill:#EDD074;" d="M392.707,415.66c-42.099-12.541-69.405,13.109-71.358,15.588L392.707,415.66z"/>
<g>
</g>
<g>
</g>
<g>
</g>
<g>
</g>
<g>
</g>
<g>
</g>
<g>
</g>
<g>
</g>
<g>
</g>
<g>
</g>
<g>
</g>
<g>
</g>
<g>
</g>
<g>
</g>
<g>
</g>
</svg>
