<?xml version="1.0" encoding="iso-8859-1"?>
<!-- Generator: Adobe Illustrator 17.0.0, SVG Export Plug-In . SVG Version: 6.00 Build 0)  -->
<!DOCTYPE svg PUBLIC "-//W3C//DTD SVG 1.1//EN" "http://www.w3.org/Graphics/SVG/1.1/DTD/svg11.dtd">
<svg version="1.1" id="Layer_1" xmlns="http://www.w3.org/2000/svg" xmlns:xlink="http://www.w3.org/1999/xlink" x="0px" y="0px"
	 width="512px" height="512px" viewBox="0 0 512 512" style="enable-background:new 0 0 512 512;" xml:space="preserve">
<path id="bg_48_" style="fill:#45B39C;" d="M512,256.002C512,397.382,397.387,512,256.004,512C114.613,512,0,397.382,0,256.002
	C0,114.619,114.613,0,256.004,0C397.387,0,512,114.619,512,256.002z"/>
<path style="fill:#2D8771;" d="M69.802,431.588C116.48,481.07,182.611,512,256.004,512c73.388,0,139.518-30.93,186.193-80.412
	H69.802z"/>
<circle style="fill:#334D5C;" cx="367.523" cy="407.765" r="24.245"/>
<circle cx="367.523" cy="407.765" r="24.245"/>
<circle style="fill:#FFFFFF;" cx="367.523" cy="407.765" r="15.354"/>
<circle cx="367.524" cy="407.765" r="5.923"/>
<polygon style="fill:#EFC84A;" points="351.184,385.267 172.268,385.267 172.268,396 344.809,396 345.908,391.344 "/>
<polygon style="fill:#EFC84A;" points="202.641,391.272 138.362,341.656 138.362,363.201 174.736,391.272 "/>
<polygon style="fill:#E27C3E;" points="193.259,384.031 147.744,348.896 147.744,364.153 173.5,384.031 "/>
<path style="fill:#EFC84A;" d="M344.809,395.75l0.176,0.051c4.291-8.066,12.768-13.56,22.54-13.56
	c8.173,0,15.436,3.862,20.104,9.838l1.738-3.249c-5.303-6.115-13.113-9.998-21.843-9.998c-10.767,0-20.137,5.893-25.121,14.613
	L344.809,395.75z"/>
<rect x="125.297" y="404.588" style="fill:#334D5C;" width="25.506" height="2.944"/>
<rect x="125.044" y="364.338" style="fill:#334D5C;" width="25.429" height="2.633"/>
<rect x="132.146" y="124.957" style="fill:#FFFFFF;" width="11.329" height="243.63"/>
<rect x="137.755" y="124.957" style="fill:#D3D3D3;" width="2.647" height="243.63"/>
<rect x="130.787" y="368.494" style="fill:#FFFFFF;" width="13.962" height="2.558"/>
<rect x="128.706" y="227.121" style="fill:#334D5C;" width="18.122" height="2.56"/>
<path style="fill:#334D5C;" d="M128.7,403.581c0,2.189-1.771,3.96-3.96,3.96l0,0c-2.188,0-3.96-1.771-3.96-3.96v-35.283
	c0-2.188,1.772-3.96,3.96-3.96l0,0c2.189,0,3.96,1.772,3.96,3.96V403.581z"/>
<path style="fill:#334D5C;" d="M155.135,403.581c0,2.189-1.771,3.96-3.96,3.96l0,0c-2.189,0-3.96-1.771-3.96-3.96v-35.283
	c0-2.188,1.771-3.96,3.96-3.96l0,0c2.188,0,3.96,1.772,3.96,3.96V403.581z"/>
<path style="fill:#E27C3E;" d="M130.066,376.531c-0.201,0.634-0.878,0.984-1.518,0.779l-8.6-2.75
	c-0.631-0.202-0.985-0.878-0.783-1.513l0,0c0.209-0.637,0.885-0.988,1.521-0.783l8.597,2.748
	C129.924,375.215,130.27,375.893,130.066,376.531L130.066,376.531z"/>
<path style="fill:#E27C3E;" d="M130.066,381.432c-0.201,0.637-0.878,0.988-1.518,0.78l-8.6-2.749
	c-0.631-0.202-0.985-0.878-0.783-1.515l0,0c0.209-0.635,0.885-0.985,1.521-0.783l8.597,2.748
	C129.924,380.119,130.27,380.798,130.066,381.432L130.066,381.432z"/>
<path style="fill:#E27C3E;" d="M130.066,386.336c-0.201,0.637-0.878,0.985-1.518,0.779l-8.6-2.748
	c-0.631-0.202-0.985-0.878-0.783-1.516l0,0c0.209-0.637,0.885-0.985,1.521-0.783l8.597,2.748
	C129.924,385.02,130.27,385.701,130.066,386.336L130.066,386.336z"/>
<path style="fill:#E27C3E;" d="M130.066,391.239c-0.201,0.638-0.878,0.986-1.518,0.78l-8.6-2.748
	c-0.631-0.203-0.985-0.878-0.783-1.516l0,0c0.209-0.637,0.885-0.986,1.521-0.783l8.597,2.748
	C129.924,389.924,130.27,390.602,130.066,391.239L130.066,391.239z"/>
<path style="fill:#E27C3E;" d="M130.066,396.143c-0.201,0.634-0.878,0.987-1.518,0.781l-8.6-2.747
	c-0.631-0.206-0.985-0.882-0.783-1.516l0,0c0.209-0.638,0.885-0.987,1.521-0.783l8.597,2.748
	C129.924,394.827,130.27,395.506,130.066,396.143L130.066,396.143z"/>
<path style="fill:#E27C3E;" d="M130.066,401.047c-0.201,0.635-0.878,0.986-1.518,0.777l-8.6-2.748
	c-0.631-0.203-0.985-0.879-0.783-1.517l0,0c0.209-0.633,0.885-0.985,1.521-0.783l8.597,2.749
	C129.924,399.731,130.27,400.41,130.066,401.047L130.066,401.047z"/>
<path style="fill:#E27C3E;" d="M156.457,376.531c-0.205,0.634-0.882,0.984-1.521,0.779l-8.596-2.75
	c-0.635-0.202-0.986-0.878-0.783-1.513l0,0c0.205-0.637,0.884-0.988,1.518-0.783l8.6,2.748
	C156.311,375.215,156.659,375.893,156.457,376.531L156.457,376.531z"/>
<path style="fill:#E27C3E;" d="M156.457,381.432c-0.205,0.637-0.882,0.988-1.521,0.78l-8.596-2.749
	c-0.635-0.202-0.986-0.878-0.783-1.515l0,0c0.205-0.635,0.884-0.985,1.518-0.783l8.6,2.748
	C156.311,380.119,156.659,380.798,156.457,381.432L156.457,381.432z"/>
<path style="fill:#E27C3E;" d="M156.457,386.336c-0.205,0.637-0.882,0.985-1.521,0.779l-8.596-2.748
	c-0.635-0.202-0.986-0.878-0.783-1.516l0,0c0.205-0.637,0.884-0.985,1.518-0.783l8.6,2.748
	C156.311,385.02,156.659,385.701,156.457,386.336L156.457,386.336z"/>
<path style="fill:#E27C3E;" d="M156.457,391.239c-0.205,0.638-0.882,0.986-1.521,0.78l-8.596-2.748
	c-0.635-0.203-0.986-0.878-0.783-1.516l0,0c0.205-0.637,0.884-0.986,1.518-0.783l8.6,2.748
	C156.311,389.924,156.659,390.602,156.457,391.239L156.457,391.239z"/>
<path style="fill:#E27C3E;" d="M156.457,396.143c-0.205,0.634-0.882,0.987-1.521,0.781l-8.596-2.747
	c-0.635-0.206-0.986-0.882-0.783-1.516l0,0c0.205-0.638,0.884-0.987,1.518-0.783l8.6,2.748
	C156.311,394.827,156.659,395.506,156.457,396.143L156.457,396.143z"/>
<path style="fill:#E27C3E;" d="M156.457,401.047c-0.205,0.635-0.882,0.986-1.521,0.777l-8.596-2.748
	c-0.635-0.203-0.986-0.879-0.783-1.517l0,0c0.205-0.633,0.884-0.985,1.518-0.783l8.6,2.749
	C156.311,399.731,156.659,400.41,156.457,401.047L156.457,401.047z"/>
<rect x="110.162" y="120.64" style="fill:#FFFFFF;" width="55.427" height="6.253"/>
<path d="M144.874,424.76c0,3.857-3.126,6.983-6.981,6.983l0,0c-3.859,0-6.982-3.126-6.982-6.983v-34.271
	c0-3.856,3.123-6.979,6.982-6.979l0,0c3.855,0,6.981,3.123,6.981,6.979V424.76z"/>
<path style="fill:#334D5C;" d="M93.971,123.763c0-2.924,2.373-5.296,5.3-5.296h22.579c2.924,0,5.297,2.373,5.297,5.296l0,0
	c0,2.93-2.373,5.299-5.297,5.299H99.271C96.344,129.062,93.971,126.692,93.971,123.763L93.971,123.763z"/>
<path style="fill:#334D5C;" d="M148.314,123.763c0-2.924,2.373-5.296,5.3-5.296h22.578c2.924,0,5.297,2.373,5.297,5.296l0,0
	c0,2.93-2.373,5.299-5.297,5.299h-22.578C150.686,129.062,148.314,126.692,148.314,123.763L148.314,123.763z"/>
<g>
</g>
<g>
</g>
<g>
</g>
<g>
</g>
<g>
</g>
<g>
</g>
<g>
</g>
<g>
</g>
<g>
</g>
<g>
</g>
<g>
</g>
<g>
</g>
<g>
</g>
<g>
</g>
<g>
</g>
</svg>
