<?xml version="1.0" encoding="iso-8859-1"?>
<!-- Generator: Adobe Illustrator 17.0.0, SVG Export Plug-In . SVG Version: 6.00 Build 0)  -->
<!DOCTYPE svg PUBLIC "-//W3C//DTD SVG 1.1//EN" "http://www.w3.org/Graphics/SVG/1.1/DTD/svg11.dtd">
<svg version="1.1" id="Layer_1" xmlns="http://www.w3.org/2000/svg" xmlns:xlink="http://www.w3.org/1999/xlink" x="0px" y="0px"
	 width="512px" height="512px" viewBox="0 0 512 512" style="enable-background:new 0 0 512 512;" xml:space="preserve">
<path id="bg_57_" style="fill:#45B39C;" d="M512,256c0,141.383-114.613,256-256,256C114.615,512,0,397.383,0,256
	C0,114.621,114.615,0,256,0C397.387,0,512,114.621,512,256z"/>
<path style="fill:#61C9B0;" d="M116.482,293.537c-3.334,0-6.549,0.494-9.605,1.363c-4.546-19.13-21.703-33.377-42.227-33.377
	c-23.994,0-43.447,19.452-43.447,43.447c0,5.726,1.136,11.181,3.149,16.185c-5.15,2.033-9.688,5.261-13.311,9.319
	c15.925,52.442,48.207,97.753,90.932,129.99h48.049V338.824c0.986-3.236,1.525-6.666,1.525-10.225
	C151.547,309.234,135.848,293.537,116.482,293.537z"/>
<path style="fill:#61C9B0;" d="M380.725,479.549c58.086-32.476,102.17-86.909,121.09-152.083
	c-4.723-6.312-11.881-10.704-20.08-11.788c1.697-5.044,2.658-10.428,2.658-16.043c0-27.782-22.525-50.307-50.309-50.307
	c-27.783,0-50.307,22.524-50.307,50.307c0,10.794,3.432,20.771,9.218,28.965h-12.27V479.549z"/>
<path style="fill:#61C9B0;" d="M451.387,324.532H81.445v118.649C127.178,485.85,188.521,512,256,512
	c78.348,0,148.429-35.232,195.387-90.673V324.532z"/>
<rect x="116.269" y="249.811" style="fill:#EFC84A;" width="279.463" height="191.722"/>
<path style="fill:#892018;" d="M408.906,442v-14.423c0-8.546-6.928-15.471-15.471-15.471H118.309
	c-8.545,0-15.473,6.925-15.473,15.471V442H408.906z"/>
<path style="fill:#B2902F;" d="M242.402,249.811c-49.42,2.292-100.445,4.605-126.134,5.615v126.861L395.731,285.9v-12.651
	l-22.585-23.438H242.402z"/>
<rect x="288.205" y="283.92" style="fill:#60110E;" width="75.744" height="128.439"/>
<rect x="295.732" y="283.92" style="fill:#2893C0;" width="60.689" height="60.692"/>
<rect x="295.732" y="351.314" style="fill:#2893C0;" width="60.689" height="60.69"/>
<polygon style="fill:#50BCE2;" points="325.582,351.315 299.428,351.315 318.498,412.005 344.652,412.005 "/>
<polygon style="fill:#50BCE2;" points="331.85,351.315 350.917,412.005 356.422,412.005 356.422,402.238 340.422,351.315 "/>
<polygon style="fill:#50BCE2;" points="295.732,339.551 297.318,344.612 323.477,344.612 304.405,283.92 295.732,283.92 "/>
<polygon style="fill:#50BCE2;" points="329.74,344.612 338.316,344.612 319.245,283.92 310.67,283.92 "/>
<rect x="136.004" y="277.45" style="fill:#60110E;" width="127.381" height="77.274"/>
<rect x="143.063" y="277.45" style="fill:#2893C0;" width="113.266" height="68.806"/>
<path style="fill:#60110E;" d="M348.005,339.593c0-2.064,1.677-3.739,3.739-3.739c2.066,0,3.744,1.676,3.744,3.739
	c0,2.066-1.678,3.739-3.744,3.739C349.682,343.332,348.005,341.659,348.005,339.593z"/>
<polygon style="fill:#50BCE2;" points="211.549,291.28 185.395,291.28 202.67,346.256 228.821,346.256 "/>
<polygon style="fill:#50BCE2;" points="226.389,291.28 217.814,291.28 235.092,346.256 243.643,346.256 "/>
<path style="fill:#892018;" d="M411.471,102.791c0-7.798-6.322-14.116-14.117-14.116H114.975c-7.795,0-14.115,6.318-14.115,14.116
	v72.332c0,7.795,6.32,14.113,14.115,14.113h282.379c7.795,0,14.117-6.318,14.117-14.113V102.791z"/>
<path style="fill:#E45136;" d="M411.023,160.891H100.979L78.395,275.92c0,13.901,11.27,25.171,25.172,25.171
	s25.17-11.27,25.17-25.171l0.469-4.023v4.023c0,13.901,11.271,25.171,25.172,25.171c13.902,0,25.172-11.27,25.172-25.171
	l0.469-4.023v4.023c0,13.901,11.27,25.171,25.172,25.171c13.901,0,25.172-11.27,25.172-25.171l0.467-4.023v4.023
	c0,13.901,11.27,25.171,25.172,25.171c13.902,0,25.172-11.27,25.172-25.171v-4.023l0.467,4.023
	c0,13.901,11.271,25.171,25.172,25.171c13.902,0,25.172-11.27,25.172-25.171v-4.023l0.469,4.023
	c0,13.901,11.27,25.171,25.172,25.171c13.9,0,25.172-11.27,25.172-25.171v-4.023l0.467,4.023c0,13.901,11.27,25.171,25.172,25.171
	c13.902,0,25.172-11.27,25.172-25.171L411.023,160.891z"/>
<path style="fill:#FFFFFF;" d="M139.888,160.891L129.205,272.01v3.91c0,13.901,11.271,25.171,25.172,25.171
	c13.902,0,25.172-11.27,25.172-25.171l0.469-4.023v4.023c0,3.861,0.895,7.506,2.449,10.775l7.879-125.805H139.888z"/>
<path style="fill:#FFFFFF;" d="M128.542,278.93c0.038-0.321,0.065-0.646,0.094-0.977L128.542,278.93z"/>
<path style="fill:#FFFFFF;" d="M329.545,286.674c1.548-3.263,2.438-6.898,2.438-10.754v-4.023l0.469,4.023
	c0,13.901,11.27,25.171,25.172,25.171c13.9,0,25.172-11.27,25.172-25.171v-4.023v0.01l-10.672-111.016h-50.457L329.545,286.674z"/>
<path style="fill:#FFFFFF;" d="M383.488,279.126l-0.135-1.414C383.387,278.189,383.428,278.656,383.488,279.126z"/>
<path style="fill:#E45136;" d="M186.945,160.891l-7.08,112.316l0.152-1.31v4.023c0,13.901,11.27,25.171,25.172,25.171
	c13.901,0,25.172-11.27,25.172-25.171l0.467-4.023v4.023c0,2.652,0.417,5.207,1.18,7.607l3.754-122.637H186.945z"/>
<path style="fill:#E45136;" d="M280.004,283.503c0.758-2.393,1.168-4.939,1.168-7.583v-4.023l0.467,4.023
	c0,13.901,11.271,25.171,25.172,25.171c13.902,0,25.172-11.27,25.172-25.171v-4.023l0.176,1.518l-7.096-112.524h-48.815
	L280.004,283.503z"/>
<path style="fill:#FFFFFF;" d="M230.795,272.194l0.033-0.298v4.023c0,13.901,11.27,25.171,25.172,25.171
	c13.643,0,24.723-10.858,25.133-24.4l-1.801-115.8h-46.807L230.795,272.194z"/>
<path style="fill:#B23424;" d="M78.395,275.92c0,13.901,11.27,25.171,25.172,25.171s25.17-11.27,25.17-25.171l0.469-4.023v4.023
	c0,13.901,11.271,25.171,25.172,25.171c13.902,0,25.172-11.27,25.172-25.171l0.469-4.023v4.023c0,13.901,11.27,25.171,25.172,25.171
	c13.901,0,25.172-11.27,25.172-25.171l0.467-4.023v4.023c0,13.901,11.27,25.171,25.172,25.171c13.902,0,25.172-11.27,25.172-25.171
	v-4.023l0.467,4.023c0,13.901,11.271,25.171,25.172,25.171c13.902,0,25.172-11.27,25.172-25.171v-4.023l0.469,4.023
	c0,13.901,11.27,25.171,25.172,25.171c13.9,0,25.172-11.27,25.172-25.171v-4.023l0.467,4.023c0,13.901,11.27,25.171,25.172,25.171
	c13.902,0,25.172-11.27,25.172-25.171l-0.971-4.938H79.363L78.395,275.92z"/>
<path style="fill:#C1C1C1;" d="M329.545,286.674c1.548-3.263,2.438-6.898,2.438-10.754v-4.023l0.469,4.023
	c0,13.901,11.27,25.171,25.172,25.171c13.9,0,25.172-11.27,25.172-25.171v-4.023v0.01l-0.09-0.924h-54.143L329.545,286.674z"/>
<path style="fill:#B23424;" d="M280.004,283.503c0.758-2.393,1.168-4.939,1.168-7.583v-4.023l0.467,4.023
	c0,13.901,11.271,25.171,25.172,25.171c13.902,0,25.172-11.27,25.172-25.171v-4.023l0.176,1.518l-0.154-2.433h-52.381
	L280.004,283.503z"/>
<path style="fill:#C1C1C1;" d="M129.293,270.982l-0.169,1.439l-0.015,0.307l0.096-0.831v4.023c0,13.901,11.271,25.171,25.172,25.171
	c13.902,0,25.172-11.27,25.172-25.171l0.469-4.023v4.023c0,3.444,0.696,6.726,1.947,9.715l6.219-14.652H129.293z"/>
<path style="fill:#B23424;" d="M180.006,270.982l-0.141,2.225l0.152-1.31v4.023c0,13.901,11.27,25.171,25.172,25.171
	c13.901,0,25.172-11.27,25.172-25.171l0.467-4.023v4.023c0,2.652,0.417,5.207,1.18,7.607l0.381-12.545H180.006z"/>
<path style="fill:#C1C1C1;" d="M230.795,272.194l0.033-0.298v4.023c0,13.901,11.27,25.171,25.172,25.171
	c13.643,0,24.723-10.858,25.133-24.4l-0.089-5.708h-50.231L230.795,272.194z"/>
<rect x="112.307" y="99.85" style="fill:#E0746C;" width="287.832" height="51.186"/>
<polygon style="fill:#B74B48;" points="112.307,99.85 112.307,103.622 396.363,103.622 396.363,151.035 400.139,151.035 
	400.139,99.85 "/>
<polygon style="opacity:0.3;fill:#892018;" points="411.023,160.891 100.979,160.891 86.395,235.174 "/>
<g>
</g>
<g>
</g>
<g>
</g>
<g>
</g>
<g>
</g>
<g>
</g>
<g>
</g>
<g>
</g>
<g>
</g>
<g>
</g>
<g>
</g>
<g>
</g>
<g>
</g>
<g>
</g>
<g>
</g>
</svg>
