<?xml version="1.0" encoding="iso-8859-1"?>
<!-- Generator: Adobe Illustrator 17.0.0, SVG Export Plug-In . SVG Version: 6.00 Build 0)  -->
<!DOCTYPE svg PUBLIC "-//W3C//DTD SVG 1.1//EN" "http://www.w3.org/Graphics/SVG/1.1/DTD/svg11.dtd">
<svg version="1.1" id="Layer_1" xmlns="http://www.w3.org/2000/svg" xmlns:xlink="http://www.w3.org/1999/xlink" x="0px" y="0px"
	 width="512px" height="512px" viewBox="0 0 512 512" style="enable-background:new 0 0 512 512;" xml:space="preserve">
<pattern  x="1075" y="-3886" width="30" height="30" patternUnits="userSpaceOnUse" id="New_Pattern_Swatch_2" viewBox="0 -30 30 30" style="overflow:visible;">
	<g>
		<polygon style="fill:none;" points="0,0 30,0 30,-30 0,-30 		"/>
		<g>
			<polygon style="fill:#B0B3B3;" points="30,-30 22.929,-30 0,-7.071 0,0 7.071,0 30,-22.929 			"/>
			<polygon style="fill:#B0B3B3;" points="30,-7.071 22.929,0 30,0 			"/>
			<polygon style="fill:#B0B3B3;" points="0,-30 0,-22.929 7.071,-30 			"/>
		</g>
	</g>
</pattern>
<g>
	<circle style="fill:#334D5C;" cx="256" cy="256" r="256"/>
	<polygon style="fill:#A0834C;" points="377.851,86 134.085,86 168.457,107.354 134.085,128 377,128 343.478,107.354 	"/>
	<polygon style="fill:#C6A961;" points="134.085,86.291 145.544,132.123 168.457,106.441 	"/>
	<polygon style="fill:#D2B265;" points="134.085,128 168,106.82 168,128 	"/>
	<polygon style="fill:#C6A961;" points="377.851,86.291 366.392,132.123 343.478,106.441 	"/>
	<polygon style="fill:#D2B265;" points="377,128 343,106.82 343,128 	"/>
	<polygon style="fill:#C6A961;" points="377,128 256.165,128 133,128 133,355 377,355 	"/>
	<circle style="fill:#DFE3E3;" cx="196.311" cy="163.885" r="9.481"/>
	<path style="fill:#998553;" d="M196.31,169.811c-3.266,0-5.926-2.658-5.926-5.926c0-3.268,2.66-5.926,5.926-5.926
		c3.268,0,5.928,2.658,5.928,5.926C202.237,167.152,199.577,169.811,196.31,169.811z"/>
	<circle style="fill:#DFE3E3;" cx="316.02" cy="163.885" r="9.482"/>
	<path style="fill:#998553;" d="M316.021,169.811c-3.268,0-5.928-2.658-5.928-5.926c0-3.268,2.659-5.926,5.928-5.926
		c3.268,0,5.926,2.658,5.926,5.926C321.946,167.152,319.288,169.811,316.021,169.811z"/>
	<path style="fill:#ECF0F0;" d="M191.167,163.652c-3.994,22.437-3.715,46.98,2.365,68.959c4.461,16.126,13.355,30.971,27.684,40.08
		c16.508,10.494,39.584,11.485,57.824,5.453c44.908-14.852,48.995-75.088,42.121-114.492c-1.178-6.768-11.457-3.891-10.284,2.835
		c0.534,3.073,0.364,2.162,0.724,5.292c0.621,5.434,0.975,10.896,1.137,16.361c0.449,15.299-0.863,30.77-5.615,45.385
		c-5.019,15.436-15.256,28.802-30.918,34.334c-17.242,6.088-39.719,4.243-54.15-7.621c-16.613-13.656-21.337-37.078-22.418-57.474
		c-0.459-8.661-0.197-17.364,0.558-26.001c0.134-1.498,0.288-2.994,0.455-4.488c0.071-0.63,0.148-1.258,0.226-1.888
		c0.183-1.472,0.09-0.711,0.119-0.922c0.139-0.994,0.283-1.989,0.461-2.979C202.649,159.764,192.37,156.889,191.167,163.652
		L191.167,163.652z"/>
	<pattern  id="SVGID_1_" xlink:href="#New_Pattern_Swatch_2" patternTransform="matrix(0.3601 0 0 0.3601 -5735.4551 -2705.5935)">
	</pattern>
	<path style="fill:url(#SVGID_1_);" d="M191.167,163.652c-3.994,22.437-3.715,46.98,2.365,68.959
		c4.461,16.126,13.355,30.971,27.684,40.08c16.508,10.494,39.584,11.485,57.824,5.453c44.908-14.852,48.995-75.088,42.121-114.492
		c-1.178-6.768-11.457-3.891-10.284,2.835c0.534,3.073,0.364,2.162,0.724,5.292c0.621,5.434,0.975,10.896,1.137,16.361
		c0.449,15.299-0.863,30.77-5.615,45.385c-5.019,15.436-15.256,28.802-30.918,34.334c-17.242,6.088-39.719,4.243-54.15-7.621
		c-16.613-13.656-21.337-37.078-22.418-57.474c-0.459-8.661-0.197-17.364,0.558-26.001c0.134-1.498,0.288-2.994,0.455-4.488
		c0.071-0.63,0.148-1.258,0.226-1.888c0.183-1.472,0.09-0.711,0.119-0.922c0.139-0.994,0.283-1.989,0.461-2.979
		C202.649,159.764,192.37,156.889,191.167,163.652L191.167,163.652z"/>
	<path style="fill:#A0834C;" d="M279.04,278.145c-18.24,6.032-41.316,5.041-57.824-5.453c-14.329-9.109-23.223-23.954-27.684-40.08
		c-3.027-10.942-4.613-22.52-4.953-34.155c-0.414,14.783,1.104,29.722,4.953,43.636c4.461,16.127,13.355,30.973,27.684,40.082
		c16.508,10.492,39.584,11.484,57.824,5.453c35.837-11.852,45.665-52.598,44.688-88.602
		C322.797,232.418,311.757,267.323,279.04,278.145z"/>
	<path style="fill:#D2B265;" d="M382.755,417.409L377.3,355H132.7l-5.447,62.409c-0.378,6.749,4.834,12.591,11.594,12.591h232.307
		C377.913,430,383.136,424.158,382.755,417.409z"/>
</g>
<g>
</g>
<g>
</g>
<g>
</g>
<g>
</g>
<g>
</g>
<g>
</g>
<g>
</g>
<g>
</g>
<g>
</g>
<g>
</g>
<g>
</g>
<g>
</g>
<g>
</g>
<g>
</g>
<g>
</g>
</svg>
