<?xml version="1.0" encoding="iso-8859-1"?>
<!-- Generator: Adobe Illustrator 17.0.0, SVG Export Plug-In . SVG Version: 6.00 Build 0)  -->
<!DOCTYPE svg PUBLIC "-//W3C//DTD SVG 1.1//EN" "http://www.w3.org/Graphics/SVG/1.1/DTD/svg11.dtd">
<svg version="1.1" id="Layer_1" xmlns="http://www.w3.org/2000/svg" xmlns:xlink="http://www.w3.org/1999/xlink" x="0px" y="0px"
	 width="511.999px" height="512.001px" viewBox="0 0 511.999 512.001" style="enable-background:new 0 0 511.999 512.001;"
	 xml:space="preserve">
<path id="bg_16_" style="fill:#334D5C;" d="M511.999,256.544C511.7,397.924,396.844,512.301,255.46,512.001
	C114.073,511.7-0.298,396.836,0.001,255.458C0.301,114.081,115.155-0.3,256.542,0.001
	C397.926,0.301,512.297,115.165,511.999,256.544z"/>
<path style="fill:#53737F;" d="M255.86,321.801c-86.895-0.184-168.885,6.822-241.305,19.348
	c35.031,99.322,129.57,170.615,240.904,170.852c111.332,0.234,206.17-70.656,241.621-169.83
	C424.717,329.335,342.756,321.983,255.86,321.801z"/>
<path style="fill:#415E6D;" d="M255.846,329.999c82.473,0.172,160.951,12.25,232.316,33.791c3.277-7.045,6.283-14.24,8.918-21.619
	c-72.363-12.836-154.324-20.188-241.221-20.369c-86.895-0.184-168.885,6.822-241.305,19.348c2.607,7.387,5.582,14.6,8.828,21.656
	C94.84,341.567,173.368,329.827,255.846,329.999z"/>
<path style="fill:#FFFFFF;" d="M74.897,75.088c1.119,8.971,4.4,15.609,8.773,19.855c9.404,9.135,24.107,8.885,38.381-0.654
	c13.441-8.992,27.057-10.6,33.893-4.002c5.26,5.08,18.418,28.113-33.088,111.316c-20.1,32.475-24.756,56.754-13.84,72.162
	c9.662,13.637,29.733,18.395,52.906,18.441c20.611,0.045,43.682-3.641,64.055-8.115l0.967-0.211l-1.455-6.664l-0.973,0.211
	c-57.488,12.627-97.559,9.861-109.934-7.607c-9.182-12.961-4.447-34.705,14.076-64.627c50.814-82.088,41.875-110.301,32.023-119.812
	c-9.338-9.016-25.994-7.748-42.424,3.236c-11.613,7.762-22.768,8.297-29.834,1.436c-4.418-4.289-7.082-11.416-7.203-21.014
	C79.09,71.032,76.958,73.024,74.897,75.088z"/>
<path style="fill:#939FA7;" d="M176.049,48.999c5.482-1.104,14.398-1.891,14.398-1.891s-9.037-0.721-14.482-1.807
	c0.672-3.082,2.586-7.906,2.586-7.906s-4.652,1.822-7.742,2.508c-1.025-5.518-1.674-14.447-1.674-14.447s-0.648,9.158-1.721,14.498
	c-3.068-0.646-7.998-2.6-7.998-2.6s1.754,4.48,2.469,7.566c-5.576,1.086-14.406,1.852-14.406,1.852s8.908,0.869,14.428,2.031
	c-0.705,3.09-2.531,7.684-2.531,7.684s4.764-1.863,7.852-2.531c1.008,5.402,1.566,14.471,1.566,14.471s0.795-9.105,1.938-14.449
	c3.088,0.688,7.777,2.553,7.777,2.553S176.768,52.092,176.049,48.999z"/>
<path style="fill:#939FA7;" d="M431.088,262.774c3.742-0.754,9.826-1.291,9.826-1.291s-6.168-0.488-9.883-1.234
	c0.457-2.102,1.764-5.396,1.764-5.396s-3.174,1.242-5.281,1.713c-0.703-3.77-1.145-9.861-1.145-9.861s-0.443,6.252-1.174,9.896
	c-2.096-0.443-5.459-1.773-5.459-1.773s1.197,3.057,1.686,5.162c-3.807,0.742-9.832,1.266-9.832,1.266s6.08,0.592,9.846,1.385
	c-0.48,2.107-1.727,5.244-1.727,5.244s3.252-1.272,5.357-1.73c0.688,3.689,1.07,9.875,1.07,9.875s0.543-6.211,1.32-9.857
	c2.109,0.471,5.311,1.738,5.311,1.738S431.579,264.883,431.088,262.774z"/>
<path style="fill:#9B9B9B;" d="M294.397,348.671c-6.229,13.629-22.32,19.625-35.949,13.398l-83.277-38.049
	c-13.629-6.223-19.629-22.32-13.406-35.943l60.6-132.637c6.225-13.625,22.318-19.623,35.949-13.395l83.279,38.049
	c13.625,6.227,19.627,22.312,13.4,35.943L294.397,348.671z"/>
<rect x="255.417" y="174.242" transform="matrix(0.9096 0.4156 -0.4156 0.9096 107.1372 -100.7427)" style="fill:#FFFFFF;" width="59.202" height="43.053"/>
<path style="fill:#FFFFFF;" d="M251.645,118.524c3.73-8.162,12.488-12.164,19.566-8.934c7.076,3.234,9.787,12.473,6.055,20.641
	c-3.73,8.166-12.494,12.172-19.57,8.936C250.622,135.932,247.913,126.688,251.645,118.524z"/>
<path style="fill:#FFFFFF;" d="M360.719,168.36c3.73-8.168,1.02-17.408-6.053-20.643c-7.076-3.229-15.838,0.768-19.574,8.938
	c-3.728,8.166-1.014,17.41,6.059,20.641C348.225,180.526,356.985,176.528,360.719,168.36z"/>
<path style="fill:#E45136;" d="M356.415,148.717c-6.676-1.807-14.258,2.152-17.664,9.605c-3.402,7.447-1.435,15.775,4.305,19.637
	c1.555,0.426,3.158,0.539,4.742,0.363c4.143-4.342,7.656-9.414,10.289-15.182c1.283-2.805,2.297-5.666,3.08-8.553
	C360.159,152.196,358.544,150.157,356.415,148.717z"/>
<path style="fill:#E45136;" d="M269.307,108.92c-2.428-0.658-4.969-0.551-7.393,0.209c-1.693,2.5-3.209,5.172-4.51,8.012
	c-2.643,5.791-4.184,11.795-4.746,17.787c0.889,1.266,1.992,2.361,3.291,3.236c6.672,1.809,14.26-2.152,17.662-9.604
	C277.012,121.114,275.044,112.782,269.307,108.92z"/>
<path style="fill:#FFFFFF;" d="M260.518,118.565c11.914-26.08,42.721-37.564,68.801-25.648c26.08,11.92,37.564,42.719,25.648,68.797
	c-11.914,26.084-42.719,37.564-68.801,25.654C260.085,175.452,248.606,144.641,260.518,118.565z"/>
<path style="fill:#C6C6C6;" d="M291.874,185.376c-23.98-10.953-34.539-39.281-23.586-63.262
	c10.957-23.979,39.285-34.541,63.268-23.582c19.303,8.82,29.885,28.895,27.576,48.891c3.152-22.186-8.391-44.715-29.812-54.506
	c-26.08-11.916-56.887-0.432-68.801,25.648c-11.912,26.076-0.434,56.887,25.648,68.803c21.424,9.781,46.014,3.758,60.723-13.148
	C333.278,189.063,311.18,194.198,291.874,185.376z"/>
<path d="M270.174,122.975c9.479-20.744,33.984-29.883,54.734-20.406c20.754,9.484,29.885,33.982,20.404,54.736
	c-9.478,20.746-33.982,29.887-54.734,20.41C269.829,168.229,260.696,143.725,270.174,122.975z"/>
<path style="fill:#A0DCEA;" d="M271.706,123.676c9.094-19.904,32.6-28.67,52.502-19.57c19.908,9.094,28.67,32.598,19.578,52.502
	c-9.094,19.904-32.602,28.67-52.508,19.574C271.374,167.083,262.61,143.581,271.706,123.676z"/>
<path style="fill:#FFFFFF;" d="M274.231,148.512c-1.422-0.652-2.486-1.992-2.707-3.66c-0.883-6.77,0.158-13.65,3.006-19.887
	c6.266-13.713,20.576-22.258,35.615-21.27c2.582,0.17,4.539,2.404,4.369,4.99c-0.172,2.578-2.402,4.537-4.986,4.365
	c-11.176-0.74-21.812,5.621-26.469,15.812c-2.119,4.633-2.893,9.746-2.232,14.777c0.334,2.561-1.475,4.918-4.045,5.256
	C275.879,149.01,275.003,148.866,274.231,148.512z"/>
<path style="fill:#FFFFFF;" d="M450.92,176.979c-6.049-7.219-16.807-8.166-24.027-2.115c-0.256,0.213-25.883,21.676-46.986,38.369
	c-13.312,10.535-22.781,8.445-30.287,5.016l-40.074-18.309c-0.072-0.031-0.148-0.039-0.219-0.074l-33.934-15.502
	c-0.17-0.086-0.312-0.203-0.486-0.285l-47.797-21.84c-10.756-4.916-9.768-11.531-8.359-15.301l34.637-75.816
	c3.916-8.568,0.143-18.684-8.424-22.605c-8.566-3.908-18.686-0.137-22.602,8.432l-34.726,76.008
	c-4.211,9.223-9.23,23.012-4.189,36.283c4.443,11.695,14.295,17.146,22.512,20.898c1.037,0.471,2.047,0.92,3.018,1.35
	c0.957,0.422,1.926,0.854,2.891,1.295l17.453,7.971l-48.455,106.049l89.199,40.756l48.44-106.025l16.941,7.742
	c28.232,12.9,51.27,2.066,65.627-9.287c21.473-16.992,47.471-38.762,47.73-38.982C456.022,194.961,456.969,184.198,450.92,176.979z"
	/>
<path style="fill:#FFFFFF;" d="M450.92,176.979c-6.049-7.219-16.807-8.166-24.027-2.115c-0.256,0.213-25.883,21.676-46.986,38.369
	c-13.312,10.535-22.781,8.445-30.287,5.016l-40.074-18.309c-0.072-0.031-0.148-0.039-0.219-0.074l-33.934-15.502
	c-0.17-0.086-0.312-0.203-0.486-0.285l-47.797-21.84c-10.756-4.916-9.768-11.531-8.359-15.301l34.637-75.816
	c3.916-8.568,0.143-18.684-8.424-22.605c-8.566-3.908-18.686-0.137-22.602,8.432l-34.726,76.008
	c-4.211,9.223-9.23,23.012-4.189,36.283c4.443,11.695,14.295,17.146,22.512,20.898c1.037,0.471,2.047,0.92,3.018,1.35
	c0.957,0.422,1.926,0.854,2.891,1.295l17.453,7.971l-48.455,106.049l89.199,40.756l48.44-106.025l16.941,7.742
	c28.232,12.9,51.27,2.066,65.627-9.287c21.473-16.992,47.471-38.762,47.73-38.982C456.022,194.961,456.969,184.198,450.92,176.979z"
	/>
<path style="fill:#C6C6C6;" d="M388.825,217.313c21.105-16.701,46.73-38.156,46.988-38.377c3.832-3.213,8.654-4.395,13.246-3.771
	c-6.217-5.471-15.623-5.787-22.166-0.301c-0.256,0.213-25.883,21.676-46.986,38.369c-13.312,10.535-22.781,8.445-30.287,5.016
	l8.92,4.076C366.045,225.754,375.514,227.84,388.825,217.313z"/>
<path style="fill:#C6C6C6;" d="M318.465,204.016l-8.92-4.076c-0.072-0.031-0.148-0.039-0.219-0.074l8.918,4.076
	C318.317,203.973,318.393,203.979,318.465,204.016z"/>
<polygon style="fill:#C6C6C6;" points="229.319,200.753 180.864,306.801 189.786,310.874 238.239,204.823 "/>
<path style="fill:#C6C6C6;" d="M192.366,173.315c-5.041-13.271-0.025-27.062,4.189-36.283l34.727-76.01
	c3.203-7.01,10.551-10.723,17.809-9.734c-1.227-1.076-2.564-2.051-4.127-2.771c-8.566-3.908-18.686-0.137-22.602,8.432
	l-34.726,76.008c-4.211,9.223-9.23,23.012-4.189,36.283c4.443,11.695,14.295,17.146,22.512,20.898
	c1.037,0.471,2.047,0.92,3.018,1.35c0.939,0.414,1.891,0.834,2.836,1.262C204.338,189.036,196.266,183.59,192.366,173.315z"/>
<polygon style="fill:#2196BF;" points="292.389,240.237 280.139,234.635 285.737,222.393 297.987,227.987 "/>
<rect x="219.71" y="162.111" transform="matrix(0.9093 0.4161 -0.4161 0.9093 94.7751 -76.5824)" style="fill:#E45136;" width="6.802" height="34.132"/>
<polygon style="fill:#E45136;" points="333.411,248.335 327.229,245.51 341.411,214.463 347.598,217.292 "/>
<rect x="274.657" y="241.369" transform="matrix(0.9096 0.4155 -0.4155 0.9096 128.5245 -94.4872)" style="fill:#BC2222;" width="13.468" height="13.467"/>
<path style="fill:#FFFFFF;" d="M172.456,374.598c-4.695,10.279-16.834,14.805-27.117,10.105l0,0
	c-10.281-4.699-14.807-16.838-10.111-27.119l43.232-94.621c4.695-10.283,16.838-14.811,27.119-10.115l0,0
	c10.283,4.699,14.807,16.842,10.111,27.123L172.456,374.598z"/>
<path style="fill:#FFFFFF;" d="M172.456,374.598c-4.695,10.279-16.834,14.805-27.117,10.105l0,0
	c-10.281-4.699-14.807-16.838-10.111-27.119l43.232-94.621c4.695-10.283,16.838-14.811,27.119-10.115l0,0
	c10.283,4.699,14.807,16.842,10.111,27.123L172.456,374.598z"/>
<path style="fill:#C6C6C6;" d="M144.598,361.866l43.234-94.623c3.955-8.656,13.191-13.211,22.15-11.633
	c-1.322-1.072-2.783-2.016-4.404-2.762c-10.281-4.695-22.424-0.168-27.119,10.115l-43.232,94.621
	c-4.695,10.281-0.17,22.42,10.111,27.119c1.621,0.742,3.289,1.23,4.967,1.525C143.249,380.487,140.643,370.522,144.598,361.866z"/>
<polygon style="fill:#E45136;" points="194.653,326.227 157.342,309.176 161.477,300.129 198.79,317.174 "/>
<path style="fill:#FFFFFF;" d="M247.442,447.954c-4.697,10.281-16.838,14.811-27.119,10.113l0,0
	c-10.281-4.699-14.809-16.838-10.111-27.119l43.234-94.627c4.697-10.279,16.838-14.805,27.119-10.109l0,0
	c10.281,4.695,14.809,16.84,10.111,27.119L247.442,447.954z"/>
<path style="fill:#FFFFFF;" d="M247.442,447.954c-4.697,10.281-16.838,14.811-27.119,10.113l0,0
	c-10.281-4.699-14.809-16.838-10.111-27.119l43.234-94.627c4.697-10.279,16.838-14.805,27.119-10.109l0,0
	c10.281,4.695,14.809,16.84,10.111,27.119L247.442,447.954z"/>
<path style="fill:#C6C6C6;" d="M219.079,434.993l43.232-94.621c3.998-8.75,13.387-13.309,22.432-11.582
	c-1.262-1-2.648-1.881-4.178-2.578c-10.281-4.695-22.422-0.17-27.119,10.109l-43.234,94.627c-4.697,10.281-0.17,22.42,10.111,27.119
	c1.529,0.699,3.105,1.166,4.684,1.471C217.782,453.823,215.079,443.747,219.079,434.993z"/>
<polygon style="fill:#E45136;" points="269.639,399.583 232.327,382.542 236.462,373.487 273.772,390.538 "/>
<path style="fill:#FFFFFF;" d="M166.34,397.59c6.607-15.293,1.687-32.184-11.094-37.846c-12.779-5.662-28.598,2.041-35.484,17.211
	L166.34,397.59z"/>
<path style="fill:#C6C6C6;" d="M161.758,365.028c0.494,0.219,0.951,0.483,1.422,0.733c-2.137-2.555-4.795-4.627-7.934-6.016
	c-12.779-5.662-28.598,2.041-35.484,17.211l7.504,3.324C134.583,366.43,149.547,359.622,161.758,365.028z"/>
<path style="fill:#C6C6C6;" d="M241.801,471.528c6.609-15.293,1.689-32.184-11.092-37.848c-12.781-5.66-28.598,2.043-35.484,17.213
	L241.801,471.528z"/>
<path style="fill:#FFFFFF;" d="M202.876,454.282l38.926,17.246c5.31-12.291,3.164-25.602-4.512-33.299
	C224.963,433.067,209.985,440.153,202.876,454.282z"/>
<path style="fill:#C6C6C6;" d="M406.204,195.909c0,0,6.479-25.535,11.434-24.965c4.955,0.572,1.334,16.197,1.334,16.197
	L406.204,195.909z"/>
<path style="fill:#FFFFFF;" d="M240.036,81.762c0,0,16.768-6.855,18.547-2.029c1.779,4.826-26.932,17.783-26.932,17.783
	L240.036,81.762z"/>
<g>
</g>
<g>
</g>
<g>
</g>
<g>
</g>
<g>
</g>
<g>
</g>
<g>
</g>
<g>
</g>
<g>
</g>
<g>
</g>
<g>
</g>
<g>
</g>
<g>
</g>
<g>
</g>
<g>
</g>
</svg>
