<?xml version="1.0" encoding="iso-8859-1"?>
<!-- Generator: Adobe Illustrator 17.0.0, SVG Export Plug-In . SVG Version: 6.00 Build 0)  -->
<!DOCTYPE svg PUBLIC "-//W3C//DTD SVG 1.1//EN" "http://www.w3.org/Graphics/SVG/1.1/DTD/svg11.dtd">
<svg version="1.1" id="Layer_1" xmlns="http://www.w3.org/2000/svg" xmlns:xlink="http://www.w3.org/1999/xlink" x="0px" y="0px"
	 width="512px" height="512px" viewBox="0 0 512 512" style="enable-background:new 0 0 512 512;" xml:space="preserve">
<circle id="background_49_" style="fill:#ECF0F0;" cx="256" cy="256" r="256"/>
<g>
	<path style="fill:#2C424F;" d="M371.435,393.297c0,7.568-6.135,13.703-13.703,13.703H157.137c-7.568,0-13.703-6.135-13.703-13.703
		V92.703c0-7.568,6.135-13.703,13.703-13.703h200.595c7.568,0,13.703,6.135,13.703,13.703V393.297z"/>
</g>
<g>
	<path style="fill:#3B5666;" d="M358.435,377.297c0,7.568-6.135,13.703-13.703,13.703H169.137c-7.568,0-13.703-6.135-13.703-13.703
		V110.703c0-7.568,6.135-13.703,13.703-13.703h175.595c7.568,0,13.703,6.135,13.703,13.703V377.297z"/>
</g>
<path style="fill:#233540;" d="M176.048,216c-7.058,0-12.799-5.441-12.799-12.5s5.741-12.5,12.799-12.5h29.014
	c7.058,0,12.801,5.441,12.801,12.5S212.12,216,205.062,216H176.048z"/>
<path style="fill:#2C424F;" d="M216.435,204c0,6.075-4.925,11-11,11h-29c-6.075,0-11-4.925-11-11l0,0c0-6.075,4.925-11,11-11h29
	C211.51,193,216.435,197.925,216.435,204L216.435,204z"/>
<path style="fill:#233540;" d="M309.169,216c-7.059,0-12.801-5.441-12.801-12.5s5.742-12.5,12.801-12.5h29.013
	c7.059,0,12.8,5.441,12.8,12.5s-5.741,12.5-12.8,12.5H309.169z"/>
<path style="fill:#2C424F;" d="M349.435,204c0,6.075-4.925,11-11,11h-29c-6.075,0-11-4.925-11-11l0,0c0-6.075,4.925-11,11-11h29
	C344.51,193,349.435,197.925,349.435,204L349.435,204z"/>
<circle style="fill:#7C9BAD;" cx="170.555" cy="111.045" r="7.964"/>
<circle style="fill:#7C9BAD;" cx="342.928" cy="111.045" r="7.964"/>
<circle style="fill:#7C9BAD;" cx="342.928" cy="375.578" r="7.964"/>
<circle style="fill:#7C9BAD;" cx="170.555" cy="375.578" r="7.964"/>
<circle style="fill:#233540;" cx="257.115" cy="152.005" r="45.796"/>
<path style="fill:#FFFFFF;" d="M257.115,189.268c-20.547,0-37.264-16.717-37.264-37.263c0-20.547,16.717-37.264,37.264-37.264
	c20.546,0,37.263,16.717,37.263,37.264C294.378,172.551,277.661,189.268,257.115,189.268z"/>
<path style="fill:none;stroke:#ECF0F0;stroke-width:1.7067;stroke-miterlimit:10;" d="M257.115,180.734
	c-15.842,0-28.73-12.888-28.73-28.73s12.888-28.729,28.73-28.729s28.729,12.888,28.729,28.729S272.957,180.734,257.115,180.734z"/>
<path style="fill:#3B5666;" d="M257.115,172.201c-11.137,0-20.196-9.06-20.196-20.196c0-11.136,9.06-20.196,20.196-20.196
	c11.137,0,20.196,9.061,20.196,20.196C277.312,163.142,268.252,172.201,257.115,172.201z"/>
<path style="fill:#EFC84A;" d="M257.115,163.668c-6.432,0-11.663-5.232-11.663-11.663c0-6.432,5.231-11.663,11.663-11.663
	c6.432,0,11.663,5.231,11.663,11.663C268.778,158.436,263.547,163.668,257.115,163.668z"/>
<circle style="fill:#233540;" cx="257.115" cy="292.236" r="83.626"/>
<path style="fill:#E27C3E;" d="M257.115,367.33c-41.407,0-75.093-33.688-75.093-75.094c0-41.406,33.686-75.094,75.093-75.094
	c41.407,0,75.093,33.688,75.093,75.094C332.208,333.643,298.522,367.33,257.115,367.33z"/>
<path style="fill:#B36231;" d="M257.115,366.477c-40.937,0-74.24-33.305-74.24-74.24c0-40.936,33.304-74.24,74.24-74.24
	c40.936,0,74.24,33.305,74.24,74.24C331.355,333.172,298.052,366.477,257.115,366.477z M257.115,219.703
	c-39.995,0-72.533,32.538-72.533,72.533s32.538,72.533,72.533,72.533c39.995,0,72.533-32.538,72.533-72.533
	S297.11,219.703,257.115,219.703z"/>
<path style="fill:#B36231;" d="M257.114,356.236c-35.29,0-64-28.711-64-64c0-35.289,28.71-64,64-64c35.29,0,64.001,28.711,64.001,64
	C321.115,327.525,292.404,356.236,257.114,356.236z M257.114,229.943c-34.349,0-62.293,27.944-62.293,62.293
	c0,34.349,27.944,62.293,62.293,62.293s62.294-27.944,62.294-62.293C319.408,257.888,291.463,229.943,257.114,229.943z"/>
<path style="fill:#B36231;" d="M257.115,345.997c-29.644,0-53.761-24.117-53.761-53.761c0-29.643,24.117-53.76,53.761-53.76
	c29.643,0,53.761,24.116,53.761,53.76C310.876,321.88,286.759,345.997,257.115,345.997z M257.115,240.184
	c-28.702,0-52.054,23.351-52.054,52.053c0,28.703,23.351,52.054,52.054,52.054c28.702,0,52.054-23.35,52.054-52.054
	C309.169,263.534,285.817,240.184,257.115,240.184z"/>
<path style="fill:#B36231;" d="M257.115,335.757c-23.997,0-43.521-19.523-43.521-43.521c0-23.997,19.523-43.52,43.521-43.52
	c23.997,0,43.521,19.522,43.521,43.52C300.636,316.233,281.112,335.757,257.115,335.757z M257.115,250.424
	c-23.056,0-41.814,18.757-41.814,41.812c0,23.057,18.758,41.814,41.814,41.814c23.056,0,41.813-18.757,41.813-41.814
	C298.929,269.181,280.171,250.424,257.115,250.424z"/>
<path style="fill:#233540;" d="M257.115,333.196c-22.585,0-40.96-18.373-40.96-40.96c0-22.585,18.375-40.96,40.96-40.96
	c22.585,0,40.96,18.375,40.96,40.96C298.075,314.823,279.7,333.196,257.115,333.196z"/>
<path style="fill:#EFC84A;" d="M257.115,316.13c-13.175,0-23.894-10.718-23.894-23.894c0-13.175,10.719-23.893,23.894-23.893
	s23.893,10.718,23.893,23.893C281.009,305.412,270.29,316.13,257.115,316.13z"/>
<polygon style="fill:#233540;" points="226.354,430 173.036,430 168.937,407 230.457,407 "/>
<polygon style="fill:#233540;" points="341.192,430 287.875,430 283.773,407 345.294,407 "/>
<g>
</g>
<g>
</g>
<g>
</g>
<g>
</g>
<g>
</g>
<g>
</g>
<g>
</g>
<g>
</g>
<g>
</g>
<g>
</g>
<g>
</g>
<g>
</g>
<g>
</g>
<g>
</g>
<g>
</g>
</svg>
