<?xml version="1.0" encoding="iso-8859-1"?>
<!-- Generator: Adobe Illustrator 17.0.0, SVG Export Plug-In . SVG Version: 6.00 Build 0)  -->
<!DOCTYPE svg PUBLIC "-//W3C//DTD SVG 1.1//EN" "http://www.w3.org/Graphics/SVG/1.1/DTD/svg11.dtd">
<svg version="1.1" id="Layer_1" xmlns="http://www.w3.org/2000/svg" xmlns:xlink="http://www.w3.org/1999/xlink" x="0px" y="0px"
	 width="512px" height="512px" viewBox="0 0 512 512" style="enable-background:new 0 0 512 512;" xml:space="preserve">
<circle style="fill:#45B39C;" cx="256" cy="256" r="256"/>
<path style="fill:#B06319;" d="M406.876,153.391c-3.114-7.33-12.181-13.329-20.147-13.329H125.076
	c-7.966,0-17.002,6.011-20.082,13.357l-3.068,7.321c-3.079,7.347-5.599,19.874-5.599,27.84v68.069
	c0,7.965,6.518,14.482,14.483,14.482h290.379c7.966,0,14.483-6.518,14.483-14.482v-68.069c0-7.966-2.549-20.481-5.664-27.812
	L406.876,153.391z"/>
<path style="fill:#B06319;" d="M406.876,153.391c-3.114-7.33-12.181-13.329-20.147-13.329H125.076
	c-7.966,0-17.002,6.011-20.082,13.357l-3.068,7.321c-3.079,7.347-5.599,19.874-5.599,27.84v68.069
	c0,7.965,6.518,14.482,14.483,14.482h290.379c7.966,0,14.483-6.518,14.483-14.482v-68.069c0-7.966-2.549-20.481-5.664-27.812
	L406.876,153.391z"/>
<path style="fill:#B06319;" d="M406.876,153.391c-3.114-7.33-12.181-13.329-20.147-13.329H125.076
	c-7.966,0-17.002,6.011-20.082,13.357l-3.068,7.321c-3.079,7.347-5.599,19.874-5.599,27.84v68.069
	c0,7.965,6.518,14.482,14.483,14.482h290.379c7.966,0,14.483-6.518,14.483-14.482v-68.069c0-7.966-2.549-20.481-5.664-27.812
	L406.876,153.391z"/>
<path style="fill:#965415;" d="M226.673,160.338c0,1.6-1.298,2.896-2.897,2.896h-18.827c-1.6,0-2.896-1.297-2.896-2.896l0,0
	c0-1.6,1.297-2.896,2.896-2.896h18.827C225.375,157.441,226.673,158.738,226.673,160.338L226.673,160.338z"/>
<path style="fill:#965415;" d="M309.948,160.338c0,1.6-1.297,2.896-2.897,2.896h-18.827c-1.6,0-2.897-1.297-2.897-2.896l0,0
	c0-1.6,1.298-2.896,2.897-2.896h18.827C308.651,157.441,309.948,158.738,309.948,160.338L309.948,160.338z"/>
<path style="fill:#8C4F14;" d="M415.673,373.234c0,7.965-6.518,14.482-14.483,14.482H110.811c-7.966,0-14.483-6.518-14.483-14.482
	V188.579c0-7.966,6.518-14.483,14.483-14.483h290.379c7.966,0,14.483,6.518,14.483,14.483V373.234z"/>
<path style="fill:#965415;" d="M118.052,380.476c-7.966,0-14.483-6.517-14.483-14.483V195.82c0-7.966,6.518-14.482,14.483-14.482
	h275.896c7.966,0,14.483,6.517,14.483,14.482v170.172c0,7.967-6.518,14.483-14.483,14.483H118.052z"/>
<rect x="132.534" y="174.096" style="fill:#8C4F14;" width="40.552" height="213.621"/>
<rect x="139.775" y="174.096" style="fill:#334D5C;" width="26.069" height="213.621"/>
<rect x="338.914" y="174.096" style="fill:#8C4F14;" width="40.552" height="213.621"/>
<rect x="346.155" y="174.096" style="fill:#334D5C;" width="26.069" height="213.621"/>
<polygon style="fill:#3E5E70;" points="148.429,140.061 139.775,174.096 165.845,174.096 174.498,140.061 "/>
<polygon style="fill:#3E5E70;" points="338.656,140.061 346.155,174.096 372.225,174.096 364.725,140.061 "/>
<path style="fill:#1C2B33;" d="M157.879,250.492c0,1-0.811,1.811-1.81,1.811h-6.518c-1,0-1.811-0.811-1.811-1.811l0,0
	c0-1,0.811-1.81,1.811-1.81h6.518C157.068,248.683,157.879,249.492,157.879,250.492L157.879,250.492z"/>
<path style="fill:#F2F2F2;" d="M137.507,226.958c-2.337,0-4.248,1.912-4.248,4.249v30.607c0,2.337,1.911,4.248,4.248,4.248h30.606
	c2.337,0,4.249-1.911,4.249-4.248v-30.607c0-2.337-1.912-4.249-4.249-4.249H137.507z M168.018,257.469
	c0,2.336-1.912,4.248-4.249,4.248h-21.917c-2.336,0-4.248-1.912-4.248-4.248v-21.918c0-2.336,1.912-4.248,4.248-4.248h21.917
	c2.337,0,4.249,1.912,4.249,4.248V257.469z"/>
<path style="fill:#F2F2F2;" d="M154.5,248.827c0,0.935-0.765,1.7-1.699,1.7h-0.85c-0.935,0-1.699-0.766-1.699-1.7v-23.79
	c0-0.935,0.765-1.699,1.699-1.699h0.85c0.935,0,1.699,0.765,1.699,1.699V248.827z"/>
<path style="fill:#1C2B33;" d="M364.259,250.492c0,1-0.81,1.811-1.81,1.811h-6.518c-0.999,0-1.81-0.811-1.81-1.811l0,0
	c0-1,0.811-1.81,1.81-1.81h6.518C363.448,248.683,364.259,249.492,364.259,250.492L364.259,250.492z"/>
<path style="fill:#F2F2F2;" d="M343.887,226.958c-2.337,0-4.249,1.912-4.249,4.249v30.607c0,2.337,1.912,4.248,4.249,4.248h30.607
	c2.337,0,4.248-1.911,4.248-4.248v-30.607c0-2.337-1.911-4.249-4.248-4.249H343.887z M374.396,257.469
	c0,2.336-1.912,4.248-4.248,4.248h-21.917c-2.337,0-4.249-1.912-4.249-4.248v-21.918c0-2.336,1.912-4.248,4.249-4.248h21.917
	c2.336,0,4.248,1.912,4.248,4.248V257.469z"/>
<path style="fill:#F2F2F2;" d="M360.88,248.827c0,0.935-0.766,1.7-1.699,1.7h-0.85c-0.935,0-1.7-0.766-1.7-1.7v-23.79
	c0-0.935,0.766-1.699,1.7-1.699h0.85c0.934,0,1.699,0.765,1.699,1.699V248.827z"/>
<path style="fill:#EFC84A;" d="M120.293,177.886c2.75-2.881,1.741-5.237-2.241-5.237H102.12c-3.982,0-7.241,3.258-7.241,7.24v17.38
	c0,3.983,2.25,4.884,5,2.003L120.293,177.886z"/>
<path style="fill:#EFC84A;" d="M391.707,177.886c-2.75-2.881-1.741-5.237,2.241-5.237h15.932c3.982,0,7.241,3.258,7.241,7.24v17.38
	c0,3.983-2.25,4.884-5,2.003L391.707,177.886z"/>
<path style="fill:#EFC84A;" d="M391.707,383.928c-2.75,2.881-1.741,5.237,2.241,5.237h15.932c3.982,0,7.241-3.259,7.241-7.241
	v-17.379c0-3.982-2.25-4.885-5-2.004L391.707,383.928z"/>
<path style="fill:#EFC84A;" d="M120.293,383.928c2.75,2.881,1.741,5.237-2.241,5.237H102.12c-3.982,0-7.241-3.259-7.241-7.241
	v-17.379c0-3.982,2.25-4.885,5-2.004L120.293,383.928z"/>
<rect x="206.396" y="115.441" style="fill:#CFAD40;" width="15.931" height="45.62"/>
<rect x="214.362" y="115.441" style="fill:#AB8F35;" width="7.965" height="45.62"/>
<rect x="289.673" y="115.441" style="fill:#CFAD40;" width="15.931" height="45.62"/>
<rect x="289.673" y="115.441" style="fill:#AB8F35;" width="7.965" height="45.62"/>
<path style="fill:#8C4F14;" d="M298.362,107.476h-84.725c-3.982,0-7.241,2.606-7.241,5.793v12.31h99.207v-12.31
	C305.603,110.082,302.345,107.476,298.362,107.476z"/>
<path style="fill:#965415;" d="M298.362,107.476h-84.725c-3.982,0-7.241,2.606-7.241,5.793v5.793c0-3.187,3.259-5.793,7.241-5.793
	h84.725c3.982,0,7.241,2.606,7.241,5.793v-5.793C305.603,110.082,302.345,107.476,298.362,107.476z"/>
<path style="fill:#EFDFAA;" d="M263.285,226.636c0.794,2.718-0.766,5.566-3.483,6.36l-55.37,16.178
	c-2.719,0.795-5.566-0.765-6.36-3.482l-8.029-27.48c-0.794-2.719,0.766-5.566,3.484-6.359l55.37-16.18
	c2.718-0.794,5.564,0.766,6.359,3.484L263.285,226.636z"/>
<path style="fill:#45B39C;" d="M203.233,245.072c-0.453,0.133-0.928-0.128-1.061-0.58l-8.029-27.48
	c-0.132-0.451,0.128-0.928,0.581-1.059l55.37-16.18c0.452-0.132,0.927,0.129,1.059,0.58l8.029,27.48
	c0.132,0.453-0.128,0.928-0.581,1.061L203.233,245.072z"/>
<rect x="201.637" y="218.991" transform="matrix(0.9599 -0.2804 0.2804 0.9599 -56.7396 66.6097)" style="fill:#334D5C;" width="5.555" height="25.21"/>
<rect x="206.081" y="223.175" transform="matrix(0.9599 -0.2804 0.2804 0.9599 -56.8106 68.5035)" style="fill:#334D5C;" width="9.828" height="19.228"/>
<rect x="215.072" y="226.28" transform="matrix(0.9599 -0.2804 0.2804 0.9599 -56.4327 71.3923)" style="fill:#3D5C6E;" width="12.391" height="13.247"/>
<rect x="225.564" y="218.979" transform="matrix(0.9599 -0.2804 0.2804 0.9599 -54.701 73.598)" style="fill:#3D5C6E;" width="8.546" height="17.945"/>
<g>
	<path style="fill:#F2F2F2;" d="M235.669,220.109c-0.445,0.414-1.414,0.98-2.752,1.371c-3.1,0.905-6.006-0.371-7.059-3.977
		c-1.006-3.443,0.646-6.458,4.057-7.454c1.37-0.4,2.32-0.36,2.753-0.273l-0.005,1.259c-0.613-0.104-1.438-0.076-2.353,0.191
		c-2.577,0.753-3.81,2.9-2.966,5.789c0.787,2.693,2.843,3.969,5.518,3.188c0.865-0.253,1.694-0.689,2.184-1.134L235.669,220.109z"/>
	<path style="fill:#F2F2F2;" d="M236.097,209.395c0.159,0.484-0.084,0.98-0.656,1.147c-0.506,0.147-0.979-0.139-1.122-0.628
		c-0.147-0.506,0.114-1.008,0.636-1.16C235.493,208.597,235.949,208.889,236.097,209.395z M237.454,219.978l-2.307-7.897
		l1.435-0.419l2.308,7.897L237.454,219.978z"/>
	<path style="fill:#F2F2F2;" d="M240.03,208.192l0.663,2.268l2.056-0.601l0.319,1.094l-2.056,0.601l1.244,4.258
		c0.286,0.979,0.726,1.453,1.525,1.22c0.375-0.11,0.639-0.24,0.803-0.342l0.381,1.058c-0.245,0.195-0.662,0.406-1.217,0.568
		c-0.668,0.195-1.269,0.141-1.726-0.151c-0.532-0.305-0.884-0.963-1.155-1.895l-1.259-4.307l-1.224,0.358l-0.319-1.094l1.224-0.358
		l-0.553-1.893L240.03,208.192z"/>
	<path style="fill:#F2F2F2;" d="M245.033,209.191l3.093,4.162c0.332,0.469,0.709,1.031,0.978,1.467l0.032-0.009
		c0.01-0.517-0.004-1.168,0.025-1.797l0.212-5.091l1.519-0.443l-0.51,6.259c-0.236,3.009-0.533,4.601-1.265,5.735
		c-0.52,0.823-1.149,1.273-1.489,1.443l-0.713-1.102c0.326-0.219,0.732-0.586,1.052-1.069c0.302-0.424,0.629-1.122,0.74-1.952
		c0.022-0.165,0.038-0.294,0.015-0.375c-0.024-0.082-0.09-0.188-0.209-0.347l-5.046-6.424L245.033,209.191z"/>
</g>
<path style="fill:#E27C3E;" d="M320.638,314.815c-1.388,2.527-4.561,3.451-7.089,2.062l-60.671-33.311
	c-2.527-1.389-3.451-4.561-2.064-7.09l16.583-30.201c1.388-2.527,4.561-3.451,7.089-2.064l60.67,33.312
	c2.528,1.387,3.452,4.561,2.063,7.088L320.638,314.815z"/>
<path style="fill:#EFDFAA;" d="M318.634,307.932c-1.388,2.527-4.561,3.451-7.089,2.062l-51.784-28.432
	c-2.527-1.388-3.451-4.561-2.064-7.089l11.703-21.315c1.389-2.527,4.562-3.451,7.089-2.064l51.784,28.433
	c2.528,1.388,3.452,4.561,2.063,7.089L318.634,307.932z"/>
<path style="fill:#45B39C;" d="M283.993,265.57c-0.352-0.232-0.704-0.453-1.056-0.662c-0.354-0.209-0.695-0.381-1.029-0.512
	c-0.335-0.129-0.658-0.207-0.976-0.229c-0.317-0.02-0.619,0.045-0.911,0.202c-0.051-0.025-0.107-0.067-0.168-0.124
	c-0.06-0.057-0.116-0.12-0.167-0.191c-0.085-0.121-0.148-0.254-0.186-0.396c-0.039-0.143-0.057-0.292-0.053-0.446
	c0.004-0.155,0.028-0.312,0.072-0.472c0.044-0.16,0.108-0.315,0.192-0.469c0.175-0.318,0.393-0.557,0.656-0.718
	c0.264-0.161,0.561-0.245,0.899-0.259c0.338-0.014,0.708,0.043,1.116,0.16c0.408,0.117,0.844,0.296,1.311,0.528
	c0.468,0.231,0.963,0.515,1.49,0.838c0.527,0.323,1.074,0.692,1.643,1.101c0.779,0.559,1.434,1.061,1.938,1.558
	c0.506,0.495,0.882,0.97,1.117,1.449c0.234,0.478,0.338,0.957,0.306,1.444c-0.033,0.486-0.183,0.971-0.448,1.456
	c-0.15,0.274-0.358,0.545-0.624,0.811c-0.265,0.266-0.578,0.522-0.94,0.764c-0.359,0.242-0.762,0.467-1.201,0.671
	c-0.439,0.204-0.911,0.38-1.412,0.522c0.202,0.297,0.367,0.579,0.493,0.852c0.127,0.272,0.223,0.529,0.289,0.774
	c0.064,0.245,0.104,0.478,0.116,0.7c0.011,0.221,0.003,0.428-0.024,0.62c-0.028,0.192-0.07,0.368-0.127,0.531
	c-0.056,0.161-0.119,0.306-0.188,0.431c-0.248,0.451-0.555,0.834-0.922,1.146c-0.365,0.311-0.783,0.536-1.25,0.667
	c-0.467,0.131-0.979,0.158-1.526,0.07c-0.549-0.088-1.128-0.31-1.726-0.687c-0.289-0.183-0.557-0.391-0.804-0.624
	c-0.246-0.234-0.483-0.515-0.707-0.846c-0.225-0.33-0.441-0.721-0.647-1.175c-0.208-0.454-0.414-0.993-0.614-1.626
	c-0.227-0.007-0.426-0.02-0.597-0.037c-0.171-0.017-0.32-0.047-0.449-0.084c-0.129-0.037-0.241-0.088-0.339-0.151
	c-0.096-0.064-0.185-0.144-0.265-0.241c-0.082-0.101-0.15-0.253-0.204-0.46c-0.056-0.206-0.083-0.441-0.085-0.703
	c-0.002-0.263,0.028-0.539,0.089-0.827c0.061-0.289,0.165-0.566,0.309-0.828c0.089-0.162,0.189-0.256,0.305-0.285
	c0.115-0.027,0.249,0.003,0.405,0.091c0.155,0.087,0.337,0.229,0.548,0.421c0.211,0.191,0.457,0.424,0.744,0.689
	c0.28-0.176,0.577-0.385,0.891-0.627c0.313-0.242,0.634-0.508,0.963-0.799c0.329-0.291,0.66-0.6,0.994-0.929
	c0.334-0.329,0.662-0.665,0.982-1.011c0.321-0.346,0.633-0.695,0.933-1.048C283.454,266.25,283.734,265.905,283.993,265.57z
	 M282.201,275.94c0.105,0.062,0.213,0.104,0.323,0.125c0.11,0.02,0.216,0.017,0.317-0.006c0.1-0.021,0.196-0.067,0.285-0.133
	c0.088-0.066,0.163-0.156,0.224-0.267c0.122-0.222,0.188-0.462,0.199-0.722c0.012-0.261-0.042-0.559-0.158-0.899
	c-0.115-0.341-0.3-0.731-0.546-1.183c-0.246-0.452-0.563-0.983-0.941-1.617c-0.341,0.332-0.702,0.631-1.082,0.893
	c-0.381,0.264-0.792,0.481-1.23,0.65c0.23,0.381,0.467,0.741,0.706,1.084c0.239,0.342,0.475,0.649,0.705,0.926
	c0.23,0.277,0.45,0.513,0.655,0.711C281.861,275.7,282.044,275.844,282.201,275.94z M285.8,266.923
	c-0.306,0.384-0.592,0.738-0.862,1.065c-0.27,0.328-0.525,0.629-0.768,0.906c-0.242,0.277-0.469,0.53-0.681,0.762
	c-0.212,0.232-0.413,0.445-0.603,0.64c0.192,0.097,0.423,0.241,0.695,0.429c0.12,0.082,0.245,0.172,0.375,0.268
	c0.129,0.096,0.255,0.193,0.377,0.293c0.261-0.14,0.504-0.293,0.729-0.458c0.224-0.166,0.428-0.335,0.61-0.507
	c0.183-0.172,0.341-0.342,0.476-0.512c0.136-0.171,0.244-0.332,0.327-0.482c0.103-0.188,0.173-0.376,0.208-0.563
	c0.036-0.187,0.03-0.377-0.018-0.57c-0.049-0.193-0.144-0.394-0.283-0.604C286.243,267.381,286.047,267.16,285.8,266.923z"/>
<path style="fill:#45B39C;" d="M288.007,280.578c-0.462-0.145-0.823-0.342-1.089-0.584c-0.265-0.243-0.439-0.529-0.521-0.855
	c-0.083-0.325-0.078-0.688,0.014-1.084c0.091-0.396,0.264-0.824,0.517-1.285c0.235-0.43,0.527-0.832,0.875-1.211
	c0.349-0.377,0.729-0.721,1.141-1.031c0.412-0.311,0.844-0.584,1.297-0.818c0.451-0.236,0.896-0.425,1.336-0.567
	c0.439-0.144,0.86-0.234,1.261-0.272c0.402-0.039,0.759-0.014,1.071,0.074c0.661,0.188,1.094,0.467,1.293,0.848
	c0.199,0.38,0.136,0.867-0.191,1.463c-0.196,0.357-0.444,0.678-0.743,0.959c-0.299,0.281-0.664,0.517-1.093,0.703
	c-0.428,0.186-0.926,0.318-1.491,0.391c-0.564,0.072-1.209,0.079-1.928,0.01c-0.105,0.19-0.185,0.364-0.24,0.521
	c-0.056,0.157-0.078,0.296-0.066,0.415c0.012,0.121,0.062,0.226,0.152,0.314c0.09,0.09,0.229,0.162,0.414,0.217
	c0.323,0.096,0.699,0.135,1.128,0.118c0.43-0.017,0.886-0.087,1.369-0.206c0.483-0.121,0.98-0.291,1.49-0.508
	c0.51-0.217,1.006-0.478,1.486-0.781c0.116,0.031,0.211,0.076,0.284,0.133c0.073,0.057,0.128,0.119,0.163,0.186
	c0.035,0.067,0.053,0.137,0.049,0.213c-0.003,0.074-0.023,0.145-0.06,0.211c-0.086,0.158-0.233,0.324-0.438,0.498
	c-0.206,0.176-0.455,0.35-0.746,0.521c-0.292,0.172-0.617,0.341-0.978,0.506c-0.361,0.164-0.74,0.315-1.137,0.452
	c-0.397,0.138-0.803,0.257-1.218,0.356c-0.416,0.101-0.824,0.174-1.226,0.222c-0.401,0.047-0.787,0.061-1.158,0.045
	C288.653,280.731,288.314,280.675,288.007,280.578z M292.519,275.269c0.099-0.18,0.14-0.329,0.123-0.448
	c-0.016-0.118-0.081-0.194-0.196-0.229c-0.064-0.02-0.164-0.004-0.295,0.041c-0.132,0.047-0.283,0.129-0.453,0.249
	c-0.17,0.12-0.353,0.279-0.547,0.479c-0.194,0.2-0.39,0.442-0.587,0.727c0.288,0.041,0.54,0.043,0.753,0.009
	c0.214-0.034,0.4-0.092,0.555-0.172c0.155-0.079,0.285-0.178,0.388-0.292C292.361,275.518,292.448,275.397,292.519,275.269z"/>
<path style="fill:#45B39C;" d="M297.476,280.605c-0.369,0.351-0.716,0.63-1.042,0.838c-0.325,0.209-0.626,0.365-0.903,0.469
	c-0.276,0.102-0.528,0.162-0.754,0.176c-0.227,0.016-0.426,0.002-0.598-0.039c-0.28-0.068-0.512-0.18-0.693-0.338
	c-0.183-0.157-0.306-0.355-0.369-0.594c-0.063-0.24-0.063-0.518,0.002-0.836c0.064-0.318,0.202-0.67,0.414-1.055
	c0.234-0.428,0.53-0.838,0.889-1.229c0.358-0.394,0.751-0.757,1.18-1.089c0.428-0.334,0.878-0.633,1.35-0.897
	c0.471-0.265,0.936-0.479,1.397-0.647c0.46-0.167,0.9-0.279,1.321-0.337c0.42-0.057,0.793-0.046,1.117,0.033
	c0.138,0.033,0.239,0.068,0.306,0.104c0.066,0.037,0.111,0.084,0.134,0.141c0.202-0.325,0.404-0.65,0.605-0.975
	c0.117-0.056,0.246-0.087,0.387-0.092c0.14-0.007,0.278,0.008,0.414,0.042c0.333,0.085,0.601,0.204,0.804,0.358
	c0.204,0.156,0.354,0.323,0.451,0.504c0.098,0.182,0.146,0.365,0.143,0.551c-0.001,0.188-0.043,0.355-0.125,0.504
	c-0.06,0.111-0.162,0.262-0.303,0.453c-0.141,0.191-0.315,0.395-0.524,0.611c-0.463,0.488-0.865,0.921-1.207,1.297
	c-0.342,0.375-0.631,0.701-0.867,0.979c-0.237,0.277-0.425,0.508-0.564,0.693c-0.14,0.185-0.24,0.333-0.301,0.444
	c-0.047,0.085-0.08,0.155-0.099,0.21c-0.019,0.053-0.025,0.096-0.021,0.129c0.005,0.034,0.021,0.059,0.046,0.074
	c0.025,0.016,0.057,0.029,0.095,0.039c0.098,0.026,0.254,0.02,0.47-0.017c0.215-0.037,0.483-0.112,0.806-0.228
	c0.322-0.113,0.696-0.27,1.12-0.463c0.425-0.194,0.893-0.435,1.404-0.725c0.099,0.031,0.184,0.072,0.255,0.127
	c0.072,0.053,0.125,0.114,0.16,0.181c0.036,0.067,0.054,0.138,0.054,0.214c0,0.074-0.021,0.151-0.064,0.229
	c-0.076,0.139-0.211,0.285-0.402,0.438c-0.192,0.153-0.424,0.308-0.693,0.465c-0.27,0.156-0.571,0.312-0.902,0.465
	c-0.331,0.153-0.674,0.297-1.027,0.433c-0.354,0.136-0.71,0.258-1.068,0.368c-0.358,0.113-0.7,0.204-1.023,0.275
	c-0.324,0.07-0.621,0.117-0.892,0.139c-0.27,0.022-0.492,0.012-0.667-0.031c-0.212-0.055-0.394-0.123-0.545-0.209
	c-0.15-0.087-0.258-0.197-0.319-0.334c-0.062-0.137-0.078-0.303-0.047-0.497c0.032-0.194,0.122-0.428,0.271-0.7
	c0.052-0.094,0.113-0.195,0.186-0.303C297.306,280.844,297.386,280.728,297.476,280.605z M300.518,276.385
	c-0.318,0.076-0.657,0.203-1.015,0.381c-0.358,0.18-0.707,0.395-1.047,0.645c-0.34,0.252-0.654,0.529-0.943,0.832
	c-0.289,0.305-0.525,0.621-0.706,0.951c-0.086,0.157-0.142,0.285-0.164,0.383c-0.023,0.099-0.025,0.178-0.006,0.237
	c0.02,0.059,0.057,0.103,0.111,0.132c0.055,0.029,0.115,0.051,0.183,0.067c0.137,0.032,0.293,0.026,0.47-0.019
	c0.176-0.045,0.358-0.118,0.548-0.22C298.805,278.645,299.661,277.515,300.518,276.385z"/>
<path style="fill:#45B39C;" d="M303.333,284.746c-0.454-0.164-0.814-0.36-1.076-0.597c-0.262-0.235-0.435-0.508-0.516-0.819
	c-0.082-0.312-0.076-0.66,0.018-1.047c0.093-0.387,0.266-0.809,0.519-1.27c0.24-0.438,0.538-0.852,0.895-1.242
	c0.356-0.391,0.746-0.747,1.169-1.068c0.422-0.322,0.863-0.603,1.323-0.84c0.461-0.238,0.916-0.422,1.366-0.552
	c0.45-0.13,0.88-0.198,1.29-0.206c0.41-0.008,0.774,0.055,1.095,0.188c0.309,0.129,0.553,0.283,0.737,0.461
	c0.184,0.177,0.311,0.373,0.384,0.586c0.072,0.213,0.089,0.441,0.05,0.684c-0.039,0.241-0.13,0.493-0.273,0.754
	c-0.148,0.271-0.334,0.503-0.556,0.697c-0.221,0.192-0.456,0.341-0.704,0.443c-0.248,0.104-0.498,0.162-0.752,0.175
	c-0.255,0.014-0.49-0.026-0.707-0.118c-0.198-0.084-0.344-0.18-0.436-0.285c-0.091-0.108-0.146-0.226-0.163-0.358
	c0.192-0.207,0.354-0.398,0.484-0.572c0.13-0.174,0.226-0.316,0.286-0.428c0.067-0.122,0.092-0.223,0.073-0.301
	c-0.019-0.078-0.056-0.128-0.112-0.15c-0.086-0.033-0.222-0.007-0.409,0.08c-0.188,0.089-0.398,0.234-0.635,0.441
	c-0.235,0.206-0.484,0.47-0.745,0.791c-0.261,0.32-0.509,0.695-0.745,1.125c-0.127,0.232-0.219,0.439-0.274,0.619
	c-0.055,0.179-0.071,0.336-0.05,0.47c0.021,0.135,0.082,0.249,0.181,0.345c0.099,0.096,0.238,0.178,0.416,0.248
	c0.256,0.101,0.56,0.153,0.916,0.161c0.354,0.007,0.735-0.028,1.142-0.104c0.405-0.075,0.827-0.19,1.267-0.346
	c0.438-0.155,0.87-0.348,1.296-0.578c0.078,0.043,0.148,0.099,0.214,0.168c0.064,0.07,0.115,0.146,0.151,0.231
	c0.036,0.085,0.055,0.175,0.056,0.269c0,0.094-0.023,0.185-0.072,0.273c-0.081,0.148-0.213,0.293-0.397,0.438
	c-0.184,0.146-0.404,0.283-0.66,0.416c-0.258,0.133-0.545,0.257-0.866,0.375c-0.32,0.117-0.657,0.222-1.011,0.314
	c-0.354,0.093-0.717,0.169-1.089,0.23c-0.374,0.061-0.74,0.101-1.102,0.12c-0.362,0.018-0.712,0.01-1.05-0.021
	C303.922,284.913,303.613,284.848,303.333,284.746z"/>
<path style="fill:#45B39C;" d="M309.525,282.869c0.68-0.977,1.309-1.853,1.887-2.63c0.579-0.776,1.118-1.455,1.619-2.033
	c0.501-0.577,0.969-1.054,1.402-1.429c0.434-0.376,0.845-0.65,1.232-0.822c0.388-0.17,0.758-0.237,1.107-0.195
	c0.349,0.041,0.689,0.191,1.014,0.459c0.164,0.134,0.295,0.277,0.393,0.428c0.098,0.15,0.159,0.31,0.185,0.48
	c0.026,0.169,0.018,0.35-0.025,0.541c-0.045,0.191-0.126,0.397-0.245,0.612c-0.102,0.185-0.237,0.37-0.407,0.556
	c-0.171,0.186-0.397,0.379-0.679,0.585c-0.282,0.205-0.632,0.429-1.051,0.673c-0.419,0.244-0.93,0.521-1.536,0.838
	c-0.417,0.438-0.836,0.877-1.255,1.318c0.885-0.147,1.62-0.154,2.213-0.035c0.592,0.12,1.021,0.335,1.3,0.624
	c0.133,0.138,0.235,0.288,0.309,0.446c0.074,0.158,0.119,0.32,0.138,0.485c0.018,0.165,0.009,0.328-0.026,0.49
	c-0.035,0.162-0.093,0.317-0.175,0.468c-0.145,0.264-0.321,0.498-0.528,0.705c-0.208,0.209-0.452,0.416-0.733,0.625
	c-0.107,0.082-0.227,0.174-0.361,0.274c-0.135,0.101-0.273,0.206-0.416,0.314c-0.143,0.109-0.284,0.222-0.425,0.336
	c-0.141,0.114-0.271,0.226-0.392,0.333c-0.121,0.109-0.226,0.209-0.314,0.303c-0.09,0.094-0.154,0.176-0.193,0.248
	c-0.052,0.094-0.07,0.178-0.056,0.25c0.014,0.072,0.053,0.141,0.114,0.205c0.064,0.066,0.192,0.12,0.382,0.162
	c0.189,0.042,0.429,0.061,0.716,0.061c0.286,0.001,0.612-0.022,0.978-0.067c0.365-0.044,0.758-0.12,1.178-0.228
	c0.059,0.084,0.109,0.182,0.152,0.294c0.044,0.11,0.074,0.226,0.092,0.341c0.017,0.115,0.021,0.229,0.01,0.342
	c-0.011,0.111-0.04,0.211-0.087,0.296c-0.073,0.134-0.19,0.247-0.353,0.345c-0.163,0.096-0.356,0.172-0.581,0.23
	c-0.225,0.058-0.475,0.099-0.749,0.126c-0.274,0.027-0.56,0.038-0.858,0.036c-0.298-0.002-0.6-0.02-0.906-0.053
	c-0.308-0.032-0.603-0.08-0.888-0.142c-0.284-0.064-0.55-0.145-0.796-0.246c-0.245-0.102-0.455-0.227-0.628-0.378
	c-0.221-0.194-0.396-0.38-0.52-0.561c-0.124-0.182-0.203-0.365-0.236-0.555c-0.033-0.189-0.023-0.387,0.03-0.592
	c0.053-0.204,0.142-0.424,0.271-0.656c0.103-0.189,0.237-0.38,0.402-0.575c0.164-0.194,0.341-0.387,0.529-0.575
	c0.188-0.189,0.379-0.371,0.575-0.547c0.195-0.174,0.375-0.334,0.54-0.479c0.164-0.146,0.306-0.272,0.425-0.385
	c0.118-0.111,0.195-0.197,0.228-0.258c0.038-0.069,0.059-0.146,0.061-0.225c0.003-0.081-0.038-0.156-0.123-0.225
	c-0.132-0.106-0.314-0.184-0.546-0.226c-0.232-0.044-0.511-0.044-0.834,0c-0.205,0.275-0.411,0.558-0.616,0.848
	c-0.206,0.289-0.414,0.592-0.624,0.908c-0.209,0.315-0.42,0.648-0.632,0.999c-0.213,0.351-0.43,0.722-0.653,1.114
	c-0.12,0.037-0.256,0.029-0.408-0.02c-0.152-0.049-0.311-0.125-0.478-0.229c-0.158-0.1-0.299-0.215-0.42-0.348
	c-0.121-0.135-0.223-0.278-0.304-0.434c-0.08-0.156-0.141-0.318-0.181-0.488c-0.041-0.168-0.062-0.338-0.064-0.509
	c-0.002-0.17,0.017-0.34,0.055-0.509c0.039-0.168,0.097-0.326,0.175-0.475c0.145-0.264,0.343-0.529,0.594-0.796
	S309.11,283.119,309.525,282.869z"/>
<g>
	<defs>
		<path id="SVGID_1_" d="M318.634,307.932c-1.388,2.527-4.561,3.451-7.089,2.062l-51.784-28.432
			c-2.527-1.388-3.451-4.561-2.064-7.089l11.703-21.315c1.389-2.527,4.562-3.451,7.089-2.064l51.784,28.433
			c2.528,1.388,3.452,4.561,2.063,7.089L318.634,307.932z"/>
	</defs>
	<clipPath id="SVGID_2_">
		<use xlink:href="#SVGID_1_"  style="overflow:visible;"/>
	</clipPath>
	<path style="clip-path:url(#SVGID_2_);fill:#669AB8;" d="M260.101,265.273c0,0,21.258,9.81,24.878,18.944
		c3.62,9.134-28.979-1.618-28.979-1.618l-1.003-11.568L260.101,265.273z"/>
	<path style="clip-path:url(#SVGID_2_);fill:#537E96;" d="M247.066,257.308c0,0,21.258,9.81,24.878,18.944
		c3.62,9.135-28.979-1.617-28.979-1.617l-1.004-11.569L247.066,257.308z"/>
	<path style="clip-path:url(#SVGID_2_);fill:#669AB8;" d="M259.219,279.932c0,0-2.395-5.849,0-5.695
		c2.393,0.152,3.479,5.695,3.479,5.695s0.181-3.551,3.621-4.184c3.439-0.635,5.113,4.656,5.905,4.184c0.793-0.473,0-5.695,0-5.695
		l6.224,4.401l-10.862,6.976L259.219,279.932z"/>
	<path style="clip-path:url(#SVGID_2_);fill:#EFC84A;" d="M259.967,281.502c0,0,20.364-4.006,39.732,5.735
		c19.368,9.741,24.468,14.625,24.468,14.625l-7.913,10.544l-55.609-27.256L259.967,281.502z"/>
	<polygon style="clip-path:url(#SVGID_2_);fill:#395566;" points="292.369,289.959 299.629,285 293.334,291.045 	"/>
	<path style="clip-path:url(#SVGID_2_);fill:#E27C3E;" d="M294.018,284.976l6.155,5.942c0,0,4.255-3.021,0-5.942
		C295.155,281.532,294.018,284.976,294.018,284.976z"/>
	<path style="clip-path:url(#SVGID_2_);fill:#E27C3E;" d="M294.018,284.976l6.155,5.942c0,0,4.255-3.252,0.543-6.633
		C296.216,280.19,294.018,284.976,294.018,284.976z"/>
	<polygon style="clip-path:url(#SVGID_2_);fill:#F2F2F2;" points="298.157,288.973 300.716,284.285 295.596,286.5 	"/>
	<path style="clip-path:url(#SVGID_2_);fill:#CFAD40;" d="M268.301,286.055c0,0,0.586-0.391,1.704-0.916
		c0.561-0.256,1.253-0.557,2.081-0.812c0.822-0.273,1.783-0.504,2.861-0.619c1.073-0.129,2.29-0.111,3.532,0.233l0.47,0.126
		l0.459,0.189c0.308,0.128,0.626,0.248,0.909,0.446c0.284,0.187,0.606,0.349,0.865,0.573c0.252,0.201,0.507,0.406,0.764,0.611
		c1.054,0.887,2.023,1.854,2.973,2.85c0.95,0.988,1.91,1.949,2.982,2.734c1.059,0.803,2.236,1.426,3.478,1.871
		c1.247,0.443,2.505,0.757,3.805,1.031c1.278,0.264,2.521,0.593,3.697,0.906c1.172,0.346,2.274,0.695,3.254,1.163
		c0.502,0.188,0.944,0.477,1.366,0.731c0.208,0.133,0.42,0.246,0.608,0.385c0.178,0.152,0.352,0.301,0.519,0.443
		c0.709,0.529,1.132,1.18,1.536,1.646c0.365,0.5,0.576,0.944,0.753,1.221c0.166,0.283,0.254,0.434,0.254,0.434
		s-0.111-0.135-0.319-0.391c-0.215-0.248-0.497-0.639-0.909-1.08c-0.454-0.402-0.934-0.961-1.651-1.389
		c-0.169-0.117-0.345-0.238-0.524-0.362c-0.189-0.11-0.402-0.194-0.609-0.298c-0.422-0.195-0.841-0.436-1.341-0.572
		c-0.954-0.357-2.048-0.607-3.197-0.883c-1.165-0.235-2.393-0.474-3.691-0.706c-1.271-0.23-2.674-0.483-4.021-0.964
		c-1.355-0.469-2.688-1.147-3.868-2.025c-1.178-0.885-2.188-1.928-3.132-2.934c-0.944-1-1.843-2.004-2.775-2.835
		c-0.247-0.214-0.492-0.425-0.735-0.634c-0.223-0.205-0.475-0.34-0.705-0.518c-0.224-0.184-0.488-0.297-0.743-0.422l-0.379-0.188
		l-0.4-0.131c-1.059-0.355-2.155-0.475-3.168-0.439c-2.034,0.056-3.734,0.519-4.893,0.873
		C268.946,285.772,268.301,286.055,268.301,286.055z"/>
	<path style="clip-path:url(#SVGID_2_);fill:#CFAD40;" d="M302.646,292.693c0,0,0.358-0.08,1.001-0.117
		c0.321-0.02,0.713-0.019,1.163,0c0.448,0.034,0.962,0.072,1.504,0.219c0.545,0.13,1.13,0.325,1.704,0.641
		c0.58,0.299,1.149,0.73,1.608,1.293c0.24,0.286,0.439,0.557,0.646,0.844c0.214,0.278,0.421,0.548,0.647,0.822
		c0.44,0.552,0.93,1.078,1.432,1.588c0.498,0.516,1.032,0.992,1.579,1.43c0.549,0.434,1.11,0.834,1.694,1.126
		c0.58,0.29,1.177,0.507,1.734,0.501c0.164,0.008,0.325,0.016,0.484,0.023c0.172,0.041,0.352,0.07,0.504,0.127
		c0.302,0.114,0.568,0.264,0.803,0.431c0.471,0.333,0.816,0.722,1.092,1.08c0.275,0.359,0.491,0.686,0.653,0.964
		c0.325,0.556,0.459,0.898,0.459,0.898s-0.191-0.315-0.576-0.819c-0.383-0.497-0.973-1.22-1.854-1.784
		c-0.221-0.136-0.463-0.248-0.72-0.326c-0.127-0.037-0.247-0.044-0.371-0.073c-0.146,0.003-0.293,0.005-0.442,0.007
		c-0.703,0.055-1.402-0.152-2.046-0.455c-0.647-0.303-1.268-0.693-1.846-1.147c-0.579-0.452-1.142-0.942-1.662-1.472
		c-0.516-0.534-1.014-1.084-1.463-1.66c-0.467-0.56-0.848-1.201-1.241-1.703c-0.393-0.503-0.863-0.93-1.378-1.238
		c-0.505-0.325-1.04-0.546-1.549-0.705c-1.02-0.316-1.926-0.438-2.559-0.469C303.013,292.678,302.646,292.693,302.646,292.693z"/>
</g>
<path style="fill:#EFDFAA;" d="M277.764,356.143c0.427,1.945-0.815,3.887-2.76,4.313l-83.459,18.33
	c-1.945,0.427-3.887-0.814-4.313-2.76l-11.65-53.046c-0.427-1.945,0.815-3.886,2.76-4.312l83.459-18.33
	c1.945-0.428,3.887,0.814,4.314,2.76L277.764,356.143z"/>
<path style="fill:#334D5C;" d="M194.857,373.61c-1.945,0.427-3.886-0.815-4.314-2.76l-9.786-44.559
	c-0.427-1.944,0.814-3.886,2.76-4.314l74.265-16.31c1.944-0.427,3.886,0.814,4.313,2.76l9.786,44.559
	c0.427,1.945-0.815,3.887-2.76,4.314L194.857,373.61z"/>
<polygon style="fill:#D6D6D6;" points="217.486,338.242 228.607,329.869 233.336,328.831 225.974,336.379 "/>
<path style="fill:#F2F2F2;" d="M192.521,348.916l60.119-13.204l6.629-12.577l-6.13,1.346l-2.995,5.107l-50.533,11.098
	C199.611,340.685,191.228,343.022,192.521,348.916z"/>
<polygon style="fill:#F2F2F2;" points="234.398,353.064 212.91,344.438 225.057,341.77 238.227,352.223 "/>
<rect x="222.051" y="347.258" transform="matrix(0.9767 -0.2144 0.2144 0.9767 -69.5717 56.1196)" style="fill:#F2F2F2;" width="3.62" height="2.896"/>
<rect x="227.873" y="343.745" transform="matrix(0.9767 -0.2147 0.2147 0.9767 -68.6847 57.3603)" style="fill:#F2F2F2;" width="3.621" height="2.173"/>
<rect x="229.398" y="330.799" transform="matrix(0.9768 -0.2142 0.2142 0.9768 -65.6418 57.2154)" style="fill:#D6D6D6;" width="3.62" height="1.448"/>
<rect x="231.454" y="346.428" transform="matrix(0.9767 -0.2144 0.2144 0.9767 -69.0671 58.336)" style="fill:#F2F2F2;" width="5.793" height="2.172"/>
<g>
</g>
<g>
</g>
<g>
</g>
<g>
</g>
<g>
</g>
<g>
</g>
<g>
</g>
<g>
</g>
<g>
</g>
<g>
</g>
<g>
</g>
<g>
</g>
<g>
</g>
<g>
</g>
<g>
</g>
</svg>
