<?xml version="1.0" encoding="iso-8859-1"?>
<!-- Generator: Adobe Illustrator 17.0.0, SVG Export Plug-In . SVG Version: 6.00 Build 0)  -->
<!DOCTYPE svg PUBLIC "-//W3C//DTD SVG 1.1//EN" "http://www.w3.org/Graphics/SVG/1.1/DTD/svg11.dtd">
<svg version="1.1" id="Layer_1" xmlns="http://www.w3.org/2000/svg" xmlns:xlink="http://www.w3.org/1999/xlink" x="0px" y="0px"
	 width="512px" height="512px" viewBox="0 0 512 512" style="enable-background:new 0 0 512 512;" xml:space="preserve">
<g>
	<circle id="background_21_" style="fill:#EFC84A;" cx="256" cy="256" r="256"/>
	<path style="fill:#E05B49;" d="M285.944,112.215l-79.73-29.041c-3.328-1.377-8.715-1.242-11.97,0.299l-24.568,11.633
		c-3.256,1.541-6.773,5.622-7.817,9.069l-28.065,80.079c-1.045,3.447-0.638,8.931,0.903,12.186L257.44,455.68
		c1.541,3.255,5.466,4.657,8.721,3.116l53.826-25.485l45.608-21.594l5.919-2.803l1.934-6.256v-0.001l9.87-31.936l11.805-38.194
		l-2.803-5.919l-68.768-145.242l-28.754-60.73C293.257,117.381,289.272,113.591,285.944,112.215z M220.801,171.323
		c-15.689,7.429-34.431,0.732-41.859-14.958c-7.429-15.689-0.731-34.431,14.958-41.859c15.689-7.428,34.431-0.731,41.859,14.958
		C243.186,145.154,236.49,163.895,220.801,171.323z"/>
	<path style="fill:#334D5C;" d="M151.979,45.095c5.732,12.107,11.464,24.214,17.196,36.32c1.048,2.214,2.097,4.428,3.145,6.642
		c1.909,4.033,6.868,5.806,10.901,3.896c4.033-1.909,5.805-6.868,3.895-10.901c-2.948-6.227-5.896-12.453-8.845-18.68
		c-6.773-14.303-13.544-28.604-20.315-42.908c-5.056,2.098-10.027,4.354-14.913,6.761C146.021,32.514,149,38.804,151.979,45.095z"/>
	<path style="fill:#CED1D1;" d="M221.501,172.803c-16.481,7.804-36.236,0.744-44.039-15.736s-0.744-36.236,15.737-44.04
		c16.48-7.803,36.236-0.743,44.039,15.737C245.041,145.244,237.981,165,221.501,172.803z M199.019,125.125
		c-9.832,4.654-14.043,16.439-9.388,26.27c4.654,9.831,16.439,14.042,26.27,9.388c9.831-4.654,14.042-16.439,9.388-26.271
		C220.634,124.682,208.849,120.47,199.019,125.125z"/>
	<path style="fill:#ECF0F0;" d="M193.899,114.506c-15.689,7.429-22.387,26.17-14.958,41.859
		c7.429,15.689,26.17,22.387,41.859,14.958c15.689-7.429,22.386-26.169,14.958-41.859
		C228.33,113.774,209.589,107.078,193.899,114.506z M216.602,162.263c-10.664,5.049-23.401,0.497-28.451-10.166
		c-5.049-10.664-0.497-23.402,10.167-28.451c10.664-5.05,23.402-0.498,28.451,10.166
		C231.817,144.476,227.266,157.214,216.602,162.263z"/>
	<path style="fill:#334D5C;" d="M165.354,84.822c6.973,14.727,13.946,29.454,20.919,44.181c1.003,2.118,2.006,4.236,3.009,6.355
		c3.055,6.452,10.989,9.288,17.441,6.232c6.453-3.056,9.288-10.989,6.233-17.442c-6.973-14.727-13.945-29.453-20.918-44.181
		c-1.004-2.118-2.007-4.236-3.01-6.354c-3.055-6.453-10.989-9.288-17.441-6.232C165.134,70.436,162.299,78.37,165.354,84.822
		L165.354,84.822z"/>
	<polygon style="fill:#E08B80;" points="395.122,332.526 371.514,408.914 346.292,355.646 	"/>
	<polygon style="fill:#B04739;" points="322.684,432.033 346.292,355.646 371.514,408.914 	"/>
	<path style="fill:#CED1D1;" d="M366.906,319.607c1.814,3.831,0.163,8.449-3.668,10.264l-109.771,51.973
		c-3.831,1.813-8.449,0.163-10.263-3.667l-76.073-160.672c-1.814-3.831-0.164-8.449,3.667-10.264l109.771-51.973
		c3.831-1.814,8.449-0.164,10.264,3.667L366.906,319.607z"/>
	<path style="fill:#ECF0F0;" d="M255.026,377.483c-3.831,1.814-8.449,0.163-10.264-3.668l-73.27-154.752
		c-1.814-3.831-0.164-8.45,3.667-10.264l103.852-49.171c3.831-1.814,8.45-0.163,10.264,3.668l73.271,154.752
		c1.814,3.831,0.163,8.45-3.668,10.264L255.026,377.483z"/>
	<path style="fill:#CED1D1;" d="M193.491,231.095c12.059-5.709,24.116-11.418,36.175-17.128
		c16.959-8.029,33.917-16.059,50.876-24.088c1.761-0.834,3.521-1.667,5.281-2.501c4.033-1.909,5.805-6.868,3.895-10.901
		c-1.909-4.032-6.868-5.805-10.901-3.895c-12.059,5.71-24.116,11.419-36.175,17.128c-16.959,8.029-33.917,16.06-50.876,24.089
		c-1.761,0.833-3.521,1.667-5.281,2.5c-4.033,1.91-5.805,6.868-3.896,10.901C184.499,231.232,189.458,233.005,193.491,231.095
		L193.491,231.095z"/>
	<path style="fill:#CED1D1;" d="M255.983,363.082c12.059-5.709,24.117-11.418,36.175-17.128
		c16.959-8.029,33.917-16.059,50.876-24.088c1.761-0.833,3.52-1.667,5.281-2.5c5.726-2.711,1.522-11.589-4.203-8.879
		c-12.059,5.71-24.117,11.419-36.176,17.128c-16.958,8.029-33.917,16.059-50.875,24.089c-1.761,0.833-3.521,1.667-5.281,2.5
		C246.055,356.915,250.258,365.793,255.983,363.082L255.983,363.082z"/>
	<path style="fill:#CED1D1;" d="M204.42,254.178c12.059-5.709,24.117-11.418,36.176-17.128
		c16.958-8.029,33.917-16.059,50.875-24.088c1.761-0.834,3.521-1.667,5.281-2.501c5.725-2.71,1.522-11.589-4.203-8.878
		c-12.059,5.71-24.116,11.419-36.175,17.128c-16.959,8.029-33.917,16.059-50.876,24.088c-1.761,0.834-3.521,1.668-5.281,2.501
		C194.491,248.011,198.695,256.889,204.42,254.178L204.42,254.178z"/>
	<path style="fill:#CED1D1;" d="M211.426,268.975c12.059-5.709,24.117-11.418,36.176-17.128
		c16.958-8.029,33.917-16.059,50.875-24.088c1.761-0.834,3.521-1.667,5.281-2.501c5.726-2.71,1.522-11.589-4.203-8.878
		c-12.059,5.709-24.116,11.419-36.175,17.128c-16.959,8.029-33.917,16.059-50.876,24.088c-1.761,0.834-3.521,1.667-5.281,2.501
		C201.497,262.808,205.701,271.685,211.426,268.975L211.426,268.975z"/>
	<path style="fill:#CED1D1;" d="M219.133,285.251c12.059-5.709,24.116-11.418,36.175-17.128
		c16.959-8.029,33.917-16.058,50.876-24.088c1.76-0.834,3.521-1.667,5.281-2.501c5.725-2.71,1.521-11.589-4.204-8.878
		c-12.058,5.71-24.116,11.419-36.175,17.128c-16.958,8.029-33.917,16.059-50.875,24.088c-1.761,0.834-3.521,1.668-5.282,2.501
		C209.204,279.084,213.407,287.962,219.133,285.251L219.133,285.251z"/>
</g>
<g>
</g>
<g>
</g>
<g>
</g>
<g>
</g>
<g>
</g>
<g>
</g>
<g>
</g>
<g>
</g>
<g>
</g>
<g>
</g>
<g>
</g>
<g>
</g>
<g>
</g>
<g>
</g>
<g>
</g>
</svg>
