<?xml version="1.0" encoding="iso-8859-1"?>
<!-- Generator: Adobe Illustrator 17.0.0, SVG Export Plug-In . SVG Version: 6.00 Build 0)  -->
<!DOCTYPE svg PUBLIC "-//W3C//DTD SVG 1.1//EN" "http://www.w3.org/Graphics/SVG/1.1/DTD/svg11.dtd">
<svg version="1.1" id="Layer_1" xmlns="http://www.w3.org/2000/svg" xmlns:xlink="http://www.w3.org/1999/xlink" x="0px" y="0px"
	 width="512px" height="512px" viewBox="0 0 512 512" style="enable-background:new 0 0 512 512;" xml:space="preserve">
<path id="bg_22_" style="fill:#334D5C;" d="M512,256c0,141.385-114.613,256-255.996,256C114.613,512,0,397.385,0,256
	C0,114.616,114.613,0,256.004,0C397.387,0,512,114.616,512,256z"/>
<path style="fill:#1E313A;" d="M16.733,347.059C53.447,443.47,146.697,512,256.004,512c109.297,0,202.547-68.53,239.264-164.941
	H16.733z"/>
<path style="fill:#A0DCEA;" d="M430.004,183.766c5.234,30.329,5.707,55.572,1.047,56.383c-4.66,0.804-12.684-23.136-17.924-53.465
	c-5.234-30.328-5.709-55.572-1.049-56.376C416.738,129.504,424.762,153.443,430.004,183.766z"/>
<path style="fill:#A0DCEA;" d="M59.426,247.669c1.678,9.707,1.83,17.782,0.336,18.044c-1.49,0.256-4.058-7.408-5.732-17.109
	c-1.678-9.706-1.828-17.787-0.336-18.043C55.184,230.305,57.752,237.963,59.426,247.669z"/>
<rect x="55.885" y="227.987" transform="matrix(0.9856 -0.1694 0.1694 0.9856 -40.7377 14.9979)" style="fill:#E27C3E;" width="23.317" height="36.605"/>
<rect x="55.962" y="212.157" transform="matrix(0.9855 -0.1694 0.1694 0.9855 -35.7231 34.2619)" style="fill:#E27C3E;" width="253.881" height="28.599"/>
<rect x="59.944" y="243.65" transform="matrix(-0.1694 -0.9856 0.9856 -0.1694 -170.825 366.6434)" style="fill:#D86B35;" width="18.302" height="23.317"/>
<rect x="176.963" y="106.561" transform="matrix(-0.1695 -0.9855 0.9855 -0.1695 -14.8092 454.5239)" style="fill:#D86B35;" width="14.303" height="253.881"/>
<rect x="172.396" y="162.439" transform="matrix(0.9855 -0.1694 0.1694 0.9855 -30.6479 53.6988)" style="fill:#ECF0F0;" width="253.885" height="88.001"/>
<rect x="134.018" y="181.581" transform="matrix(0.9855 -0.1694 0.1694 0.9855 -32.3214 47.2924)" style="fill:#ECF0F0;" width="253.883" height="62.919"/>
<rect x="247.894" y="101.6" transform="matrix(-0.1694 -0.9855 0.9855 -0.1694 83.0474 527.0739)" style="fill:#D8D8D8;" width="31.463" height="253.883"/>
<rect x="281.066" y="101.179" transform="matrix(-0.1695 -0.9855 0.9855 -0.1695 129.607 565.465)" style="fill:#D8D8D8;" width="44.001" height="253.885"/>
<polygon style="fill:#E27C3E;" points="433.986,240.439 386.723,248.568 367.637,137.555 414.904,129.426 "/>
<polygon style="fill:#D86B35;" points="377.18,193.056 386.723,248.568 433.986,240.439 424.447,184.934 "/>
<polygon style="fill:#E27C3E;" points="203.963,271.055 180.982,275.009 164.879,181.342 187.859,177.389 "/>
<rect x="164.684" y="237.954" transform="matrix(-0.1694 -0.9855 0.9855 -0.1694 -25.6261 477.6304)" style="fill:#D86B35;" width="47.524" height="23.318"/>
<path style="fill:#E27C3E;" d="M268.047,449.538c0,2.823-2.289,5.115-5.115,5.115l0,0c-2.826,0-5.115-2.292-5.115-5.115V279.844
	c0-2.822,2.289-5.115,5.115-5.115l0,0c2.826,0,5.115,2.293,5.115,5.115V449.538z"/>
<path style="fill:#E27C3E;" d="M268.047,449.538c0,2.823-2.289,5.115-5.115,5.115l0,0c-2.826,0-5.115-2.292-5.115-5.115V279.844
	c0-2.822,2.289-5.115,5.115-5.115l0,0c2.826,0,5.115,2.293,5.115,5.115V449.538z"/>
<path style="fill:#D86B35;" d="M193.236,420.395c-1.148,2.578-4.174,3.739-6.756,2.59l0,0c-2.58-1.148-3.738-4.18-2.59-6.759
	l64.912-145.647c1.152-2.584,4.178-3.746,6.76-2.59l0,0c2.582,1.148,3.74,4.174,2.59,6.752L193.236,420.395z"/>
<path style="fill:#D86B35;" d="M333.332,420.395c1.148,2.578,4.174,3.739,6.756,2.59l0,0c2.582-1.148,3.74-4.18,2.59-6.759
	l-64.912-145.647c-1.152-2.584-4.178-3.746-6.76-2.59l0,0c-2.58,1.148-3.738,4.174-2.586,6.752L333.332,420.395z"/>
<rect x="239.15" y="265.296" style="fill:#E27C3E;" width="47.795" height="18.479"/>
<rect x="255.045" y="251.998" style="fill:#E27C3E;" width="15.773" height="26.006"/>
<path style="fill:#E27C3E;" d="M263.01,380.377l-46.521-18.276c-2.35-0.923-3.508-3.579-2.584-5.931
	c0.926-2.352,3.572-3.502,5.932-2.585l43.017,16.9l42.787-18.396c2.328-1,5.012,0.078,6.01,2.395
	c0.996,2.322-0.074,5.008-2.395,6.008L263.01,380.377z"/>
<path style="fill:#D86B35;" d="M241.023,241.893c-2.564-11.922,5.018-23.665,16.939-26.226c11.918-2.561,23.658,5.02,26.225,16.936
	c2.561,11.922-5.022,23.658-16.941,26.226C255.326,261.396,243.584,253.809,241.023,241.893z"/>
<path style="fill:#ECF0F0;" d="M250.016,239.957c-1.498-6.955,2.926-13.803,9.879-15.298c6.955-1.495,13.805,2.93,15.299,9.88
	c1.494,6.949-2.93,13.803-9.883,15.298S251.51,246.906,250.016,239.957z"/>
<g>
</g>
<g>
</g>
<g>
</g>
<g>
</g>
<g>
</g>
<g>
</g>
<g>
</g>
<g>
</g>
<g>
</g>
<g>
</g>
<g>
</g>
<g>
</g>
<g>
</g>
<g>
</g>
<g>
</g>
</svg>
