<?xml version="1.0" encoding="iso-8859-1"?>
<!-- Generator: Adobe Illustrator 17.0.0, SVG Export Plug-In . SVG Version: 6.00 Build 0)  -->
<!DOCTYPE svg PUBLIC "-//W3C//DTD SVG 1.1//EN" "http://www.w3.org/Graphics/SVG/1.1/DTD/svg11.dtd">
<svg version="1.1" id="Layer_1" xmlns="http://www.w3.org/2000/svg" xmlns:xlink="http://www.w3.org/1999/xlink" x="0px" y="0px"
	 width="512px" height="512px" viewBox="0 0 512 512" style="enable-background:new 0 0 512 512;" xml:space="preserve">
<path id="bg_30_" style="fill:#E27C3E;" d="M512,255.998C512,397.381,397.384,512,256,512C114.613,512,0,397.381,0,255.998
	C0,114.619,114.613,0,256,0C397.384,0,512,114.619,512,255.998z"/>
<path style="fill:#F29561;" d="M0,255.998c0,38.85,8.697,75.658,24.186,108.643h58.88V105.48H48.975
	C18.202,147.734,0,199.73,0,255.998z"/>
<rect x="68.584" y="156.551" style="fill:#F29561;" width="102.903" height="208.09"/>
<rect x="178.347" y="128.348" style="fill:#F29561;" width="102.902" height="236.293"/>
<rect x="216.254" y="56.909" style="fill:#F29561;" width="76.658" height="287.322"/>
<rect x="257.62" y="188.564" style="fill:#F29561;" width="102.902" height="176.076"/>
<path style="fill:#F29561;" d="M470.285,146.069c-11.505-15.447-25.097-29.585-40.452-42.078h-62.45v260.649h102.902V146.069z"/>
<path style="fill:#F29561;" d="M422.265,364.641h65.549C503.303,331.656,512,294.848,512,255.998
	c0-74.262-31.653-141.106-82.167-187.867h-7.568V364.641z"/>
<path style="fill:#AF562E;" d="M32.724,381.198h446.551c8.507-15.139,15.552-31.204,20.869-48.051H11.853
	C17.172,349.994,24.216,366.059,32.724,381.198z"/>
<path style="fill:#2D4453;" d="M312.505,159.602c0,0-14.18,0.208-16.117,0.551c-124.082,5.496-203.754,54.372-242.635,102.355
	C34.86,285.82,25.55,308.926,25.55,326.737c0,20.69,16.755,27.5,48.439,29.528c24.088,1.539,56.799,0.32,97.38,0.32
	c29.676,0,205.126-0.002,320.09-0.002C504.663,325.705,512,291.71,512,255.998c0-34.11-6.729-66.637-18.841-96.396H333.784
	C333.784,159.602,319.361,159.435,312.505,159.602z"/>
<path style="fill:#FFFFFF;" d="M424.721,177.211H319.392c0,0-11.848-0.136-17.479,0c0,0-11.647,0.172-13.24,0.452
	C137.233,184.369,66.217,269.757,66.217,314.49c0,29.916,42.591,24.518,119.77,24.518c36.775,0,196.557-0.004,196.557-0.004v0.049
	h115.602C507.078,312.999,512,285.082,512,255.998c0-27.48-4.38-53.928-12.397-78.742h-74.87
	C424.727,177.24,424.727,177.226,424.721,177.211z"/>
<path style="fill:#2893C0;" d="M344.203,249.215c0,9.383-7.607,16.99-16.996,16.99l0,0c-9.379,0-16.986-7.608-16.986-16.99v-29.562
	c0-9.383,7.607-16.993,16.986-16.993l0,0c9.389,0,16.996,7.61,16.996,16.993V249.215z"/>
<path style="fill:#2893C0;" d="M403.464,249.215c0,9.383-7.604,16.99-16.989,16.99l0,0c-9.385,0-16.989-7.608-16.989-16.99v-29.562
	c0-9.383,7.604-16.993,16.989-16.993l0,0c9.385,0,16.989,7.61,16.989,16.993V249.215z"/>
<path style="fill:#2893C0;" d="M462.729,249.215c0,9.383-7.604,16.99-16.989,16.99l0,0c-9.386,0-16.993-7.608-16.993-16.99v-29.562
	c0-9.383,7.607-16.993,16.993-16.993l0,0c9.385,0,16.989,7.61,16.989,16.993V249.215z"/>
<path style="fill:#2893C0;" d="M269.488,286.318c0,9.381-7.607,16.992-16.995,16.992l0,0c-9.38,0-16.987-7.611-16.987-16.992
	v-66.666c0-9.383,7.607-16.993,16.987-16.993l0,0c9.388,0,16.995,7.61,16.995,16.993V286.318z"/>
<path style="fill:#2893C0;" d="M507.948,210.851c-1.572,2.575-2.525,5.567-2.525,8.801v66.666c0,3.783,1.28,7.244,3.377,10.069
	c2.084-13.161,3.2-26.643,3.2-40.39C512,240.584,510.562,225.515,507.948,210.851z"/>
<path style="fill:#2893C0;" d="M506.116,310.533H103.883c-3.061,0-5.542,2.484-5.542,5.545c0,3.061,2.481,5.541,5.542,5.541h399.59
	C504.438,317.96,505.31,314.258,506.116,310.533z"/>
<path style="fill:#2893C0;" d="M493.159,159.602H333.784c0,0-14.423-0.167-21.279,0c0,0-14.18,0.208-16.117,0.551
	c-124.082,5.496-203.754,54.372-242.635,102.355c-3.049,3.767-5.824,7.521-8.373,11.256c11.214-2.314,24.55-7.153,35.043-17.214
	c36.883-41.771,107.863-82.715,215.887-87.5c1.766-0.312,14.664-0.5,14.664-0.5c6.232-0.155,19.346,0,19.346,0h166.338
	C495.559,165.529,494.364,162.561,493.159,159.602z"/>
<g>
</g>
<g>
</g>
<g>
</g>
<g>
</g>
<g>
</g>
<g>
</g>
<g>
</g>
<g>
</g>
<g>
</g>
<g>
</g>
<g>
</g>
<g>
</g>
<g>
</g>
<g>
</g>
<g>
</g>
</svg>
