<?xml version="1.0" encoding="iso-8859-1"?>
<!-- Generator: Adobe Illustrator 17.0.0, SVG Export Plug-In . SVG Version: 6.00 Build 0)  -->
<!DOCTYPE svg PUBLIC "-//W3C//DTD SVG 1.1//EN" "http://www.w3.org/Graphics/SVG/1.1/DTD/svg11.dtd">
<svg version="1.1" id="Layer_1" xmlns="http://www.w3.org/2000/svg" xmlns:xlink="http://www.w3.org/1999/xlink" x="0px" y="0px"
	 width="512px" height="512px" viewBox="0 0 512 512" style="enable-background:new 0 0 512 512;" xml:space="preserve">
<path id="bg_27_" style="fill:#334D5C;" d="M512,256c0,141.379-114.613,256-256,256S0,397.379,0,256C0,114.619,114.613,0,256,0
	S512,114.619,512,256z"/>
<path style="fill:#EFC84A;" d="M432.783,335.87l-6.074-144.081c-1.964,0.491-4.006,0.78-6.122,0.78
	c-13.892,0-25.153-11.264-25.153-25.153c0-0.021,0.002-0.039,0.002-0.061c-14.291-0.622-25.998-11.126-28.463-24.861
	c-3.36,2.258-7.396,3.579-11.748,3.579c-8.613,0-16.009-5.157-19.309-12.542H179.014l-1.393,10.826l-0.772-10.826h-22.68
	l-3.227,15.972l-0.841-15.972H87.406l-6.096,78.246l12.273,1.754l-12.547,1.75l-5.881,75.485l22.619,4.323l-23.111,1.98
	l-6.342,81.395h107.405l2.084-16.68l2.634,16.68h77.468l3.745-39.166l3.264,39.166h153.079L432.783,335.87z"/>
<path style="fill:#2893C0;" d="M123.893,191.078c0-10.338,8.383-18.72,18.721-18.72c10.338,0,18.721,8.382,18.721,18.72
	c0,10.34-8.383,18.729-18.721,18.729C132.275,209.807,123.893,201.418,123.893,191.078z"/>
<path style="fill:#E8E8E8;" d="M130.98,191.078c0-6.423,5.208-11.631,11.634-11.631s11.635,5.208,11.635,11.631
	c0,6.422-5.209,11.639-11.635,11.639S130.98,197.5,130.98,191.078z"/>
<path style="fill:#E45136;" d="M217.939,366.955c-4.679,0-9.323-0.167-13.801-0.494c-0.939-0.068-1.645-0.885-1.575-1.822
	c0.068-0.944,0.85-1.674,1.825-1.581c5.453,0.401,11.11,0.539,16.892,0.461c0.986-0.06,1.717,0.735,1.73,1.677
	c0.014,0.943-0.737,1.721-1.679,1.732C220.191,366.946,219.061,366.955,217.939,366.955z M238.325,365.97
	c-0.87,0-1.614-0.664-1.695-1.546c-0.088-0.94,0.6-1.768,1.538-1.857c5.484-0.518,11.135-1.248,16.793-2.174
	c0.926-0.161,1.806,0.477,1.959,1.405c0.15,0.929-0.477,1.81-1.41,1.959c-5.734,0.941-11.461,1.683-17.021,2.206
	C238.433,365.967,238.379,365.97,238.325,365.97z M187.354,364.332c-0.104,0-0.205-0.012-0.311-0.027
	c-5.866-1.078-11.499-2.492-16.747-4.204c-0.895-0.295-1.385-1.257-1.092-2.152c0.293-0.896,1.251-1.379,2.15-1.093
	c5.104,1.67,10.59,3.046,16.305,4.091c0.926,0.17,1.539,1.06,1.369,1.986C188.878,363.754,188.16,364.332,187.354,364.332z
	 M271.973,360.509c-0.779,0-1.482-0.536-1.662-1.328c-0.209-0.92,0.367-1.831,1.285-2.04c5.396-1.223,10.922-2.641,16.43-4.21
	c0.912-0.262,1.849,0.268,2.107,1.173c0.26,0.906-0.267,1.85-1.172,2.106c-5.566,1.59-11.153,3.022-16.608,4.258
	C272.225,360.497,272.098,360.509,271.973,360.509z M155.133,353.557c-0.271,0-0.546-0.066-0.802-0.206
	c-5.396-2.885-10.216-6.214-14.323-9.899c-0.705-0.626-0.763-1.703-0.135-2.406c0.632-0.703,1.711-0.762,2.409-0.131
	c3.907,3.502,8.503,6.676,13.657,9.433c0.832,0.443,1.145,1.477,0.699,2.305C156.33,353.228,155.742,353.557,155.133,353.557z
	 M304.763,351.174c-0.71,0-1.372-0.446-1.614-1.158c-0.305-0.887,0.172-1.857,1.064-2.164c5.247-1.787,10.606-3.761,15.929-5.859
	c0.878-0.352,1.867,0.083,2.213,0.961c0.346,0.876-0.084,1.867-0.959,2.209c-5.373,2.123-10.783,4.112-16.08,5.92
	C305.131,351.145,304.945,351.174,304.763,351.174z M336.49,338.681c-0.654,0-1.276-0.375-1.559-1.009
	c-0.387-0.861,0.001-1.867,0.861-2.254c4.605-2.052,9.258-4.232,13.826-6.477c0.848-0.408,1.865-0.062,2.281,0.78
	c0.415,0.846,0.066,1.87-0.779,2.283c-4.605,2.261-9.294,4.458-13.939,6.53C336.957,338.636,336.721,338.681,336.49,338.681z
	 M130.414,330.75c-0.596,0-1.174-0.31-1.486-0.867c-2.674-4.726-4.477-9.785-5.363-15.04l-0.249-1.61
	c-0.134-0.933,0.513-1.796,1.446-1.933c0.934-0.125,1.797,0.519,1.93,1.447l0.237,1.536c0.82,4.856,2.491,9.543,4.967,13.92
	c0.464,0.818,0.177,1.857-0.645,2.325C130.987,330.678,130.698,330.75,130.414,330.75z M125.114,297.72
	c-0.096,0-0.192-0.007-0.289-0.021c-0.929-0.16-1.553-1.042-1.394-1.971c0.999-5.853,3.02-11.401,6.006-16.489
	c0.475-0.816,1.521-1.078,2.333-0.61c0.812,0.479,1.085,1.522,0.608,2.334c-2.776,4.734-4.655,9.895-5.586,15.34
	C126.652,297.133,125.93,297.72,125.114,297.72z M338.526,274.933c-0.894,0-1.642-0.69-1.7-1.596
	c-0.061-0.939,0.652-1.751,1.592-1.811c5.895-0.378,11.475-1.173,16.591-2.36c0.913-0.215,1.835,0.357,2.047,1.274
	c0.213,0.92-0.357,1.838-1.275,2.049c-5.299,1.229-11.066,2.051-17.142,2.441C338.6,274.933,338.562,274.933,338.526,274.933z
	 M321.481,274.933c-0.034,0-0.067,0-0.101-0.003c-5.554-0.321-11.312-0.956-17.112-1.879c-0.933-0.148-1.564-1.022-1.415-1.953
	c0.147-0.923,1.009-1.561,1.951-1.417c5.689,0.905,11.334,1.53,16.775,1.846c0.939,0.054,1.656,0.863,1.602,1.802
	C323.13,274.232,322.378,274.933,321.481,274.933z M287.839,269.639c-0.139,0-0.278-0.018-0.419-0.051
	c-5.529-1.394-11.074-3.034-16.482-4.892c-0.891-0.301-1.364-1.271-1.06-2.165c0.307-0.891,1.274-1.369,2.168-1.057
	c5.317,1.819,10.771,3.436,16.207,4.803c0.913,0.229,1.469,1.158,1.238,2.069C289.296,269.121,288.602,269.639,287.839,269.639z
	 M141.822,268.81c-0.477,0-0.949-0.199-1.287-0.586c-0.618-0.709-0.544-1.79,0.168-2.406c4.191-3.642,9.078-6.884,14.527-9.629
	c0.842-0.423,1.865-0.086,2.289,0.756c0.425,0.84,0.087,1.867-0.754,2.29c-5.195,2.617-9.848,5.699-13.824,9.155
	C142.619,268.674,142.22,268.81,141.822,268.81z M371.427,266.843c-0.621,0-1.221-0.339-1.521-0.932
	c-0.427-0.84-0.093-1.867,0.747-2.293c5.215-2.653,9.613-5.943,13.076-9.778c0.633-0.696,1.709-0.747,2.408-0.122
	c0.7,0.629,0.756,1.71,0.124,2.409c-3.743,4.147-8.473,7.688-14.063,10.528C371.949,266.783,371.688,266.843,371.427,266.843z
	 M255.577,258.654c-0.207,0-0.417-0.035-0.619-0.115c-5.18-2.022-10.575-3.755-16.032-5.157c-0.912-0.232-1.461-1.161-1.229-2.075
	c0.235-0.911,1.173-1.465,2.076-1.23c5.591,1.436,11.117,3.217,16.423,5.285c0.878,0.343,1.312,1.331,0.97,2.207
	C256.902,258.241,256.258,258.654,255.577,258.654z M171.887,253.293c-0.743,0-1.426-0.492-1.64-1.239
	c-0.257-0.908,0.268-1.849,1.175-2.108c5.385-1.529,11.092-2.674,16.963-3.402c0.934-0.155,1.788,0.551,1.902,1.482
	c0.117,0.938-0.547,1.786-1.482,1.902c-5.699,0.705-11.234,1.819-16.451,3.302C172.197,253.271,172.041,253.293,171.887,253.293z
	 M222.616,250.195c-0.075,0-0.149-0.006-0.227-0.015c-5.597-0.747-11.247-1.146-16.793-1.196c-0.942-0.01-1.698-0.777-1.69-1.722
	c0.008-0.935,0.771-1.688,1.705-1.688c0.004,0,0.01,0,0.016,0c5.687,0.048,11.477,0.462,17.213,1.221
	c0.934,0.129,1.591,0.983,1.466,1.918C224.192,249.57,223.459,250.195,222.616,250.195z M393.286,241.977
	c-0.162,0-0.329-0.023-0.494-0.074c-0.901-0.274-1.41-1.227-1.138-2.126c1.219-4.025,1.838-8.443,1.838-13.131
	c-0.002-1.023-0.03-2.072-0.088-3.138c-0.053-0.939,0.666-1.745,1.607-1.796c0.902-0.102,1.746,0.67,1.795,1.611
	c0.062,1.125,0.094,2.229,0.096,3.319c0,5.026-0.667,9.778-1.982,14.119C394.695,241.504,394.02,241.977,393.286,241.977z
	 M392.423,208.314c-0.765,0-1.459-0.519-1.653-1.289c-1.408-5.615-3.312-10.883-5.654-15.653c-0.414-0.845-0.066-1.869,0.781-2.286
	c0.844-0.408,1.866-0.062,2.28,0.779c2.448,4.988,4.434,10.481,5.901,16.326c0.229,0.917-0.324,1.843-1.238,2.072
	C392.701,208.297,392.56,208.314,392.423,208.314z M166.747,180.395c-0.701,0-1.357-0.438-1.608-1.135
	c-0.314-0.887,0.149-1.86,1.035-2.18c0.648-0.232,1.596-0.58,2.821-1.035c2.948-1.094,7.479-2.775,13.261-4.791
	c0.891-0.304,1.862,0.157,2.172,1.051c0.31,0.891-0.159,1.857-1.049,2.174c-5.754,2-10.264,3.677-13.199,4.764
	c-1.241,0.461-2.204,0.818-2.859,1.051C167.13,180.361,166.936,180.395,166.747,180.395z M377.322,178.123
	c-0.479,0-0.956-0.203-1.293-0.596c-3.564-4.142-7.717-7.854-12.34-11.031c-0.777-0.533-0.974-1.597-0.441-2.371
	c0.532-0.77,1.599-0.971,2.372-0.44c4.866,3.344,9.238,7.251,12.994,11.618c0.614,0.712,0.535,1.793-0.18,2.406
	C378.114,177.985,377.719,178.123,377.322,178.123z M199.027,169.209c-0.725,0-1.398-0.469-1.627-1.198
	c-0.281-0.899,0.218-1.854,1.117-2.138c5.533-1.735,11.059-3.37,16.422-4.859c0.895-0.253,1.85,0.277,2.102,1.186
	c0.251,0.905-0.28,1.849-1.189,2.099c-5.328,1.483-10.815,3.108-16.315,4.833C199.369,169.184,199.196,169.209,199.027,169.209z
	 M231.921,160.086c-0.771,0-1.47-0.528-1.659-1.311c-0.217-0.918,0.348-1.835,1.264-2.055c5.686-1.361,11.321-2.585,16.748-3.645
	c0.92-0.176,1.82,0.426,2.001,1.349c0.181,0.926-0.423,1.822-1.348,2.001c-5.382,1.048-10.968,2.263-16.608,3.611
	C232.184,160.07,232.052,160.086,231.921,160.086z M349.625,158.825c-0.211,0-0.426-0.041-0.634-0.125
	c-4.916-1.971-10.309-3.597-16.031-4.832c-0.921-0.196-1.505-1.104-1.308-2.024c0.2-0.92,1.119-1.51,2.027-1.308
	c5.911,1.274,11.488,2.96,16.58,5.002c0.875,0.349,1.299,1.343,0.948,2.219C350.941,158.424,350.301,158.825,349.625,158.825z
	 M265.41,153.591c-0.835,0-1.564-0.61-1.686-1.462c-0.135-0.932,0.512-1.795,1.443-1.932c5.84-0.844,11.578-1.504,17.057-1.966
	c0.923-0.036,1.764,0.616,1.843,1.558c0.081,0.938-0.618,1.763-1.556,1.84c-5.412,0.459-11.082,1.11-16.855,1.947
	C265.574,153.586,265.49,153.591,265.41,153.591z M316.459,151.43c-0.051,0-0.099-0.003-0.15-0.006
	c-4.74-0.411-9.775-0.619-14.965-0.619l-1.91,0.006c-0.006,0-0.014,0-0.019,0c-0.935,0-1.695-0.754-1.706-1.688
	c-0.009-0.941,0.746-1.712,1.688-1.722l1.954-0.009c5.279,0,10.413,0.215,15.253,0.635c0.939,0.08,1.634,0.908,1.552,1.846
	C318.078,150.76,317.334,151.43,316.459,151.43z"/>
<polygon style="fill:#E45136;" points="382.629,307.584 367.859,322.352 353.084,307.584 347.207,313.459 361.978,328.235 
	347.207,343.004 353.084,348.888 367.859,334.113 382.629,348.888 388.512,343.004 373.736,328.235 388.512,313.459 "/>
<path style="fill:#E27C3E;" d="M377.139,218.105c2.025-21.26-11.053-42.305-39.637-43.448c-28.584-1.143-52.976,9.528-77.367,5.717
	c-24.393-3.811-84.609-3.049-84.609,21.725c0,24.772,44.591,30.108,61.36,16.007c16.77-14.102,48.784,0,73.176,11.814
	C334.453,241.733,374.09,250.118,377.139,218.105z"/>
<path style="fill:#45B39C;" d="M362.275,213.277c1.074-13.973-12.959-31.508-28.965-30.745c-12.748,0.607-57.93,9.403-76.732,4.067
	c-18.804-5.336-71.651-1.018-69.365,13.464c2.287,14.482,28.713,20.584,44.211,10.165c15.498-10.418,44.21-4.829,63.266,6.605
	C313.746,228.267,359.988,243.005,362.275,213.277z"/>
<path style="fill:#E27C3E;" d="M145.797,287.85c-5.883,16.867,0,42.304,26.68,46.115c26.678,3.811,75.462,36.587,75.843,9.146
	c0.382-27.44-9.528-45.353-8.003-60.598c1.523-15.245-48.021-16.77-59.837-4.574C168.664,290.136,151.514,271.461,145.797,287.85z"
	/>
<path style="fill:#45B39C;" d="M229.264,289.755c-2.682-13.199-24.773-15.245-34.683-4.573
	c-9.909,10.671-36.969,1.523-38.112,15.625c-1.143,14.102,77.368,50.689,84.229,42.305
	C247.557,334.727,234.218,314.147,229.264,289.755z"/>
<path style="fill:#334D5C;" d="M218.592,291.279c-8.004-4.955-16.77,4.954-22.486,7.622c-5.717,2.668-21.343,1.524-20.58,8.767
	c0.762,7.24,39.256,32.395,48.402,24.01c9.146-8.385-2.668-19.818-1.144-25.916C224.309,299.664,224.262,294.789,218.592,291.279z"
	/>
<path style="fill:#E27C3E;" d="M291.895,279.084c-7.094-5.332-25.662-7.37-27.186,3.301c-1.524,10.672,13.466,16.008,21.088,27.188
	C293.418,320.753,313.911,295.635,291.895,279.084z"/>
<path style="fill:#45B39C;" d="M277.666,281.879c-2.857,3.505,3.557,10.672,8.385,17.531c4.828,6.86,14.99,4.067,10.672-4.573
	C292.403,286.196,283.256,275.02,277.666,281.879z"/>
<path style="fill:#E27C3E;" d="M274.109,311.606c-4.209-4.91-9.147-5.336-13.721,0.763c-4.573,6.098,2.54,10.921,4.319,18.037
	c1.778,7.116,14.227,20.074,20.325,15.754c6.099-4.32,14.992-17.022,7.115-23.12C284.272,316.942,277.158,315.164,274.109,311.606z"
	/>
<path style="fill:#45B39C;" d="M271.06,318.973c-2.414,3.793,0.254,9.656,5.336,15.754c5.08,6.098,7.877,5.845,9.908,1.525
	c2.033-4.321,0.508-9.654-5.59-13.975C274.617,317.957,272.84,316.177,271.06,318.973z"/>
<path style="fill:#334D5C;" d="M340.819,209.994c1.051-14.081-13.774-18.938-40.638-15.841
	c-26.863,3.097-95.395-10.335-100.561,5.509c-5.166,15.843,31.338-5.854,61.645,1.033
	C291.572,207.582,339.097,233.066,340.819,209.994z"/>
<path style="fill:#2893C0;" d="M175.828,231.166c-2.737-14.596-59.663-5.8-68.779,26.105c-9.115,31.903-14.917,77.891,3.314,96.952
	c18.231,19.062,19.061-2.068,9.945-23.2c-9.116-21.131-14.09-41.849-2.902-60.493C128.595,251.884,179.559,251.053,175.828,231.166z
	"/>
<path style="fill:#2893C0;" d="M335.348,288.76c-0.723-7.526,14.916-5.8,26.518-8.7c11.603-2.899,31.904-31.073,41.021-24.444
	c9.116,6.627,9.529,28.586-4.144,31.486C385.07,290.002,337.419,310.305,335.348,288.76z"/>
<path style="fill:#EFC84A;" d="M438.784,358.315c0,3.948,1.145,20.24-22.104,20.24c1.81-11.719,6.384-38.397,6.384-38.397
	l13.911,9.909L438.784,358.315z"/>
<path style="fill:#B2902F;" d="M426.709,191.789c-0.262-7.128-7.504-7.318-8.789-4.428l-1.27,161.342
	c6.074-6.542,20.276-1.68,22.135,9.611L426.709,191.789z"/>
<g>
</g>
<g>
</g>
<g>
</g>
<g>
</g>
<g>
</g>
<g>
</g>
<g>
</g>
<g>
</g>
<g>
</g>
<g>
</g>
<g>
</g>
<g>
</g>
<g>
</g>
<g>
</g>
<g>
</g>
</svg>
