<?xml version="1.0" encoding="iso-8859-1"?>
<!-- Generator: Adobe Illustrator 17.0.0, SVG Export Plug-In . SVG Version: 6.00 Build 0)  -->
<!DOCTYPE svg PUBLIC "-//W3C//DTD SVG 1.1//EN" "http://www.w3.org/Graphics/SVG/1.1/DTD/svg11.dtd">
<svg version="1.1" id="Layer_1" xmlns="http://www.w3.org/2000/svg" xmlns:xlink="http://www.w3.org/1999/xlink" x="0px" y="0px"
	 width="512px" height="512px" viewBox="0 0 512 512" style="enable-background:new 0 0 512 512;" xml:space="preserve">
<path id="bg_55_" style="fill:#45B39C;" d="M512,256c0,141.382-114.61,256-256,256C114.616,512,0,397.382,0,256
	C0,114.621,114.616,0,256,0C397.39,0,512,114.621,512,256z"/>
<path style="fill:#308C74;" d="M347.653,495.034c10.505-4.031,20.706-8.676,30.489-14V30.966c-9.783-5.324-19.984-9.969-30.489-14
	V495.034z"/>
<path style="fill:#236D58;" d="M322.5,30.566c2.286,0.763,53.356,1.524,53.356,1.524L322.5,39.714V30.566z"/>
<path style="fill:#389B83;" d="M183.944,501.647c8.376,2.453,16.931,4.481,25.636,6.077V4.275
	c-8.705,1.597-17.26,3.627-25.636,6.077V501.647z"/>
<polygon style="fill:#308C74;" points="245.766,116.193 209.346,109.586 183.771,82.146 207.148,113.653 245.766,122.8 "/>
<polygon style="fill:#389B83;" points="198.001,19.643 230.016,21.676 199.017,22.691 "/>
<polygon style="fill:#389B83;" points="201.557,72.999 218.835,73.508 244.242,54.705 219.344,76.048 201.557,76.557 "/>
<path style="fill:#308C74;" d="M237.129,511.231C243.366,511.69,249.646,512,256,512c0.318,0,0.631-0.023,0.947-0.023V0.024
	C256.631,0.024,256.318,0,256,0c-6.354,0-12.634,0.31-18.871,0.769V511.231z"/>
<path style="fill:#308C74;" d="M14.555,341.123c8.14,23.087,19.502,44.642,33.538,64.155V106.725
	c-14.036,19.515-25.399,41.065-33.538,64.152V341.123z"/>
<path style="fill:#308C74;" d="M138.07,483.199c12.637,6.571,25.874,12.142,39.637,16.558V12.243
	c-13.763,4.419-27,9.986-39.637,16.558V483.199z"/>
<path style="fill:#236D58;" d="M59.526,420.07c15.024,17.976,32.467,33.849,51.832,47.134V44.796
	C91.993,58.085,74.551,73.958,59.526,91.93V420.07z"/>
<path style="fill:#236D58;" d="M273.207,511.36c18.934-1.257,37.296-4.57,54.881-9.722V10.361
	c-17.585-5.15-35.947-8.465-54.881-9.721V511.36z"/>
<polygon style="fill:#382007;" points="294.326,403.641 233.48,456.801 127.062,450.369 227.213,444.263 271.51,391.368 "/>
<polygon style="fill:#236D58;" points="91.723,89.518 137.013,80.21 168.033,65.319 197.814,74.005 167.413,70.905 148.801,80.833 
	156.244,85.793 171.754,80.833 155.625,90.757 141.977,83.312 91.103,95.101 "/>
<polygon style="fill:#308C74;" points="163.691,49.19 195.953,46.089 228.214,34.301 252.409,49.19 226.973,38.645 197.194,51.671 
	203.396,60.356 234.419,63.459 200.294,64.081 189.128,53.532 162.449,57.876 "/>
<polygon style="fill:#236D58;" points="295.839,126.742 264.197,100.063 228.214,85.793 214.564,46.708 231.316,82.071 
	263.578,88.896 298.941,116.193 "/>
<path style="fill:#236D58;" d="M35.896,161.671l38.112-3.049l-1.524-14.482l-35.062,9.909l-12.035-9.311
	c-0.751,1.554-1.432,3.149-2.152,4.722L35.896,161.671z"/>
<polygon style="fill:#236D58;" points="311.828,164.72 371.545,153.882 402.538,112.888 403.044,107.299 370.503,143.285 
	310.304,151.762 "/>
<polygon style="fill:#308C74;" points="245.766,116.193 209.346,109.586 183.771,82.146 207.148,113.653 245.766,122.8 "/>
<polygon style="fill:#389B83;" points="198.001,19.643 230.016,21.676 199.017,22.691 "/>
<polygon style="fill:#389B83;" points="201.557,72.999 218.835,73.508 244.242,54.705 219.344,76.048 201.557,76.557 "/>
<path style="fill:#382007;" d="M35.439,385.922l372.943,36.254v-57.167L25.865,368.2C28.822,374.25,32.032,380.148,35.439,385.922z"
	/>
<polygon style="fill:#382007;" points="304.188,403.641 243.343,456.801 136.924,450.369 237.075,444.263 281.371,391.368 "/>
<path style="fill:#134435;" d="M66.592,362.9c-0.271,0-0.533,0.029-0.801,0.038c0.792-1.86,1.232-3.906,1.232-6.059
	c0-8.549-6.932-15.477-15.48-15.477c-1.16,0-2.289,0.137-3.379,0.381c-3.27-6.592-10.049-11.133-17.904-11.133
	c-6.774,0-12.748,3.376-16.363,8.527c7.65,22.271,18.259,43.155,31.403,62.173c1.286-0.694,2.512-1.489,3.665-2.37
	c4.092,5.249,10.454,8.638,17.627,8.638c12.351,0,22.361-10.011,22.361-22.361C88.953,372.91,78.942,362.9,66.592,362.9z"/>
<path style="fill:#382007;" d="M390.798,38.377v435.247C463.538,428.47,512,347.909,512,256
	C512,164.092,463.538,83.53,390.798,38.377z"/>
<path style="fill:#134435;" d="M180.451,411.492c-2.152,0.295-4.213,0.831-6.175,1.549c-0.02-0.235-0.026-0.468-0.057-0.706
	c-1.468-10.847-11.445-18.454-22.29-16.989c-8.398,1.135-14.83,7.372-16.638,15.161c-5.029-3.284-11.204-4.868-17.624-3.998
	c-14.185,1.911-24.133,14.965-22.219,29.147c1.168,8.634,6.468,15.682,13.632,19.454c-0.021,0.899,0.006,1.805,0.131,2.722
	c0.905,6.708,5.535,11.984,11.521,14.06c0.002,0.051,0.006,0.104,0.012,0.155c0.066,0.494,0.182,0.971,0.271,1.455
	c13.082,8.138,26.957,15.1,41.475,20.801c4.355-2.149,8.057-5.332,10.827-9.194c2.019,0.482,4.159,0.626,6.343,0.331
	c8.92-1.203,15.334-8.989,15.01-17.803c12.406-4.692,20.425-17.436,18.573-31.145C211.09,420.532,196.405,409.34,180.451,411.492z"
	/>
<path style="fill:#4C2B0D;" d="M415.192,456.407c5.529-4.395,10.864-9.016,16.007-13.845V69.438
	c-5.143-4.829-10.477-9.45-16.007-13.845V456.407z"/>
<path style="fill:#4C2B0D;" d="M472.36,392.794V155.701c0-3.999-3.242-7.241-7.241-7.241c-3.999,0-7.241,3.242-7.241,7.241v257.641
	C463.031,406.743,467.864,399.887,472.36,392.794z"/>
<path style="fill:#4C2B0D;" d="M490.273,326.06c1.894,0,3.43-1.536,3.43-3.43V160.879c-2.12-5.288-4.404-10.493-6.86-15.599v177.35
	C486.843,324.523,488.379,326.06,490.273,326.06z"/>
<path style="fill:#4C2B0D;" d="M508.948,295.44C510.938,282.583,512,269.417,512,256c0-13.416-1.062-26.583-3.052-39.439V295.44z"/>
<path style="fill:#995F1A;" d="M157.406,111.908c0-3.927-3.184-7.113-7.113-7.113l0,0c-3.931,0-7.113,3.187-7.113,7.113v61.188
	c0,3.927,3.183,7.113,7.113,7.113l0,0c3.93,0,7.113-3.186,7.113-7.113V111.908z"/>
<path style="fill:#995F1A;" d="M171.165,111.908c0-3.927-3.186-7.113-7.116-7.113l0,0c-3.931,0-7.113,3.187-7.113,7.113v61.188
	c0,3.927,3.183,7.113,7.113,7.113l0,0c3.93,0,7.116-3.186,7.116-7.113V111.908z"/>
<path style="fill:#995F1A;" d="M185.392,111.908c0-3.927-3.183-7.113-7.113-7.113l0,0c-3.931,0-7.113,3.187-7.113,7.113v61.188
	c0,3.927,3.183,7.113,7.113,7.113l0,0c3.931,0,7.113-3.186,7.113-7.113V111.908z"/>
<path style="fill:#4C2E0B;" d="M149.51,104.872c-3.556,0.396-6.33,3.377-6.33,7.036v61.188c0,3.659,2.774,6.64,6.33,7.035V104.872z"
	/>
<path style="fill:#4C2E0B;" d="M163.495,104.852c-3.665,0.286-6.56,3.317-6.56,7.057v61.188c0,3.739,2.895,6.77,6.56,7.057V104.852z
	"/>
<path style="fill:#4C2E0B;" d="M177.001,169.046v-64.123c-3.32,0.607-5.836,3.496-5.836,6.985v57.138H177.001z"/>
<path style="fill:#664110;" d="M368.192,357.103c0,12.987,12.556,23.522-0.432,23.522H110.691c-12.987,0,0.551-10.534,0.551-23.522
	V236.569c0-12.985,112.256-121.71,125.24-121.71l61.738,43.51c12.991,0,69.972,65.215,69.972,78.2V357.103z"/>
<path style="fill:#4C2E0B;" d="M298.221,158.369l-61.738-43.51c-12.984,0-125.24,108.725-125.24,121.71v24.945
	c2.537-0.742,4.952-2.049,7.024-3.967l119.862-110.824l119.865,110.824c2.924,2.707,6.518,4.211,10.198,4.586v-25.564
	c0-7.744-20.262-34.054-39.372-54.038l-20.473-18.925C304.018,160.337,300.46,158.369,298.221,158.369z"/>
<path style="fill:#664110;" d="M381.942,213.81L250.125,91.93c-1.885-1.748-4.052-2.986-6.339-3.755l-0.009-0.003
	c-0.523-0.176-1.051-0.327-1.584-0.452c-0.078-0.022-0.154-0.033-0.23-0.048c-0.462-0.102-0.926-0.193-1.394-0.256
	c-0.164-0.024-0.333-0.033-0.5-0.054c-0.375-0.042-0.75-0.08-1.129-0.099c-0.271-0.012-0.545-0.003-0.812-0.006
	c-0.273,0.003-0.545-0.006-0.816,0.006c-0.377,0.019-0.753,0.057-1.128,0.099c-0.167,0.021-0.333,0.029-0.5,0.054
	c-0.468,0.062-0.933,0.154-1.396,0.256c-0.071,0.015-0.149,0.026-0.224,0.048c-0.535,0.125-1.062,0.276-1.587,0.452l-0.009,0.003
	c-2.287,0.769-4.454,2.007-6.339,3.755L94.312,213.81c-7.152,6.615-7.59,17.772-0.977,24.927c6.616,7.152,17.775,7.59,24.931,0.971
	L238.129,128.88l119.865,110.827c7.152,6.619,18.309,6.182,24.925-0.971C389.532,231.582,389.095,220.425,381.942,213.81z"/>
<rect x="109.85" y="351.836" style="fill:#995F1A;" width="257.911" height="28.789"/>
<rect x="109.85" y="367.545" style="fill:#4C2E0B;" width="257.911" height="13.08"/>
<rect x="109.85" y="323.72" style="fill:#995F1A;" width="257.911" height="28.789"/>
<rect x="109.85" y="339.429" style="fill:#4C2E0B;" width="257.911" height="13.08"/>
<rect x="109.85" y="295.603" style="fill:#995F1A;" width="257.911" height="28.789"/>
<rect x="109.85" y="311.312" style="fill:#4C2E0B;" width="257.911" height="13.08"/>
<rect x="109.85" y="267.487" style="fill:#995F1A;" width="257.911" height="28.789"/>
<rect x="109.85" y="283.196" style="fill:#4C2E0B;" width="257.911" height="13.08"/>
<rect x="109.85" y="239.371" style="fill:#995F1A;" width="257.911" height="28.789"/>
<rect x="109.85" y="255.083" style="fill:#4C2E0B;" width="257.911" height="13.077"/>
<rect x="109.85" y="211.255" style="fill:#995F1A;" width="257.911" height="28.789"/>
<rect x="105.291" y="230.016" style="fill:#4C2E0B;" width="257.911" height="13.077"/>
<rect x="146.979" y="183.142" style="fill:#995F1A;" width="183.649" height="28.786"/>
<rect x="171.373" y="155.025" style="fill:#995F1A;" width="134.863" height="28.789"/>
<rect x="159.461" y="170.734" style="fill:#4C2E0B;" width="158.686" height="13.08"/>
<rect x="196.26" y="126.909" style="fill:#995F1A;" width="85.091" height="28.789"/>
<rect x="185.924" y="142.618" style="fill:#4C2E0B;" width="105.762" height="13.08"/>
<circle style="fill:#E2B279;" cx="110.693" cy="366.369" r="14.469"/>
<rect x="201.279" y="259.942" style="fill:#331D07;" width="70.434" height="120.537"/>
<path style="fill:#BA7F3E;" d="M186.505,272.406c0,1.054-0.854,1.905-1.905,1.905h-52.977c-1.051,0-1.905-0.852-1.905-1.905l0,0
	c0-1.055,0.854-1.906,1.905-1.906H184.6C185.65,270.5,186.505,271.352,186.505,272.406L186.505,272.406z"/>
<path style="fill:#BA7F3E;" d="M337.81,278.123c0,1.054-0.855,1.905-1.906,1.905h-52.976c-1.052,0-1.905-0.852-1.905-1.905l0,0
	c0-1.055,0.854-1.906,1.905-1.906h52.976C336.955,276.217,337.81,277.068,337.81,278.123L337.81,278.123z"/>
<path style="fill:#BA7F3E;" d="M198.32,247.252c0,1.055-0.855,1.906-1.906,1.906h-52.976c-1.052,0-1.905-0.852-1.905-1.906l0,0
	c0-1.054,0.854-1.905,1.905-1.905h52.976C197.465,245.347,198.32,246.198,198.32,247.252L198.32,247.252z"/>
<path style="fill:#BA7F3E;" d="M283.31,216.382c0,1.054-0.854,1.905-1.905,1.905h-52.977c-1.051,0-1.905-0.852-1.905-1.905l0,0
	c0-1.054,0.854-1.905,1.905-1.905h52.977C282.455,214.477,283.31,215.328,283.31,216.382L283.31,216.382z"/>
<path style="fill:#BA7F3E;" d="M215.023,225.252c0,1.054-0.855,1.905-1.905,1.905h-52.976c-1.052,0-1.906-0.852-1.906-1.905l0,0
	c0-1.054,0.855-1.905,1.906-1.905h52.976C214.169,223.347,215.023,224.198,215.023,225.252L215.023,225.252z"/>
<path style="fill:#BA7F3E;" d="M348.092,225.868c0,1.054-0.855,1.905-1.906,1.905H293.21c-1.052,0-1.905-0.852-1.905-1.905l0,0
	c0-1.054,0.854-1.905,1.905-1.905h52.975C347.236,223.963,348.092,224.814,348.092,225.868L348.092,225.868z"/>
<path style="fill:#BA7F3E;" d="M233.764,189.704c0,1.054-0.855,1.905-1.905,1.905h-52.976c-1.051,0-1.906-0.852-1.906-1.905l0,0
	c0-1.055,0.855-1.906,1.906-1.906h52.976C232.909,187.798,233.764,188.649,233.764,189.704L233.764,189.704z"/>
<path style="fill:#BA7F3E;" d="M267.684,160.357c0,1.055-0.854,1.906-1.905,1.906h-52.976c-1.052,0-1.906-0.852-1.906-1.906l0,0
	c0-1.054,0.855-1.905,1.906-1.905h52.976C266.829,158.452,267.684,159.304,267.684,160.357L267.684,160.357z"/>
<path style="fill:#BA7F3E;" d="M196.795,300.989c0,1.055-0.855,1.906-1.905,1.906h-52.976c-1.051,0-1.906-0.852-1.906-1.906l0,0
	c0-1.054,0.855-1.905,1.906-1.905h52.976C195.94,299.084,196.795,299.935,196.795,300.989L196.795,300.989z"/>
<path style="fill:#BA7F3E;" d="M352.293,300.228c0,1.054-0.855,1.905-1.906,1.905h-52.976c-1.051,0-1.905-0.852-1.905-1.905l0,0
	c0-1.054,0.855-1.905,1.905-1.905h52.976C351.438,298.322,352.293,299.174,352.293,300.228L352.293,300.228z"/>
<path style="fill:#BA7F3E;" d="M332.094,328.811c0,1.054-0.855,1.905-1.906,1.905h-52.976c-1.052,0-1.905-0.852-1.905-1.905l0,0
	c0-1.055,0.854-1.906,1.905-1.906h52.976C331.238,326.905,332.094,327.757,332.094,328.811L332.094,328.811z"/>
<path style="fill:#BA7F3E;" d="M183.456,329.192c0,1.054-0.855,1.905-1.905,1.905h-52.977c-1.051,0-1.905-0.852-1.905-1.905l0,0
	c0-1.054,0.854-1.905,1.905-1.905h52.977C182.602,327.287,183.456,328.139,183.456,329.192L183.456,329.192z"/>
<path style="fill:#BA7F3E;" d="M350.387,357.395c0,1.055-0.854,1.906-1.905,1.906h-52.976c-1.051,0-1.906-0.852-1.906-1.906l0,0
	c0-1.054,0.855-1.905,1.906-1.905h52.976C349.532,355.489,350.387,356.341,350.387,357.395L350.387,357.395z"/>
<path style="fill:#995F1A;" d="M381.942,213.81L250.125,91.93c-1.885-1.748-4.052-2.986-6.339-3.755l-0.009-0.003
	c-0.523-0.176-1.051-0.327-1.584-0.452c-0.078-0.022-0.154-0.033-0.23-0.048c-0.462-0.102-0.926-0.193-1.394-0.256
	c-0.164-0.024-0.333-0.033-0.5-0.054c-0.375-0.042-0.75-0.08-1.129-0.099c-0.271-0.012-0.545-0.003-0.812-0.006
	c-0.273,0.003-0.545-0.006-0.816,0.006c-0.377,0.019-0.753,0.057-1.128,0.099c-0.167,0.021-0.333,0.029-0.5,0.054
	c-0.468,0.062-0.933,0.154-1.396,0.256c-0.071,0.015-0.149,0.026-0.224,0.048c-0.535,0.125-1.062,0.276-1.587,0.452l-0.009,0.003
	c-2.287,0.769-4.454,2.007-6.339,3.755L94.312,213.81c-7.152,6.615-7.59,17.772-0.977,24.927c6.616,7.152,17.775,7.59,24.931,0.971
	L238.129,128.88l119.865,110.827c7.152,6.619,18.309,6.182,24.925-0.971C389.532,231.582,389.095,220.425,381.942,213.81z"/>
<path style="opacity:0.5;fill:#4C2E0B;" d="M367.761,226.768L250.125,118c-1.885-1.747-4.052-2.986-6.339-3.754l-0.009-0.003
	c-0.523-0.176-1.051-0.328-1.584-0.453c-0.078-0.021-0.154-0.033-0.23-0.048c-0.462-0.101-0.926-0.193-1.394-0.256
	c-0.164-0.023-0.333-0.032-0.5-0.054c-0.375-0.041-0.75-0.08-1.129-0.098c-0.271-0.013-0.545-0.004-0.812-0.006
	c-0.273,0.002-0.545-0.007-0.816,0.006c-0.377,0.018-0.753,0.057-1.128,0.098c-0.167,0.021-0.333,0.03-0.5,0.054
	c-0.468,0.062-0.933,0.155-1.396,0.256c-0.071,0.015-0.149,0.027-0.224,0.048c-0.535,0.125-1.062,0.277-1.587,0.453l-0.009,0.003
	c-2.287,0.768-4.454,2.007-6.339,3.754L109.85,225.514v44.531c3.043-0.628,5.969-2.004,8.417-4.267L238.129,154.95l119.865,110.828
	c2.811,2.6,6.238,4.073,9.767,4.514V226.768z"/>
<path style="fill:#4C2E0B;" d="M118.267,239.707L238.129,128.88l119.865,110.827c6.994,6.474,17.791,6.151,24.455-0.554
	c-0.182-0.185-0.316-0.396-0.507-0.571l-131.817-121.88c-1.885-1.748-4.052-2.986-6.339-3.755l-0.009-0.003
	c-0.523-0.176-1.051-0.327-1.584-0.452c-0.078-0.021-0.154-0.033-0.23-0.048c-0.462-0.102-0.926-0.193-1.394-0.256
	c-0.164-0.024-0.333-0.033-0.5-0.054c-0.375-0.042-0.75-0.08-1.129-0.099c-0.271-0.012-0.545-0.003-0.812-0.006
	c-0.273,0.003-0.545-0.006-0.816,0.006c-0.377,0.019-0.753,0.057-1.128,0.099c-0.167,0.02-0.333,0.029-0.5,0.054
	c-0.468,0.062-0.933,0.154-1.396,0.256c-0.071,0.015-0.149,0.026-0.224,0.048c-0.535,0.125-1.062,0.276-1.587,0.452l-0.009,0.003
	c-2.287,0.768-4.454,2.007-6.339,3.755L94.312,238.582c-0.19,0.176-0.324,0.387-0.506,0.571
	C100.47,245.858,111.27,246.181,118.267,239.707z"/>
<circle style="fill:#E2B279;" cx="110.693" cy="337.437" r="14.469"/>
<circle style="fill:#E2B279;" cx="110.693" cy="308.505" r="14.469"/>
<path style="fill:#E2B279;" d="M96.225,279.569c0-7.988,6.479-14.467,14.467-14.467c7.992,0,14.471,6.479,14.471,14.467
	c0,7.992-6.479,14.471-14.471,14.471C102.703,294.04,96.225,287.561,96.225,279.569z"/>
<circle style="fill:#E2B279;" cx="110.693" cy="250.638" r="14.469"/>
<path style="fill:#995F1A;" d="M100.035,250.638c0-5.884,4.773-10.656,10.656-10.656c5.887,0,10.66,4.773,10.66,10.656
	c0,5.887-4.773,10.656-10.66,10.656C104.809,261.294,100.035,256.524,100.035,250.638z"/>
<path style="fill:#995F1A;" d="M100.035,279.35c0-5.884,4.773-10.656,10.656-10.656c5.887,0,10.66,4.772,10.66,10.656
	c0,5.887-4.773,10.656-10.66,10.656C104.809,290.006,100.035,285.236,100.035,279.35z"/>
<path style="fill:#995F1A;" d="M100.035,308.061c0-5.884,4.773-10.656,10.656-10.656c5.887,0,10.66,4.772,10.66,10.656
	c0,5.886-4.773,10.656-10.66,10.656C104.809,318.718,100.035,313.947,100.035,308.061z"/>
<path style="fill:#995F1A;" d="M100.035,336.772c0-5.883,4.773-10.656,10.656-10.656c5.887,0,10.66,4.773,10.66,10.656
	c0,5.887-4.773,10.657-10.66,10.657C104.809,347.43,100.035,342.659,100.035,336.772z"/>
<path style="fill:#995F1A;" d="M100.035,366.119c0-5.884,4.773-10.656,10.656-10.656c5.887,0,10.66,4.773,10.66,10.656
	c0,5.886-4.773,10.656-10.66,10.656C104.809,376.775,100.035,372.005,100.035,366.119z"/>
<circle style="fill:#E2B279;" cx="367.761" cy="366.369" r="14.468"/>
<circle style="fill:#E2B279;" cx="367.761" cy="337.437" r="14.468"/>
<circle style="fill:#E2B279;" cx="367.761" cy="308.505" r="14.468"/>
<circle style="fill:#E2B279;" cx="367.761" cy="279.569" r="14.468"/>
<circle style="fill:#E2B279;" cx="367.761" cy="250.638" r="14.468"/>
<path style="fill:#E2B279;" d="M282.676,257.417c0-3.227-2.617-5.845-5.846-5.845h-84.608c-3.228,0-5.845,2.617-5.845,5.845l0,0
	c0,3.229,2.617,5.846,5.845,5.846h84.608C280.059,263.263,282.676,260.646,282.676,257.417L282.676,257.417z"/>
<path style="fill:#BA7F3E;" d="M139.701,188.73c0.712,0.776,0.652,1.982-0.121,2.691l-39.134,35.709
	c-0.774,0.708-1.98,0.657-2.692-0.122l0,0c-0.708-0.777-0.651-1.983,0.123-2.691l39.13-35.709
	C137.784,187.899,138.99,187.95,139.701,188.73L139.701,188.73z"/>
<path style="fill:#BA7F3E;" d="M207.031,115.431c0.713,0.777,0.652,1.983-0.121,2.691l-39.134,35.709
	c-0.774,0.709-1.979,0.658-2.691-0.122l0,0c-0.709-0.777-0.652-1.983,0.122-2.691l39.131-35.709
	C205.114,114.6,206.32,114.65,207.031,115.431L207.031,115.431z"/>
<path style="fill:#BA7F3E;" d="M262.908,109.586c-0.712,0.777-0.652,1.983,0.121,2.691l39.134,35.709
	c0.774,0.709,1.98,0.658,2.692-0.122l0,0c0.708-0.777,0.651-1.982-0.123-2.691l-39.13-35.709
	C264.825,108.755,263.619,108.806,262.908,109.586L262.908,109.586z"/>
<path style="fill:#BA7F3E;" d="M285.266,142.618c-0.711,0.777-0.652,1.982,0.122,2.691l39.134,35.709
	c0.773,0.709,1.98,0.658,2.691-0.122l0,0c0.709-0.777,0.652-1.983-0.122-2.691l-39.13-35.709
	C287.184,141.787,285.978,141.838,285.266,142.618L285.266,142.618z"/>
<path style="fill:#995F1A;" d="M357.262,250.638c0-5.884,4.773-10.656,10.656-10.656c5.887,0,10.66,4.773,10.66,10.656
	c0,5.887-4.773,10.656-10.66,10.656C362.035,261.294,357.262,256.524,357.262,250.638z"/>
<path style="fill:#995F1A;" d="M357.262,279.603c0-5.884,4.773-10.656,10.656-10.656c5.887,0,10.66,4.772,10.66,10.656
	c0,5.887-4.773,10.656-10.66,10.656C362.035,290.259,357.262,285.489,357.262,279.603z"/>
<path style="fill:#995F1A;" d="M357.262,308.57c0-5.884,4.773-10.656,10.656-10.656c5.887,0,10.66,4.772,10.66,10.656
	c0,5.887-4.773,10.656-10.66,10.656C362.035,319.227,357.262,314.457,357.262,308.57z"/>
<path style="fill:#995F1A;" d="M357.262,337.22c0-5.884,4.773-10.656,10.656-10.656c5.887,0,10.66,4.772,10.66,10.656
	c0,5.887-4.773,10.656-10.66,10.656C362.035,347.876,357.262,343.106,357.262,337.22z"/>
<path style="fill:#995F1A;" d="M357.262,366.119c0-5.884,4.773-10.656,10.656-10.656c5.887,0,10.66,4.773,10.66,10.656
	c0,5.886-4.773,10.656-10.66,10.656C362.035,376.775,357.262,372.005,357.262,366.119z"/>
<rect x="141.404" y="198.851" style="fill:#4C2E0B;" width="194.801" height="13.077"/>
<g>
</g>
<g>
</g>
<g>
</g>
<g>
</g>
<g>
</g>
<g>
</g>
<g>
</g>
<g>
</g>
<g>
</g>
<g>
</g>
<g>
</g>
<g>
</g>
<g>
</g>
<g>
</g>
<g>
</g>
</svg>
