<?xml version="1.0" encoding="iso-8859-1"?>
<!-- Generator: Adobe Illustrator 17.0.0, SVG Export Plug-In . SVG Version: 6.00 Build 0)  -->
<!DOCTYPE svg PUBLIC "-//W3C//DTD SVG 1.1//EN" "http://www.w3.org/Graphics/SVG/1.1/DTD/svg11.dtd">
<svg version="1.1" id="Layer_1" xmlns="http://www.w3.org/2000/svg" xmlns:xlink="http://www.w3.org/1999/xlink" x="0px" y="0px"
	 width="512px" height="512px" viewBox="0 0 512 512" style="enable-background:new 0 0 512 512;" xml:space="preserve">
<g>
	<circle style="fill:#45B39C;" cx="256" cy="256" r="256"/>
	<g>
		<g>
			<path style="fill:#C9CCCC;" d="M340.778,182.285c0,0,0,85.637,0,128.58c0,0.762,0,1.713,0,2.498c0,2.354,4.71,2.354,4.71,0
				c0-43.17,0-86.097,0-129.04c0-0.764,0-1.253,0-2.038C345.488,179.146,340.778,179.146,340.778,182.285
				C340.778,182.285,340.778,179.146,340.778,182.285z"/>
		</g>
	</g>
	<g>
		<g>
			<g>
				<path style="fill:#C9CCCC;" d="M282.694,182.285c0,0,0,85.637,0,128.58c0,0.762,0,1.713,0,2.498c0,2.354,4.711,2.354,4.711,0
					c0-43.17,0-86.097,0-129.04c0-0.764,0-1.253,0-2.038C287.405,179.146,282.694,179.146,282.694,182.285
					C282.694,182.285,282.694,179.146,282.694,182.285z"/>
			</g>
		</g>
		<g>
			<path style="fill:#AFB3B3;" d="M287.405,228.595h-4.711v2.355c2.355,0,3.141,0,4.711,0V228.595z"/>
			<path style="fill:#AFB3B3;" d="M282.694,238.013h4.711v-2.354c-1.57,0-3.141,0-4.711,0V238.013z"/>
		</g>
		<g>
			<path style="fill:#AFB3B3;" d="M287.405,228.595h-4.711v2.355c2.355,0,3.141,0,4.711,0V228.595z"/>
			<path style="fill:#AFB3B3;" d="M282.694,238.013h4.711v-2.354c-1.57,0-3.141,0-4.711,0V238.013z"/>
		</g>
		<g>
			<path style="fill:#AFB3B3;" d="M287.405,283.536h-4.711v2.355c2.355,0,3.141,0,4.711,0V283.536z"/>
			<path style="fill:#AFB3B3;" d="M282.694,292.956h4.711v-2.354c-1.57,0-3.141,0-4.711,0V292.956z"/>
		</g>
	</g>
	<g>
		<g>
			<path style="fill:#C9CCCC;" d="M167.316,252.142c0,0,24.66,0,36.797,0c0.97,0,1.976-0.752,2.19-1.731
				c6.463-29.419,12.928-58.872,19.391-88.292c0.627-2.855-3.754-4.085-4.383-1.223c-6.463,29.42-12.927,58.812-19.391,88.232
				c0.732-0.557,1.463-0.911,2.192-1.696c-12.137,0-24.238,0-36.797,0C164.962,247.432,164.962,252.142,167.316,252.142
				C167.316,252.142,164.962,252.142,167.316,252.142z"/>
		</g>
	</g>
	<path style="fill:#E27C3E;" d="M203.421,244.685c0,1.95-1.581,3.532-3.531,3.532h-35.321c-1.95,0-3.532-1.582-3.532-3.532l0,0
		c0-1.949,1.582-3.531,3.532-3.531h35.321C201.84,241.153,203.421,242.735,203.421,244.685L203.421,244.685z"/>
	<circle style="fill:#334D5C;" cx="198.893" cy="403.7" r="20.157"/>
	<path style="fill:#C9CCCC;" d="M198.894,417.929c-7.846,0-14.229-6.384-14.229-14.229c0-7.847,6.383-14.228,14.229-14.228
		c7.845,0,14.229,6.382,14.229,14.228C213.122,411.545,206.738,417.929,198.894,417.929z"/>
	<path style="fill:#C9CCCC;" d="M199.486,410.805c-3.917,0-7.106-3.188-7.106-7.104c0-3.917,3.189-7.105,7.106-7.105
		c3.917,0,7.105,3.189,7.105,7.105C206.591,407.616,203.403,410.805,199.486,410.805z"/>
	<g>
		<g>
			<path style="fill:#C9CCCC;" d="M225.399,182.285c0,0,0,85.637,0,128.58c0,0.762,0,1.713,0,2.498c0,2.354,4.71,2.354,4.71,0
				c0-43.17,0-86.097,0-129.04c0-0.764,0-1.253,0-2.038C230.108,179.146,225.399,179.146,225.399,182.285
				C225.399,182.285,225.399,179.146,225.399,182.285z"/>
		</g>
	</g>
	<g>
		<g>
			<path style="fill:#ECF0F0;" d="M153.189,208.972c0,0,79.521,0,119.406,0c42.77,0,85.539,0,128.309,0c0.145,0,0.312,0,0.312,0
				c3.14,0,3.14-4.709,0-4.709c-40.03,0-79.648,0-119.533,0c-42.769,0-85.538,0-128.309,0c-0.145,0-0.185,0-0.185,0
				C150.048,204.263,150.048,208.972,153.189,208.972C153.189,208.972,150.048,208.972,153.189,208.972z"/>
		</g>
	</g>
	<rect x="250.515" y="204.263" style="fill:#C9CCCC;" width="11.773" height="4.709"/>
	<rect x="307.812" y="204.263" style="fill:#C9CCCC;" width="11.775" height="4.709"/>
	<rect x="365.896" y="204.263" style="fill:#C9CCCC;" width="11.773" height="4.709"/>
	<rect x="193.218" y="204.263" style="fill:#C9CCCC;" width="11.773" height="4.709"/>
	<g>
		<g>
			<path style="fill:#C9CCCC;" d="M161.821,235.658c0,0,81.613,0,122.224,0c39.099,0,77.925,0,117.17,0c3.14,0,3.14-4.708,0-4.708
				c-40.816,0-81.099,0-121.708,0c-39.099,0-78.441,0-117.686,0C159.466,230.95,159.466,235.658,161.821,235.658
				C161.821,235.658,159.466,235.658,161.821,235.658z"/>
		</g>
	</g>
	<g>
		<g>
			<path style="fill:#ECF0F0;" d="M171.239,263.13c0,0,82.907,0,124.237,0c35.288,0,70.419,0,105.738,0c3.14,0,3.14-4.71,0-4.71
				c-40.816,0-82.536,0-123.866,0c-35.289,0-70.787,0-106.109,0C168.887,258.42,168.887,263.13,171.239,263.13
				C171.239,263.13,168.887,263.13,171.239,263.13z"/>
		</g>
	</g>
	<rect x="250.515" y="258.42" style="fill:#C9CCCC;" width="11.773" height="4.71"/>
	<rect x="307.812" y="258.42" style="fill:#C9CCCC;" width="11.775" height="4.71"/>
	<rect x="365.896" y="258.42" style="fill:#C9CCCC;" width="11.773" height="4.71"/>
	<rect x="193.218" y="258.42" style="fill:#C9CCCC;" width="11.773" height="4.71"/>
	<g>
		<g>
			<path style="fill:#C9CCCC;" d="M180.659,290.602c0,0,84.576,0,126.814,0c30.779,0,61.56,0,92.172,0c3.139,0,3.139-4.71,0-4.71
				c-42.384,0-84.303,0-126.539,0c-30.781,0-61.836,0-92.447,0C177.521,285.892,177.521,290.602,180.659,290.602
				C180.659,290.602,177.521,290.602,180.659,290.602z"/>
		</g>
	</g>
	<path style="fill:#ECF0F0;" d="M399.215,371.816c-9.683-5.186-19.364-10.284-29.048-15.472c-4.188-2.243-9.049-1.381-13.699-1.381
		c-17.859,0-35.721,0-53.581,0c0.614-9.582,4.437-18.289,10.271-26.087c2.266-3.03,4.965-5.785,7.746-8.345
		c1.227-1.131,3.028-2.599,3.458-2.905c3.797-2.704,0.159-9.034-3.682-6.299c-13.974,9.952-24.161,26.398-25.103,43.636
		c-5.351,0-10.702,0-16.054,0c-23.255,0-46.511,0-69.765,0c-11.735,0-48.747-1.439-33.121-20.679
		c3.842-4.73,9.133-8.167,14.412-11.07c2.755-1.515,5.984-3.05,7.947-3.786c5.433-2.041,3.081-10.851-2.417-8.785
		c-11.294,4.241-23.386,11.222-29.719,21.798c-3.786,6.325-4.265,14.54,0.481,20.446c4.221,5.249,11.202,7.485,17.551,8.91
		c14.125,3.17,29.628,1.799,44.006,1.799c45.328,0,90.655,0,135.984,0c0.008,0.005,0.015,0.008,0.024,0.012
		c1.003,0.538,2.007,1.147,3.01,1.685c3.534,1.893,7.067,3.822,10.601,5.714c5.369,2.877,10.74,5.771,16.109,8.648
		C399.793,382.422,404.385,374.585,399.215,371.816z M364.339,363.323C364.009,363.218,363.982,363.161,364.339,363.323
		L364.339,363.323z"/>
	<g>
		<path style="fill:#C9CCCC;" d="M198.997,319.429c2.453-0.922,3.314-3.223,3.019-5.28c-4.512,0-9.023,0-13.533,0
			c-5.092,2.519-10.028,5.628-14.212,9.418c5.386,0,10.769,0,16.155,0c0.208-0.116,0.414-0.236,0.623-0.352
			C193.805,321.7,197.034,320.165,198.997,319.429z"/>
		<path style="fill:#C9CCCC;" d="M320.903,320.532c1.227-1.131,3.028-2.599,3.458-2.905c1.278-0.91,1.712-2.23,1.58-3.479
			c-2.97,0-5.94,0-8.908,0c-3.342,2.79-6.411,5.958-9.124,9.418c3.291,0,6.58,0,9.871,0
			C318.8,322.526,319.84,321.51,320.903,320.532z"/>
	</g>
	<path style="fill:#ECF0F0;" d="M218.34,370.413c-1.905,0-4.755,0.759-6.535,1.684l-17.142,6.916
		c-1.083,1.689-2.148,3.072-2.1,3.072c0.05,0-0.131,1.64-0.131,3.646v1.592c0,2.007,0,5.288,0,7.295v0.322c0,2.006,0,5.288,0,7.296
		v2.46c0,2.007,2.169,4.424,4.174,4.424h3.422c2.005,0,4.58-1.738,5.72-3.389l2.405-3.646c1.142-1.65,3.715-3.168,5.72-3.168h4.616
		c2.008,0,2.984-1.697,2.984-3.703v-9.482c0-2.007,0-5.288,0-7.295v-4.377C221.474,372.055,220.247,370.413,218.34,370.413z"/>
	<path style="fill:#C9CCCC;" d="M196.733,405.038v-19.465c0-1.04-0.278-1.983-0.295-2.666c0-0.039-0.135-0.076-0.137-0.114
		c0.164-0.271,0.309-0.604,0.551-0.991l16.27-6.545l0.143-0.082c1.195-0.623,2.985-1.213,4.34-1.27l-0.463,4.373v16.557h-3.677
		c-3.222,0-6.888,2.033-8.72,4.686l-2.405,3.786c-0.46,0.667-1.91,1.731-2.72,1.731H196.733z"/>
	<circle style="fill:#334D5C;" cx="321.159" cy="403.7" r="20.156"/>
	<path style="fill:#C9CCCC;" d="M321.158,417.929c-7.843,0-14.227-6.384-14.227-14.229c0-7.847,6.384-14.228,14.227-14.228
		c7.847,0,14.229,6.382,14.229,14.228C335.388,411.545,329.005,417.929,321.158,417.929z"/>
	<path style="fill:#C9CCCC;" d="M321.751,410.805c-3.916,0-7.105-3.188-7.105-7.104c0-3.917,3.189-7.105,7.105-7.105
		c3.917,0,7.107,3.189,7.107,7.105C328.858,407.616,325.668,410.805,321.751,410.805z"/>
	<path style="fill:#ECF0F0;" d="M340.696,370.413c-1.906,0-4.8,0.759-6.582,1.684l-17.164,6.916
		c-1.082,1.689-2.07,3.072-2.018,3.072c0.048,0-0.056,1.64-0.056,3.646v1.592c0,2.007,0,5.288,0,7.295v0.322
		c0,2.006,0,5.288,0,7.296v2.46c0,2.007,1.99,4.424,3.997,4.424h3.422c2.005,0,4.58-1.738,5.72-3.389l2.405-3.646
		c1.138-1.65,3.714-3.168,5.72-3.168h4.615c2.008,0,3.163-1.697,3.163-3.703v-9.482c0-2.007,0-5.288,0-7.295v-4.377
		C343.918,372.055,342.601,370.413,340.696,370.413z"/>
	<path style="fill:#C9CCCC;" d="M318.017,405.196v-19.465c0-1.04,0.418-1.983,0.401-2.666c-0.001-0.039,0.214-0.075,0.21-0.113
		c0.167-0.272,0.48-0.605,0.724-0.992l16.358-6.545l0.186-0.082c1.195-0.623,3.488-1.213,4.841-1.27l0.042,4.373v16.557h-4.639
		c-3.223,0-6.89,2.035-8.722,4.686l-2.403,3.785c-0.461,0.667-1.91,1.731-2.72,1.731H318.017z"/>
	<g>
		<g>
			<path style="fill:#C9CCCC;" d="M148.671,178.146c-4.801-0.58-6.043-8.061-7.414-11.677c-2.533-6.682-5.066-13.361-7.6-20.043
				c-2.188-5.767-4.374-11.533-6.561-17.3c-1.652-4.354-3.519-8.811-8.18-10.8c-4.768-2.034-9.533-4.067-14.303-6.101
				c-3.111-1.328,2.262-9.706,5.219-8.245c2.162,1.068,4.324,2.137,6.485,3.207c5.282,2.611,12.944,4.896,16.646,9.753
				c1.982,2.604,2.812,6.557,3.953,9.549c4.592,12.055,9.185,24.109,13.776,36.165c1.599,4.193,3.099,8.387,4.696,12.578
				c1.594,4.185-3.771,2.913-6.912,2.913c-2.355,0-2.355,4.545,0,4.545c5.496,0,13.748,0.78,11.881-7.123
				c-0.688-2.915-2.18-5.849-3.242-8.639c-4.963-13.028-9.902-26.057-14.866-39.087c-1.327-3.479-2.64-6.958-3.966-10.438
				c-2.123-5.574-6.888-7.815-11.819-10.256c-4.845-2.395-9.8-5.604-14.927-7.343c-6.588-2.231-12.01,4.955-12.775,10.917
				c-0.547,4.256,4.562,5.854,7.53,7.121c3.464,1.477,6.929,2.955,10.392,4.434c5.926,2.526,7.816,12.769,9.837,18.097
				c3.452,9.1,6.903,18.202,10.354,27.302c2.406,6.347,3.797,14.048,11.795,15.015C151.577,183.042,151.543,178.493,148.671,178.146
				z"/>
		</g>
	</g>
	<g>
		<path style="fill:#E27C3E;" d="M147.714,132.849c-1.603-5.233-5.93-10.601-7.529-15.832c-2.031-6.642-7.647-9.33-13.3-12.125
			c-5.196-2.57-10.399-5.773-15.905-7.639c-7.127-2.413-15.416,8.09-14.324,14.695c1.111,6.736,10.309,8.642,15.641,10.917
			c2.549,1.088,5.484,1.937,6.566,4.821c0.728,1.945,1.143,4.217,1.705,6.215c0.313,1.111,0.601,2.86,0.886,3.646h27.786
			C148.7,135.191,148.167,134.33,147.714,132.849z"/>
	</g>
	<circle style="fill:#ED9966;" cx="109.485" cy="108.967" r="7.772"/>
	<path style="fill:#ECF0F0;" d="M408.61,176.007c-38.496,0-76.99,0-115.487,0c-47.875,0-95.753,0-143.628,0c-1.79,0-3.578,0-5.369,0
		c-2.821,0-5.343,2.859-4.381,5.687c14.323,42.106,28.645,84.182,42.967,126.29c0.826,2.427,1.651,4.981,2.479,7.41
		c0.656,1.93,2.268,3.465,4.381,3.465c43.084,0,86.168,0,129.254,0c26.293,0,52.562,0,79.252,0c2.609,0,3.977-2.129,4.105-4.36
		c0.029-0.159,0.053-0.325,0.066-0.495c3.535-43.31,7.07-86.607,10.606-129.918c0.101-1.227,0.2-2.38,0.301-3.605
		C413.357,178.009,410.935,176.007,408.61,176.007z M393.526,309.439c-41.666,0-83.503,0-125.076,0c-25.214,0-50.427,0-75.639,0
		c-13.942-40.988-27.883-81.969-41.826-122.957c-0.205-0.606-0.41-1.222-0.617-1.842c36.415,0,72.832,0,109.246,0
		c47.875,0,95.752,0,143.629,0c0.155,0,0.31,0,0.467,0C400.314,226.22,396.921,267.865,393.526,309.439z"/>
	<g>
		<path style="fill:#E27C3E;" d="M415.427,180.488c0.311-3.708-3.337-6.837-6.816-6.837c-3.939,0-7.395,0-12.103,0v13.344
			c1.57,0,3.24,0,4.715,0c-0.256,3.14-0.508,7.064-0.762,9.418h13.633C414.536,190.92,414.982,185.79,415.427,180.488z"/>
	</g>
	<g>
		<g>
			<path style="fill:#ED9966;" d="M402,182.285c0,0,4.488,0,6.61,0c-0.439-0.783-0.877-1.175-1.315-1.75
				c-0.454,2.802-0.907,5.593-1.363,8.395c-0.278,1.72,2.351,2.452,2.63,0.719c0.453-2.802,0.908-5.79,1.363-8.592
				c0.141-0.86-0.356-1.91-1.314-1.91c-2.122,0-4.256,0-6.61,0C400.43,179.146,400.43,182.285,402,182.285
				C402,182.285,400.43,182.285,402,182.285z"/>
		</g>
	</g>
	<path style="fill:#C9CCCC;" d="M227.753,367.522c0,2.167-1.756,3.924-3.925,3.924h-12.558c-2.168,0-3.926-1.757-3.926-3.924l0,0
		c0-2.168,1.758-3.925,3.926-3.925h12.558C225.997,363.597,227.753,365.353,227.753,367.522L227.753,367.522z"/>
	<path style="fill:#C9CCCC;" d="M349.411,367.522c0,2.167-1.756,3.924-3.923,3.924h-12.56c-2.167,0-3.924-1.757-3.924-3.924l0,0
		c0-2.168,1.757-3.925,3.924-3.925h12.56C347.655,363.597,349.411,365.353,349.411,367.522L349.411,367.522z"/>
	<g>
		<g>
			<path style="fill:#ECF0F0;" d="M197.142,182.285c0,0,0,85.677,0,128.545c0,0.762,0,1.748,0,2.533c0,2.354,3.925,2.354,3.925,0
				c0-43.17,0-85.986,0-128.857c0-0.762,0-1.437,0-2.222C201.066,179.146,197.142,179.146,197.142,182.285
				C197.142,182.285,197.142,179.146,197.142,182.285z"/>
		</g>
	</g>
	<g>
		<g>
			<path style="fill:#ECF0F0;" d="M254.441,181.502c0,0,0,86.38,0,129.396c0,0.765,0,1.68,0,2.465c0,3.14,4.708,3.14,4.708,0
				c0-43.17,0-86.206,0-129.224c0-0.763,0-1.854,0-2.638C259.149,179.146,254.441,179.146,254.441,181.502
				C254.441,181.502,254.441,179.146,254.441,181.502z"/>
		</g>
	</g>
	<g>
		<g>
			<path style="fill:#ECF0F0;" d="M311.736,181.502c0,0,0,86.135,0,129.216c0,0.851,0,1.86,0,2.646c0,3.14,4.71,3.14,4.71,0
				c0-43.17,0-86.26,0-129.342c0-0.85,0-1.736,0-2.52C316.446,178.361,311.736,178.361,311.736,181.502
				C311.736,181.502,311.736,178.361,311.736,181.502z"/>
		</g>
	</g>
	<g>
		<g>
			<path style="fill:#ECF0F0;" d="M369.819,180.717c0,0,0,86.668,0,129.811c0,0.939,0,2.05,0,2.835c0,3.14,3.924,3.14,3.924,0
				c0-43.17,0-86.307,0-129.45c0-0.939,0-1.628,0-3.196C373.743,178.361,369.819,178.361,369.819,180.717
				C369.819,180.717,369.819,178.361,369.819,180.717z"/>
		</g>
	</g>
	<g>
		<path style="fill:#AFB3B3;" d="M230.108,228.595h-4.71v2.355c1.569,0,3.138,0,4.71,0V228.595z"/>
		<path style="fill:#AFB3B3;" d="M225.399,238.013h4.71v-2.354c-1.575,0-3.145,0-4.71,0V238.013z"/>
	</g>
	<g>
		<path style="fill:#AFB3B3;" d="M230.108,228.595h-4.71v2.355c1.569,0,3.138,0,4.71,0V228.595z"/>
		<path style="fill:#AFB3B3;" d="M225.399,238.013h4.71v-2.354c-1.575,0-3.145,0-4.71,0V238.013z"/>
	</g>
	<g>
		<path style="fill:#AFB3B3;" d="M230.108,283.536h-4.71v2.355c1.569,0,3.138,0,4.71,0V283.536z"/>
		<path style="fill:#AFB3B3;" d="M225.399,292.956h4.71v-2.354c-1.575,0-3.145,0-4.71,0V292.956z"/>
	</g>
	<g>
		<path style="fill:#AFB3B3;" d="M345.488,228.595h-4.71v2.355c1.57,0,3.139,0,4.71,0V228.595z"/>
		<path style="fill:#AFB3B3;" d="M340.778,238.013h4.71v-2.354c-1.575,0-3.145,0-4.71,0V238.013z"/>
	</g>
	<g>
		<path style="fill:#AFB3B3;" d="M345.488,228.595h-4.71v2.355c1.57,0,3.139,0,4.71,0V228.595z"/>
		<path style="fill:#AFB3B3;" d="M340.778,238.013h4.71v-2.354c-1.575,0-3.145,0-4.71,0V238.013z"/>
	</g>
	<g>
		<path style="fill:#AFB3B3;" d="M345.488,283.536h-4.71v2.355c1.57,0,3.139,0,4.71,0V283.536z"/>
		<path style="fill:#AFB3B3;" d="M340.778,292.956h4.71v-2.354c-1.575,0-3.145,0-4.71,0V292.956z"/>
	</g>
</g>
<g>
</g>
<g>
</g>
<g>
</g>
<g>
</g>
<g>
</g>
<g>
</g>
<g>
</g>
<g>
</g>
<g>
</g>
<g>
</g>
<g>
</g>
<g>
</g>
<g>
</g>
<g>
</g>
<g>
</g>
</svg>
