<?xml version="1.0" encoding="iso-8859-1"?>
<!-- Generator: Adobe Illustrator 17.0.0, SVG Export Plug-In . SVG Version: 6.00 Build 0)  -->
<!DOCTYPE svg PUBLIC "-//W3C//DTD SVG 1.1//EN" "http://www.w3.org/Graphics/SVG/1.1/DTD/svg11.dtd">
<svg version="1.1" id="Layer_1" xmlns="http://www.w3.org/2000/svg" xmlns:xlink="http://www.w3.org/1999/xlink" x="0px" y="0px"
	 width="512px" height="512px" viewBox="0 0 512 512" style="enable-background:new 0 0 512 512;" xml:space="preserve">
<path id="bg_29_" style="fill:#EFC84A;" d="M512,256c0,141.381-114.613,256-255.998,256C114.613,512,0,397.381,0,256
	S114.613,0,256.002,0C397.387,0,512,114.619,512,256z"/>
<path style="fill:#334D5C;" d="M399.167,85.02c0-3.368-2.73-6.098-6.099-6.098H118.932c-3.368,0-6.099,2.73-6.099,6.098v297.924
	c0,3.366,2.73,6.096,6.099,6.096h274.137c3.368,0,6.099-2.73,6.099-6.096V85.02z"/>
<path style="fill:#D86B35;" d="M364.688,132.615c0-3.374-2.735-6.109-6.109-6.109H153.174c-3.373,0-6.107,2.735-6.107,6.109v50.778
	c0,3.372,2.734,6.108,6.107,6.108h205.404c3.374,0,6.109-2.736,6.109-6.108V132.615z"/>
<path d="M171.887,427.165c0,3.264-2.642,5.91-5.904,5.91h-40.25c-3.264,0-5.908-2.646-5.908-5.91v-50.028
	c0-3.267,2.645-5.907,5.908-5.907h40.25c3.263,0,5.904,2.641,5.904,5.907V427.165z"/>
<path style="fill:#444444;" d="M123.248,432.513c0.757,0.352,1.591,0.562,2.484,0.562h0.282v-61.846h-0.282
	c-0.894,0-1.728,0.208-2.484,0.562V432.513z"/>
<rect x="131.678" y="371.229" style="fill:#444444;" width="2.77" height="61.846"/>
<rect x="140.107" y="371.229" style="fill:#444444;" width="2.77" height="61.846"/>
<rect x="148.54" y="371.229" style="fill:#444444;" width="2.769" height="61.846"/>
<rect x="156.969" y="371.229" style="fill:#444444;" width="2.77" height="61.846"/>
<path style="fill:#444444;" d="M165.401,433.075h0.581c0.773,0,1.51-0.158,2.186-0.429v-60.987
	c-0.676-0.274-1.412-0.429-2.186-0.429h-0.581V433.075z"/>
<path d="M392.131,424.951c0,3.268-2.646,5.91-5.91,5.91h-40.247c-3.264,0-5.907-2.642-5.907-5.91v-50.032
	c0-3.26,2.644-5.908,5.907-5.908h40.247c3.264,0,5.91,2.648,5.91,5.908V424.951z"/>
<path style="fill:#444444;" d="M343.487,430.298c0.756,0.351,1.596,0.562,2.486,0.562h0.282v-61.85h-0.282
	c-0.891,0-1.73,0.212-2.486,0.563V430.298z"/>
<rect x="351.92" y="369.011" style="fill:#444444;" width="2.766" height="61.85"/>
<rect x="360.352" y="369.011" style="fill:#444444;" width="2.764" height="61.85"/>
<rect x="368.781" y="369.011" style="fill:#444444;" width="2.766" height="61.85"/>
<rect x="377.211" y="369.011" style="fill:#444444;" width="2.769" height="61.85"/>
<path style="fill:#444444;" d="M385.64,430.86h0.581c0.773,0,1.513-0.158,2.189-0.432v-60.986c-0.676-0.273-1.415-0.432-2.189-0.432
	h-0.581V430.86z"/>
<rect x="147.325" y="181.224" style="fill:#994020;" width="217.35" height="140.156"/>
<polygon style="fill:#E27C3E;" points="348.623,221.942 165.22,221.942 172.676,261.887 341.171,261.887 "/>
<rect x="176.803" y="267.731" style="fill:#334D5C;" width="160.238" height="106.157"/>
<polygon style="fill:#BF592C;" points="172.676,379.734 165.22,379.734 165.22,221.936 172.676,261.887 "/>
<polygon style="fill:#BF592C;" points="341.164,379.734 348.62,379.734 348.62,221.942 341.164,261.887 "/>
<rect x="165.22" y="185.075" style="fill:#2893C0;" width="183.094" height="36.867"/>
<path style="fill:#C6C6C6;" d="M395.823,343.962c0-10.904-15.745-19.738-26.646-19.738h-231.73c-10.9,0-19.737,8.834-19.737,19.738
	v60.856c0,10.901,8.837,19.736,19.737,19.736h238.637c10.897,0,19.738-8.835,19.738-19.736V343.962z"/>
<path style="fill:#D86B35;" d="M186.029,379.825v-44.26c0-18.955-15.369-34.326-34.321-34.326
	c-18.961,0-34.325,15.371-34.325,34.326v44.26H186.029z"/>
<path style="fill:#D86B35;" d="M395.855,379.825v-44.26c0-18.955-15.367-34.326-34.321-34.326
	c-18.958,0-34.325,15.371-34.325,34.326v44.26H395.855z"/>
<rect x="172.676" y="261.887" style="fill:#FFFFFF;" width="168.495" height="117.847"/>
<rect x="176.803" y="267.731" style="fill:#334D5C;" width="160.238" height="106.157"/>
<path style="fill:#FFFFFF;" d="M194.244,273.909c-2.742,0-4.966,2.222-4.966,4.967v95.013h9.938v-95.013
	C199.217,276.131,196.993,273.909,194.244,273.909z"/>
<path style="fill:#FFFFFF;" d="M215.058,273.909c-2.745,0-4.97,2.222-4.97,4.967v95.013h9.939v-95.013
	C220.027,276.131,217.803,273.909,215.058,273.909z"/>
<path style="fill:#FFFFFF;" d="M235.87,273.909c-2.745,0-4.97,2.222-4.97,4.967v95.013h9.939v-95.013
	C240.84,276.131,238.615,273.909,235.87,273.909z"/>
<path style="fill:#FFFFFF;" d="M256.681,273.909c-2.745,0-4.97,2.222-4.97,4.967v95.013h9.941v-95.013
	C261.652,276.131,259.429,273.909,256.681,273.909z"/>
<path style="fill:#FFFFFF;" d="M277.493,273.909c-2.745,0-4.97,2.222-4.97,4.967v95.013h9.939v-95.013
	C282.463,276.131,280.238,273.909,277.493,273.909z"/>
<path style="fill:#FFFFFF;" d="M298.307,273.909c-2.746,0-4.97,2.222-4.97,4.967v95.013h9.938v-95.013
	C303.275,276.131,301.052,273.909,298.307,273.909z"/>
<path style="fill:#FFFFFF;" d="M319.116,273.909c-2.742,0-4.967,2.222-4.967,4.967v95.013h9.939v-95.013
	C324.089,276.131,321.864,273.909,319.116,273.909z"/>
<path style="fill:#FFFFFF;" d="M163.809,368.958c0,3.942-3.198,7.14-7.146,7.14h-19.258c-3.945,0-7.144-3.198-7.144-7.14l0,0
	c0-3.949,3.198-7.147,7.144-7.147h19.258C160.61,361.811,163.809,365.009,163.809,368.958L163.809,368.958z"/>
<path style="fill:#FFFFFF;" d="M382.855,368.958c0,3.942-3.197,7.14-7.143,7.14h-19.259c-3.948,0-7.144-3.198-7.144-7.14l0,0
	c0-3.949,3.195-7.147,7.144-7.147h19.259C379.658,361.811,382.855,365.009,382.855,368.958L382.855,368.958z"/>
<polygon style="fill:#46AFD3;" points="213.953,221.942 251.277,221.942 235.459,185.075 198.135,185.075 "/>
<polygon style="fill:#46AFD3;" points="268.972,221.942 253.155,185.075 239.884,185.075 255.701,221.942 "/>
<g>
</g>
<g>
</g>
<g>
</g>
<g>
</g>
<g>
</g>
<g>
</g>
<g>
</g>
<g>
</g>
<g>
</g>
<g>
</g>
<g>
</g>
<g>
</g>
<g>
</g>
<g>
</g>
<g>
</g>
</svg>
