<?xml version="1.0" encoding="iso-8859-1"?>
<!-- Generator: Adobe Illustrator 17.0.0, SVG Export Plug-In . SVG Version: 6.00 Build 0)  -->
<!DOCTYPE svg PUBLIC "-//W3C//DTD SVG 1.1//EN" "http://www.w3.org/Graphics/SVG/1.1/DTD/svg11.dtd">
<svg version="1.1" id="Layer_1" xmlns="http://www.w3.org/2000/svg" xmlns:xlink="http://www.w3.org/1999/xlink" x="0px" y="0px"
	 width="512.001px" height="512px" viewBox="0 0 512.001 512" style="enable-background:new 0 0 512.001 512;" xml:space="preserve"
	>
<circle id="background_38_" style="fill:#ECF0F0;" cx="256" cy="256" r="256"/>
<path style="fill:#FFD654;" d="M415.54,254.24c1.352,1.863,0.935,4.47-0.928,5.821l0,0c-1.863,1.35-4.469,0.936-5.82-0.928
	L257.12,49.94c-1.351-1.863-0.936-4.469,0.927-5.82l0,0c1.863-1.351,4.47-0.935,5.819,0.928L415.54,254.24z"/>
<path style="fill:#EFC84A;" d="M408.386,258.571c1.35,1.862,3.955,2.278,5.82,0.927c1.863-1.351,2.277-3.956,0.926-5.819
	l-73.797-101.785l-6.748,4.893L408.386,258.571z"/>
<path style="fill:#EFC84A;" d="M259.045,138.557l0.486,0.671c-0.243-0.806-0.396-1.239-0.396-1.239L259.045,138.557z"/>
<path style="fill:#EFC84A;" d="M334.587,156.786l-72.56-100.078c4.646,15.396,29.072,112.09-65.914,180.959L25.122,366.724
	c1.709,3.562,3.506,7.073,5.373,10.54L334.587,156.786z"/>
<path style="fill:#CFA729;" d="M34.602,384.583l186.222-135.02c8.562-6.207,18.539-8.687,28.127-7.743
	c81.578-36.365,148.675,8.178,158.129,14.948l-72.492-99.982L30.495,377.264C31.825,379.728,33.195,382.167,34.602,384.583z"/>
<path style="fill:#CFA729;" d="M408.228,257.613c0,0-0.397-0.305-1.148-0.845l0.898,1.24L408.228,257.613z"/>
<path style="fill:#EFC84A;" d="M35.491,386.09c2.07,3.499,4.219,6.943,6.447,10.333l187.04-135.611
	c12.403-8.993,28.84-6.373,37.833,6.03l1.224,1.686l11.247-8.155l-1.224-1.686c-7.249-9.996-17.911-15.767-29.108-16.866
	c-11.474,5.114-23.23,11.81-35.156,20.456L35.491,386.09z"/>
<path style="fill:#EFC84A;" d="M220.823,249.564L34.602,384.583c0.294,0.506,0.594,1.006,0.89,1.507l178.303-123.813
	c11.926-8.646,23.683-15.342,35.156-20.456C239.362,240.877,229.386,243.356,220.823,249.564z"/>
<path style="fill:#DBB230;" d="M268.442,269.09c8.992,12.403,7.188,29.965-5.216,38.958l-7.714,5.592
	c1.254,1.199,2.436,2.509,3.496,3.972l0.984,1.36l0.172,0.235c1.337,1.843,2.414,3.808,3.283,5.84l7.934-5.752
	c18.557-13.455,21.762-39.802,8.307-58.358l-0.406-0.564l-11.247,8.155L268.442,269.09z"/>
<path style="fill:#DBB230;" d="M252.122,324.68l-0.986-1.359c-1.08-1.492-2.334-2.755-3.695-3.827L79.398,441.332
	c3.427,3.267,6.955,6.428,10.56,9.503l165.315-119.86c-0.651-2.14-1.632-4.196-2.981-6.06L252.122,324.68z"/>
<path style="fill:#EFD581;" d="M218.235,311.498L62.929,424.1c2.143,2.46,4.338,4.872,6.573,7.249L223.943,319.37
	c7.311-5.3,16.825-5.125,23.497,0.123l8.072-5.854C245.491,304.059,229.942,303.01,218.235,311.498z"/>
<path style="fill:#EFD581;" d="M251.136,323.32l0.986,1.359l7.871-5.708l-0.984-1.36c-1.06-1.463-2.242-2.772-3.496-3.972
	l-8.072,5.854C248.802,320.565,250.056,321.828,251.136,323.32z"/>
<path style="fill:#EFCA51;" d="M263.448,325.047l-8.175,5.928c2.431,7.96,0.071,17.105-6.866,22.137L101.169,459.866
	c2.709,2.062,5.461,4.07,8.254,6.025l144.692-104.906C265.442,352.772,268.798,337.533,263.448,325.047z"/>
<path style="fill:#EFCA51;" d="M259.993,318.972l-7.871,5.708l0.17,0.235c1.35,1.863,2.33,3.92,2.981,6.06l8.175-5.928
	c-0.869-2.032-1.946-3.997-3.283-5.84L259.993,318.972z"/>
<g>
</g>
<g>
</g>
<g>
</g>
<g>
</g>
<g>
</g>
<g>
</g>
<g>
</g>
<g>
</g>
<g>
</g>
<g>
</g>
<g>
</g>
<g>
</g>
<g>
</g>
<g>
</g>
<g>
</g>
</svg>
