<?xml version="1.0" encoding="iso-8859-1"?>
<!-- Generator: Adobe Illustrator 17.0.0, SVG Export Plug-In . SVG Version: 6.00 Build 0)  -->
<!DOCTYPE svg PUBLIC "-//W3C//DTD SVG 1.1//EN" "http://www.w3.org/Graphics/SVG/1.1/DTD/svg11.dtd">
<svg version="1.1" id="Layer_1" xmlns="http://www.w3.org/2000/svg" xmlns:xlink="http://www.w3.org/1999/xlink" x="0px" y="0px"
	 width="512px" height="512px" viewBox="0 0 512 512" style="enable-background:new 0 0 512 512;" xml:space="preserve">
<path id="background_14_" style="fill:#E27C3E;" d="M511.991,253.87c1.177,141.38-112.481,256.944-253.861,258.121
	C116.751,513.168,1.186,399.51,0.009,258.131C-1.141,119.789,109.856,1.207,253.87,0.009
	C395.25-1.166,510.815,112.49,511.991,253.87z"/>
<path style="fill:#45B39C;" d="M167.602,389.001h177.047c14.602,0,26.351-11.777,26.351-26.38V149.372
	c0-14.604-11.749-26.372-26.351-26.372H205.607L140,187.374V362.62C140,377.224,152.999,389.001,167.602,389.001z"/>
<polygon style="fill:#3B9985;" points="205.607,175.477 270.05,123.001 205.607,123.001 176.963,187.426 "/>
<path style="fill:#53D6BB;" d="M193.672,186.001c6.564,0,11.328-3.997,11.328-10.56v-52.51l-63.838,63.07H193.672z"/>
<path style="fill:#ECF0F0;" d="M224.515,232.001c3.08,0,4.485,3.263,4.485,6.341v78.623c0,3.08,3.635,6.036,6.715,6.036h41.215
	c3.08,0,5.07-2.956,5.07-6.036v-78.623c0-3.079,3.05-6.341,6.13-6.341h13.645c3.081,0,3.728-1.316,1.442-3.379l-42.735-38.347
	c-2.288-2.062-6.031-1.969-8.318,0.094l-42.735,38.206c-2.288,2.062-1.64,3.426,1.44,3.426H224.515z"/>
<g>
</g>
<g>
</g>
<g>
</g>
<g>
</g>
<g>
</g>
<g>
</g>
<g>
</g>
<g>
</g>
<g>
</g>
<g>
</g>
<g>
</g>
<g>
</g>
<g>
</g>
<g>
</g>
<g>
</g>
</svg>
