<?xml version="1.0" encoding="iso-8859-1"?>
<!-- Generator: Adobe Illustrator 17.0.0, SVG Export Plug-In . SVG Version: 6.00 Build 0)  -->
<!DOCTYPE svg PUBLIC "-//W3C//DTD SVG 1.1//EN" "http://www.w3.org/Graphics/SVG/1.1/DTD/svg11.dtd">
<svg version="1.1" id="Layer_1" xmlns="http://www.w3.org/2000/svg" xmlns:xlink="http://www.w3.org/1999/xlink" x="0px" y="0px"
	 width="512px" height="512px" viewBox="0 0 512 512" style="enable-background:new 0 0 512 512;" xml:space="preserve">
<circle id="background_47_" style="fill:#334D5C;" cx="256" cy="256" r="256"/>
<rect x="67" y="363" style="fill:#E05B49;" width="121" height="36"/>
<rect x="67" y="319" style="fill:#E27C3E;" width="121" height="36"/>
<rect x="67" y="274" style="fill:#E27C3E;" width="121" height="36"/>
<rect x="67" y="230" style="fill:#EFC84A;" width="121" height="36"/>
<rect x="197" y="363" style="fill:#E05B49;" width="121" height="36"/>
<rect x="197" y="319" style="fill:#E27C3E;" width="121" height="36"/>
<rect x="197" y="274" style="fill:#E27C3E;" width="121" height="36"/>
<rect x="197" y="230" style="fill:#EFC84A;" width="121" height="36"/>
<rect x="197" y="186" style="fill:#EFC84A;" width="121" height="36"/>
<rect x="197" y="140" style="fill:#45B39C;" width="121" height="35"/>
<rect x="197" y="95" style="fill:#45B39C;" width="121" height="36"/>
<rect x="326" y="363" style="fill:#E05B49;" width="121" height="36"/>
<rect x="326" y="319" style="fill:#E27C3E;" width="121" height="36"/>
<rect x="326" y="274" style="fill:#E27C3E;" width="121" height="36"/>
<g>
</g>
<g>
</g>
<g>
</g>
<g>
</g>
<g>
</g>
<g>
</g>
<g>
</g>
<g>
</g>
<g>
</g>
<g>
</g>
<g>
</g>
<g>
</g>
<g>
</g>
<g>
</g>
<g>
</g>
</svg>
