<?xml version="1.0" encoding="iso-8859-1"?>
<!-- Generator: Adobe Illustrator 17.0.0, SVG Export Plug-In . SVG Version: 6.00 Build 0)  -->
<!DOCTYPE svg PUBLIC "-//W3C//DTD SVG 1.1//EN" "http://www.w3.org/Graphics/SVG/1.1/DTD/svg11.dtd">
<svg version="1.1" id="Layer_1" xmlns="http://www.w3.org/2000/svg" xmlns:xlink="http://www.w3.org/1999/xlink" x="0px" y="0px"
	 width="512px" height="512px" viewBox="0 0 512 512" style="enable-background:new 0 0 512 512;" xml:space="preserve">
<circle id="background_89_" style="fill:#334D5C;" cx="256" cy="256" r="256"/>
<path style="fill:#EFC84A;" d="M466.255,256C466.07,239,457,222.164,443,214.117V256H466.255z"/>
<path style="fill:#EFC84A;" d="M443,256v41.883c14-8.129,22.94-23.611,22.94-41.611c0-0.182,0.316-0.272,0.315-0.272H443z"/>
<polygon style="fill:#ECF0F0;" points="326,256 326,207.685 251,144.901 251,256 "/>
<polygon style="fill:#ECF0F0;" points="251,256 251,366.006 326,303.223 326,256 "/>
<path style="fill:#45B39C;" d="M430.645,195h-90.815c-7.184,0-13.829,4.721-13.829,11.906v0.778V256h32.228h21.368H443v-41.883
	v-7.211C443,199.721,437.829,195,430.645,195z"/>
<path style="fill:#45B39C;" d="M379.596,256h-21.368H326v47.223v2.035c0,7.186,6.646,13.742,13.829,13.742h90.815
	c7.185,0,12.355-6.557,12.355-13.742v-7.375V256H379.596z"/>
<path style="fill:#D5D9D9;" d="M226.318,256H224v112.231c0,7.948,6.178,14.451,13.5,14.451s13.5-6.503,13.5-14.451v-2.226V256
	H226.318z"/>
<path style="opacity:0.2;fill:#5D5D5D;" d="M443,256v41.883c14-8.129,22.94-23.611,22.94-41.611c0-0.182,0.316-0.272,0.315-0.272
	H443z"/>
<polygon style="opacity:0.2;fill:#5D5D5D;" points="251,256 251,366.006 326,303.223 326,256 "/>
<path style="opacity:0.2;fill:#5D5D5D;" d="M379.596,256h-21.368H326v47.223v2.035c0,7.186,6.646,13.742,13.829,13.742h90.815
	c7.185,0,12.355-6.557,12.355-13.742v-7.375V256H379.596z"/>
<path style="opacity:0.2;fill:#5D5D5D;" d="M226.318,256H224v112.231c0,7.948,6.178,14.451,13.5,14.451s13.5-6.503,13.5-14.451
	v-2.226V256H226.318z"/>
<path style="fill:#D5D9D9;" d="M237.5,129.316c-7.322,0-13.5,6.503-13.5,14.451V256h2.318H251V144.901v-1.134
	C251,135.819,244.822,129.316,237.5,129.316z"/>
<path style="fill:#45B39C;" d="M182.841,310.385c-2.412-2.63,2.091,3.072-0.516-0.725c-2.297-3.347-4.157-6.98-5.828-10.67
	c1.284,2.836-0.361-0.936-0.484-1.254c-0.654-1.679-1.225-3.389-1.784-5.102c-1.128-3.451-2-6.979-2.784-10.522
	c-1.897-8.581-2.416-17.342-2.476-26.112c-0.104-15.095,2.281-30.023,7.959-44.043c-1.119,2.762,0.307-0.555,0.485-0.936
	c0.557-1.188,1.166-2.349,1.783-3.506c0.854-1.597,1.796-3.145,2.784-4.66c1.51-2.316,1.902-2.611,0.146-0.393
	c0.229-0.29,0.465-0.576,0.715-0.848c11.655-12.705-7.242-31.704-18.946-18.946c-17.304,18.864-21.554,48.978-21.72,73.331
	c-0.166,24.209,4.556,54.619,21.72,73.33C175.599,342.088,194.496,323.089,182.841,310.385L182.841,310.385z"/>
<path style="fill:#45B39C;" d="M101.761,366.31c-0.399-0.433-0.773-0.89-1.144-1.347c-1.906-2.335,2.221,2.952,0.504,0.658
	c-0.738-0.984-1.443-1.994-2.137-3.011c-4.061-5.943-7.432-12.346-10.43-18.88c-0.479-1.041-0.934-2.094-1.39-3.146
	c1.197,2.765-0.39-1.021-0.5-1.297c-0.976-2.443-1.867-4.918-2.732-7.402c-2.147-6.16-3.9-12.451-5.436-18.789
	c-3.64-15.022-5.356-30.329-5.985-45.754c-1.24-30.383,2.066-61.053,12.321-89.783c0.857-2.402,1.793-4.776,2.756-7.139
	c-1.108,2.721,0.361-0.805,0.503-1.124c0.447-1.013,0.916-2.017,1.385-3.019c1.736-3.715,3.661-7.341,5.725-10.885
	c1.386-2.379,2.874-4.699,4.441-6.963c0.562-0.814,1.146-1.611,1.74-2.403c0.546-0.729-2.517,3.126-0.428,0.597
	c0.262-0.316,0.526-0.632,0.806-0.934c11.697-12.672-7.204-31.667-18.946-18.945c-6.915,7.491-12.125,16.879-16.474,26.01
	c-11.83,24.84-17.514,51.801-19.862,79.096c-2.834,32.919-0.247,67.172,9,98.959c4.834,16.617,11.772,33.454,21.947,47.574
	c1.693,2.352,3.42,4.74,5.39,6.873C94.558,397.977,113.458,378.982,101.761,366.31L101.761,366.31z"/>
<path style="fill:#45B39C;" d="M139.887,338.348c-0.358-0.389-0.691-0.803-1.024-1.215c-0.651-0.807,2.572,3.438,0.633,0.792
	c-0.552-0.753-1.077-1.526-1.599-2.302c-3.343-4.974-6.068-10.35-8.478-15.826c1.111,2.525-1.125-2.932-1.409-3.693
	c-0.805-2.154-1.524-4.339-2.224-6.529c-1.599-5.003-2.857-10.109-3.957-15.244c-2.697-12.599-3.545-25.469-3.606-38.33
	c-0.062-12.877,1.035-25.713,3.606-38.331c1.049-5.147,2.408-10.227,3.957-15.245c0.679-2.197,1.439-4.367,2.224-6.527
	c0.276-0.762,2.498-6.232,1.409-3.693c2.36-5.503,5.179-10.829,8.478-15.827c1.206-1.827,3.942-5.253,0.966-1.51
	c0.329-0.414,0.666-0.825,1.024-1.215c11.683-12.684-7.217-31.681-18.945-18.946c-6.585,7.15-11.326,16.205-15.12,25.053
	C95.492,203.846,91.554,229.885,91.429,256c-0.124,26.023,4.112,52.267,14.393,76.241c3.794,8.849,8.535,17.903,15.12,25.053
	C132.67,370.028,151.569,351.031,139.887,338.348L139.887,338.348z"/>
<path style="fill:#FBFFFF;" d="M262.705,183.891c14.762,11.556,29.522,23.111,44.284,34.668c6.3,4.932,15.258-3.893,8.883-8.883
	c-14.761-11.557-29.522-23.112-44.283-34.668C265.288,170.075,256.331,178.9,262.705,183.891L262.705,183.891z"/>
<g>
</g>
<g>
</g>
<g>
</g>
<g>
</g>
<g>
</g>
<g>
</g>
<g>
</g>
<g>
</g>
<g>
</g>
<g>
</g>
<g>
</g>
<g>
</g>
<g>
</g>
<g>
</g>
<g>
</g>
</svg>
